<svg width="40" height="40" viewBox="0 0 40 40" fill="none" xmlns="http://www.w3.org/2000/svg">
<path d="M25.8965 12.1504L25.8977 12.153C26.1276 12.6342 26.5752 12.8672 26.8629 13.017C26.8759 13.0238 26.8886 13.0304 26.9009 13.0368L26.975 13.0756L27.0578 13.0882L38.9655 14.8922C39.474 14.9847 39.6858 15.6293 39.3136 16.021C39.3132 16.0215 39.3127 16.022 39.3122 16.0225L30.6934 24.88L30.6934 24.88L30.6903 24.8833C30.2378 25.3569 30.2381 25.8603 30.2383 26.1931L30.2383 26.2132V26.2538L30.2448 26.2939L32.2824 38.7626C32.2825 38.763 32.2825 38.7634 32.2826 38.7637C32.3317 39.0746 32.2082 39.2946 32.053 39.4062C31.8995 39.5167 31.6889 39.5438 31.4745 39.4092L31.4629 39.4019L31.4509 39.3953L20.791 33.4881L20.7911 33.4879L20.7805 33.4824C20.3218 33.2423 19.835 33.2423 19.3762 33.4824L19.3762 33.4823L19.3657 33.4881L8.70585 39.3953L8.69387 39.4019L8.68228 39.4092C8.50358 39.5214 8.30244 39.5002 8.12042 39.3573C7.92647 39.205 7.83452 38.9723 7.87169 38.7778L7.87186 38.7779L7.87402 38.7646L9.91195 26.2939L9.91849 26.2538V26.2132L9.91849 26.1977C9.91855 26.0418 9.91865 25.7923 9.8684 25.5556C9.82181 25.3361 9.71066 25.026 9.41808 24.8335L0.687762 15.8584C0.687307 15.8579 0.686854 15.8574 0.686401 15.857C0.505731 15.6668 0.463992 15.4089 0.52832 15.2069C0.587263 15.0218 0.724207 14.8988 0.953282 14.8988H0.990943L1.02818 14.8932L12.9116 13.0928C13.2205 13.0787 13.4757 12.919 13.6519 12.7609C13.8432 12.5892 13.9986 12.37 14.1023 12.153L14.1035 12.1504L19.4239 0.848564C19.7031 0.383812 20.2969 0.383812 20.5761 0.848564L25.8965 12.1504Z" stroke="#999999"/>
<path d="M15.2052 24.6669C14.9031 24.3571 14.4225 24.6964 14.5736 25.1242C15.4386 27.4402 17.5532 29.0923 20.0248 29.0923C22.4553 29.0923 24.5424 27.5139 25.4212 25.2422C25.586 24.8291 25.0916 24.4751 24.8033 24.7849C23.0869 26.5698 19.4481 29.1071 15.2052 24.6669Z" fill="#999999"/>
<path d="M16.3231 19.3035C15.8813 18.0732 14.8136 17.2734 13.6171 17.2734C12.4389 17.2734 11.3896 18.0527 10.9478 19.242C10.8558 19.4676 10.9294 19.7341 11.1135 19.8777C11.2976 20.0212 11.5369 20.0007 11.7026 19.8162C12.5678 18.8729 13.9484 18.1142 15.5684 19.8572C15.6604 19.9597 15.7709 20.0007 15.8997 20.0007C15.9918 20.0007 16.0838 19.9802 16.1574 19.9187C16.3415 19.7957 16.4152 19.5291 16.3231 19.3035Z" fill="#999999"/>
<path d="M29.0607 19.3035C28.618 18.0732 27.5481 17.2734 26.3491 17.2734C25.1686 17.2734 24.1172 18.0527 23.6745 19.242C23.5822 19.4676 23.656 19.7341 23.8405 19.8777C24.0249 20.0212 24.2647 20.0007 24.4308 19.8162C25.2977 18.8729 26.6812 18.1142 28.3044 19.8572C28.3967 19.9597 28.5073 20.0007 28.6365 20.0007C28.7287 20.0007 28.8209 19.9802 28.8947 19.9187C29.0607 19.7957 29.1345 19.5291 29.0607 19.3035Z" fill="#999999"/>
</svg>
