<svg width="40" height="40" viewBox="0 0 40 40" fill="none" xmlns="http://www.w3.org/2000/svg">
<path d="M21.019 0.615334L26.3489 11.9375C26.5057 12.2657 26.8192 12.4297 27.1327 12.5938L39.0467 14.3988C39.9873 14.5629 40.3008 15.7115 39.6738 16.3679L31.0518 25.2287C30.7383 25.5569 30.7383 25.885 30.7383 26.2132L32.7762 38.684C32.933 39.6685 31.9924 40.3249 31.2086 39.8326L20.5487 33.9254C20.2351 33.7613 19.9216 33.7613 19.6081 33.9254L8.9482 39.8326C8.16439 40.3249 7.22381 39.5044 7.38057 38.684L9.41849 26.2132C9.41849 25.885 9.41849 25.3928 9.10496 25.2287L0.32623 16.2038C-0.300823 15.5474 0.0127036 14.3988 0.953282 14.3988L12.8673 12.5938C13.1808 12.5938 13.4943 12.2657 13.6511 11.9375L18.981 0.615334C19.4513 -0.205111 20.5487 -0.205111 21.019 0.615334Z" fill="#FFC001"/>
<path d="M15.2052 24.6669C14.9031 24.3571 14.4225 24.6964 14.5736 25.1242C15.4386 27.4402 17.5532 29.0923 20.0248 29.0923C22.4553 29.0923 24.5424 27.5139 25.4212 25.2422C25.586 24.8291 25.0916 24.4751 24.8033 24.7849C23.0869 26.5698 19.4481 29.1071 15.2052 24.6669Z" fill="#333333"/>
<path d="M16.3231 19.3035C15.8813 18.0732 14.8136 17.2734 13.6171 17.2734C12.4389 17.2734 11.3896 18.0527 10.9478 19.242C10.8558 19.4676 10.9294 19.7341 11.1135 19.8777C11.2976 20.0212 11.5369 20.0007 11.7026 19.8162C12.5678 18.8729 13.9484 18.1142 15.5684 19.8572C15.6604 19.9597 15.7709 20.0007 15.8997 20.0007C15.9918 20.0007 16.0838 19.9802 16.1574 19.9187C16.3415 19.7957 16.4152 19.5291 16.3231 19.3035Z" fill="#333333"/>
<path d="M29.0607 19.3035C28.618 18.0732 27.5481 17.2734 26.3491 17.2734C25.1686 17.2734 24.1172 18.0527 23.6745 19.242C23.5822 19.4676 23.656 19.7341 23.8405 19.8777C24.0249 20.0212 24.2647 20.0007 24.4308 19.8162C25.2977 18.8729 26.6812 18.1142 28.3044 19.8572C28.3967 19.9597 28.5073 20.0007 28.6365 20.0007C28.7287 20.0007 28.8209 19.9802 28.8947 19.9187C29.0607 19.7957 29.1345 19.5291 29.0607 19.3035Z" fill="#333333"/>
</svg>
