<svg width="40" height="40" viewBox="0 0 40 40" fill="none" xmlns="http://www.w3.org/2000/svg">
<path d="M21.019 0.615334L26.3489 11.9375C26.5057 12.2657 26.8192 12.4297 27.1327 12.5938L39.0467 14.3988C39.9873 14.5629 40.3008 15.7115 39.6738 16.3679L31.0518 25.2287C30.7383 25.5569 30.7383 25.885 30.7383 26.2132L32.7762 38.684C32.933 39.6685 31.9924 40.3249 31.2086 39.8326L20.5487 33.9254C20.2351 33.7613 19.9216 33.7613 19.6081 33.9254L8.9482 39.8326C8.16439 40.3249 7.22381 39.5044 7.38057 38.684L9.41849 26.2132C9.41849 25.885 9.41849 25.3928 9.10496 25.2287L0.32623 16.2038C-0.300823 15.5474 0.0127036 14.3988 0.953282 14.3988L12.8673 12.5938C13.1808 12.5938 13.4943 12.2657 13.6511 11.9375L18.981 0.615334C19.4513 -0.205111 20.5487 -0.205111 21.019 0.615334Z" fill="#FFC001"/>
<path d="M16.364 20.0018C16.364 20.9966 15.7579 21.82 15.0004 21.82C14.2428 21.82 13.6367 21.0138 13.6367 20.0018C13.6367 19.0069 14.2428 18.1836 15.0004 18.1836C15.7579 18.1836 16.364 18.9898 16.364 20.0018Z" fill="#333333"/>
<path d="M26.364 20.0018C26.364 20.9966 25.7579 21.82 25.0004 21.82C24.2428 21.82 23.6367 21.0138 23.6367 20.0018C23.6367 19.0069 24.2428 18.1836 25.0004 18.1836C25.7579 18.1836 26.364 18.9898 26.364 20.0018Z" fill="#333333"/>
<path d="M29.0516 16.9301C28.8817 16.8839 28.7118 16.8532 28.542 16.8071C28.1834 16.7302 27.8436 16.6533 27.5039 16.5611C27.0132 16.4227 26.5602 16.2689 26.145 16.0844C25.7109 15.8999 25.2957 15.6847 24.9182 15.4386C24.503 15.1773 24.1066 14.8698 23.748 14.5623C23.7291 14.5469 23.6914 14.5469 23.6725 14.5469C23.6536 14.5623 23.6348 14.5776 23.6348 14.6084C23.6536 15.0543 23.8801 15.5155 24.2576 15.946C24.6162 16.3304 25.0881 16.6533 25.6165 16.8839C26.1261 17.0992 26.6923 17.2376 27.2585 17.2683C27.2774 17.2683 27.2963 17.2683 27.334 17.2683C27.9758 17.2991 28.542 17.2068 29.0516 17.0223C29.0704 17.0069 29.0893 16.9916 29.0893 16.9608C29.0893 16.9608 29.0704 16.9301 29.0516 16.9301Z" fill="#333333"/>
<path d="M10.9533 16.9301C11.1229 16.8839 11.2926 16.8532 11.4622 16.8071C11.8203 16.7302 12.1596 16.6533 12.4989 16.5611C12.9889 16.4227 13.4413 16.2689 13.8559 16.0844C14.2894 15.8999 14.7041 15.6847 15.0811 15.4386C15.4957 15.1773 15.8915 14.8698 16.2497 14.5623C16.2685 14.5469 16.3062 14.5469 16.3251 14.5469C16.3439 14.5623 16.3627 14.5776 16.3627 14.6084C16.3439 15.0543 16.1177 15.5155 15.7408 15.946C15.3826 16.3304 14.9114 16.6533 14.3837 16.8839C13.8748 17.0992 13.3093 17.2376 12.7439 17.2683C12.725 17.2683 12.7062 17.2683 12.6685 17.2683C12.0276 17.2991 11.4622 17.2068 10.9533 17.0223C10.9344 17.0069 10.9156 16.9916 10.9156 16.9608C10.8967 16.9608 10.9156 16.9301 10.9533 16.9301Z" fill="#333333"/>
<path d="M13.9019 30.763C13.7314 30.7801 13.6367 30.5923 13.6367 30.4558C13.6367 29.8072 13.8451 29.1415 14.2049 28.4929C14.5647 27.8955 15.0572 27.3322 15.6632 26.8714C16.8564 25.9667 18.4284 25.4547 20.0004 25.4547C21.5913 25.4205 23.2011 25.9497 24.3754 26.8714C25.6064 27.8102 26.3451 29.1586 26.364 30.4558C26.364 30.6094 26.0799 30.9418 25.9094 30.9077C25.7989 30.9077 25.7943 30.9176 25.7579 30.8885C25.5875 30.7519 25.3981 30.6324 25.2276 30.513C24.8678 30.274 24.4701 30.0692 24.0913 29.8814C22.6329 29.1816 20.9852 28.8061 19.3375 28.9427C18.2769 29.028 17.2731 29.3182 16.3261 29.7449C15.7579 30.0009 15.2276 30.3081 14.7352 30.6666C14.5269 30.7861 14.1481 30.7289 13.9019 30.763Z" fill="#333333"/>
<mask id="mask0_194:3986" style="mask-type:alpha" maskUnits="userSpaceOnUse" x="13" y="25" width="14" height="6">
<path d="M13.9019 30.763C13.7314 30.7801 13.6367 30.5923 13.6367 30.4558C13.6367 29.8072 13.8451 29.1415 14.2049 28.4929C14.5647 27.8955 15.0572 27.3322 15.6632 26.8714C16.8564 25.9667 18.4284 25.4547 20.0004 25.4547C21.5913 25.4205 23.2011 25.9497 24.3754 26.8714C25.6064 27.8102 26.3451 29.1586 26.364 30.4558C26.364 30.6094 26.0799 30.9418 25.9094 30.9077C25.7989 30.9077 25.7943 30.9176 25.7579 30.8885C25.5875 30.7519 25.3981 30.6324 25.2276 30.513C24.8678 30.274 24.4701 30.0692 24.0913 29.8814C22.6329 29.1816 20.9852 28.8061 19.3375 28.9427C18.2769 29.028 17.2731 29.3182 16.3261 29.7449C15.7579 30.0009 15.2276 30.3081 14.7352 30.6666C14.5269 30.7861 14.1481 30.7289 13.9019 30.763Z" fill="#333333"/>
</mask>
<g mask="url(#mask0_194:3986)">
<path d="M13.3515 30.9059C13.157 30.9059 13.0804 30.6649 13.2434 30.5588C15.4735 29.1075 24.3158 23.9056 27.1628 30.6292C27.2174 30.7582 27.1238 30.9059 26.9838 30.9059H13.3515Z" fill="#F06669"/>
</g>
</svg>
