<svg width="40" height="40" viewBox="0 0 40 40" fill="none" xmlns="http://www.w3.org/2000/svg">
<path d="M25.8965 12.1504L25.8977 12.153C26.1276 12.6342 26.5752 12.8672 26.8629 13.017C26.8759 13.0238 26.8886 13.0304 26.9009 13.0368L26.975 13.0756L27.0578 13.0882L38.9655 14.8922C39.474 14.9847 39.6858 15.6293 39.3136 16.021C39.3132 16.0215 39.3127 16.022 39.3122 16.0225L30.6934 24.88L30.6934 24.88L30.6903 24.8833C30.2378 25.3569 30.2381 25.8603 30.2383 26.1931L30.2383 26.2132V26.2538L30.2448 26.2939L32.2824 38.7626C32.2825 38.763 32.2825 38.7634 32.2826 38.7637C32.3317 39.0746 32.2082 39.2946 32.053 39.4062C31.8995 39.5167 31.6889 39.5438 31.4745 39.4092L31.4629 39.4019L31.4509 39.3953L20.791 33.4881L20.7911 33.4879L20.7805 33.4824C20.3218 33.2423 19.835 33.2423 19.3762 33.4824L19.3762 33.4823L19.3657 33.4881L8.70585 39.3953L8.69387 39.4019L8.68228 39.4092C8.50358 39.5214 8.30244 39.5002 8.12042 39.3573C7.92647 39.205 7.83452 38.9723 7.87169 38.7778L7.87186 38.7779L7.87402 38.7646L9.91195 26.2939L9.91849 26.2538V26.2132L9.91849 26.1977C9.91855 26.0418 9.91865 25.7923 9.8684 25.5556C9.82181 25.3361 9.71066 25.026 9.41808 24.8335L0.687762 15.8584C0.687307 15.8579 0.686854 15.8574 0.686401 15.857C0.505731 15.6668 0.463992 15.4089 0.52832 15.2069C0.587263 15.0218 0.724207 14.8988 0.953282 14.8988H0.990943L1.02818 14.8932L12.9116 13.0928C13.2205 13.0787 13.4757 12.919 13.6519 12.7609C13.8432 12.5892 13.9986 12.37 14.1023 12.153L14.1035 12.1504L19.4239 0.848564C19.7031 0.383812 20.2969 0.383812 20.5761 0.848564L25.8965 12.1504Z" stroke="#999999"/>
<path d="M18.1829 17.4475V17.4344C18.1829 16.3978 17.3978 15.4531 16.2132 15.4531C15.2765 15.4531 14.7394 16.096 14.5465 16.6996C14.3675 16.096 13.8165 15.4531 12.8799 15.4531C11.6953 15.4531 10.9102 16.3978 10.9102 17.4344V17.4475C10.9102 17.6706 10.9102 19.9536 14.5327 21.8168C18.1829 19.9536 18.1829 17.6706 18.1829 17.4475Z" fill="#999999"/>
<path d="M29.093 17.4475V17.4344C29.093 16.3978 28.3079 15.4531 27.1233 15.4531C26.1867 15.4531 25.6495 16.096 25.4567 16.6996C25.2776 16.096 24.7266 15.4531 23.79 15.4531C22.6054 15.4531 21.8203 16.3978 21.8203 17.4344V17.4475C21.8203 17.6706 21.8203 19.9536 25.4429 21.8168C29.093 19.9536 29.093 17.6706 29.093 17.4475Z" fill="#999999"/>
<path d="M13.6367 25.8012C13.6367 25.6647 13.9208 25.44 14.0913 25.4571L25.9094 25.4595C26.0799 25.4254 26.364 25.7578 26.364 25.9114C26.3451 27.2086 25.6064 28.557 24.3754 29.4958C23.2011 30.4175 21.5913 30.9466 20.0004 30.9125C18.4284 30.9125 16.8564 30.4004 15.6632 29.4958C15.0572 29.035 14.5647 28.4717 14.2049 27.8743C13.8451 27.2257 13.6367 26.4498 13.6367 25.8012Z" fill="#999999"/>
</svg>
