<svg width="40" height="40" viewBox="0 0 40 40" fill="none" xmlns="http://www.w3.org/2000/svg">
<path d="M25.8965 12.1504L25.8977 12.153C26.1276 12.6342 26.5752 12.8672 26.8629 13.017C26.8759 13.0238 26.8886 13.0304 26.9009 13.0368L26.975 13.0756L27.0578 13.0882L38.9655 14.8922C39.474 14.9847 39.6858 15.6293 39.3136 16.021C39.3132 16.0215 39.3127 16.022 39.3122 16.0225L30.6934 24.88L30.6934 24.88L30.6903 24.8833C30.2378 25.3569 30.2381 25.8603 30.2383 26.1931L30.2383 26.2132V26.2538L30.2448 26.2939L32.2824 38.7626C32.2824 38.7627 32.2824 38.7628 32.2825 38.7629C32.3319 39.0742 32.2084 39.2945 32.053 39.4062C31.8995 39.5167 31.6889 39.5438 31.4745 39.4092L31.4629 39.4019L31.4509 39.3953L20.791 33.4881L20.7911 33.4879L20.7805 33.4824C20.3218 33.2423 19.835 33.2423 19.3762 33.4824L19.3762 33.4823L19.3657 33.4881L8.70585 39.3953L8.69387 39.4019L8.68228 39.4092C8.50358 39.5214 8.30243 39.5002 8.12042 39.3573C7.92647 39.205 7.83452 38.9723 7.87169 38.7778L7.87186 38.7778L7.87402 38.7646L9.91195 26.2939L9.91849 26.2538V26.2132L9.91849 26.1977C9.91855 26.0418 9.91865 25.7923 9.8684 25.5556C9.82181 25.3361 9.71066 25.026 9.41808 24.8335L0.687761 15.8584C0.687317 15.8579 0.686873 15.8575 0.68643 15.857C0.505735 15.6668 0.463989 15.4089 0.52832 15.2069C0.587263 15.0218 0.724207 14.8988 0.953282 14.8988H0.990943L1.02818 14.8932L12.9116 13.0928C13.2205 13.0787 13.4757 12.919 13.6519 12.7609C13.8432 12.5892 13.9986 12.37 14.1023 12.153L14.1035 12.1504L19.4239 0.848565C19.7031 0.383812 20.2969 0.383812 20.5761 0.848565L25.8965 12.1504Z" stroke="#999999"/>
<path d="M25.2367 30.0014C25.8363 30.0014 26.307 29.4726 26.1248 28.9014C25.3198 26.378 22.8831 24.5469 20.0004 24.5469C17.1156 24.5469 14.6641 26.3805 13.8693 28.9065C13.6901 29.4762 14.1603 30.0014 14.7576 30.0014H25.2367Z" fill="#999999"/>
<mask id="mask0_194:2260" style="mask-type:alpha" maskUnits="userSpaceOnUse" x="13" y="24" width="14" height="6">
<path d="M25.2367 30.0014C25.8363 30.0014 26.307 29.4726 26.1248 28.9014C25.3198 26.378 22.8831 24.5469 20.0004 24.5469C17.1156 24.5469 14.6641 26.3805 13.8693 28.9065C13.6901 29.4762 14.1603 30.0014 14.7576 30.0014H25.2367Z" fill="#333333"/>
</mask>
<g mask="url(#mask0_194:2260)">
<path d="M13.5238 30.0007C13.3159 30.0007 13.2486 29.7369 13.4362 29.6473C15.928 28.4564 24.2964 24.9256 27.1152 29.7107C27.191 29.8392 27.0973 30.0007 26.9481 30.0007H13.5238Z" fill="#999999"/>
</g>
<path d="M13.3896 21.8178C13.227 21.8178 13.0792 21.7278 12.9609 21.5657C12.7835 21.2775 12.8279 20.8813 13.0496 20.6471L14.868 18.9181L12.9905 17.5673C12.7392 17.3872 12.6505 16.991 12.7983 16.6848C12.9461 16.3786 13.2714 16.2706 13.5227 16.4507L16.095 18.2878C16.2428 18.3958 16.3463 18.5939 16.3611 18.8101C16.3759 19.0262 16.3019 19.2243 16.1541 19.3684L13.7149 21.6737C13.6114 21.7818 13.4931 21.8178 13.3896 21.8178Z" fill="#999999"/>
<path d="M26.6221 21.8178C26.5033 21.8178 26.3846 21.7818 26.2955 21.6737L23.8462 19.3684C23.7126 19.2423 23.6235 19.0262 23.6383 18.8101C23.6532 18.5939 23.7422 18.3958 23.9055 18.2878L26.4737 16.4507C26.726 16.2706 27.0526 16.3786 27.201 16.6848C27.3495 16.991 27.2604 17.3872 27.0081 17.5673L25.1228 18.9181L26.9487 20.6471C27.1862 20.8633 27.2307 21.2775 27.0378 21.5657C26.9487 21.7278 26.7854 21.8178 26.6221 21.8178Z" fill="#999999"/>
</svg>
