<svg width="40" height="40" viewBox="0 0 40 40" fill="none" xmlns="http://www.w3.org/2000/svg">
<path d="M21.019 0.615334L26.3489 11.9375C26.5057 12.2657 26.8192 12.4297 27.1327 12.5938L39.0467 14.3988C39.9873 14.5629 40.3008 15.7115 39.6738 16.3679L31.0518 25.2287C30.7383 25.5569 30.7383 25.885 30.7383 26.2132L32.7762 38.684C32.933 39.6685 31.9924 40.3249 31.2086 39.8326L20.5487 33.9254C20.2351 33.7613 19.9216 33.7613 19.6081 33.9254L8.9482 39.8326C8.16439 40.3249 7.22381 39.5044 7.38057 38.684L9.41849 26.2132C9.41849 25.885 9.41849 25.3928 9.10496 25.2287L0.32623 16.2038C-0.300823 15.5474 0.0127036 14.3988 0.953282 14.3988L12.8673 12.5938C13.1808 12.5938 13.4943 12.2657 13.6511 11.9375L18.981 0.615334C19.4513 -0.205111 20.5487 -0.205111 21.019 0.615334Z" fill="#FFC001"/>
<path d="M16.364 18.1815C16.364 19.1763 15.7579 19.9996 15.0004 19.9996C14.2428 19.9996 13.6367 19.1935 13.6367 18.1815C13.6367 17.1866 14.2428 16.3633 15.0004 16.3633C15.7579 16.3633 16.364 17.1695 16.364 18.1815Z" fill="#333333"/>
<path d="M26.364 18.1815C26.364 19.1763 25.7579 19.9996 25.0004 19.9996C24.2428 19.9996 23.6367 19.1935 23.6367 18.1815C23.6367 17.1866 24.2428 16.3633 25.0004 16.3633C25.7579 16.3633 26.364 17.1695 26.364 18.1815Z" fill="#333333"/>
<path d="M13.6367 24.8911C13.6367 24.7545 13.9208 24.5299 14.0913 24.5469L25.9094 24.5494C26.0799 24.5152 26.364 24.8476 26.364 25.0012C26.3451 26.2985 25.6064 27.6469 24.3754 28.5857C23.2011 29.5074 21.5913 30.0365 20.0004 30.0023C18.4284 30.0023 16.8564 29.4903 15.6632 28.5857C15.0572 28.1248 14.5647 27.5615 14.2049 26.9641C13.8451 26.3155 13.6367 25.5397 13.6367 24.8911Z" fill="#333333"/>
<mask id="mask0_194:4013" style="mask-type:alpha" maskUnits="userSpaceOnUse" x="13" y="24" width="14" height="7">
<path d="M13.6367 24.8911C13.6367 24.7545 13.9208 24.5299 14.0913 24.5469L25.9094 24.5494C26.0799 24.5152 26.364 24.8476 26.364 25.0012C26.3451 26.2985 25.6064 27.6469 24.3754 28.5857C23.2011 29.5074 21.5913 30.0365 20.0004 30.0023C18.4284 30.0023 16.8564 29.4903 15.6632 28.5857C15.0572 28.1248 14.5647 27.5615 14.2049 26.9641C13.8451 26.3155 13.6367 25.5397 13.6367 24.8911Z" fill="#333333"/>
</mask>
<g mask="url(#mask0_194:4013)">
<path d="M12.7285 27.9444C14.6502 29.7823 17.2518 30.9087 20.1195 30.9087C22.8689 30.9087 25.3523 29.8712 27.274 28.1815L27.1853 27.9444C19.9717 24.4168 12.8172 27.8851 12.7285 27.9444Z" fill="#F06669"/>
</g>
</svg>
