<svg width="40" height="40" viewBox="0 0 40 40" fill="none" xmlns="http://www.w3.org/2000/svg">
<path d="M21.019 0.615334L26.3489 11.9375C26.5057 12.2657 26.8192 12.4297 27.1327 12.5938L39.0467 14.3988C39.9873 14.5629 40.3008 15.7115 39.6738 16.3679L31.0518 25.2287C30.7383 25.5569 30.7383 25.885 30.7383 26.2132L32.7762 38.684C32.933 39.6685 31.9924 40.3249 31.2086 39.8326L20.5487 33.9254C20.2351 33.7613 19.9216 33.7613 19.6081 33.9254L8.9482 39.8326C8.16439 40.3249 7.22381 39.5044 7.38057 38.684L9.41849 26.2132C9.41849 25.885 9.41849 25.3928 9.10496 25.2287L0.32623 16.2038C-0.300823 15.5474 0.0127036 14.3988 0.953282 14.3988L12.8673 12.5938C13.1808 12.5938 13.4943 12.2657 13.6511 11.9375L18.981 0.615334C19.4513 -0.205111 20.5487 -0.205111 21.019 0.615334Z" fill="#FFC001"/>
<path d="M25.2367 30.0014C25.8363 30.0014 26.307 29.4726 26.1248 28.9014C25.3198 26.378 22.8831 24.5469 20.0004 24.5469C17.1156 24.5469 14.6641 26.3805 13.8693 28.9065C13.6901 29.4762 14.1603 30.0014 14.7576 30.0014H25.2367Z" fill="#333333"/>
<mask id="mask0_194:3973" style="mask-type:alpha" maskUnits="userSpaceOnUse" x="13" y="24" width="14" height="6">
<path d="M25.2367 30.0014C25.8363 30.0014 26.307 29.4726 26.1248 28.9014C25.3198 26.378 22.8831 24.5469 20.0004 24.5469C17.1156 24.5469 14.6641 26.3805 13.8693 28.9065C13.6901 29.4762 14.1603 30.0014 14.7576 30.0014H25.2367Z" fill="#333333"/>
</mask>
<g mask="url(#mask0_194:3973)">
<path d="M13.5238 30.0007C13.3159 30.0007 13.2486 29.7369 13.4362 29.6473C15.928 28.4564 24.2964 24.9256 27.1152 29.7107C27.191 29.8392 27.0973 30.0007 26.9481 30.0007H13.5238Z" fill="#F06669"/>
</g>
<path d="M13.3896 21.8178C13.227 21.8178 13.0792 21.7278 12.9609 21.5657C12.7835 21.2775 12.8279 20.8813 13.0496 20.6471L14.868 18.9181L12.9905 17.5673C12.7392 17.3872 12.6505 16.991 12.7983 16.6848C12.9461 16.3786 13.2714 16.2706 13.5227 16.4507L16.095 18.2878C16.2428 18.3958 16.3463 18.5939 16.3611 18.8101C16.3759 19.0262 16.3019 19.2243 16.1541 19.3684L13.7149 21.6737C13.6114 21.7818 13.4931 21.8178 13.3896 21.8178Z" fill="#333333"/>
<path d="M26.6221 21.8178C26.5033 21.8178 26.3846 21.7818 26.2955 21.6737L23.8462 19.3684C23.7126 19.2423 23.6235 19.0262 23.6383 18.8101C23.6532 18.5939 23.7422 18.3958 23.9055 18.2878L26.4737 16.4507C26.726 16.2706 27.0526 16.3786 27.201 16.6848C27.3495 16.991 27.2604 17.3872 27.0081 17.5673L25.1228 18.9181L26.9487 20.6471C27.1862 20.8633 27.2307 21.2775 27.0378 21.5657C26.9487 21.7278 26.7854 21.8178 26.6221 21.8178Z" fill="#333333"/>
</svg>
