<svg width="40" height="40" viewBox="0 0 40 40" fill="none" xmlns="http://www.w3.org/2000/svg">
<path d="M25.8965 12.1504L25.8977 12.153C26.1276 12.6342 26.5752 12.8672 26.8629 13.017C26.8759 13.0238 26.8886 13.0304 26.9009 13.0368L26.975 13.0756L27.0578 13.0882L38.9655 14.8922C39.474 14.9847 39.6858 15.6293 39.3136 16.021C39.3132 16.0215 39.3127 16.022 39.3122 16.0225L30.6934 24.88L30.6934 24.88L30.6903 24.8833C30.2378 25.3569 30.2381 25.8603 30.2383 26.1931L30.2383 26.2132V26.2538L30.2448 26.2939L32.2824 38.7626C32.2825 38.763 32.2825 38.7634 32.2826 38.7637C32.3317 39.0746 32.2082 39.2946 32.053 39.4062C31.8995 39.5167 31.6889 39.5438 31.4745 39.4092L31.4629 39.4019L31.4509 39.3953L20.791 33.4881L20.7911 33.4879L20.7805 33.4824C20.3218 33.2423 19.835 33.2423 19.3762 33.4824L19.3762 33.4823L19.3657 33.4881L8.70585 39.3953L8.69387 39.4019L8.68228 39.4092C8.50358 39.5214 8.30244 39.5002 8.12042 39.3573C7.92647 39.205 7.83452 38.9723 7.87169 38.7778L7.87186 38.7779L7.87402 38.7646L9.91195 26.2939L9.91849 26.2538V26.2132L9.91849 26.1977C9.91855 26.0418 9.91865 25.7923 9.8684 25.5556C9.82181 25.3361 9.71066 25.026 9.41808 24.8335L0.687762 15.8584C0.687307 15.8579 0.686854 15.8574 0.686401 15.857C0.505731 15.6668 0.463992 15.4089 0.52832 15.2069C0.587263 15.0218 0.724207 14.8988 0.953282 14.8988H0.990943L1.02818 14.8932L12.9116 13.0928C13.2205 13.0787 13.4757 12.919 13.6519 12.7609C13.8432 12.5892 13.9986 12.37 14.1023 12.153L14.1035 12.1504L19.4239 0.848564C19.7031 0.383812 20.2969 0.383812 20.5761 0.848564L25.8965 12.1504Z" stroke="#999999"/>
<path d="M16.364 18.1815C16.364 19.1763 15.7579 19.9996 15.0004 19.9996C14.2428 19.9996 13.6367 19.1935 13.6367 18.1815C13.6367 17.1866 14.2428 16.3633 15.0004 16.3633C15.7579 16.3633 16.364 17.1695 16.364 18.1815Z" fill="#999999"/>
<path d="M26.364 18.1815C26.364 19.1763 25.7579 19.9996 25.0004 19.9996C24.2428 19.9996 23.6367 19.1935 23.6367 18.1815C23.6367 17.1866 24.2428 16.3633 25.0004 16.3633C25.7579 16.3633 26.364 17.1695 26.364 18.1815Z" fill="#999999"/>
<path d="M13.6367 24.8911C13.6367 24.7545 13.9208 24.5299 14.0913 24.5469L25.9094 24.5494C26.0799 24.5152 26.364 24.8476 26.364 25.0012C26.3451 26.2985 25.6064 27.6469 24.3754 28.5857C23.2011 29.5074 21.5913 30.0365 20.0004 30.0023C18.4284 30.0023 16.8564 29.4903 15.6632 28.5857C15.0572 28.1248 14.5647 27.5615 14.2049 26.9641C13.8451 26.3155 13.6367 25.5397 13.6367 24.8911Z" fill="#999999"/>
<mask id="mask0_194:2300" style="mask-type:alpha" maskUnits="userSpaceOnUse" x="13" y="24" width="14" height="7">
<path d="M13.6367 24.8911C13.6367 24.7545 13.9208 24.5299 14.0913 24.5469L25.9094 24.5494C26.0799 24.5152 26.364 24.8476 26.364 25.0012C26.3451 26.2985 25.6064 27.6469 24.3754 28.5857C23.2011 29.5074 21.5913 30.0365 20.0004 30.0023C18.4284 30.0023 16.8564 29.4903 15.6632 28.5857C15.0572 28.1248 14.5647 27.5615 14.2049 26.9641C13.8451 26.3155 13.6367 25.5397 13.6367 24.8911Z" fill="#999999"/>
</mask>
<g mask="url(#mask0_194:2300)">
<path d="M12.7285 27.9444C14.6502 29.7823 17.2518 30.9087 20.1195 30.9087C22.8689 30.9087 25.3523 29.8712 27.274 28.1815L27.1853 27.9444C19.9717 24.4168 12.8172 27.8851 12.7285 27.9444Z" fill="#999999"/>
</g>
</svg>
