<svg width="40" height="40" viewBox="0 0 40 40" fill="none" xmlns="http://www.w3.org/2000/svg">
<path d="M21.019 0.615334L26.3489 11.9375C26.5057 12.2657 26.8192 12.4297 27.1327 12.5938L39.0467 14.3988C39.9873 14.5629 40.3008 15.7115 39.6738 16.3679L31.0518 25.2287C30.7383 25.5569 30.7383 25.885 30.7383 26.2132L32.7762 38.684C32.933 39.6685 31.9924 40.3249 31.2086 39.8326L20.5487 33.9254C20.2351 33.7613 19.9216 33.7613 19.6081 33.9254L8.9482 39.8326C8.16439 40.3249 7.22381 39.5044 7.38057 38.684L9.41849 26.2132C9.41849 25.885 9.41849 25.3928 9.10496 25.2287L0.32623 16.2038C-0.300823 15.5474 0.0127036 14.3988 0.953282 14.3988L12.8673 12.5938C13.1808 12.5938 13.4943 12.2657 13.6511 11.9375L18.981 0.615334C19.4513 -0.205111 20.5487 -0.205111 21.019 0.615334Z" fill="#FFC001"/>
<path d="M18.1829 17.4475V17.4344C18.1829 16.3978 17.3978 15.4531 16.2132 15.4531C15.2765 15.4531 14.7394 16.096 14.5465 16.6996C14.3675 16.096 13.8165 15.4531 12.8799 15.4531C11.6953 15.4531 10.9102 16.3978 10.9102 17.4344V17.4475C10.9102 17.6706 10.9102 19.9536 14.5327 21.8168C18.1829 19.9536 18.1829 17.6706 18.1829 17.4475Z" fill="#F06669"/>
<path d="M29.093 17.4475V17.4344C29.093 16.3978 28.3079 15.4531 27.1233 15.4531C26.1867 15.4531 25.6495 16.096 25.4567 16.6996C25.2776 16.096 24.7266 15.4531 23.79 15.4531C22.6054 15.4531 21.8203 16.3978 21.8203 17.4344V17.4475C21.8203 17.6706 21.8203 19.9536 25.4429 21.8168C29.093 19.9536 29.093 17.6706 29.093 17.4475Z" fill="#F06669"/>
<path d="M13.6367 25.8012C13.6367 25.6647 13.9208 25.44 14.0913 25.4571L25.9094 25.4595C26.0799 25.4254 26.364 25.7578 26.364 25.9114C26.3451 27.2086 25.6064 28.557 24.3754 29.4958C23.2011 30.4175 21.5913 30.9466 20.0004 30.9125C18.4284 30.9125 16.8564 30.4004 15.6632 29.4958C15.0572 29.035 14.5647 28.4717 14.2049 27.8743C13.8451 27.2257 13.6367 26.4498 13.6367 25.8012Z" fill="#333333"/>
<path d="M14 26.3239C14 26.1951 14.2679 25.9833 14.4286 25.9994L25.5714 26.0017C25.7321 25.9695 26 26.2829 26 26.4277C25.9821 27.6508 25.2857 28.9222 24.125 29.8073C23.0179 30.6764 21.5 31.1753 20 31.1431C18.5179 31.1431 17.0357 30.6603 15.9107 29.8073C15.3393 29.3728 14.875 28.8417 14.5357 28.2785C14.1964 27.6669 14 26.9354 14 26.3239Z" fill="#333333"/>
<mask id="mask0_194:4027" style="mask-type:alpha" maskUnits="userSpaceOnUse" x="14" y="26" width="12" height="6">
<path d="M14 26.3239C14 26.1951 14.2679 25.9833 14.4286 25.9994L25.5714 26.0017C25.7321 25.9695 26 26.2829 26 26.4277C25.9821 27.6508 25.2857 28.9222 24.125 29.8073C23.0179 30.6764 21.5 31.1753 20 31.1431C18.5179 31.1431 17.0357 30.6603 15.9107 29.8073C15.3393 29.3728 14.875 28.8417 14.5357 28.2785C14.1964 27.6669 14 26.9354 14 26.3239Z" fill="#333333"/>
</mask>
<g mask="url(#mask0_194:4027)">
<path d="M13.1426 29.2017C14.9544 30.9346 17.4074 31.9967 20.1112 31.9967C22.7036 31.9967 25.045 31.0184 26.8569 29.4253L26.7732 29.2017C19.9718 25.8756 13.2262 29.1458 13.1426 29.2017Z" fill="#F06669"/>
</g>
</svg>
