<svg width="22" height="19" viewBox="0 0 22 19" fill="none" xmlns="http://www.w3.org/2000/svg">
<path d="M16.3254 7.9695L17.6864 7.91033C17.9231 7.85116 18.1598 7.61447 18.1598 7.31862V5.66181H3.48521C3.18935 5.66181 2.95266 5.42512 2.95266 5.18844C2.95266 4.89258 3.18935 4.65589 3.48521 4.65589H6.2071L8.10059 3.76832H2.6568C2.30178 3.76832 2.00592 4.06418 2.00592 4.41921V16.9636C2.00592 17.3186 2.30178 17.6145 2.6568 17.6145H17.5089C17.8639 17.6145 18.1598 17.3186 18.1598 16.9636V14.0642C18.1598 13.7091 17.8639 13.4133 17.5089 13.4133C16.858 13.4133 16.2071 13.4133 15.497 13.4133C14.6095 13.4133 13.8994 12.7032 13.8994 11.7565V9.56714C13.8994 8.08785 15.142 7.9695 16.3254 7.9695ZM8.51479 4.65589H15.0237L13.7811 2.17069L8.51479 4.65589ZM16.1479 4.65589H18.1598V4.41921C18.1598 4.06418 17.8639 3.76832 17.5089 3.76832H15.6746L16.1479 4.65589ZM15.2012 2.7624H17.5089C18.3965 2.7624 19.1065 3.53163 19.1065 4.41921C19.1065 5.36595 19.1065 6.37187 19.1065 7.31862C19.1065 7.5553 19.1065 7.73282 18.9882 7.9695H19.3432C20.2308 7.9695 21 8.67956 21 9.56714V11.7565C21 12.6441 20.2308 13.4133 19.3432 13.4133H18.9882C19.1065 13.5908 19.1065 13.8275 19.1065 14.0642V16.9636C19.1065 17.8512 18.3965 18.5612 17.5089 18.5612H2.6568C1.76923 18.5612 1 17.8512 1 16.9636V4.41921C1 3.53163 1.76923 2.7624 2.6568 2.7624H10.1716L13.8402 1.04643C14.0769 0.928083 14.3728 1.04643 14.4911 1.28311L15.2012 2.7624ZM19.3432 8.97542C18.0414 8.97542 16.7988 8.97542 15.497 8.97542C15.142 8.97542 14.9053 9.21211 14.9053 9.56714V11.7565C14.9053 12.1115 15.142 12.4074 15.497 12.4074C16.7988 12.4074 18.0414 12.4074 19.3432 12.4074C19.6982 12.4074 19.9941 12.1115 19.9941 11.7565V9.56714C19.9941 9.21211 19.6982 8.97542 19.3432 8.97542Z" fill="white" stroke="white" stroke-width="0.6"/>
</svg>
