<svg width="34" height="34" viewBox="0 0 34 34" fill="none" xmlns="http://www.w3.org/2000/svg">
<path d="M3.04174 33.5H3.04405H30.9559C32.369 33.5 33.5 32.312 33.5 30.893V14.4103C33.5 12.9877 32.3756 11.7981 30.9559 11.7981H22.9886L23.0467 11.7594L23.047 11.7592C25.5315 10.103 27.4419 7.94638 28.0744 5.93122C28.3712 5.0094 28.4046 4.11863 28.1502 3.31211C27.8949 2.5027 27.3622 1.81859 26.5974 1.29386C25.844 0.774338 24.9899 0.510379 24.0787 0.510379C23.129 0.510379 22.1449 0.812183 21.2586 1.34467L21.2491 1.35037L21.2399 1.35648C19.2468 2.67722 17.751 4.58432 16.9094 6.85507C16.0678 4.58436 14.5721 2.68263 12.5995 1.37235L12.5907 1.36654L12.5818 1.3611C11.6533 0.799082 10.6988 0.5 9.75016 0.5C8.84397 0.5 7.99226 0.771979 7.21496 1.29654L7.21357 1.29748C6.44084 1.82274 5.90359 2.4974 5.64948 3.30618C5.39646 4.11152 5.43904 5.00211 5.73984 5.93795L5.73984 5.93795L5.74048 5.93993C6.40755 7.98603 8.36448 10.1953 10.7927 11.7631C10.7928 11.7631 10.7929 11.7632 10.793 11.7632L10.8549 11.8033H3.04405C1.62439 11.8033 0.5 12.9929 0.5 14.4155V30.893C0.5 32.3141 1.63256 33.4935 3.04174 33.5ZM7.64922 5.30218L7.56223 5.02037L7.52251 4.70522C7.47463 4.32542 7.52386 4.01499 7.64821 3.7525C7.77337 3.4883 7.99091 3.23849 8.33301 3.00782L8.33304 3.00786L8.33857 3.00402C8.76296 2.70949 9.25482 2.55013 9.77654 2.54834C10.4065 2.57257 11.0241 2.77213 11.5444 3.11467L11.5523 3.11986L11.5604 3.12475C13.5596 4.33527 15.7526 7.61932 15.916 11.5662V11.7569L15.9136 11.7565L15.9118 11.7563C14.3144 11.5311 12.4655 10.6196 10.8888 9.38307C9.30813 8.14349 8.08272 6.64174 7.64922 5.30218ZM22.2644 3.13011C22.7981 2.77841 23.4109 2.58264 24.0588 2.55354C24.5718 2.55561 25.056 2.71081 25.4663 3.00132L25.4662 3.00141L25.4749 3.00733C25.9005 3.29538 26.1372 3.61133 26.2427 3.95413C26.3499 4.30237 26.3407 4.73952 26.1603 5.29954L26.16 5.30068C25.7321 6.64044 24.5112 8.14312 22.9332 9.38415C21.3604 10.6211 19.5139 11.5339 17.9163 11.7616L17.9152 11.7617L17.9128 11.7621V11.5504C18.0713 7.63506 20.2641 4.34544 22.2489 3.13997L22.2567 3.13518L22.2644 3.13011ZM2.66284 14.0111L2.66296 14.0113L2.67164 14.0018C2.76879 13.8964 2.89752 13.8412 3.03398 13.8412H3.04405H15.8908V17.4601H2.50692V14.4207H2.507L2.50684 14.4119C2.50412 14.2575 2.56049 14.1166 2.66284 14.0111ZM3.04405 31.4724C2.76354 31.4724 2.50692 31.2364 2.50692 30.893V19.4981H15.8908V31.4724H3.04405ZM30.9559 31.462H17.8977V19.4877H31.4981V30.893C31.4981 31.2213 31.2461 31.462 30.9559 31.462ZM31.4931 17.4653H17.8927V13.8464H30.9559C31.2396 13.8464 31.4931 14.0856 31.4931 14.4155V17.4653Z" fill="#6CA383" stroke="#6CA383"/>
</svg>
