<svg width="34" height="34" viewBox="0 0 34 34" fill="none" xmlns="http://www.w3.org/2000/svg">
<path d="M17 1C13.523 1 10.7155 3.83052 10.7155 7.28764V7.84943H6.87144C5.94281 7.84943 5.05737 8.3896 4.8846 9.2971L1.01891 31.0338C0.932523 31.5955 1.14848 32.1141 1.53721 32.4598C1.92594 32.8055 2.44425 33 3.00575 33H30.9943C31.5558 33 32.0957 32.8055 32.4628 32.4598C32.8515 32.1141 33.0675 31.5739 32.9811 31.0338L29.1154 9.3187C28.9642 8.41121 28.0572 7.84943 27.1286 7.87103H23.2629V7.28764C23.2845 3.83052 20.4554 1 17 1ZM17 2.14517C19.8507 2.14517 22.1399 4.43552 22.1399 7.28764V7.84943H11.8601V7.28764C11.8601 4.43552 14.1493 2.14517 17 2.14517ZM6.84985 8.9946H10.7155V11.8467C10.7155 12.1708 10.9747 12.4085 11.2986 12.4085C11.6226 12.4085 11.8601 12.1492 11.8601 11.8467V8.9946H22.1399V11.8467C22.1399 12.1708 22.3774 12.4301 22.7014 12.4301C23.0253 12.4301 23.2845 12.1924 23.2845 11.8683V11.8467V8.9946H27.1502C27.6469 8.9946 27.9708 9.27549 28.014 9.51317L31.8581 31.2498C31.8797 31.4011 31.8365 31.5091 31.7069 31.6388C31.5558 31.7684 31.3182 31.8764 31.0158 31.8764H3.00575C2.7034 31.8764 2.46584 31.7684 2.31467 31.6388C2.1635 31.5091 2.12031 31.3795 2.1419 31.2498L5.986 9.51317C6.0292 9.2971 6.37473 8.9946 6.84985 8.9946Z" fill="#F4E4DD" stroke="#F78B5B" stroke-width="1.2"/>
</svg>
