<svg width="36" height="34" viewBox="0 0 36 34" fill="none" xmlns="http://www.w3.org/2000/svg">
<mask id="path-1-outside-1_138:583" maskUnits="userSpaceOnUse" x="0" y="0" width="36" height="34" fill="black">
<rect fill="white" width="36" height="34"/>
<path d="M33.9461 7.46835L30.6676 2.91139C30.2483 2.34177 29.6002 2 28.914 2H20.9847H15.0377H7.10832C6.42213 2 5.73594 2.34177 5.35472 2.91139L2.07624 7.46835C2.03812 7.5443 2 7.62025 2 7.6962V30.0253C2 31.1266 2.8768 32 3.98233 32H32.0019C33.1074 32 33.9842 31.0886 33.9842 30.0253V7.6962C34.0223 7.62025 33.9842 7.5443 33.9461 7.46835ZM28.914 2.75949C29.3715 2.75949 29.7908 2.98734 30.0577 3.32911L32.9168 7.31646H22.5095L21.2134 2.75949H28.914ZM15.6476 2.75949H20.4128L21.8233 7.73418V14.5696C21.8233 14.5696 21.8233 14.6076 21.7852 14.6076C21.7471 14.6076 21.7471 14.6076 21.7471 14.6076L18.0112 12.5949L14.2752 14.6456H14.2371C14.199 14.6456 14.199 14.6076 14.199 14.6076V7.77215L15.6476 2.75949ZM5.96467 3.32911C6.23152 2.94937 6.65086 2.75949 7.10832 2.75949H14.8471L13.5509 7.31646H3.10553L5.96467 3.32911ZM33.2599 30.0253C33.2599 30.7089 32.6881 31.2405 32.04 31.2405H3.98233C3.29614 31.2405 2.76244 30.6709 2.76244 30.0253V8.07595H13.4365V14.5696C13.4365 14.8734 13.589 15.1013 13.8178 15.2532C13.9321 15.3291 14.0846 15.3671 14.2371 15.3671C14.3515 15.3671 14.504 15.3291 14.6183 15.2532L18.0112 13.4304L21.404 15.2532C21.6709 15.4051 21.9377 15.3671 22.2046 15.2532C22.4333 15.1013 22.5858 14.8354 22.5858 14.5696V8.07595H33.2599V30.0253Z"/>
</mask>
<path d="M33.9461 7.46835L30.6676 2.91139C30.2483 2.34177 29.6002 2 28.914 2H20.9847H15.0377H7.10832C6.42213 2 5.73594 2.34177 5.35472 2.91139L2.07624 7.46835C2.03812 7.5443 2 7.62025 2 7.6962V30.0253C2 31.1266 2.8768 32 3.98233 32H32.0019C33.1074 32 33.9842 31.0886 33.9842 30.0253V7.6962C34.0223 7.62025 33.9842 7.5443 33.9461 7.46835ZM28.914 2.75949C29.3715 2.75949 29.7908 2.98734 30.0577 3.32911L32.9168 7.31646H22.5095L21.2134 2.75949H28.914ZM15.6476 2.75949H20.4128L21.8233 7.73418V14.5696C21.8233 14.5696 21.8233 14.6076 21.7852 14.6076C21.7471 14.6076 21.7471 14.6076 21.7471 14.6076L18.0112 12.5949L14.2752 14.6456H14.2371C14.199 14.6456 14.199 14.6076 14.199 14.6076V7.77215L15.6476 2.75949ZM5.96467 3.32911C6.23152 2.94937 6.65086 2.75949 7.10832 2.75949H14.8471L13.5509 7.31646H3.10553L5.96467 3.32911ZM33.2599 30.0253C33.2599 30.7089 32.6881 31.2405 32.04 31.2405H3.98233C3.29614 31.2405 2.76244 30.6709 2.76244 30.0253V8.07595H13.4365V14.5696C13.4365 14.8734 13.589 15.1013 13.8178 15.2532C13.9321 15.3291 14.0846 15.3671 14.2371 15.3671C14.3515 15.3671 14.504 15.3291 14.6183 15.2532L18.0112 13.4304L21.404 15.2532C21.6709 15.4051 21.9377 15.3671 22.2046 15.2532C22.4333 15.1013 22.5858 14.8354 22.5858 14.5696V8.07595H33.2599V30.0253Z" fill="#41A3D3"/>
<path d="M33.9461 7.46835L34.9292 6.9749L34.89 6.89684L34.839 6.82595L33.9461 7.46835ZM30.6676 2.91139L31.5606 2.26895L31.5535 2.25926L30.6676 2.91139ZM5.35472 2.91139L6.24764 3.5538L6.25852 3.53868L6.26888 3.5232L5.35472 2.91139ZM2.07624 7.46835L1.18332 6.82595L1.13232 6.89684L1.09314 6.9749L2.07624 7.46835ZM33.9842 7.6962L33.0011 7.20274L32.8842 7.43563V7.6962H33.9842ZM30.0577 3.32911L30.9516 2.68811L30.9385 2.66986L30.9247 2.65215L30.0577 3.32911ZM32.9168 7.31646V8.41646H35.0591L33.8107 6.67546L32.9168 7.31646ZM22.5095 7.31646L21.4515 7.61739L21.6788 8.41646H22.5095V7.31646ZM21.2134 2.75949V1.65949H19.7569L20.1554 3.06043L21.2134 2.75949ZM15.6476 2.75949V1.65949H14.8205L14.5909 2.4541L15.6476 2.75949ZM20.4128 2.75949L21.4711 2.45943L21.2443 1.65949H20.4128V2.75949ZM21.8233 7.73418H22.9233V7.58125L22.8816 7.43411L21.8233 7.73418ZM21.8233 14.5696H20.7233L20.7233 14.5696L21.8233 14.5696ZM21.7471 14.6076L21.2254 15.576L21.4697 15.7076H21.7471V14.6076ZM18.0112 12.5949L18.5329 11.6265L18.0063 11.3428L17.4819 11.6306L18.0112 12.5949ZM14.2752 14.6456V15.7456H14.5573L14.8045 15.6099L14.2752 14.6456ZM14.199 14.6076L15.299 14.6076V14.6076H14.199ZM14.199 7.77215L13.1422 7.46676L13.099 7.61639V7.77215H14.199ZM5.96467 3.32911L6.85864 3.97014L6.86468 3.96156L5.96467 3.32911ZM14.8471 2.75949L15.9051 3.06043L16.3036 1.65949H14.8471V2.75949ZM13.5509 7.31646V8.41646H14.3817L14.6089 7.61739L13.5509 7.31646ZM3.10553 7.31646L2.2116 6.67546L0.963208 8.41646H3.10553V7.31646ZM2.76244 8.07595V6.97595H1.66244V8.07595H2.76244ZM13.4365 8.07595H14.5365V6.97595H13.4365V8.07595ZM14.6183 15.2532L14.0977 14.2842L14.0525 14.3084L14.0098 14.3368L14.6183 15.2532ZM18.0112 13.4304L18.5318 12.4614L18.0112 12.1817L17.4906 12.4614L18.0112 13.4304ZM21.404 15.2532L21.9482 14.2972L21.9365 14.2905L21.9246 14.2842L21.404 15.2532ZM22.2046 15.2532L22.6365 16.2648L22.7291 16.2253L22.8131 16.1695L22.2046 15.2532ZM22.5858 8.07595V6.97595H21.4858V8.07595H22.5858ZM33.2599 8.07595H34.3599V6.97595H33.2599V8.07595ZM34.839 6.82595L31.5605 2.26898L29.7747 3.5538L33.0532 8.11076L34.839 6.82595ZM31.5535 2.25926C30.9395 1.42522 29.9707 0.9 28.914 0.9V3.1C29.2297 3.1 29.5571 3.25832 29.7818 3.56353L31.5535 2.25926ZM28.914 0.9H20.9847V3.1H28.914V0.9ZM20.9847 0.9H15.0377V3.1H20.9847V0.9ZM15.0377 0.9H7.10832V3.1H15.0377V0.9ZM7.10832 0.9C6.08205 0.9 5.04053 1.40311 4.44056 2.29959L6.26888 3.5232C6.43135 3.28044 6.76221 3.1 7.10832 3.1V0.9ZM4.4618 2.26898L1.18332 6.82595L2.96917 8.11076L6.24764 3.5538L4.4618 2.26898ZM1.09314 6.9749C1.08724 6.98665 0.9 7.30894 0.9 7.6962H3.1C3.1 7.83912 3.06477 7.93934 3.0533 7.96982C3.0467 7.98733 3.0421 7.99678 3.04356 7.99367C3.04554 7.98946 3.04872 7.98299 3.05935 7.96181L1.09314 6.9749ZM0.9 7.6962V30.0253H3.1V7.6962H0.9ZM0.9 30.0253C0.9 31.7381 2.2733 33.1 3.98233 33.1V30.9C3.4803 30.9 3.1 30.5151 3.1 30.0253H0.9ZM3.98233 33.1H32.0019V30.9H3.98233V33.1ZM32.0019 33.1C33.7246 33.1 35.0842 31.6864 35.0842 30.0253H32.8842C32.8842 30.4908 32.4902 30.9 32.0019 30.9V33.1ZM35.0842 30.0253V7.6962H32.8842V30.0253H35.0842ZM34.9673 8.18966C35.1355 7.85465 35.1153 7.53229 35.0607 7.31452C35.0161 7.13718 34.9356 6.98765 34.9292 6.9749L32.963 7.96181C32.9947 8.02501 32.9523 7.95143 32.9268 7.85004C32.8912 7.70822 32.8711 7.46181 33.0011 7.20274L34.9673 8.18966ZM28.914 3.85949C29.0041 3.85949 29.114 3.90791 29.1906 4.00608L30.9247 2.65215C30.4676 2.06678 29.7388 1.65949 28.914 1.65949V3.85949ZM29.1637 3.97011L32.0229 7.95745L33.8107 6.67546L30.9516 2.68811L29.1637 3.97011ZM32.9168 6.21646H22.5095V8.41646H32.9168V6.21646ZM23.5676 7.01552L22.2714 2.45856L20.1554 3.06043L21.4515 7.61739L23.5676 7.01552ZM21.2134 3.85949H28.914V1.65949H21.2134V3.85949ZM15.6476 3.85949H20.4128V1.65949H15.6476V3.85949ZM19.3546 3.05956L20.7651 8.03424L22.8816 7.43411L21.4711 2.45943L19.3546 3.05956ZM20.7233 7.73418V14.5696H22.9233V7.73418H20.7233ZM21.8233 14.5696C20.7233 14.5696 20.7233 14.5691 20.7233 14.5686C20.7233 14.5684 20.7233 14.5678 20.7234 14.5675C20.7234 14.5667 20.7234 14.566 20.7234 14.5653C20.7234 14.5638 20.7234 14.5624 20.7234 14.5609C20.7234 14.558 20.7234 14.555 20.7235 14.5519C20.7236 14.5459 20.7237 14.5397 20.724 14.5333C20.7244 14.5205 20.7251 14.5069 20.7261 14.4926C20.7281 14.4643 20.7316 14.431 20.7378 14.3941C20.7493 14.3253 20.7744 14.2168 20.8355 14.0952C20.8987 13.9691 21.0107 13.8102 21.1987 13.6853C21.3934 13.556 21.6031 13.5076 21.7852 13.5076V15.7076C21.9864 15.7076 22.2104 15.6544 22.4158 15.518C22.6145 15.386 22.7337 15.2176 22.8017 15.082C22.8675 14.9509 22.895 14.8329 22.9077 14.7571C22.9145 14.7165 22.9183 14.6803 22.9205 14.6499C22.9216 14.6345 22.9223 14.6201 22.9227 14.6068C22.9229 14.6001 22.9231 14.5937 22.9232 14.5875C22.9233 14.5844 22.9233 14.5814 22.9233 14.5784C22.9233 14.5769 22.9233 14.5754 22.9233 14.574C22.9233 14.5732 22.9233 14.5725 22.9233 14.5718C22.9233 14.5714 22.9233 14.5709 22.9233 14.5707C22.9233 14.5701 22.9233 14.5696 21.8233 14.5696ZM21.7852 13.5076C21.7852 13.5076 21.7851 13.5076 21.785 13.5076C21.7849 13.5076 21.7849 13.5076 21.7848 13.5076C21.7847 13.5076 21.7846 13.5076 21.7846 13.5076C21.7845 13.5076 21.7844 13.5076 21.7843 13.5076C21.7843 13.5076 21.7842 13.5076 21.7841 13.5076C21.784 13.5076 21.784 13.5076 21.7839 13.5076C21.7838 13.5076 21.7838 13.5076 21.7837 13.5076C21.7836 13.5076 21.7835 13.5076 21.7835 13.5076C21.7834 13.5076 21.7833 13.5076 21.7833 13.5076C21.7832 13.5076 21.7831 13.5076 21.783 13.5076C21.783 13.5076 21.7829 13.5076 21.7828 13.5076C21.7828 13.5076 21.7827 13.5076 21.7826 13.5076C21.7825 13.5076 21.7825 13.5076 21.7824 13.5076C21.7823 13.5076 21.7823 13.5076 21.7822 13.5076C21.7821 13.5076 21.782 13.5076 21.782 13.5076C21.7819 13.5076 21.7818 13.5076 21.7818 13.5076C21.7817 13.5076 21.7816 13.5076 21.7816 13.5076C21.7815 13.5076 21.7814 13.5076 21.7813 13.5076C21.7813 13.5076 21.7812 13.5076 21.7811 13.5076C21.7811 13.5076 21.781 13.5076 21.7809 13.5076C21.7809 13.5076 21.7808 13.5076 21.7807 13.5076C21.7807 13.5076 21.7806 13.5076 21.7805 13.5076C21.7805 13.5076 21.7804 13.5076 21.7803 13.5076C21.7802 13.5076 21.7802 13.5076 21.7801 13.5076C21.78 13.5076 21.78 13.5076 21.7799 13.5076C21.7798 13.5076 21.7798 13.5076 21.7797 13.5076C21.7796 13.5076 21.7796 13.5076 21.7795 13.5076C21.7794 13.5076 21.7794 13.5076 21.7793 13.5076C21.7792 13.5076 21.7792 13.5076 21.7791 13.5076C21.779 13.5076 21.779 13.5076 21.7789 13.5076C21.7788 13.5076 21.7788 13.5076 21.7787 13.5076C21.7786 13.5076 21.7786 13.5076 21.7785 13.5076C21.7785 13.5076 21.7784 13.5076 21.7783 13.5076C21.7783 13.5076 21.7782 13.5076 21.7781 13.5076C21.7781 13.5076 21.778 13.5076 21.7779 13.5076C21.7779 13.5076 21.7778 13.5076 21.7777 13.5076C21.7777 13.5076 21.7776 13.5076 21.7775 13.5076C21.7775 13.5076 21.7774 13.5076 21.7774 13.5076C21.7773 13.5076 21.7772 13.5076 21.7772 13.5076C21.7771 13.5076 21.777 13.5076 21.777 13.5076C21.7769 13.5076 21.7768 13.5076 21.7768 13.5076C21.7767 13.5076 21.7767 13.5076 21.7766 13.5076C21.7765 13.5076 21.7765 13.5076 21.7764 13.5076C21.7763 13.5076 21.7763 13.5076 21.7762 13.5076C21.7762 13.5076 21.7761 13.5076 21.776 13.5076C21.776 13.5076 21.7759 13.5076 21.7758 13.5076C21.7758 13.5076 21.7757 13.5076 21.7757 13.5076C21.7756 13.5076 21.7755 13.5076 21.7755 13.5076C21.7754 13.5076 21.7754 13.5076 21.7753 13.5076C21.7752 13.5076 21.7752 13.5076 21.7751 13.5076C21.7751 13.5076 21.775 13.5076 21.7749 13.5076C21.7749 13.5076 21.7748 13.5076 21.7748 13.5076C21.7747 13.5076 21.7746 13.5076 21.7746 13.5076C21.7745 13.5076 21.7745 13.5076 21.7744 13.5076C21.7743 13.5076 21.7743 13.5076 21.7742 13.5076C21.7742 13.5076 21.7741 13.5076 21.774 13.5076C21.774 13.5076 21.7739 13.5076 21.7739 13.5076C21.7738 13.5076 21.7737 13.5076 21.7737 13.5076C21.7736 13.5076 21.7736 13.5076 21.7735 13.5076C21.7734 13.5076 21.7734 13.5076 21.7733 13.5076C21.7733 13.5076 21.7732 13.5076 21.7732 13.5076C21.7731 13.5076 21.773 13.5076 21.773 13.5076C21.7729 13.5076 21.7729 13.5076 21.7728 13.5076C21.7728 13.5076 21.7727 13.5076 21.7726 13.5076C21.7726 13.5076 21.7725 13.5076 21.7725 13.5076C21.7724 13.5076 21.7724 13.5076 21.7723 13.5076C21.7722 13.5076 21.7722 13.5076 21.7721 13.5076C21.7721 13.5076 21.772 13.5076 21.772 13.5076C21.7719 13.5076 21.7719 13.5076 21.7718 13.5076C21.7717 13.5076 21.7717 13.5076 21.7716 13.5076C21.7716 13.5076 21.7715 13.5076 21.7715 13.5076C21.7714 13.5076 21.7714 13.5076 21.7713 13.5076C21.7712 13.5076 21.7712 13.5076 21.7711 13.5076C21.7711 13.5076 21.771 13.5076 21.771 13.5076C21.7709 13.5076 21.7709 13.5076 21.7708 13.5076C21.7708 13.5076 21.7707 13.5076 21.7706 13.5076C21.7706 13.5076 21.7705 13.5076 21.7705 13.5076C21.7704 13.5076 21.7704 13.5076 21.7703 13.5076C21.7703 13.5076 21.7702 13.5076 21.7702 13.5076C21.7701 13.5076 21.7701 13.5076 21.77 13.5076C21.77 13.5076 21.7699 13.5076 21.7698 13.5076C21.7698 13.5076 21.7697 13.5076 21.7697 13.5076C21.7696 13.5076 21.7696 13.5076 21.7695 13.5076C21.7695 13.5076 21.7694 13.5076 21.7694 13.5076C21.7693 13.5076 21.7693 13.5076 21.7692 13.5076C21.7692 13.5076 21.7691 13.5076 21.7691 13.5076C21.769 13.5076 21.769 13.5076 21.7689 13.5076C21.7689 13.5076 21.7688 13.5076 21.7688 13.5076C21.7687 13.5076 21.7687 13.5076 21.7686 13.5076C21.7686 13.5076 21.7685 13.5076 21.7684 13.5076C21.7684 13.5076 21.7683 13.5076 21.7683 13.5076C21.7682 13.5076 21.7682 13.5076 21.7681 13.5076C21.7681 13.5076 21.768 13.5076 21.768 13.5076C21.7679 13.5076 21.7679 13.5076 21.7678 13.5076C21.7678 13.5076 21.7677 13.5076 21.7677 13.5076C21.7677 13.5076 21.7676 13.5076 21.7676 13.5076C21.7675 13.5076 21.7675 13.5076 21.7674 13.5076C21.7674 13.5076 21.7673 13.5076 21.7673 13.5076C21.7672 13.5076 21.7672 13.5076 21.7671 13.5076C21.7671 13.5076 21.767 13.5076 21.767 13.5076C21.7669 13.5076 21.7669 13.5076 21.7668 13.5076C21.7668 13.5076 21.7667 13.5076 21.7667 13.5076C21.7666 13.5076 21.7666 13.5076 21.7665 13.5076C21.7665 13.5076 21.7664 13.5076 21.7664 13.5076C21.7663 13.5076 21.7663 13.5076 21.7663 13.5076C21.7662 13.5076 21.7662 13.5076 21.7661 13.5076C21.7661 13.5076 21.766 13.5076 21.766 13.5076C21.7659 13.5076 21.7659 13.5076 21.7658 13.5076C21.7658 13.5076 21.7657 13.5076 21.7657 13.5076C21.7656 13.5076 21.7656 13.5076 21.7656 13.5076C21.7655 13.5076 21.7655 13.5076 21.7654 13.5076C21.7654 13.5076 21.7653 13.5076 21.7653 13.5076C21.7652 13.5076 21.7652 13.5076 21.7651 13.5076C21.7651 13.5076 21.7651 13.5076 21.765 13.5076C21.765 13.5076 21.7649 13.5076 21.7649 13.5076C21.7648 13.5076 21.7648 13.5076 21.7647 13.5076C21.7647 13.5076 21.7647 13.5076 21.7646 13.5076C21.7646 13.5076 21.7645 13.5076 21.7645 13.5076C21.7644 13.5076 21.7644 13.5076 21.7643 13.5076C21.7643 13.5076 21.7643 13.5076 21.7642 13.5076C21.7642 13.5076 21.7641 13.5076 21.7641 13.5076C21.764 13.5076 21.764 13.5076 21.764 13.5076C21.7639 13.5076 21.7639 13.5076 21.7638 13.5076C21.7638 13.5076 21.7637 13.5076 21.7637 13.5076C21.7637 13.5076 21.7636 13.5076 21.7636 13.5076C21.7635 13.5076 21.7635 13.5076 21.7634 13.5076C21.7634 13.5076 21.7634 13.5076 21.7633 13.5076C21.7633 13.5076 21.7632 13.5076 21.7632 13.5076C21.7631 13.5076 21.7631 13.5076 21.7631 13.5076C21.763 13.5076 21.763 13.5076 21.7629 13.5076C21.7629 13.5076 21.7629 13.5076 21.7628 13.5076C21.7628 13.5076 21.7627 13.5076 21.7627 13.5076C21.7626 13.5076 21.7626 13.5076 21.7626 13.5076C21.7625 13.5076 21.7625 13.5076 21.7624 13.5076C21.7624 13.5076 21.7624 13.5076 21.7623 13.5076C21.7623 13.5076 21.7622 13.5076 21.7622 13.5076C21.7622 13.5076 21.7621 13.5076 21.7621 13.5076C21.762 13.5076 21.762 13.5076 21.762 13.5076C21.7619 13.5076 21.7619 13.5076 21.7618 13.5076C21.7618 13.5076 21.7618 13.5076 21.7617 13.5076C21.7617 13.5076 21.7616 13.5076 21.7616 13.5076C21.7616 13.5076 21.7615 13.5076 21.7615 13.5076C21.7615 13.5076 21.7614 13.5076 21.7614 13.5076C21.7613 13.5076 21.7613 13.5076 21.7613 13.5076C21.7612 13.5076 21.7612 13.5076 21.7611 13.5076C21.7611 13.5076 21.7611 13.5076 21.761 13.5076C21.761 13.5076 21.761 13.5076 21.7609 13.5076C21.7609 13.5076 21.7608 13.5076 21.7608 13.5076C21.7608 13.5076 21.7607 13.5076 21.7607 13.5076C21.7607 13.5076 21.7606 13.5076 21.7606 13.5076C21.7605 13.5076 21.7605 13.5076 21.7605 13.5076C21.7604 13.5076 21.7604 13.5076 21.7604 13.5076C21.7603 13.5076 21.7603 13.5076 21.7602 13.5076C21.7602 13.5076 21.7602 13.5076 21.7601 13.5076C21.7601 13.5076 21.7601 13.5076 21.76 13.5076C21.76 13.5076 21.76 13.5076 21.7599 13.5076C21.7599 13.5076 21.7598 13.5076 21.7598 13.5076C21.7598 13.5076 21.7597 13.5076 21.7597 13.5076C21.7597 13.5076 21.7596 13.5076 21.7596 13.5076C21.7596 13.5076 21.7595 13.5076 21.7595 13.5076C21.7595 13.5076 21.7594 13.5076 21.7594 13.5076C21.7594 13.5076 21.7593 13.5076 21.7593 13.5076C21.7592 13.5076 21.7592 13.5076 21.7592 13.5076C21.7591 13.5076 21.7591 13.5076 21.7591 13.5076C21.759 13.5076 21.759 13.5076 21.759 13.5076C21.7589 13.5076 21.7589 13.5076 21.7589 13.5076C21.7588 13.5076 21.7588 13.5076 21.7588 13.5076C21.7587 13.5076 21.7587 13.5076 21.7587 13.5076C21.7586 13.5076 21.7586 13.5076 21.7586 13.5076C21.7585 13.5076 21.7585 13.5076 21.7585 13.5076C21.7584 13.5076 21.7584 13.5076 21.7584 13.5076C21.7583 13.5076 21.7583 13.5076 21.7583 13.5076C21.7582 13.5076 21.7582 13.5076 21.7582 13.5076C21.7581 13.5076 21.7581 13.5076 21.7581 13.5076C21.758 13.5076 21.758 13.5076 21.758 13.5076C21.7579 13.5076 21.7579 13.5076 21.7579 13.5076C21.7578 13.5076 21.7578 13.5076 21.7578 13.5076C21.7578 13.5076 21.7577 13.5076 21.7577 13.5076C21.7577 13.5076 21.7576 13.5076 21.7576 13.5076C21.7576 13.5076 21.7575 13.5076 21.7575 13.5076C21.7575 13.5076 21.7574 13.5076 21.7574 13.5076C21.7574 13.5076 21.7573 13.5076 21.7573 13.5076C21.7573 13.5076 21.7572 13.5076 21.7572 13.5076C21.7572 13.5076 21.7572 13.5076 21.7571 13.5076C21.7571 13.5076 21.7571 13.5076 21.757 13.5076C21.757 13.5076 21.757 13.5076 21.7569 13.5076C21.7569 13.5076 21.7569 13.5076 21.7569 13.5076C21.7568 13.5076 21.7568 13.5076 21.7568 13.5076C21.7567 13.5076 21.7567 13.5076 21.7567 13.5076C21.7566 13.5076 21.7566 13.5076 21.7566 13.5076C21.7566 13.5076 21.7565 13.5076 21.7565 13.5076C21.7565 13.5076 21.7564 13.5076 21.7564 13.5076C21.7564 13.5076 21.7564 13.5076 21.7563 13.5076C21.7563 13.5076 21.7563 13.5076 21.7562 13.5076C21.7562 13.5076 21.7562 13.5076 21.7562 13.5076C21.7561 13.5076 21.7561 13.5076 21.7561 13.5076C21.756 13.5076 21.756 13.5076 21.756 13.5076C21.756 13.5076 21.7559 13.5076 21.7559 13.5076C21.7559 13.5076 21.7558 13.5076 21.7558 13.5076C21.7558 13.5076 21.7558 13.5076 21.7557 13.5076C21.7557 13.5076 21.7557 13.5076 21.7556 13.5076C21.7556 13.5076 21.7556 13.5076 21.7556 13.5076C21.7555 13.5076 21.7555 13.5076 21.7555 13.5076C21.7555 13.5076 21.7554 13.5076 21.7554 13.5076C21.7554 13.5076 21.7554 13.5076 21.7553 13.5076C21.7553 13.5076 21.7553 13.5076 21.7552 13.5076C21.7552 13.5076 21.7552 13.5076 21.7552 13.5076C21.7551 13.5076 21.7551 13.5076 21.7551 13.5076C21.7551 13.5076 21.755 13.5076 21.755 13.5076C21.755 13.5076 21.755 13.5076 21.7549 13.5076C21.7549 13.5076 21.7549 13.5076 21.7549 13.5076C21.7548 13.5076 21.7548 13.5076 21.7548 13.5076C21.7547 13.5076 21.7547 13.5076 21.7547 13.5076C21.7547 13.5076 21.7546 13.5076 21.7546 13.5076C21.7546 13.5076 21.7546 13.5076 21.7545 13.5076C21.7545 13.5076 21.7545 13.5076 21.7545 13.5076C21.7544 13.5076 21.7544 13.5076 21.7544 13.5076C21.7544 13.5076 21.7543 13.5076 21.7543 13.5076C21.7543 13.5076 21.7543 13.5076 21.7542 13.5076C21.7542 13.5076 21.7542 13.5076 21.7542 13.5076C21.7542 13.5076 21.7541 13.5076 21.7541 13.5076C21.7541 13.5076 21.7541 13.5076 21.754 13.5076C21.754 13.5076 21.754 13.5076 21.754 13.5076C21.7539 13.5076 21.7539 13.5076 21.7539 13.5076C21.7539 13.5076 21.7538 13.5076 21.7538 13.5076C21.7538 13.5076 21.7538 13.5076 21.7537 13.5076C21.7537 13.5076 21.7537 13.5076 21.7537 13.5076C21.7537 13.5076 21.7536 13.5076 21.7536 13.5076C21.7536 13.5076 21.7536 13.5076 21.7535 13.5076C21.7535 13.5076 21.7535 13.5076 21.7535 13.5076C21.7535 13.5076 21.7534 13.5076 21.7534 13.5076C21.7534 13.5076 21.7534 13.5076 21.7533 13.5076C21.7533 13.5076 21.7533 13.5076 21.7533 13.5076C21.7533 13.5076 21.7532 13.5076 21.7532 13.5076C21.7532 13.5076 21.7532 13.5076 21.7531 13.5076C21.7531 13.5076 21.7531 13.5076 21.7531 13.5076C21.7531 13.5076 21.753 13.5076 21.753 13.5076C21.753 13.5076 21.753 13.5076 21.7529 13.5076C21.7529 13.5076 21.7529 13.5076 21.7529 13.5076C21.7529 13.5076 21.7528 13.5076 21.7528 13.5076C21.7528 13.5076 21.7528 13.5076 21.7528 13.5076C21.7527 13.5076 21.7527 13.5076 21.7527 13.5076C21.7527 13.5076 21.7527 13.5076 21.7526 13.5076C21.7526 13.5076 21.7526 13.5076 21.7526 13.5076C21.7526 13.5076 21.7525 13.5076 21.7525 13.5076C21.7525 13.5076 21.7525 13.5076 21.7524 13.5076C21.7524 13.5076 21.7524 13.5076 21.7524 13.5076C21.7524 13.5076 21.7523 13.5076 21.7523 13.5076C21.7523 13.5076 21.7523 13.5076 21.7523 13.5076C21.7523 13.5076 21.7522 13.5076 21.7522 13.5076C21.7522 13.5076 21.7522 13.5076 21.7522 13.5076C21.7521 13.5076 21.7521 13.5076 21.7521 13.5076C21.7521 13.5076 21.7521 13.5076 21.752 13.5076C21.752 13.5076 21.752 13.5076 21.752 13.5076C21.752 13.5076 21.7519 13.5076 21.7519 13.5076C21.7519 13.5076 21.7519 13.5076 21.7519 13.5076C21.7519 13.5076 21.7518 13.5076 21.7518 13.5076C21.7518 13.5076 21.7518 13.5076 21.7518 13.5076C21.7517 13.5076 21.7517 13.5076 21.7517 13.5076C21.7517 13.5076 21.7517 13.5076 21.7516 13.5076C21.7516 13.5076 21.7516 13.5076 21.7516 13.5076C21.7516 13.5076 21.7516 13.5076 21.7515 13.5076C21.7515 13.5076 21.7515 13.5076 21.7515 13.5076C21.7515 13.5076 21.7515 13.5076 21.7514 13.5076C21.7514 13.5076 21.7514 13.5076 21.7514 13.5076C21.7514 13.5076 21.7514 13.5076 21.7513 13.5076C21.7513 13.5076 21.7513 13.5076 21.7513 13.5076C21.7513 13.5076 21.7512 13.5076 21.7512 13.5076C21.7512 13.5076 21.7512 13.5076 21.7512 13.5076C21.7512 13.5076 21.7511 13.5076 21.7511 13.5076C21.7511 13.5076 21.7511 13.5076 21.7511 13.5076C21.7511 13.5076 21.751 13.5076 21.751 13.5076C21.751 13.5076 21.751 13.5076 21.751 13.5076C21.751 13.5076 21.7509 13.5076 21.7509 13.5076C21.7509 13.5076 21.7509 13.5076 21.7509 13.5076C21.7509 13.5076 21.7509 13.5076 21.7508 13.5076C21.7508 13.5076 21.7508 13.5076 21.7508 13.5076C21.7508 13.5076 21.7508 13.5076 21.7507 13.5076C21.7507 13.5076 21.7507 13.5076 21.7507 13.5076C21.7507 13.5076 21.7507 13.5076 21.7507 13.5076C21.7506 13.5076 21.7506 13.5076 21.7506 13.5076C21.7506 13.5076 21.7506 13.5076 21.7506 13.5076C21.7505 13.5076 21.7505 13.5076 21.7505 13.5076C21.7505 13.5076 21.7505 13.5076 21.7505 13.5076C21.7505 13.5076 21.7504 13.5076 21.7504 13.5076C21.7504 13.5076 21.7504 13.5076 21.7504 13.5076C21.7504 13.5076 21.7504 13.5076 21.7503 13.5076C21.7503 13.5076 21.7503 13.5076 21.7503 13.5076C21.7503 13.5076 21.7503 13.5076 21.7503 13.5076C21.7502 13.5076 21.7502 13.5076 21.7502 13.5076C21.7502 13.5076 21.7502 13.5076 21.7502 13.5076C21.7502 13.5076 21.7501 13.5076 21.7501 13.5076C21.7501 13.5076 21.7501 13.5076 21.7501 13.5076C21.7501 13.5076 21.7501 13.5076 21.75 13.5076C21.75 13.5076 21.75 13.5076 21.75 13.5076C21.75 13.5076 21.75 13.5076 21.75 13.5076C21.75 13.5076 21.7499 13.5076 21.7499 13.5076C21.7499 13.5076 21.7499 13.5076 21.7499 13.5076C21.7499 13.5076 21.7499 13.5076 21.7498 13.5076C21.7498 13.5076 21.7498 13.5076 21.7498 13.5076C21.7498 13.5076 21.7498 13.5076 21.7498 13.5076C21.7498 13.5076 21.7497 13.5076 21.7497 13.5076C21.7497 13.5076 21.7497 13.5076 21.7497 13.5076C21.7497 13.5076 21.7497 13.5076 21.7497 13.5076C21.7496 13.5076 21.7496 13.5076 21.7496 13.5076C21.7496 13.5076 21.7496 13.5076 21.7496 13.5076C21.7496 13.5076 21.7496 13.5076 21.7496 13.5076C21.7495 13.5076 21.7495 13.5076 21.7495 13.5076C21.7495 13.5076 21.7495 13.5076 21.7495 13.5076C21.7495 13.5076 21.7495 13.5076 21.7494 13.5076C21.7494 13.5076 21.7494 13.5076 21.7494 13.5076C21.7494 13.5076 21.7494 13.5076 21.7494 13.5076C21.7494 13.5076 21.7494 13.5076 21.7493 13.5076C21.7493 13.5076 21.7493 13.5076 21.7493 13.5076C21.7493 13.5076 21.7493 13.5076 21.7493 13.5076C21.7493 13.5076 21.7493 13.5076 21.7492 13.5076C21.7492 13.5076 21.7492 13.5076 21.7492 13.5076C21.7492 13.5076 21.7492 13.5076 21.7492 13.5076C21.7492 13.5076 21.7492 13.5076 21.7491 13.5076C21.7491 13.5076 21.7491 13.5076 21.7491 13.5076C21.7491 13.5076 21.7491 13.5076 21.7491 13.5076C21.7491 13.5076 21.7491 13.5076 21.7491 13.5076C21.749 13.5076 21.749 13.5076 21.749 13.5076C21.749 13.5076 21.749 13.5076 21.749 13.5076C21.749 13.5076 21.749 13.5076 21.749 13.5076C21.749 13.5076 21.7489 13.5076 21.7489 13.5076C21.7489 13.5076 21.7489 13.5076 21.7489 13.5076C21.7489 13.5076 21.7489 13.5076 21.7489 13.5076C21.7489 13.5076 21.7489 13.5076 21.7488 13.5076C21.7488 13.5076 21.7488 13.5076 21.7488 13.5076C21.7488 13.5076 21.7488 13.5076 21.7488 13.5076C21.7488 13.5076 21.7488 13.5076 21.7488 13.5076C21.7488 13.5076 21.7487 13.5076 21.7487 13.5076C21.7487 13.5076 21.7487 13.5076 21.7487 13.5076C21.7487 13.5076 21.7487 13.5076 21.7487 13.5076C21.7487 13.5076 21.7487 13.5076 21.7487 13.5076C21.7486 13.5076 21.7486 13.5076 21.7486 13.5076C21.7486 13.5076 21.7486 13.5076 21.7486 13.5076C21.7486 13.5076 21.7486 13.5076 21.7486 13.5076C21.7486 13.5076 21.7486 13.5076 21.7485 13.5076C21.7485 13.5076 21.7485 13.5076 21.7485 13.5076C21.7485 13.5076 21.7485 13.5076 21.7485 13.5076C21.7485 13.5076 21.7485 13.5076 21.7485 13.5076C21.7485 13.5076 21.7485 13.5076 21.7485 13.5076C21.7484 13.5076 21.7484 13.5076 21.7484 13.5076C21.7484 13.5076 21.7484 13.5076 21.7484 13.5076C21.7484 13.5076 21.7484 13.5076 21.7484 13.5076C21.7484 13.5076 21.7484 13.5076 21.7484 13.5076C21.7483 13.5076 21.7483 13.5076 21.7483 13.5076C21.7483 13.5076 21.7483 13.5076 21.7483 13.5076C21.7483 13.5076 21.7483 13.5076 21.7483 13.5076C21.7483 13.5076 21.7483 13.5076 21.7483 13.5076C21.7483 13.5076 21.7483 13.5076 21.7482 13.5076C21.7482 13.5076 21.7482 13.5076 21.7482 13.5076C21.7482 13.5076 21.7482 13.5076 21.7482 13.5076C21.7482 13.5076 21.7482 13.5076 21.7482 13.5076C21.7482 13.5076 21.7482 13.5076 21.7482 13.5076C21.7482 13.5076 21.7481 13.5076 21.7481 13.5076C21.7481 13.5076 21.7481 13.5076 21.7481 13.5076C21.7481 13.5076 21.7481 13.5076 21.7481 13.5076C21.7481 13.5076 21.7481 13.5076 21.7481 13.5076C21.7481 13.5076 21.7481 13.5076 21.7481 13.5076C21.7481 13.5076 21.7481 13.5076 21.748 13.5076C21.748 13.5076 21.748 13.5076 21.748 13.5076C21.748 13.5076 21.748 13.5076 21.748 13.5076C21.748 13.5076 21.748 13.5076 21.748 13.5076C21.748 13.5076 21.748 13.5076 21.748 13.5076C21.748 13.5076 21.748 13.5076 21.748 13.5076C21.7479 13.5076 21.7479 13.5076 21.7479 13.5076C21.7479 13.5076 21.7479 13.5076 21.7479 13.5076C21.7479 13.5076 21.7479 13.5076 21.7479 13.5076C21.7479 13.5076 21.7479 13.5076 21.7479 13.5076C21.7479 13.5076 21.7479 13.5076 21.7479 13.5076C21.7479 13.5076 21.7479 13.5076 21.7479 13.5076C21.7478 13.5076 21.7478 13.5076 21.7478 13.5076C21.7478 13.5076 21.7478 13.5076 21.7478 13.5076C21.7478 13.5076 21.7478 13.5076 21.7478 13.5076C21.7478 13.5076 21.7478 13.5076 21.7478 13.5076C21.7478 13.5076 21.7478 13.5076 21.7478 13.5076C21.7478 13.5076 21.7478 13.5076 21.7478 13.5076C21.7478 13.5076 21.7477 13.5076 21.7477 13.5076C21.7477 13.5076 21.7477 13.5076 21.7477 13.5076C21.7477 13.5076 21.7477 13.5076 21.7477 13.5076C21.7477 13.5076 21.7477 13.5076 21.7477 13.5076C21.7477 13.5076 21.7477 13.5076 21.7477 13.5076C21.7477 13.5076 21.7477 13.5076 21.7477 13.5076C21.7477 13.5076 21.7477 13.5076 21.7477 13.5076C21.7477 13.5076 21.7477 13.5076 21.7476 13.5076C21.7476 13.5076 21.7476 13.5076 21.7476 13.5076C21.7476 13.5076 21.7476 13.5076 21.7476 13.5076C21.7476 13.5076 21.7476 13.5076 21.7476 13.5076C21.7476 13.5076 21.7476 13.5076 21.7476 13.5076C21.7476 13.5076 21.7476 13.5076 21.7476 13.5076C21.7476 13.5076 21.7476 13.5076 21.7476 13.5076C21.7476 13.5076 21.7476 13.5076 21.7476 13.5076C21.7476 13.5076 21.7476 13.5076 21.7475 13.5076C21.7475 13.5076 21.7475 13.5076 21.7475 13.5076C21.7475 13.5076 21.7475 13.5076 21.7475 13.5076C21.7475 13.5076 21.7475 13.5076 21.7475 13.5076C21.7475 13.5076 21.7475 13.5076 21.7475 13.5076C21.7475 13.5076 21.7475 13.5076 21.7475 13.5076C21.7475 13.5076 21.7475 13.5076 21.7475 13.5076C21.7475 13.5076 21.7475 13.5076 21.7475 13.5076C21.7475 13.5076 21.7475 13.5076 21.7475 13.5076C21.7475 13.5076 21.7475 13.5076 21.7475 13.5076C21.7474 13.5076 21.7474 13.5076 21.7474 13.5076C21.7474 13.5076 21.7474 13.5076 21.7474 13.5076C21.7474 13.5076 21.7474 13.5076 21.7474 13.5076C21.7474 13.5076 21.7474 13.5076 21.7474 13.5076C21.7474 13.5076 21.7474 13.5076 21.7474 13.5076C21.7474 13.5076 21.7474 13.5076 21.7474 13.5076C21.7474 13.5076 21.7474 13.5076 21.7474 13.5076C21.7474 13.5076 21.7474 13.5076 21.7474 13.5076C21.7474 13.5076 21.7474 13.5076 21.7474 13.5076C21.7474 13.5076 21.7474 13.5076 21.7474 13.5076C21.7474 13.5076 21.7474 13.5076 21.7474 13.5076C21.7474 13.5076 21.7474 13.5076 21.7473 13.5076C21.7473 13.5076 21.7473 13.5076 21.7473 13.5076C21.7473 13.5076 21.7473 13.5076 21.7473 13.5076C21.7473 13.5076 21.7473 13.5076 21.7473 13.5076C21.7473 13.5076 21.7473 13.5076 21.7473 13.5076C21.7473 13.5076 21.7473 13.5076 21.7473 13.5076C21.7473 13.5076 21.7473 13.5076 21.7473 13.5076C21.7473 13.5076 21.7473 13.5076 21.7473 13.5076C21.7473 13.5076 21.7473 13.5076 21.7473 13.5076C21.7473 13.5076 21.7473 13.5076 21.7473 13.5076C21.7473 13.5076 21.7473 13.5076 21.7473 13.5076C21.7473 13.5076 21.7473 13.5076 21.7473 13.5076C21.7473 13.5076 21.7473 13.5076 21.7473 13.5076C21.7473 13.5076 21.7473 13.5076 21.7473 13.5076C21.7473 13.5076 21.7473 13.5076 21.7473 13.5076C21.7473 13.5076 21.7473 13.5076 21.7472 13.5076C21.7472 13.5076 21.7472 13.5076 21.7472 13.5076C21.7472 13.5076 21.7472 13.5076 21.7472 13.5076C21.7472 13.5076 21.7472 13.5076 21.7472 13.5076C21.7472 13.5076 21.7472 13.5076 21.7472 13.5076C21.7472 13.5076 21.7472 13.5076 21.7472 13.5076C21.7472 13.5076 21.7472 13.5076 21.7472 13.5076C21.7472 13.5076 21.7472 13.5076 21.7472 13.5076C21.7472 13.5076 21.7472 13.5076 21.7472 13.5076C21.7472 13.5076 21.7472 13.5076 21.7472 13.5076C21.7472 13.5076 21.7472 13.5076 21.7472 13.5076C21.7472 13.5076 21.7472 13.5076 21.7472 13.5076C21.7472 13.5076 21.7472 13.5076 21.7472 13.5076C21.7472 13.5076 21.7472 13.5076 21.7472 13.5076C21.7472 13.5076 21.7472 13.5076 21.7472 13.5076C21.7472 13.5076 21.7472 13.5076 21.7472 13.5076H21.7472C21.7472 13.5076 21.7472 13.5076 21.7472 13.5076C21.7472 13.5076 21.7472 13.5076 21.7472 13.5076C21.7472 13.5076 21.7472 13.5076 21.7472 13.5076H21.7472C21.7472 13.5076 21.7472 13.5076 21.7472 13.5076H21.7472C21.7472 13.5076 21.7472 13.5076 21.7472 13.5076H21.7472C21.7472 13.5076 21.7472 13.5076 21.7472 13.5076H21.7471H21.7471C21.7471 13.5076 21.7471 13.5076 21.7471 13.5076C21.7471 13.5076 21.7471 13.5076 21.7471 13.5076C21.7471 13.5076 21.7471 13.5076 21.7471 13.5076H21.7471H21.7471H21.7471H21.7471H21.7471C21.7471 13.5076 21.7471 13.5076 21.7471 13.5076C21.7471 13.5076 21.7471 13.5076 21.7471 13.5076C21.7471 13.5076 21.7471 13.5076 21.7471 13.5076H21.7471C21.7471 13.5076 21.7471 13.5076 21.7471 13.5076C21.7471 13.5076 21.7471 13.5076 21.7471 13.5076C21.7471 13.5076 21.7471 13.5076 21.7471 13.5076C21.7471 13.5076 21.7471 13.5076 21.7471 13.5076C21.7471 13.5076 21.7471 13.5076 21.7471 13.5076C21.7471 13.5076 21.7471 13.5076 21.7471 13.5076C21.7471 13.5076 21.7471 13.5076 21.7471 13.5076H21.7471H21.7471C21.7471 13.5076 21.7471 13.5076 21.7471 14.6076C21.7471 15.7076 21.7471 15.7076 21.7471 15.7076H21.7471H21.7471C21.7471 15.7076 21.7471 15.7076 21.7471 15.7076C21.7471 15.7076 21.7471 15.7076 21.7471 15.7076C21.7471 15.7076 21.7471 15.7076 21.7471 15.7076C21.7471 15.7076 21.7471 15.7076 21.7471 15.7076C21.7471 15.7076 21.7471 15.7076 21.7471 15.7076C21.7471 15.7076 21.7471 15.7076 21.7471 15.7076C21.7471 15.7076 21.7471 15.7076 21.7471 15.7076H21.7471C21.7471 15.7076 21.7471 15.7076 21.7471 15.7076C21.7471 15.7076 21.7471 15.7076 21.7471 15.7076C21.7471 15.7076 21.7471 15.7076 21.7471 15.7076H21.7471H21.7471H21.7471H21.7471H21.7471C21.7471 15.7076 21.7471 15.7076 21.7471 15.7076C21.7471 15.7076 21.7471 15.7076 21.7471 15.7076C21.7471 15.7076 21.7471 15.7076 21.7471 15.7076H21.7471H21.7472C21.7472 15.7076 21.7472 15.7076 21.7472 15.7076H21.7472C21.7472 15.7076 21.7472 15.7076 21.7472 15.7076H21.7472C21.7472 15.7076 21.7472 15.7076 21.7472 15.7076H21.7472C21.7472 15.7076 21.7472 15.7076 21.7472 15.7076C21.7472 15.7076 21.7472 15.7076 21.7472 15.7076C21.7472 15.7076 21.7472 15.7076 21.7472 15.7076H21.7472C21.7472 15.7076 21.7472 15.7076 21.7472 15.7076C21.7472 15.7076 21.7472 15.7076 21.7472 15.7076C21.7472 15.7076 21.7472 15.7076 21.7472 15.7076C21.7472 15.7076 21.7472 15.7076 21.7472 15.7076C21.7472 15.7076 21.7472 15.7076 21.7472 15.7076C21.7472 15.7076 21.7472 15.7076 21.7472 15.7076C21.7472 15.7076 21.7472 15.7076 21.7472 15.7076C21.7472 15.7076 21.7472 15.7076 21.7472 15.7076C21.7472 15.7076 21.7472 15.7076 21.7472 15.7076C21.7472 15.7076 21.7472 15.7076 21.7472 15.7076C21.7472 15.7076 21.7472 15.7076 21.7472 15.7076C21.7472 15.7076 21.7472 15.7076 21.7472 15.7076C21.7472 15.7076 21.7472 15.7076 21.7472 15.7076C21.7472 15.7076 21.7472 15.7076 21.7472 15.7076C21.7472 15.7076 21.7472 15.7076 21.7472 15.7076C21.7473 15.7076 21.7473 15.7076 21.7473 15.7076C21.7473 15.7076 21.7473 15.7076 21.7473 15.7076C21.7473 15.7076 21.7473 15.7076 21.7473 15.7076C21.7473 15.7076 21.7473 15.7076 21.7473 15.7076C21.7473 15.7076 21.7473 15.7076 21.7473 15.7076C21.7473 15.7076 21.7473 15.7076 21.7473 15.7076C21.7473 15.7076 21.7473 15.7076 21.7473 15.7076C21.7473 15.7076 21.7473 15.7076 21.7473 15.7076C21.7473 15.7076 21.7473 15.7076 21.7473 15.7076C21.7473 15.7076 21.7473 15.7076 21.7473 15.7076C21.7473 15.7076 21.7473 15.7076 21.7473 15.7076C21.7473 15.7076 21.7473 15.7076 21.7473 15.7076C21.7473 15.7076 21.7473 15.7076 21.7473 15.7076C21.7473 15.7076 21.7473 15.7076 21.7473 15.7076C21.7473 15.7076 21.7473 15.7076 21.7473 15.7076C21.7474 15.7076 21.7474 15.7076 21.7474 15.7076C21.7474 15.7076 21.7474 15.7076 21.7474 15.7076C21.7474 15.7076 21.7474 15.7076 21.7474 15.7076C21.7474 15.7076 21.7474 15.7076 21.7474 15.7076C21.7474 15.7076 21.7474 15.7076 21.7474 15.7076C21.7474 15.7076 21.7474 15.7076 21.7474 15.7076C21.7474 15.7076 21.7474 15.7076 21.7474 15.7076C21.7474 15.7076 21.7474 15.7076 21.7474 15.7076C21.7474 15.7076 21.7474 15.7076 21.7474 15.7076C21.7474 15.7076 21.7474 15.7076 21.7474 15.7076C21.7474 15.7076 21.7474 15.7076 21.7474 15.7076C21.7474 15.7076 21.7474 15.7076 21.7475 15.7076C21.7475 15.7076 21.7475 15.7076 21.7475 15.7076C21.7475 15.7076 21.7475 15.7076 21.7475 15.7076C21.7475 15.7076 21.7475 15.7076 21.7475 15.7076C21.7475 15.7076 21.7475 15.7076 21.7475 15.7076C21.7475 15.7076 21.7475 15.7076 21.7475 15.7076C21.7475 15.7076 21.7475 15.7076 21.7475 15.7076C21.7475 15.7076 21.7475 15.7076 21.7475 15.7076C21.7475 15.7076 21.7475 15.7076 21.7475 15.7076C21.7475 15.7076 21.7475 15.7076 21.7475 15.7076C21.7476 15.7076 21.7476 15.7076 21.7476 15.7076C21.7476 15.7076 21.7476 15.7076 21.7476 15.7076C21.7476 15.7076 21.7476 15.7076 21.7476 15.7076C21.7476 15.7076 21.7476 15.7076 21.7476 15.7076C21.7476 15.7076 21.7476 15.7076 21.7476 15.7076C21.7476 15.7076 21.7476 15.7076 21.7476 15.7076C21.7476 15.7076 21.7476 15.7076 21.7476 15.7076C21.7476 15.7076 21.7476 15.7076 21.7476 15.7076C21.7477 15.7076 21.7477 15.7076 21.7477 15.7076C21.7477 15.7076 21.7477 15.7076 21.7477 15.7076C21.7477 15.7076 21.7477 15.7076 21.7477 15.7076C21.7477 15.7076 21.7477 15.7076 21.7477 15.7076C21.7477 15.7076 21.7477 15.7076 21.7477 15.7076C21.7477 15.7076 21.7477 15.7076 21.7477 15.7076C21.7477 15.7076 21.7477 15.7076 21.7477 15.7076C21.7477 15.7076 21.7478 15.7076 21.7478 15.7076C21.7478 15.7076 21.7478 15.7076 21.7478 15.7076C21.7478 15.7076 21.7478 15.7076 21.7478 15.7076C21.7478 15.7076 21.7478 15.7076 21.7478 15.7076C21.7478 15.7076 21.7478 15.7076 21.7478 15.7076C21.7478 15.7076 21.7478 15.7076 21.7478 15.7076C21.7478 15.7076 21.7478 15.7076 21.7479 15.7076C21.7479 15.7076 21.7479 15.7076 21.7479 15.7076C21.7479 15.7076 21.7479 15.7076 21.7479 15.7076C21.7479 15.7076 21.7479 15.7076 21.7479 15.7076C21.7479 15.7076 21.7479 15.7076 21.7479 15.7076C21.7479 15.7076 21.7479 15.7076 21.7479 15.7076C21.7479 15.7076 21.7479 15.7076 21.748 15.7076C21.748 15.7076 21.748 15.7076 21.748 15.7076C21.748 15.7076 21.748 15.7076 21.748 15.7076C21.748 15.7076 21.748 15.7076 21.748 15.7076C21.748 15.7076 21.748 15.7076 21.748 15.7076C21.748 15.7076 21.748 15.7076 21.748 15.7076C21.7481 15.7076 21.7481 15.7076 21.7481 15.7076C21.7481 15.7076 21.7481 15.7076 21.7481 15.7076C21.7481 15.7076 21.7481 15.7076 21.7481 15.7076C21.7481 15.7076 21.7481 15.7076 21.7481 15.7076C21.7481 15.7076 21.7481 15.7076 21.7481 15.7076C21.7481 15.7076 21.7482 15.7076 21.7482 15.7076C21.7482 15.7076 21.7482 15.7076 21.7482 15.7076C21.7482 15.7076 21.7482 15.7076 21.7482 15.7076C21.7482 15.7076 21.7482 15.7076 21.7482 15.7076C21.7482 15.7076 21.7482 15.7076 21.7482 15.7076C21.7483 15.7076 21.7483 15.7076 21.7483 15.7076C21.7483 15.7076 21.7483 15.7076 21.7483 15.7076C21.7483 15.7076 21.7483 15.7076 21.7483 15.7076C21.7483 15.7076 21.7483 15.7076 21.7483 15.7076C21.7483 15.7076 21.7483 15.7076 21.7484 15.7076C21.7484 15.7076 21.7484 15.7076 21.7484 15.7076C21.7484 15.7076 21.7484 15.7076 21.7484 15.7076C21.7484 15.7076 21.7484 15.7076 21.7484 15.7076C21.7484 15.7076 21.7484 15.7076 21.7485 15.7076C21.7485 15.7076 21.7485 15.7076 21.7485 15.7076C21.7485 15.7076 21.7485 15.7076 21.7485 15.7076C21.7485 15.7076 21.7485 15.7076 21.7485 15.7076C21.7485 15.7076 21.7485 15.7076 21.7485 15.7076C21.7486 15.7076 21.7486 15.7076 21.7486 15.7076C21.7486 15.7076 21.7486 15.7076 21.7486 15.7076C21.7486 15.7076 21.7486 15.7076 21.7486 15.7076C21.7486 15.7076 21.7486 15.7076 21.7487 15.7076C21.7487 15.7076 21.7487 15.7076 21.7487 15.7076C21.7487 15.7076 21.7487 15.7076 21.7487 15.7076C21.7487 15.7076 21.7487 15.7076 21.7487 15.7076C21.7487 15.7076 21.7488 15.7076 21.7488 15.7076C21.7488 15.7076 21.7488 15.7076 21.7488 15.7076C21.7488 15.7076 21.7488 15.7076 21.7488 15.7076C21.7488 15.7076 21.7488 15.7076 21.7488 15.7076C21.7489 15.7076 21.7489 15.7076 21.7489 15.7076C21.7489 15.7076 21.7489 15.7076 21.7489 15.7076C21.7489 15.7076 21.7489 15.7076 21.7489 15.7076C21.7489 15.7076 21.749 15.7076 21.749 15.7076C21.749 15.7076 21.749 15.7076 21.749 15.7076C21.749 15.7076 21.749 15.7076 21.749 15.7076C21.749 15.7076 21.749 15.7076 21.7491 15.7076C21.7491 15.7076 21.7491 15.7076 21.7491 15.7076C21.7491 15.7076 21.7491 15.7076 21.7491 15.7076C21.7491 15.7076 21.7491 15.7076 21.7491 15.7076C21.7492 15.7076 21.7492 15.7076 21.7492 15.7076C21.7492 15.7076 21.7492 15.7076 21.7492 15.7076C21.7492 15.7076 21.7492 15.7076 21.7492 15.7076C21.7493 15.7076 21.7493 15.7076 21.7493 15.7076C21.7493 15.7076 21.7493 15.7076 21.7493 15.7076C21.7493 15.7076 21.7493 15.7076 21.7493 15.7076C21.7494 15.7076 21.7494 15.7076 21.7494 15.7076C21.7494 15.7076 21.7494 15.7076 21.7494 15.7076C21.7494 15.7076 21.7494 15.7076 21.7494 15.7076C21.7495 15.7076 21.7495 15.7076 21.7495 15.7076C21.7495 15.7076 21.7495 15.7076 21.7495 15.7076C21.7495 15.7076 21.7495 15.7076 21.7496 15.7076C21.7496 15.7076 21.7496 15.7076 21.7496 15.7076C21.7496 15.7076 21.7496 15.7076 21.7496 15.7076C21.7496 15.7076 21.7496 15.7076 21.7497 15.7076C21.7497 15.7076 21.7497 15.7076 21.7497 15.7076C21.7497 15.7076 21.7497 15.7076 21.7497 15.7076C21.7497 15.7076 21.7498 15.7076 21.7498 15.7076C21.7498 15.7076 21.7498 15.7076 21.7498 15.7076C21.7498 15.7076 21.7498 15.7076 21.7498 15.7076C21.7499 15.7076 21.7499 15.7076 21.7499 15.7076C21.7499 15.7076 21.7499 15.7076 21.7499 15.7076C21.7499 15.7076 21.75 15.7076 21.75 15.7076C21.75 15.7076 21.75 15.7076 21.75 15.7076C21.75 15.7076 21.75 15.7076 21.75 15.7076C21.7501 15.7076 21.7501 15.7076 21.7501 15.7076C21.7501 15.7076 21.7501 15.7076 21.7501 15.7076C21.7501 15.7076 21.7502 15.7076 21.7502 15.7076C21.7502 15.7076 21.7502 15.7076 21.7502 15.7076C21.7502 15.7076 21.7502 15.7076 21.7503 15.7076C21.7503 15.7076 21.7503 15.7076 21.7503 15.7076C21.7503 15.7076 21.7503 15.7076 21.7503 15.7076C21.7504 15.7076 21.7504 15.7076 21.7504 15.7076C21.7504 15.7076 21.7504 15.7076 21.7504 15.7076C21.7504 15.7076 21.7505 15.7076 21.7505 15.7076C21.7505 15.7076 21.7505 15.7076 21.7505 15.7076C21.7505 15.7076 21.7505 15.7076 21.7506 15.7076C21.7506 15.7076 21.7506 15.7076 21.7506 15.7076C21.7506 15.7076 21.7506 15.7076 21.7507 15.7076C21.7507 15.7076 21.7507 15.7076 21.7507 15.7076C21.7507 15.7076 21.7507 15.7076 21.7507 15.7076C21.7508 15.7076 21.7508 15.7076 21.7508 15.7076C21.7508 15.7076 21.7508 15.7076 21.7508 15.7076C21.7509 15.7076 21.7509 15.7076 21.7509 15.7076C21.7509 15.7076 21.7509 15.7076 21.7509 15.7076C21.7509 15.7076 21.751 15.7076 21.751 15.7076C21.751 15.7076 21.751 15.7076 21.751 15.7076C21.751 15.7076 21.7511 15.7076 21.7511 15.7076C21.7511 15.7076 21.7511 15.7076 21.7511 15.7076C21.7511 15.7076 21.7512 15.7076 21.7512 15.7076C21.7512 15.7076 21.7512 15.7076 21.7512 15.7076C21.7512 15.7076 21.7513 15.7076 21.7513 15.7076C21.7513 15.7076 21.7513 15.7076 21.7513 15.7076C21.7514 15.7076 21.7514 15.7076 21.7514 15.7076C21.7514 15.7076 21.7514 15.7076 21.7514 15.7076C21.7515 15.7076 21.7515 15.7076 21.7515 15.7076C21.7515 15.7076 21.7515 15.7076 21.7515 15.7076C21.7516 15.7076 21.7516 15.7076 21.7516 15.7076C21.7516 15.7076 21.7516 15.7076 21.7516 15.7076C21.7517 15.7076 21.7517 15.7076 21.7517 15.7076C21.7517 15.7076 21.7517 15.7076 21.7518 15.7076C21.7518 15.7076 21.7518 15.7076 21.7518 15.7076C21.7518 15.7076 21.7519 15.7076 21.7519 15.7076C21.7519 15.7076 21.7519 15.7076 21.7519 15.7076C21.7519 15.7076 21.752 15.7076 21.752 15.7076C21.752 15.7076 21.752 15.7076 21.752 15.7076C21.7521 15.7076 21.7521 15.7076 21.7521 15.7076C21.7521 15.7076 21.7521 15.7076 21.7522 15.7076C21.7522 15.7076 21.7522 15.7076 21.7522 15.7076C21.7522 15.7076 21.7523 15.7076 21.7523 15.7076C21.7523 15.7076 21.7523 15.7076 21.7523 15.7076C21.7523 15.7076 21.7524 15.7076 21.7524 15.7076C21.7524 15.7076 21.7524 15.7076 21.7524 15.7076C21.7525 15.7076 21.7525 15.7076 21.7525 15.7076C21.7525 15.7076 21.7526 15.7076 21.7526 15.7076C21.7526 15.7076 21.7526 15.7076 21.7526 15.7076C21.7527 15.7076 21.7527 15.7076 21.7527 15.7076C21.7527 15.7076 21.7527 15.7076 21.7528 15.7076C21.7528 15.7076 21.7528 15.7076 21.7528 15.7076C21.7528 15.7076 21.7529 15.7076 21.7529 15.7076C21.7529 15.7076 21.7529 15.7076 21.7529 15.7076C21.753 15.7076 21.753 15.7076 21.753 15.7076C21.753 15.7076 21.7531 15.7076 21.7531 15.7076C21.7531 15.7076 21.7531 15.7076 21.7531 15.7076C21.7532 15.7076 21.7532 15.7076 21.7532 15.7076C21.7532 15.7076 21.7533 15.7076 21.7533 15.7076C21.7533 15.7076 21.7533 15.7076 21.7533 15.7076C21.7534 15.7076 21.7534 15.7076 21.7534 15.7076C21.7534 15.7076 21.7535 15.7076 21.7535 15.7076C21.7535 15.7076 21.7535 15.7076 21.7535 15.7076C21.7536 15.7076 21.7536 15.7076 21.7536 15.7076C21.7536 15.7076 21.7537 15.7076 21.7537 15.7076C21.7537 15.7076 21.7537 15.7076 21.7537 15.7076C21.7538 15.7076 21.7538 15.7076 21.7538 15.7076C21.7538 15.7076 21.7539 15.7076 21.7539 15.7076C21.7539 15.7076 21.7539 15.7076 21.754 15.7076C21.754 15.7076 21.754 15.7076 21.754 15.7076C21.7541 15.7076 21.7541 15.7076 21.7541 15.7076C21.7541 15.7076 21.7542 15.7076 21.7542 15.7076C21.7542 15.7076 21.7542 15.7076 21.7542 15.7076C21.7543 15.7076 21.7543 15.7076 21.7543 15.7076C21.7543 15.7076 21.7544 15.7076 21.7544 15.7076C21.7544 15.7076 21.7544 15.7076 21.7545 15.7076C21.7545 15.7076 21.7545 15.7076 21.7545 15.7076C21.7546 15.7076 21.7546 15.7076 21.7546 15.7076C21.7546 15.7076 21.7547 15.7076 21.7547 15.7076C21.7547 15.7076 21.7547 15.7076 21.7548 15.7076C21.7548 15.7076 21.7548 15.7076 21.7549 15.7076C21.7549 15.7076 21.7549 15.7076 21.7549 15.7076C21.755 15.7076 21.755 15.7076 21.755 15.7076C21.755 15.7076 21.7551 15.7076 21.7551 15.7076C21.7551 15.7076 21.7551 15.7076 21.7552 15.7076C21.7552 15.7076 21.7552 15.7076 21.7552 15.7076C21.7553 15.7076 21.7553 15.7076 21.7553 15.7076C21.7554 15.7076 21.7554 15.7076 21.7554 15.7076C21.7554 15.7076 21.7555 15.7076 21.7555 15.7076C21.7555 15.7076 21.7555 15.7076 21.7556 15.7076C21.7556 15.7076 21.7556 15.7076 21.7556 15.7076C21.7557 15.7076 21.7557 15.7076 21.7557 15.7076C21.7558 15.7076 21.7558 15.7076 21.7558 15.7076C21.7558 15.7076 21.7559 15.7076 21.7559 15.7076C21.7559 15.7076 21.756 15.7076 21.756 15.7076C21.756 15.7076 21.756 15.7076 21.7561 15.7076C21.7561 15.7076 21.7561 15.7076 21.7562 15.7076C21.7562 15.7076 21.7562 15.7076 21.7562 15.7076C21.7563 15.7076 21.7563 15.7076 21.7563 15.7076C21.7564 15.7076 21.7564 15.7076 21.7564 15.7076C21.7564 15.7076 21.7565 15.7076 21.7565 15.7076C21.7565 15.7076 21.7566 15.7076 21.7566 15.7076C21.7566 15.7076 21.7566 15.7076 21.7567 15.7076C21.7567 15.7076 21.7567 15.7076 21.7568 15.7076C21.7568 15.7076 21.7568 15.7076 21.7569 15.7076C21.7569 15.7076 21.7569 15.7076 21.7569 15.7076C21.757 15.7076 21.757 15.7076 21.757 15.7076C21.7571 15.7076 21.7571 15.7076 21.7571 15.7076C21.7572 15.7076 21.7572 15.7076 21.7572 15.7076C21.7572 15.7076 21.7573 15.7076 21.7573 15.7076C21.7573 15.7076 21.7574 15.7076 21.7574 15.7076C21.7574 15.7076 21.7575 15.7076 21.7575 15.7076C21.7575 15.7076 21.7576 15.7076 21.7576 15.7076C21.7576 15.7076 21.7577 15.7076 21.7577 15.7076C21.7577 15.7076 21.7578 15.7076 21.7578 15.7076C21.7578 15.7076 21.7578 15.7076 21.7579 15.7076C21.7579 15.7076 21.7579 15.7076 21.758 15.7076C21.758 15.7076 21.758 15.7076 21.7581 15.7076C21.7581 15.7076 21.7581 15.7076 21.7582 15.7076C21.7582 15.7076 21.7582 15.7076 21.7583 15.7076C21.7583 15.7076 21.7583 15.7076 21.7584 15.7076C21.7584 15.7076 21.7584 15.7076 21.7585 15.7076C21.7585 15.7076 21.7585 15.7076 21.7586 15.7076C21.7586 15.7076 21.7586 15.7076 21.7587 15.7076C21.7587 15.7076 21.7587 15.7076 21.7588 15.7076C21.7588 15.7076 21.7588 15.7076 21.7589 15.7076C21.7589 15.7076 21.7589 15.7076 21.759 15.7076C21.759 15.7076 21.759 15.7076 21.7591 15.7076C21.7591 15.7076 21.7591 15.7076 21.7592 15.7076C21.7592 15.7076 21.7592 15.7076 21.7593 15.7076C21.7593 15.7076 21.7594 15.7076 21.7594 15.7076C21.7594 15.7076 21.7595 15.7076 21.7595 15.7076C21.7595 15.7076 21.7596 15.7076 21.7596 15.7076C21.7596 15.7076 21.7597 15.7076 21.7597 15.7076C21.7597 15.7076 21.7598 15.7076 21.7598 15.7076C21.7598 15.7076 21.7599 15.7076 21.7599 15.7076C21.76 15.7076 21.76 15.7076 21.76 15.7076C21.7601 15.7076 21.7601 15.7076 21.7601 15.7076C21.7602 15.7076 21.7602 15.7076 21.7602 15.7076C21.7603 15.7076 21.7603 15.7076 21.7604 15.7076C21.7604 15.7076 21.7604 15.7076 21.7605 15.7076C21.7605 15.7076 21.7605 15.7076 21.7606 15.7076C21.7606 15.7076 21.7607 15.7076 21.7607 15.7076C21.7607 15.7076 21.7608 15.7076 21.7608 15.7076C21.7608 15.7076 21.7609 15.7076 21.7609 15.7076C21.761 15.7076 21.761 15.7076 21.761 15.7076C21.7611 15.7076 21.7611 15.7076 21.7611 15.7076C21.7612 15.7076 21.7612 15.7076 21.7613 15.7076C21.7613 15.7076 21.7613 15.7076 21.7614 15.7076C21.7614 15.7076 21.7615 15.7076 21.7615 15.7076C21.7615 15.7076 21.7616 15.7076 21.7616 15.7076C21.7616 15.7076 21.7617 15.7076 21.7617 15.7076C21.7618 15.7076 21.7618 15.7076 21.7618 15.7076C21.7619 15.7076 21.7619 15.7076 21.762 15.7076C21.762 15.7076 21.762 15.7076 21.7621 15.7076C21.7621 15.7076 21.7622 15.7076 21.7622 15.7076C21.7622 15.7076 21.7623 15.7076 21.7623 15.7076C21.7624 15.7076 21.7624 15.7076 21.7624 15.7076C21.7625 15.7076 21.7625 15.7076 21.7626 15.7076C21.7626 15.7076 21.7626 15.7076 21.7627 15.7076C21.7627 15.7076 21.7628 15.7076 21.7628 15.7076C21.7629 15.7076 21.7629 15.7076 21.7629 15.7076C21.763 15.7076 21.763 15.7076 21.7631 15.7076C21.7631 15.7076 21.7631 15.7076 21.7632 15.7076C21.7632 15.7076 21.7633 15.7076 21.7633 15.7076C21.7634 15.7076 21.7634 15.7076 21.7634 15.7076C21.7635 15.7076 21.7635 15.7076 21.7636 15.7076C21.7636 15.7076 21.7637 15.7076 21.7637 15.7076C21.7637 15.7076 21.7638 15.7076 21.7638 15.7076C21.7639 15.7076 21.7639 15.7076 21.764 15.7076C21.764 15.7076 21.764 15.7076 21.7641 15.7076C21.7641 15.7076 21.7642 15.7076 21.7642 15.7076C21.7643 15.7076 21.7643 15.7076 21.7643 15.7076C21.7644 15.7076 21.7644 15.7076 21.7645 15.7076C21.7645 15.7076 21.7646 15.7076 21.7646 15.7076C21.7647 15.7076 21.7647 15.7076 21.7647 15.7076C21.7648 15.7076 21.7648 15.7076 21.7649 15.7076C21.7649 15.7076 21.765 15.7076 21.765 15.7076C21.7651 15.7076 21.7651 15.7076 21.7651 15.7076C21.7652 15.7076 21.7652 15.7076 21.7653 15.7076C21.7653 15.7076 21.7654 15.7076 21.7654 15.7076C21.7655 15.7076 21.7655 15.7076 21.7656 15.7076C21.7656 15.7076 21.7656 15.7076 21.7657 15.7076C21.7657 15.7076 21.7658 15.7076 21.7658 15.7076C21.7659 15.7076 21.7659 15.7076 21.766 15.7076C21.766 15.7076 21.7661 15.7076 21.7661 15.7076C21.7662 15.7076 21.7662 15.7076 21.7663 15.7076C21.7663 15.7076 21.7663 15.7076 21.7664 15.7076C21.7664 15.7076 21.7665 15.7076 21.7665 15.7076C21.7666 15.7076 21.7666 15.7076 21.7667 15.7076C21.7667 15.7076 21.7668 15.7076 21.7668 15.7076C21.7669 15.7076 21.7669 15.7076 21.767 15.7076C21.767 15.7076 21.7671 15.7076 21.7671 15.7076C21.7672 15.7076 21.7672 15.7076 21.7673 15.7076C21.7673 15.7076 21.7674 15.7076 21.7674 15.7076C21.7675 15.7076 21.7675 15.7076 21.7676 15.7076C21.7676 15.7076 21.7677 15.7076 21.7677 15.7076C21.7677 15.7076 21.7678 15.7076 21.7678 15.7076C21.7679 15.7076 21.7679 15.7076 21.768 15.7076C21.768 15.7076 21.7681 15.7076 21.7681 15.7076C21.7682 15.7076 21.7682 15.7076 21.7683 15.7076C21.7683 15.7076 21.7684 15.7076 21.7684 15.7076C21.7685 15.7076 21.7686 15.7076 21.7686 15.7076C21.7687 15.7076 21.7687 15.7076 21.7688 15.7076C21.7688 15.7076 21.7689 15.7076 21.7689 15.7076C21.769 15.7076 21.769 15.7076 21.7691 15.7076C21.7691 15.7076 21.7692 15.7076 21.7692 15.7076C21.7693 15.7076 21.7693 15.7076 21.7694 15.7076C21.7694 15.7076 21.7695 15.7076 21.7695 15.7076C21.7696 15.7076 21.7696 15.7076 21.7697 15.7076C21.7697 15.7076 21.7698 15.7076 21.7698 15.7076C21.7699 15.7076 21.77 15.7076 21.77 15.7076C21.7701 15.7076 21.7701 15.7076 21.7702 15.7076C21.7702 15.7076 21.7703 15.7076 21.7703 15.7076C21.7704 15.7076 21.7704 15.7076 21.7705 15.7076C21.7705 15.7076 21.7706 15.7076 21.7706 15.7076C21.7707 15.7076 21.7708 15.7076 21.7708 15.7076C21.7709 15.7076 21.7709 15.7076 21.771 15.7076C21.771 15.7076 21.7711 15.7076 21.7711 15.7076C21.7712 15.7076 21.7712 15.7076 21.7713 15.7076C21.7714 15.7076 21.7714 15.7076 21.7715 15.7076C21.7715 15.7076 21.7716 15.7076 21.7716 15.7076C21.7717 15.7076 21.7717 15.7076 21.7718 15.7076C21.7719 15.7076 21.7719 15.7076 21.772 15.7076C21.772 15.7076 21.7721 15.7076 21.7721 15.7076C21.7722 15.7076 21.7722 15.7076 21.7723 15.7076C21.7724 15.7076 21.7724 15.7076 21.7725 15.7076C21.7725 15.7076 21.7726 15.7076 21.7726 15.7076C21.7727 15.7076 21.7728 15.7076 21.7728 15.7076C21.7729 15.7076 21.7729 15.7076 21.773 15.7076C21.773 15.7076 21.7731 15.7076 21.7732 15.7076C21.7732 15.7076 21.7733 15.7076 21.7733 15.7076C21.7734 15.7076 21.7734 15.7076 21.7735 15.7076C21.7736 15.7076 21.7736 15.7076 21.7737 15.7076C21.7737 15.7076 21.7738 15.7076 21.7739 15.7076C21.7739 15.7076 21.774 15.7076 21.774 15.7076C21.7741 15.7076 21.7742 15.7076 21.7742 15.7076C21.7743 15.7076 21.7743 15.7076 21.7744 15.7076C21.7745 15.7076 21.7745 15.7076 21.7746 15.7076C21.7746 15.7076 21.7747 15.7076 21.7748 15.7076C21.7748 15.7076 21.7749 15.7076 21.7749 15.7076C21.775 15.7076 21.7751 15.7076 21.7751 15.7076C21.7752 15.7076 21.7752 15.7076 21.7753 15.7076C21.7754 15.7076 21.7754 15.7076 21.7755 15.7076C21.7755 15.7076 21.7756 15.7076 21.7757 15.7076C21.7757 15.7076 21.7758 15.7076 21.7758 15.7076C21.7759 15.7076 21.776 15.7076 21.776 15.7076C21.7761 15.7076 21.7762 15.7076 21.7762 15.7076C21.7763 15.7076 21.7763 15.7076 21.7764 15.7076C21.7765 15.7076 21.7765 15.7076 21.7766 15.7076C21.7767 15.7076 21.7767 15.7076 21.7768 15.7076C21.7768 15.7076 21.7769 15.7076 21.777 15.7076C21.777 15.7076 21.7771 15.7076 21.7772 15.7076C21.7772 15.7076 21.7773 15.7076 21.7774 15.7076C21.7774 15.7076 21.7775 15.7076 21.7775 15.7076C21.7776 15.7076 21.7777 15.7076 21.7777 15.7076C21.7778 15.7076 21.7779 15.7076 21.7779 15.7076C21.778 15.7076 21.7781 15.7076 21.7781 15.7076C21.7782 15.7076 21.7783 15.7076 21.7783 15.7076C21.7784 15.7076 21.7785 15.7076 21.7785 15.7076C21.7786 15.7076 21.7786 15.7076 21.7787 15.7076C21.7788 15.7076 21.7788 15.7076 21.7789 15.7076C21.779 15.7076 21.779 15.7076 21.7791 15.7076C21.7792 15.7076 21.7792 15.7076 21.7793 15.7076C21.7794 15.7076 21.7794 15.7076 21.7795 15.7076C21.7796 15.7076 21.7796 15.7076 21.7797 15.7076C21.7798 15.7076 21.7798 15.7076 21.7799 15.7076C21.78 15.7076 21.78 15.7076 21.7801 15.7076C21.7802 15.7076 21.7802 15.7076 21.7803 15.7076C21.7804 15.7076 21.7805 15.7076 21.7805 15.7076C21.7806 15.7076 21.7807 15.7076 21.7807 15.7076C21.7808 15.7076 21.7809 15.7076 21.7809 15.7076C21.781 15.7076 21.7811 15.7076 21.7811 15.7076C21.7812 15.7076 21.7813 15.7076 21.7813 15.7076C21.7814 15.7076 21.7815 15.7076 21.7816 15.7076C21.7816 15.7076 21.7817 15.7076 21.7818 15.7076C21.7818 15.7076 21.7819 15.7076 21.782 15.7076C21.782 15.7076 21.7821 15.7076 21.7822 15.7076C21.7823 15.7076 21.7823 15.7076 21.7824 15.7076C21.7825 15.7076 21.7825 15.7076 21.7826 15.7076C21.7827 15.7076 21.7828 15.7076 21.7828 15.7076C21.7829 15.7076 21.783 15.7076 21.783 15.7076C21.7831 15.7076 21.7832 15.7076 21.7833 15.7076C21.7833 15.7076 21.7834 15.7076 21.7835 15.7076C21.7835 15.7076 21.7836 15.7076 21.7837 15.7076C21.7838 15.7076 21.7838 15.7076 21.7839 15.7076C21.784 15.7076 21.784 15.7076 21.7841 15.7076C21.7842 15.7076 21.7843 15.7076 21.7843 15.7076C21.7844 15.7076 21.7845 15.7076 21.7846 15.7076C21.7846 15.7076 21.7847 15.7076 21.7848 15.7076C21.7849 15.7076 21.7849 15.7076 21.785 15.7076C21.7851 15.7076 21.7852 15.7076 21.7852 15.7076V13.5076ZM22.2688 13.6392L18.5329 11.6265L17.4895 13.5633L21.2254 15.576L22.2688 13.6392ZM17.4819 11.6306L13.7459 13.6813L14.8045 15.6099L18.5405 13.5592L17.4819 11.6306ZM14.2752 13.5456H14.2371V15.7456H14.2752V13.5456ZM14.2371 13.5456C14.4192 13.5456 14.6289 13.594 14.8236 13.7233C15.0116 13.8481 15.1236 14.007 15.1869 14.1331C15.2479 14.2548 15.273 14.3632 15.2845 14.432C15.2907 14.469 15.2942 14.5022 15.2962 14.5306C15.2973 14.5449 15.298 14.5585 15.2984 14.5712C15.2986 14.5776 15.2987 14.5839 15.2988 14.5899C15.2989 14.5929 15.2989 14.5959 15.2989 14.5989C15.299 14.6004 15.299 14.6018 15.299 14.6033C15.299 14.604 15.299 14.6047 15.299 14.6054C15.299 14.6058 15.299 14.6064 15.299 14.6065C15.299 14.6071 15.299 14.6076 14.199 14.6076C13.099 14.6076 13.099 14.6081 13.099 14.6087C13.099 14.6088 13.099 14.6094 13.099 14.6097C13.099 14.6105 13.099 14.6112 13.099 14.6119C13.099 14.6134 13.099 14.6149 13.099 14.6164C13.099 14.6194 13.0991 14.6224 13.0991 14.6255C13.0992 14.6317 13.0994 14.6381 13.0996 14.6448C13.1001 14.6581 13.1008 14.6725 13.1019 14.6879C13.1041 14.7183 13.1079 14.7545 13.1147 14.795C13.1274 14.8709 13.1548 14.9889 13.2206 15.12C13.2887 15.2556 13.4078 15.424 13.6065 15.556C13.8119 15.6924 14.036 15.7456 14.2371 15.7456V13.5456ZM15.299 14.6076V7.77215H13.099V14.6076H15.299ZM15.2557 8.07755L16.7044 3.06489L14.5909 2.4541L13.1422 7.46676L15.2557 8.07755ZM6.86468 3.96156C6.88906 3.92685 6.9153 3.90609 6.94578 3.89128C6.97878 3.87524 7.0316 3.85949 7.10832 3.85949V1.65949C6.33806 1.65949 5.5623 1.98851 5.06466 2.69667L6.86468 3.96156ZM7.10832 3.85949H14.8471V1.65949H7.10832V3.85949ZM13.789 2.45856L12.4929 7.01552L14.6089 7.61739L15.9051 3.06043L13.789 2.45856ZM13.5509 6.21646H3.10553V8.41646H13.5509V6.21646ZM3.99947 7.95745L6.8586 3.97011L5.07073 2.68811L2.2116 6.67546L3.99947 7.95745ZM32.1599 30.0253C32.1599 30.0507 32.1513 30.076 32.1251 30.1016C32.0954 30.1305 32.062 30.1405 32.04 30.1405V32.3405C33.2691 32.3405 34.3599 31.3425 34.3599 30.0253H32.1599ZM32.04 30.1405H3.98233V32.3405H32.04V30.1405ZM3.98233 30.1405C3.95277 30.1405 3.92538 30.1302 3.89971 30.1041C3.87079 30.0746 3.86244 30.0433 3.86244 30.0253H1.66244C1.66244 31.26 2.67042 32.3405 3.98233 32.3405V30.1405ZM3.86244 30.0253V8.07595H1.66244V30.0253H3.86244ZM2.76244 9.17595H13.4365V6.97595H2.76244V9.17595ZM12.3365 8.07595V14.5696H14.5365V8.07595H12.3365ZM12.3365 14.5696C12.3365 15.3021 12.7273 15.8495 13.2092 16.1695L14.4263 14.3368C14.4287 14.3384 14.4599 14.36 14.4906 14.4125C14.5243 14.47 14.5365 14.5295 14.5365 14.5696H12.3365ZM13.2092 16.1695C13.5443 16.392 13.9222 16.4671 14.2371 16.4671V14.2671C14.2502 14.2671 14.2693 14.2685 14.2955 14.2755C14.3208 14.2822 14.3682 14.2982 14.4263 14.3368L13.2092 16.1695ZM14.2371 16.4671C14.5431 16.4671 14.9125 16.3783 15.2269 16.1695L14.0098 14.3368C14.0648 14.3003 14.1065 14.2863 14.1266 14.2806C14.1463 14.275 14.1811 14.2671 14.2371 14.2671V16.4671ZM15.1389 16.2222L18.5318 14.3994L17.4906 12.4614L14.0977 14.2842L15.1389 16.2222ZM17.4906 14.3994L20.8834 16.2222L21.9246 14.2842L18.5318 12.4614L17.4906 14.3994ZM20.8598 16.2091C21.5447 16.599 22.2056 16.4488 22.6365 16.2648L21.7727 14.2415C21.7145 14.2663 21.7187 14.2552 21.7652 14.2535C21.7909 14.2526 21.8242 14.2548 21.861 14.2637C21.8981 14.2726 21.9278 14.2856 21.9482 14.2972L20.8598 16.2091ZM22.8131 16.1695C23.3208 15.8324 23.6858 15.2363 23.6858 14.5696H21.4858C21.4858 14.4938 21.5066 14.4427 21.5221 14.4151C21.5377 14.3873 21.5605 14.3604 21.596 14.3368L22.8131 16.1695ZM23.6858 14.5696V8.07595H21.4858V14.5696H23.6858ZM22.5858 9.17595H33.2599V6.97595H22.5858V9.17595ZM32.1599 8.07595V30.0253H34.3599V8.07595H32.1599Z" fill="#41A3D3" mask="url(#path-1-outside-1_138:583)"/>
</svg>
