<svg width="28" height="28" viewBox="0 0 28 28" fill="none" xmlns="http://www.w3.org/2000/svg">
<rect width="28" height="28" rx="14" fill="#3D857E"/>
<path d="M13.2045 13.3727H9.22727C8.88084 13.3727 8.6 13.6536 8.6 14C8.6 14.3464 8.88084 14.6273 9.22727 14.6273H13.2045C13.2974 14.6273 13.3727 14.7026 13.3727 14.7955V18.7727C13.3727 19.1192 13.6536 19.4 14 19.4C14.3464 19.4 14.6273 19.1192 14.6273 18.7727V14.7955C14.6273 14.7026 14.7026 14.6273 14.7955 14.6273H18.7727C19.1192 14.6273 19.4 14.3464 19.4 14C19.4 13.6536 19.1192 13.3727 18.7727 13.3727H14.7955C14.7026 13.3727 14.6273 13.2974 14.6273 13.2045V9.22727C14.6273 8.88084 14.3464 8.6 14 8.6C13.6536 8.6 13.3727 8.88084 13.3727 9.22727V13.2045C13.3727 13.2974 13.2974 13.3727 13.2045 13.3727Z" fill="white" stroke="white" stroke-width="0.3"/>
</svg>
