<svg width="18" height="18" viewBox="0 0 18 18" fill="none" xmlns="http://www.w3.org/2000/svg">
<path d="M9.57864 8.42207L16.1559 8.4052C16.4861 8.40436 16.7531 8.67137 16.7523 9.0016C16.7514 9.33183 16.4831 9.60022 16.1528 9.60107L8.97764 9.61947C8.64741 9.62031 8.38039 9.3533 8.38124 9.02307L8.39964 1.84788C8.40049 1.51766 8.66888 1.24927 8.99911 1.24842C9.32933 1.24757 9.59635 1.51459 9.5955 1.84482L9.57864 8.42207Z" fill="#40857E" stroke="#40857E" stroke-width="1.3"/>
<path d="M8.42134 9.57815L8.40447 16.1554C8.40362 16.4856 8.67064 16.7526 9.00087 16.7518C9.3311 16.751 9.59949 16.4826 9.60033 16.1523L9.61873 8.97715C9.61958 8.64692 9.35256 8.3799 9.02234 8.38075L1.84715 8.39915C1.51692 8.4 1.24853 8.66839 1.24769 8.99862C1.24684 9.32885 1.51386 9.59586 1.84408 9.59502L8.42134 9.57815Z" fill="#40857E" stroke="#40857E" stroke-width="1.3"/>
</svg>
