<svg width="51" height="52" viewBox="0 0 51 52" fill="none" xmlns="http://www.w3.org/2000/svg">
<path d="M27.5154 24.1789L48.2109 24.1259C49.25 24.1232 50.0901 24.9634 50.0875 26.0024C50.0848 27.0415 49.2403 27.886 48.2012 27.8887L25.6244 27.9466C24.5853 27.9492 23.7451 27.1091 23.7478 26.07L23.8057 3.49311C23.8083 2.45404 24.6528 1.60954 25.6919 1.60688C26.731 1.60421 27.5712 2.44439 27.5685 3.48346L27.5154 24.1789Z" fill="#40857E" stroke="#40857E" stroke-width="0.6"/>
<path d="M23.8762 27.8221L23.8231 48.5175C23.8205 49.5566 24.6606 50.3968 25.6997 50.3941C26.7388 50.3914 27.5833 49.547 27.5859 48.5079L27.6438 25.931C27.6465 24.8919 26.8063 24.0518 25.7673 24.0544L3.19038 24.1123C2.1513 24.115 1.30681 24.9595 1.30414 25.9986C1.30148 27.0376 2.14165 27.8778 3.18073 27.8751L23.8762 27.8221Z" fill="#40857E" stroke="#40857E" stroke-width="0.6"/>
</svg>
