<svg width="22" height="23" viewBox="0 0 22 23" fill="none" xmlns="http://www.w3.org/2000/svg">
<path d="M11 0.996094C8.82441 0.996094 6.69767 1.64123 4.88873 2.84993C3.07979 4.05862 1.66989 5.77659 0.83733 7.78657C0.0047661 9.79656 -0.213071 12.0083 0.211367 14.1421C0.635804 16.2759 1.68345 18.2359 3.22183 19.7743C4.76021 21.3126 6.72022 22.3603 8.85401 22.7847C10.9878 23.2092 13.1995 22.9913 15.2095 22.1588C17.2195 21.3262 18.9375 19.9163 20.1462 18.1074C21.3549 16.2984 22 14.1717 22 11.9961C22 9.07871 20.8411 6.28082 18.7782 4.21792C16.7153 2.15502 13.9174 0.996094 11 0.996094ZM11 21.8382C9.05342 21.8382 7.15055 21.261 5.53202 20.1795C3.9135 19.098 2.65201 17.5609 1.90709 15.7625C1.16216 13.9641 0.967253 11.9852 1.34701 10.076C1.72677 8.16681 2.66414 6.41312 4.04059 5.03667C5.41703 3.66023 7.17072 2.72286 9.0799 2.3431C10.9891 1.96334 12.968 2.15825 14.7664 2.90317C16.5648 3.6481 18.1019 4.90959 19.1834 6.52811C20.2649 8.14664 20.8421 10.0495 20.8421 11.9961C20.8421 14.6064 19.8052 17.1098 17.9594 18.9555C16.1137 20.8013 13.6103 21.8382 11 21.8382Z" fill="#044236"/>
<path d="M11.6 5.99609H10.4V11.3961H5V12.5961H10.4V17.9961H11.6V12.5961H17V11.3961H11.6V5.99609Z" fill="#044236"/>
</svg>
