<?xml version="1.0" encoding="utf-8"?>
<!-- Generator: Adobe Illustrator 21.1.0, SVG Export Plug-In . SVG Version: 6.00 Build 0)  -->
<svg version="1.1" xmlns="http://www.w3.org/2000/svg" xmlns:xlink="http://www.w3.org/1999/xlink" x="0px" y="0px"
	 viewBox="0 0 60 60" style="enable-background:new 0 0 60 60;" xml:space="preserve">
<style type="text/css">
	.st0{display:none;}
	.st1{display:inline;}
	.st2{clip-path:url(#SVGID_2_);}
	.st3{fill:#FFFFFF;}
	.st4{fill:#016FD0;}
</style>
<g id="Layer_1" class="st0">
	<g class="st1">
		<defs>
			<rect id="SVGID_1_" x="1" y="22.5" width="58" height="18"/>
		</defs>
		<clipPath id="SVGID_2_">
			<use xlink:href="#SVGID_1_"  style="overflow:visible;"/>
		</clipPath>
		<g class="st2">
			<path class="st3" d="M24.2,22.8l-2.9,17.4H26l3-17.4H24.2z"/>
			<path class="st3" d="M17.3,22.8l-4.6,11.9l-0.5-1.8c-1.5-2.9-3.8-5.4-6.5-7.2l4.2,14.5l5,0l7.4-17.4L17.3,22.8z"/>
			<path class="st3" d="M10.4,24.1c-0.1-0.4-0.4-0.8-0.8-1.1s-0.8-0.4-1.3-0.3H1.1L1,23c5.7,1.4,9.5,4.7,11,8.7L10.4,24.1z"/>
			<path class="st3" d="M38.5,26.2c1.2,0,2.4,0.2,3.5,0.7l0.4,0.2l0.6-3.8c-1.4-0.5-2.8-0.7-4.2-0.7c-4.7,0-7.9,2.4-8,5.7
				c0,2.5,2.3,3.9,4.1,4.7c1.8,0.9,2.5,1.4,2.4,2.2c0,1.2-1.5,1.7-2.8,1.7c-1.5,0-3-0.3-4.4-0.9l-0.6-0.3l-0.7,3.9
				c1.7,0.6,3.5,0.9,5.3,0.9c5,0,8.2-2.3,8.2-5.9c0-2-1.2-3.5-4-4.7c-1.6-0.8-2.7-1.3-2.6-2.2C35.8,26.9,36.6,26.2,38.5,26.2z"/>
			<path class="st3" d="M55.2,22.8h-3.6c-0.5-0.1-1,0-1.5,0.3c-0.4,0.3-0.8,0.7-1,1.1l-7,15.9h5c0,0,0.8-2.1,1-2.6l6,0
				c0.1,0.6,0.6,2.6,0.6,2.6H59L55.2,22.8z M49.4,34.1c0.4-1,1.9-4.9,1.9-4.9c0,0,0.4-1,0.6-1.7l0.3,1.5l1.1,5H49.4z"/>
		</g>
	</g>
</g>
<g id="Layer_2">
	<path class="st4" d="M0,0h60v32.4L57,37l3,4.1V60H0V29.5l1.9-2.1l-1.9-2V0z"/>
	<path class="st3" d="M11.6,41.8v-9.4h10l1.1,1.4l1.1-1.4h36.2v8.8c0,0-0.9,0.6-2,0.7h-20l-1.2-1.5v1.5h-3.9v-2.5
		c0,0-0.5,0.3-1.7,0.3h-1.3v2.2h-6l-1.1-1.4l-1.1,1.4L11.6,41.8z M0,25.3L2.2,20h3.9L7.4,23V20h4.8l0.8,2.1l0.7-2.1h21.7v1.1
		c0,0,1.1-1.1,3-1.1l7,0l1.2,2.9V20h4l1.1,1.7V20h4.1v9.4h-4.1l-1.1-1.7v1.7h-5.9L44.3,28h-1.6l-0.6,1.5h-4c-1.6,0-2.6-1-2.6-1v1
		h-6.1L28.1,28v1.5H5.6L5,28H3.4l-0.6,1.5H0V25.3z"/>
	<path class="st4" d="M3,21.2l-3,7.1h2l0.6-1.4h3.2l0.6,1.4h2l-3-7.1H3z M4.2,22.9l1,2.5h-2L4.2,22.9z M8.6,28.3v-7.1l2.8,0l1.6,4.5
		l1.6-4.6h2.8v7.1h-1.8v-5.2l-1.9,5.2h-1.5l-1.9-5.2v5.2H8.6z M18.6,28.3v-7.1h5.7v1.6h-4V24h3.9v1.5h-3.9v1.2h4v1.5L18.6,28.3z
		 M25.3,21.2v7.1h1.8v-2.5h0.7l2.1,2.5h2.2l-2.3-2.6c1-0.1,1.9-0.9,1.9-2.2c0-1.5-1.2-2.3-2.5-2.3L25.3,21.2L25.3,21.2z M27.1,22.8
		h2c0.5,0,0.8,0.4,0.8,0.7c0,0.5-0.5,0.7-0.8,0.7h-2V22.8L27.1,22.8z M34.2,28.3h-1.8v-7.1h1.8V28.3z M38.5,28.3h-0.4
		c-1.9,0-3-1.5-3-3.5c0-2.1,1.1-3.6,3.5-3.6h1.9v1.7h-2c-1,0-1.6,0.8-1.6,1.9c0,1.4,0.8,1.9,1.9,1.9h0.5L38.5,28.3z M42.3,21.2
		l-3,7.1h2l0.6-1.4h3.2l0.6,1.4h2l-3-7.1H42.3z M43.5,22.9l1,2.5h-2L43.5,22.9z M47.9,28.3v-7.1h2.2l2.9,4.4v-4.4h1.8v7.1h-2.2
		l-2.9-4.5v4.5H47.9z M12.8,40.6v-7.1h5.7v1.6h-4v1.2h3.9v1.5h-3.9v1.2h4v1.5L12.8,40.6z M41,40.6v-7.1h5.7v1.6h-4v1.2h3.9v1.5h-3.9
		v1.2h4v1.5L41,40.6z M18.8,40.6l2.8-3.5l-2.9-3.6H21l1.7,2.2l1.7-2.2h2.1l-2.8,3.5l2.8,3.5h-2.2l-1.7-2.2L21,40.6L18.8,40.6
		L18.8,40.6z M26.7,33.5v7.1h1.8v-2.2h1.9c1.6,0,2.8-0.8,2.8-2.5c0-1.3-0.9-2.4-2.5-2.4L26.7,33.5L26.7,33.5z M28.5,35.1h1.9
		c0.5,0,0.9,0.3,0.9,0.8c0,0.5-0.4,0.8-0.9,0.8h-1.9L28.5,35.1z M33.9,33.5v7.1h1.8v-2.5h0.7l2.1,2.5h2.2L38.3,38
		c1-0.1,1.9-0.9,1.9-2.2c0-1.5-1.2-2.3-2.5-2.3L33.9,33.5z M35.6,35.1h2c0.5,0,0.8,0.4,0.8,0.7c0,0.5-0.5,0.7-0.8,0.7h-2L35.6,35.1
		L35.6,35.1z M47.6,40.6v-1.5h3.5c0.5,0,0.8-0.3,0.8-0.6c0-0.3-0.2-0.6-0.8-0.6h-1.6c-1.4,0-2.2-0.8-2.2-2.1c0-1.1,0.7-2.2,2.8-2.2
		h3.4l-0.7,1.6h-3c-0.6,0-0.7,0.3-0.7,0.6s0.2,0.6,0.7,0.6h1.7c1.5,0,2.2,0.9,2.2,2c0,1.2-0.7,2.3-2.3,2.3L47.6,40.6z M54,40.6v-1.5
		h3.5c0.5,0,0.8-0.3,0.8-0.6c0-0.3-0.2-0.6-0.8-0.6H56c-1.4,0-2.2-0.8-2.2-2.1c0-1.1,0.7-2.2,2.8-2.2H60l-0.7,1.6h-3
		c-0.6,0-0.7,0.3-0.7,0.6s0.2,0.6,0.7,0.6h1.7c1.5,0,2.2,0.9,2.2,2c0,1.2-0.7,2.3-2.3,2.3L54,40.6z"/>
</g>
</svg>
