<svg width="56" height="40" viewBox="0 0 56 40" fill="none" xmlns="http://www.w3.org/2000/svg">
<path opacity="0.1" d="M35.8878 34.243C38.2305 32.9969 40.0997 31.9003 41.4953 30.9533C42.891 30.0062 44.0623 28.81 45.0093 27.3645C45.9065 25.919 46.3551 24.1745 46.3551 22.1308C45.6075 21.0343 44.7352 20.162 43.7383 19.514C42.6916 18.866 41.4206 18.4174 39.9252 18.1682C34.6916 17.2212 32.0748 14.405 32.0748 9.71963C32.0748 6.92835 33.0467 4.61059 34.9907 2.76635C36.9346 0.922115 39.4517 0 42.5421 0C45.1838 0 47.5265 0.647972 49.5701 1.94392C51.6137 3.23988 53.2087 5.05919 54.3551 7.40187C55.4517 9.74455 56 12.4112 56 15.4019C56 19.0405 55.2025 22.6044 53.6075 26.0935C51.9626 29.6324 49.595 32.648 46.5047 35.1402C43.4143 37.6324 39.8006 39.2523 35.6636 40C34.2679 38.8536 33.3707 37.4579 32.972 35.8131L35.8878 34.243ZM4.11215 34.243C6.45483 32.9969 8.32399 31.9003 9.71962 30.9533C11.1153 30.0062 12.2866 28.81 13.2336 27.3645C14.1308 25.919 14.5794 24.1745 14.5794 22.1308C13.1838 19.9875 11.0405 18.6667 8.14953 18.1682C2.96573 17.2212 0.373829 14.405 0.373829 9.71963C0.373829 6.92835 1.34579 4.61059 3.28972 2.76635C5.1838 0.922115 7.67601 0 10.7664 0C13.4081 0 15.7508 0.647972 17.7944 1.94392C19.838 3.23988 21.433 5.05919 22.5794 7.40187C23.676 9.74455 24.2243 12.4112 24.2243 15.4019C24.2243 19.0405 23.4268 22.6044 21.8318 26.0935C20.1869 29.6324 17.8193 32.648 14.729 35.1402C11.6386 37.6324 8.02492 39.2523 3.88785 40C2.49221 38.8536 1.59501 37.4579 1.19626 35.8131L4.11215 34.243Z" fill="#D6CD56"/>
</svg>
