<svg width="24" height="24" viewBox="0 0 24 24" fill="none" xmlns="http://www.w3.org/2000/svg">
<path fill-rule="evenodd" clip-rule="evenodd" d="M13.8162 23.7518C14.0963 23.9119 14.4084 23.9946 14.7233 23.9946C14.8807 23.9946 15.0408 23.9759 15.2008 23.9359C15.6704 23.8105 16.0626 23.509 16.3054 23.0874L17.2925 21.3719C17.3299 21.3052 17.4046 21.2625 17.482 21.2625H19.4429C20.4461 21.2625 21.2625 20.4461 21.2625 19.443V17.482C21.2625 17.4046 21.3052 17.3326 21.3719 17.2926L23.0874 16.3054C23.9572 15.8038 24.2587 14.6886 23.7571 13.8188L22.7726 12.1086C22.7326 12.0419 22.7326 11.9566 22.7726 11.8899L23.7571 10.1797C24.256 9.30992 23.9572 8.1947 23.0874 7.69311L21.3719 6.70596C21.3052 6.6686 21.2625 6.5939 21.2625 6.51653V4.55555C21.2625 3.55239 20.4461 2.73598 19.4429 2.73598H17.482C17.4046 2.73598 17.3326 2.69329 17.2925 2.62659L16.3054 0.913739C15.8038 0.043973 14.6886 -0.257511 13.8188 0.244072L12.1086 1.22856C12.0419 1.26858 11.9566 1.26858 11.8899 1.22856L10.1797 0.244072C9.75813 0.00128484 9.26722 -0.0627469 8.79766 0.0626488C8.32809 0.188045 7.93589 0.489528 7.69311 0.911071L6.70595 2.62659C6.6686 2.69329 6.59389 2.73598 6.51652 2.73598H4.55555C3.55238 2.73598 2.73598 3.55239 2.73598 4.55555V6.51653C2.73598 6.5939 2.69329 6.66594 2.62659 6.70596L0.913738 7.69311C0.0439729 8.1947 -0.25751 9.30992 0.244072 10.1797L1.22856 11.8899C1.26858 11.9566 1.26858 12.0419 1.22856 12.1086L0.244072 13.8188C0.00128499 14.2404 -0.0627469 14.7313 0.0626487 15.2008C0.188044 15.6704 0.489528 16.0626 0.91107 16.3054L2.62659 17.2926C2.69329 17.3299 2.73598 17.4046 2.73598 17.482V19.443C2.73598 20.4461 3.55238 21.2625 4.55555 21.2625H6.51652C6.59389 21.2625 6.66593 21.3052 6.70595 21.3719L7.69311 23.0848C8.02927 23.6664 8.64291 23.9946 9.27256 23.9946C9.57938 23.9946 9.89153 23.9172 10.177 23.7518L11.8872 22.7673C11.9539 22.7273 12.0393 22.7273 12.106 22.7673L13.8162 23.7518ZM12.9064 21.3799C12.6262 21.2172 12.3114 21.1371 11.9966 21.1371C11.6818 21.1371 11.3669 21.2172 11.0921 21.3773L9.38195 22.3617C9.27523 22.4231 9.14183 22.3858 9.08046 22.2817L8.09331 20.5689C7.77048 20.0059 7.16484 19.6564 6.51652 19.6564H4.55555C4.43549 19.6564 4.33677 19.5577 4.33677 19.4376V17.4766C4.33677 16.8283 3.98727 16.2227 3.42432 15.8999L1.7088 14.9127C1.64477 14.8754 1.61809 14.8193 1.60742 14.7793C1.59674 14.7393 1.59141 14.6753 1.62876 14.6112L2.61325 12.901C2.93608 12.3408 2.93608 11.6444 2.61325 11.0841L1.62876 9.37395C1.5674 9.26723 1.60475 9.13383 1.7088 9.07247L3.42165 8.08531C3.9846 7.76248 4.3341 7.15685 4.3341 6.50852V4.54755C4.3341 4.42749 4.43282 4.32877 4.55288 4.32877H6.51385C7.16218 4.32877 7.76781 3.97926 8.09064 3.41632L9.0778 1.7008C9.11515 1.63677 9.17118 1.61009 9.21119 1.59941C9.25121 1.58874 9.31525 1.58341 9.37928 1.62076L11.0895 2.60525C11.6497 2.92807 12.3461 2.92807 12.9064 2.60525L14.6165 1.62076C14.7233 1.55939 14.8567 1.59675 14.918 1.7008L15.9052 3.41365C16.228 3.9766 16.8336 4.3261 17.482 4.3261H19.4429C19.563 4.3261 19.6617 4.42482 19.6617 4.54488V6.50586C19.6617 7.15418 20.0112 7.75981 20.5742 8.08264L22.2897 9.0698C22.3937 9.13116 22.4311 9.26723 22.3697 9.37128L21.3852 11.0815C21.0624 11.6417 21.0624 12.3381 21.3852 12.8984L22.3697 14.6112C22.4311 14.7179 22.3937 14.8513 22.2897 14.9127L20.5742 15.8999C20.0112 16.2227 19.6617 16.8283 19.6617 17.4766V19.4376C19.6617 19.5577 19.563 19.6564 19.4429 19.6564H17.482C16.8336 19.6564 16.228 20.0059 15.9052 20.5689L14.918 22.2844C14.8807 22.3484 14.8247 22.3751 14.7846 22.3858C14.7446 22.3964 14.6806 22.4018 14.6165 22.3644L12.9064 21.3799ZM15.4102 7.44531L16.5421 8.57724L8.58278 16.5365L7.45086 15.4046L15.4102 7.44531ZM8.97926 11.3614C8.36829 11.3614 7.75732 11.1293 7.29042 10.6624C6.35929 9.73124 6.35929 8.21582 7.29042 7.28469C7.74131 6.8338 8.34161 6.58567 8.97926 6.58567C9.61691 6.58567 10.2172 6.8338 10.6681 7.28469C11.5992 8.21582 11.5992 9.73124 10.6681 10.6624C10.2012 11.1266 9.59023 11.3614 8.97926 11.3614ZM8.97926 8.18647C8.76849 8.18647 8.57106 8.26918 8.42165 8.41592C8.11483 8.72273 8.11483 9.22165 8.42165 9.52847C8.72847 9.83529 9.22738 9.83529 9.5342 9.52847C9.84102 9.22165 9.84102 8.72273 9.5342 8.41592C9.38746 8.26918 9.19003 8.18647 8.97926 8.18647ZM13.3273 16.6932C13.7942 17.1601 14.4051 17.3922 15.0161 17.3922C15.6271 17.3922 16.238 17.1574 16.7049 16.6932C17.6361 15.7621 17.6361 14.2467 16.7049 13.3155C15.7738 12.3844 14.2584 12.3844 13.3273 13.3155C12.3961 14.2467 12.3961 15.7621 13.3273 16.6932ZM14.4585 14.4468C14.6132 14.2947 14.8133 14.2173 15.0161 14.2173C15.2189 14.2173 15.419 14.2947 15.571 14.4468C15.8779 14.7536 15.8779 15.2525 15.571 15.5593C15.2642 15.8661 14.7653 15.8661 14.4585 15.5593C14.1517 15.2525 14.1517 14.7536 14.4585 14.4468Z" fill="#004236"/>
</svg>
