<svg width="32" height="33" viewBox="0 0 32 33" fill="none" xmlns="http://www.w3.org/2000/svg">
<path d="M16 32.9843C24.8366 32.9843 32 25.8209 32 16.9843C32 8.1478 24.8366 0.984375 16 0.984375C7.16344 0.984375 0 8.1478 0 16.9843C0 25.8209 7.16344 32.9843 16 32.9843Z" fill="#E3E3E3"/>
<path d="M14.1023 22.3957L10.2251 26.0029L10.0977 25.9054C10.5401 24.2556 10.9826 22.6132 11.4325 20.9708C12.5574 16.8837 13.6823 12.804 14.8147 8.7169C14.8147 8.7019 14.8147 8.6869 14.8147 8.6794C14.8147 8.47692 14.9197 8.28944 15.0997 8.19194C15.3697 8.14695 15.3622 8.45442 15.4597 8.62691C16.0371 9.69181 16.4721 10.8242 17.147 11.8366C17.7845 13.3815 18.5269 14.9189 19.3294 16.3812C19.4268 16.5312 19.4868 16.7037 19.4868 16.8837C19.4868 17.1912 19.3294 17.4836 19.0669 17.6486C17.3795 19.216 15.7447 20.8134 14.1023 22.3957Z" fill="#F07A25"/>
<path d="M14.1025 22.3975C15.7524 20.8151 17.3872 19.2178 19.0596 17.6579C19.3221 17.4929 19.4795 17.2005 19.4795 16.893C19.4795 16.713 19.4271 16.5405 19.3221 16.3905C18.5121 14.9281 17.7772 13.3908 17.1397 11.8459L18.2947 7.96875C18.7746 8.89117 19.1721 9.6486 19.5545 10.4135C20.522 12.3409 21.4669 14.2832 22.4718 16.1955C22.6068 16.383 22.6743 16.608 22.6743 16.8405C22.6743 17.2229 22.4793 17.5829 22.1493 17.7854C19.4046 20.3277 16.7123 22.93 14.005 25.5097C13.8325 25.7347 13.6001 25.9072 13.3301 25.9972C13.675 24.8198 13.9375 23.6124 14.1025 22.3975Z" fill="#0C8D48"/>
</svg>
