<svg width="35" height="35" viewBox="0 0 35 35" fill="none" xmlns="http://www.w3.org/2000/svg">
<path d="M23.2528 27.4875L22.9299 27.4271C22.755 27.3938 22.5758 27.3605 22.4071 27.3188C21.2511 27.0314 20.0868 26.4961 18.7413 25.6339C17.0729 24.5634 15.4274 23.1909 13.5612 21.3165C12.0948 19.8857 10.7659 18.3091 9.60787 16.6263C8.63725 15.1809 8.05613 13.9896 7.72495 12.7629C7.65622 12.5151 7.61039 12.2589 7.56873 12.034L7.51041 11.732L7.5 11.6383V11.0031L7.51875 10.9593C7.85617 10.1429 8.44562 9.55769 9.0205 9.02869C9.44957 8.62673 9.89739 8.26643 10.3556 7.89988C10.6701 7.63954 11.0617 7.5 11.4637 7.5C11.6137 7.5 11.7636 7.51874 11.9094 7.55832C12.2469 7.63954 12.526 7.83739 12.7072 8.12064L13.2987 9.01411C13.8882 9.91383 14.4985 10.8448 15.1212 11.7445C15.5211 12.2985 15.5774 13.0087 15.2712 13.6085C15.1629 13.848 15.0421 14.0605 14.9275 14.2666L14.6734 14.7227C14.588 14.8769 14.5026 15.0289 14.4131 15.183L14.2673 15.435L14.8463 16.1265L15.065 16.3868C15.3524 16.7284 15.6482 17.0824 15.9544 17.4115C16.9917 18.5528 18.1352 19.6191 19.3495 20.5792L19.5723 20.7542L19.8181 20.6126C20.243 20.3668 20.7013 20.1106 21.2178 19.8295C21.5386 19.6358 21.8843 19.5379 22.2384 19.5379C22.3675 19.5379 22.4988 19.5504 22.6258 19.5775C22.7758 19.6129 22.9237 19.6754 23.0611 19.7649C24.3296 20.598 25.6272 21.4581 26.9165 22.3183C27.431 22.6619 27.6331 23.3805 27.4102 24.0657C27.3581 24.2364 27.281 24.3906 27.1832 24.5322C26.5375 25.4465 25.7668 26.2671 24.8941 26.9689C24.7274 27.0939 24.5379 27.2126 24.34 27.3146C24.34 27.3146 24.1463 27.4209 24.0922 27.4521L24.0151 27.5L23.2528 27.4875ZM11.4595 8.00817C11.17 8.00817 10.8888 8.11023 10.666 8.2935L10.5139 8.41846C10.1307 8.73087 9.73492 9.0516 9.36001 9.39732C8.86012 9.8576 8.34565 10.3616 8.04155 11.0135L8.00197 11.0968V11.6362L8.0103 11.6779C8.02905 11.7653 8.04363 11.8507 8.06029 11.9382C8.10195 12.1548 8.14777 12.4006 8.21026 12.6317C8.52686 13.8022 9.08715 14.9477 10.0265 16.3472C11.17 18.0092 12.4781 19.5608 13.9194 20.9666C15.7544 22.8077 17.3728 24.1573 19.012 25.2111C20.2951 26.04 21.4136 26.5545 22.5279 26.8335C22.7279 26.8835 22.9341 26.921 23.1153 26.9523L23.3632 27.0002H23.8797L24.0838 26.8898C24.2484 26.8065 24.4171 26.7023 24.5733 26.5878L24.59 26.5753C25.4252 25.8963 26.1625 25.1028 26.7791 24.2198C26.8457 24.1136 26.8916 24.0136 26.9228 23.9095C27.0769 23.5242 26.9894 23.0868 26.6978 22.7869L26.6666 22.7556L26.6291 22.7307C25.3461 21.8768 24.063 21.027 22.7758 20.1794C22.6862 20.1231 22.5946 20.0836 22.4967 20.0607L22.4759 20.0586C22.3925 20.044 22.3092 20.0377 22.2259 20.0377C21.9447 20.0377 21.6698 20.1169 21.4323 20.2689C20.8804 20.5668 20.3784 20.85 19.8973 21.1332C19.791 21.202 19.6869 21.2332 19.5786 21.2332C19.4494 21.2332 19.3224 21.1874 19.2224 21.1041C17.9144 20.0898 16.6959 18.9631 15.5899 17.7489C15.19 17.3198 14.8171 16.8721 14.4589 16.4389L14.3193 16.2764C14.1735 16.1056 14.0277 15.9349 13.8882 15.7662L13.8736 15.7474C13.7257 15.585 13.709 15.3434 13.8299 15.1622C13.9965 14.8894 14.1402 14.629 14.2818 14.377L14.5422 13.9105C14.6318 13.748 14.7192 13.5939 14.7942 13.4294C15.0462 12.9816 15.0108 12.4318 14.7005 12.0194C14.0985 11.1364 13.5112 10.245 12.8572 9.25778L12.3031 8.40597C12.1969 8.23102 12.0136 8.1019 11.8032 8.05399C11.6907 8.02275 11.5762 8.00817 11.4595 8.00817Z" fill="#40857E" stroke="#40857E" stroke-linejoin="round"/>
</svg>
