<svg width="35" height="35" viewBox="0 0 35 35" fill="none" xmlns="http://www.w3.org/2000/svg">
<path d="M17.5931 26.0703C17.5014 26.0703 17.4098 26.0359 17.3396 25.9658L14.8869 23.513H9.44872C8.37341 23.513 7.5 22.6382 7.5 21.5643V10.8784C7.5 9.80311 8.37485 8.92969 9.44872 8.92969H25.5513C26.6266 8.92969 27.5 9.80454 27.5 10.8784V21.5643C27.5 22.6396 26.6252 23.513 25.5513 23.513H20.2978L17.8451 25.9658C17.7764 26.0345 17.6847 26.0703 17.5931 26.0703ZM9.45018 9.64561C8.77005 9.64561 8.21734 10.1983 8.21734 10.8784V21.5643C8.21734 22.2444 8.77005 22.7971 9.45018 22.7971H15.0358C15.1303 22.7971 15.2219 22.8343 15.2892 22.9016L17.5931 25.2055L19.8969 22.9016C19.9642 22.8343 20.0544 22.7971 20.1503 22.7971H25.5527C26.2328 22.7971 26.7855 22.2444 26.7855 21.5643V10.8784C26.7855 10.1983 26.2328 9.64561 25.5527 9.64561H9.45018Z" fill="#40857E" stroke="#40857E" stroke-width="0.8"/>
</svg>
