<svg width="72" height="72" viewBox="0 0 72 72" fill="none" xmlns="http://www.w3.org/2000/svg">
<path d="M36.5625 0C37.7578 0.45692 38.6191 1.19502 38.6895 2.58335C38.7598 4.02441 37.8105 5.20186 36.3691 5.36002C34.8398 5.53576 33.2754 5.53576 31.7461 5.74664C26.0508 6.50232 20.9883 8.75177 16.5938 12.4071C11.5488 16.5897 8.01562 21.8267 6.45117 28.2236C3.88477 38.7327 6.09961 48.1875 13.2715 56.3593C18.0176 61.772 24.0293 65.0759 31.1309 66.1479C40.4824 67.5714 48.832 65.1989 56.0215 59.0129C60.7676 54.9182 64.002 49.8394 65.5137 43.7589C66.0586 41.5797 66.1992 39.2775 66.5156 37.0456C66.5684 36.659 66.5332 36.2548 66.5859 35.8506C66.7793 34.2163 67.9043 33.2321 69.4688 33.32C70.9277 33.3903 72 34.5853 71.9824 36.167C71.9648 39.3478 71.6133 42.4935 70.6992 45.5338C66.6562 58.7845 58.0078 67.4835 44.5957 70.9104C26.7715 75.4445 8.73633 65.7437 2.25 48.5038C1.07227 45.3581 0.351562 42.1069 0.123047 38.7679C0.105469 38.5394 0.0351562 38.311 0 38.1001C0 36.6942 0 35.2883 0 33.8824C0.0527344 33.3727 0.123047 32.8631 0.175781 32.371C1.03711 24.6209 3.99023 17.8023 9.21094 12.0029C14.7656 5.85209 21.6211 2.00342 29.7949 0.562363C31.1484 0.316329 32.5195 0.175738 33.8906 0C34.7871 0 35.666 0 36.5625 0Z" fill="#10B421"/>
<path d="M33.6981 42.4389C33.8739 42.1578 33.9794 41.8766 34.1727 41.6833C44.6844 31.1917 55.2137 20.7001 65.7255 10.2085C66.5165 9.41769 67.3602 8.89048 68.5204 9.10137C70.4891 9.48799 71.3856 11.7726 70.1727 13.3718C69.9969 13.6178 69.7684 13.8287 69.5575 14.0396C58.2899 25.2693 47.0223 36.5166 35.7547 47.7462C34.1551 49.3455 32.6434 49.3103 31.1141 47.6584C26.7547 42.9134 22.3778 38.1861 18.0184 33.4411C16.8583 32.1758 16.8055 30.559 17.8778 29.4694C18.9852 28.3447 20.7079 28.3974 21.868 29.6276C23.4676 31.3147 25.0145 33.0369 26.5965 34.7416C28.8993 37.2371 31.202 39.7501 33.6981 42.4389Z" fill="#10B421"/>
</svg>
