<svg width="37" height="24" viewBox="0 0 37 24" fill="none" xmlns="http://www.w3.org/2000/svg">
<path d="M11.1005 18.9701L11.0353 19.0332C9.98426 20.1041 8.76772 20.6716 7.51418 20.6716C4.89759 20.6716 2.99822 18.7087 2.99822 16.0002C2.99822 13.2967 4.89759 11.331 7.51418 11.331C8.76772 11.331 9.98426 11.9009 11.0353 12.9746L11.1005 13.0396L12.7833 11.0048L12.7383 10.9496C11.3389 9.29588 9.65973 8.49082 7.59541 8.49082C5.52395 8.49082 3.63037 9.18795 2.26567 10.4452C0.782886 11.8066 0 13.7267 0 16.0002C0 18.2727 0.782886 20.1975 2.26567 21.5593C3.63037 22.8223 5.52395 23.5156 7.59541 23.5156C9.65973 23.5156 11.3389 22.711 12.7383 21.0566L12.7833 21.0052L11.1005 18.9701Z" fill="#003B70"/>
<path d="M14.4844 23.2422H17.4572V8.73009H14.4844V23.2422Z" fill="#003B70"/>
<path d="M29.1019 20.0829C28.3088 20.5658 27.5706 20.8086 26.9078 20.8086C25.9474 20.8086 25.5133 20.3017 25.5133 19.1725V11.4724H28.5409V8.73958H25.5133V4.22406L22.5996 5.78341V8.73958H20.0859V11.4724H22.5996V19.6637C22.5996 21.8955 23.9215 23.4201 25.8949 23.4597C27.2349 23.486 28.0427 23.0868 28.5333 22.795L28.562 22.7736L29.2777 19.9755L29.1019 20.0829Z" fill="#003B70"/>
<path d="M31.5625 23.2422H34.5372V8.73009H31.5625V23.2422Z" fill="#003B70"/>
<path fill-rule="evenodd" clip-rule="evenodd" d="M36.3189 6.15323C33.5976 2.29867 29.0783 -0.00105429 24.4803 -0.00105429C19.8841 -0.00105429 15.3639 2.29867 12.6472 6.15323L12.5078 6.35156H15.9343L15.9723 6.31042C18.3044 3.90337 21.3488 2.63043 24.4803 2.63043C27.6121 2.63043 30.6559 3.90337 32.9926 6.31042L33.0305 6.35156H36.4559L36.3189 6.15323Z" fill="#D9261C"/>
</svg>
