<svg width="45" height="45" viewBox="0 0 45 45" fill="none" xmlns="http://www.w3.org/2000/svg">
<rect width="45" height="45" rx="3" fill="#044236"/>
<path d="M7.9 19.7857V19.7857C7.90004 20.196 8.2326 20.5285 8.64285 20.5286H8.64286C10.0154 20.5286 11.1143 21.6275 11.1143 23C11.1143 24.3725 10.0154 25.4714 8.64286 25.4714C8.2326 25.4715 7.90004 25.804 7.9 26.2143V30.0714C7.9 31.184 8.81603 32.1 9.92857 32.1H9.97628H10.024H10.0717H10.1194H10.1671H10.2148H10.2626H10.3103H10.358H10.4057H10.4534H10.5011H10.5488H10.5965H10.6443H10.692H10.7397H10.7874H10.8351H10.8828H10.9305H10.9782H11.0259H11.0737H11.1214H11.1691H11.2168H11.2645H11.3122H11.3599H11.4076H11.4554H11.5031H11.5508H11.5985H11.6462H11.6939H11.7416H11.7893H11.8371H11.8848H11.9325H11.9802H12.0279H12.0756H12.1233H12.171H12.2188H12.2665H12.3142H12.3619H12.4096H12.4573H12.505H12.5527H12.6004H12.6482H12.6959H12.7436H12.7913H12.839H12.8867H12.9344H12.9821H13.0299H13.0776H13.1253H13.173H13.2207H13.2684H13.3161H13.3638H13.4116H13.4593H13.507H13.5547H13.6024H13.6501H13.6978H13.7455H13.7932H13.841H13.8887H13.9364H13.9841H14.0318H14.0795H14.1272H14.1749H14.2227H14.2704H14.3181H14.3658H14.4135H14.4612H14.5089H14.5566H14.6044H14.6521H14.6998H14.7475H14.7952H14.8429H14.8906H14.9383H14.986H15.0338H15.0815H15.1292H15.1769H15.2246H15.2723H15.32H15.3677H15.4155H15.4632H15.5109H15.5586H15.6063H15.654H15.7017H15.7494H15.7972H15.8449H15.8926H15.9403H15.988H16.0357H16.0834H16.1311H16.1789H16.2266H16.2743H16.322H16.3697H16.4174H16.4651H16.5128H16.5605H16.6083H16.656H16.7037H16.7514H16.7991H16.8468H16.8945H16.9422H16.99H17.0377H17.0854H17.1331H17.1808H17.2285H17.2762H17.3239H17.3717H17.4194H17.4671H17.5148H17.5625H17.6102H17.6579H17.7056H17.7533H17.8011H17.8488H17.8965H17.9442H17.9919H18.0396H18.0873H18.135H18.1828H18.2305H18.2782H18.3259H18.3736H18.4213H18.469H18.5167H18.5645H18.6122H18.6599H18.7076H18.7553H18.803H18.8507H18.8984H18.9461H18.9939H19.0416H19.0893H19.137H19.1847H19.2324H19.2801H19.3278H19.3756H19.4233H19.471H19.5187H19.5664H19.6141H19.6618H19.7095H19.7573H19.805H19.8527H19.9004H19.9481H19.9958H20.0435H20.0912H20.139H20.1867H20.2344H20.2821H20.3298H20.3775H20.4252H20.4729H20.5206H20.5684H20.6161H20.6638H20.7115H20.7592H20.8069H20.8546H20.9023H20.9501H20.9978H21.0455H21.0932H21.1409H21.1886H21.2363H21.284H21.3318H21.3795H21.4272H21.4749H21.5226H21.5703H21.618H21.6657H21.7134H21.7612H21.8089H21.8566H21.9043H21.952H21.9997H22.0474H22.0951H22.1429H22.1906H22.2383H22.286H22.3337H22.3814H22.4291H22.4768H22.5246H22.5723H22.62H22.6677H22.7154H22.7631H22.8108H22.8585H22.9062H22.954H23.0017H23.0494H23.0971H23.1448H23.1925H23.2402H23.2879H23.3357H23.3834H23.4311H23.4788H23.5265H23.5742H23.6219H23.6696H23.7174H23.7651H23.8128H23.8605H23.9082H23.9559H24.0036H24.0513H24.0991H24.1468H24.1945H24.2422H24.2899H24.3376H24.3853H24.433H24.4807H24.5285H24.5762H24.6239H24.6716H24.7193H24.767H24.8147H24.8624H24.9102H24.9579H25.0056H25.0533H25.101H25.1487H25.1964H25.2441H25.2919H25.3396H25.3873H25.435H25.4827H25.5304H25.5781H25.6258H25.6735H25.7213H25.769H25.8167H25.8644H25.9121H25.9598H26.0075H26.0552H26.103H26.1507H26.1984H26.2461H26.2938H26.3415H26.3892H26.4369H26.4847H26.5324H26.5801H26.6278H26.6755H26.7232H26.7709H26.8186H26.8664H26.9141H26.9618H27.0095H27.0572H27.1049H27.1526H27.2003H27.248H27.2958H27.3435H27.3912H27.4389H27.4866H27.5343H27.582H27.6297H27.6775H27.7252H27.7729H27.8206H27.8683H27.916H27.9637H28.0114H28.0592H28.1069H28.1546H28.2023H28.25H28.2977H28.3454H28.3931H28.4408H28.4886H28.5363H28.584H28.6317H28.6794H28.7271H28.7748H28.8225H28.8703H28.918H28.9657H29.0134H29.0611H29.1088H29.1565H29.2042H29.252H29.2997H29.3474H29.3951H29.4428H29.4905H29.5382H29.5859H29.6336H29.6814H29.7291H29.7768H29.8245H29.8722H29.9199H29.9676H30.0153H30.0631H30.1108H30.1585H30.2062H30.2539H30.3016H30.3493H30.397H30.4448H30.4925H30.5402H30.5879H30.6356H30.6833H30.731H30.7787H30.8265H30.8742H30.9219H30.9696H31.0173H31.065H31.1127H31.1604H31.2081H31.2559H31.3036H31.3513H31.399H31.4467H31.4944H31.5421H31.5898H31.6376H31.6853H31.733H31.7807H31.8284H31.8761H31.9238H31.9715H32.0193H32.067H32.1147H32.1624H32.2101H32.2578H32.3055H32.3532H32.4009H32.4487H32.4964H32.5441H32.5918H32.6395H32.6872H32.7349H32.7826H32.8304H32.8781H32.9258H32.9735H33.0212H33.0689H33.1166H33.1643H33.2121H33.2598H33.3075H33.3552H33.4029H33.4506H33.4983H33.546H33.5938H33.6415H33.6892H33.7369H33.7846H33.8323H33.88H33.9277H33.9754H34.0232H34.0709H34.1186H34.1663H34.214H34.2617H34.3094H34.3571C35.4697 32.1 36.3857 31.184 36.3857 30.0714V26.2143C36.3857 25.804 36.0531 25.4715 35.6429 25.4714C34.2703 25.4714 33.1714 24.3725 33.1714 23C33.1714 21.6275 34.2703 20.5286 35.6429 20.5286C36.0531 20.5285 36.3857 20.196 36.3857 19.7857V15.9286C36.3857 14.816 35.4697 13.9 34.3571 13.9H9.92857C8.81603 13.9 7.9 14.816 7.9 15.9286V19.7857ZM9.92857 15.3857H14.3286V18.5C14.3286 18.9103 14.6612 19.2429 15.0714 19.2429C15.4817 19.2429 15.8143 18.9103 15.8143 18.5V15.3857H34.3571C34.6692 15.3857 34.9 15.6165 34.9 15.9286V19.1904C33.0895 19.5475 31.6857 21.0815 31.6857 23C31.6857 24.9185 33.0895 26.4525 34.9 26.8096V30.0714C34.9 30.3835 34.6692 30.6143 34.3571 30.6143H15.8143V27.5C15.8143 27.0897 15.4817 26.7571 15.0714 26.7571C14.6612 26.7571 14.3286 27.0897 14.3286 27.5V30.6143H9.92857C9.61654 30.6143 9.38571 30.3835 9.38571 30.0714V26.8096C11.1962 26.4525 12.6 24.9185 12.6 23C12.6 21.0815 11.1962 19.5475 9.38571 19.1904V15.9286C9.38571 15.6165 9.61654 15.3857 9.92857 15.3857Z" fill="white" stroke="white" stroke-width="0.2"/>
<path d="M26.6531 17.8355L26.6531 17.8355C27.0201 18.019 27.1689 18.4653 26.9853 18.8323L26.6531 17.8355ZM26.6531 17.8355L26.6523 17.8351M26.6531 17.8355L26.6523 17.8351M26.6523 17.8351C26.2305 17.6286 25.8049 17.8289 25.6552 18.1701M26.6523 17.8351L25.6552 18.1701M25.6552 18.1701L21.1563 27.1677C21.1563 27.1677 21.1563 27.1678 21.1563 27.1678C20.9728 27.5347 21.1216 27.981 21.4886 28.1645L25.6552 18.1701ZM22.4853 27.8322L26.9853 18.8323L21.4886 28.1645C21.8556 28.348 22.3019 28.1993 22.4853 27.8323C22.4853 27.8323 22.4853 27.8322 22.4853 27.8322Z" fill="white" stroke="white" stroke-width="0.2"/>
<path d="M20.8563 18.7213C19.7436 18.7213 18.8277 19.6371 18.8277 20.7499C18.8277 21.8626 19.7436 22.7784 20.8563 22.7784C21.969 22.7784 22.8849 21.8626 22.8849 20.7499C22.8849 19.6371 21.969 18.7213 20.8563 18.7213ZM20.8563 20.207C21.1637 20.207 21.3992 20.4424 21.3992 20.7499C21.3992 21.0573 21.1637 21.2927 20.8563 21.2927C20.5489 21.2927 20.3134 21.0573 20.3134 20.7499C20.3134 20.4424 20.5489 20.207 20.8563 20.207Z" fill="white" stroke="white" stroke-width="0.2"/>
<path d="M27.286 23.2213C26.1733 23.2213 25.2574 24.1371 25.2574 25.2499C25.2574 26.3626 26.1733 27.2784 27.286 27.2784C28.3987 27.2784 29.3146 26.3626 29.3146 25.2499C29.3146 24.1371 28.3987 23.2213 27.286 23.2213ZM27.286 24.707C27.5934 24.707 27.8289 24.9424 27.8289 25.2499C27.8289 25.5573 27.5934 25.7927 27.286 25.7927C26.9786 25.7927 26.7431 25.5573 26.7431 25.2499C26.7431 24.9424 26.9786 24.707 27.286 24.707Z" fill="white" stroke="white" stroke-width="0.2"/>
<path d="M15.0706 20.3287C14.8736 20.3287 14.6846 20.407 14.5453 20.5463C14.406 20.6856 14.3277 20.8746 14.3277 21.0716V24.9287C14.3277 25.1257 14.406 25.3147 14.5453 25.454C14.6846 25.5933 14.8736 25.6716 15.0706 25.6716C15.2676 25.6716 15.4566 25.5933 15.5959 25.454C15.7352 25.3147 15.8134 25.1257 15.8134 24.9287V21.0716C15.8134 20.8746 15.7352 20.6856 15.5959 20.5463C15.4566 20.407 15.2676 20.3287 15.0706 20.3287Z" fill="white" stroke="white" stroke-width="0.2"/>
</svg>
