<svg width="79" height="79" viewBox="0 0 79 79" fill="none" xmlns="http://www.w3.org/2000/svg">
<path d="M39.375 78.75C61.1212 78.75 78.75 61.1212 78.75 39.375C78.75 17.6288 61.1212 0 39.375 0C17.6288 0 0 17.6288 0 39.375C0 61.1212 17.6288 78.75 39.375 78.75Z" fill="#044236"/>
<path d="M45.5441 39.3757L54.8629 30.1007C55.2708 29.6928 55.5944 29.2085 55.8151 28.6756C56.0359 28.1426 56.1495 27.5713 56.1495 26.9945C56.1495 26.4176 56.0359 25.8463 55.8151 25.3134C55.5944 24.7804 55.2708 24.2961 54.8629 23.8882C54.455 23.4803 53.9707 23.1567 53.4377 22.936C52.9047 22.7152 52.3335 22.6016 51.7566 22.6016C51.1798 22.6016 50.6085 22.7152 50.0755 22.936C49.5426 23.1567 49.0583 23.4803 48.6504 23.8882L39.3754 33.207L30.1004 23.8882C29.6925 23.4803 29.2082 23.1567 28.6752 22.936C28.1422 22.7152 27.571 22.6016 26.9941 22.6016C26.4172 22.6016 25.846 22.7152 25.313 22.936C24.7801 23.1567 24.2958 23.4803 23.8879 23.8882C23.48 24.2961 23.1564 24.7804 22.9356 25.3134C22.7148 25.8463 22.6012 26.4176 22.6012 26.9945C22.6012 27.5713 22.7148 28.1426 22.9356 28.6756C23.1564 29.2085 23.48 29.6928 23.8879 30.1007L33.2066 39.3757L23.8879 48.6507C23.4778 49.0574 23.1523 49.5413 22.9302 50.0744C22.7081 50.6076 22.5938 51.1794 22.5938 51.757C22.5938 52.3345 22.7081 52.9064 22.9302 53.4395C23.1523 53.9726 23.4778 54.4565 23.8879 54.8632C24.2967 55.2687 24.7815 55.5895 25.3145 55.8072C25.8476 56.0249 26.4183 56.1353 26.9941 56.132C27.5699 56.1353 28.1407 56.0249 28.6737 55.8072C29.2068 55.5895 29.6916 55.2687 30.1004 54.8632L39.3754 45.5445L48.6504 54.8632C49.0592 55.2687 49.544 55.5895 50.077 55.8072C50.6101 56.0249 51.1809 56.1353 51.7566 56.132C52.3324 56.1353 52.9032 56.0249 53.4362 55.8072C53.9692 55.5895 54.4541 55.2687 54.8629 54.8632C55.2729 54.4565 55.5984 53.9726 55.8205 53.4395C56.0426 52.9064 56.157 52.3345 56.157 51.757C56.157 51.1794 56.0426 50.6076 55.8205 50.0744C55.5984 49.5413 55.2729 49.0574 54.8629 48.6507L45.5441 39.3757Z" fill="#EEF6F6"/>
</svg>
