<svg width="28" height="24" viewBox="0 0 28 24" fill="none" xmlns="http://www.w3.org/2000/svg">
<path d="M11.9204 22.7824C7.25123 22.7824 4.41089 20.9341 3.46618 17.2738C3.38786 16.9703 3.32458 16.7022 3.26927 16.4628C3.17369 16.5535 3.0759 16.6283 2.9821 16.6849C2.5874 16.9212 2.09358 16.9672 1.62764 16.811C1.1732 16.6592 0.819212 16.3406 0.655933 15.938C0.275393 14.9964 0.652393 14.2603 1.13205 13.8853C1.70906 13.4335 2.48518 13.4116 3.06086 13.8297C3.07413 13.8395 3.08741 13.849 3.10024 13.8587C3.28564 12.9731 3.50335 12.2264 3.92017 11.3319C5.08038 8.84576 7.64947 6.90988 10.3137 6.51518C13.4824 6.04636 15.8868 6.84505 18.1179 9.10484C18.3068 9.29622 18.4781 9.50463 18.6294 9.68848C18.7546 9.8407 18.9303 10.054 19.0502 10.1604C19.0511 10.1588 19.052 10.1575 19.0528 10.156C19.1161 10.0659 19.1741 9.97234 19.2321 9.87942C19.4042 9.60441 19.5989 9.29268 19.9051 9.04444L20.0069 8.9617C20.0369 8.93714 20.0666 8.91324 20.0954 8.88957C19.3816 8.45637 18.671 7.83247 18.017 6.82979C17.1537 5.50652 15.9926 2.69075 17.7754 1.5062C18.1971 1.22611 18.6789 1.14889 19.1719 1.28253C20.0861 1.5312 20.81 2.43764 21.1825 3.20315C22.0901 5.06912 22.2835 6.7685 21.7777 8.50527C21.9865 8.58602 22.1972 8.66147 22.4105 8.73758C23.1153 8.98957 23.8446 9.2502 24.5543 9.72742C25.5499 10.3971 26.1451 11.4899 26.5791 12.2877C26.7083 12.5246 26.8336 12.7076 26.9548 12.8848C27.33 13.4337 27.6544 13.9078 27.4216 15.0725C26.9305 17.53 24.0123 17.4 22.9113 17.3535C22.5582 17.3336 22.0835 17.6247 21.9073 17.9686C21.7861 18.2053 21.8135 18.4225 21.995 18.6531C22.0498 18.723 22.2733 18.838 22.4361 18.9221C22.9087 19.1659 23.5561 19.5 23.6056 20.2398C23.6875 21.4549 22.6591 22.3474 21.618 22.508C20.6281 22.6603 19.5493 22.7704 18.3741 22.5452C17.2156 22.3244 16.7789 21.5872 16.4603 21.0492C16.3218 20.8146 16.2019 20.6124 16.0753 20.5443C15.9479 20.4761 15.8209 20.466 15.6988 20.5133C15.5638 20.5664 15.4523 20.6872 15.4005 20.8368C15.3846 20.8828 15.3974 21.0049 15.4081 21.1031C15.4364 21.3691 15.4789 21.7704 15.1864 22.1244C14.9072 22.4616 14.4116 22.6426 13.5801 22.7111C13.0036 22.7585 12.45 22.7824 11.9204 22.7824ZM3.97991 14.9906C4.11 15.3189 4.19673 15.6924 4.30071 16.1411C4.35912 16.3924 4.42505 16.6774 4.50957 17.0048C5.41092 20.496 8.42913 22.0536 13.4916 21.6368C14.22 21.577 14.3549 21.4381 14.3563 21.4368C14.3576 21.4164 14.3448 21.2965 14.3364 21.2169C14.3147 21.012 14.2877 20.7576 14.3819 20.4845C14.5381 20.0336 14.8749 19.6783 15.3063 19.5097C15.7244 19.3465 16.1784 19.3761 16.5842 19.5947C16.9758 19.8044 17.1851 20.158 17.3878 20.5C17.6599 20.9598 17.8949 21.3571 18.5758 21.4868C19.5343 21.6691 20.4197 21.6018 21.4538 21.443C21.9321 21.3695 22.5724 20.935 22.5304 20.312C22.5215 20.1788 22.1866 20.0062 21.9419 19.8801C21.6498 19.7292 21.348 19.5735 21.148 19.3195C20.7078 18.7597 20.6347 18.0876 20.9485 17.4765C21.3171 16.7583 22.1817 16.2477 22.9591 16.2765C25.1269 16.3729 26.1473 15.9486 26.365 14.8614C26.5088 14.1417 26.388 13.9651 26.065 13.493C25.9353 13.3032 25.788 13.0879 25.6331 12.8032C25.2304 12.064 24.7295 11.1441 23.9525 10.6217C23.3547 10.2197 22.7198 9.99269 22.0476 9.75242C21.7657 9.65176 21.4759 9.54799 21.1817 9.42786C20.9896 9.55087 20.8662 9.65154 20.6878 9.79689L20.5834 9.88185C20.417 10.0166 20.2914 10.2177 20.1462 10.4504C20.0781 10.5589 20.01 10.6677 19.9369 10.7728C19.7068 11.1027 19.4298 11.2761 19.1148 11.2887C18.5546 11.3069 18.194 10.8553 17.7975 10.3735C17.6537 10.1989 17.5055 10.0186 17.3506 9.86194C15.3594 7.84375 13.3005 7.1621 10.4717 7.58113C8.18709 7.91986 5.89456 9.64954 4.89719 11.7877C4.39408 12.8653 4.21443 13.6961 3.97991 14.9906ZM2.14624 14.6101C2.0157 14.6101 1.88959 14.661 1.79578 14.7344C1.57144 14.9092 1.52056 15.2008 1.65507 15.534C1.69844 15.6406 1.81879 15.7389 1.96968 15.7893C2.13473 15.8437 2.30642 15.8335 2.42766 15.7605C2.53341 15.6973 2.76085 15.4676 2.85422 15.134C2.75377 14.9733 2.62191 14.8428 2.42766 14.7017C2.33872 14.6371 2.24137 14.6101 2.14624 14.6101ZM18.7073 2.29649C18.5896 2.29649 18.4803 2.33189 18.3719 2.40401C17.378 3.06399 18.1803 5.10784 18.9197 6.24105C19.5082 7.14351 20.133 7.67538 20.7856 8.04619C21.1538 6.62912 20.9671 5.22377 20.2135 3.67462C19.8856 3.00159 19.3409 2.44539 18.8887 2.32237C18.8259 2.30512 18.7657 2.29649 18.7073 2.29649Z" fill="#333333" stroke="#333333" stroke-width="0.8"/>
</svg>
