<svg width="28" height="18" viewBox="0 0 28 18" fill="none" xmlns="http://www.w3.org/2000/svg">
<path d="M26.5517 0H1.44828C1.06417 0 0.695795 0.142232 0.42419 0.395406C0.152586 0.64858 0 0.991958 0 1.35V16.65C0 17.008 0.152586 17.3514 0.42419 17.6046C0.695795 17.8578 1.06417 18 1.44828 18H26.5517C26.9358 18 27.3042 17.8578 27.5758 17.6046C27.8474 17.3514 28 17.008 28 16.65V1.35C28 0.991958 27.8474 0.64858 27.5758 0.395406C27.3042 0.142232 26.9358 0 26.5517 0ZM0.965517 4.5H27.0345V5.4H0.965517V4.5ZM1.44828 0.9H26.5517C26.6798 0.9 26.8026 0.947411 26.8931 1.0318C26.9836 1.11619 27.0345 1.23065 27.0345 1.35V3.6H0.965517V1.35C0.965517 1.23065 1.01638 1.11619 1.10691 1.0318C1.19745 0.947411 1.32024 0.9 1.44828 0.9ZM26.5517 17.1H1.44828C1.32024 17.1 1.19745 17.0526 1.10691 16.9682C1.01638 16.8838 0.965517 16.7693 0.965517 16.65V6.3H27.0345V16.65C27.0345 16.7693 26.9836 16.8838 26.8931 16.9682C26.8026 17.0526 26.6798 17.1 26.5517 17.1Z" fill="#A4A4A4" fill-opacity="0.5"/>
</svg>
