<svg width="20" height="22" viewBox="0 0 20 22" fill="none" xmlns="http://www.w3.org/2000/svg">
<path d="M15.2461 2.63855H14.487V1.47271C14.487 1.34734 14.4378 1.2271 14.3503 1.13845C14.2628 1.0498 14.1441 1 14.0203 1C13.8966 1 13.7779 1.0498 13.6904 1.13845C13.6029 1.2271 13.5537 1.34734 13.5537 1.47271V2.63855H6.29527V1.47271C6.29527 1.34734 6.24611 1.2271 6.1586 1.13845C6.07109 1.0498 5.95241 1 5.82866 1C5.7049 1 5.58622 1.0498 5.49871 1.13845C5.4112 1.2271 5.36204 1.34734 5.36204 1.47271V2.63855H4.62884C3.63364 2.63971 2.67953 3.04072 1.97581 3.7536C1.27208 4.46648 0.876198 5.43303 0.875 6.44122V17.1973C0.876203 18.2055 1.27209 19.1721 1.97581 19.885C2.67954 20.5978 3.63364 20.9988 4.62884 21H15.2461C16.2413 20.9988 17.1954 20.5978 17.8992 19.885C18.6029 19.1721 18.9988 18.2055 19 17.1973V6.44122C18.9988 5.43303 18.6029 4.46647 17.8992 3.75359C17.1954 3.04071 16.2413 2.6397 15.2461 2.63855ZM4.62888 3.58396H5.36207V4.53838C5.36207 4.66375 5.41123 4.78398 5.49873 4.87263C5.58624 4.96128 5.70493 5.01108 5.82868 5.01108C5.95243 5.01108 6.07112 4.96128 6.15862 4.87263C6.24613 4.78398 6.29529 4.66375 6.29529 4.53838V3.58398H13.5537V4.5384C13.5537 4.66377 13.6029 4.784 13.6904 4.87265C13.7779 4.9613 13.8966 5.01111 14.0203 5.01111C14.1441 5.01111 14.2628 4.9613 14.3503 4.87265C14.4378 4.784 14.487 4.66377 14.487 4.5384V3.58401H15.2461C15.9939 3.58484 16.7108 3.88613 17.2396 4.42178C17.7684 4.95742 18.0659 5.68368 18.0668 6.44122V8.13562H1.80822V6.44122C1.8091 5.68367 2.10656 4.9574 2.63534 4.42175C3.16412 3.88609 3.88105 3.5848 4.62884 3.58396H4.62888ZM15.2461 20.0546H4.62884C3.88105 20.0538 3.16412 19.7525 2.63533 19.2168C2.10655 18.6812 1.80908 17.9549 1.8082 17.1973V9.08102H18.0668V17.1973C18.0659 17.9549 17.7684 18.6812 17.2396 19.2168C16.7108 19.7525 15.9939 20.0537 15.2461 20.0546Z" fill="#3D857E" stroke="#3D857E" stroke-width="0.7"/>
</svg>
