<svg width="18" height="4" viewBox="0 0 18 4" fill="none" xmlns="http://www.w3.org/2000/svg">
<path d="M15.9042 1.00453C15.375 1.00453 14.8422 1.00453 14.3131 1.00453C13.0395 1.00453 12.4958 1.00453 11.2186 1.00453C9.68229 1.00453 8.14598 1.00453 6.61332 1.00453C5.27406 1.00453 5.39814 1.00453 4.05888 1.00453C3.41298 1.00453 2.76707 0.994335 2.12481 1.00453C2.11386 1.00453 2.10657 1.00453 2.09562 1.00453C1.52269 1.00453 0.975316 1.3563 1.00086 1.76926C1.0264 2.18476 1.48255 2.53398 2.09562 2.53398C2.62475 2.53398 3.15753 2.53398 3.68667 2.53398C4.96023 2.53398 4.77413 2.53398 6.05134 2.53398C7.58765 2.53398 9.12396 2.53398 10.6566 2.53398C11.9959 2.53398 12.6016 2.53398 13.9409 2.53398C14.5868 2.53398 15.2327 2.54418 15.875 2.53398C15.8859 2.53398 15.8932 2.53398 15.9042 2.53398C16.4771 2.53398 17.0245 2.18221 16.9989 1.76926C16.9734 1.35376 16.5172 1.00453 15.9042 1.00453Z" fill="#40857E" stroke="#40857E"/>
</svg>
