<svg width="53" height="53" viewBox="0 0 53 53" fill="none" xmlns="http://www.w3.org/2000/svg">
<circle cx="26.2083" cy="26.7904" r="25.9583" fill="white"/>
<path fill-rule="evenodd" clip-rule="evenodd" d="M30.7902 17.6577H37.9102C38.1698 17.6659 38.4166 17.7727 38.6003 17.9564C38.784 18.1401 38.8908 18.3869 38.8991 18.6465C38.8991 18.9088 38.7949 19.1603 38.6094 19.3458C38.424 19.5312 38.1725 19.6354 37.9102 19.6354H36.1961V35.0621C36.2005 35.7559 36.0671 36.4437 35.8036 37.0856C35.5401 37.7274 35.1517 38.3106 34.6611 38.8012C34.1705 39.2918 33.5874 39.6801 32.9455 39.9436C32.3036 40.2071 31.6159 40.3406 30.922 40.3362H21.5276C20.1288 40.3362 18.7873 39.7805 17.7982 38.7914C16.8092 37.8024 16.2535 36.4609 16.2535 35.0621V19.6354H14.5065C14.2442 19.6354 13.9927 19.5312 13.8072 19.3458C13.6218 19.1603 13.5176 18.9088 13.5176 18.6465C13.5258 18.3869 13.6327 18.1401 13.8164 17.9564C14.0001 17.7727 14.2468 17.6659 14.5065 17.6577H21.6265V16.7347C21.6265 16.0353 21.9043 15.3646 22.3988 14.87C22.8934 14.3755 23.5641 14.0977 24.2635 14.0977H28.1531C28.8525 14.0977 29.5233 14.3755 30.0178 14.87C30.5124 15.3646 30.7902 16.0353 30.7902 16.7347V17.6577ZM23.7973 16.2685C23.6737 16.3922 23.6043 16.5598 23.6043 16.7347V17.6577H28.8124V16.7347C28.8124 16.5598 28.7429 16.3922 28.6193 16.2685C28.4957 16.1449 28.328 16.0754 28.1531 16.0754H24.2635C24.0887 16.0754 23.921 16.1449 23.7973 16.2685ZM33.9674 36.3235C34.1331 35.9236 34.2183 35.495 34.2183 35.0621V19.6354H18.2313V35.0621C18.2313 35.495 18.3165 35.9236 18.4822 36.3235C18.6479 36.7235 18.8907 37.0869 19.1967 37.3929C19.5028 37.699 19.8662 37.9418 20.2661 38.1075C20.6661 38.2731 21.0947 38.3584 21.5276 38.3584H30.922C31.3549 38.3584 31.7835 38.2731 32.1835 38.1075C32.5834 37.9418 32.9468 37.699 33.2529 37.3929C33.559 37.0869 33.8018 36.7235 33.9674 36.3235ZM22.3921 34.9373C22.2066 35.1228 21.9551 35.227 21.6928 35.227C21.4332 35.2187 21.1864 35.1119 21.0027 34.9282C20.819 34.7445 20.7122 34.4977 20.7039 34.2381V23.0307C20.7039 22.7684 20.8081 22.5169 20.9936 22.3314C21.179 22.146 21.4306 22.0418 21.6928 22.0418C21.8239 22.0372 21.9546 22.0596 22.0766 22.1077C22.1987 22.1557 22.3096 22.2284 22.4023 22.3212C22.4951 22.4139 22.5678 22.5248 22.6158 22.6469C22.6639 22.7689 22.6863 22.8996 22.6817 23.0307V34.2381C22.6817 34.5003 22.5775 34.7519 22.3921 34.9373ZM26.2078 35.2269C26.47 35.2269 26.7216 35.1227 26.907 34.9373C27.0925 34.7518 27.1966 34.5003 27.1966 34.238V23.0306C27.1966 22.7683 27.0925 22.5168 26.907 22.3314C26.7216 22.1459 26.47 22.0417 26.2078 22.0417C25.9455 22.0417 25.694 22.1459 25.5085 22.3314C25.3231 22.5168 25.2189 22.7683 25.2189 23.0306V34.238C25.2189 34.5003 25.3231 34.7518 25.5085 34.9373C25.694 35.1227 25.9455 35.2269 26.2078 35.2269ZM31.414 34.9282C31.2304 35.1119 30.9836 35.2187 30.7239 35.227C30.4617 35.227 30.2101 35.1228 30.0247 34.9373C29.8392 34.7519 29.735 34.5003 29.735 34.2381V23.0307C29.7304 22.8996 29.7529 22.7689 29.8009 22.6469C29.849 22.5248 29.9217 22.4139 30.0144 22.3212C30.1072 22.2284 30.2181 22.1557 30.3401 22.1077C30.4622 22.0596 30.5928 22.0372 30.7239 22.0418C30.9862 22.0418 31.2377 22.146 31.4232 22.3314C31.6086 22.5169 31.7128 22.7684 31.7128 23.0307V34.2381C31.7046 34.4977 31.5977 34.7445 31.414 34.9282Z" fill="#40857E"/>
<path d="M37.9102 17.6577L37.9134 17.5577H37.9102V17.6577ZM30.7902 17.6577H30.6902V17.7577H30.7902V17.6577ZM38.8991 18.6465H38.9991L38.999 18.6434L38.8991 18.6465ZM38.6094 19.3458L38.6801 19.4165L38.6094 19.3458ZM36.1961 19.6354V19.5354H36.0961V19.6354H36.1961ZM36.1961 35.0621H36.0961L36.0961 35.0627L36.1961 35.0621ZM34.6611 38.8012L34.7318 38.8719L34.6611 38.8012ZM32.9455 39.9436L32.9075 39.8511L32.9455 39.9436ZM30.922 40.3362L30.9227 40.2362H30.922V40.3362ZM17.7982 38.7914L17.7275 38.8622L17.7982 38.7914ZM16.2535 19.6354H16.3535V19.5354H16.2535V19.6354ZM13.8072 19.3458L13.8779 19.2751H13.8779L13.8072 19.3458ZM13.5176 18.6465L13.4176 18.6434V18.6465H13.5176ZM13.8164 17.9564L13.8871 18.0271L13.8164 17.9564ZM14.5065 17.6577V17.5576L14.5033 17.5577L14.5065 17.6577ZM21.6265 17.6577V17.7577H21.7265V17.6577H21.6265ZM22.3988 14.87L22.3281 14.7993L22.3281 14.7993L22.3988 14.87ZM30.0178 14.87L29.9471 14.9407L30.0178 14.87ZM23.7973 16.2685L23.8681 16.3392H23.8681L23.7973 16.2685ZM23.6043 17.6577H23.5043V17.7577H23.6043V17.6577ZM28.8124 17.6577V17.7577H28.9124V17.6577H28.8124ZM28.6193 16.2685L28.5486 16.3392H28.5486L28.6193 16.2685ZM33.9674 36.3235L34.0598 36.3618L33.9674 36.3235ZM34.2183 19.6354H34.3183V19.5354H34.2183V19.6354ZM18.2313 19.6354V19.5354H18.1313V19.6354H18.2313ZM19.1967 37.3929L19.126 37.4637L19.1967 37.3929ZM20.2661 38.1075L20.3044 38.0151H20.3044L20.2661 38.1075ZM32.1835 38.1075L32.1452 38.0151L32.1835 38.1075ZM33.2529 37.3929L33.1822 37.3222L33.2529 37.3929ZM21.6928 35.227L21.6896 35.327H21.6928V35.227ZM22.3921 34.9373L22.3214 34.8666H22.3214L22.3921 34.9373ZM20.7039 34.2381H20.6039L20.604 34.2413L20.7039 34.2381ZM20.9936 22.3314L21.0643 22.4021V22.4021L20.9936 22.3314ZM21.6928 22.0418V22.1418L21.6963 22.1417L21.6928 22.0418ZM22.0766 22.1077L22.04 22.2007H22.04L22.0766 22.1077ZM22.6158 22.6469L22.7089 22.6102V22.6102L22.6158 22.6469ZM22.6817 23.0307L22.5817 23.0272V23.0307H22.6817ZM26.907 34.9373L26.8363 34.8666L26.907 34.9373ZM26.907 22.3314L26.9777 22.2606V22.2606L26.907 22.3314ZM25.5085 34.9373L25.5792 34.8666H25.5792L25.5085 34.9373ZM30.7239 35.227V35.327L30.7271 35.3269L30.7239 35.227ZM30.0247 34.9373L30.0954 34.8666L30.0247 34.9373ZM29.735 23.0307H29.8351L29.835 23.0272L29.735 23.0307ZM30.0144 22.3212L29.9437 22.2505V22.2505L30.0144 22.3212ZM30.3401 22.1077L30.3768 22.2007L30.3401 22.1077ZM30.7239 22.0418L30.7204 22.1418H30.7239V22.0418ZM31.4232 22.3314L31.3525 22.4021L31.4232 22.3314ZM31.7128 34.2381L31.8128 34.2413V34.2381H31.7128ZM37.9102 17.5577H30.7902V17.7577H37.9102V17.5577ZM38.671 17.8857C38.4693 17.6841 38.1984 17.5668 37.9134 17.5577L37.907 17.7576C38.1413 17.765 38.3639 17.8614 38.5296 18.0271L38.671 17.8857ZM38.999 18.6434C38.99 18.3583 38.8727 18.0874 38.671 17.8857L38.5296 18.0271C38.6953 18.1929 38.7917 18.4155 38.7991 18.6497L38.999 18.6434ZM38.6801 19.4165C38.8844 19.2123 38.9991 18.9353 38.9991 18.6465H38.7991C38.7991 18.8823 38.7054 19.1084 38.5387 19.2751L38.6801 19.4165ZM37.9102 19.7354C38.199 19.7354 38.4759 19.6207 38.6801 19.4165L38.5387 19.2751C38.372 19.4418 38.1459 19.5354 37.9102 19.5354V19.7354ZM36.1961 19.7354H37.9102V19.5354H36.1961V19.7354ZM36.2961 35.0621V19.6354H36.0961V35.0621H36.2961ZM35.8961 37.1236C36.1646 36.4695 36.3006 35.7685 36.2961 35.0615L36.0961 35.0627C36.1004 35.7433 35.9695 36.418 35.7111 37.0476L35.8961 37.1236ZM34.7318 38.8719C35.2318 38.3719 35.6275 37.7777 35.8961 37.1236L35.7111 37.0476C35.4526 37.6772 35.0717 38.2492 34.5904 38.7305L34.7318 38.8719ZM32.9835 40.0361C33.6376 39.7676 34.2319 39.3719 34.7318 38.8719L34.5904 38.7305C34.1092 39.2117 33.5371 39.5927 32.9075 39.8511L32.9835 40.0361ZM30.9214 40.4362C31.6285 40.4406 32.3294 40.3047 32.9835 40.0361L32.9075 39.8511C32.2779 40.1096 31.6033 40.2405 30.9227 40.2362L30.9214 40.4362ZM21.5276 40.4362H30.922V40.2362H21.5276V40.4362ZM17.7275 38.8622C18.7354 39.87 20.1023 40.4362 21.5276 40.4362V40.2362C20.1553 40.2362 18.8393 39.6911 17.869 38.7207L17.7275 38.8622ZM16.1535 35.0621C16.1535 36.4874 16.7197 37.8543 17.7275 38.8622L17.869 38.7207C16.8986 37.7504 16.3535 36.4344 16.3535 35.0621H16.1535ZM16.1535 19.6354V35.0621H16.3535V19.6354H16.1535ZM14.5065 19.7354H16.2535V19.5354H14.5065V19.7354ZM13.7365 19.4165C13.9407 19.6207 14.2177 19.7354 14.5065 19.7354V19.5354C14.2707 19.5354 14.0446 19.4418 13.8779 19.2751L13.7365 19.4165ZM13.4176 18.6465C13.4176 18.9353 13.5323 19.2123 13.7365 19.4165L13.8779 19.2751C13.7112 19.1084 13.6176 18.8823 13.6176 18.6465H13.4176ZM13.7456 17.8857C13.544 18.0874 13.4267 18.3583 13.4176 18.6434L13.6175 18.6497C13.625 18.4155 13.7213 18.1929 13.8871 18.0271L13.7456 17.8857ZM14.5033 17.5577C14.2182 17.5668 13.9473 17.6841 13.7456 17.8857L13.8871 18.0271C14.0528 17.8614 14.2754 17.765 14.5096 17.7576L14.5033 17.5577ZM21.6265 17.5577H14.5065V17.7577H21.6265V17.5577ZM21.5265 16.7347V17.6577H21.7265V16.7347H21.5265ZM22.3281 14.7993C21.8148 15.3126 21.5265 16.0088 21.5265 16.7347H21.7265C21.7265 16.0618 21.9938 15.4165 22.4696 14.9407L22.3281 14.7993ZM24.2635 13.9977C23.5376 13.9977 22.8414 14.286 22.3281 14.7993L22.4696 14.9407C22.9453 14.465 23.5906 14.1977 24.2635 14.1977V13.9977ZM28.1531 13.9977H24.2635V14.1977H28.1531V13.9977ZM30.0885 14.7993C29.5752 14.286 28.8791 13.9977 28.1531 13.9977V14.1977C28.826 14.1977 29.4713 14.465 29.9471 14.9407L30.0885 14.7993ZM30.8902 16.7347C30.8902 16.0088 30.6018 15.3126 30.0885 14.7993L29.9471 14.9407C30.4229 15.4165 30.6902 16.0618 30.6902 16.7347H30.8902ZM30.8902 17.6577V16.7347H30.6902V17.6577H30.8902ZM23.7043 16.7347C23.7043 16.5864 23.7632 16.4441 23.8681 16.3392L23.7266 16.1978C23.5842 16.3402 23.5043 16.5333 23.5043 16.7347H23.7043ZM23.7043 17.6577V16.7347H23.5043V17.6577H23.7043ZM28.8124 17.5577H23.6043V17.7577H28.8124V17.5577ZM28.7124 16.7347V17.6577H28.9124V16.7347H28.7124ZM28.5486 16.3392C28.6535 16.4441 28.7124 16.5864 28.7124 16.7347H28.9124C28.9124 16.5333 28.8324 16.3402 28.69 16.1978L28.5486 16.3392ZM28.1531 16.1754C28.3015 16.1754 28.4437 16.2344 28.5486 16.3392L28.69 16.1978C28.5476 16.0554 28.3545 15.9754 28.1531 15.9754V16.1754ZM24.2635 16.1754H28.1531V15.9754H24.2635V16.1754ZM23.8681 16.3392C23.9729 16.2344 24.1152 16.1754 24.2635 16.1754V15.9754C24.0621 15.9754 23.869 16.0554 23.7266 16.1978L23.8681 16.3392ZM34.1183 35.0621C34.1183 35.4819 34.0357 35.8975 33.875 36.2853L34.0598 36.3618C34.2305 35.9498 34.3183 35.5081 34.3183 35.0621H34.1183ZM34.1183 19.6354V35.0621H34.3183V19.6354H34.1183ZM18.2313 19.7354H34.2183V19.5354H18.2313V19.7354ZM18.3313 35.0621V19.6354H18.1313V35.0621H18.3313ZM18.5746 36.2853C18.414 35.8975 18.3313 35.4819 18.3313 35.0621H18.1313C18.1313 35.5081 18.2191 35.9498 18.3898 36.3618L18.5746 36.2853ZM19.2675 37.3222C18.9707 37.0254 18.7352 36.6731 18.5746 36.2853L18.3898 36.3618C18.5605 36.7739 18.8107 37.1483 19.126 37.4637L19.2675 37.3222ZM20.3044 38.0151C19.9166 37.8545 19.5643 37.619 19.2675 37.3222L19.126 37.4637C19.4414 37.779 19.8158 38.0292 20.2279 38.1999L20.3044 38.0151ZM21.5276 38.2584C21.1078 38.2584 20.6922 38.1757 20.3044 38.0151L20.2279 38.1999C20.6399 38.3706 21.0816 38.4584 21.5276 38.4584V38.2584ZM30.922 38.2584H21.5276V38.4584H30.922V38.2584ZM32.1452 38.0151C31.7574 38.1757 31.3418 38.2584 30.922 38.2584V38.4584C31.368 38.4584 31.8097 38.3706 32.2217 38.1999L32.1452 38.0151ZM33.1822 37.3222C32.8854 37.619 32.533 37.8545 32.1452 38.0151L32.2217 38.1999C32.6338 38.0292 33.0082 37.779 33.3236 37.4637L33.1822 37.3222ZM33.875 36.2853C33.7144 36.6731 33.479 37.0254 33.1822 37.3222L33.3236 37.4637C33.639 37.1483 33.8891 36.7739 34.0598 36.3618L33.875 36.2853ZM21.6928 35.327C21.9816 35.327 22.2586 35.2122 22.4628 35.008L22.3214 34.8666C22.1547 35.0333 21.9286 35.127 21.6928 35.127V35.327ZM20.932 34.9989C21.1337 35.2006 21.4046 35.3179 21.6896 35.3269L21.696 35.127C21.4618 35.1196 21.2391 35.0232 21.0734 34.8575L20.932 34.9989ZM20.604 34.2413C20.613 34.5263 20.7303 34.7972 20.932 34.9989L21.0734 34.8575C20.9077 34.6918 20.8113 34.4691 20.8039 34.2349L20.604 34.2413ZM20.6039 23.0307V34.2381H20.8039V23.0307H20.6039ZM20.9229 22.2607C20.7187 22.4649 20.6039 22.7419 20.6039 23.0307H20.8039C20.8039 22.7949 20.8976 22.5688 21.0643 22.4021L20.9229 22.2607ZM21.6928 21.9418C21.404 21.9418 21.1271 22.0565 20.9229 22.2607L21.0643 22.4021C21.231 22.2354 21.4571 22.1418 21.6928 22.1418V21.9418ZM22.1133 22.0146C21.9784 21.9615 21.8341 21.9367 21.6893 21.9418L21.6963 22.1417C21.8137 22.1376 21.9307 22.1577 22.04 22.2007L22.1133 22.0146ZM22.473 22.2505C22.3706 22.148 22.2481 22.0677 22.1133 22.0146L22.04 22.2007C22.1493 22.2437 22.2486 22.3088 22.3316 22.3919L22.473 22.2505ZM22.7089 22.6102C22.6558 22.4754 22.5755 22.3529 22.473 22.2505L22.3316 22.3919C22.4147 22.4749 22.4797 22.5742 22.5228 22.6835L22.7089 22.6102ZM22.7817 23.0342C22.7867 22.8894 22.762 22.745 22.7089 22.6102L22.5228 22.6835C22.5658 22.7928 22.5859 22.9098 22.5818 23.0272L22.7817 23.0342ZM22.7817 34.2381V23.0307H22.5817V34.2381H22.7817ZM22.4628 35.008C22.667 34.8038 22.7817 34.5269 22.7817 34.2381H22.5817C22.5817 34.4738 22.4881 34.6999 22.3214 34.8666L22.4628 35.008ZM26.8363 34.8666C26.6696 35.0333 26.4435 35.1269 26.2078 35.1269V35.3269C26.4965 35.3269 26.7735 35.2122 26.9777 35.008L26.8363 34.8666ZM27.0966 34.238C27.0966 34.4738 27.003 34.6999 26.8363 34.8666L26.9777 35.008C27.1819 34.8038 27.2966 34.5268 27.2966 34.238H27.0966ZM27.0966 23.0306V34.238H27.2966V23.0306H27.0966ZM26.8363 22.4021C27.003 22.5688 27.0966 22.7949 27.0966 23.0306H27.2966C27.2966 22.7418 27.1819 22.4649 26.9777 22.2606L26.8363 22.4021ZM26.2078 22.1417C26.4435 22.1417 26.6696 22.2354 26.8363 22.4021L26.9777 22.2606C26.7735 22.0564 26.4965 21.9417 26.2078 21.9417V22.1417ZM25.5792 22.4021C25.7459 22.2354 25.972 22.1417 26.2078 22.1417V21.9417C25.919 21.9417 25.642 22.0564 25.4378 22.2606L25.5792 22.4021ZM25.3189 23.0306C25.3189 22.7949 25.4125 22.5688 25.5792 22.4021L25.4378 22.2606C25.2336 22.4649 25.1189 22.7418 25.1189 23.0306H25.3189ZM25.3189 34.238V23.0306H25.1189V34.238H25.3189ZM25.5792 34.8666C25.4125 34.6999 25.3189 34.4738 25.3189 34.238H25.1189C25.1189 34.5268 25.2336 34.8038 25.4378 35.008L25.5792 34.8666ZM26.2078 35.1269C25.972 35.1269 25.7459 35.0333 25.5792 34.8666L25.4378 35.008C25.642 35.2122 25.919 35.3269 26.2078 35.3269V35.1269ZM30.7271 35.3269C31.0122 35.3179 31.2831 35.2006 31.4848 34.9989L31.3433 34.8575C31.1776 35.0232 30.955 35.1196 30.7208 35.127L30.7271 35.3269ZM29.954 35.008C30.1582 35.2122 30.4351 35.327 30.7239 35.327V35.127C30.4882 35.127 30.2621 35.0333 30.0954 34.8666L29.954 35.008ZM29.635 34.2381C29.635 34.5269 29.7498 34.8038 29.954 35.008L30.0954 34.8666C29.9287 34.6999 29.835 34.4738 29.835 34.2381H29.635ZM29.635 23.0307V34.2381H29.835V23.0307H29.635ZM29.7079 22.6102C29.6548 22.745 29.63 22.8894 29.6351 23.0342L29.835 23.0272C29.8309 22.9098 29.8509 22.7928 29.894 22.6835L29.7079 22.6102ZM29.9437 22.2505C29.8413 22.3529 29.761 22.4754 29.7079 22.6102L29.894 22.6835C29.937 22.5742 30.0021 22.4749 30.0851 22.3919L29.9437 22.2505ZM30.3035 22.0146C30.1687 22.0677 30.0462 22.148 29.9437 22.2505L30.0851 22.3919C30.1682 22.3088 30.2675 22.2437 30.3768 22.2007L30.3035 22.0146ZM30.7274 21.9418C30.5826 21.9367 30.4383 21.9615 30.3035 22.0146L30.3768 22.2007C30.4861 22.1577 30.603 22.1376 30.7204 22.1417L30.7274 21.9418ZM31.4939 22.2607C31.2897 22.0565 31.0127 21.9418 30.7239 21.9418V22.1418C30.9597 22.1418 31.1858 22.2354 31.3525 22.4021L31.4939 22.2607ZM31.8128 23.0307C31.8128 22.7419 31.6981 22.4649 31.4939 22.2607L31.3525 22.4021C31.5192 22.5688 31.6128 22.7949 31.6128 23.0307H31.8128ZM31.8128 34.2381V23.0307H31.6128V34.2381H31.8128ZM31.4848 34.9989C31.6864 34.7972 31.8037 34.5263 31.8128 34.2413L31.6129 34.2349C31.6054 34.4691 31.5091 34.6918 31.3433 34.8575L31.4848 34.9989Z" fill="#40857E"/>
</svg>
