<svg width="28" height="28" viewBox="0 0 28 28" fill="none" xmlns="http://www.w3.org/2000/svg">
<path fill-rule="evenodd" clip-rule="evenodd" d="M17.7062 6.61437H23.4662C23.6763 6.62105 23.8759 6.70748 24.0245 6.85608C24.1731 7.00469 24.2596 7.20432 24.2662 7.41437C24.2662 7.62655 24.182 7.83003 24.0319 7.98006C23.8819 8.13009 23.6784 8.21437 23.4662 8.21437H22.0796V20.6944C22.0831 21.2557 21.9752 21.8121 21.762 22.3313C21.5488 22.8506 21.2347 23.3223 20.8378 23.7193C20.4409 24.1162 19.9691 24.4303 19.4499 24.6435C18.9306 24.8566 18.3742 24.9646 17.8129 24.961H10.2129C9.08132 24.961 7.99608 24.5115 7.19592 23.7114C6.39577 22.9112 5.94624 21.826 5.94624 20.6944V8.21437H4.53291C4.32074 8.21437 4.11725 8.13009 3.96722 7.98006C3.8172 7.83003 3.73291 7.62655 3.73291 7.41437C3.73958 7.20432 3.82601 7.00469 3.97462 6.85608C4.12323 6.70748 4.32285 6.62105 4.53291 6.61437H10.2929V5.86771C10.2929 5.30191 10.5177 4.75929 10.9177 4.35921C11.3178 3.95914 11.8604 3.73438 12.4262 3.73438H15.5729C16.1387 3.73438 16.6813 3.95914 17.0814 4.35921C17.4815 4.75929 17.7062 5.30191 17.7062 5.86771V6.61437ZM12.0491 5.49058C11.9491 5.5906 11.8929 5.72626 11.8929 5.86771V6.61437H16.1062V5.86771C16.1062 5.72626 16.0501 5.5906 15.95 5.49058C15.85 5.39056 15.7144 5.33437 15.5729 5.33437H12.4262C12.2848 5.33437 12.1491 5.39056 12.0491 5.49058ZM20.2766 21.7149C20.4106 21.3913 20.4796 21.0446 20.4796 20.6944V8.21437H7.54624V20.6944C7.54624 21.0446 7.61522 21.3913 7.74923 21.7149C7.88324 22.0384 8.07967 22.3324 8.32729 22.58C8.57491 22.8276 8.86889 23.024 9.19242 23.158C9.51596 23.2921 9.86272 23.361 10.2129 23.361H17.8129C18.1631 23.361 18.5099 23.2921 18.8334 23.158C19.1569 23.024 19.4509 22.8276 19.6985 22.58C19.9462 22.3324 20.1426 22.0384 20.2766 21.7149ZM10.912 20.5934C10.762 20.7434 10.5585 20.8277 10.3464 20.8277C10.1363 20.821 9.93667 20.7346 9.78806 20.586C9.63946 20.4374 9.55303 20.2378 9.54635 20.0277V10.961C9.54635 10.7489 9.63064 10.5454 9.78067 10.3954C9.9307 10.2453 10.1342 10.161 10.3464 10.161C10.4524 10.1573 10.5581 10.1755 10.6569 10.2143C10.7556 10.2532 10.8453 10.312 10.9203 10.3871C10.9954 10.4621 11.0542 10.5518 11.093 10.6505C11.1319 10.7493 11.1501 10.855 11.1464 10.961V20.0277C11.1464 20.2399 11.0621 20.4434 10.912 20.5934ZM13.9994 20.8277C14.2116 20.8277 14.4151 20.7434 14.5651 20.5934C14.7152 20.4434 14.7994 20.2399 14.7994 20.0277V10.961C14.7994 10.7489 14.7152 10.5454 14.5651 10.3954C14.4151 10.2453 14.2116 10.161 13.9994 10.161C13.7873 10.161 13.5838 10.2453 13.4338 10.3954C13.2837 10.5454 13.1994 10.7489 13.1994 10.961V20.0277C13.1994 20.2399 13.2837 20.4434 13.4338 20.5934C13.5838 20.7434 13.7873 20.8277 13.9994 20.8277ZM18.211 20.586C18.0624 20.7346 17.8628 20.821 17.6528 20.8277C17.4406 20.8277 17.2371 20.7434 17.0871 20.5934C16.937 20.4434 16.8528 20.2399 16.8528 20.0277V10.961C16.849 10.855 16.8672 10.7493 16.9061 10.6505C16.9449 10.5518 17.0037 10.4621 17.0788 10.3871C17.1538 10.312 17.2435 10.2532 17.3423 10.2143C17.441 10.1755 17.5467 10.1573 17.6528 10.161C17.8649 10.161 18.0684 10.2453 18.2184 10.3954C18.3685 10.5454 18.4528 10.7489 18.4528 10.961V20.0277C18.4461 20.2378 18.3597 20.4374 18.211 20.586Z" fill="#F44336"/>
<path d="M23.4662 6.61437L23.4694 6.51437H23.4662V6.61437ZM17.7062 6.61437H17.6062V6.71437H17.7062V6.61437ZM24.0245 6.85608L24.0952 6.78537V6.78537L24.0245 6.85608ZM24.2662 7.41437H24.3663L24.3662 7.4112L24.2662 7.41437ZM24.0319 7.98006L24.1026 8.05077V8.05077L24.0319 7.98006ZM22.0796 8.21437V8.11437H21.9796V8.21437H22.0796ZM22.0796 20.6944H21.9796L21.9796 20.695L22.0796 20.6944ZM21.762 22.3313L21.6695 22.2934L21.762 22.3313ZM20.8378 23.7193L20.9085 23.79L20.8378 23.7193ZM19.4499 24.6435L19.4879 24.736L19.4499 24.6435ZM17.8129 24.961L17.8135 24.861H17.8129V24.961ZM7.19592 23.7114L7.12521 23.7821L7.19592 23.7114ZM5.94624 8.21437H6.04624V8.11437H5.94624V8.21437ZM3.96722 7.98006L4.03794 7.90935H4.03794L3.96722 7.98006ZM3.73291 7.41437L3.63291 7.4112V7.41437H3.73291ZM3.97462 6.85608L3.90391 6.78537H3.90391L3.97462 6.85608ZM4.53291 6.61437V6.51432L4.52973 6.51442L4.53291 6.61437ZM10.2929 6.61437V6.71437H10.3929V6.61437H10.2929ZM10.9177 4.35921L10.9885 4.42992L10.9177 4.35921ZM17.0814 4.35921L17.1521 4.2885L17.1521 4.2885L17.0814 4.35921ZM11.8929 6.61437H11.7929V6.71437H11.8929V6.61437ZM16.1062 6.61437V6.71437H16.2062V6.61437H16.1062ZM20.4796 8.21437H20.5796V8.11437H20.4796V8.21437ZM7.54624 8.21437V8.11437H7.44624V8.21437H7.54624ZM7.74923 21.7149L7.84162 21.6766H7.84162L7.74923 21.7149ZM8.32729 22.58L8.398 22.5093L8.32729 22.58ZM9.19242 23.158L9.23069 23.0657L9.19242 23.158ZM19.6985 22.58L19.6278 22.5093H19.6278L19.6985 22.58ZM10.3464 20.8277L10.3432 20.9277H10.3464V20.8277ZM10.912 20.5934L10.8413 20.5227H10.8413L10.912 20.5934ZM9.78806 20.586L9.71735 20.6567L9.78806 20.586ZM9.54635 20.0277H9.4463L9.4464 20.0309L9.54635 20.0277ZM10.3464 10.161V10.2611L10.3499 10.261L10.3464 10.161ZM10.6569 10.2143L10.6202 10.3074H10.6202L10.6569 10.2143ZM11.093 10.6505L11.1861 10.6139V10.6139L11.093 10.6505ZM11.1464 10.961L11.0464 10.9575V10.961H11.1464ZM14.5651 20.5934L14.4944 20.5227L14.5651 20.5934ZM14.5651 10.3954L14.6358 10.3246L14.5651 10.3954ZM13.4338 10.3954L13.3631 10.3246L13.4338 10.3954ZM13.4338 20.5934L13.5045 20.5227L13.4338 20.5934ZM17.6528 20.8277V20.9278L17.6559 20.9277L17.6528 20.8277ZM18.211 20.586L18.1403 20.5153L18.211 20.586ZM17.0871 20.5934L17.1578 20.5227H17.1578L17.0871 20.5934ZM16.8528 10.961H16.9528L16.9527 10.9575L16.8528 10.961ZM16.9061 10.6505L16.813 10.6139V10.6139L16.9061 10.6505ZM17.0788 10.3871L17.1495 10.4578L17.0788 10.3871ZM17.3423 10.2143L17.3789 10.3074V10.3074L17.3423 10.2143ZM17.6528 10.161L17.6492 10.261H17.6528V10.161ZM18.4528 20.0277L18.5528 20.0309V20.0277H18.4528ZM23.4662 6.51437H17.7062V6.71437H23.4662V6.51437ZM24.0952 6.78537C23.9287 6.61879 23.7049 6.5219 23.4694 6.51442L23.4631 6.71432C23.6477 6.72019 23.8232 6.79616 23.9538 6.92679L24.0952 6.78537ZM24.3662 7.4112C24.3587 7.17573 24.2618 6.95196 24.0952 6.78537L23.9538 6.92679C24.0845 7.05742 24.1604 7.2329 24.1663 7.41755L24.3662 7.4112ZM24.1026 8.05077C24.2714 7.88199 24.3662 7.65307 24.3662 7.41437H24.1662C24.1662 7.60002 24.0925 7.77807 23.9612 7.90935L24.1026 8.05077ZM23.4662 8.31437C23.7049 8.31437 23.9339 8.21955 24.1026 8.05077L23.9612 7.90935C23.8299 8.04062 23.6519 8.11437 23.4662 8.11437V8.31437ZM22.0796 8.31437H23.4662V8.11437H22.0796V8.31437ZM22.1796 20.6944V8.21437H21.9796V20.6944H22.1796ZM21.8545 22.3693C22.0727 21.8378 22.1832 21.2683 22.1796 20.6937L21.9796 20.695C21.983 21.2431 21.8776 21.7863 21.6695 22.2934L21.8545 22.3693ZM20.9085 23.79C21.3148 23.3837 21.6363 22.9008 21.8545 22.3693L21.6695 22.2934C21.4614 22.8004 21.1546 23.261 20.7671 23.6485L20.9085 23.79ZM19.4879 24.736C20.0194 24.5178 20.5022 24.1962 20.9085 23.79L20.7671 23.6485C20.3795 24.0361 19.9189 24.3428 19.4119 24.551L19.4879 24.736ZM17.8123 25.061C18.3868 25.0647 18.9563 24.9542 19.4879 24.736L19.4119 24.551C18.9049 24.7591 18.3616 24.8645 17.8135 24.861L17.8123 25.061ZM10.2129 25.061H17.8129V24.861H10.2129V25.061ZM7.12521 23.7821C7.94412 24.601 9.0548 25.061 10.2129 25.061V24.861C9.10784 24.861 8.04803 24.422 7.26663 23.6406L7.12521 23.7821ZM5.84624 20.6944C5.84624 21.8525 6.3063 22.9632 7.12521 23.7821L7.26663 23.6406C6.48523 22.8592 6.04624 21.7994 6.04624 20.6944H5.84624ZM5.84624 8.21437V20.6944H6.04624V8.21437H5.84624ZM4.53291 8.31437H5.94624V8.11437H4.53291V8.31437ZM3.89651 8.05077C4.0653 8.21955 4.29422 8.31437 4.53291 8.31437V8.11437C4.34726 8.11437 4.16921 8.04062 4.03794 7.90935L3.89651 8.05077ZM3.63291 7.41437C3.63291 7.65307 3.72773 7.88199 3.89651 8.05077L4.03794 7.90935C3.90666 7.77807 3.83291 7.60002 3.83291 7.41437H3.63291ZM3.90391 6.78537C3.73732 6.95196 3.64044 7.17573 3.63296 7.4112L3.83286 7.41755C3.83873 7.2329 3.9147 7.05742 4.04533 6.92679L3.90391 6.78537ZM4.52973 6.51442C4.29427 6.5219 4.07049 6.61879 3.90391 6.78537L4.04533 6.92679C4.17596 6.79616 4.35144 6.72019 4.53609 6.71432L4.52973 6.51442ZM10.2929 6.51437H4.53291V6.71437H10.2929V6.51437ZM10.1929 5.86771V6.61437H10.3929V5.86771H10.1929ZM10.847 4.2885C10.4282 4.70733 10.1929 5.27539 10.1929 5.86771H10.3929C10.3929 5.32843 10.6071 4.81125 10.9885 4.42992L10.847 4.2885ZM12.4262 3.63437C11.8339 3.63437 11.2659 3.86967 10.847 4.2885L10.9885 4.42992C11.3698 4.0486 11.887 3.83438 12.4262 3.83438V3.63437ZM15.5729 3.63437H12.4262V3.83438H15.5729V3.63437ZM17.1521 4.2885C16.7333 3.86967 16.1652 3.63437 15.5729 3.63437V3.83438C16.1122 3.83438 16.6294 4.0486 17.0107 4.42992L17.1521 4.2885ZM17.8062 5.86771C17.8062 5.27539 17.5709 4.70733 17.1521 4.2885L17.0107 4.42992C17.392 4.81125 17.6062 5.32843 17.6062 5.86771H17.8062ZM17.8062 6.61437V5.86771H17.6062V6.61437H17.8062ZM11.9929 5.86771C11.9929 5.75278 12.0386 5.64256 12.1198 5.56129L11.9784 5.41987C11.8596 5.53865 11.7929 5.69974 11.7929 5.86771H11.9929ZM11.9929 6.61437V5.86771H11.7929V6.61437H11.9929ZM16.1062 6.51437H11.8929V6.71437H16.1062V6.51437ZM16.0062 5.86771V6.61437H16.2062V5.86771H16.0062ZM15.8793 5.56129C15.9606 5.64256 16.0062 5.75278 16.0062 5.86771H16.2062C16.2062 5.69974 16.1395 5.53865 16.0207 5.41987L15.8793 5.56129ZM15.5729 5.43437C15.6878 5.43437 15.7981 5.48003 15.8793 5.56129L16.0207 5.41987C15.902 5.3011 15.7409 5.23437 15.5729 5.23437V5.43437ZM12.4262 5.43437H15.5729V5.23437H12.4262V5.43437ZM12.1198 5.56129C12.2011 5.48003 12.3113 5.43437 12.4262 5.43437V5.23437C12.2583 5.23437 12.0972 5.3011 11.9784 5.41987L12.1198 5.56129ZM20.3796 20.6944C20.3796 21.0314 20.3132 21.3652 20.1842 21.6766L20.369 21.7531C20.508 21.4175 20.5796 21.0577 20.5796 20.6944H20.3796ZM20.3796 8.21437V20.6944H20.5796V8.21437H20.3796ZM7.54624 8.31437H20.4796V8.11437H7.54624V8.31437ZM7.64624 20.6944V8.21437H7.44624V20.6944H7.64624ZM7.84162 21.6766C7.71263 21.3652 7.64624 21.0314 7.64624 20.6944H7.44624C7.44624 21.0577 7.51781 21.4175 7.65684 21.7531L7.84162 21.6766ZM8.398 22.5093C8.15967 22.2709 7.97061 21.988 7.84162 21.6766L7.65684 21.7531C7.79588 22.0888 7.99967 22.3938 8.25658 22.6507L8.398 22.5093ZM9.23069 23.0657C8.91929 22.9367 8.63634 22.7476 8.398 22.5093L8.25658 22.6507C8.51349 22.9076 8.81849 23.1114 9.15415 23.2504L9.23069 23.0657ZM10.2129 23.261C9.87585 23.261 9.54209 23.1946 9.23069 23.0657L9.15415 23.2504C9.48982 23.3895 9.84959 23.461 10.2129 23.461V23.261ZM17.8129 23.261H10.2129V23.461H17.8129V23.261ZM18.7951 23.0657C18.4837 23.1946 18.15 23.261 17.8129 23.261V23.461C18.1762 23.461 18.536 23.3895 18.8717 23.2504L18.7951 23.0657ZM19.6278 22.5093C19.3895 22.7476 19.1065 22.9367 18.7951 23.0657L18.8717 23.2504C19.2073 23.1114 19.5123 22.9076 19.7692 22.6507L19.6278 22.5093ZM20.1842 21.6766C20.0552 21.988 19.8662 22.2709 19.6278 22.5093L19.7692 22.6507C20.0261 22.3938 20.2299 22.0888 20.369 21.7531L20.1842 21.6766ZM10.3464 20.9277C10.585 20.9277 10.814 20.8329 10.9828 20.6641L10.8413 20.5227C10.7101 20.654 10.532 20.7277 10.3464 20.7277V20.9277ZM9.71735 20.6567C9.88394 20.8233 10.1077 20.9202 10.3432 20.9277L10.3495 20.7278C10.1649 20.7219 9.9894 20.6459 9.85877 20.5153L9.71735 20.6567ZM9.4464 20.0309C9.45389 20.2664 9.55077 20.4901 9.71735 20.6567L9.85877 20.5153C9.72814 20.3847 9.65217 20.2092 9.6463 20.0245L9.4464 20.0309ZM9.44635 10.961V20.0277H9.64635V10.961H9.44635ZM9.70996 10.3246C9.54118 10.4934 9.44635 10.7223 9.44635 10.961H9.64635C9.64635 10.7754 9.7201 10.5973 9.85138 10.4661L9.70996 10.3246ZM10.3464 10.061C10.1077 10.061 9.87874 10.1559 9.70996 10.3246L9.85138 10.4661C9.98266 10.3348 10.1607 10.261 10.3464 10.261V10.061ZM10.6935 10.1213C10.582 10.0774 10.4626 10.0569 10.3428 10.0611L10.3499 10.261C10.4422 10.2577 10.5342 10.2735 10.6202 10.3074L10.6935 10.1213ZM10.991 10.3164C10.9063 10.2316 10.805 10.1652 10.6935 10.1213L10.6202 10.3074C10.7062 10.3412 10.7843 10.3924 10.8496 10.4578L10.991 10.3164ZM11.1861 10.6139C11.1422 10.5024 11.0758 10.4011 10.991 10.3164L10.8496 10.4578C10.915 10.5231 10.9661 10.6012 11 10.6872L11.1861 10.6139ZM11.2463 10.9645C11.2505 10.8448 11.23 10.7254 11.1861 10.6139L11 10.6872C11.0339 10.7732 11.0497 10.8652 11.0464 10.9575L11.2463 10.9645ZM11.2464 20.0277V10.961H11.0464V20.0277H11.2464ZM10.9828 20.6641C11.1515 20.4953 11.2464 20.2664 11.2464 20.0277H11.0464C11.0464 20.2134 10.9726 20.3914 10.8413 20.5227L10.9828 20.6641ZM14.4944 20.5227C14.3631 20.654 14.1851 20.7277 13.9994 20.7277V20.9277C14.2381 20.9277 14.4671 20.8329 14.6358 20.6641L14.4944 20.5227ZM14.6994 20.0277C14.6994 20.2134 14.6257 20.3914 14.4944 20.5227L14.6358 20.6641C14.8046 20.4953 14.8994 20.2664 14.8994 20.0277H14.6994ZM14.6994 10.961V20.0277H14.8994V10.961H14.6994ZM14.4944 10.4661C14.6257 10.5973 14.6994 10.7754 14.6994 10.961H14.8994C14.8994 10.7223 14.8046 10.4934 14.6358 10.3246L14.4944 10.4661ZM13.9994 10.261C14.1851 10.261 14.3631 10.3348 14.4944 10.4661L14.6358 10.3246C14.4671 10.1559 14.2381 10.061 13.9994 10.061V10.261ZM13.5045 10.4661C13.6357 10.3348 13.8138 10.261 13.9994 10.261V10.061C13.7608 10.061 13.5318 10.1559 13.3631 10.3246L13.5045 10.4661ZM13.2994 10.961C13.2994 10.7754 13.3732 10.5973 13.5045 10.4661L13.3631 10.3246C13.1943 10.4934 13.0994 10.7223 13.0994 10.961H13.2994ZM13.2994 20.0277V10.961H13.0994V20.0277H13.2994ZM13.5045 20.5227C13.3732 20.3914 13.2994 20.2134 13.2994 20.0277H13.0994C13.0994 20.2664 13.1943 20.4953 13.3631 20.6641L13.5045 20.5227ZM13.9994 20.7277C13.8138 20.7277 13.6357 20.654 13.5045 20.5227L13.3631 20.6641C13.5318 20.8329 13.7607 20.9277 13.9994 20.9277V20.7277ZM17.6559 20.9277C17.8914 20.9202 18.1152 20.8233 18.2818 20.6567L18.1403 20.5153C18.0097 20.6459 17.8342 20.7219 17.6496 20.7278L17.6559 20.9277ZM17.0164 20.6641C17.1851 20.8329 17.4141 20.9277 17.6528 20.9277V20.7277C17.4671 20.7277 17.2891 20.654 17.1578 20.5227L17.0164 20.6641ZM16.7528 20.0277C16.7528 20.2664 16.8476 20.4953 17.0164 20.6641L17.1578 20.5227C17.0265 20.3914 16.9528 20.2134 16.9528 20.0277H16.7528ZM16.7528 10.961V20.0277H16.9528V10.961H16.7528ZM16.813 10.6139C16.7691 10.7254 16.7486 10.8448 16.7528 10.9645L16.9527 10.9575C16.9495 10.8652 16.9653 10.7732 16.9991 10.6872L16.813 10.6139ZM17.0081 10.3164C16.9233 10.4011 16.8569 10.5024 16.813 10.6139L16.9991 10.6872C17.033 10.6012 17.0842 10.5231 17.1495 10.4578L17.0081 10.3164ZM17.3056 10.1213C17.1941 10.1652 17.0928 10.2316 17.0081 10.3164L17.1495 10.4578C17.2148 10.3924 17.2929 10.3412 17.3789 10.3074L17.3056 10.1213ZM17.6563 10.0611C17.5365 10.0569 17.4171 10.0774 17.3056 10.1213L17.3789 10.3074C17.4649 10.2735 17.5569 10.2577 17.6492 10.261L17.6563 10.0611ZM18.2892 10.3246C18.1204 10.1559 17.8915 10.061 17.6528 10.061V10.261C17.8384 10.261 18.0165 10.3348 18.1477 10.4661L18.2892 10.3246ZM18.5528 10.961C18.5528 10.7223 18.4579 10.4934 18.2892 10.3246L18.1477 10.4661C18.279 10.5973 18.3528 10.7754 18.3528 10.961H18.5528ZM18.5528 20.0277V10.961H18.3528V20.0277H18.5528ZM18.2818 20.6567C18.4483 20.4901 18.5452 20.2664 18.5527 20.0309L18.3528 20.0245C18.3469 20.2092 18.271 20.3847 18.1403 20.5153L18.2818 20.6567Z" fill="#F44336"/>
</svg>
