<svg width="50" height="29" viewBox="0 0 50 29" fill="none" xmlns="http://www.w3.org/2000/svg">
<path d="M8.86031 20.8506C8.86031 22.3599 10.0906 23.5878 11.5975 23.5878H12.0711C12.1389 26.2338 14.3032 28.3682 16.9641 28.3682C19.6235 28.3682 21.7861 26.2338 21.8539 23.5878H32.8256C32.8935 26.2338 35.056 28.3682 37.7186 28.3682C40.3763 28.3682 42.5389 26.2338 42.6067 23.5878H48.0695C48.5761 23.5878 49 23.1614 49 22.6573V11.4736C49 11.2309 48.904 10.9983 48.7335 10.8277L43.9049 6.01746C43.736 5.8652 43.5157 5.78076 43.2906 5.78076H37.8361V3.73721C37.8361 2.22796 36.6092 1 35.0989 1H11.5975C10.0906 1 8.86031 2.22779 8.86031 3.73721H1.9124C1.40576 3.73721 1 4.14535 1 4.64962C1 5.15389 1.40576 5.56202 1.9124 5.56202H14.684C15.1858 5.56202 15.5964 5.15389 15.5964 4.64962C15.5964 4.14535 15.1858 3.73721 14.684 3.73721H10.6851C10.6851 3.23379 11.0958 2.82481 11.5975 2.82481H35.0993C35.601 2.82481 36.0117 3.23379 36.0117 3.73721V18.8842C34.682 19.3819 33.6305 20.4316 33.1354 21.763H21.5444C20.8489 19.8994 19.0673 18.5614 16.9643 18.5614C14.8612 18.5614 13.0763 19.8994 12.3826 21.763H11.5975C11.1024 21.763 10.6851 21.3449 10.6851 20.8506V16.509H14.684C15.1858 16.509 15.5964 16.1009 15.5964 15.5966C15.5964 15.0923 15.1858 14.6842 14.684 14.6842H7.38497C6.87985 14.6842 6.47426 15.0923 6.47426 15.5966C6.47426 16.1009 6.88001 16.509 7.38497 16.509H8.86031V20.8506ZM42.9133 7.60539L47.1755 11.8519V21.763H42.2973C41.6167 19.935 39.8846 18.6234 37.8363 18.5737V7.60523H42.9133V7.60539ZM37.7188 20.3862C39.4144 20.3862 40.797 21.7664 40.797 23.4644C40.797 25.1624 39.4144 26.5434 37.7188 26.5434C36.0183 26.5434 34.6389 25.1624 34.6389 23.4644C34.6389 21.7664 36.0181 20.3862 37.7188 20.3862ZM16.9641 20.3862C18.6614 20.3862 20.044 21.7664 20.044 23.4644C20.044 25.1624 18.6614 26.5434 16.9641 26.5434C15.2651 26.5434 13.8859 25.1624 13.8859 23.4644C13.8859 21.7664 15.2653 20.3862 16.9641 20.3862Z" fill="white" stroke="white" stroke-width="0.2"/>
<path d="M15.5968 8.29912C15.5968 7.79485 15.1862 7.38672 14.6844 7.38672H3.7376C3.23095 7.38672 2.8252 7.79485 2.8252 8.29912C2.8252 8.8034 3.23078 9.21153 3.7376 9.21153H14.6844C15.1862 9.21153 15.5968 8.8034 15.5968 8.29912Z" fill="white" stroke="white" stroke-width="0.2"/>
<path d="M15.5968 11.9467C15.5968 11.4424 15.1861 11.0352 14.6844 11.0352H5.59698C5.09525 11.0352 4.68457 11.4424 4.68457 11.9467C4.68457 12.451 5.09525 12.8591 5.59698 12.8591H14.6844C15.1861 12.8591 15.5968 12.451 15.5968 11.9467Z" fill="white" stroke="white" stroke-width="0.2"/>
</svg>
