<svg width="63" height="48" viewBox="0 0 63 48" fill="none" xmlns="http://www.w3.org/2000/svg">
<path d="M3.72852 47.3438C3.72852 47.3438 7.38684 25.677 42.359 16.5542" stroke="#D6CD56" stroke-width="0.75" stroke-miterlimit="10" stroke-linecap="round" stroke-linejoin="round"/>
<path d="M25.627 22.8817C25.627 22.8817 32.0673 19.7667 40.398 23.7656" stroke="#D6CD56" stroke-width="0.75" stroke-miterlimit="10" stroke-linecap="round" stroke-linejoin="round"/>
<path d="M42.459 16.7094C42.4476 16.7094 44.1849 20.7083 51.7082 18.8523C59.0975 16.9466 61.7877 11.0153 61.8795 11.042C61.8872 11.065 57.1574 9.34299 51.1188 10.028C45.1454 10.7283 42.5356 16.7132 42.459 16.7094Z" stroke="#D6CD56" stroke-width="0.75" stroke-miterlimit="10" stroke-linecap="round" stroke-linejoin="round"/>
<path d="M42.459 16.7096C42.4437 16.721 46.5421 17.1152 52.1061 15.0603C57.6357 13.0015 61.8642 11.0384 61.8795 11.0461" stroke="#D6CD56" stroke-width="0.75" stroke-miterlimit="10" stroke-linecap="round" stroke-linejoin="round"/>
<path d="M26.0154 19.1937C26.0001 19.2703 29.8995 19.6108 32.6432 13.3044C35.3678 7.26975 32.6126 1.97743 32.6088 1.86263C32.6011 1.82819 28.8892 4.01323 26.1876 9.03385C23.463 14.0239 25.9962 19.2167 26.0154 19.1937Z" stroke="#D6CD56" stroke-width="0.75" stroke-miterlimit="10" stroke-linecap="round" stroke-linejoin="round"/>
<path d="M26.0156 19.1952C26.0195 19.2144 28.6139 16.2448 30.2059 11.0635C31.8054 5.88981 32.6052 1.87562 32.609 1.86796" stroke="#D6CD56" stroke-width="0.75" stroke-miterlimit="10" stroke-linecap="round" stroke-linejoin="round"/>
<path d="M9.4733 19.9349C9.50009 19.8622 12.9556 17.3098 10.2922 10.5518C7.69772 3.57194 1.2574 0.904737 1.24209 1.00423C1.24209 0.996577 0.384911 6.17792 1.89645 12.3465C3.38504 18.5955 9.46182 20.0076 9.4733 19.9349Z" stroke="#D6CD56" stroke-width="0.75" stroke-miterlimit="10" stroke-linecap="round" stroke-linejoin="round"/>
<path d="M9.4734 19.9336C9.47723 19.903 9.27441 15.9998 6.59956 10.6462C3.94001 5.24292 1.25367 0.979987 1.24219 1.00295" stroke="#D6CD56" stroke-width="0.75" stroke-miterlimit="10" stroke-linecap="round" stroke-linejoin="round"/>
<path d="M40.7895 23.7508C40.8278 23.7355 40.0395 27.5125 45.703 30.4284C51.5119 33.2755 56.8348 30.5011 56.7774 30.5509C56.743 30.5547 54.2939 27.1336 49.9506 24.2521C45.5346 21.3477 40.7665 23.7317 40.7895 23.7508Z" stroke="#D6CD56" stroke-width="0.75" stroke-miterlimit="10" stroke-linecap="round" stroke-linejoin="round"/>
<path d="M40.7891 23.7508C40.8082 23.7431 43.2649 26.3682 47.9794 28.1017C52.7092 29.839 56.7808 30.5508 56.777 30.5508" stroke="#D6CD56" stroke-width="0.75" stroke-miterlimit="10" stroke-linecap="round" stroke-linejoin="round"/>
<path d="M25.3305 30.487C25.3573 30.4755 24.7718 33.2843 28.985 35.454C33.3053 37.5702 37.2621 35.5076 37.2201 35.5459C37.1971 35.5497 35.3718 33.0011 32.1459 30.8582C28.8626 28.6961 25.3152 30.4717 25.3305 30.487Z" stroke="#D6CD56" stroke-width="0.75" stroke-miterlimit="10" stroke-linecap="round" stroke-linejoin="round"/>
<path d="M25.3301 30.488C25.3416 30.4842 27.1707 32.4319 30.6798 33.7254C34.1965 35.015 37.2234 35.5469 37.2234 35.5469" stroke="#D6CD56" stroke-width="0.75" stroke-miterlimit="10" stroke-linecap="round" stroke-linejoin="round"/>
<path d="M21.4707 25.2773C21.4707 25.2773 23.3113 24.9482 26.2464 18.8638" stroke="#D6CD56" stroke-width="0.75" stroke-miterlimit="10" stroke-linecap="round" stroke-linejoin="round"/>
<path d="M11.181 33.8984C11.181 33.8984 12.5548 27.9211 9.45899 20.2754" stroke="#D6CD56" stroke-width="0.75" stroke-miterlimit="10" stroke-linecap="round" stroke-linejoin="round"/>
<path d="M14.0156 30.9961C14.0156 30.9961 19.6332 28.1414 25.0442 30.4948" stroke="#D6CD56" stroke-width="0.75" stroke-miterlimit="10" stroke-linecap="round" stroke-linejoin="round"/>
</svg>
