<svg width="369" height="348" viewBox="0 0 369 348" fill="none" xmlns="http://www.w3.org/2000/svg">
<g opacity="0.2">
<path d="M64.9312 148.508C64.9312 148.508 113.712 164.261 118.117 203.376C119.886 219.156 124.806 235.599 131.46 247.878" stroke="#D6CD56" stroke-width="0.75" stroke-miterlimit="10" stroke-linecap="round" stroke-linejoin="round"/>
<path d="M131.305 247.309C131.34 247.342 129.824 248.397 145.022 253.106C160.377 257.99 161.251 255.772 171.095 271.053C180.984 286.485 198.397 294.004 198.235 300.15C198.267 300.156 188.697 297.523 171.269 291.67C153.838 285.707 146.557 272.644 140.791 263.925C135.013 255.145 131.311 247.319 131.305 247.309Z" stroke="#D6CD56" stroke-width="0.75" stroke-miterlimit="10" stroke-linecap="round" stroke-linejoin="round"/>
<path d="M131.306 247.312C131.332 247.351 139.074 254.362 151.687 265.952C164.438 277.73 163.274 278.011 174.397 285.338C185.574 292.769 198.237 300.153 198.243 300.162" stroke="#D6CD56" stroke-width="0.75" stroke-miterlimit="10" stroke-linecap="round" stroke-linejoin="round"/>
<path d="M130.447 223.947C130.444 223.921 129.608 225.46 145.999 225.291C162.413 225.052 162.454 222.562 177.02 233.211C191.638 244.063 209.028 244.418 210.942 250.252C210.939 250.226 202.073 251.636 184.845 252.454C167.579 253.089 155.568 242.855 146.544 236.536C137.497 230.079 130.447 223.947 130.447 223.947Z" stroke="#D6CD56" stroke-width="0.75" stroke-miterlimit="10" stroke-linecap="round" stroke-linejoin="round"/>
<path d="M130.447 223.947C130.453 223.957 141.178 228.319 157.394 235.014C173.658 241.76 172.627 242.413 185.176 245.321C197.741 248.275 210.939 250.268 210.942 250.252" stroke="#D6CD56" stroke-width="0.75" stroke-miterlimit="10" stroke-linecap="round" stroke-linejoin="round"/>
<path d="M109.038 237.137C109.07 237.186 107.463 237.217 111.683 251.018C115.911 264.787 118.715 265.093 111.557 280.46C103.923 294.999 107.075 308.573 101.203 309.942C101.235 309.991 97.8342 302.453 93.3361 289.391C89.0647 276.737 97.1128 266.474 101.114 256.488C105.348 246.919 109.045 237.147 109.038 237.137Z" stroke="#D6CD56" stroke-width="0.6512" stroke-miterlimit="10" stroke-linecap="round" stroke-linejoin="round"/>
<path d="M109.039 237.136C109 237.078 107.928 249.056 105.124 264.527C102.177 279.759 101.145 278.659 100.918 289.134C100.587 299.453 101.191 309.922 101.203 309.941" stroke="#D6CD56" stroke-width="0.6512" stroke-miterlimit="10" stroke-linecap="round" stroke-linejoin="round"/>
<path d="M97.9309 167.047C97.9247 166.996 97.2596 168.645 113.589 167.265C129.918 165.759 129.792 163.268 145.196 172.572C160.644 182.069 177.769 180.693 180.09 186.299C180.09 186.257 171.475 188.616 154.587 191.047C137.661 193.294 124.859 184.012 115.252 178.412C105.641 172.661 97.9309 167.047 97.9309 167.047Z" stroke="#D6CD56" stroke-width="0.75" stroke-miterlimit="10" stroke-linecap="round" stroke-linejoin="round"/>
<path d="M97.9306 167.048C97.937 167.057 109.126 170.668 125.877 176.022C142.64 181.396 141.654 182.116 154.312 183.881C166.973 185.672 180.09 186.299 180.1 186.293" stroke="#D6CD56" stroke-width="0.75" stroke-miterlimit="10" stroke-linecap="round" stroke-linejoin="round"/>
<path d="M118.302 204.881C118.302 204.881 123.946 219.468 131.345 224.188" stroke="#D6CD56" stroke-width="0.75" stroke-miterlimit="10" stroke-linecap="round" stroke-linejoin="round"/>
<path d="M115.203 191.369C115.203 191.369 117.817 215.135 108.554 238.68" stroke="#D6CD56" stroke-width="0.75" stroke-miterlimit="10" stroke-linecap="round" stroke-linejoin="round"/>
<path d="M343.074 1C357.545 33.6099 366.379 78.7778 338.565 123.456C286.041 207.813 148.579 135.616 77.9809 144.829C17.3721 152.739 66.3655 240.183 -0.00012207 293.186" stroke="#D6CD56" stroke-width="0.75" stroke-miterlimit="10" stroke-linecap="round" stroke-linejoin="round"/>
<path d="M75.2852 1.38867C75.2852 1.38867 85.9621 64.6241 188.03 91.2495" stroke="#D6CD56" stroke-width="0.75" stroke-miterlimit="10" stroke-linecap="round" stroke-linejoin="round"/>
<path d="M139.19 72.7869C139.19 72.7869 157.987 81.878 182.3 70.207" stroke="#D6CD56" stroke-width="0.75" stroke-miterlimit="10" stroke-linecap="round" stroke-linejoin="round"/>
<path d="M188.32 90.7921C188.287 90.7921 193.357 79.1211 215.314 84.5378C236.88 90.0996 244.732 107.411 245 107.332C245.022 107.265 231.218 112.291 213.594 110.292C196.16 108.248 188.544 90.7809 188.32 90.7921Z" stroke="#D6CD56" stroke-width="0.75" stroke-miterlimit="10" stroke-linecap="round" stroke-linejoin="round"/>
<path d="M188.32 90.795C188.276 90.7615 200.237 89.6112 216.476 95.6086C232.614 101.617 244.955 107.347 245 107.324" stroke="#D6CD56" stroke-width="0.75" stroke-miterlimit="10" stroke-linecap="round" stroke-linejoin="round"/>
<path d="M140.33 83.5395C140.285 83.3162 151.666 82.3222 159.673 100.728C167.625 118.34 159.584 133.786 159.573 134.121C159.55 134.222 148.717 127.845 140.832 113.192C132.88 98.628 140.274 83.4725 140.33 83.5395Z" stroke="#D6CD56" stroke-width="0.75" stroke-miterlimit="10" stroke-linecap="round" stroke-linejoin="round"/>
<path d="M140.33 83.5393C140.341 83.4835 147.913 92.1502 152.559 107.272C157.227 122.372 159.562 134.087 159.573 134.11" stroke="#D6CD56" stroke-width="0.75" stroke-miterlimit="10" stroke-linecap="round" stroke-linejoin="round"/>
<path d="M92.0487 81.3885C92.1269 81.6007 102.212 89.05 94.4388 108.773C86.8666 129.145 68.0702 136.929 68.0255 136.639C68.0255 136.661 65.5238 121.539 69.9353 103.535C74.2798 85.2975 92.0152 81.1763 92.0487 81.3885Z" stroke="#D6CD56" stroke-width="0.75" stroke-miterlimit="10" stroke-linecap="round" stroke-linejoin="round"/>
<path d="M92.0486 81.3848C92.0598 81.4741 91.4678 92.8659 83.6611 108.49C75.8991 124.26 68.0589 136.702 68.0254 136.635" stroke="#D6CD56" stroke-width="0.75" stroke-miterlimit="10" stroke-linecap="round" stroke-linejoin="round"/>
<path d="M183.451 70.2414C183.562 70.2861 181.262 59.2629 197.791 50.7526C214.745 42.4433 230.28 50.5404 230.112 50.3952C230.012 50.384 222.864 60.3686 210.188 68.7784C197.3 77.2552 183.384 70.2973 183.451 70.2414Z" stroke="#D6CD56" stroke-width="0.75" stroke-miterlimit="10" stroke-linecap="round" stroke-linejoin="round"/>
<path d="M183.451 70.2408C183.507 70.2631 190.677 62.6016 204.436 57.5423C218.24 52.4719 230.123 50.3945 230.112 50.3945" stroke="#D6CD56" stroke-width="0.75" stroke-miterlimit="10" stroke-linecap="round" stroke-linejoin="round"/>
<path d="M138.331 50.5858C138.409 50.6194 136.7 42.4218 148.996 36.0893C161.606 29.9132 173.154 35.9329 173.031 35.8212C172.964 35.8101 167.636 43.2482 158.222 49.5025C148.639 55.8127 138.286 50.6305 138.331 50.5858Z" stroke="#D6CD56" stroke-width="0.75" stroke-miterlimit="10" stroke-linecap="round" stroke-linejoin="round"/>
<path d="M138.331 50.5888C138.364 50.6 143.703 44.9153 153.944 41.1404C164.208 37.3766 173.042 35.8242 173.042 35.8242" stroke="#D6CD56" stroke-width="0.75" stroke-miterlimit="10" stroke-linecap="round" stroke-linejoin="round"/>
<path d="M127.062 65.7852C127.062 65.7852 132.434 66.7456 141 84.5034" stroke="#D6CD56" stroke-width="0.75" stroke-miterlimit="10" stroke-linecap="round" stroke-linejoin="round"/>
<path d="M97.0298 40.6367C97.0298 40.6367 101.039 58.0817 92.004 80.3962" stroke="#D6CD56" stroke-width="0.75" stroke-miterlimit="10" stroke-linecap="round" stroke-linejoin="round"/>
<path d="M105.306 49.1016C105.306 49.1016 121.701 57.4332 137.493 50.5646" stroke="#D6CD56" stroke-width="0.75" stroke-miterlimit="10" stroke-linecap="round" stroke-linejoin="round"/>
<g opacity="0.5">
<path d="M287.751 117.674C288.869 116.722 289.063 115.225 288.998 113.58C289.054 111.501 288.656 110.789 285.348 112.748C282.077 114.985 282.668 117.572 283.528 118.015C285.034 119.041 286.827 118.487 287.751 117.674Z" fill="#D6CD56"/>
<path d="M296.418 106.486C297.536 105.534 297.73 104.037 297.666 102.393C297.721 100.313 297.324 99.6019 294.016 101.561C290.745 103.788 291.336 106.384 292.195 106.828C293.702 107.844 295.494 107.29 296.418 106.486Z" fill="#D6CD56"/>
<path d="M284.479 106.929C285.598 105.978 285.782 104.481 285.718 102.836C285.773 100.757 285.376 100.045 282.068 102.004C278.797 104.24 279.388 106.828 280.247 107.271C281.763 108.288 283.555 107.733 284.479 106.929Z" fill="#D6CD56"/>
<path d="M295.337 95.0349C296.455 94.0831 296.649 92.5862 296.584 90.9413C296.64 88.8622 296.243 88.1507 292.934 90.1097C289.663 92.3459 290.255 94.9333 291.114 95.3768C292.62 96.3933 294.413 95.8388 295.337 95.0349Z" fill="#D6CD56"/>
<path d="M308.117 96.1619C309.235 95.2101 309.42 93.7131 309.355 92.0683C309.411 89.9892 309.013 89.2777 305.705 91.2367C302.434 93.4729 303.025 96.0602 303.885 96.5038C305.409 97.5202 307.202 96.975 308.117 96.1619Z" fill="#D6CD56"/>
<path d="M299.902 118.597C301.02 117.646 301.205 116.149 301.15 114.504C301.205 112.425 300.808 111.713 297.499 113.672C294.219 115.908 294.82 118.496 295.679 118.939C297.185 119.956 298.978 119.401 299.902 118.597Z" fill="#D6CD56"/>
<path d="M309.05 110.245C310.168 109.294 310.353 107.797 310.288 106.143C310.344 104.063 309.946 103.352 306.638 105.311C303.367 107.547 303.959 110.144 304.818 110.578C306.333 111.604 308.126 111.049 309.05 110.245Z" fill="#D6CD56"/>
<path d="M303.977 142.933C305.095 141.982 305.289 140.485 305.225 138.84C305.28 136.761 304.883 136.049 301.575 138.008C298.304 140.244 298.895 142.832 299.754 143.275C301.26 144.292 303.053 143.737 303.977 142.933Z" fill="#D6CD56"/>
<path d="M312.645 131.74C313.763 130.788 313.957 129.291 313.892 127.646C313.948 125.567 313.551 124.856 310.242 126.815C306.971 129.051 307.563 131.648 308.422 132.082C309.928 133.098 311.721 132.544 312.645 131.74Z" fill="#D6CD56"/>
<path d="M300.706 132.189C301.824 131.237 302.018 129.74 301.954 128.086C302.009 126.007 301.612 125.295 298.304 127.254C295.032 129.49 295.624 132.087 296.483 132.521C297.989 133.547 299.782 132.993 300.706 132.189Z" fill="#D6CD56"/>
<path d="M311.555 120.285C312.673 119.333 312.867 117.836 312.802 116.191C312.857 114.112 312.46 113.401 309.152 115.36C305.881 117.596 306.472 120.183 307.332 120.627C308.847 121.653 310.64 121.098 311.555 120.285Z" fill="#D6CD56"/>
<path d="M324.343 121.421C325.462 120.469 325.656 118.972 325.591 117.318C325.646 115.239 325.249 114.528 321.941 116.487C318.67 118.723 319.261 121.319 320.12 121.754C321.627 122.779 323.419 122.225 324.343 121.421Z" fill="#D6CD56"/>
<path d="M316.128 143.857C317.247 142.905 317.441 141.408 317.376 139.764C317.431 137.685 317.034 136.964 313.726 138.932C310.455 141.168 311.046 143.756 311.906 144.199C313.412 145.216 315.204 144.661 316.128 143.857Z" fill="#D6CD56"/>
<path d="M325.277 135.496C326.395 134.544 326.589 133.047 326.524 131.402C326.58 129.323 326.182 128.612 322.874 130.571C319.603 132.807 320.194 135.394 321.054 135.838C322.56 136.863 324.353 136.309 325.277 135.496Z" fill="#D6CD56"/>
<path d="M322.939 110.342C324.057 109.39 324.251 107.893 324.186 106.248C324.242 104.169 323.844 103.457 320.536 105.416C317.265 107.653 317.856 110.24 318.716 110.683C320.222 111.709 322.015 111.155 322.939 110.342Z" fill="#D6CD56"/>
<path d="M331.606 99.1535C332.724 98.2018 332.918 96.7048 332.854 95.0507C332.909 92.9716 332.512 92.2601 329.204 94.2191C325.933 96.4553 326.524 99.0519 327.383 99.4862C328.89 100.512 330.682 99.9575 331.606 99.1535Z" fill="#D6CD56"/>
<path d="M319.667 99.5969C320.786 98.6451 320.98 97.1482 320.906 95.4941C320.961 93.415 320.564 92.7034 317.256 94.6624C313.985 96.8986 314.576 99.4953 315.435 99.9296C316.951 100.955 318.743 100.401 319.667 99.5969Z" fill="#D6CD56"/>
<path d="M330.525 87.7029C331.643 86.7511 331.828 85.2541 331.763 83.6093C331.819 81.5302 331.421 80.8187 328.113 82.7777C324.842 85.0139 325.433 87.6012 326.293 88.0448C327.808 89.0613 329.601 88.5068 330.525 87.7029Z" fill="#D6CD56"/>
<path d="M343.305 88.8298C344.423 87.8781 344.617 86.3811 344.552 84.7363C344.608 82.6572 344.21 81.9456 340.902 83.9046C337.631 86.1408 338.222 88.7282 339.082 89.1717C340.588 90.1974 342.39 89.643 343.305 88.8298Z" fill="#D6CD56"/>
<path d="M335.09 111.265C336.208 110.313 336.402 108.816 336.328 107.162C336.384 105.083 335.986 104.371 332.678 106.33C329.407 108.567 329.998 111.163 330.858 111.598C332.373 112.623 334.166 112.069 335.09 111.265Z" fill="#D6CD56"/>
<path d="M344.238 102.914C345.356 101.962 345.55 100.465 345.485 98.8203C345.541 96.7411 345.144 96.0296 341.835 97.9886C338.564 100.225 339.156 102.812 340.015 103.256C341.521 104.272 343.314 103.718 344.238 102.914Z" fill="#D6CD56"/>
<path d="M340.468 136.015C341.586 135.064 341.78 133.567 341.715 131.922C341.771 129.843 341.374 129.131 338.065 131.09C334.794 133.326 335.386 135.914 336.245 136.357C337.751 137.374 339.544 136.819 340.468 136.015Z" fill="#D6CD56"/>
<path d="M349.136 124.818C350.254 123.866 350.448 122.369 350.383 120.715C350.439 118.636 350.041 117.924 346.733 119.883C343.462 122.119 344.053 124.716 344.913 125.15C346.419 126.176 348.212 125.622 349.136 124.818Z" fill="#D6CD56"/>
<path d="M337.197 125.261C338.315 124.309 338.5 122.812 338.435 121.158C338.491 119.079 338.093 118.368 334.785 120.327C331.514 122.563 332.105 125.159 332.965 125.594C334.48 126.619 336.282 126.065 337.197 125.261Z" fill="#D6CD56"/>
<path d="M348.055 113.367C349.173 112.415 349.357 110.918 349.293 109.273C349.348 107.194 348.951 106.483 345.643 108.442C342.372 110.678 342.963 113.265 343.822 113.709C345.338 114.725 347.131 114.171 348.055 113.367Z" fill="#D6CD56"/>
<path d="M314.918 84.3904C316.036 83.4386 316.221 81.9416 316.165 80.2968C316.221 78.2177 315.823 77.5062 312.515 79.4652C309.244 81.7014 309.835 84.298 310.695 84.7323C312.21 85.7487 314.003 85.1943 314.918 84.3904Z" fill="#D6CD56"/>
<path d="M330.766 148.211C331.884 147.259 332.068 145.762 332.013 144.117C332.068 142.038 331.671 141.326 328.363 143.285C325.092 145.522 325.683 148.109 326.543 148.553C328.058 149.569 329.841 149.015 330.766 148.211Z" fill="#D6CD56"/>
<path d="M355.817 99.572C356.935 98.6202 357.129 97.1233 357.064 95.4785C357.119 93.3993 356.722 92.6878 353.414 94.6468C350.143 96.883 350.734 99.4704 351.594 99.9139C353.1 100.93 354.893 100.376 355.817 99.572Z" fill="#D6CD56"/>
<path d="M301.769 80.4797C302.887 79.5279 303.081 78.031 303.016 76.3769C303.071 74.2978 302.674 73.5863 299.366 75.5452C296.095 77.7815 296.686 80.3688 297.546 80.8124C299.052 81.8381 300.845 81.2836 301.769 80.4797Z" fill="#D6CD56"/>
<path d="M288.693 134.398C289.811 133.446 290.005 131.949 289.941 130.295C289.996 128.216 289.599 127.504 286.291 129.463C283.019 131.699 283.611 134.296 284.47 134.73C285.976 135.765 287.769 135.211 288.693 134.398Z" fill="#D6CD56"/>
<path d="M367.321 102.638C368.439 101.686 368.633 100.189 368.568 98.5351C368.624 96.456 368.227 95.7445 364.918 97.7035C361.647 99.9397 362.239 102.536 363.098 102.971C364.613 104.006 366.406 103.451 367.321 102.638Z" fill="#D6CD56"/>
<path d="M360.834 114.503C361.952 113.551 362.146 112.054 362.082 110.4C362.137 108.321 361.74 107.61 358.432 109.569C355.16 111.805 355.752 114.401 356.611 114.836C358.117 115.862 359.919 115.307 360.834 114.503Z" fill="#D6CD56"/>
<path d="M352.619 136.929C353.738 135.977 353.922 134.48 353.858 132.826C353.913 130.747 353.516 130.035 350.208 131.994C346.936 134.231 347.528 136.827 348.387 137.262C349.903 138.287 351.695 137.733 352.619 136.929Z" fill="#D6CD56"/>
<path d="M361.767 128.578C362.886 127.626 363.08 126.129 363.015 124.484C363.07 122.405 362.673 121.694 359.365 123.653C356.094 125.889 356.685 128.476 357.545 128.92C359.051 129.936 360.853 129.382 361.767 128.578Z" fill="#D6CD56"/>
</g>
</g>
</svg>
