<svg width="16" height="20" viewBox="0 0 16 20" fill="none" xmlns="http://www.w3.org/2000/svg">
<path d="M14.478 18.4992H1.52153C1.4481 18.4992 1.38867 18.4407 1.38867 18.3684V1.63076C1.38867 1.55849 1.4481 1.5 1.52153 1.5H10.7899C10.8633 1.5 10.9227 1.55849 10.9227 1.63076C10.9227 1.70304 10.8633 1.76153 10.7899 1.76153H1.65439V18.2377H14.3452V5.21359C14.3452 5.14132 14.4046 5.08283 14.478 5.08283C14.5515 5.08283 14.6109 5.14132 14.6109 5.21359V18.3684C14.6109 18.4407 14.5515 18.4992 14.478 18.4992Z" fill="#044236" stroke="#044236" stroke-width="1.4" stroke-linecap="round" stroke-linejoin="round"/>
<path d="M14.476 5.34446H10.7891C10.7157 5.34446 10.6562 5.28597 10.6562 5.21369V1.63086C10.6562 1.57812 10.6884 1.53049 10.738 1.51019C10.7863 1.48976 10.8441 1.50061 10.8825 1.53777L14.5694 5.1206C14.6078 5.15789 14.6195 5.21433 14.599 5.26337C14.5785 5.3124 14.53 5.34446 14.476 5.34446ZM10.922 5.08293H14.1524L10.922 1.94372V5.08293Z" fill="#044236" stroke="#044236" stroke-width="1.4" stroke-linecap="round" stroke-linejoin="round"/>
<path d="M11.6238 12.4686H4.377C4.30356 12.4686 4.24414 12.4101 4.24414 12.3378C4.24414 12.2655 4.30356 12.207 4.377 12.207H11.6238C11.6973 12.207 11.7567 12.2655 11.7567 12.3378C11.7567 12.4101 11.6973 12.4686 11.6238 12.4686Z" fill="#044236" stroke="#044236" stroke-width="1.2" stroke-linecap="round" stroke-linejoin="round"/>
<path d="M11.6238 9.60918H4.377C4.30356 9.60918 4.24414 9.5507 4.24414 9.47842C4.24414 9.40614 4.30356 9.34766 4.377 9.34766H11.6238C11.6973 9.34766 11.7567 9.40614 11.7567 9.47842C11.7567 9.5507 11.6973 9.60918 11.6238 9.60918Z" fill="#044236" stroke="#044236" stroke-width="1.2" stroke-linecap="round" stroke-linejoin="round"/>
<path d="M11.6238 15.2811H4.377C4.30356 15.2811 4.24414 15.2226 4.24414 15.1503C4.24414 15.078 4.30356 15.0195 4.377 15.0195H11.6238C11.6973 15.0195 11.7567 15.078 11.7567 15.1503C11.7567 15.2226 11.6973 15.2811 11.6238 15.2811Z" fill="#044236" stroke="#044236" stroke-width="1.2" stroke-linecap="round" stroke-linejoin="round"/>
</svg>
