<svg width="370" height="348" viewBox="0 0 370 348" fill="none" xmlns="http://www.w3.org/2000/svg">
<g opacity="0.4">
<path d="M65.9314 148.509C65.9314 148.509 114.713 164.262 119.117 203.377C120.886 219.157 125.806 235.6 132.46 247.879" stroke="#D6CD56" stroke-width="0.75" stroke-miterlimit="10" stroke-linecap="round" stroke-linejoin="round"/>
<path d="M132.305 247.312C132.34 247.344 130.824 248.4 146.022 253.109C161.377 257.992 162.251 255.774 172.095 271.055C181.984 286.488 199.397 294.007 199.235 300.152C199.268 300.159 189.697 297.526 172.269 291.672C154.839 285.709 147.557 272.647 141.791 263.928C136.013 255.148 132.311 247.321 132.305 247.312Z" stroke="#D6CD56" stroke-width="0.75" stroke-miterlimit="10" stroke-linecap="round" stroke-linejoin="round"/>
<path d="M132.306 247.313C132.331 247.352 140.074 254.364 152.687 265.954C165.438 277.731 164.274 278.012 175.397 285.34C186.574 292.771 199.237 300.154 199.243 300.164" stroke="#D6CD56" stroke-width="0.75" stroke-miterlimit="10" stroke-linecap="round" stroke-linejoin="round"/>
<path d="M131.447 223.947C131.444 223.921 130.609 225.46 146.999 225.291C163.413 225.052 163.454 222.562 178.021 233.211C192.638 244.063 210.028 244.418 211.942 250.251C211.939 250.226 203.074 251.636 185.846 252.454C168.58 253.089 156.569 242.855 147.544 236.536C138.498 230.079 131.447 223.947 131.447 223.947Z" stroke="#D6CD56" stroke-width="0.75" stroke-miterlimit="10" stroke-linecap="round" stroke-linejoin="round"/>
<path d="M131.447 223.945C131.454 223.955 142.179 228.317 158.394 235.012C174.658 241.758 173.628 242.411 186.177 245.319C198.741 248.272 211.939 250.266 211.942 250.25" stroke="#D6CD56" stroke-width="0.75" stroke-miterlimit="10" stroke-linecap="round" stroke-linejoin="round"/>
<path d="M110.039 237.137C110.071 237.186 108.463 237.216 112.684 251.018C116.911 264.786 119.715 265.093 112.557 280.46C104.923 294.999 108.076 308.573 102.203 309.942C102.235 309.991 98.8345 302.453 94.3363 289.391C90.0649 276.736 98.1131 266.474 102.114 256.488C106.348 246.918 110.045 237.147 110.039 237.137Z" stroke="#D6CD56" stroke-width="0.6512" stroke-miterlimit="10" stroke-linecap="round" stroke-linejoin="round"/>
<path d="M110.039 237.137C110 237.079 108.927 249.057 106.124 264.528C103.177 279.76 102.145 278.66 101.917 289.134C101.587 299.454 102.19 309.923 102.203 309.942" stroke="#D6CD56" stroke-width="0.6512" stroke-miterlimit="10" stroke-linecap="round" stroke-linejoin="round"/>
<path d="M98.932 167.049C98.9258 166.997 98.2607 168.647 114.59 167.266C130.919 165.761 130.793 163.27 146.197 172.573C161.646 182.071 178.77 180.694 181.091 186.301C181.092 186.259 172.476 188.617 155.588 191.048C138.662 193.295 125.86 184.014 116.253 178.414C106.642 172.662 98.932 167.049 98.932 167.049Z" stroke="#D6CD56" stroke-width="0.75" stroke-miterlimit="10" stroke-linecap="round" stroke-linejoin="round"/>
<path d="M98.9306 167.051C98.937 167.061 110.126 170.671 126.877 176.025C143.64 181.399 142.654 182.119 155.312 183.884C167.973 185.676 181.09 186.303 181.1 186.296" stroke="#D6CD56" stroke-width="0.75" stroke-miterlimit="10" stroke-linecap="round" stroke-linejoin="round"/>
<path d="M119.303 204.885C119.303 204.885 124.947 219.472 132.346 224.192" stroke="#D6CD56" stroke-width="0.75" stroke-miterlimit="10" stroke-linecap="round" stroke-linejoin="round"/>
<path d="M116.204 191.371C116.204 191.371 118.817 215.138 109.555 238.682" stroke="#D6CD56" stroke-width="0.75" stroke-miterlimit="10" stroke-linecap="round" stroke-linejoin="round"/>
<path d="M344.074 1C358.545 33.6099 367.379 78.7778 339.565 123.456C287.041 207.813 149.579 135.616 78.981 144.829C18.3722 152.739 67.3657 240.183 1 293.186" stroke="#D6CD56" stroke-width="0.75" stroke-miterlimit="10" stroke-linecap="round" stroke-linejoin="round"/>
<path d="M76.2852 1.39075C76.2852 1.39075 86.9621 64.6262 189.03 91.2516" stroke="#D6CD56" stroke-width="0.75" stroke-miterlimit="10" stroke-linecap="round" stroke-linejoin="round"/>
<path d="M140.189 72.7908C140.189 72.7908 158.986 81.8819 183.299 70.2109" stroke="#D6CD56" stroke-width="0.75" stroke-miterlimit="10" stroke-linecap="round" stroke-linejoin="round"/>
<path d="M189.32 90.7938C189.287 90.7938 194.357 79.1228 216.314 84.5395C237.881 90.1013 245.732 107.412 246 107.334C246.022 107.267 232.218 112.293 214.595 110.294C197.161 108.25 189.544 90.7826 189.32 90.7938Z" stroke="#D6CD56" stroke-width="0.75" stroke-miterlimit="10" stroke-linecap="round" stroke-linejoin="round"/>
<path d="M189.32 90.7967C189.276 90.7632 201.237 89.6129 217.476 95.6103C233.614 101.619 245.955 107.348 246 107.326" stroke="#D6CD56" stroke-width="0.75" stroke-miterlimit="10" stroke-linecap="round" stroke-linejoin="round"/>
<path d="M141.328 83.5414C141.284 83.318 152.664 82.324 160.672 100.73C168.624 118.342 160.583 133.788 160.572 134.123C160.549 134.224 149.716 127.846 141.831 113.193C133.879 98.6299 141.273 83.4744 141.328 83.5414Z" stroke="#D6CD56" stroke-width="0.75" stroke-miterlimit="10" stroke-linecap="round" stroke-linejoin="round"/>
<path d="M141.328 83.5431C141.339 83.4873 148.911 92.1539 153.558 107.276C158.226 122.376 160.56 134.091 160.571 134.114" stroke="#D6CD56" stroke-width="0.75" stroke-miterlimit="10" stroke-linecap="round" stroke-linejoin="round"/>
<path d="M93.0481 81.3896C93.1263 81.6018 103.211 89.0511 95.4381 108.775C87.866 129.146 69.0696 136.93 69.0249 136.64C69.0249 136.662 66.5232 121.54 70.9347 103.537C75.2792 85.2986 93.0146 81.1774 93.0481 81.3896Z" stroke="#D6CD56" stroke-width="0.75" stroke-miterlimit="10" stroke-linecap="round" stroke-linejoin="round"/>
<path d="M93.0486 81.3859C93.0598 81.4752 92.4678 92.867 84.6611 108.492C76.8991 124.261 69.0589 136.703 69.0254 136.636" stroke="#D6CD56" stroke-width="0.75" stroke-miterlimit="10" stroke-linecap="round" stroke-linejoin="round"/>
<path d="M184.451 70.2432C184.563 70.2879 182.262 59.2647 198.791 50.7544C215.745 42.4451 231.28 50.5422 231.113 50.397C231.012 50.3859 223.864 60.3704 211.188 68.7802C198.3 77.257 184.384 70.2991 184.451 70.2432Z" stroke="#D6CD56" stroke-width="0.75" stroke-miterlimit="10" stroke-linecap="round" stroke-linejoin="round"/>
<path d="M184.451 70.2445C184.507 70.2669 191.677 62.6054 205.437 57.5461C219.241 52.4756 231.124 50.3983 231.113 50.3983" stroke="#D6CD56" stroke-width="0.75" stroke-miterlimit="10" stroke-linecap="round" stroke-linejoin="round"/>
<path d="M139.33 50.5883C139.408 50.6218 137.7 42.4242 149.996 36.0917C162.605 29.9156 174.153 35.9354 174.03 35.8237C173.963 35.8125 168.636 43.2507 159.221 49.505C149.639 55.8151 139.286 50.633 139.33 50.5883Z" stroke="#D6CD56" stroke-width="0.75" stroke-miterlimit="10" stroke-linecap="round" stroke-linejoin="round"/>
<path d="M139.33 50.5922C139.364 50.6034 144.702 44.9187 154.943 41.1438C165.207 37.38 174.041 35.8276 174.041 35.8276" stroke="#D6CD56" stroke-width="0.75" stroke-miterlimit="10" stroke-linecap="round" stroke-linejoin="round"/>
<path d="M128.061 65.7891C128.061 65.7891 133.433 66.7496 141.999 84.5073" stroke="#D6CD56" stroke-width="0.75" stroke-miterlimit="10" stroke-linecap="round" stroke-linejoin="round"/>
<path d="M98.0297 40.6367C98.0297 40.6367 102.039 58.0817 93.0039 80.3962" stroke="#D6CD56" stroke-width="0.75" stroke-miterlimit="10" stroke-linecap="round" stroke-linejoin="round"/>
<path d="M106.305 49.1016C106.305 49.1016 122.7 57.4332 138.492 50.5646" stroke="#D6CD56" stroke-width="0.75" stroke-miterlimit="10" stroke-linecap="round" stroke-linejoin="round"/>
<g opacity="0.5">
<path d="M288.751 117.668C289.869 116.716 290.063 115.219 289.999 113.574C290.054 111.495 289.657 110.784 286.349 112.743C283.077 114.979 283.669 117.566 284.528 118.01C286.034 119.035 287.827 118.481 288.751 117.668Z" fill="#D6CD56"/>
<path d="M297.417 106.484C298.535 105.532 298.729 104.035 298.665 102.391C298.72 100.311 298.323 99.5999 295.015 101.559C291.743 103.786 292.335 106.382 293.194 106.826C294.7 107.842 296.493 107.288 297.417 106.484Z" fill="#D6CD56"/>
<path d="M285.479 106.926C286.597 105.974 286.782 104.477 286.717 102.832C286.773 100.753 286.375 100.041 283.067 102C279.796 104.237 280.388 106.824 281.247 107.268C282.762 108.284 284.555 107.73 285.479 106.926Z" fill="#D6CD56"/>
<path d="M296.337 95.031C297.455 94.0792 297.649 92.5823 297.585 90.9374C297.64 88.8583 297.243 88.1468 293.935 90.1058C290.663 92.342 291.255 94.9294 292.114 95.3729C293.62 96.3894 295.413 95.8349 296.337 95.031Z" fill="#D6CD56"/>
<path d="M309.116 96.1599C310.234 95.2081 310.419 93.7112 310.354 92.0663C310.41 89.9872 310.012 89.2757 306.704 91.2347C303.433 93.4709 304.024 96.0583 304.884 96.5018C306.408 97.5183 308.201 96.9731 309.116 96.1599Z" fill="#D6CD56"/>
<path d="M300.902 118.594C302.021 117.642 302.205 116.145 302.15 114.5C302.205 112.421 301.808 111.71 298.5 113.669C295.219 115.905 295.82 118.492 296.679 118.936C298.186 119.952 299.978 119.398 300.902 118.594Z" fill="#D6CD56"/>
<path d="M310.049 110.239C311.168 109.288 311.352 107.791 311.288 106.137C311.343 104.058 310.946 103.346 307.638 105.305C304.366 107.541 304.958 110.138 305.817 110.572C307.333 111.598 309.125 111.043 310.049 110.239Z" fill="#D6CD56"/>
<path d="M304.978 142.929C306.096 141.977 306.29 140.48 306.225 138.835C306.281 136.756 305.883 136.045 302.575 138.004C299.304 140.24 299.895 142.827 300.755 143.271C302.261 144.287 304.054 143.733 304.978 142.929Z" fill="#D6CD56"/>
<path d="M313.646 131.738C314.764 130.786 314.958 129.289 314.893 127.644C314.949 125.565 314.551 124.854 311.243 126.813C307.972 129.049 308.563 131.646 309.423 132.08C310.929 133.096 312.722 132.542 313.646 131.738Z" fill="#D6CD56"/>
<path d="M301.706 132.185C302.824 131.233 303.018 129.736 302.954 128.082C303.009 126.003 302.612 125.291 299.304 127.25C296.033 129.487 296.624 132.083 297.483 132.518C298.989 133.543 300.782 132.989 301.706 132.185Z" fill="#D6CD56"/>
<path d="M312.554 120.281C313.672 119.329 313.866 117.832 313.801 116.187C313.857 114.108 313.459 113.397 310.151 115.356C306.88 117.592 307.472 120.179 308.331 120.623C309.846 121.649 311.639 121.094 312.554 120.281Z" fill="#D6CD56"/>
<path d="M325.343 121.419C326.461 120.467 326.655 118.97 326.59 117.316C326.646 115.237 326.249 114.526 322.94 116.485C319.669 118.721 320.261 121.318 321.12 121.752C322.626 122.778 324.419 122.223 325.343 121.419Z" fill="#D6CD56"/>
<path d="M317.128 143.851C318.246 142.9 318.44 141.403 318.376 139.758C318.431 137.679 318.034 136.958 314.726 138.926C311.454 141.162 312.046 143.75 312.905 144.193C314.411 145.21 316.204 144.655 317.128 143.851Z" fill="#D6CD56"/>
<path d="M326.276 135.491C327.395 134.539 327.589 133.042 327.524 131.398C327.579 129.319 327.182 128.607 323.874 130.566C320.603 132.802 321.194 135.39 322.054 135.833C323.56 136.859 325.352 136.304 326.276 135.491Z" fill="#D6CD56"/>
<path d="M323.939 110.339C325.057 109.387 325.251 107.89 325.186 106.245C325.242 104.166 324.844 103.454 321.536 105.413C318.265 107.65 318.856 110.237 319.716 110.681C321.222 111.706 323.015 111.152 323.939 110.339Z" fill="#D6CD56"/>
<path d="M332.605 99.1529C333.723 98.2011 333.917 96.7042 333.852 95.0501C333.908 92.971 333.51 92.2595 330.202 94.2185C326.931 96.4547 327.522 99.0513 328.382 99.4856C329.888 100.511 331.681 99.9569 332.605 99.1529Z" fill="#D6CD56"/>
<path d="M320.667 99.5979C321.785 98.6461 321.979 97.1491 321.905 95.4951C321.96 93.4159 321.563 92.7044 318.255 94.6634C314.984 96.8996 315.575 99.4962 316.434 99.9305C317.95 100.956 319.743 100.402 320.667 99.5979Z" fill="#D6CD56"/>
<path d="M331.524 87.7019C332.642 86.7501 332.827 85.2532 332.762 83.6083C332.818 81.5292 332.42 80.8177 329.112 82.7767C325.841 85.0129 326.432 87.6003 327.292 88.0438C328.807 89.0603 330.6 88.5058 331.524 87.7019Z" fill="#D6CD56"/>
<path d="M344.304 88.8308C345.422 87.879 345.616 86.3821 345.551 84.7373C345.607 82.6581 345.209 81.9466 341.901 83.9056C338.63 86.1418 339.222 88.7292 340.081 89.1727C341.587 90.1984 343.389 89.644 344.304 88.8308Z" fill="#D6CD56"/>
<path d="M336.089 111.266C337.207 110.314 337.401 108.817 337.327 107.163C337.382 105.084 336.985 104.372 333.677 106.331C330.406 108.568 330.997 111.164 331.856 111.598C333.372 112.624 335.164 112.07 336.089 111.266Z" fill="#D6CD56"/>
<path d="M345.237 102.912C346.356 101.96 346.55 100.463 346.485 98.8185C346.54 96.7394 346.143 96.0279 342.835 97.9869C339.564 100.223 340.155 102.81 341.015 103.254C342.521 104.27 344.313 103.716 345.237 102.912Z" fill="#D6CD56"/>
<path d="M341.468 136.011C342.586 135.06 342.78 133.563 342.715 131.918C342.771 129.839 342.374 129.127 339.065 131.086C335.794 133.322 336.386 135.91 337.245 136.353C338.751 137.37 340.544 136.815 341.468 136.011Z" fill="#D6CD56"/>
<path d="M350.136 124.818C351.254 123.866 351.448 122.369 351.383 120.715C351.439 118.636 351.041 117.924 347.733 119.883C344.462 122.119 345.054 124.716 345.913 125.15C347.419 126.176 349.212 125.622 350.136 124.818Z" fill="#D6CD56"/>
<path d="M338.196 125.259C339.314 124.308 339.499 122.811 339.434 121.157C339.49 119.077 339.092 118.366 335.784 120.325C332.513 122.561 333.104 125.158 333.964 125.592C335.479 126.618 337.281 126.063 338.196 125.259Z" fill="#D6CD56"/>
<path d="M349.053 113.363C350.171 112.411 350.356 110.914 350.292 109.269C350.347 107.19 349.95 106.479 346.642 108.438C343.37 110.674 343.962 113.261 344.821 113.705C346.337 114.721 348.129 114.167 349.053 113.363Z" fill="#D6CD56"/>
<path d="M315.917 84.3865C317.035 83.4347 317.22 81.9377 317.165 80.2929C317.22 78.2138 316.823 77.5023 313.515 79.4613C310.243 81.6975 310.835 84.2941 311.694 84.7284C313.21 85.7448 315.002 85.1904 315.917 84.3865Z" fill="#D6CD56"/>
<path d="M331.765 148.211C332.883 147.259 333.068 145.762 333.012 144.117C333.068 142.038 332.67 141.326 329.362 143.285C326.091 145.522 326.682 148.109 327.542 148.553C329.057 149.569 330.841 149.015 331.765 148.211Z" fill="#D6CD56"/>
<path d="M356.816 99.5697C357.934 98.6179 358.128 97.121 358.063 95.4761C358.119 93.397 357.721 92.6855 354.413 94.6445C351.142 96.8807 351.733 99.4681 352.593 99.9116C354.099 100.928 355.892 100.374 356.816 99.5697Z" fill="#D6CD56"/>
<path d="M302.769 80.4778C303.887 79.526 304.081 78.029 304.016 76.3749C304.072 74.2958 303.674 73.5843 300.366 75.5433C297.095 77.7795 297.686 80.3669 298.546 80.8104C300.052 81.8361 301.845 81.2817 302.769 80.4778Z" fill="#D6CD56"/>
<path d="M289.693 134.395C290.811 133.443 291.005 131.946 290.94 130.292C290.995 128.213 290.598 127.501 287.29 129.46C284.019 131.697 284.61 134.293 285.47 134.728C286.976 135.762 288.768 135.208 289.693 134.395Z" fill="#D6CD56"/>
<path d="M368.319 102.634C369.438 101.682 369.632 100.185 369.567 98.5312C369.622 96.4521 369.225 95.7406 365.917 97.6995C362.646 99.9358 363.237 102.532 364.097 102.967C365.612 104.002 367.405 103.447 368.319 102.634Z" fill="#D6CD56"/>
<path d="M361.833 114.501C362.951 113.55 363.145 112.053 363.081 110.399C363.136 108.319 362.739 107.608 359.431 109.567C356.159 111.803 356.751 114.4 357.61 114.834C359.116 115.86 360.918 115.305 361.833 114.501Z" fill="#D6CD56"/>
<path d="M353.618 136.928C354.736 135.976 354.921 134.479 354.856 132.825C354.911 130.746 354.514 130.034 351.206 131.993C347.935 134.229 348.526 136.826 349.386 137.26C350.901 138.286 352.694 137.732 353.618 136.928Z" fill="#D6CD56"/>
<path d="M362.767 128.574C363.885 127.622 364.079 126.125 364.014 124.48C364.07 122.401 363.672 121.69 360.364 123.649C357.093 125.885 357.684 128.472 358.544 128.916C360.05 129.932 361.852 129.378 362.767 128.574Z" fill="#D6CD56"/>
</g>
</g>
</svg>
