<svg width="42" height="42" viewBox="0 0 42 42" fill="none" xmlns="http://www.w3.org/2000/svg">
<circle cx="21" cy="21" r="21" fill="#3D857E"/>
<path d="M12.6126 30.1875H12.7049L15.3932 29.8759C15.5736 29.856 15.7419 29.7757 15.8706 29.6482L29.8375 15.6593C30.0617 15.4347 30.1875 15.131 30.1875 14.8144C30.1875 14.4978 30.0617 14.1941 29.8375 13.9696L28.0359 12.164C27.8144 11.9431 27.5149 11.817 27.2014 11.8125C27.0427 11.8121 26.8855 11.843 26.7388 11.9033C26.5921 11.9636 26.4589 12.0522 26.3468 12.164L12.3518 26.145C12.2238 26.2731 12.1431 26.4407 12.1231 26.6204L11.8182 29.2967C11.8038 29.4166 11.8169 29.5383 11.8565 29.6524C11.8961 29.7666 11.9612 29.8703 12.0469 29.9558C12.1973 30.1044 12.4007 30.1877 12.6126 30.1875ZM27.2014 12.6114C27.2542 12.6111 27.3065 12.6212 27.3554 12.6411C27.4043 12.6609 27.4488 12.6902 27.4863 12.7273L29.2878 14.5328C29.3625 14.6076 29.4045 14.7089 29.4045 14.8144C29.4045 14.9199 29.3625 15.0212 29.2878 15.096L15.2888 29.077L12.6126 29.3806L12.9216 26.7042L26.9165 12.7233C26.9929 12.65 27.0953 12.6097 27.2014 12.6114Z" fill="#D6CD56" stroke="#D6CD56"/>
<path d="M25.0502 14.0553L27.9414 17.0273L27.3688 17.5844L24.4775 14.6124L25.0502 14.0553Z" fill="#D6CD56" stroke="#D6CD56"/>
</svg>
