<svg width="20" height="20" viewBox="0 0 20 20" fill="none" xmlns="http://www.w3.org/2000/svg">
<path fill-rule="evenodd" clip-rule="evenodd" d="M14.728 2.94281L16.6136 4.82843C17.1343 5.34913 17.1343 6.19335 16.6136 6.71404L7.6569 15.6707C7.40685 15.9208 7.06771 16.0613 6.71409 16.0613L4.82847 16.0613C4.09209 16.0613 3.49514 15.4643 3.49514 14.7279L3.49514 12.8423C3.49514 12.4887 3.63561 12.1495 3.88566 11.8995L12.8423 2.94281C13.363 2.42211 14.2073 2.42211 14.728 2.94281ZM11.6981 5.97269L4.82843 12.8424L4.82843 14.728L6.71405 14.728L13.5837 7.85831L11.6981 5.97269ZM12.6409 5.02989L14.5265 6.9155L15.6707 5.7713L13.7851 3.88568L12.6409 5.02989Z" fill="#3D857E"/>
</svg>
