<svg width="16" height="16" viewBox="0 0 16 16" fill="none" xmlns="http://www.w3.org/2000/svg">
<path d="M1.60913 15H1.67944L3.72763 14.7626C3.86511 14.7474 3.99335 14.6863 4.09141 14.5891L14.7328 3.93087C14.9036 3.7598 14.9995 3.52839 14.9995 3.28718C14.9995 3.04596 14.9036 2.81455 14.7328 2.64348L13.3602 1.26783C13.1914 1.0995 12.9633 1.00341 12.7244 1C12.6035 0.999708 12.4837 1.02322 12.3719 1.06918C12.2602 1.11515 12.1587 1.18266 12.0732 1.26783L1.41042 11.92C1.31286 12.0176 1.25143 12.1453 1.23617 12.2822L1.00384 14.3213C0.992867 14.4127 1.00284 14.5053 1.03303 14.5923C1.06321 14.6793 1.11281 14.7583 1.17809 14.8235C1.29272 14.9367 1.44767 15.0001 1.60913 15ZM12.7244 1.6087C12.7646 1.60847 12.8045 1.61614 12.8417 1.63129C12.879 1.64644 12.9129 1.66875 12.9414 1.69696L14.314 3.07261C14.371 3.12963 14.4029 3.20677 14.4029 3.28718C14.4029 3.36758 14.371 3.44472 14.314 3.50174L3.64814 14.1539L1.60913 14.3852L1.84451 12.3461L12.5073 1.69392C12.5655 1.63806 12.6436 1.60742 12.7244 1.6087Z" fill="#D6CD56" stroke="#D6CD56"/>
<path d="M11.0863 2.70823L13.2892 4.97266L12.8528 5.39709L10.65 3.13266L11.0863 2.70823Z" fill="#D6CD56" stroke="#D6CD56"/>
</svg>
