<svg width="314" height="200" viewBox="0 0 314 200" fill="none" xmlns="http://www.w3.org/2000/svg">
<g filter="url(#filter0_d_984_3733)">
<path d="M269.059 85.0747C269.939 85.113 270.399 85.1513 271.279 85.1896C271.623 83.6972 271.814 82.9318 272.159 81.4395C275.871 99.3863 279.621 117.295 283.486 135.204C281.955 137.423 281.19 138.494 279.659 140.714C276.062 122.155 272.503 103.634 269.059 85.0747Z" fill="#68578C"/>
<path d="M217.362 145C238.178 144.005 258.919 142.589 279.659 140.714C276.062 122.193 272.542 103.634 269.098 85.1133C252.911 86.4909 236.724 87.6006 220.499 88.4425C219.543 107.308 218.51 126.135 217.362 145ZM253.868 87.7919C253.868 87.2179 254.327 86.7587 254.901 86.7587C255.475 86.7587 255.934 87.2179 255.934 87.7919C255.934 88.3659 255.475 88.8251 254.901 88.8251C254.327 88.8251 253.868 88.3659 253.868 87.7919ZM233.74 89.1695C233.74 88.5955 234.199 88.1363 234.773 88.1363C235.347 88.1363 235.806 88.5955 235.806 89.1695C235.806 89.7435 235.347 90.2027 234.773 90.2027C234.199 90.2027 233.74 89.7435 233.74 89.1695Z" fill="#7C6E99"/>
<path d="M224.096 85.1896C223.714 86.5289 223.484 87.2942 223.14 88.4422C238.446 87.5621 253.753 86.4523 269.021 85.113C269.978 85.2278 270.475 85.3044 271.432 85.4192C271.7 83.812 271.853 83.0084 272.12 81.4395C256.163 82.9318 240.13 84.1946 224.096 85.1896ZM254.288 84.3094C254.288 83.8502 254.671 83.4676 255.13 83.4676C255.589 83.4676 255.972 83.8502 255.972 84.3094C255.972 84.7686 255.589 85.1513 255.13 85.1513C254.633 85.1513 254.288 84.7686 254.288 84.3094ZM236.916 85.5722C236.916 85.113 237.298 84.7304 237.757 84.7304C238.217 84.7304 238.599 85.113 238.599 85.5722C238.599 86.0314 238.217 86.4141 237.757 86.4141C237.298 86.4141 236.916 86.0697 236.916 85.5722Z" fill="#483864"/>
<path d="M258.192 76.9244L262.133 80.4449L275.411 77.728L274.723 74.3605L274.378 72.7151L273.689 69.3477L260.411 72.1028L258.192 76.9244Z" fill="#483864"/>
<path d="M256.355 79.258C258.153 79.105 259.607 78.3396 259.99 77.4212L259.416 77.383C259.11 78.1483 257.885 78.8371 256.316 78.9519C254.48 79.1049 252.949 78.4544 252.873 77.536C252.796 76.5794 254.212 75.6993 256.01 75.5462C257.579 75.3931 258.919 75.8523 259.34 76.5794V76.5028L259.99 76.6176C259.607 75.661 257.962 75.0487 256.01 75.2401C253.867 75.4314 252.184 76.4646 252.299 77.6126C252.375 78.7223 254.212 79.4494 256.355 79.258Z" fill="#483864"/>
<path d="M237.681 87.0262C237.681 86.9114 237.681 86.7966 237.643 86.6435C237.298 80.4444 239.939 72.2554 245.487 71.7579C250.998 71.2987 254.557 78.952 254.901 85.1511C254.901 85.2659 254.901 85.2659 254.901 85.3807C254.978 85.3807 255.016 85.3807 255.054 85.3807C255.054 85.2659 255.054 85.2659 255.054 85.1511C254.671 78.8372 251.074 71.0309 245.449 71.4901C239.824 71.9875 237.145 80.3678 237.452 86.6435C237.452 86.7583 237.452 86.9114 237.49 87.0262C237.566 87.0644 237.605 87.0262 237.681 87.0262Z" stroke="#483864" stroke-width="1.5361" stroke-miterlimit="10"/>
<path d="M234.811 90.3169C234.811 90.1638 234.772 90.049 234.772 89.896C234.428 83.1611 237.374 74.0537 243.765 73.518C250.117 73.0206 254.135 81.5539 254.556 88.2888C254.556 88.4419 254.556 88.5184 254.556 88.6332C254.633 88.6332 254.671 88.5949 254.747 88.5949C254.747 88.4419 254.747 88.4036 254.709 88.2505C254.288 81.4774 250.27 72.6379 243.688 73.1736C237.107 73.7094 234.16 83.0846 234.505 89.8577C234.505 90.0108 234.505 90.1256 234.543 90.2786C234.696 90.3169 234.734 90.3169 234.811 90.3169Z" stroke="#7C6E99" stroke-width="1.4958" stroke-miterlimit="10"/>
<path opacity="0.2" d="M243.459 87.1034L246.214 86.9121L257.273 142.551L253.293 142.857L243.459 87.1034Z" fill="#7C6E99"/>
<path d="M44.8571 84.1939C43.9769 84.2322 43.5177 84.2704 42.6376 84.3087C42.2932 82.8163 42.1019 82.051 41.7575 80.5586C38.0457 98.5055 34.2956 116.414 30.4307 134.323C31.9613 136.542 32.7266 137.614 34.2573 139.833C37.8543 121.312 41.4131 102.753 44.8571 84.1939Z" fill="#F24E4E"/>
<path d="M76.2352 86.1844C76.2352 86.0696 76.2352 85.9548 76.2735 85.8017C76.6179 79.6026 73.9775 71.4136 68.4289 70.9161C62.9185 70.4569 59.3598 78.1102 59.0154 84.3093C59.0154 84.4241 59.0154 84.4241 59.0154 84.5389C58.9388 84.5389 58.9006 84.5389 58.8623 84.5389C58.8623 84.4241 58.8623 84.4241 58.8623 84.3093C59.245 77.9954 62.842 70.1891 68.4671 70.6483C74.0923 71.1457 76.7709 79.526 76.4648 85.8017C76.4648 85.9165 76.4648 86.0696 76.4265 86.1844C76.35 86.1844 76.3117 86.1844 76.2352 86.1844Z" stroke="#E03232" stroke-width="1.5361" stroke-miterlimit="10"/>
<path d="M93.417 87.6006C77.1921 86.7588 61.0055 85.6491 44.8188 84.2715C41.3749 102.831 37.8544 121.352 34.2573 139.872C54.9976 141.709 75.7762 143.163 96.5548 144.158C95.4068 125.293 94.3737 106.428 93.417 87.6006ZM59.0156 87.9833C58.4416 87.9833 57.9824 87.5241 57.9824 86.9501C57.9824 86.3761 58.4416 85.9169 59.0156 85.9169C59.5896 85.9169 60.0488 86.3761 60.0488 86.9501C60.0488 87.5241 59.5896 87.9833 59.0156 87.9833ZM79.1437 89.3609C78.5697 89.3609 78.1105 88.9017 78.1105 88.3277C78.1105 87.7537 78.5697 87.2945 79.1437 87.2945C79.7177 87.2945 80.1769 87.7537 80.1769 88.3277C80.1769 88.9017 79.7177 89.3609 79.1437 89.3609Z" fill="#FC6565"/>
<path d="M41.7954 80.5977C42.0633 82.2048 42.2163 83.0084 42.4842 84.5773C43.4409 84.4625 43.9383 84.386 44.895 84.2712C60.1632 85.6105 75.4697 86.7203 90.7762 87.6004C90.4319 86.4524 90.2023 85.6871 89.8196 84.3477C73.786 83.3528 57.7524 82.09 41.7954 80.5977ZM58.7856 84.3095C58.3264 84.3095 57.9438 83.9268 57.9438 83.4676C57.9438 83.0084 58.3264 82.6258 58.7856 82.6258C59.2448 82.6258 59.6275 83.0084 59.6275 83.4676C59.6275 83.9268 59.2448 84.3095 58.7856 84.3095ZM76.1585 85.5723C75.6993 85.5723 75.3167 85.1896 75.3167 84.7304C75.3167 84.2712 75.6993 83.8886 76.1585 83.8886C76.6177 83.8886 77.0004 84.2712 77.0004 84.7304C77.0004 85.1896 76.6177 85.5723 76.1585 85.5723Z" fill="#E03232"/>
<path d="M93.3404 87.7527C92.4603 87.7144 91.6184 87.6379 90.7383 87.5996C90.7765 87.7909 90.8531 88.0205 90.9296 88.2119C91.8863 88.0205 92.3837 87.944 93.3404 87.7527Z" fill="#E03232"/>
<path d="M79.1057 89.7435C79.1057 89.5904 79.1439 89.4756 79.1439 89.3226C79.4883 82.4729 76.5418 73.2125 70.1514 72.6767C63.7992 72.141 59.7812 80.8657 59.3603 87.6771C59.3603 87.8302 59.3603 87.9067 59.3603 88.0598C59.2837 88.0598 59.2455 88.0215 59.1689 88.0215C59.1689 87.8684 59.1689 87.8302 59.2072 87.6771C59.6281 80.7892 63.6461 71.8349 70.2279 72.3706C76.8097 72.9063 79.7562 82.4346 79.4118 89.3226C79.4118 89.4756 79.4118 89.5904 79.3735 89.7435C79.2205 89.7435 79.1822 89.7435 79.1057 89.7435Z" stroke="#FC6565" stroke-width="1.5076" stroke-miterlimit="10"/>
<path d="M57.485 89.666L52.8548 91.2349L48.9517 103.021L51.9364 104.016L53.4288 104.513L56.4136 105.47L60.3167 93.684L57.485 89.666Z" fill="#E03232"/>
<path d="M60.1251 88.5184C61.0435 86.5285 60.7757 85.2658 60.1634 84.6152L60.0103 85.4188C60.5461 85.9546 60.2399 86.9112 59.6659 88.3653C59.0537 89.9342 57.8674 91.0822 57.0638 90.7761C56.2602 90.47 56.1072 88.9776 56.796 87.4087C57.5996 85.5719 58.3649 85.1892 59.1302 85.151L59.092 84.9979L59.2833 84.3856C57.9057 84.3474 57.0256 85.5719 56.4133 87.2556C55.7245 89.0924 55.9541 90.8909 56.9108 91.2736C57.8674 91.6562 59.3215 90.3169 60.1251 88.5184Z" fill="#E03232"/>
<path opacity="0.2" d="M70.6866 86.337L68.0845 86.1074L57.1021 141.747L60.9669 141.976L70.6866 86.337Z" fill="#E03232"/>
<path d="M76.2737 82.5893C75.164 82.6658 74.6283 82.7423 73.5568 82.8189C73.0593 80.9438 72.8297 80.0254 72.3323 78.1504C68.2378 100.651 64.0668 123.113 59.7427 145.537C61.6943 148.254 62.6892 149.594 64.679 152.272C68.6205 129.083 72.5236 105.855 76.2737 82.5893Z" fill="#FCBB65"/>
<path d="M115.113 84.0812C115.113 83.9281 115.113 83.775 115.152 83.622C115.381 75.9687 111.976 65.6368 105.049 65.2924C98.0849 64.948 94.0287 74.859 93.7608 82.5122C93.7608 82.6653 93.7608 82.6653 93.7608 82.8184C93.6843 82.8184 93.646 82.8184 93.5312 82.8184C93.5312 82.6653 93.5312 82.6653 93.5312 82.5122C93.8374 74.7059 97.9701 64.5654 105.049 64.948C112.129 65.3307 115.573 75.8539 115.381 83.6602C115.381 83.8133 115.381 83.9663 115.343 84.1194C115.266 84.0811 115.228 84.0812 115.113 84.0812Z" stroke="#F9A33D" stroke-width="1.9245" stroke-miterlimit="10"/>
<path d="M72.332 78.1875C72.7147 80.1773 72.906 81.1723 73.2887 83.1621C74.4749 82.9708 75.0872 82.8943 76.2735 82.7029C95.2535 83.9274 114.234 84.7693 133.252 85.2285C132.793 83.7744 132.487 82.856 131.951 81.2105C112.052 80.56 92.1922 79.5651 72.332 78.1875ZM93.3785 82.8177C92.6514 82.8177 92.0392 82.2055 92.0392 81.4784C92.0392 80.7513 92.6514 80.1391 93.3785 80.1391C94.1055 80.1391 94.7178 80.7513 94.7178 81.4784C94.7178 82.2437 94.1055 82.8177 93.3785 82.8177ZM115.19 83.6213C114.463 83.6213 113.851 83.0091 113.851 82.282C113.851 81.5549 114.463 80.9427 115.19 80.9427C115.917 80.9427 116.53 81.5549 116.53 82.282C116.53 83.0091 115.917 83.6213 115.19 83.6213Z" fill="#F9A33D"/>
<path d="M136.505 85.266C135.433 85.2277 134.362 85.2277 133.291 85.1895C133.367 85.4191 133.444 85.6869 133.558 85.9548C134.706 85.6869 135.28 85.5338 136.505 85.266Z" fill="#BA8E67"/>
<path d="M136.582 85.076C116.415 84.6933 96.3256 83.8897 76.1975 82.627C72.4474 105.893 68.5825 129.12 64.6411 152.31C90.7004 154.032 116.76 155.065 142.857 155.448C140.638 132.029 138.533 108.571 136.582 85.076ZM93.8 87.6016C92.9199 87.6016 92.2311 86.9128 92.2311 86.0326C92.2311 85.1525 92.9199 84.4637 93.8 84.4637C94.6801 84.4637 95.3689 85.1525 95.3689 86.0326C95.3689 86.9128 94.6801 87.6016 93.8 87.6016ZM118.903 88.7496C118.023 88.7496 117.334 88.0608 117.334 87.1806C117.334 86.3005 118.023 85.6117 118.903 85.6117C119.783 85.6117 120.472 86.3005 120.472 87.1806C120.472 88.0608 119.745 88.7496 118.903 88.7496Z" fill="#FECD80"/>
<path d="M118.787 88.9414C118.787 88.7501 118.787 88.597 118.826 88.4057C119.055 79.7958 115.267 67.8185 107.193 67.3975C99.0803 67.0149 94.5649 78.5713 94.2205 87.1812C94.2205 87.3725 94.2205 87.4873 94.2205 87.6404C94.1057 87.6021 94.0674 87.6021 93.9526 87.6021C93.9526 87.4108 93.9526 87.3343 93.9526 87.1812C94.297 78.3799 98.9273 66.5939 107.155 67.0149C115.42 67.4358 119.247 79.6427 119.017 88.444C119.017 88.6353 119.017 88.7884 118.979 88.9797C118.941 88.9414 118.902 88.9414 118.787 88.9414Z" stroke="#FECD80" stroke-width="1.911" stroke-miterlimit="10"/>
<path opacity="0.2" d="M105.28 84.2342L99.2335 83.8516L86.9883 153.649L95.9809 153.994L105.28 84.2342Z" fill="#FECD80"/>
<path d="M199.108 84.0812C199.108 83.9281 199.108 83.775 199.07 83.622C198.84 75.9687 202.246 65.6368 209.172 65.2924C216.136 64.948 220.193 74.859 220.46 82.5122C220.46 82.6653 220.46 82.6653 220.46 82.8184C220.537 82.8184 220.575 82.8184 220.69 82.8184C220.69 82.6653 220.69 82.6653 220.69 82.5122C220.384 74.7059 216.251 64.5654 209.172 64.948C202.093 65.3307 198.61 75.8539 198.84 83.6602C198.84 83.8133 198.84 83.9663 198.878 84.1194C198.993 84.0811 199.031 84.0812 199.108 84.0812Z" stroke="#4E9B72" stroke-width="1.9245" stroke-miterlimit="10"/>
<path d="M182.271 81.1344C181.735 82.7798 181.429 83.7365 180.97 85.1523C199.988 84.6931 218.968 83.8513 237.948 82.6267C239.135 82.8181 239.747 82.8946 240.933 83.0859C241.316 81.0961 241.507 80.1012 241.89 78.1113C222.068 79.5654 202.169 80.5604 182.271 81.1344ZM219.542 81.517C219.542 80.79 220.155 80.1777 220.882 80.1777C221.609 80.1777 222.221 80.79 222.221 81.517C222.221 82.2441 221.609 82.8563 220.882 82.8563C220.155 82.8563 219.542 82.2441 219.542 81.517ZM197.731 82.2824C197.731 81.5553 198.343 80.943 199.07 80.943C199.797 80.943 200.409 81.5553 200.409 82.2824C200.409 83.0094 199.797 83.6217 199.07 83.6217C198.305 83.6217 197.731 83.0094 197.731 82.2824Z" fill="#4E9B72"/>
<path d="M177.756 85.2679C178.827 85.2297 179.899 85.2297 180.97 85.1914C180.893 85.421 180.817 85.6889 180.702 85.9567C179.554 85.6889 178.942 85.5358 177.756 85.2679Z" fill="#BA8E67"/>
<path d="M171.403 155.487C197.501 155.142 223.56 154.109 249.62 152.349C245.64 129.121 241.813 105.894 238.063 82.666C217.935 83.8905 197.807 84.6941 177.679 85.1151C175.689 108.572 173.623 132.03 171.403 155.487ZM218.892 86.0334C218.892 85.1533 219.581 84.4645 220.461 84.4645C221.341 84.4645 222.03 85.1533 222.03 86.0334C222.03 86.9136 221.341 87.6024 220.461 87.6024C219.581 87.6024 218.892 86.9136 218.892 86.0334ZM193.789 87.1814C193.789 86.3013 194.478 85.6125 195.358 85.6125C196.238 85.6125 196.927 86.3013 196.927 87.1814C196.927 88.0616 196.238 88.7504 195.358 88.7504C194.478 88.7504 193.789 88.0616 193.789 87.1814Z" fill="#71C99D"/>
<path d="M195.434 88.9414C195.434 88.7501 195.434 88.597 195.396 88.4057C195.166 79.7958 198.955 67.8185 207.029 67.3975C215.141 67.0149 219.657 78.5713 220.001 87.1812C220.001 87.3725 220.001 87.4873 220.001 87.6404C220.116 87.6021 220.154 87.6021 220.269 87.6021C220.269 87.4108 220.269 87.3343 220.269 87.1812C219.925 78.3799 215.294 66.5939 207.067 67.0149C198.802 67.4358 194.975 79.6427 195.205 88.444C195.205 88.6353 195.205 88.7884 195.243 88.9797C195.281 88.9414 195.358 88.9414 195.434 88.9414Z" stroke="#71C99D" stroke-width="1.911" stroke-miterlimit="10"/>
<path opacity="0.2" d="M208.942 84.2342L214.988 83.8516L227.195 153.611L218.279 153.994L208.942 84.2342Z" fill="#FECD80"/>
<path d="M222.221 89.8594L218.815 95.7906L225.741 111.862L229.797 110.102L231.787 109.222L235.843 107.5L228.917 91.4283L222.221 89.8594Z" fill="#4E9B72"/>
<path d="M223.713 86.4536C222.871 84.2724 221.417 82.7418 220.154 82.627L220.269 83.354C221.34 83.4305 222.603 84.7316 223.33 86.6066C224.172 88.8261 223.943 90.969 222.795 91.3899C221.647 91.8491 220.039 90.395 219.198 88.2138C218.47 86.3388 218.547 84.502 219.274 83.7367L219.198 83.4305L219.083 82.9331C218.05 83.7367 217.896 86.0327 218.815 88.3669C219.81 90.969 221.723 92.6527 223.062 92.117C224.44 91.5813 224.708 89.0557 223.713 86.4536Z" fill="#4E9B72"/>
<path d="M237.986 82.5893C239.096 82.6658 239.632 82.7423 240.703 82.8189C241.201 80.9438 241.43 80.0254 241.928 78.1504C246.022 100.651 250.193 123.113 254.517 145.537C252.566 148.254 251.571 149.594 249.581 152.272C245.601 129.083 241.736 105.855 237.986 82.5893Z" fill="#5EAA82"/>
<path d="M111.517 74.4367C111.785 73.7097 112.129 72.2555 112.512 70.4953C112.014 70.4953 111.479 70.457 110.981 70.457C112.741 70.9545 109.718 73.901 111.517 74.4367Z" fill="#E03232"/>
<path d="M115.764 54.9982C114.961 57.1794 113.583 65.2918 112.512 70.496C142.512 71.4144 171.633 73.4808 201.672 72.6389C203.471 72.9833 202.935 61.5417 204.733 61.9244C205.422 58.9013 205.767 57.3707 206.455 54.3477C176.187 55.4191 145.995 55.6487 115.764 54.9982ZM141.25 59.7432C140.331 59.7432 139.604 59.0161 139.604 58.0977C139.604 57.1794 140.331 56.4523 141.25 56.4523C142.168 56.4523 142.895 57.1794 142.895 58.0977C142.895 59.0161 142.168 59.7432 141.25 59.7432ZM174.427 59.7432C173.508 59.7432 172.781 59.0161 172.781 58.0977C172.781 57.1794 173.508 56.4523 174.427 56.4523C175.345 56.4523 176.072 57.1794 176.072 58.0977C176.072 59.0161 175.345 59.7432 174.427 59.7432Z" fill="#E03232"/>
<path d="M141.364 59.7814C141.364 59.5518 141.364 59.3222 141.364 59.0926C141.479 47.9188 146.913 32.4975 157.666 32.5358C168.418 32.5741 173.814 47.9571 173.89 59.1691C173.89 59.3987 173.89 59.3987 173.89 59.6283C174.005 59.6283 174.082 59.6283 174.197 59.6283C174.197 59.3987 174.197 59.3987 174.197 59.1691C174.12 47.7658 168.61 32.0383 157.627 32.0001C146.683 31.9618 141.096 47.651 140.981 59.0926C140.981 59.3222 140.981 59.5518 140.981 59.7814C141.173 59.7814 141.249 59.7814 141.364 59.7814Z" stroke="#E03232" stroke-width="2.9186" stroke-miterlimit="10"/>
<path d="M200.333 60.9674C169.72 61.7328 139.107 61.6562 108.494 60.623C103.634 96.5168 98.5062 132.372 93.1489 168.19C133.558 169.835 173.929 169.988 214.338 168.687C209.44 132.832 204.772 96.9377 200.333 60.9674ZM135.28 66.6309C134.17 66.6309 133.29 65.7507 133.29 64.641C133.29 63.5313 134.17 62.6512 135.28 62.6512C136.39 62.6512 137.27 63.5313 137.27 64.641C137.27 65.7507 136.352 66.6309 135.28 66.6309ZM173.24 66.6309C172.131 66.6309 171.25 65.7507 171.25 64.641C171.25 63.5313 172.131 62.6512 173.24 62.6512C174.35 62.6512 175.23 63.5313 175.23 64.641C175.23 65.7507 174.35 66.6309 173.24 66.6309Z" fill="#FC6565"/>
<path d="M164.305 91.2323C162.858 91.4877 161.751 92.7645 161.751 94.2966C161.751 95.7011 162.411 96.68 163.986 97.2758C176.477 101.936 183.968 114.789 179.648 126.813C175.839 137.431 165.688 145.071 153.707 145.071C141.727 145.071 131.576 137.431 127.767 126.813C123.447 114.811 130.938 101.936 143.429 97.2758C145.004 96.68 145.663 95.7011 145.663 94.2754C145.663 92.7432 144.557 91.4877 143.11 91.2323C138.854 90.4875 124.468 100.489 124.596 117.641C124.702 133.878 137.832 146.603 153.729 146.603C169.625 146.603 182.691 133.878 182.818 117.641C182.904 100.468 168.561 90.4875 164.305 91.2323Z" fill="#F8F3E8"/>
<path d="M129.596 124.472C130.362 121.407 132.064 118.024 134.299 115.151C136.405 112.427 138.576 110.725 139.917 110.725C140.619 110.725 141.278 110.98 141.747 111.448C142.194 111.895 142.449 112.491 142.449 113.129C142.449 114.193 141.959 114.874 140.832 115.385C136.256 117.428 132.383 120.556 129.596 124.472Z" fill="#F8F3E8"/>
<path d="M128.511 121.408C127.724 114.428 131.405 108.937 133.682 106.299C136.513 103 139.556 101.234 141.109 101.191H141.194C142.663 101.191 143.854 102.404 143.854 103.873C143.854 105.064 143.322 105.83 142.152 106.362C135.661 109.214 131.065 114.279 128.511 121.408Z" fill="#F8F3E8"/>
<path d="M178.133 124.472C177.367 121.407 175.665 118.024 173.431 115.151C171.324 112.427 169.153 110.725 167.813 110.725C167.11 110.725 166.451 110.98 165.983 111.448C165.536 111.895 165.28 112.491 165.28 113.129C165.28 114.193 165.77 114.874 166.898 115.385C171.452 117.428 175.324 120.556 178.133 124.472Z" fill="#F8F3E8"/>
<path d="M178.856 121.408C179.643 114.428 175.962 108.937 173.685 106.299C170.854 103 167.811 101.234 166.258 101.191H166.173C164.704 101.191 163.513 102.404 163.513 103.873C163.513 105.064 164.045 105.83 165.215 106.362C171.684 109.214 176.281 114.279 178.856 121.408Z" fill="#F8F3E8"/>
<path d="M172.322 66.4406C172.59 66.5554 172.896 66.632 173.202 66.632C173.432 66.632 173.623 66.5937 173.814 66.5554C173.814 66.5172 173.814 66.5172 173.814 66.4789V66.2493C173.776 59.1318 171.978 51.402 168.993 45.5855C165.319 38.3532 160.23 34.5265 154.299 34.4883H154.222C148.291 34.4883 143.201 38.2766 139.49 45.4707C136.505 51.2872 134.63 58.9787 134.553 66.058C134.553 66.211 134.553 66.4024 134.553 66.5554C134.783 66.632 134.974 66.6702 135.204 66.6702C135.472 66.6702 135.778 66.6319 136.007 66.5171C136.007 66.3641 136.007 66.2493 136.007 66.0962C136.16 54.0424 142.053 36.2103 154.184 36.2103H154.222C166.391 36.2485 172.207 54.1571 172.284 66.2493C172.322 66.2876 172.322 66.3641 172.322 66.4406Z" fill="#FC6565"/>
<path d="M200.218 60.8904C201.863 61.0817 202.705 61.1965 204.351 61.3879C205.193 58.5562 205.614 57.1403 206.455 54.3086C211.468 89.0926 216.749 123.838 222.298 158.546C219.657 161.913 217.017 165.319 214.338 168.687C209.402 132.793 204.657 96.8607 200.218 60.8904Z" fill="#F24E4E"/>
</g>
<defs>
<filter id="filter0_d_984_3733" x="0.430664" y="0.541016" width="313.055" height="199.016" filterUnits="userSpaceOnUse" color-interpolation-filters="sRGB">
<feFlood flood-opacity="0" result="BackgroundImageFix"/>
<feColorMatrix in="SourceAlpha" type="matrix" values="0 0 0 0 0 0 0 0 0 0 0 0 0 0 0 0 0 0 127 0" result="hardAlpha"/>
<feOffset/>
<feGaussianBlur stdDeviation="15"/>
<feColorMatrix type="matrix" values="0 0 0 0 0.0156863 0 0 0 0 0.258824 0 0 0 0 0.211765 0 0 0 0.15 0"/>
<feBlend mode="normal" in2="BackgroundImageFix" result="effect1_dropShadow_984_3733"/>
<feBlend mode="normal" in="SourceGraphic" in2="effect1_dropShadow_984_3733" result="shape"/>
</filter>
</defs>
</svg>
