<svg width="140" height="140" viewBox="0 0 140 140" fill="none" xmlns="http://www.w3.org/2000/svg">
<mask id="mask0_568_4023" style="mask-type:alpha" maskUnits="userSpaceOnUse" x="0" y="0" width="140" height="140">
<circle cx="70" cy="70" r="70" fill="#C4C4C4"/>
</mask>
<g mask="url(#mask0_568_4023)">
<circle opacity="0.1" cx="70" cy="70" r="70" fill="#3D857E"/>
<path fill-rule="evenodd" clip-rule="evenodd" d="M66.8279 22.3647C67.0791 23.6247 67.6626 24.3952 69.0942 24.4474C69.0942 24.4474 69.0969 24.4428 69.1015 24.4455C69.1015 24.4455 69.1062 24.4482 69.1089 24.4435C70.457 23.9645 70.7831 23.0564 70.6438 21.7742L68.2889 19.1262L68.2876 19.1069L68.2822 19.1162L68.2756 19.1062L68.2769 19.1255L66.8279 22.3647Z" fill="white" stroke="#3D857E" stroke-width="1.1339" stroke-miterlimit="22.9256"/>
<path fill-rule="evenodd" clip-rule="evenodd" d="M67.0399 18.3495C61.2892 26.9903 69.2435 25.4009 67.9842 18.9133L67.0399 18.3495Z" fill="white" stroke="#3D857E" stroke-width="1.1339" stroke-miterlimit="22.9256"/>
<path fill-rule="evenodd" clip-rule="evenodd" d="M69.1551 18.0228C77.2409 24.5309 69.1754 25.4118 68.4235 18.8393L69.1551 18.0228Z" fill="white" stroke="#3D857E" stroke-width="1.1339" stroke-miterlimit="22.9256"/>
<path fill-rule="evenodd" clip-rule="evenodd" d="M68.5365 20.8855C68.3254 20.9185 67.0261 21.0231 66.3465 18.853C65.3794 15.786 70.0402 15.0515 70.0431 18.2866C70.0437 20.5601 68.7742 20.8493 68.5631 20.8822C68.5558 20.8842 68.5511 20.8815 68.5465 20.8788C68.5465 20.8788 68.5438 20.8835 68.5365 20.8855Z" fill="#3D857E" stroke="#3D857E" stroke-width="1.1339" stroke-miterlimit="22.9256"/>
<path fill-rule="evenodd" clip-rule="evenodd" d="M66.6946 15.2132C67.1904 15.041 67.3985 14.7771 67.6555 14.7397C67.8832 14.7101 68.1578 14.8996 68.6135 14.915C68.9781 14.9272 69.3133 15.1084 69.3709 15.4699C69.4285 15.8315 69.1775 16.1697 68.816 16.2273L66.897 16.5255C66.5382 16.5785 66.1926 16.3294 66.1397 15.9705C66.082 15.609 66.3488 15.3294 66.6946 15.2132Z" fill="white" stroke="#3D857E" stroke-width="1.1339" stroke-miterlimit="22.9256"/>
<path d="M64.8135 14.1582C64.8135 14.1582 65.1753 14.937 64.8891 15.7009C64.6049 16.4721 65.8351 17.8389 66.6719 18.0309C67.5088 18.223 67.5088 18.223 67.5088 18.223" stroke="#3D857E" stroke-width="1.1339" stroke-miterlimit="22.9256" stroke-linecap="round" stroke-linejoin="round"/>
<path d="M70.165 13.334C70.165 13.334 70.0541 14.1805 70.5583 14.8308C71.0577 15.4785 70.2964 17.1511 69.5612 17.5877C68.8214 18.0215 68.8214 18.0215 68.8214 18.0215" stroke="#3D857E" stroke-width="1.1339" stroke-miterlimit="22.9256" stroke-linecap="round" stroke-linejoin="round"/>
<path d="M63.3808 17.252C63.3808 17.252 64.4965 17.8838 64.9286 18.412C65.3561 18.9375 66.4799 19.2333 66.4799 19.2333" stroke="#3D857E" stroke-width="1.1339" stroke-miterlimit="22.9256" stroke-linecap="round" stroke-linejoin="round"/>
<path d="M72.3412 15.8731C72.3412 15.8731 71.4653 16.8107 71.2137 17.4397C70.962 18.0687 69.9825 18.6924 69.9825 18.6924" stroke="#3D857E" stroke-width="1.1339" stroke-miterlimit="22.9256" stroke-linecap="round" stroke-linejoin="round"/>
<path d="M63.2219 23.1823C63.2219 23.1823 64.126 22.6141 64.4976 21.3482C64.8692 20.0824 66.0909 19.9082 66.0909 19.9082" stroke="#3D857E" stroke-width="1.1339" stroke-miterlimit="22.9256" stroke-linecap="round" stroke-linejoin="round"/>
<path d="M74.2446 21.481C74.2446 21.481 73.2105 21.2122 72.4808 20.1157C71.7511 19.0193 70.5299 19.2248 70.5299 19.2248" stroke="#3D857E" stroke-width="1.1339" stroke-miterlimit="22.9256" stroke-linecap="round" stroke-linejoin="round"/>
<path fill-rule="evenodd" clip-rule="evenodd" d="M35.4739 60.9833C36.7584 60.9547 37.6185 60.5139 37.9186 59.1131C37.9186 59.1131 37.9144 59.1096 37.9179 59.1055C37.9179 59.1055 37.9213 59.1014 37.9172 59.098C37.6796 57.6871 36.8419 57.2083 35.555 57.1229L32.5383 58.9822L32.5191 58.9801L32.5273 58.987L32.5163 58.9917L32.5355 58.9939L35.4739 60.9833Z" fill="white" stroke="#3D857E" stroke-width="1.1339" stroke-miterlimit="22.9256"/>
<path fill-rule="evenodd" clip-rule="evenodd" d="M31.5569 60.0785C39.0679 67.2422 38.8839 59.1328 32.2761 59.2464L31.5569 60.0785Z" fill="white" stroke="#3D857E" stroke-width="1.1339" stroke-miterlimit="22.9256"/>
<path fill-rule="evenodd" clip-rule="evenodd" d="M31.6019 57.9368C39.4151 51.1039 38.8821 59.1999 32.2789 58.799L31.6019 57.9368Z" fill="white" stroke="#3D857E" stroke-width="1.1339" stroke-miterlimit="22.9256"/>
<path fill-rule="evenodd" clip-rule="evenodd" d="M34.3146 59.0439C34.3105 59.2574 34.1879 60.5551 31.9327 60.8476C28.7444 61.2675 28.8305 56.5499 32.0168 57.1088C34.256 57.5031 34.3202 58.8035 34.3161 59.0171C34.3167 59.0246 34.3133 59.0287 34.3098 59.0328C34.3098 59.0328 34.314 59.0363 34.3146 59.0439Z" fill="#3D857E" stroke="#3D857E" stroke-width="1.1339" stroke-miterlimit="22.9256"/>
<path fill-rule="evenodd" clip-rule="evenodd" d="M28.4092 59.8742C28.3258 59.356 28.1021 59.1052 28.1098 58.8456C28.1202 58.6163 28.3545 58.3787 28.4488 57.9326C28.5242 57.5757 28.7608 57.2771 29.1268 57.2831C29.4929 57.2892 29.7824 57.5951 29.7763 57.9612L29.7368 59.9027C29.7266 60.2653 29.4213 60.5624 29.0587 60.5522C28.6927 60.5462 28.4636 60.2349 28.4092 59.8742Z" fill="white" stroke="#3D857E" stroke-width="1.1339" stroke-miterlimit="22.9256"/>
<path d="M27.0435 61.543C27.0435 61.543 27.8732 61.3219 28.5758 61.7364C29.286 62.1502 30.8457 61.1761 31.1801 60.3853C31.5145 59.5945 31.5145 59.5945 31.5145 59.5945" stroke="#3D857E" stroke-width="1.1339" stroke-miterlimit="22.9256" stroke-linecap="round" stroke-linejoin="round"/>
<path d="M27.1602 56.1289C27.1602 56.1289 27.9746 56.3851 28.7025 56.0016C29.4271 55.6222 30.9421 56.6624 31.2444 57.4622C31.5432 58.2661 31.5432 58.2661 31.5432 58.2661" stroke="#3D857E" stroke-width="1.1339" stroke-miterlimit="22.9256" stroke-linecap="round" stroke-linejoin="round"/>
<path d="M29.8409 63.4903C29.8409 63.4903 30.6568 62.5013 31.252 62.1674C31.8438 61.8377 32.3302 60.7823 32.3302 60.7823" stroke="#3D857E" stroke-width="1.1339" stroke-miterlimit="22.9256" stroke-linecap="round" stroke-linejoin="round"/>
<path d="M30.0382 54.4272C30.0382 54.4272 30.8095 55.4525 31.3852 55.8096C31.961 56.1666 32.4051 57.2396 32.4051 57.2396" stroke="#3D857E" stroke-width="1.1339" stroke-miterlimit="22.9256" stroke-linecap="round" stroke-linejoin="round"/>
<path d="M35.6524 64.6763C35.6524 64.6763 35.2498 63.6873 34.0677 63.1015C32.8856 62.5158 32.9262 61.2824 32.9262 61.2824" stroke="#3D857E" stroke-width="1.1339" stroke-miterlimit="22.9256" stroke-linecap="round" stroke-linejoin="round"/>
<path d="M35.8916 53.5267C35.8916 53.5267 35.4473 54.4985 34.2408 55.0267C33.0343 55.5549 33.0246 56.7932 33.0246 56.7932" stroke="#3D857E" stroke-width="1.1339" stroke-miterlimit="22.9256" stroke-linecap="round" stroke-linejoin="round"/>
<path opacity="0.2" d="M41.332 58.7447C44.2437 57.7864 51.1287 56.5775 55.3746 59.4082C60.6821 62.9465 63.8887 74.2248 52.2786 72.898C40.6686 71.5711 43.4329 65.1579 48.2981 62.8359C53.1632 60.5139 67.427 62.0619 76.715 67.4799" stroke="#3D857E" stroke-linecap="round" stroke-linejoin="round" stroke-dasharray="2 2"/>
<path opacity="0.2" d="M68.8935 26.8068C68.1182 29.7725 67.3399 36.7193 70.4291 40.781C74.2907 45.858 85.7467 48.3569 83.7002 36.8519C81.6538 25.3468 75.425 28.5047 73.4101 33.5049C71.3952 38.505 73.8274 52.6449 79.8127 61.5779" stroke="#3D857E" stroke-linecap="round" stroke-linejoin="round" stroke-dasharray="2 2"/>
<path d="M101.997 50.3998L43.1265 84.3887L79.6765 147.695L138.547 113.706L101.997 50.3998Z" fill="#044236"/>
<path d="M53.3416 82.9091L43.1265 84.3887L79.6765 147.695L89.8916 146.216L53.3416 82.9091Z" fill="#2D756E"/>
<path d="M89.8915 146.216L78.4133 158.886L41.8667 95.5851L53.3414 82.9092L89.8915 146.216Z" fill="#022C23"/>
<path d="M93.6148 59.6573L101.985 50.4069L138.535 113.713L130.165 122.964L93.6148 59.6573Z" fill="#2D756E"/>
<path d="M130.165 122.963L137.384 125.582L100.257 61.8724L93.6147 59.6562L130.165 122.963Z" fill="#022C23"/>
<path d="M100.737 61.5951L41.8667 95.584L78.4168 158.891L137.287 124.902L100.737 61.5951Z" fill="#3D857E"/>
<path opacity="0.5" d="M63.84 93.288C64.5401 94.5006 64.1205 96.0474 62.9139 96.7441C61.7014 97.4441 60.1545 97.0246 59.4579 95.818C58.7578 94.6054 59.1713 93.062 60.3839 92.3619C61.5965 91.6619 63.1399 92.0754 63.84 93.288Z" fill="#044236"/>
<path opacity="0.5" d="M93.7462 76.0204C94.4463 77.233 94.0268 78.7799 92.8202 79.4765C91.6076 80.1766 90.0607 79.757 89.3641 78.5504C88.664 77.3378 89.0836 75.791 90.2902 75.0944C91.4968 74.3977 93.0462 74.8078 93.7462 76.0204Z" fill="#044236"/>
<path opacity="0.5" d="M91.4831 77.3273L96.0545 85.2451C100.442 92.8447 98.4754 102.192 91.6621 106.126L86.4275 109.148C79.6142 113.082 70.5357 110.111 66.148 102.512L61.5767 94.5938" stroke="#044236" stroke-width="3.9457" stroke-linecap="round" stroke-linejoin="round"/>
<path d="M91.4831 77.3273L95.5831 84.4287C99.5168 91.242 97.1826 99.9532 90.3693 103.887L85.1348 106.909C78.3215 110.843 69.6103 108.508 65.6767 101.695L61.5767 94.5938" stroke="white" stroke-width="3.7361" stroke-linecap="round" stroke-linejoin="round"/>
</g>
</svg>
