<svg width="24" height="13" viewBox="0 0 24 13" fill="none" xmlns="http://www.w3.org/2000/svg">
<path d="M4.60264 9.32671C4.60264 10.0185 5.16654 10.5813 5.8572 10.5813H6.07426C6.10534 11.794 7.0973 12.7723 8.31688 12.7723C9.53577 12.7723 10.5269 11.794 10.558 10.5813H15.5867C15.6178 11.794 16.609 12.7723 17.8294 12.7723C19.0475 12.7723 20.0387 11.794 20.0697 10.5813H22.5735C22.8057 10.5813 23 10.3858 23 10.1548V5.0289C23 4.91769 22.956 4.81107 22.8778 4.73289L20.6647 2.52819C20.5873 2.4584 20.4864 2.41969 20.3832 2.41969H17.8832V1.48307C17.8832 0.791329 17.3209 0.228516 16.6287 0.228516H5.8572C5.16654 0.228516 4.60264 0.791251 4.60264 1.48307H1.41819C1.18597 1.48307 1 1.67013 1 1.90126C1 2.13238 1.18597 2.31944 1.41819 2.31944H7.27185C7.50181 2.31944 7.69003 2.13238 7.69003 1.90126C7.69003 1.67013 7.50181 1.48307 7.27185 1.48307H5.43901C5.43901 1.25234 5.62724 1.06489 5.8572 1.06489H16.6288C16.8588 1.06489 17.047 1.25234 17.047 1.48307V8.42545C16.4376 8.65354 15.9557 9.13468 15.7287 9.74489H10.4162C10.0974 8.89073 9.28086 8.27748 8.31696 8.27748C7.35306 8.27748 6.53495 8.89073 6.21702 9.74489H5.8572C5.63027 9.74489 5.43901 9.55325 5.43901 9.32671V7.33681H7.27185C7.50181 7.33681 7.69003 7.14975 7.69003 6.91863C7.69003 6.6875 7.50181 6.50044 7.27185 6.50044H3.92644C3.69493 6.50044 3.50903 6.6875 3.50903 6.91863C3.50903 7.14975 3.69501 7.33681 3.92644 7.33681H4.60264V9.32671ZM20.2103 3.25599L22.1638 5.20229V9.74489H19.9279C19.616 8.90705 18.8221 8.30592 17.8833 8.28315V3.25591H20.2103V3.25599ZM17.8295 9.11385C18.6066 9.11385 19.2403 9.74645 19.2403 10.5247C19.2403 11.3029 18.6066 11.9359 17.8295 11.9359C17.05 11.9359 16.4178 11.3029 16.4178 10.5247C16.4178 9.74645 17.05 9.11385 17.8295 9.11385ZM8.31688 9.11385C9.09481 9.11385 9.7285 9.74645 9.7285 10.5247C9.7285 11.3029 9.09481 11.9359 8.31688 11.9359C7.53818 11.9359 6.90604 11.3029 6.90604 10.5247C6.90604 9.74645 7.53826 9.11385 8.31688 9.11385Z" fill="#3D857E" stroke="#3D857E" stroke-width="0.3"/>
<path d="M7.69009 3.57346C7.69009 3.34233 7.50186 3.15527 7.2719 3.15527H2.25461C2.0224 3.15527 1.83643 3.34233 1.83643 3.57346C1.83643 3.80458 2.02232 3.99164 2.25461 3.99164H7.2719C7.50186 3.99164 7.69009 3.80458 7.69009 3.57346Z" fill="#3D857E" stroke="#3D857E" stroke-width="0.3"/>
<path d="M7.68992 5.24592C7.68992 5.0148 7.50169 4.82812 7.27173 4.82812H3.10666C2.8767 4.82812 2.68848 5.0148 2.68848 5.24592C2.68848 5.47705 2.8767 5.66411 3.10666 5.66411H7.27173C7.50169 5.66411 7.68992 5.47705 7.68992 5.24592Z" fill="#3D857E" stroke="#3D857E" stroke-width="0.3"/>
</svg>
