<svg width="60" height="60" viewBox="0 0 60 60" fill="none" xmlns="http://www.w3.org/2000/svg">
<path d="M30 0C22.0435 0 14.4129 3.16071 8.7868 8.7868C3.16071 14.4129 0 22.0435 0 30C0 37.9565 3.16071 45.5871 8.7868 51.2132C14.4129 56.8393 22.0435 60 30 60C37.9565 60 45.5871 56.8393 51.2132 51.2132C56.8393 45.5871 60 37.9565 60 30C60 22.0435 56.8393 14.4129 51.2132 8.7868C45.5871 3.16071 37.9565 0 30 0V0ZM47.1036 40.9321L40.9286 47.1071L30 36.175L19.0679 47.1036L12.8929 40.9286L23.8286 30L12.8964 19.0679L19.0714 12.8964L30 23.825L40.9321 12.8929L47.1071 19.0679L36.1714 30L47.1036 40.9321Z" fill="#F41B1B"/>
</svg>
