<svg width="50" height="51" viewBox="0 0 50 51" fill="none" xmlns="http://www.w3.org/2000/svg">
<path d="M33.9073 0.778894C32.6468 1.04276 31.7645 2.09823 31.7645 3.54951C31.7645 4.86885 32.2687 5.66045 33.6552 6.18819C44.3691 10.4101 50.6713 21.8883 47.016 32.575C43.7388 42.0743 35.0417 48.9348 24.832 48.9348C14.6223 48.9348 5.92512 42.0743 2.64793 32.575C-1.0074 21.8883 5.29489 10.4101 16.0088 6.18819C17.3953 5.66045 17.8995 4.73692 17.8995 3.54951C17.8995 2.23017 17.0171 1.04276 15.7567 0.778894C12.1014 0.119224 -0.125078 9.09074 0.000967433 24.3951C0.127013 38.9078 11.3451 50.2542 24.832 50.2542C38.4449 50.2542 49.5369 38.9078 49.663 24.3951C49.789 9.09074 37.5626 0.119224 33.9073 0.778894Z" fill="#004236"/>
<path d="M46.3857 30.596C44.2429 27.2977 41.0918 24.1313 36.6802 22.0203C35.6718 21.4926 35.2937 20.9649 35.2937 19.9094C35.2937 18.722 36.176 17.6665 37.4365 17.6665C39.8313 17.7984 44.9992 24.3951 46.3857 30.596Z" fill="#004236"/>
<path d="M35.798 9.22266C34.4114 9.22266 33.4031 10.4101 33.4031 11.7294C33.4031 12.7849 33.7812 13.5765 34.9156 14.1042C41.0919 17.0068 44.7472 22.1522 46.764 28.0892C47.8984 17.7984 39.0751 9.35459 35.798 9.22266Z" fill="#004236"/>
<path d="M3.27808 30.596C5.42086 27.2977 8.57201 24.1313 12.9836 22.0203C13.992 21.4926 14.3701 20.9649 14.3701 19.9094C14.3701 18.722 13.4878 17.6665 12.2273 17.6665C9.83246 17.7984 4.66458 24.3951 3.27808 30.596Z" fill="#004236"/>
<path d="M13.866 9.22266C15.2526 9.22266 16.2609 10.4101 16.2609 11.7294C16.2609 12.7849 15.8828 13.5765 14.7484 14.1042C8.57212 17.0068 4.91679 22.1522 2.90005 28.0892C1.76564 17.7984 10.5889 9.35459 13.866 9.22266Z" fill="#004236"/>
</svg>
