<svg width="30" height="26" viewBox="0 0 30 26" fill="none" xmlns="http://www.w3.org/2000/svg">
<path fill-rule="evenodd" clip-rule="evenodd" d="M28.9999 8.28822C28.9985 6.66255 28.4431 5.08394 27.4219 3.80301C26.4006 2.52208 24.9721 1.61225 23.3631 1.21797C21.7541 0.823691 20.0568 0.967557 18.5407 1.62673C17.0246 2.2859 15.7767 3.4226 14.9949 4.85636C14.4794 3.90961 13.7569 3.08614 12.8791 2.44477C12.0013 1.80341 10.9898 1.35997 9.91691 1.14614C8.84401 0.932309 7.73617 0.953364 6.67253 1.2078C5.60889 1.46224 4.6157 1.94377 3.76391 2.61801C2.91212 3.29225 2.22276 4.14255 1.74506 5.10818C1.26736 6.0738 1.01312 7.13091 1.00049 8.204C0.987871 9.27708 1.21718 10.3397 1.67204 11.3158C2.12689 12.292 2.79607 13.1576 3.63177 13.851H3.61586C3.61586 13.851 13.0852 23.7628 13.7568 24.471C13.9149 24.6379 14.1065 24.771 14.3196 24.862C14.5326 24.953 14.7625 25 14.9949 25C15.2273 25 15.4572 24.953 15.6703 24.862C15.8833 24.771 16.0749 24.6379 16.2331 24.471C16.9174 23.7628 26.374 13.8634 26.374 13.8634C27.2007 13.1786 27.8643 12.3246 28.3179 11.3614C28.7716 10.3981 29.0044 9.34914 28.9999 8.28822Z" fill="#3D857E" stroke="#3D857E" stroke-width="2" stroke-linejoin="round"/>
</svg>
