<svg width="20" height="19" viewBox="0 0 20 19" fill="none" xmlns="http://www.w3.org/2000/svg">
<path d="M18.243 1.75698C20.505 4.02498 20.583 7.63698 18.479 9.99298L9.99901 18.485L1.52101 9.99298C-0.582994 7.63698 -0.503994 4.01898 1.75701 1.75698C4.02201 -0.50702 7.64501 -0.58302 10.001 1.52898C12.35 -0.58002 15.98 -0.51002 18.243 1.75698ZM3.17201 3.17198C1.68201 4.66198 1.60701 7.04698 2.98001 8.62298L10 15.654L17.02 8.62398C18.394 7.04698 18.319 4.66498 16.827 3.16998C15.34 1.67998 12.946 1.60798 11.374 2.98398L7.17201 7.18698L5.75701 5.77298L8.58201 2.94598L8.50001 2.87698C6.92501 1.61198 4.62301 1.71998 3.17201 3.17198Z" fill="white"/>
</svg>
