<svg width="17" height="18" viewBox="0 0 17 18" fill="none" xmlns="http://www.w3.org/2000/svg">
<path d="M5.69743 7.61924C5.81785 7.78788 5.89813 7.9776 5.89813 8.18841V14.639C5.89813 14.892 6.03861 15.1238 6.25938 15.2082L10.2733 16.9578C10.3536 17 10.4338 17 10.4941 17C10.6145 17 10.7349 16.9578 10.8352 16.8946C10.9958 16.7681 11.0961 16.5784 11.0961 16.3676V8.20949C11.0961 7.99868 11.1564 7.78788 11.2968 7.64032L15.3308 2.32806C15.5114 2.0751 15.5516 1.73781 15.4312 1.46377C15.2907 1.16864 15.0298 1 14.7087 1H2.30568C2.00463 1 1.72366 1.18972 1.58317 1.46377C1.44268 1.75889 1.48282 2.0751 1.68352 2.32806L5.69743 7.61924ZM1.94442 1.63241C2.00463 1.48485 2.14512 1.40053 2.30568 1.40053H14.7087C14.8692 1.40053 14.9896 1.48485 15.0699 1.63241C15.1301 1.77997 15.1101 1.92754 15.0298 2.05402L10.9958 7.36627C10.8152 7.59816 10.7148 7.89328 10.7148 8.20949V16.3887C10.7148 16.4519 10.6747 16.5152 10.6345 16.5573C10.5743 16.5995 10.5141 16.5995 10.4539 16.5784L6.44 14.8287C6.35973 14.7866 6.31959 14.7233 6.31959 14.639V8.20949C6.31959 7.91436 6.21924 7.59816 6.03861 7.36627L2.00463 2.05402C1.90428 1.92754 1.88421 1.77997 1.94442 1.63241Z" fill="#3D857E" stroke="#3D857E" stroke-width="1.6"/>
</svg>
