<svg width="16" height="18" viewBox="0 0 16 18" fill="none" xmlns="http://www.w3.org/2000/svg">
<path d="M5.13185 7.64081C5.25038 7.80682 5.32941 7.99358 5.32941 8.20109V14.5509C5.32941 14.7999 5.4677 15.0282 5.68501 15.1112L9.63621 16.8335C9.71523 16.875 9.79426 16.875 9.85352 16.875C9.97206 16.875 10.0906 16.8335 10.1894 16.7712C10.3474 16.6467 10.4462 16.46 10.4462 16.2525V8.22184C10.4462 8.01433 10.5055 7.80682 10.6438 7.66156L14.6147 2.43231C14.7925 2.1833 14.832 1.85128 14.7135 1.58152C14.5752 1.29101 14.3184 1.125 14.0023 1.125H1.79309C1.49675 1.125 1.22016 1.31176 1.08187 1.58152C0.94358 1.87204 0.983092 2.1833 1.18065 2.43231L5.13185 7.64081ZM1.43748 1.74753C1.49675 1.60227 1.63504 1.51927 1.79309 1.51927H14.0023C14.1603 1.51927 14.2789 1.60227 14.3579 1.74753C14.4172 1.89279 14.3974 2.03804 14.3184 2.16255L10.3474 7.3918C10.1696 7.62006 10.0708 7.91057 10.0708 8.22184V16.2732C10.0708 16.3355 10.0313 16.3977 9.99181 16.4392C9.93255 16.4807 9.87328 16.4807 9.81401 16.46L5.86282 14.7376C5.78379 14.6961 5.74428 14.6339 5.74428 14.5509V8.22184C5.74428 7.93132 5.6455 7.62006 5.4677 7.3918L1.49675 2.16255C1.39797 2.03804 1.37821 1.89279 1.43748 1.74753Z" fill="white" stroke="white" stroke-width="1.6"/>
</svg>
