<svg width="16" height="18" viewBox="0 0 16 18" fill="none" xmlns="http://www.w3.org/2000/svg">
<path d="M13.8263 1.37C13.7761 1.34469 13.7205 1.33383 13.665 1.33851C13.6096 1.34319 13.5563 1.36326 13.5105 1.39667C13.4853 1.41667 11.0537 3.24333 8.45789 2.02667C6.12737 0.943333 3.59789 1.35333 2.63158 1.57667V1.33333C2.63158 1.24493 2.59831 1.16014 2.53909 1.09763C2.47986 1.03512 2.39954 1 2.31579 1C2.23204 1 2.15171 1.03512 2.09249 1.09763C2.03327 1.16014 2 1.24493 2 1.33333V16.6667C2 16.7551 2.03327 16.8399 2.09249 16.9024C2.15171 16.9649 2.23204 17 2.31579 17C2.39954 17 2.47986 16.9649 2.53909 16.9024C2.59831 16.8399 2.63158 16.7551 2.63158 16.6667V8.92667C3.38632 8.74333 5.93474 8.26 8.18632 9.30333C8.86385 9.62308 9.59783 9.78781 10.34 9.78667C11.6006 9.7619 12.8273 9.35077 13.8705 8.60333C13.9108 8.5723 13.9435 8.53166 13.966 8.48474C13.9885 8.43781 14.0001 8.38593 14 8.33333V1.66667C13.9998 1.60511 13.9835 1.54481 13.9528 1.49244C13.9222 1.44008 13.8784 1.3977 13.8263 1.37ZM13.3684 8.15333C12.8284 8.51 10.6968 9.75 8.44526 8.69333C6.13053 7.61 3.60105 8.02667 2.63158 8.24V2.26C3.38632 2.07667 5.93474 1.59333 8.18632 2.63667C10.4379 3.68 12.4526 2.79333 13.3684 2.26333V8.15333Z" fill="#3D857E" stroke="#3D857E" stroke-width="0.9"/>
</svg>
