<svg width="292" height="54" viewBox="0 0 292 54" fill="none" xmlns="http://www.w3.org/2000/svg">
<path d="M264.727 53.5H0.5V0.5H264.097L291.288 27.3035L264.727 53.5Z" fill="#3D857E" stroke="white"/>
<path d="M121.309 22.4423V25.4983H125.949V26.9863H121.309V31.5303H119.597V20.9703H127.229V22.4423H121.309ZM133.013 27.3063H130.741V31.5303H129.045V20.9703H133.349C134.491 20.9703 135.392 21.2529 136.053 21.8183C136.715 22.3729 137.045 23.1463 137.045 24.1383C137.045 24.8956 136.848 25.5303 136.453 26.0423C136.069 26.5436 135.52 26.9009 134.805 27.1143L137.669 31.5303H135.701L133.013 27.3063ZM130.741 25.8823H133.205C133.899 25.8823 134.416 25.7436 134.757 25.4663C135.099 25.1783 135.269 24.7409 135.269 24.1543C135.269 23.5676 135.099 23.1356 134.757 22.8583C134.416 22.5703 133.899 22.4263 133.205 22.4263H130.741V25.8823ZM141.174 31.5303H139.462V20.9703H141.174V31.5303ZM151.844 30.0583V31.5303H143.972V20.9703H151.62V22.4423H145.684V25.4823H150.324V26.9223H145.684V30.0583H151.844ZM162.467 31.5303H160.435L156.355 24.8743L155.331 22.9223H155.315L155.379 24.7143V31.5303H153.811V20.9703H155.827L159.891 27.6103L160.931 29.5783H160.947L160.883 27.7863V20.9703H162.467V31.5303ZM168.987 20.9703C170.651 20.9703 171.941 21.4289 172.859 22.3463C173.776 23.2636 174.235 24.5649 174.235 26.2503C174.235 27.9356 173.776 29.2369 172.859 30.1543C171.941 31.0716 170.651 31.5303 168.987 31.5303H165.259V20.9703H168.987ZM168.987 30.0743C170.096 30.0743 170.949 29.7436 171.547 29.0823C172.144 28.4103 172.443 27.4663 172.443 26.2503C172.443 25.0343 172.144 24.0956 171.547 23.4343C170.949 22.7623 170.096 22.4263 168.987 22.4263H166.971V30.0743H168.987Z" fill="white"/>
</svg>
