<svg width="22" height="24" viewBox="0 0 22 24" fill="none" xmlns="http://www.w3.org/2000/svg">
<path d="M9.97037 6.4516L9.60058 6.32766C9.60041 6.32761 9.60025 6.32755 9.60009 6.3275C8.40469 5.92306 7.29285 5.44922 6.47154 4.99752L9.97037 6.4516ZM9.97037 6.4516L9.77806 6.11104C9.77801 6.11096 9.77797 6.11088 9.77792 6.11079C9.4631 5.55542 8.90058 4.62903 8.23128 3.80855C7.89658 3.39825 7.54072 3.02134 7.18143 2.73161C6.8228 2.44241 6.4794 2.25528 6.16531 2.19287C6.06867 2.18078 6.00153 2.17243 5.93636 2.17243C5.65685 2.17243 5.37916 2.28692 5.09775 2.55249C4.73928 2.89515 4.66687 3.16759 4.73089 3.41236L4.73171 3.41551L4.73169 3.41551C4.78489 3.62832 4.93304 3.86896 5.22176 4.13967C5.50976 4.40972 5.92164 4.69462 6.47138 4.99743L9.97037 6.4516ZM19.4455 21.4007V11.5251H19.8062C20.4164 11.5251 20.9111 11.0304 20.9111 10.4202V7.85526C20.9111 7.55811 20.7946 7.28017 20.587 7.0645L20.5871 7.06435L20.5788 7.05635C20.3698 6.85537 20.0981 6.73833 19.8002 6.73833H13.8344L14.5543 6.46594C14.5595 6.46396 14.5647 6.46184 14.5698 6.45957C15.5442 6.02717 16.3334 5.57658 16.9115 5.11662C17.4837 4.66131 17.8803 4.17205 18.0123 3.65355C18.1859 2.99446 17.9329 2.37774 17.3761 1.8474C16.9392 1.43079 16.4293 1.2 15.8657 1.2C15.7313 1.2 15.5973 1.21407 15.4642 1.24191C14.7445 1.38062 13.9931 1.90688 13.2574 2.69313C12.5142 3.48745 11.7569 4.5795 11.0311 5.9095L11.0307 5.91032L10.904 6.14415L10.7774 5.91032L10.7769 5.90951C10.0511 4.57931 9.29224 3.48728 8.5483 2.69301C7.81149 1.90637 7.05962 1.37994 6.3425 1.24165C6.20532 1.21428 6.07178 1.2 5.93636 1.2C5.37274 1.2 4.86282 1.43079 4.42597 1.8474C3.86843 2.3784 3.61707 2.99422 3.78338 3.65192L3.78343 3.6521C3.91502 4.17117 4.31183 4.66091 4.8853 5.11734C5.46406 5.57799 6.25464 6.03005 7.2319 6.4654L7.23182 6.46558L7.24204 6.4697L7.93987 6.75034H2.19408C1.58389 6.75034 1.08916 7.24507 1.08916 7.85526V10.4202C1.08916 11.0304 1.58389 11.5251 2.19408 11.5251H2.35661V21.3947C2.35661 22.1445 2.94733 22.7572 3.68845 22.7924C3.71012 22.7974 3.73269 22.8 3.75587 22.8H18.0462C18.8186 22.8 19.4455 22.1731 19.4455 21.4007ZM12.2009 6.32786L11.8345 6.45264L12.0234 6.1181C12.0235 6.11788 12.0237 6.11767 12.0238 6.11745C12.3422 5.56103 12.9047 4.63479 13.5731 3.81444C13.9075 3.40409 14.2628 3.02721 14.6216 2.7375C14.9832 2.44557 15.3293 2.25768 15.6458 2.19711C15.6513 2.19606 15.6567 2.19486 15.6622 2.1935C15.7259 2.17758 15.7893 2.17243 15.8657 2.17243C16.1469 2.17243 16.4297 2.28824 16.7029 2.55113L16.7037 2.55189C17.0627 2.89483 17.1352 3.16745 17.0712 3.41236L17.0711 3.41267C17.0151 3.62779 16.8656 3.86945 16.5778 4.13992C16.2905 4.40997 15.8801 4.69483 15.3305 4.99752C14.5091 5.44929 13.3971 5.92319 12.2015 6.32766L12.2009 6.32786ZM19.9387 10.5467H18.9592H18.8872H2.89088C2.86635 10.5467 2.84195 10.5497 2.81821 10.5556C2.8134 10.5563 2.80459 10.5574 2.7957 10.5588C2.78723 10.5602 2.7766 10.562 2.76458 10.5647H2.06551L2.04566 7.72237L10.862 7.71076L10.8624 7.71075L10.886 7.71076H10.8861H10.8861H10.8861H10.8862H10.8862H10.8862H10.8863H10.8863H10.8863H10.8864H10.8864H10.8864H10.8865H10.8865H10.8865H10.8866H10.8866H10.8866H10.8867H10.8867H10.8868H10.8868H10.8868H10.8869H10.8869H10.8869H10.887H10.887H10.887H10.8871H10.8871H10.8871H10.8872H10.8872H10.8872H10.8873H10.8873H10.8874H10.8874H10.8874H10.8875H10.8875H10.8875H10.8876H10.8876H10.8876H10.8877H10.8877H10.8877H10.8878H10.8878H10.8878H10.8879H10.8879H10.888H10.888H10.888H10.8881H10.8881H10.8881H10.8882H10.8882H10.8882H10.8883H10.8883H10.8883H10.8884H10.8884H10.8884H10.8885H10.8885H10.8885H10.8886H10.8886H10.8887H10.8887H10.8887H10.8888H10.8888H10.8888H10.8889H10.8889H10.8889H10.889H10.889H10.889H10.8891H10.8891H10.8891H10.8892H10.8892H10.8893H10.8893H10.8893H10.8894H10.8894H10.8894H10.8895H10.8895H10.8895H10.8896H10.8896H10.8896H10.8897H10.8897H10.8897H10.8898H10.8898H10.8899H10.8899H10.8899H10.89H10.89H10.89H10.8901H10.8901H10.8901H10.8902H10.8902H10.8902H10.8903H10.8903H10.8903H10.8904H10.8904H10.8904H10.8905H10.8905H10.8906H10.8906H10.8906H10.8907H10.8907H10.8907H10.8908H10.8908H10.8908H10.8909H10.8909H10.8909H10.891H10.891H10.891H10.8911H10.8911H10.8912H10.8912H10.8912H10.8913H10.8913H10.8913H10.8914H10.8914H10.8914H10.8915H10.8915H10.8915H10.8916H10.8916H10.8916H10.8917H10.8917H10.8918H10.8918H10.8918H10.8919H10.8919H10.8919H10.892H10.892H10.892H10.8921H10.8921H10.8921H10.8922H10.8922H10.8922H10.8923H10.8923H10.8924H10.8924H10.8924H10.8925H10.8925H10.8925H10.8926H10.8926H10.8926H10.8927H10.8927H10.8927H10.8928H10.8928H10.8928H10.8929H10.8929H10.8929H10.893H10.893H10.8931H10.8931H10.8931H10.8932H10.8932H10.8932H10.8933H10.8933H10.8933H10.8934H10.8934H10.8934H10.8935H10.8935H10.8935H10.8936H10.8936H10.8937H10.8937H10.8937H10.8938H10.8938H10.8938H10.8939H10.8939H10.8939H10.894H10.894H10.894H10.8941H10.8941H10.8941H10.8942H10.8942H10.8943H10.8943H10.8943H10.8944H10.8944H10.8944H10.8945H10.8945H10.8945H10.8946H10.8946H10.8946H10.8947H10.8947H10.8947H10.8948H10.8948H10.8948H10.8949H10.8949H10.895H10.895H10.895H10.8951H10.8951H10.8951H10.8952H10.8952H10.8952H10.8953H10.8953H10.8953H10.8954H10.8954H10.8954H10.8955H10.8955H10.8956H10.8956H10.8956H10.8957H10.8957H10.8957H10.8958H10.8958H10.8958H10.8959H10.8959H10.8959H10.896H10.896H10.896H10.8961H10.8961H10.8962H10.8962H10.8962H10.8963H10.8963H10.8963H10.8964H10.8964H10.8964H10.8965H10.8965H10.8965H10.8966H10.8966H10.8966H10.8967H10.8967H10.8967H10.8968H10.8968H10.8969H10.8969H10.8969H10.897H10.897H10.897H10.8971H10.8971H10.8971H10.8972H10.8972H10.8972H10.8973H10.8973H10.8973H10.8974H10.8974H10.8975H10.8975H10.8975H10.8976H10.8976H10.8976H10.8977H10.8977H10.8977H10.8978H10.8978H10.8978H10.8979H10.8979H10.8979H10.898H10.898H10.8981H10.8981H10.8981H10.8982H10.8982H10.8982H10.8983H10.8983H10.8983H10.8984H10.8984H10.8984H10.8985H10.8985H10.8985H10.8986H10.8986H10.8987H10.8987H10.8987H10.8988H10.8988H10.8988H10.8989H10.8989H10.8989H10.899H10.899H10.899H10.8991H10.8991H10.8991H10.8992H10.8992H10.8992H10.8993H10.8993H10.8994H10.8994H10.8994H10.8995H10.8995H10.8995H10.8996H10.8996H10.8996H10.8997H10.8997H10.8997H10.8998H10.8998H10.8998H10.8999H10.8999H10.9H10.9H10.9H10.9001H10.9001H10.9001H10.9002H10.9002H10.9002H10.9003H10.9003H10.9003H10.9004H10.9004H10.9004H10.9005H10.9005H10.9006H10.9006H10.9006H10.9007H10.9007H10.9007H10.9008H10.9008H10.9008H10.9009H10.9009H10.9009H10.901H10.901H10.901H10.9011H10.9011H10.9011H10.9012H10.9012H10.9013H10.9013H10.9013H10.9014H10.9014H10.9014H10.9015H10.9015H10.9015H10.9016H10.9016H10.9016H10.9017H10.9017H10.9017H10.9018H10.9018H10.9019H10.9019H10.9019H10.902H10.902H10.902H10.9021H10.9021H10.9021H10.9022H10.9022H10.9022H10.9023H10.9023H10.9023H10.9024H10.9024H10.9025H10.9025H10.9025H10.9026H10.9026H10.9026H10.9027H10.9027H10.9027H10.9028H10.9028H10.9028H10.9029H10.9029H10.9029H10.903H10.903H10.9031H10.9031H10.9031H10.9032H10.9032H10.9032H10.9033H10.9033H10.9033H10.9034H10.9034H10.9034H10.9035H10.9035H10.9035H10.9036H10.9036H10.9036H10.9037H10.9037H10.9038H10.9038H10.9038H10.9039H10.9039H10.9039H10.904H10.904H10.904H10.9041H10.9041H10.9041H10.9042H10.9042H10.9042H10.9043H10.9043H10.9044H10.9044H10.9044H10.9045H10.9045H10.9045H10.9046H10.9046H10.9046H10.9047H10.9047H10.9047H10.9048H10.9048H10.9048H10.9049H10.9049H10.905H10.905H10.905H10.9051H10.9051H10.9051H10.9052H10.9052H10.9052H10.9053H10.9053H10.9053H10.9054H10.9054H10.9054H10.9055H10.9055H10.9055H10.9056H10.9056H10.9057H10.9057H10.9057H10.9058H10.9058H10.9058H10.9059H10.9059H10.9059H10.906H10.906H10.906H10.9061H10.9061H10.9061H10.9062H10.9062H10.9063H10.9063H10.9063H10.9064H10.9064H10.9064H10.9065H10.9065H10.9065H10.9066H10.9066H10.9066H10.9067H10.9067H10.9067H10.9068H10.9068H10.9069H10.9069H10.9069H10.907H10.907H10.907H10.9071H10.9071H10.9071H10.9072H10.9072H10.9072H10.9073H10.9073H10.9073H10.9074H10.9074H10.9074H10.9075H10.9075H10.9076H10.9076H10.9076H10.9077H10.9077H10.9077H10.9078H10.9078H10.9078H10.9079H10.9079H10.9079H10.908H10.908H10.908H10.9081H10.9081H10.9082H10.9082H10.9082H10.9083H10.9083H10.9083H10.9084H10.9084H10.9084H10.9085H10.9085H10.9085H10.9086H10.9086H10.9086H10.9087H10.9087H10.9088H10.9088H10.9088H10.9089H10.9089H10.9089H10.909H10.909H10.909H10.9091H10.9091H10.9091H10.9092H10.9092H10.9092H10.9093H10.9093H10.9094H10.9094H10.9094H10.9095H10.9095H10.9095H10.9096H10.9096H10.9096H10.9097H10.9097H10.9097H10.9098H10.9098H10.9098H10.9099H10.9099H10.9099H10.91H10.91H10.9101H10.9101H10.9101H10.9102H10.9102H10.9102H10.9103H10.9103H10.9103H10.9104H10.9104H10.9104H10.9105H10.9105H10.9105H10.9106H10.9106H10.9107H10.9107H10.9107H10.9108H10.9108H10.9108H10.9109H10.9109H10.9109H10.911H10.911H10.911H10.9111H10.9111H10.9111H10.9112H10.9112H10.9113H10.9113H10.9113H10.9114H10.9114H10.9114H10.9115H10.9115H10.9115H10.9116H10.9116H10.9116H10.9117H10.9117H10.9117H10.9118H10.9118H10.9118H10.9119H10.9119H10.912H10.912H10.912H10.9121H10.9121H10.9121H10.9122H10.9122H10.9122H10.9123H10.9123H10.9123H10.9124H10.9124H10.9124H10.9125H10.9125H10.9126H10.9126H10.9126H10.9127H10.9127H10.9127H10.9128H10.9128H10.9128H10.9129H10.9129H10.9129H10.913H10.913H10.913H10.9131H10.9131H10.9132H10.9132H10.9132H10.9133H10.9133H10.9133H10.9134H10.9134H10.9134H10.9135H10.9135H10.9135H10.9136H10.9136H10.9136H10.9137H10.9137H10.9137H10.9138H10.9138H10.9139H10.9139H10.9139H10.914H10.914H10.914H10.9141H10.9141H10.9141H10.9142H10.9142H10.9142H10.9143H10.9143H10.9143H10.9144H10.9144H10.9145H10.9145H10.9145H10.9146H10.9146H10.9146H10.9147H10.9147H10.9147H10.9148H10.9148H10.9148H10.9149H10.9149H10.9149H10.915H10.915H10.9151H10.9151H10.9151H10.9152H10.9152H10.9152H10.9153H10.9153H10.9153H10.9154H10.9154H10.9154H10.9155H10.9155H10.9155H10.9156H10.9156H10.9156H10.9157H10.9157H10.9158H10.9158H10.9158H10.9159H10.9159H10.9159H10.916H10.916H10.916H10.9161H10.9161H10.9161H10.9162H10.9162H10.9162H10.9163H10.9163H10.9164H10.9164H10.9164H10.9165H10.9165H10.9165H10.9166H10.9166H10.9166H10.9167H10.9167H10.9167H10.9168H10.9168H10.9168H10.9169H10.9169H10.917H10.917H10.917H10.9171H10.9171H10.9171H10.9172H10.9172H10.9172H10.9173H10.9173H10.9173H10.9174H10.9174H10.9174H10.9175H10.9175H10.9176H10.9176H10.9176H10.9177H10.9177H10.9177H10.9178H10.9178H10.9178H10.9179H10.9179H10.9179H10.918H10.918H10.918H10.9181H10.9181H10.9181H10.9182H10.9182H10.9183H10.9183H10.9183H10.9184H10.9184H10.9184H10.9185H10.9185H10.9185H10.9186H10.9186H10.9186H10.9187H10.9187H10.9187H10.9188H10.9188H10.9189H10.9189H10.9189H10.919H10.919H10.919H10.9191H10.9191H10.9191H10.9192H10.9192H10.9192H10.9193H10.9193H10.9193H10.9194H10.9194H10.9195H10.9195H10.9195H10.9196H10.9196H10.9196H10.9197H10.9197H10.9197H10.9198H10.9198H10.9198H10.9199H10.9199H10.9199H10.92H10.92H10.92H10.9201H10.9201H10.9202H10.9202H10.9202H10.9203H10.9203H10.9203H10.9204H10.9204H10.9204H10.9205H10.9205H10.9205H10.9206H10.9206H10.9206H10.9207H10.9207H10.9208H10.9208H10.9208H10.9209H10.9209H10.9209H10.921H10.921H10.921H10.9211H10.9211H10.9211H10.9212H10.9212H10.9212H10.9213H10.9213H10.9214H10.9214H10.9214H10.9215H10.9215H10.9215H10.9216H10.9216H10.9216H10.9217H10.9217H10.9217H10.9218H10.9218H10.9218H10.9219H10.9219H10.9219H10.922H10.922H10.9221H10.9461L10.9463 7.71075L19.9387 7.70494V10.5467ZM18.0462 21.8216H12.4206V11.5251H18.467V21.4007C18.467 21.6315 18.277 21.8216 18.0462 21.8216ZM11.4421 11.5251V21.8216H10.3539V11.5251H11.4421ZM3.75587 21.8216C3.5251 21.8216 3.33504 21.6315 3.33504 21.4007V11.5251H9.3815V21.8216H3.75587Z" fill="#044236" stroke="#044236" stroke-width="0.6" stroke-linejoin="round"/>
</svg>
