<svg width="24" height="24" viewBox="0 0 24 24" fill="none" xmlns="http://www.w3.org/2000/svg">
<path d="M22.8056 21.7103L18.3346 17.2724C21.6689 13.4034 21.4794 7.56207 17.8041 3.88276C15.9096 1.94828 13.371 1 10.8703 1C8.36957 1 5.83095 1.94828 3.89857 3.88276C0.0338101 7.75172 0.0338101 13.9724 3.89857 17.8414C5.79306 19.7379 8.33168 20.7241 10.8703 20.7241C13.1437 20.7241 15.455 19.9276 17.2737 18.3345L21.7447 22.8103C21.8583 22.9241 22.0478 23 22.2372 23C22.4267 23 22.6161 22.9241 22.7677 22.7724C23.0708 22.5069 23.0708 22.0138 22.8056 21.7103ZM4.95948 16.7414C3.36811 15.1862 2.53454 13.0621 2.53454 10.8621C2.53454 8.66207 3.406 6.53793 4.95948 4.94483C6.55086 3.35172 8.63479 2.51724 10.8703 2.51724C13.1058 2.51724 15.1897 3.38966 16.7811 4.94483C18.3346 6.53793 19.206 8.62414 19.206 10.8621C19.206 13.1 18.3346 15.1862 16.7811 16.7793C15.1897 18.3345 13.0679 19.2069 10.8703 19.2069C8.67268 19.2069 6.55086 18.3345 4.95948 16.7414Z" fill="#333333" stroke="#333333" stroke-width="0.3"/>
</svg>
