<svg width="40" height="44" viewBox="0 0 40 44" fill="none" xmlns="http://www.w3.org/2000/svg">
<path d="M36.6435 5.77236C36.5346 4.90121 34.3567 0.000952962 32.1788 0.000952962C26.8429 -0.107942 19.9826 9.1481 21.3982 11.1082C23.5761 14.0483 36.099 9.0392 36.6435 5.77236Z" fill="#FFDA71"/>
<path d="M28.6523 7.75752C25.1161 9.4236 22.4572 11.2153 22.7135 11.7593C22.9698 12.3033 26.0443 11.3937 29.5805 9.72764C33.1167 8.06156 35.7756 6.26991 35.5193 5.72588C35.263 5.18184 32.1885 6.09144 28.6523 7.75752Z" fill="#FFB54A"/>
<path d="M3.75684 5.77236C3.86573 4.90121 6.04362 0.000952962 8.22151 0.000952962C13.5573 -0.107942 20.4177 9.1481 19.0021 11.1082C16.8242 14.0483 4.30131 9.0392 3.75684 5.77236Z" fill="#FFDA71"/>
<path d="M10.6768 9.77589C14.213 11.442 17.2875 12.3516 17.5438 11.8075C17.8001 11.2635 15.1413 9.47185 11.605 7.80577C8.06882 6.13969 4.99436 5.23009 4.73804 5.77412C4.48172 6.31816 7.1406 8.10981 10.6768 9.77589Z" fill="#FFB54A"/>
<path d="M23.4673 11.973V10.3396C23.4673 8.59724 22.0516 7.61719 20.2004 7.61719C18.4581 7.61719 16.9336 8.59724 16.9336 10.3396V11.973H23.4673Z" fill="#FFB54A"/>
<path d="M37.6238 19.5983H2.7775C1.57966 19.5983 0.599609 18.6182 0.599609 17.4204V13.0646C0.599609 11.8668 1.57966 10.8867 2.7775 10.8867H37.6238C38.8216 10.8867 39.8016 11.8668 39.8016 13.0646V17.4204C39.8016 18.6182 38.8216 19.5983 37.6238 19.5983Z" fill="#F45858"/>
<path d="M34.3567 43.5545H6.0441C4.84626 43.5545 3.86621 42.5744 3.86621 41.3766V19.5977H36.5346V41.3766C36.5346 42.5744 35.5545 43.5545 34.3567 43.5545Z" fill="#F45858"/>
<path d="M24.5563 10.8867H15.8447V43.5551H24.5563V10.8867Z" fill="#FFDA71"/>
<path d="M36.5346 19.5977H3.86621V21.7755H36.5346V19.5977Z" fill="#D84848"/>
<path d="M24.5563 19.5977H15.8447V21.7755H24.5563V19.5977Z" fill="#FFB54A"/>
</svg>
