<svg width="32" height="32" viewBox="0 0 32 32" fill="none" xmlns="http://www.w3.org/2000/svg">
<g clip-path="url(#clip0_5810_2764)">
<path d="M15.9915 31.983C24.8233 31.983 31.983 24.8233 31.983 15.9915C31.983 7.15963 24.8233 0 15.9915 0C7.15963 0 0 7.15963 0 15.9915C0 24.8233 7.15963 31.983 15.9915 31.983Z" fill="white"/>
<path d="M15.9905 31.9828C13.0181 31.9875 10.1045 31.1603 7.57812 29.5943L18.2907 0.164062C20.1867 0.43668 22.0191 1.05007 23.6966 1.9748C31.4383 6.22205 34.2729 15.9402 30.0257 23.6835C27.2159 28.8075 21.8348 31.989 15.9905 31.9828Z" fill="#6E7BF2"/>
<path d="M10.5671 15.9219C10.5718 15.6524 10.5439 15.3829 10.485 15.1211H6.80469V16.5756H8.96549C8.8834 17.0914 8.59374 17.5499 8.16468 17.8473L8.15693 17.8953L9.3202 18.7968L9.40075 18.8045C10.1396 18.1214 10.5671 17.1162 10.5671 15.9219Z" fill="#4285F4"/>
<path d="M6.80339 19.7514C7.86133 19.7514 8.75043 19.4029 9.39945 18.8019L8.16338 17.8431C7.7622 18.1126 7.28666 18.2489 6.80494 18.235C5.78882 18.2288 4.89042 17.572 4.57443 16.6055L4.52796 16.6101L3.31822 17.5457L3.30273 17.5891C3.96569 18.9165 5.32103 19.753 6.80339 19.7514Z" fill="#34A853"/>
<path d="M4.57313 16.6089C4.48794 16.3595 4.44302 16.0978 4.44302 15.8329C4.44457 15.5696 4.48794 15.3078 4.57003 15.0569L4.56848 15.0057L3.34326 14.0547L3.30298 14.0733C2.74536 15.1808 2.74536 16.485 3.30298 17.5925L4.57313 16.6089Z" fill="#FBBC05"/>
<path d="M6.80453 13.4292C7.3668 13.4199 7.90893 13.629 8.31941 14.0131L9.42537 12.9335C8.71594 12.2675 7.77572 11.9035 6.80298 11.9143C5.32062 11.9143 3.96528 12.7492 3.30078 14.0751L4.56783 15.0587C4.88692 14.0921 5.78686 13.4354 6.80453 13.4292Z" fill="#EB4335"/>
<path d="M16.737 16.2709V19.1195H15.8262V12.0825H18.241C18.8219 12.0701 19.3857 12.2885 19.8055 12.6913C20.628 13.4487 20.6806 14.7312 19.9216 15.5537C19.8845 15.594 19.8457 15.6327 19.8055 15.6699C19.3841 16.0695 18.8219 16.2849 18.241 16.2694L16.737 16.2709ZM16.737 12.9484V15.405H18.2627C18.6004 15.4159 18.9272 15.2842 19.1626 15.041C19.6382 14.5841 19.6521 13.8298 19.1952 13.3542C19.1921 13.3511 19.189 13.348 19.1859 13.3449C19.1781 13.3372 19.1704 13.3279 19.1626 13.3217C18.9287 13.0739 18.6019 12.9391 18.2627 12.9484H16.737ZM22.5549 14.1473C23.2287 14.1473 23.76 14.3254 24.1488 14.6832C24.5375 15.0395 24.7327 15.529 24.7327 16.1516V19.1195H23.8622V18.4503H23.8235C23.4471 19.0002 22.9452 19.2759 22.3179 19.2759C21.8284 19.2914 21.3498 19.1241 20.978 18.8035C20.6295 18.5123 20.4312 18.0785 20.439 17.6247C20.4235 17.16 20.6357 16.7155 21.0075 16.4367C21.387 16.1424 21.8935 15.9952 22.527 15.9952C22.9901 15.9782 23.4502 16.0788 23.8622 16.2895V16.0819C23.8637 15.7721 23.7259 15.4778 23.4858 15.2827C23.2442 15.0674 22.9313 14.9497 22.6075 14.9543C22.1212 14.9435 21.6642 15.1851 21.4009 15.5925L20.6001 15.0906C21.0369 14.4617 21.689 14.1473 22.5549 14.1473ZM21.3761 17.6448C21.3746 17.8787 21.4876 18.0987 21.6766 18.235C21.878 18.393 22.1289 18.4751 22.3845 18.4704C22.7686 18.4704 23.1357 18.3186 23.4083 18.0476C23.6949 17.7982 23.8606 17.4357 23.8606 17.0547C23.5756 16.8301 23.1807 16.717 22.6726 16.717C22.3442 16.7046 22.0189 16.7976 21.7479 16.9819C21.5202 17.1275 21.3808 17.3753 21.3761 17.6448ZM29.7312 14.3053L26.6922 21.2415H25.7519L26.8796 18.8143L24.8799 14.3037H25.8697L27.3148 17.7626H27.335L28.7399 14.3037L29.7312 14.3053Z" fill="white"/>
</g>
<defs>
<clipPath id="clip0_5810_2764">
<rect width="32" height="31.983" fill="white"/>
</clipPath>
</defs>
</svg>
