<svg width="28" height="27" viewBox="0 0 28 27" fill="none" xmlns="http://www.w3.org/2000/svg">
<path d="M19.0965 0.0187269C18.4006 0.141531 17.8685 0.755554 17.8685 1.49238C17.8685 2.1678 18.1857 2.63856 18.943 2.9251C24.9502 5.16628 28.5524 11.3474 26.475 17.1295C24.6432 22.2361 19.7617 25.91 14.0001 25.91C8.23854 25.91 3.35706 22.2361 1.52523 17.1295C-0.552214 11.3577 3.05005 5.16628 9.05723 2.9251C9.81453 2.63856 10.1318 2.1678 10.1318 1.48215C10.1318 0.74532 9.59962 0.141531 8.90373 0.0187269C6.85699 -0.339453 -0.0609961 4.47039 0.000406161 12.7188C0.0515747 20.5271 6.36577 26.6468 14.0103 26.6468C21.6549 26.6468 27.9384 20.5271 27.9998 12.7188C28.0408 4.46016 21.1432 -0.339453 19.0965 0.0187269Z" fill="#044236"/>
<path d="M2.40527 16.0038C2.77369 14.5301 3.59238 12.903 4.66692 11.5214C5.68006 10.2115 6.7239 9.39282 7.36862 9.39282C7.70633 9.39282 8.02357 9.51563 8.24872 9.74077C8.46362 9.95568 8.58643 10.2422 8.58643 10.5492C8.58643 11.0609 8.35105 11.3884 7.80867 11.634C5.60842 12.6164 3.74589 14.1208 2.40527 16.0038Z" fill="#044236"/>
<path d="M1.88516 14.5301C1.50652 11.1735 3.27695 8.53317 4.37195 7.26419C5.73304 5.67797 7.19646 4.82857 7.94352 4.80811H7.98445C8.69058 4.80811 9.26366 5.39143 9.26366 6.09755C9.26366 6.67064 9.00782 7.03905 8.44497 7.2949C5.32369 8.66621 3.11321 11.1018 1.88516 14.5301Z" fill="#044236"/>
<path d="M25.7451 16.0038C25.3767 14.5301 24.558 12.903 23.4835 11.5214C22.4703 10.2115 21.4265 9.39282 20.7818 9.39282C20.4441 9.39282 20.1268 9.51563 19.9017 9.74077C19.6868 9.95568 19.564 10.2422 19.564 10.5492C19.564 11.0609 19.7993 11.3884 20.3417 11.634C22.5317 12.6164 24.3943 14.1208 25.7451 16.0038Z" fill="#044236"/>
<path d="M26.0977 14.5301C26.4764 11.1735 24.706 8.53317 23.6109 7.26419C22.2499 5.67797 20.7864 4.82857 20.0394 4.80811H19.9985C19.2923 4.80811 18.7192 5.39143 18.7192 6.09755C18.7192 6.67064 18.9751 7.03905 19.5379 7.2949C22.649 8.66621 24.8595 11.1018 26.0977 14.5301Z" fill="#044236"/>
</svg>
