<svg width="18" height="18" viewBox="0 0 18 18" fill="none" xmlns="http://www.w3.org/2000/svg">
<path d="M8.2 1.2C8.58 1.2 8.92 1.34 9.18 1.6L16.38 8.8C16.64 9.06 16.8 9.42 16.8 9.8C16.8 10.18 16.66 10.52 16.38 10.78L10.78 16.38C10.52 16.64 10.18 16.8 9.8 16.8C9.42 16.8 9.08 16.66 8.82 16.4L1.62 9.2C1.36 8.94 1.2 8.58 1.2 8.2V2.6C1.2 1.82 1.82 1.2 2.6 1.2H8.2ZM8.2 1H2.6C1.72 1 1 1.72 1 2.6V8.2C1 8.64 1.18 9.04 1.48 9.34L8.68 16.54C8.96 16.82 9.36 17 9.8 17C10.24 17 10.64 16.82 10.92 16.52L16.52 10.92C16.82 10.64 17 10.24 17 9.8C17 9.36 16.82 8.96 16.52 8.66L9.32 1.46C9.04 1.18 8.64 1 8.2 1Z" fill="#3D857E" stroke="#3D857E" stroke-width="1.6"/>
<path d="M4.68877 3.68926C5.24877 3.68926 5.68877 4.12926 5.68877 4.68926C5.68877 5.24926 5.24877 5.68926 4.68877 5.68926C4.12877 5.68926 3.68877 5.24926 3.68877 4.68926C3.68877 4.12926 4.12877 3.68926 4.68877 3.68926ZM4.68877 3.48926C4.02877 3.48926 3.48877 4.02926 3.48877 4.68926C3.48877 5.34926 4.02877 5.88926 4.68877 5.88926C5.34877 5.88926 5.88877 5.34926 5.88877 4.68926C5.88877 4.02926 5.34877 3.48926 4.68877 3.48926Z" fill="#3D857E" stroke="#3D857E" stroke-width="1.6"/>
</svg>
