<svg width="27" height="16" viewBox="0 0 27 16" fill="none" xmlns="http://www.w3.org/2000/svg">
<path d="M5.09391 11.3389C5.09391 12.1249 5.73471 12.7645 6.51954 12.7645H6.7662C6.80153 14.1426 7.92875 15.2543 9.31464 15.2543C10.6997 15.2543 11.8261 14.1426 11.8614 12.7645H17.5759C17.6112 14.1426 18.7375 15.2543 20.1243 15.2543C21.5085 15.2543 22.6348 14.1426 22.6702 12.7645H25.5153C25.7792 12.7645 26 12.5424 26 12.2798V6.45499C26 6.32861 25.95 6.20745 25.8612 6.1186L23.3463 3.61326C23.2583 3.53396 23.1436 3.48998 23.0263 3.48998H20.1855V2.42563C20.1855 1.63956 19.5465 1 18.7599 1H6.51954C5.73471 1 5.09391 1.63947 5.09391 2.42563H1.47521C1.21133 2.42563 1 2.6382 1 2.90084C1 3.16348 1.21133 3.37605 1.47521 3.37605H8.1271C8.38842 3.37605 8.60231 3.16348 8.60231 2.90084C8.60231 2.6382 8.38842 2.42563 8.1271 2.42563H6.04433C6.04433 2.16343 6.25823 1.95042 6.51954 1.95042H18.76C19.0214 1.95042 19.2352 2.16343 19.2352 2.42563V10.3147C18.5427 10.5739 17.9951 11.1206 17.7372 11.8141H11.7002C11.338 10.8434 10.4101 10.1465 9.31473 10.1465C8.21939 10.1465 7.28972 10.8434 6.92843 11.8141H6.51954C6.26167 11.8141 6.04433 11.5963 6.04433 11.3389V9.07761H8.1271C8.38842 9.07761 8.60231 8.86504 8.60231 8.6024C8.60231 8.33976 8.38842 8.12719 8.1271 8.12719H4.3255C4.06242 8.12719 3.85118 8.33976 3.85118 8.6024C3.85118 8.86504 4.06251 9.07761 4.3255 9.07761H5.09391V11.3389ZM22.8298 4.44031L25.0498 6.65201V11.8141H22.509C22.1545 10.862 21.2524 10.1789 20.1856 10.153V4.44022H22.8298V4.44031ZM20.1244 11.097C21.0075 11.097 21.7276 11.8158 21.7276 12.7002C21.7276 13.5846 21.0075 14.3039 20.1244 14.3039C19.2387 14.3039 18.5203 13.5846 18.5203 12.7002C18.5203 11.8158 19.2386 11.097 20.1244 11.097ZM9.31464 11.097C10.1987 11.097 10.9188 11.8158 10.9188 12.7002C10.9188 13.5846 10.1987 14.3039 9.31464 14.3039C8.42975 14.3039 7.71141 13.5846 7.71141 12.7002C7.71141 11.8158 8.42984 11.097 9.31464 11.097Z" fill="#044236" stroke="#044236" stroke-width="0.3"/>
<path d="M8.60306 4.80138C8.60306 4.53874 8.38917 4.32617 8.12785 4.32617H2.42638C2.1625 4.32617 1.95117 4.53874 1.95117 4.80138C1.95117 5.06402 2.16242 5.27659 2.42638 5.27659H8.12785C8.38917 5.27659 8.60306 5.06402 8.60306 4.80138Z" fill="#044236" stroke="#044236" stroke-width="0.3"/>
<path d="M8.60142 6.70133C8.60142 6.43869 8.38753 6.22656 8.12621 6.22656H3.39318C3.13186 6.22656 2.91797 6.43869 2.91797 6.70133C2.91797 6.96397 3.13186 7.17654 3.39318 7.17654H8.12621C8.38753 7.17654 8.60142 6.96397 8.60142 6.70133Z" fill="#044236" stroke="#044236" stroke-width="0.3"/>
</svg>
