<svg width="17" height="10" viewBox="0 0 17 10" fill="none" xmlns="http://www.w3.org/2000/svg">
<path d="M6.1245 9.129L4.67625 8.7405L5.2665 6.53625C4.38298 6.2104 3.56184 5.73552 2.83875 5.13225L1.224 6.74775L0.16275 5.6865L1.77825 4.07175C0.866307 2.97957 0.253566 1.66932 0 0.26925L1.476 0C2.04525 3.1515 4.80225 5.5425 8.118 5.5425C11.433 5.5425 14.1908 3.1515 14.76 0L16.236 0.2685C15.9828 1.66876 15.3703 2.97928 14.4585 4.07175L16.0733 5.6865L15.012 6.74775L13.3973 5.13225C12.6742 5.73552 11.853 6.2104 10.9695 6.53625L11.5598 8.74125L10.1115 9.129L9.5205 6.924C8.59227 7.08306 7.64374 7.08306 6.7155 6.924L6.1245 9.129Z" fill="#A4A4A4"/>
</svg>
