<svg width="20" height="20" viewBox="0 0 20 20" fill="none" xmlns="http://www.w3.org/2000/svg">
<path d="M19.5593 6.14346L10.5905 0.164264C10.4277 0.0571092 10.2372 0 10.0424 0C9.84754 0 9.65698 0.0571092 9.49427 0.164264L0.525476 6.14346C0.403287 6.209 0.29612 6.29932 0.210829 6.40865C0.125539 6.51797 0.0640007 6.64389 0.030151 6.77835C-0.00369879 6.91282 -0.00911531 7.05286 0.0142476 7.18954C0.0376106 7.32622 0.0892388 7.45651 0.165831 7.5721C0.242423 7.68768 0.342293 7.78601 0.459055 7.86079C0.575816 7.93558 0.7069 7.98517 0.843923 8.00641C0.980945 8.02764 1.12089 8.02005 1.25481 7.98411C1.38873 7.94817 1.51368 7.88469 1.62166 7.79771L2.0701 7.50871V18.929C2.0701 19.1933 2.17509 19.4467 2.36198 19.6336C2.54887 19.8205 2.80234 19.9255 3.06663 19.9255H17.0181C17.2824 19.9255 17.5359 19.8205 17.7227 19.6336C17.9096 19.4467 18.0146 19.1933 18.0146 18.929V7.50871L18.4631 7.79771C18.6236 7.91011 18.8152 7.96936 19.0112 7.96712C19.2241 7.96547 19.4309 7.89568 19.6012 7.76797C19.7716 7.64026 19.8965 7.46135 19.9578 7.25744C20.0191 7.05354 20.0135 6.83537 19.9418 6.6349C19.87 6.43443 19.736 6.26221 19.5593 6.14346ZM16.0216 17.9324H4.06317V6.17336L10.0424 2.18723L16.0216 6.17336V17.9324ZM7.05277 13.9463H13.032C13.2963 13.9463 13.5497 14.0513 13.7366 14.2382C13.9235 14.4251 14.0285 14.6785 14.0285 14.9428C14.0285 15.2071 13.9235 15.4606 13.7366 15.6475C13.5497 15.8344 13.2963 15.9394 13.032 15.9394H7.05277C6.78847 15.9394 6.535 15.8344 6.34811 15.6475C6.16122 15.4606 6.05623 15.2071 6.05623 14.9428C6.05623 14.6785 6.16122 14.4251 6.34811 14.2382C6.535 14.0513 6.78847 13.9463 7.05277 13.9463Z" fill="#333333"/>
</svg>
