<svg width="32" height="35" viewBox="0 0 32 35" fill="none" xmlns="http://www.w3.org/2000/svg">
<path d="M9.05631 7.69945C16.9697 -0.15578 26.5699 -2.19447 30.4117 3.15965C34.2536 8.51377 30.8771 19.3354 22.9637 27.1907C15.0503 35.1041 5.45008 37.1399 1.55009 31.7276C-2.23066 26.3182 1.14583 15.5518 9.05631 7.69945Z" fill="#F06321"/>
<path d="M14.2949 3.50941C13.4224 4.14924 12.5499 4.90539 11.6775 5.72261C4.75287 12.5861 1.84167 22.0118 5.27635 26.7261C8.82443 31.4375 17.3195 29.6926 24.4186 22.768C28.2604 19.0454 30.8196 14.7382 31.8666 10.7248C32.1575 7.7584 31.7504 5.13805 30.4125 3.16043C27.3879 -1.02748 20.8705 -0.6814 14.2949 3.50941Z" fill="#AE282E"/>
<path d="M24.3 4.37868V4.55318C24.242 5.54199 23.6602 6.76346 22.6132 7.81043C21.0428 9.32273 18.9488 9.90439 18.0734 9.03481C17.0846 8.10417 17.6692 6.06548 19.2396 4.43685C20.8683 2.86638 22.9622 2.34289 23.8347 3.27354C24.1255 3.56436 24.3 3.91336 24.3 4.37868ZM18.2508 31.0853C14.5253 33.8772 10.6864 35.2761 6.96094 34.6945C8.5314 34.7526 9.81393 33.0048 10.8609 30.6781C11.9079 28.2934 12.4895 26.0831 13.013 23.9862C13.7692 20.6708 13.8274 18.3442 13.4202 17.8207C12.7804 17.0035 11.3844 17.1809 9.75285 18.1115C8.93854 18.5768 7.89157 18.286 9.11595 16.7737C10.3956 15.2614 15.3396 11.6523 17.0846 11.0706C19.0651 10.5471 21.2754 11.3033 20.5193 13.4554C19.9929 15.0259 13.1294 32.9466 18.2508 31.0853Z" fill="white"/>
</svg>
