<svg width="18" height="18" viewBox="0 0 18 18" fill="none" xmlns="http://www.w3.org/2000/svg">
<path d="M17.8409 16.9448L14.1828 13.3138C16.9109 10.1483 16.7559 5.36897 13.7488 2.35862C12.1988 0.775862 10.1217 0 8.07569 0C6.02964 0 3.95259 0.775862 2.37156 2.35862C-0.790519 5.52414 -0.790519 10.6138 2.37156 13.7793C3.92159 15.331 5.99864 16.1379 8.07569 16.1379C9.93574 16.1379 11.8268 15.4862 13.3148 14.1828L16.9729 17.8448C17.0659 17.9379 17.2209 18 17.3759 18C17.5309 18 17.6859 17.9379 17.8099 17.8138C18.0579 17.5966 18.0579 17.1931 17.8409 16.9448ZM3.23958 12.8793C1.93755 11.6069 1.25553 9.86897 1.25553 8.06896C1.25553 6.26897 1.96855 4.53103 3.23958 3.22759C4.54161 1.92414 6.24665 1.24138 8.07569 1.24138C9.90474 1.24138 11.6098 1.95517 12.9118 3.22759C14.1828 4.53103 14.8959 6.23793 14.8959 8.06896C14.8959 9.9 14.1828 11.6069 12.9118 12.9103C11.6098 14.1828 9.87374 14.8966 8.07569 14.8966C6.27765 14.8966 4.54161 14.1828 3.23958 12.8793Z" fill="#C2C2C2"/>
</svg>
