<svg width="369" height="294" viewBox="0 0 369 294" fill="none" xmlns="http://www.w3.org/2000/svg">
<path d="M25.5055 292.732C11.0348 260.122 2.20083 214.955 30.0149 170.277C82.5382 85.9195 220.001 158.116 290.599 148.903C351.207 140.993 302.214 53.5499 368.58 0.546047" stroke="#D6CD56" stroke-width="0.75" stroke-miterlimit="10" stroke-linecap="round" stroke-linejoin="round"/>
<path d="M293.294 292.344C293.294 292.344 282.617 229.108 180.55 202.483" stroke="#D6CD56" stroke-width="0.75" stroke-miterlimit="10" stroke-linecap="round" stroke-linejoin="round"/>
<path d="M229.389 220.945C229.389 220.945 210.593 211.854 186.279 223.525" stroke="#D6CD56" stroke-width="0.75" stroke-miterlimit="10" stroke-linecap="round" stroke-linejoin="round"/>
<path d="M180.259 202.94C180.293 202.94 175.222 214.611 153.265 209.195C131.699 203.633 123.848 186.322 123.58 186.4C123.557 186.467 137.361 181.441 154.985 183.44C172.419 185.484 180.036 202.952 180.259 202.94Z" stroke="#D6CD56" stroke-width="0.75" stroke-miterlimit="10" stroke-linecap="round" stroke-linejoin="round"/>
<path d="M180.259 202.937C180.304 202.971 168.342 204.121 152.104 198.124C135.965 192.115 123.624 186.386 123.58 186.408" stroke="#D6CD56" stroke-width="0.75" stroke-miterlimit="10" stroke-linecap="round" stroke-linejoin="round"/>
<path d="M228.25 210.193C228.294 210.416 216.914 211.41 208.906 193.005C200.954 175.392 208.995 159.946 209.007 159.611C209.029 159.511 219.862 165.888 227.747 180.541C235.699 195.104 228.305 210.26 228.25 210.193Z" stroke="#D6CD56" stroke-width="0.75" stroke-miterlimit="10" stroke-linecap="round" stroke-linejoin="round"/>
<path d="M228.25 210.193C228.239 210.249 220.666 201.582 216.02 186.46C211.352 171.361 209.018 159.645 209.007 159.623" stroke="#D6CD56" stroke-width="0.75" stroke-miterlimit="10" stroke-linecap="round" stroke-linejoin="round"/>
<path d="M276.531 212.344C276.453 212.132 266.368 204.682 274.141 184.959C281.713 164.588 300.509 156.804 300.554 157.094C300.554 157.072 303.056 172.194 298.644 190.197C294.3 208.435 276.564 212.556 276.531 212.344Z" stroke="#D6CD56" stroke-width="0.75" stroke-miterlimit="10" stroke-linecap="round" stroke-linejoin="round"/>
<path d="M276.531 212.348C276.52 212.258 277.112 200.867 284.918 185.242C292.68 169.472 300.521 157.031 300.554 157.098" stroke="#D6CD56" stroke-width="0.75" stroke-miterlimit="10" stroke-linecap="round" stroke-linejoin="round"/>
<path d="M185.129 223.491C185.017 223.446 187.318 234.47 170.788 242.98C153.835 251.289 138.3 243.192 138.467 243.337C138.568 243.348 145.715 233.364 158.391 224.954C171.28 216.477 185.196 223.435 185.129 223.491Z" stroke="#D6CD56" stroke-width="0.75" stroke-miterlimit="10" stroke-linecap="round" stroke-linejoin="round"/>
<path d="M185.128 223.492C185.073 223.469 177.902 231.131 164.143 236.19C150.339 241.261 138.456 243.338 138.467 243.338" stroke="#D6CD56" stroke-width="0.75" stroke-miterlimit="10" stroke-linecap="round" stroke-linejoin="round"/>
<path d="M230.249 243.147C230.171 243.113 231.879 251.311 219.583 257.643C206.974 263.819 195.426 257.8 195.549 257.911C195.616 257.922 200.943 250.484 210.358 244.23C219.94 237.92 230.294 243.102 230.249 243.147Z" stroke="#D6CD56" stroke-width="0.75" stroke-miterlimit="10" stroke-linecap="round" stroke-linejoin="round"/>
<path d="M230.249 243.144C230.215 243.132 224.877 248.817 214.635 252.592C204.372 256.356 195.537 257.908 195.537 257.908" stroke="#D6CD56" stroke-width="0.75" stroke-miterlimit="10" stroke-linecap="round" stroke-linejoin="round"/>
<path d="M241.518 227.947C241.518 227.947 236.146 226.987 227.58 209.229" stroke="#D6CD56" stroke-width="0.75" stroke-miterlimit="10" stroke-linecap="round" stroke-linejoin="round"/>
<path d="M271.55 253.096C271.55 253.096 267.54 235.651 276.575 213.336" stroke="#D6CD56" stroke-width="0.75" stroke-miterlimit="10" stroke-linecap="round" stroke-linejoin="round"/>
<path d="M263.274 244.631C263.274 244.631 246.878 236.299 231.086 243.168" stroke="#D6CD56" stroke-width="0.75" stroke-miterlimit="10" stroke-linecap="round" stroke-linejoin="round"/>
<g opacity="0.5">
<path d="M80.8287 176.059C79.7106 177.011 79.5165 178.508 79.5812 180.152C79.5258 182.232 79.9231 182.943 83.2312 180.984C86.5024 178.748 85.911 176.16 85.0516 175.717C83.5454 174.691 81.7528 175.246 80.8287 176.059Z" fill="#D6CD56"/>
<path d="M72.1612 187.246C71.0431 188.198 70.8491 189.695 70.9137 191.34C70.8583 193.419 71.2556 194.131 74.5638 192.172C77.8349 189.945 77.2435 187.348 76.3842 186.904C74.8779 185.888 73.0853 186.442 72.1612 187.246Z" fill="#D6CD56"/>
<path d="M84.1 186.803C82.9819 187.755 82.7971 189.252 82.8618 190.897C82.8063 192.976 83.2036 193.687 86.5118 191.728C89.7829 189.492 89.1915 186.905 88.3322 186.461C86.8167 185.445 85.024 185.999 84.1 186.803Z" fill="#D6CD56"/>
<path d="M73.2425 198.698C72.1244 199.649 71.9304 201.146 71.995 202.791C71.9396 204.87 72.3369 205.582 75.6451 203.623C78.9162 201.387 78.3248 198.799 77.4655 198.356C75.9592 197.339 74.1666 197.894 73.2425 198.698Z" fill="#D6CD56"/>
<path d="M60.4625 197.571C59.3444 198.522 59.1596 200.019 59.2243 201.664C59.1688 203.743 59.5662 204.455 62.8743 202.496C66.1455 200.26 65.5541 197.672 64.6947 197.229C63.17 196.212 61.3773 196.757 60.4625 197.571Z" fill="#D6CD56"/>
<path d="M68.6774 175.135C67.5593 176.087 67.3745 177.584 67.4299 179.229C67.3745 181.308 67.7719 182.019 71.08 180.06C74.3604 177.824 73.7597 175.237 72.9004 174.793C71.3942 173.777 69.6015 174.331 68.6774 175.135Z" fill="#D6CD56"/>
<path d="M59.5294 183.487C58.4113 184.439 58.2265 185.936 58.2912 187.59C58.2358 189.669 58.6331 190.381 61.9412 188.422C65.2124 186.185 64.621 183.589 63.7616 183.154C62.2461 182.129 60.4535 182.683 59.5294 183.487Z" fill="#D6CD56"/>
<path d="M64.6024 150.799C63.4843 151.751 63.2902 153.248 63.3549 154.893C63.2995 156.972 63.6968 157.683 67.0049 155.724C70.2761 153.488 69.6847 150.901 68.8253 150.457C67.3191 149.441 65.5264 149.995 64.6024 150.799Z" fill="#D6CD56"/>
<path d="M55.9347 161.992C54.8165 162.944 54.6225 164.441 54.6872 166.086C54.6317 168.165 55.0291 168.877 58.3372 166.918C61.6084 164.681 61.017 162.085 60.1576 161.651C58.6514 160.634 56.8587 161.188 55.9347 161.992Z" fill="#D6CD56"/>
<path d="M67.8734 161.544C66.7553 162.496 66.5612 163.992 66.6259 165.647C66.5705 167.726 66.9678 168.437 70.2759 166.478C73.5471 164.242 72.9557 161.645 72.0963 161.211C70.5901 160.185 68.7975 160.74 67.8734 161.544Z" fill="#D6CD56"/>
<path d="M57.025 173.448C55.9069 174.399 55.7129 175.896 55.7775 177.541C55.7221 179.62 56.1194 180.332 59.4275 178.373C62.6987 176.137 62.1073 173.549 61.2479 173.106C59.7325 172.08 57.9398 172.634 57.025 173.448Z" fill="#D6CD56"/>
<path d="M44.2359 172.311C43.1178 173.263 42.9238 174.76 42.9884 176.414C42.933 178.493 43.3304 179.205 46.6385 177.246C49.9096 175.01 49.3182 172.413 48.4589 171.979C46.9527 170.953 45.16 171.507 44.2359 172.311Z" fill="#D6CD56"/>
<path d="M52.451 149.875C51.3329 150.827 51.1388 152.324 51.2035 153.969C51.1481 156.048 51.5454 156.769 54.8536 154.8C58.1247 152.564 57.5333 149.977 56.674 149.533C55.1677 148.517 53.3751 149.071 52.451 149.875Z" fill="#D6CD56"/>
<path d="M43.3028 158.237C42.1847 159.188 41.9907 160.685 42.0554 162.33C41.9999 164.409 42.3973 165.121 45.7054 163.162C48.9765 160.926 48.3851 158.338 47.5258 157.895C46.0195 156.869 44.2269 157.423 43.3028 158.237Z" fill="#D6CD56"/>
<path d="M45.6407 183.391C44.5226 184.343 44.3286 185.84 44.3933 187.484C44.3378 189.564 44.7351 190.275 48.0433 188.316C51.3144 186.08 50.723 183.493 49.8637 183.049C48.3574 182.023 46.5648 182.578 45.6407 183.391Z" fill="#D6CD56"/>
<path d="M36.9732 194.579C35.8551 195.531 35.6611 197.028 35.7257 198.682C35.6703 200.761 36.0677 201.472 39.3758 199.513C42.6469 197.277 42.0555 194.681 41.1962 194.246C39.69 193.221 37.8973 193.775 36.9732 194.579Z" fill="#D6CD56"/>
<path d="M48.912 194.136C47.7939 195.087 47.5998 196.584 47.6737 198.238C47.6183 200.317 48.0157 201.029 51.3238 199.07C54.5949 196.834 54.0035 194.237 53.1442 193.803C51.6287 192.777 49.836 193.332 48.912 194.136Z" fill="#D6CD56"/>
<path d="M38.0543 206.03C36.9362 206.981 36.7514 208.478 36.8161 210.123C36.7606 212.202 37.158 212.914 40.4661 210.955C43.7373 208.719 43.1459 206.131 42.2865 205.688C40.7711 204.671 38.9784 205.226 38.0543 206.03Z" fill="#D6CD56"/>
<path d="M25.2747 204.903C24.1566 205.854 23.9626 207.351 24.0273 208.996C23.9718 211.075 24.3692 211.787 27.6773 209.828C30.9484 207.592 30.3571 205.004 29.4977 204.561C27.9915 203.535 26.1896 204.089 25.2747 204.903Z" fill="#D6CD56"/>
<path d="M33.4896 182.468C32.3715 183.419 32.1775 184.916 32.2514 186.57C32.1959 188.649 32.5933 189.361 35.9014 187.402C39.1726 185.166 38.5812 182.569 37.7218 182.135C36.2064 181.109 34.4137 181.664 33.4896 182.468Z" fill="#D6CD56"/>
<path d="M24.3414 190.819C23.2233 191.77 23.0292 193.267 23.0939 194.912C23.0385 196.991 23.4358 197.703 26.7439 195.744C30.0151 193.508 29.4237 190.92 28.5643 190.477C27.0581 189.46 25.2654 190.015 24.3414 190.819Z" fill="#D6CD56"/>
<path d="M28.1117 157.717C26.9936 158.669 26.7995 160.166 26.8642 161.811C26.8088 163.89 27.2061 164.601 30.5142 162.642C33.7854 160.406 33.194 157.819 32.3346 157.375C30.8284 156.359 29.0357 156.913 28.1117 157.717Z" fill="#D6CD56"/>
<path d="M19.4439 168.915C18.3258 169.867 18.1318 171.364 18.1965 173.018C18.141 175.097 18.5384 175.808 21.8465 173.849C25.1176 171.613 24.5262 169.016 23.6669 168.582C22.1607 167.556 20.368 168.111 19.4439 168.915Z" fill="#D6CD56"/>
<path d="M31.3824 168.471C30.2643 169.423 30.0795 170.92 30.1442 172.574C30.0888 174.653 30.4861 175.365 33.7942 173.406C37.0654 171.17 36.474 168.573 35.6146 168.139C34.0992 167.113 32.2973 167.668 31.3824 168.471Z" fill="#D6CD56"/>
<path d="M20.525 180.365C19.4069 181.317 19.2221 182.814 19.2868 184.459C19.2313 186.538 19.6287 187.25 22.9368 185.291C26.208 183.054 25.6166 180.467 24.7572 180.024C23.2418 179.007 21.4491 179.562 20.525 180.365Z" fill="#D6CD56"/>
<path d="M53.6617 209.342C52.5436 210.294 52.3588 211.791 52.4142 213.436C52.3588 215.515 52.7561 216.226 56.0643 214.267C59.3354 212.031 58.744 209.434 57.8846 209C56.3692 207.984 54.5765 208.538 53.6617 209.342Z" fill="#D6CD56"/>
<path d="M37.8141 145.522C36.696 146.473 36.5112 147.97 36.5666 149.615C36.5112 151.694 36.9085 152.406 40.2166 150.447C43.4878 148.211 42.8964 145.623 42.037 145.18C40.5215 144.163 38.7381 144.718 37.8141 145.522Z" fill="#D6CD56"/>
<path d="M12.7628 194.16C11.6447 195.112 11.4506 196.609 11.5153 198.254C11.4599 200.333 11.8572 201.045 15.1653 199.086C18.4365 196.849 17.8451 194.262 16.9857 193.818C15.4795 192.802 13.6868 193.356 12.7628 194.16Z" fill="#D6CD56"/>
<path d="M66.8109 213.253C65.6928 214.204 65.4987 215.701 65.5634 217.356C65.508 219.435 65.9053 220.146 69.2134 218.187C72.4846 215.951 71.8932 213.364 71.0338 212.92C69.5276 211.894 67.7349 212.449 66.8109 213.253Z" fill="#D6CD56"/>
<path d="M79.8863 159.335C78.7682 160.287 78.5742 161.783 78.6389 163.438C78.5834 165.517 78.9807 166.228 82.2889 164.269C85.56 162.033 84.9686 159.436 84.1093 159.002C82.603 157.967 80.8104 158.522 79.8863 159.335Z" fill="#D6CD56"/>
<path d="M1.25866 191.095C0.140551 192.046 -0.0535064 193.543 0.0111775 195.197C-0.0442657 197.276 0.353061 197.988 3.66118 196.029C6.93234 193.793 6.34094 191.196 5.48157 190.762C3.96612 189.727 2.17347 190.281 1.25866 191.095Z" fill="#D6CD56"/>
<path d="M7.7452 179.229C6.6271 180.181 6.43304 181.678 6.49772 183.332C6.44228 185.411 6.83963 186.123 10.1478 184.164C13.4189 181.928 12.8275 179.331 11.9681 178.897C10.4619 177.871 8.66002 178.425 7.7452 179.229Z" fill="#D6CD56"/>
<path d="M15.9601 156.803C14.842 157.755 14.6572 159.252 14.7218 160.906C14.6664 162.985 15.0638 163.697 18.3719 161.738C21.643 159.502 21.0516 156.905 20.1923 156.471C18.6768 155.445 16.8841 156 15.9601 156.803Z" fill="#D6CD56"/>
<path d="M6.8121 165.155C5.69399 166.106 5.49993 167.603 5.56462 169.248C5.50917 171.327 5.90653 172.039 9.21465 170.08C12.4858 167.844 11.8944 165.256 11.035 164.813C9.52883 163.796 7.72691 164.351 6.8121 165.155Z" fill="#D6CD56"/>
</g>
</svg>
