<svg width="22" height="23" viewBox="0 0 22 23" fill="none" xmlns="http://www.w3.org/2000/svg">
<path fill-rule="evenodd" clip-rule="evenodd" d="M11.1695 4.34786C13.0777 4.39236 14.8016 5.18365 16.059 6.44103C17.3164 7.69842 18.1077 9.42224 18.1521 11.3304H20.8304C20.9239 11.3304 21 11.4065 21 11.5C21 11.5935 20.9239 11.6696 20.8304 11.6696H18.1521C18.1077 13.5778 17.3164 15.3016 16.059 16.5589C14.8016 17.8163 13.0777 18.6077 11.1695 18.6521V21.3304C11.1695 21.424 11.0935 21.5 11 21.5C10.9065 21.5 10.8304 21.4239 10.8304 21.3304V18.6521C8.92224 18.6076 7.19843 17.8163 5.94104 16.5589C4.68366 15.3016 3.89232 13.5778 3.84787 11.6696H1.16955C1.07606 11.6696 1 11.5935 1 11.5C1 11.4065 1.07607 11.3304 1.16955 11.3304H3.84787C3.89232 9.42224 4.68366 7.69842 5.94104 6.44103C7.19843 5.18365 8.92224 4.39231 10.8304 4.34786V1.66952C10.8304 1.576 10.9065 1.5 11 1.5C11.0935 1.5 11.1695 1.57605 11.1695 1.66952V4.34786ZM15.8191 6.68087C14.586 5.44768 12.882 4.68477 11 4.68477C9.11802 4.68477 7.41401 5.44768 6.18086 6.68087C4.9477 7.91403 4.18478 9.61802 4.18478 11.5C4.18478 13.382 4.9477 15.0859 6.18086 16.3191C7.41401 17.5523 9.11802 18.3152 11 18.3152C12.882 18.3152 14.586 17.5523 15.8191 16.3191C17.0523 15.0859 17.8152 13.382 17.8152 11.5C17.8152 9.61802 17.0523 7.91403 15.8191 6.68087ZM11 7.79513C12.023 7.79513 12.9496 8.20991 13.6199 8.88012L13.6295 8.89109C14.2937 9.56052 14.7049 10.483 14.7049 11.5004C14.7049 12.5227 14.2899 13.4492 13.6199 14.1194C12.9497 14.7894 12.0232 15.2045 11.0008 15.2045C9.97848 15.2045 9.05201 14.7894 8.38177 14.1194C7.71156 13.4492 7.29674 12.5225 7.29674 11.4996C7.29674 10.4766 7.71156 9.54992 8.38177 8.87967C9.05201 8.20947 9.97867 7.79469 11.0016 7.79469L11 7.79513ZM13.38 9.11996C12.7711 8.51098 11.9295 8.13421 11 8.13421C10.0705 8.13421 9.22892 8.51098 8.61997 9.11996C8.01099 9.72894 7.63424 10.5705 7.63424 11.5C7.63424 12.4295 8.01099 13.2711 8.61997 13.88C9.22895 14.4886 10.0707 14.8653 11.0004 14.8653C11.9301 14.8653 12.7719 14.4886 13.3809 13.88C13.9894 13.2711 14.3662 12.4293 14.3662 11.4996C14.3662 10.5743 13.9928 9.73613 13.3895 9.12796L13.38 9.11996Z" fill="#004236" stroke="#004236" stroke-width="1.4"/>
</svg>
