<svg width="22" height="23" viewBox="0 0 22 23" fill="none" xmlns="http://www.w3.org/2000/svg">
<path fill-rule="evenodd" clip-rule="evenodd" d="M11.2985 4.34786C13.2067 4.39236 14.9305 5.18365 16.1879 6.44103C17.4453 7.69842 18.2366 9.42224 18.281 11.3304H20.9593C21.0528 11.3304 21.1289 11.4065 21.1289 11.5C21.1289 11.5935 21.0529 11.6696 20.9593 11.6696H18.281C18.2366 13.5778 17.4453 15.3016 16.1879 16.5589C14.9305 17.8163 13.2067 18.6077 11.2985 18.6521V21.3304C11.2985 21.424 11.2224 21.5 11.1289 21.5C11.0354 21.5 10.9593 21.4239 10.9593 21.3304V18.6521C9.05114 18.6076 7.32733 17.8163 6.06995 16.5589C4.81257 15.3016 4.02123 13.5778 3.97678 11.6696H1.29846C1.20497 11.6696 1.12891 11.5935 1.12891 11.5C1.12891 11.4065 1.20497 11.3304 1.29846 11.3304H3.97678C4.02123 9.42224 4.81257 7.69842 6.06995 6.44103C7.32733 5.18365 9.05114 4.39231 10.9593 4.34786V1.66952C10.9593 1.576 11.0354 1.5 11.1289 1.5C11.2224 1.5 11.2985 1.57605 11.2985 1.66952V4.34786ZM15.948 6.68087C14.7149 5.44768 13.0109 4.68477 11.1289 4.68477C9.24692 4.68477 7.54292 5.44768 6.30976 6.68087C5.07661 7.91403 4.31369 9.61802 4.31369 11.5C4.31369 13.382 5.07661 15.0859 6.30976 16.3191C7.54292 17.5523 9.24692 18.3152 11.1289 18.3152C13.0109 18.3152 14.7149 17.5523 15.948 16.3191C17.1812 15.0859 17.9441 13.382 17.9441 11.5C17.9441 9.61802 17.1812 7.91403 15.948 6.68087ZM11.1289 7.79513C12.1519 7.79513 13.0786 8.20991 13.7488 8.88012L13.7584 8.89109C14.4226 9.56052 14.8338 10.483 14.8338 11.5004C14.8338 12.5227 14.4188 13.4492 13.7488 14.1194C13.0786 14.7894 12.1521 15.2045 11.1297 15.2045C10.1074 15.2045 9.18091 14.7894 8.51067 14.1194C7.84047 13.4492 7.42565 12.5225 7.42565 11.4996C7.42565 10.4766 7.84047 9.54992 8.51067 8.87967C9.18091 8.20947 10.1076 7.79469 11.1305 7.79469L11.1289 7.79513ZM13.509 9.11996C12.9 8.51098 12.0584 8.13421 11.1289 8.13421C10.1994 8.13421 9.35783 8.51098 8.74888 9.11996C8.1399 9.72894 7.76315 10.5705 7.76315 11.5C7.76315 12.4295 8.1399 13.2711 8.74888 13.88C9.35786 14.4886 10.1997 14.8653 11.1293 14.8653C12.059 14.8653 12.9008 14.4886 13.5098 13.88C14.1184 13.2711 14.4951 12.4293 14.4951 11.4996C14.4951 10.5743 14.1217 9.73613 13.5184 9.12796L13.509 9.11996Z" fill="white" stroke="white" stroke-width="1.4"/>
</svg>
