<svg width="12" height="15" viewBox="0 0 12 15" fill="none" xmlns="http://www.w3.org/2000/svg">
<path d="M6 12.7679L9.3 9.46791C9.9526 8.81525 10.397 7.98373 10.577 7.0785C10.7571 6.17326 10.6646 5.23498 10.3114 4.38229C9.95817 3.52959 9.36003 2.80079 8.59261 2.28803C7.82519 1.77527 6.92296 1.50159 6 1.50159C5.07704 1.50159 4.17481 1.77527 3.40739 2.28803C2.63997 2.80079 2.04183 3.52959 1.68861 4.38229C1.33539 5.23498 1.24294 6.17326 1.42297 7.0785C1.60299 7.98373 2.0474 8.81525 2.7 9.46791L6 12.7679ZM6 14.6532L1.75734 10.4106C0.918228 9.57146 0.346791 8.50236 0.115286 7.33848C-0.11622 6.1746 0.00260459 4.9682 0.456732 3.87185C0.91086 2.7755 1.67989 1.83843 2.66659 1.17915C3.65328 0.519861 4.81331 0.167969 6 0.167969C7.18668 0.167969 8.34672 0.519861 9.33341 1.17915C10.3201 1.83843 11.0891 2.7755 11.5433 3.87185C11.9974 4.9682 12.1162 6.1746 11.8847 7.33848C11.6532 8.50236 11.0818 9.57146 10.2427 10.4106L6 14.6532ZM6 7.50125C6.35362 7.50125 6.69276 7.36077 6.94281 7.11072C7.19286 6.86067 7.33333 6.52154 7.33333 6.16791C7.33333 5.81429 7.19286 5.47515 6.94281 5.22511C6.69276 4.97506 6.35362 4.83458 6 4.83458C5.64638 4.83458 5.30724 4.97506 5.05719 5.22511C4.80714 5.47515 4.66667 5.81429 4.66667 6.16791C4.66667 6.52154 4.80714 6.86067 5.05719 7.11072C5.30724 7.36077 5.64638 7.50125 6 7.50125ZM6 8.83458C5.29276 8.83458 4.61448 8.55363 4.11438 8.05353C3.61429 7.55343 3.33333 6.87516 3.33333 6.16791C3.33333 5.46067 3.61429 4.78239 4.11438 4.2823C4.61448 3.7822 5.29276 3.50125 6 3.50125C6.70724 3.50125 7.38552 3.7822 7.88562 4.2823C8.38571 4.78239 8.66667 5.46067 8.66667 6.16791C8.66667 6.87516 8.38571 7.55343 7.88562 8.05353C7.38552 8.55363 6.70724 8.83458 6 8.83458Z" fill="black"/>
</svg>
