<svg width="18" height="22" viewBox="0 0 18 22" fill="none" xmlns="http://www.w3.org/2000/svg">
<path fill-rule="evenodd" clip-rule="evenodd" d="M9.14031 20.8463C9.06213 20.9323 8.937 20.9323 8.85882 20.8463C7.82016 19.7031 1.38379 12.4637 1.38379 8.61578C1.38379 6.59595 2.18616 4.65884 3.6144 3.23061C5.04263 1.80237 6.97974 1 8.99957 1C11.0194 1 12.9565 1.80237 14.3847 3.23061C15.813 4.65884 16.6153 6.59595 16.6153 8.61578C16.6153 12.4637 10.179 19.7031 9.14031 20.8463ZM12.2413 8.45624C12.2466 7.81397 12.0609 7.18462 11.708 6.64803C11.355 6.11144 10.8505 5.69181 10.2587 5.44236C9.6668 5.19292 9.01417 5.12492 8.38359 5.24698C7.75301 5.36905 7.1729 5.67568 6.71687 6.12797C6.26084 6.58026 5.94945 7.15782 5.82219 7.78737C5.69494 8.41692 5.75756 9.07009 6.00212 9.66399C6.24668 10.2579 6.66215 10.7658 7.19581 11.1232C7.72948 11.4806 8.35728 11.6714 8.99957 11.6714C9.42353 11.6731 9.84369 11.5914 10.2361 11.4307C10.6284 11.2701 10.9853 11.0338 11.2863 10.7352C11.5874 10.4367 11.8266 10.0817 11.9905 9.6907C12.1543 9.29968 12.2396 8.8802 12.2413 8.45624Z" stroke="#333333" stroke-width="2"/>
</svg>
