<svg width="102" height="102" viewBox="0 0 102 102" fill="none" xmlns="http://www.w3.org/2000/svg">
<path d="M51 102C79.1379 102 102 79.1379 102 51C102 22.8621 79.1379 0 51 0C22.8621 0 0 22.8621 0 51C0 79.1379 22.8621 102 51 102Z" fill="white"/>
<path d="M24.7812 34.6929V17.2666H28.938V31.0158H34.3737V34.6929H24.7812Z" fill="#414042"/>
<path d="M42.6843 34.8526C38.8473 34.8526 36.4492 31.9749 36.4492 25.8996C36.4492 19.8244 38.8473 16.9467 42.6843 16.9467C46.5213 16.9467 48.9194 19.8244 48.9194 25.8996C48.9194 32.1347 46.6812 34.8526 42.6843 34.8526ZM42.6843 20.6238C41.4053 20.6238 40.7658 21.7429 40.7658 26.0595C40.7658 30.3761 41.4053 31.4952 42.6843 31.4952C43.9633 31.4952 44.6028 30.3761 44.6028 26.0595C44.7627 21.7429 43.9633 20.6238 42.6843 20.6238Z" fill="#414042"/>
<path d="M59.3132 34.6929H55.1565L50.8398 17.2666H55.3163L56.2756 22.3826C56.7552 24.6208 57.2348 27.9782 57.3947 29.7368C57.5546 27.9782 58.0342 24.6208 58.5138 22.3826L59.4731 17.2666H63.9496L59.3132 34.6929Z" fill="#414042"/>
<path d="M66.668 34.6929V17.2666H76.74V20.7838H70.6648V23.8215H74.6617V27.3387H70.6648V31.0158H76.8999V34.6929H66.668Z" fill="#414042"/>
<path d="M30.2189 49.0815V55.7962H26.0621V49.0815L21.4258 38.3699H26.0621L26.8615 40.6081C27.501 42.5266 27.9806 44.2852 28.3004 45.5642C28.4603 44.2852 29.0998 42.3667 29.7393 40.6081L30.3787 38.3699H34.8552L30.2189 49.0815Z" fill="#414042"/>
<path d="M42.5242 55.9561C38.6872 55.9561 36.2891 53.0784 36.2891 47.0032C36.2891 40.9279 38.6872 38.0502 42.5242 38.0502C46.3612 38.0502 48.7593 40.9279 48.7593 47.0032C48.7593 53.2383 46.521 55.9561 42.5242 55.9561ZM42.5242 41.7273C41.2452 41.7273 40.6057 42.8464 40.6057 47.163C40.6057 51.4796 41.2452 52.5988 42.5242 52.5988C43.8032 52.5988 44.4427 51.4796 44.4427 47.163C44.6025 42.8464 43.963 41.7273 42.5242 41.7273Z" fill="#414042"/>
<path d="M58.0325 55.9561C54.3554 55.9561 52.1172 54.0376 52.1172 49.721V38.3699H56.2739V49.8808C56.2739 51.4796 56.7535 52.4388 58.0325 52.4388C59.3115 52.4388 59.7912 51.6395 59.7912 49.8808V38.3699H63.9479V49.721C63.9479 54.0376 61.7097 55.9561 58.0325 55.9561Z" fill="#414042"/>
<path d="M74.9795 55.7962L72.9011 49.0815H71.782V55.7962H67.7852V38.3699H73.8604C77.0579 38.3699 79.2961 39.8087 79.2961 43.6457C79.2961 45.884 78.4968 47.3228 77.0579 48.2821L79.6159 55.7962H74.9795ZM73.3808 41.7272H71.782V46.0438H73.3808C74.4999 46.0438 74.9795 45.4044 74.9795 43.9655C74.9795 42.5266 74.4999 41.7272 73.3808 41.7272Z" fill="#414042"/>
<path d="M28.7784 76.8993H22.7031V59.473H28.9382C32.2956 59.473 34.0542 61.0718 34.0542 64.1094C34.0542 66.0279 33.2549 66.9871 31.9759 67.6266C33.4147 68.2661 34.2141 69.3852 34.2141 71.4636C34.2141 74.9808 32.4555 76.8993 28.7784 76.8993ZM28.4586 62.6705H26.5401V66.1877H28.4586C29.4179 66.1877 29.7376 65.5482 29.7376 64.4291C29.8975 63.31 29.4179 62.6705 28.4586 62.6705ZM28.6185 69.3852H26.7V73.542H28.6185C29.5777 73.542 30.0574 72.9025 30.0574 71.4636C30.2172 70.1846 29.5777 69.3852 28.6185 69.3852Z" fill="#414042"/>
<path d="M43.1687 77.2195C39.3317 77.2195 36.9336 74.3418 36.9336 68.2665C36.9336 62.1913 39.3317 59.1537 43.1687 59.1537C47.0057 59.1537 49.4038 62.0314 49.4038 68.1067C49.4038 74.3418 47.1656 77.2195 43.1687 77.2195ZM43.1687 62.8308C41.8897 62.8308 41.2502 63.9499 41.2502 68.2665C41.2502 72.4233 41.8897 73.7023 43.1687 73.7023C44.4477 73.7023 45.0872 72.5832 45.0872 68.2665C45.0872 63.9499 44.4477 62.8308 43.1687 62.8308Z" fill="#414042"/>
<path d="M57.3981 76.8993H52.7617V59.473H57.8777C62.3542 59.473 64.5924 62.031 64.5924 68.1062C64.4325 74.3413 62.1943 76.8993 57.3981 76.8993ZM57.7178 62.9903H56.9184V73.542H57.5579C59.4764 73.542 60.2758 72.5827 60.2758 68.2661C60.2758 63.7896 59.6363 62.9903 57.7178 62.9903Z" fill="#414042"/>
<path d="M74.6642 70.1846V76.8993H70.5075V70.1846L65.8711 59.473H70.5075L71.3068 61.7113C71.9463 63.6298 72.426 65.3884 72.7457 66.6674C72.9056 65.3884 73.5451 63.4699 74.1846 61.7113L74.9839 59.473H79.4604L74.6642 70.1846Z" fill="#414042"/>
<path d="M82.0131 60.2728V62.8308H81.2137V60.2728H80.5742V59.6333H82.6526V60.2728H82.0131ZM84.8908 62.8308V62.0314C84.8908 61.7117 84.8908 61.3919 84.8908 61.0722C84.8908 61.3919 84.731 61.7117 84.5711 62.0314L84.2513 62.8308L83.9316 62.0314C83.7717 61.7117 83.7717 61.3919 83.6118 61.0722C83.6118 61.3919 83.6118 61.7117 83.6118 62.0314V62.8308H82.9723V59.6333H83.6118L83.9316 60.4327C84.0915 60.7524 84.2513 61.232 84.2513 61.3919C84.2513 61.232 84.4112 60.7524 84.5711 60.4327L84.8908 59.6333H85.5303V62.8308H84.8908Z" fill="#414042"/>
<path d="M77.5389 80.7366C77.8587 80.7366 77.6988 80.7366 78.0185 80.8965C78.4982 81.2162 78.3383 81.8557 78.4982 82.3353C78.4982 83.2946 78.3383 84.2538 77.8587 85.0532C77.5389 85.6927 77.2192 86.1723 76.8994 86.6519C76.7395 86.8118 76.4198 87.1316 76.1 87.1316C75.7803 87.2914 75.7803 86.3322 75.7803 86.1723C75.6204 85.3729 75.9402 84.5736 76.1 83.7742C76.2599 83.1347 76.4198 82.3353 76.7396 81.6958C76.8994 80.8965 77.3791 80.7366 77.5389 80.7366ZM77.3791 77.699C77.5389 77.3792 77.6988 77.0595 77.8587 76.7397C78.3383 75.6206 78.8179 74.5015 79.4574 73.0626C79.7772 72.2632 79.7772 71.304 79.4574 70.5046C79.2975 70.1849 79.1377 70.025 78.8179 69.8651H78.658C78.3383 69.8651 78.1784 70.1849 78.0185 70.3447C77.8587 70.6645 77.6988 70.9842 77.5389 71.304C76.8994 72.9027 76.4198 74.3416 75.7803 75.9403C75.3007 77.3792 74.6612 78.978 74.1816 80.4168C74.0217 80.8965 73.8618 81.2162 73.7019 81.536C72.9026 83.1347 71.7834 84.7334 70.5044 86.1723C70.0248 86.6519 69.5452 87.1316 69.0656 87.4513C69.0656 87.4513 69.0656 87.4513 69.0656 87.2914C69.0656 86.9717 68.9057 86.6519 68.9057 86.4921C68.9057 84.7334 69.3853 83.1347 69.8649 81.6958C70.0248 81.3761 70.6643 79.1378 70.6643 78.8181C70.6643 78.1786 70.3446 77.8588 69.8649 77.699C69.7051 77.699 69.5452 77.699 69.3853 77.699C69.0656 77.699 68.7458 78.0187 68.5859 78.3385C68.4261 78.6582 67.6267 80.8965 67.4668 81.2162C67.3069 81.3761 67.3069 81.536 67.1471 81.6958C66.8273 82.1755 66.5076 82.6551 66.1878 83.1347C65.3885 84.5736 64.4292 85.8526 63.47 87.2914C63.1502 87.7711 62.6706 88.2507 62.191 88.5704C62.191 88.5704 62.191 88.5704 62.191 88.4106C62.191 88.2507 62.191 88.0908 62.191 88.0908C62.191 87.9309 62.191 87.9309 62.191 87.7711C62.191 87.4513 62.3508 87.1316 62.3508 86.8118C62.8305 85.6927 63.1502 84.5736 63.6298 83.6143C63.7897 83.1347 63.9496 82.815 64.1095 82.3353C64.4292 81.6958 64.2693 80.8965 63.7897 80.4168C63.6298 80.257 63.3101 80.0971 62.9903 80.0971C62.6706 80.0971 62.6706 80.4168 62.5107 80.7366C62.5107 81.2162 62.3508 81.536 62.3508 81.6958C62.191 82.3353 62.0311 82.8149 61.7113 83.2946C60.7521 84.8933 59.7928 86.3322 58.8336 87.6112C58.354 88.2507 57.7145 88.7303 57.2348 89.2099C57.2348 89.2099 57.075 89.2099 57.075 89.3698C56.9151 89.3698 56.9151 89.2099 56.9151 89.0501C56.7552 88.5704 56.7552 88.2507 56.7552 87.9309C56.9151 85.5328 57.5546 83.1347 58.5138 80.7366C58.9935 79.4576 59.9527 75.9403 60.4323 74.3416C60.5922 73.5422 60.5922 72.7429 60.1126 72.1034C59.7928 71.6237 59.4731 71.6237 59.3132 71.6237C59.1533 71.6237 58.9935 71.7836 58.8336 72.1034C58.6737 72.4231 58.5138 72.7429 58.5138 73.0626C57.8743 75.141 56.9151 79.2977 56.2756 81.2162C55.9559 82.3353 55.6361 83.6143 55.3163 84.7334C55.3163 84.8933 55.3164 85.0532 55.1565 85.0532C53.7176 87.4513 52.2787 89.2099 50.3602 90.6488C48.4417 92.0877 46.843 92.7272 44.9245 92.887C43.3258 93.0469 41.8869 92.2476 41.4073 90.6488C40.9276 89.5297 40.9276 88.0908 41.2474 86.4921C41.5671 84.5736 42.5264 82.6551 43.8054 80.8965C45.0844 79.1378 46.5232 77.8588 48.2819 77.0595C48.7615 76.8996 49.0812 76.7397 49.401 76.5798C49.7207 76.5798 50.0405 76.5798 50.3602 76.5798C50.68 76.7397 50.8399 76.8996 50.8399 77.0595C50.8399 77.2193 50.8399 77.5391 50.8399 77.699C50.8399 78.0187 50.9997 78.1786 50.9997 78.3385C51.1596 78.4983 51.3195 78.4983 51.4794 78.4983C51.959 78.3385 52.5985 77.699 52.5985 76.7397C52.5985 76.2601 52.5985 75.3008 50.9997 74.6613C50.8399 74.6613 50.0405 74.3416 48.9214 74.5015C47.8022 74.6613 46.2035 75.3008 45.0844 76.1002C42.0468 78.4983 40.7678 80.5767 39.6486 83.2946C38.6894 85.6927 38.3696 88.0908 38.8493 90.3291C39.3289 92.5673 40.9276 94.166 43.006 94.4858C43.8054 94.6457 44.7646 94.6457 45.564 94.4858C46.0436 94.4858 46.3634 94.3259 46.843 94.166C49.401 93.2068 51.7991 91.6081 53.7176 89.5297C54.0374 89.0501 54.1972 88.7303 54.6769 88.2507C54.6769 88.8902 54.6769 89.3698 54.9966 90.0093C55.3164 90.9686 55.9558 91.4482 56.9151 91.2883C57.075 91.2883 57.2348 91.1284 57.3947 91.1284C57.7145 90.9686 57.8743 90.8087 58.0342 90.6488C58.8336 90.0093 59.4731 89.2099 59.9527 88.4106C59.9527 88.7303 60.1126 88.8902 60.1126 89.2099C60.4323 90.1692 61.2317 90.6488 62.191 90.4889C62.8305 90.3291 63.3101 90.0093 63.6298 89.5297C64.749 87.7711 65.8681 86.3322 66.8273 84.8933V84.7334C66.6674 85.8526 66.5076 86.8118 66.8273 87.7711C66.9872 88.7303 67.7866 89.3698 68.5859 89.2099C68.5859 89.2099 68.5859 89.2099 68.7458 89.2099C69.2254 89.0501 69.7051 88.7303 70.0248 88.5704C71.1439 87.7711 71.9433 86.6519 72.5828 85.5328C73.0624 85.0532 73.3822 84.5736 73.7019 84.0939C73.7019 84.2538 73.7019 84.2538 73.7019 84.4137C73.5421 85.5328 73.3822 86.9717 74.0217 87.9309C75.6204 90.0093 78.0186 86.8118 78.658 85.5328C79.2975 84.0939 79.7772 81.6958 78.658 80.257C78.1784 79.6175 77.3791 79.1378 76.5797 79.4576C76.4198 79.4576 76.2599 79.6175 75.9402 79.6175C76.1001 79.2977 76.1 79.1378 76.1 78.978C76.8994 78.4983 77.2192 78.0187 77.3791 77.699Z" fill="#B73936"/>
</svg>
