<svg width="18" height="35" viewBox="0 0 18 35" fill="none" xmlns="http://www.w3.org/2000/svg">
<path d="M12.2905 8.48212C12.3885 8.33116 12.447 8.15255 12.447 7.96004V5.23323C12.447 4.71968 12.1542 4.27727 11.7286 4.04715V1.35603C11.7286 0.608396 11.1151 0 10.3612 0H8.73655H6.85783H2.67594C2.1374 0 1.6992 0.434542 1.6992 0.968591V1.88989C1.6992 2.42394 2.1374 2.85848 2.67594 2.85848H6.27178V4.04694C5.84598 4.27698 5.55296 4.71954 5.55296 5.23323V7.96004C5.55296 8.1526 5.61145 8.33121 5.70954 8.48219C2.30268 10.8851 0 16.9964 0 24.543C0 29.8423 1.14482 32.9448 3.6029 34.3069C4.4215 34.7601 5.41408 35 6.47362 35H11.5264C12.5859 35 13.5783 34.7601 14.3971 34.3069C16.855 32.9448 18 29.8423 18 24.543C18 16.9963 15.6972 10.8849 12.2905 8.48212ZM11.2749 7.76632H6.72506V5.23323C6.72506 5.12634 6.81281 5.03951 6.92041 5.03951H11.0796C11.1872 5.03951 11.2749 5.12634 11.2749 5.23323V7.76632ZM7.44388 1.16231H8.5412H10.3612C10.4687 1.16231 10.5565 1.24914 10.5565 1.35603V3.8772H7.44388V1.16231ZM2.87129 1.69617V1.16231H6.27178V1.69617H2.87129ZM7.25731 8.92863H10.7429C12.3458 9.64718 13.7501 11.3383 14.8042 13.7016H3.19587C4.24992 11.3383 5.65433 9.64718 7.25731 8.92863ZM2.72581 14.8639H15.2742C16.253 17.5344 16.8279 20.8759 16.8279 24.543C16.8279 25.1718 16.8105 25.7531 16.779 26.294H1.22103C1.1895 25.7531 1.1721 25.1718 1.1721 24.543C1.1721 20.8759 1.74694 17.5344 2.72581 14.8639ZM13.8256 33.2921C13.1811 33.6489 12.386 33.8377 11.5264 33.8377H6.47362C5.61401 33.8377 4.81887 33.6489 4.17445 33.2921C3.11033 32.7026 1.75774 31.449 1.31804 27.4563H16.682C16.2423 31.449 14.8897 32.7026 13.8256 33.2921Z" fill="#333333"/>
</svg>
