<svg width="34" height="30" viewBox="0 0 34 30" fill="none" xmlns="http://www.w3.org/2000/svg">
<path fill-rule="evenodd" clip-rule="evenodd" d="M23.5565 22.6738C23.1912 22.6738 22.8949 22.9705 22.8949 23.3364V24.6669C22.8949 25.0328 23.1912 25.3294 23.5565 25.3294C23.9218 25.3294 24.2181 25.0328 24.2181 24.6669V23.3364C24.2181 22.9705 23.9218 22.6738 23.5565 22.6738ZM32.4217 12.0879C32.4217 13.059 31.8837 13.9063 31.0909 14.3477C31.0536 14.3685 31.0159 14.3884 30.9777 14.4072C30.9722 14.4099 30.9669 14.4129 30.9615 14.4155C30.9155 14.4377 30.8689 14.4582 30.8218 14.4777C30.8126 14.4814 30.8033 14.4849 30.794 14.4887C30.7534 14.5049 30.7124 14.5201 30.671 14.5342C30.6629 14.537 30.6547 14.5397 30.6466 14.5425C30.5458 14.5756 30.4432 14.6028 30.339 14.6233C30.336 14.6238 30.3331 14.6243 30.3301 14.6248C30.2834 14.6339 30.2364 14.6414 30.1892 14.6478C30.1777 14.6493 30.166 14.6509 30.1544 14.6522C30.1143 14.6571 30.0742 14.6609 30.0339 14.664C30.0211 14.665 30.0083 14.6662 29.9954 14.667C29.9443 14.67 29.8929 14.6719 29.8415 14.6719C29.8014 14.6719 29.7615 14.6707 29.7217 14.6689C29.7056 14.6681 29.6896 14.6669 29.6736 14.6658C29.6512 14.6644 29.6288 14.6627 29.6065 14.6607C29.5852 14.6587 29.5639 14.6566 29.5425 14.654C29.5283 14.6524 29.5139 14.6505 29.4997 14.6485C29.4728 14.6449 29.4459 14.6412 29.4192 14.6367C29.4185 14.6366 29.4178 14.6365 29.4171 14.6363C28.7354 14.5214 28.1296 14.134 27.7351 13.5773C27.7286 13.5683 27.7221 13.5595 27.7159 13.5503C27.7033 13.532 27.6911 13.5134 27.6789 13.4947C27.6698 13.4807 27.6606 13.4666 27.6517 13.4522C27.6411 13.4352 27.6307 13.4181 27.6205 13.4008C27.6107 13.3842 27.6011 13.3674 27.5917 13.3507C27.5825 13.3343 27.5734 13.3181 27.5645 13.3015C27.5545 13.2828 27.545 13.2638 27.5355 13.2449C27.5277 13.2294 27.5196 13.214 27.5122 13.1984C27.4994 13.1714 27.4873 13.1442 27.4753 13.1168C27.4645 13.0918 27.4542 13.0666 27.4442 13.0412C27.4378 13.0254 27.4314 13.0098 27.4255 12.994C27.4171 12.9717 27.4094 12.9491 27.4016 12.9266C27.3972 12.9136 27.3927 12.9007 27.3884 12.8877C27.3804 12.8629 27.3728 12.838 27.3654 12.8129C27.2981 12.5827 27.2614 12.3396 27.2614 12.0879V10.4401H32.4217V12.0879ZM30.7754 15.8833V28.297H28.5694V21.5286C28.5694 19.3731 26.8183 17.6194 24.666 17.6194C22.5137 17.6194 20.7627 19.3731 20.7627 21.5286V28.297H2.99478V15.8885C3.00192 15.8902 3.0092 15.8913 3.01635 15.8931C3.07615 15.9071 3.13642 15.9198 3.19715 15.931C3.21237 15.9338 3.22759 15.9365 3.2428 15.9392C3.29937 15.9489 3.35633 15.9573 3.41362 15.9647C3.43122 15.9669 3.44869 15.9694 3.46635 15.9714C3.52252 15.9777 3.57908 15.9826 3.63605 15.9866C3.65338 15.9877 3.67085 15.9896 3.68831 15.9905C3.76089 15.9946 3.83406 15.9971 3.90769 15.9971C3.96637 15.9971 4.02479 15.9953 4.08301 15.9926C4.09803 15.992 4.11311 15.9913 4.12813 15.9905C4.18053 15.9875 4.23279 15.9836 4.28472 15.9785C4.30788 15.9763 4.33084 15.9734 4.35399 15.9708C4.38244 15.9675 4.41069 15.9638 4.439 15.9599C5.40154 15.8281 6.25279 15.3438 6.85952 14.6412C6.85972 14.641 6.85985 14.6408 6.86005 14.6406C6.93236 14.5569 7.00123 14.4702 7.06633 14.3805C7.08056 14.361 7.09438 14.3413 7.10821 14.3216C7.1219 14.3019 7.136 14.2826 7.14936 14.2627C7.16246 14.2822 7.17622 14.3011 7.18958 14.3203C7.20387 14.3407 7.21816 14.361 7.23279 14.3811C7.25111 14.4063 7.26957 14.4315 7.28856 14.4563C7.28875 14.4566 7.28902 14.4569 7.28922 14.4572C7.33712 14.5199 7.38707 14.5808 7.43847 14.6403C7.4388 14.6407 7.43913 14.6411 7.4394 14.6414C8.04613 15.3439 8.89738 15.8281 9.85972 15.9599C9.88803 15.9638 9.91635 15.9675 9.94486 15.9708C9.96788 15.9734 9.99084 15.9763 10.0141 15.9785C10.0661 15.9836 10.1183 15.9875 10.1707 15.9905C10.1857 15.9913 10.2007 15.992 10.2158 15.9926C10.274 15.9953 10.3323 15.9971 10.3911 15.9971C10.4498 15.9971 10.5082 15.9953 10.5663 15.9926C10.5815 15.992 10.5965 15.9913 10.6115 15.9905C10.6639 15.9875 10.7161 15.9836 10.7681 15.9785C10.7914 15.9763 10.8142 15.9734 10.8373 15.9708C10.8658 15.9675 10.8942 15.9638 10.9225 15.9598C11.8845 15.8281 12.7356 15.3442 13.3423 14.642L13.3443 14.6397C13.395 14.581 13.4442 14.5208 13.4915 14.459C13.4922 14.458 13.493 14.4571 13.4938 14.4561C13.5126 14.4313 13.531 14.4064 13.5493 14.3812C13.564 14.361 13.5784 14.3406 13.5927 14.3202C13.606 14.3009 13.6198 14.2821 13.6328 14.2627C13.6459 14.2822 13.6597 14.3011 13.6731 14.3203C13.6873 14.3407 13.7016 14.361 13.7163 14.3811C13.7346 14.4063 13.753 14.4315 13.772 14.4563C13.7722 14.4566 13.7725 14.4569 13.7727 14.4572C13.8206 14.5199 13.8705 14.5808 13.9219 14.6403C13.9223 14.6407 13.9226 14.6411 13.9229 14.6414C14.5296 15.3439 15.3809 15.8281 16.3432 15.9599C16.3715 15.9638 16.3998 15.9675 16.4283 15.9708C16.4514 15.9734 16.4743 15.9763 16.4976 15.9785C16.5495 15.9836 16.6017 15.9875 16.6541 15.9905C16.6691 15.9913 16.6842 15.992 16.6993 15.9926C16.7575 15.9953 16.8158 15.9971 16.8746 15.9971C16.9333 15.9971 16.9917 15.9953 17.0498 15.9926C17.065 15.992 17.08 15.9913 17.095 15.9905C17.1474 15.9875 17.1996 15.9836 17.2515 15.9785C17.2748 15.9763 17.2977 15.9734 17.3208 15.9708C17.3493 15.9675 17.3776 15.9638 17.4059 15.9598C18.368 15.8281 19.2191 15.3442 19.8257 14.642L19.8277 14.6397C19.8785 14.581 19.9277 14.5208 19.9749 14.459C19.9757 14.458 19.9765 14.4571 19.9772 14.4561C19.9961 14.4313 20.0145 14.4064 20.0327 14.3812C20.0474 14.361 20.0619 14.3406 20.0761 14.3202C20.0895 14.3009 20.1033 14.2821 20.1163 14.2627C20.1293 14.2822 20.1432 14.3011 20.1565 14.3203C20.1708 14.3407 20.1851 14.361 20.1997 14.3811C20.2181 14.4063 20.2365 14.4315 20.2555 14.4563C20.2557 14.4566 20.256 14.4569 20.2562 14.4572C20.3041 14.5199 20.354 14.5808 20.4054 14.6403C20.4057 14.6407 20.4061 14.6411 20.4063 14.6414C21.0131 15.3439 21.8643 15.8281 22.8267 15.9599C22.855 15.9638 22.8833 15.9675 22.9118 15.9708C22.9348 15.9734 22.9578 15.9763 22.9811 15.9785C23.033 15.9836 23.0852 15.9875 23.1376 15.9905C23.1526 15.9913 23.1676 15.992 23.1828 15.9926C23.2409 15.9953 23.2993 15.9971 23.358 15.9971C23.4168 15.9971 23.4751 15.9953 23.5333 15.9926C23.5484 15.992 23.5635 15.9913 23.5785 15.9905C23.6309 15.9875 23.6831 15.9836 23.735 15.9785C23.7583 15.9763 23.7812 15.9734 23.8043 15.9708C23.8327 15.9675 23.8611 15.9638 23.8894 15.9598C24.8515 15.8281 25.7025 15.3442 26.3092 14.642L26.3112 14.6397C26.3619 14.581 26.4112 14.5208 26.4584 14.459C26.4592 14.458 26.46 14.4571 26.4607 14.4561C26.4796 14.4313 26.498 14.4064 26.5162 14.3812C26.5309 14.361 26.5453 14.3406 26.5596 14.3202C26.573 14.3009 26.5867 14.2821 26.5998 14.2627C26.6128 14.2822 26.6266 14.3011 26.64 14.3203C26.6543 14.3407 26.6686 14.361 26.6832 14.3811C26.7015 14.4063 26.72 14.4315 26.739 14.4563C26.7392 14.4566 26.7394 14.4569 26.7396 14.4572C26.7875 14.5199 26.8375 14.5808 26.8889 14.6403C26.8892 14.6407 26.8895 14.6411 26.8898 14.6414C27.4965 15.3439 28.3478 15.8281 29.3101 15.9599C29.3384 15.9638 29.3668 15.9675 29.3953 15.9708C29.4183 15.9734 29.4413 15.9763 29.4645 15.9785C29.5165 15.9836 29.5687 15.9875 29.6211 15.9905C29.6361 15.9913 29.6511 15.992 29.6663 15.9926C29.7244 15.9953 29.7828 15.9971 29.8415 15.9971C29.9163 15.9971 29.9905 15.9945 30.0642 15.9903C30.0826 15.9893 30.1007 15.9874 30.119 15.9861C30.1764 15.982 30.2336 15.9769 30.2903 15.9704C30.3085 15.9683 30.3265 15.9659 30.3446 15.9635C30.4039 15.9558 30.4628 15.9469 30.5212 15.9365C30.5352 15.9341 30.5493 15.9316 30.5633 15.929C30.6313 15.9162 30.6988 15.9018 30.7655 15.8854C30.7688 15.8847 30.7721 15.8841 30.7754 15.8833ZM22.0859 28.297V21.5286C22.0859 20.1038 23.2433 18.9446 24.666 18.9446C26.0887 18.9446 27.2462 20.1038 27.2462 21.5286V28.297H22.0859ZM1.32747 10.4401H6.48778V12.0879C6.48778 12.3405 6.45073 12.5846 6.38292 12.8156C6.37611 12.8391 6.36883 12.8624 6.36135 12.8855C6.35646 12.9008 6.3513 12.9158 6.34607 12.9308C6.33899 12.9514 6.33191 12.9721 6.32424 12.9924C6.31703 13.0117 6.30929 13.0308 6.30161 13.0499C6.29506 13.0662 6.28885 13.0827 6.28203 13.0988C6.26754 13.1327 6.25226 13.1663 6.23638 13.1996C6.22996 13.2131 6.22308 13.2262 6.21634 13.2396C6.20575 13.2608 6.19503 13.282 6.18385 13.303C6.17578 13.3181 6.16738 13.333 6.15911 13.3479C6.14879 13.3662 6.13834 13.3845 6.12762 13.4027C6.11809 13.4187 6.1085 13.4346 6.09858 13.4504C6.08878 13.4662 6.0786 13.4818 6.06854 13.4973C6.05716 13.5147 6.04591 13.532 6.0342 13.549C6.02653 13.5601 6.01866 13.5709 6.01092 13.5818C5.61622 14.1362 5.01167 14.5218 4.3315 14.6365C4.33103 14.6365 4.33064 14.6366 4.33011 14.6367C4.30331 14.6412 4.27632 14.645 4.24933 14.6485C4.23511 14.6505 4.22101 14.6524 4.20679 14.654C4.18535 14.6566 4.16392 14.6587 4.14248 14.6607C4.12032 14.6627 4.09809 14.6644 4.0758 14.6658C4.05966 14.6669 4.04364 14.6681 4.02744 14.6689C3.98781 14.6707 3.94798 14.6719 3.90795 14.6719H3.90762C3.85675 14.6719 3.80607 14.6701 3.75546 14.6671C3.74249 14.6663 3.72966 14.665 3.71676 14.6641C3.67753 14.6612 3.63843 14.6575 3.59939 14.6528C3.58702 14.6513 3.57478 14.6498 3.56248 14.6481C3.51934 14.6423 3.47634 14.6354 3.4336 14.6275C3.42685 14.6262 3.42011 14.6251 3.41342 14.6238C3.31214 14.6041 3.21224 14.5781 3.11419 14.5464C3.10361 14.543 3.09315 14.5393 3.0827 14.5356C3.04651 14.5235 3.01066 14.5104 2.97506 14.4966C2.96031 14.4908 2.94549 14.4851 2.9308 14.479C2.89839 14.4658 2.86643 14.4515 2.83454 14.4369C2.82025 14.4303 2.80576 14.4243 2.79167 14.4174C2.75132 14.3981 2.71169 14.3775 2.67246 14.3559C1.87175 13.9168 1.32747 13.0648 1.32747 12.0879V10.4401ZM4.3534 4.6217H8.35727L6.68487 9.11493H1.79891L4.3534 4.6217ZM4.6304 1.32516H29.175V3.29654H19.0157C19.0127 3.29647 19.0098 3.29654 19.0068 3.29654H14.7698C14.7672 3.29654 14.7648 3.29647 14.7623 3.29654H4.6304V1.32516ZM27.0925 9.11493L25.4202 4.6217H29.3234L31.929 9.11493H27.0925ZM24.008 4.6217L25.6804 9.11493H20.6937L19.8107 4.6217H24.008ZM18.4622 4.6217L19.3452 9.11493H14.4323L15.3152 4.6217H18.4622ZM13.9667 4.6217L13.0838 9.11493H8.09701L9.76941 4.6217H13.9667ZM10.8133 14.6367C10.7867 14.6412 10.7599 14.6449 10.7331 14.6485C10.7187 14.6505 10.7044 14.6524 10.69 14.654C10.6687 14.6566 10.6474 14.6587 10.6261 14.6607C10.6038 14.6627 10.5814 14.6644 10.5589 14.6658C10.543 14.667 10.527 14.6681 10.511 14.6689C10.4711 14.6707 10.4313 14.6719 10.3911 14.6719C10.3509 14.6719 10.311 14.6707 10.2713 14.6689C10.2552 14.6681 10.2392 14.6669 10.2232 14.6658C10.2008 14.6644 10.1784 14.6627 10.1561 14.6607C10.1348 14.6587 10.1134 14.6566 10.0921 14.654C10.0778 14.6524 10.0635 14.6505 10.0493 14.6485C10.0223 14.6449 9.99547 14.6412 9.96874 14.6367C9.96808 14.6366 9.96742 14.6365 9.96669 14.6363C9.28494 14.5214 8.6792 14.134 8.2847 13.5773C8.27821 13.5683 8.27173 13.5595 8.26544 13.5503C8.25287 13.532 8.2407 13.5134 8.22859 13.4947C8.2194 13.4807 8.2102 13.4666 8.20127 13.4522C8.19069 13.4352 8.1803 13.4181 8.17011 13.4008C8.16025 13.3842 8.15073 13.3674 8.14126 13.3507C8.13207 13.3343 8.12294 13.3181 8.11407 13.3015C8.10408 13.2828 8.09462 13.2638 8.0851 13.2449C8.07729 13.2294 8.06922 13.214 8.06181 13.1984C8.04897 13.1714 8.03687 13.1442 8.02489 13.1168C8.01404 13.0918 8.00379 13.0666 7.99373 13.0412C7.98738 13.0254 7.98103 13.0098 7.97508 12.994C7.96667 12.9717 7.95893 12.9491 7.95119 12.9266C7.94683 12.9136 7.94226 12.9007 7.93803 12.8877C7.93002 12.8629 7.92242 12.838 7.91501 12.8129C7.84772 12.5827 7.81094 12.3396 7.81094 12.0879V10.4401H12.9713V12.0879C12.9713 12.3405 12.9342 12.5846 12.8664 12.8156C12.8596 12.8391 12.8523 12.8624 12.8448 12.8855C12.8399 12.9008 12.8348 12.9158 12.8295 12.9308C12.8225 12.9514 12.8154 12.972 12.8077 12.9923C12.8005 13.0118 12.7926 13.031 12.785 13.0503C12.7784 13.0664 12.7723 13.0827 12.7655 13.0987C12.751 13.1327 12.7357 13.1663 12.7198 13.1997C12.7135 13.213 12.7066 13.226 12.7 13.2392C12.6894 13.2606 12.6786 13.282 12.6673 13.3032C12.6593 13.3181 12.6509 13.3329 12.6426 13.3477C12.6323 13.3662 12.6218 13.3845 12.611 13.4028C12.6015 13.4187 12.592 13.4346 12.5821 13.4503C12.5723 13.4662 12.5621 13.4819 12.5519 13.4975C12.5406 13.5147 12.5294 13.532 12.5177 13.5489C12.51 13.5601 12.502 13.571 12.4941 13.5821C12.0996 14.1361 11.4955 14.5215 10.8159 14.6363C10.815 14.6365 10.8142 14.6366 10.8133 14.6367ZM17.2968 14.6367C17.2702 14.6412 17.2434 14.6449 17.2166 14.6485C17.2022 14.6505 17.1878 14.6524 17.1735 14.654C17.1522 14.6566 17.1309 14.6587 17.1096 14.6607C17.0873 14.6627 17.0648 14.6644 17.0424 14.6658C17.0265 14.667 17.0105 14.6681 16.9944 14.6689C16.9546 14.6707 16.9147 14.6719 16.8746 14.6719C16.8344 14.6719 16.7945 14.6707 16.7548 14.6689C16.7387 14.6681 16.7227 14.6669 16.7067 14.6658C16.6843 14.6644 16.6619 14.6627 16.6396 14.6607C16.6183 14.6587 16.5969 14.6566 16.5756 14.654C16.5613 14.6524 16.547 14.6505 16.5327 14.6485C16.5058 14.6449 16.4789 14.6412 16.4522 14.6367C16.4516 14.6366 16.4509 14.6365 16.4502 14.6363C15.7684 14.5214 15.1627 14.134 14.7682 13.5773C14.7617 13.5683 14.7552 13.5595 14.7489 13.5503C14.7363 13.532 14.7242 13.5134 14.7121 13.4947C14.7029 13.4807 14.6937 13.4666 14.6847 13.4522C14.6742 13.4352 14.6638 13.4181 14.6536 13.4008C14.6437 13.3842 14.6342 13.3674 14.6247 13.3507C14.6155 13.3343 14.6064 13.3181 14.5975 13.3015C14.5876 13.2828 14.5781 13.2638 14.5686 13.2449C14.5608 13.2294 14.5527 13.214 14.5453 13.1984C14.5324 13.1714 14.5203 13.1442 14.5084 13.1168C14.4975 13.0918 14.4873 13.0666 14.4772 13.0412C14.4709 13.0254 14.4645 13.0098 14.4585 12.994C14.4501 12.9717 14.4424 12.9491 14.4347 12.9266C14.4303 12.9136 14.4257 12.9007 14.4215 12.8877C14.4135 12.8629 14.4059 12.838 14.3985 12.8129C14.3312 12.5827 14.2944 12.3396 14.2944 12.0879V10.4401H19.4547V12.0879C19.4547 12.3405 19.4177 12.5846 19.3499 12.8156C19.3431 12.8391 19.3358 12.8624 19.3283 12.8855C19.3234 12.9008 19.3182 12.9158 19.313 12.9308C19.3059 12.9514 19.2989 12.972 19.2912 12.9923C19.284 13.0118 19.2761 13.031 19.2684 13.0503C19.2619 13.0664 19.2558 13.0827 19.249 13.0987C19.2345 13.1327 19.2192 13.1663 19.2033 13.1997C19.197 13.213 19.1901 13.226 19.1835 13.2392C19.1728 13.2606 19.162 13.282 19.1507 13.3032C19.1427 13.3181 19.1344 13.3329 19.1261 13.3477C19.1157 13.3662 19.1053 13.3845 19.0945 13.4028C19.085 13.4187 19.0754 13.4346 19.0656 13.4503C19.0557 13.4662 19.0455 13.4819 19.0354 13.4975C19.0241 13.5147 19.0129 13.532 19.0012 13.5489C18.9935 13.5601 18.9855 13.571 18.9776 13.5821C18.5831 14.1361 17.979 14.5215 17.2994 14.6363C17.2984 14.6365 17.2977 14.6366 17.2968 14.6367ZM23.7803 14.6367C23.7537 14.6412 23.7269 14.6449 23.7001 14.6485C23.6857 14.6505 23.6713 14.6524 23.6569 14.654C23.6356 14.6566 23.6143 14.6587 23.593 14.6607C23.5707 14.6627 23.5483 14.6644 23.5259 14.6658C23.5099 14.667 23.4939 14.6681 23.4779 14.6689C23.4381 14.6707 23.3982 14.6719 23.358 14.6719C23.3179 14.6719 23.278 14.6707 23.2382 14.6689C23.2222 14.6681 23.2061 14.6669 23.1901 14.6658C23.1678 14.6644 23.1453 14.6627 23.123 14.6607C23.1017 14.6587 23.0804 14.6566 23.0591 14.654C23.0448 14.6524 23.0304 14.6505 23.0162 14.6485C22.9893 14.6449 22.9624 14.6412 22.9357 14.6367C22.935 14.6366 22.9344 14.6365 22.9336 14.6363C22.2519 14.5214 21.6461 14.134 21.2516 13.5773C21.2452 13.5683 21.2387 13.5595 21.2324 13.5503C21.2198 13.532 21.2076 13.5134 21.1955 13.4947C21.1863 13.4807 21.1771 13.4666 21.1682 13.4522C21.1576 13.4352 21.1472 13.4181 21.1371 13.4008C21.1272 13.3842 21.1177 13.3674 21.1082 13.3507C21.099 13.3343 21.0899 13.3181 21.081 13.3015C21.071 13.2828 21.0616 13.2638 21.052 13.2449C21.0442 13.2294 21.0362 13.214 21.0288 13.1984C21.0159 13.1714 21.0038 13.1442 20.9918 13.1168C20.981 13.0918 20.9707 13.0666 20.9607 13.0412C20.9543 13.0254 20.948 13.0098 20.942 12.994C20.9336 12.9717 20.9259 12.9491 20.9181 12.9266C20.9138 12.9136 20.9092 12.9007 20.905 12.8877C20.897 12.8629 20.8894 12.838 20.882 12.8129C20.8147 12.5827 20.7779 12.3396 20.7779 12.0879V10.4401H25.9382V12.0879C25.9382 12.3405 25.9012 12.5846 25.8333 12.8156C25.8265 12.8391 25.8192 12.8624 25.8118 12.8855C25.8069 12.9008 25.8017 12.9158 25.7965 12.9308C25.7894 12.9514 25.7823 12.972 25.7747 12.9923C25.7674 13.0118 25.7596 13.031 25.7519 13.0503C25.7453 13.0664 25.7393 13.0827 25.7324 13.0987C25.718 13.1327 25.7027 13.1663 25.6867 13.1997C25.6804 13.213 25.6736 13.226 25.667 13.2392C25.6563 13.2606 25.6455 13.282 25.6342 13.3032C25.6262 13.3181 25.6179 13.3329 25.6096 13.3477C25.5992 13.3662 25.5888 13.3845 25.578 13.4028C25.5684 13.4187 25.5589 13.4346 25.5491 13.4503C25.5392 13.4662 25.529 13.4819 25.5188 13.4975C25.5076 13.5147 25.4963 13.532 25.4847 13.5489C25.4769 13.5601 25.4689 13.571 25.4611 13.5821C25.0666 14.1361 24.4625 14.5215 23.7828 14.6363C23.7819 14.6365 23.7812 14.6366 23.7803 14.6367ZM33.617 9.38725L30.4958 4.0049C30.4968 3.98966 30.4981 3.97462 30.4981 3.95912V0.662581C30.4981 0.296704 30.2019 0 29.8366 0H3.96882C3.60343 0 3.30724 0.296704 3.30724 0.662581V3.78367L0.0859478 9.44966C0.0154235 9.57383 -0.0113043 9.71502 0.00430896 9.85251V12.0879C0.00430896 13.4108 0.664498 14.5815 1.67162 15.2892V28.9596C1.67162 29.3254 1.96788 29.6221 2.3332 29.6221H21.4243H27.9078H31.437C31.8024 29.6221 32.0986 29.3254 32.0986 28.9596V15.2742C33.0938 14.565 33.7448 13.4015 33.7448 12.0879V9.77751C33.7448 9.63141 33.697 9.49684 33.617 9.38725ZM7.36119 24.4923H16.8486V18.9446H7.36119V24.4923ZM17.5102 17.6195H6.69954C6.33422 17.6195 6.03796 17.9161 6.03796 18.282V25.1549C6.03796 25.5208 6.33422 25.8174 6.69954 25.8174H17.5102C17.8755 25.8174 18.1718 25.5208 18.1718 25.1549V18.282C18.1718 17.9161 17.8755 17.6195 17.5102 17.6195Z" fill="#333333"/>
</svg>
