<svg width="40" height="30" viewBox="0 0 40 30" fill="none" xmlns="http://www.w3.org/2000/svg">
<path d="M27.7295 0C24.9793 0 22.7303 2.24934 22.7303 5C22.7303 6.24372 23.1949 7.39105 23.9517 8.26705C23.4344 8.39937 23.0046 8.6815 22.6167 9.00568C22.0892 9.4465 21.6541 9.95774 21.4238 10.5966C21.4032 10.6565 21.3889 10.7184 21.3812 10.7812L20.1172 20H16.24L15.9134 17.1591C15.9021 17.0909 15.883 17.0241 15.8566 16.9602C15.5852 16.1937 15.0137 15.6708 14.3796 15.2557C13.8524 14.9106 13.2805 14.6525 12.6611 14.5739C13.5475 13.6056 14.0955 12.3197 14.0955 10.9091C14.0955 7.9074 11.6431 5.45455 8.64195 5.45455C5.64079 5.45455 3.18837 7.9074 3.18837 10.9091C3.18837 12.3197 3.73943 13.6056 4.62278 14.5739C4.00341 14.6525 3.43145 14.9106 2.90433 15.2557C2.27024 15.6708 1.69874 16.1937 1.42732 16.9602C1.40088 17.0241 1.38183 17.0909 1.37051 17.1591L0.0071203 28.9773C-0.00906322 29.1058 0.0024158 29.2364 0.040788 29.3601C0.0791603 29.4839 0.143539 29.598 0.22961 29.6949C0.315681 29.7917 0.421455 29.869 0.539843 29.9217C0.658232 29.9743 0.786499 30.001 0.916049 30H16.3678C16.4974 30.001 16.6257 29.9743 16.7441 29.9217C16.8624 29.869 16.9682 29.7917 17.0543 29.6949C17.1404 29.598 17.2047 29.4839 17.2431 29.3601C17.2815 29.2364 17.293 29.1058 17.2768 28.9773L16.9785 26.3636H39.0911C39.3321 26.3636 39.5633 26.2678 39.7338 26.0974C39.9042 25.9269 40 25.6956 40 25.4545V20.9091C40 20.668 39.9042 20.4368 39.7338 20.2663C39.5633 20.0958 39.3321 20 39.0911 20H35.3417L34.0778 10.7812C34.07 10.7184 34.0558 10.6565 34.0352 10.5966C33.8049 9.95774 33.3697 9.4465 32.8422 9.00568C32.4543 8.6815 32.0245 8.39937 31.5072 8.26705C32.2667 7.39105 32.7286 6.24372 32.7286 5C32.7286 2.24934 30.4796 0 27.7295 0H27.7295ZM27.7295 1.81818C29.4972 1.81818 30.9107 3.23196 30.9107 5C30.9107 6.76804 29.4972 8.18182 27.7295 8.18182C25.9617 8.18182 24.5482 6.76804 24.5482 5C24.5482 3.23196 25.9617 1.81818 27.7295 1.81818ZM8.64194 7.27273C10.6607 7.27273 12.2777 8.89001 12.2777 10.9091C12.2777 12.9282 10.6607 14.5455 8.64194 14.5455C6.62323 14.5455 5.00623 12.9282 5.00623 10.9091C5.00623 8.89001 6.62323 7.27273 8.64194 7.27273ZM24.5482 10H27.7295H30.9107C30.9705 10 31.353 10.1264 31.6776 10.3977C31.9926 10.6609 32.2521 11.0205 32.3167 11.179L33.5097 20H21.9492L23.1422 11.179C23.2069 11.0205 23.4663 10.6609 23.7813 10.3977C24.1059 10.1264 24.4884 10 24.5482 10ZM5.00623 16.3636H12.2777C12.4754 16.3636 12.978 16.5089 13.3854 16.7755C13.7706 17.0277 14.0362 17.3697 14.1097 17.5284L15.3453 28.1818H1.93859L3.17417 17.5284C3.24773 17.3697 3.5133 17.0277 3.89847 16.7755C4.30586 16.5089 4.8085 16.3636 5.00623 16.3636ZM16.4531 21.8182H20.8131H34.6316H38.1821V24.5455H16.7655L16.4531 21.8182Z" fill="#333333"/>
</svg>
