<svg width="33" height="32" viewBox="0 0 33 32" fill="none" xmlns="http://www.w3.org/2000/svg">
<g clip-path="url(#clip0_7094_2522)">
<path d="M4.95549 23.8628H9.83921C10.2578 23.8628 10.5369 23.5869 10.5369 23.1731V18.3455C10.5369 17.9317 10.2578 17.6559 9.83921 17.6559H4.95549C4.53688 17.6559 4.25781 17.9317 4.25781 18.3455V23.1731C4.25781 23.518 4.53688 23.8628 4.95549 23.8628ZM5.65316 19.0352H9.14153V22.4835H5.65316V19.0352Z" fill="white"/>
<path d="M32.3721 7.99953L29.7907 1.44781C29.3023 0.275394 27.907 -0.27633 26.7209 0.137464L8.23256 7.30988H2.37209C1.04651 7.30988 0 8.34436 0 9.6547C0 16.6892 0 16.5513 0 24.965C0 26.2754 1.04651 27.3099 2.37209 27.3099H15.3488C16.4651 30.0685 19.2558 32.0685 22.4651 32.0685C25.6744 32.0685 28.4651 30.0685 29.5814 27.3099H30.6977C32.0233 27.3099 33.0698 26.2754 33.0698 24.965V9.58574C33 8.96505 32.7209 8.41333 32.3721 7.99953ZM27.2093 1.44781C27.6977 1.24091 28.2558 1.51677 28.4651 1.99953L30.5581 7.30988H12.0698L27.2093 1.44781ZM22.3953 30.6202C18.907 30.6202 16.1163 27.8616 16.1163 24.4133C16.1163 20.965 18.907 18.2064 22.3953 18.2064C25.8837 18.2064 28.6744 20.965 28.6744 24.4133C28.6744 27.8616 25.8837 30.6202 22.3953 30.6202ZM31.6046 24.965C31.6046 25.5168 31.186 25.9306 30.6279 25.9306H29.9302C30.8372 21.2409 27.1395 16.8961 22.3953 16.8961C18.1395 16.8961 14.7209 20.2754 14.7209 24.4823C14.7209 24.965 14.7907 25.4478 14.8605 25.9306H2.30233C1.74419 25.9306 1.32558 25.5168 1.32558 24.965V15.3788H31.5349V24.965H31.6046ZM31.6046 13.9995H1.39535V12.7582H31.6046V13.9995ZM31.6046 11.3788H1.39535V9.58574C1.39535 9.03401 1.81395 8.62022 2.37209 8.62022H30.6977C31.2558 8.62022 31.6744 9.10298 31.6744 9.58574V11.3788H31.6046Z" fill="white"/>
<path d="M19.6758 22.6895C20.2339 22.6895 21.7688 22.6205 21.9781 23.3102H19.6758V24.2068H22.0479C22.0479 24.2068 21.699 24.9654 20.9316 25.0343H19.6758V25.9309L22.3269 28.9654H23.7223L21.2107 25.9309C21.2107 25.9309 22.8153 25.9999 23.3037 24.1378H24.2804V23.3102H23.2339C23.2339 23.3102 23.2339 22.8964 22.9549 22.5516H24.2804V21.724H19.6758V22.6895Z" fill="white"/>
</g>
<defs>
<clipPath id="clip0_7094_2522">
<rect width="33" height="32" fill="white"/>
</clipPath>
</defs>
</svg>
