<svg width="35" height="35" viewBox="0 0 35 35" fill="none" xmlns="http://www.w3.org/2000/svg">
<path d="M17.5 8.5C17.2355 8.5 16.9731 8.56103 16.7188 8.68135C13.6697 10.8932 10.6268 13.1352 7.58533 15.3642C7.53044 15.4057 7.4979 15.4724 7.50011 15.5388V24.9955C7.50011 25.8525 8.18192 26.4973 9.11941 26.5H25.8948C26.8181 26.4972 27.4909 25.8349 27.4999 24.9821V15.5388C27.5022 15.4724 27.4696 15.4057 27.4147 15.3642C24.3381 13.1803 21.3758 10.8345 18.2812 8.68135C18.0269 8.56103 17.7645 8.5 17.5 8.5ZM17.5 8.92314C17.6829 8.92314 17.8691 8.96971 18.0611 9.05746L26.8962 15.5388C23.9215 17.5769 20.9091 19.8345 18.0682 21.7918C17.6779 21.9724 17.3221 21.9724 16.9318 21.7918C13.9857 19.7219 11.0437 17.6245 8.10379 15.5388L16.9389 9.05746C17.1309 8.96971 17.3171 8.92314 17.5 8.92314ZM7.95465 15.9619C10.8906 18.0123 13.7755 20.139 16.7188 22.1746C17.2275 22.4152 17.7725 22.4152 18.2812 22.1746C21.2036 20.1117 24.1256 18.0334 27.0454 15.9619V24.982C27.0454 25.6375 26.5908 26.0674 25.8948 26.0701H9.11941C8.40919 26.0673 7.95465 25.6375 7.95465 24.9954V15.9619Z" fill="#40857E" stroke="#40857E"/>
</svg>
