<svg width="568" height="313" viewBox="0 0 568 313" fill="none" xmlns="http://www.w3.org/2000/svg">
<g clip-path="url(#clip0_9862_4582)">
<path opacity="0.5" d="M164.249 170.337H92.791V294.645H164.249H183.75H267.772V78.0234H164.249V170.337Z" fill="#D7CE4B"/>
<path opacity="0.5" d="M385.56 177.939V0H282.037V294.642H381.503H385.56H461.598V177.939H385.56Z" fill="#D7CE4B"/>
<path d="M568 290.711H0V293.333H568V290.711Z" fill="#516092"/>
<path d="M374.043 108.445H124.463V305.005H374.043V108.445Z" fill="#769A98"/>
<path d="M374.043 130.609H124.463V304.877H374.043V130.609Z" fill="white"/>
<path d="M133.362 122.742C135.386 122.742 137.026 121.098 137.026 119.07C137.026 117.042 135.386 115.398 133.362 115.398C131.338 115.398 129.697 117.042 129.697 119.07C129.697 121.098 131.338 122.742 133.362 122.742Z" fill="white"/>
<path d="M148.936 122.742C150.96 122.742 152.601 121.098 152.601 119.07C152.601 117.042 150.96 115.398 148.936 115.398C146.912 115.398 145.271 117.042 145.271 119.07C145.271 121.098 146.912 122.742 148.936 122.742Z" fill="white"/>
<path d="M164.379 122.742C166.403 122.742 168.044 121.098 168.044 119.07C168.044 117.042 166.403 115.398 164.379 115.398C162.355 115.398 160.715 117.042 160.715 119.07C160.715 121.098 162.355 122.742 164.379 122.742Z" fill="white"/>
<path d="M288.187 125.619H185.45C182.047 125.619 179.168 122.866 179.168 119.325C179.168 115.916 181.916 113.031 185.45 113.031H288.187C291.59 113.031 294.469 115.785 294.469 119.325C294.338 122.866 291.59 125.619 288.187 125.619Z" fill="white"/>
<path d="M358.86 125.619H310.175C306.772 125.619 303.893 122.866 303.893 119.325C303.893 115.916 306.641 113.031 310.175 113.031H358.86C362.263 113.031 365.142 115.785 365.142 119.325C365.011 122.866 362.263 125.619 358.86 125.619Z" fill="white"/>
<path d="M233.089 208.367H144.355V258.589H233.089V208.367Z" fill="#769A98"/>
<path d="M233.089 146.734H144.355V196.956H233.089V146.734Z" fill="#769A98"/>
<path d="M232.435 271.172H145.141V275.106H232.435V271.172Z" fill="#769A98"/>
<path d="M232.435 284.289H145.141V288.223H232.435V284.289Z" fill="#769A98"/>
<path d="M351.14 271.172H263.846V275.106H351.14V271.172Z" fill="#769A98"/>
<path d="M351.14 284.289H263.846V288.223H351.14V284.289Z" fill="#769A98"/>
<path d="M375.352 306.315H123.154V107.133H375.352V306.315ZM125.772 303.692H372.734V109.755H125.772V303.692Z" fill="#516092"/>
<path d="M435.161 276.677H409.51V60.7109H435.161V276.677ZM412.127 274.054H432.544V63.3335H412.127V274.054Z" fill="#516092"/>
<path d="M438.694 264.219H406.105V287.69H438.694V264.219Z" fill="#BCCCFD"/>
<path d="M433.983 251.762H411.341C410.818 251.762 410.294 251.499 410.164 250.975C409.902 250.45 410.033 249.926 410.425 249.533L432.281 225.93L434.245 227.765L414.352 249.139H433.983V251.762Z" fill="#516092"/>
<path d="M433.983 228.16H411.341C410.818 228.16 410.294 227.898 410.164 227.373C409.902 226.849 410.033 226.324 410.425 225.931L432.281 202.328L434.245 204.164L414.352 225.538H433.983V228.16Z" fill="#516092"/>
<path d="M433.983 204.426H411.341C410.818 204.426 410.294 204.164 410.164 203.639C409.902 203.115 410.033 202.59 410.425 202.197L432.281 178.594L434.245 180.43L414.482 201.803H434.114V204.426H433.983Z" fill="#516092"/>
<path d="M433.983 180.824H411.341C410.818 180.824 410.294 180.562 410.164 180.037C409.902 179.513 410.033 178.988 410.425 178.595L432.281 154.992L434.245 156.828L414.482 178.202H434.114V180.824H433.983Z" fill="#516092"/>
<path d="M433.983 157.223H411.341C410.818 157.223 410.294 156.96 410.164 156.436C409.902 155.911 410.033 155.387 410.425 154.993L432.281 131.391L434.245 133.226L414.482 154.6H434.114V157.223H433.983Z" fill="#516092"/>
<path d="M433.983 133.488H411.341C410.818 133.488 410.294 133.226 410.164 132.701C409.902 132.177 410.033 131.652 410.425 131.259L432.281 107.656L434.245 109.492L414.482 130.866H434.114V133.488H433.983Z" fill="#516092"/>
<path d="M433.983 109.887H411.341C410.818 109.887 410.294 109.624 410.164 109.1C409.902 108.575 410.033 108.051 410.425 107.658L432.281 84.0547L434.245 85.8905L414.482 107.264H434.114V109.887H433.983Z" fill="#516092"/>
<path d="M433.983 86.2851H411.341C410.818 86.2851 410.294 86.0229 410.164 85.4984C409.902 84.9739 410.033 84.4494 410.425 84.056L432.281 60.4531L434.245 62.2889L414.482 83.6626H434.114V86.2851H433.983Z" fill="#516092"/>
<path d="M435.161 51.6641H393.674V86.6749H435.161V51.6641Z" fill="#044236"/>
<path d="M497.458 51.6641H455.971V71.8576H497.458V51.6641Z" fill="#044236"/>
<path d="M496.803 54.1538H291.721C290.936 54.1538 290.412 53.6293 290.412 52.8425C290.412 52.0558 290.936 51.5312 291.721 51.5312H496.803C497.588 51.5312 498.112 52.0558 498.112 52.8425C498.112 53.6293 497.588 54.1538 496.803 54.1538Z" fill="#516092"/>
<path d="M302.584 59.0078H301.275V144.24H302.584V59.0078Z" fill="#516092"/>
<path d="M449.819 283.367H394.982V293.726H449.819V283.367Z" fill="#516092"/>
<path d="M414.483 53.8962C414.352 53.8962 414.09 53.8962 413.959 53.7651L402.966 42.7505H302.715L292.376 53.1095C292.114 53.3717 291.722 53.3717 291.46 53.1095C291.198 52.8472 291.198 52.4538 291.46 52.1916L302.061 41.5703H403.359L414.614 52.8472C414.876 53.1095 414.876 53.5029 414.614 53.7651C414.876 53.7651 414.745 53.8962 414.483 53.8962Z" fill="#516092"/>
<path d="M497.72 53.8959C497.458 53.8959 497.196 53.7648 497.196 53.5025L486.203 32.5222H459.635L449.296 52.8469C449.165 53.1091 448.772 53.2403 448.38 53.1091C448.118 52.978 447.987 52.5846 448.118 52.1912L458.719 31.2109H486.857L498.112 52.8469C498.243 53.1091 498.112 53.5025 497.85 53.7648C497.85 53.8959 497.85 53.8959 497.72 53.8959Z" fill="#516092"/>
<path d="M301.93 63.8596C304.605 63.8596 306.773 61.6875 306.773 59.0079C306.773 56.3284 304.605 54.1562 301.93 54.1562C299.256 54.1562 297.088 56.3284 297.088 59.0079C297.088 61.6875 299.256 63.8596 301.93 63.8596Z" fill="#BCCCFD"/>
<path d="M353.159 142.578L243.555 152.727L248.77 209.266L358.374 199.117L353.159 142.578Z" fill="#769A98"/>
<path d="M330.33 42.7506C330.068 42.7506 329.806 42.6195 329.675 42.2261C329.545 41.8328 329.806 41.5705 330.068 41.4394L426.916 11.8047C427.047 11.8047 427.178 11.8047 427.309 11.8047L473.246 31.2115C473.639 31.3426 473.769 31.736 473.639 32.1294C473.508 32.5227 473.115 32.6539 472.722 32.5227L427.178 13.116L330.461 42.6195C330.461 42.7506 330.461 42.7506 330.33 42.7506Z" fill="#516092"/>
<path d="M411.996 53.8961C411.865 53.8961 411.734 53.8961 411.473 53.765C410.818 53.5027 410.426 52.716 410.687 52.0603L426 11.8044C426.262 11.2799 426.785 10.8865 427.309 11.0176C427.832 11.0176 428.356 11.5421 428.487 12.0666L436.339 51.2736C436.47 51.9292 436.077 52.716 435.292 52.8471C434.638 52.9782 433.852 52.5848 433.722 51.7981L426.785 17.0494L413.174 52.9782C413.043 53.6339 412.52 53.8961 411.996 53.8961Z" fill="#516092"/>
<path d="M427.178 15.081C428.624 15.081 429.796 13.9069 429.796 12.4585C429.796 11.0101 428.624 9.83594 427.178 9.83594C425.732 9.83594 424.561 11.0101 424.561 12.4585C424.561 13.9069 425.732 15.081 427.178 15.081Z" fill="#BCCCFD"/>
<path d="M316.588 54.0259C316.457 54.0259 316.326 54.0259 316.195 53.8947L303.369 43.5357V53.2391C303.369 53.6325 303.108 53.8947 302.715 53.8947C302.322 53.8947 302.061 53.6325 302.061 53.2391V42.0933C302.061 41.8311 302.191 41.5688 302.453 41.4377C302.715 41.3066 302.977 41.3066 303.108 41.5688L316.98 52.8457C317.242 53.108 317.242 53.5014 317.111 53.7636C316.98 53.8948 316.719 54.0259 316.588 54.0259Z" fill="#516092"/>
<path d="M329.021 54.0259C328.89 54.0259 328.76 54.0259 328.629 53.8947L315.803 43.5357V53.2391C315.803 53.6325 315.541 53.8947 315.149 53.8947C314.756 53.8947 314.494 53.6325 314.494 53.2391V42.0933C314.494 41.8311 314.625 41.5688 314.887 41.4377C315.149 41.3066 315.41 41.3066 315.541 41.5688L329.414 52.8457C329.676 53.108 329.676 53.5014 329.545 53.7636C329.283 53.8948 329.152 54.0259 329.021 54.0259Z" fill="#516092"/>
<path d="M341.453 54.0259C341.322 54.0259 341.191 54.0259 341.06 53.8947L328.235 43.5357V53.2391C328.235 53.6325 327.973 53.8947 327.58 53.8947C327.188 53.8947 326.926 53.6325 326.926 53.2391V42.0933C326.926 41.8311 327.057 41.5688 327.318 41.4377C327.58 41.3066 327.842 41.3066 327.973 41.5688L341.846 52.8457C342.107 53.108 342.107 53.5014 341.976 53.7636C341.715 53.8948 341.584 54.0259 341.453 54.0259Z" fill="#516092"/>
<path d="M353.887 54.0259C353.756 54.0259 353.625 54.0259 353.494 53.8947L340.668 43.5357V53.2391C340.668 53.6325 340.406 53.8947 340.014 53.8947C339.621 53.8947 339.359 53.6325 339.359 53.2391V42.0933C339.359 41.8311 339.49 41.5688 339.752 41.4377C340.014 41.3066 340.276 41.3066 340.406 41.5688L354.279 52.8457C354.541 53.108 354.541 53.5014 354.41 53.7636C354.148 53.8948 354.017 54.0259 353.887 54.0259Z" fill="#516092"/>
<path d="M366.189 54.0259C366.058 54.0259 365.928 54.0259 365.797 53.8947L352.971 43.5357V53.2391C352.971 53.6325 352.709 53.8947 352.316 53.8947C351.924 53.8947 351.662 53.6325 351.662 53.2391V42.0933C351.662 41.8311 351.793 41.5688 352.055 41.4377C352.316 41.3066 352.578 41.3066 352.709 41.5688L366.582 52.8457C366.844 53.108 366.844 53.5014 366.713 53.7636C366.582 53.8948 366.451 54.0259 366.189 54.0259Z" fill="#516092"/>
<path d="M378.623 54.0259C378.492 54.0259 378.361 54.0259 378.23 53.8947L365.404 43.5357V53.2391C365.404 53.6325 365.143 53.8947 364.75 53.8947C364.357 53.8947 364.096 53.6325 364.096 53.2391V42.0933C364.096 41.8311 364.227 41.5688 364.488 41.4377C364.75 41.3066 365.012 41.3066 365.143 41.5688L379.015 52.8457C379.277 53.108 379.277 53.5014 379.146 53.7636C379.015 53.8948 378.885 54.0259 378.623 54.0259Z" fill="#516092"/>
<path d="M391.056 54.0259C390.926 54.0259 390.795 54.0259 390.664 53.8947L377.838 43.5357V53.2391C377.838 53.6325 377.576 53.8947 377.184 53.8947C376.791 53.8947 376.529 53.6325 376.529 53.2391V42.0933C376.529 41.8311 376.66 41.5688 376.922 41.4377C377.184 41.3066 377.445 41.3066 377.576 41.5688L391.449 52.8457C391.711 53.108 391.711 53.5014 391.58 53.7636C391.449 53.8948 391.318 54.0259 391.056 54.0259Z" fill="#516092"/>
<path d="M403.488 54.0259C403.357 54.0259 403.226 54.0259 403.095 53.8947L390.27 43.5357V53.2391C390.27 53.6325 390.008 53.8947 389.615 53.8947C389.223 53.8947 388.961 53.6325 388.961 53.2391V42.0933C388.961 41.8311 389.092 41.5688 389.354 41.4377C389.615 41.3066 389.877 41.3066 390.008 41.5688L403.881 52.8457C404.142 53.108 404.143 53.5014 404.012 53.7636C403.881 53.8948 403.75 54.0259 403.488 54.0259Z" fill="#516092"/>
<path d="M477.041 54.0222C476.911 54.0222 476.649 53.8911 476.518 53.76L459.766 33.9598V53.1043C459.766 53.4977 459.504 53.76 459.111 53.76C458.719 53.76 458.457 53.4977 458.457 53.1043V32.124C458.457 31.8618 458.588 31.5995 458.85 31.4684C459.111 31.3373 459.373 31.4684 459.635 31.5995L477.434 52.7109C477.696 52.9732 477.696 53.3666 477.303 53.6288C477.303 53.8911 477.172 54.0222 477.041 54.0222Z" fill="#516092"/>
<path d="M489.867 54.0288C489.605 54.0288 489.474 53.8977 489.344 53.7666L476.649 34.4909V53.2421C476.649 53.6355 476.387 53.8977 475.994 53.8977C475.602 53.8977 475.34 53.6355 475.34 53.2421V32.2618C475.34 31.9995 475.471 31.7373 475.863 31.6061C476.125 31.475 476.387 31.6061 476.649 31.8684L490.521 52.9798C490.783 53.2421 490.652 53.6355 490.391 53.8977C490.129 53.8977 489.998 54.0288 489.867 54.0288Z" fill="#516092"/>
<path d="M301.93 150.013C304.171 150.013 305.987 148.193 305.987 145.948C305.987 143.703 304.171 141.883 301.93 141.883C299.689 141.883 297.873 143.703 297.873 145.948C297.873 148.193 299.689 150.013 301.93 150.013Z" fill="#ED7445"/>
<path d="M81.2738 228.422H78.6562V291.363H81.2738V228.422Z" fill="#516092"/>
<path d="M31.5413 228.422H28.9238V291.363H31.5413V228.422Z" fill="#516092"/>
<path d="M88.0784 234.32H22.3789V258.579H88.0784V234.32Z" fill="#769A98"/>
<path d="M88.0796 258.58V235.633L76.0391 258.58H88.0796Z" fill="#044236"/>
<path d="M46.5918 258.579H60.5955L73.4213 234.32H59.4176L46.5918 258.579Z" fill="#044236"/>
<path d="M29.9697 234.32L22.3789 248.613V258.579H31.1476L43.9734 234.32H29.9697Z" fill="#044236"/>
<path d="M91.089 273.008H19.1074V275.63H91.089V273.008Z" fill="#516092"/>
<path d="M536.721 228.422H534.104V291.363H536.721V228.422Z" fill="#516092"/>
<path d="M486.989 228.422H484.371V291.363H486.989V228.422Z" fill="#516092"/>
<path d="M543.526 234.32H477.826V258.579H543.526V234.32Z" fill="#769A98"/>
<path d="M543.527 258.58V235.633L531.486 258.58H543.527Z" fill="#044236"/>
<path d="M502.039 258.579H516.043L528.869 234.32H514.865L502.039 258.579Z" fill="#044236"/>
<path d="M485.417 234.32L477.826 248.613V258.579H486.595L499.421 234.32H485.417Z" fill="#044236"/>
<path d="M546.536 273.008H474.555V275.63H546.536V273.008Z" fill="#516092"/>
<path d="M119.752 309.461H89.9123C88.8653 309.461 88.0801 310.248 88.0801 311.297C88.0801 312.346 88.8653 313.133 89.9123 313.133H119.752C120.799 313.133 121.584 312.346 121.584 311.297C121.584 310.248 120.668 309.461 119.752 309.461Z" fill="#044236"/>
<path d="M107.318 284.023C107.187 283.629 106.795 283.367 106.402 283.367H102.999C102.607 283.367 102.214 283.629 102.083 284.023L92.3984 311.559H117.265L107.318 284.023Z" fill="#044236"/>
<path d="M100.252 289.141L98.6816 293.468H110.722L109.152 289.141H100.252Z" fill="#769A98"/>
<path d="M96.3244 300.281L94.8848 304.608H114.778L113.207 300.281H96.3244Z" fill="#769A98"/>
<path opacity="0.5" d="M115.301 77.2302C113.076 77.2302 111.113 77.8858 109.412 79.066V76.1812C109.412 67.789 102.737 61.1016 94.3609 61.1016C85.9848 61.1016 79.3102 67.789 79.3102 76.1812V81.8196C78.0014 80.5084 76.1692 79.7216 74.0752 79.7216C69.8871 79.7216 66.4844 83.1309 66.4844 87.327H125.509C125.509 81.8196 120.929 77.2302 115.301 77.2302Z" fill="#D7CE4B"/>
<path opacity="0.5" d="M236.885 36.192C235.315 36.192 233.875 36.7166 232.566 37.5033V35.4053C232.566 29.3734 227.724 24.3906 221.573 24.3906C215.553 24.3906 210.579 29.2423 210.579 35.4053V39.6014C209.532 38.6835 208.224 38.0278 206.784 38.0278C203.774 38.0278 201.287 40.5192 201.287 43.5352H244.214C244.214 39.4702 240.942 36.192 236.885 36.192Z" fill="#D7CE4B"/>
</g>
<defs>
<clipPath id="clip0_9862_4582">
<rect width="568" height="313" fill="white"/>
</clipPath>
</defs>
</svg>
