<svg width="26" height="16" viewBox="0 0 26 16" fill="none" xmlns="http://www.w3.org/2000/svg">
<g clip-path="url(#clip0_11137_4051)">
<path d="M16.87 1.71094H9.13428V14.2882H16.87V1.71094Z" fill="#FF5F00"/>
<path d="M9.93095 8.00071C9.92999 6.78968 10.2058 5.5943 10.7374 4.50503C11.269 3.41576 12.0426 2.46114 12.9996 1.71341C11.8143 0.786151 10.3908 0.209555 8.8919 0.0495201C7.39298 -0.110515 5.87906 0.152466 4.52318 0.808408C3.1673 1.46435 2.02415 2.48679 1.22438 3.75887C0.424609 5.03096 0.000488281 6.50136 0.000488281 8.00204C0.000488281 9.50272 0.424609 10.9731 1.22438 12.2452C2.02415 13.5173 3.1673 14.5397 4.52318 15.1957C5.87906 15.8516 7.39298 16.1146 8.8919 15.9546C10.3908 15.7945 11.8143 15.2179 12.9996 14.2907C12.0423 13.5427 11.2685 12.5876 10.7368 11.4979C10.2052 10.4081 9.92958 9.21218 9.93095 8.00071V8.00071Z" fill="#EB001B"/>
<path d="M25.2341 12.9554V12.6979H25.3457V12.6445H25.0801V12.6979H25.1874V12.9559L25.2341 12.9554ZM25.7497 12.9554V12.6445H25.6692L25.5753 12.8667L25.4814 12.6445H25.4009V12.9554H25.4589V12.7193L25.5458 12.9217H25.6059L25.6928 12.7193V12.9549L25.7497 12.9554Z" fill="#F79E1B"/>
<path d="M26 8.0006C26 9.50141 25.5758 10.9719 24.7758 12.2441C23.9759 13.5162 22.8325 14.5386 21.4764 15.1945C20.1203 15.8503 18.6062 16.1131 17.1072 15.9528C15.6082 15.7924 14.1847 15.2155 12.9995 14.2879C13.9562 13.5395 14.7296 12.5846 15.2614 11.4952C15.7933 10.4058 16.0696 9.21046 16.0696 7.99926C16.0696 6.78806 15.7933 5.59267 15.2614 4.5033C14.7296 3.41393 13.9562 2.45902 12.9995 1.71063C14.1847 0.782989 15.6083 0.206046 17.1074 0.0457511C18.6064 -0.114544 20.1206 0.148279 21.4767 0.804174C22.8328 1.46007 23.9761 2.48257 24.776 3.75479C25.5759 5.027 26.0001 6.4976 26 7.99846V8.0006Z" fill="#F79E1B"/>
</g>
<defs>
<clipPath id="clip0_11137_4051">
<rect width="26" height="16" fill="white"/>
</clipPath>
</defs>
</svg>
