<svg width="47" height="48" viewBox="0 0 47 48" fill="none" xmlns="http://www.w3.org/2000/svg">
<path d="M17.4966 21.3916C19.6272 21.3916 21.3545 19.6644 21.3545 17.5337C21.3545 15.403 19.6272 13.6758 17.4966 13.6758C15.3659 13.6758 13.6387 15.403 13.6387 17.5337C13.6387 19.6644 15.3659 21.3916 17.4966 21.3916Z" fill="#F8F3E8"/>
<path d="M29.4658 33.3604C31.5965 33.3604 33.3237 31.6331 33.3237 29.5024C33.3237 27.3718 31.5965 25.6445 29.4658 25.6445C27.3352 25.6445 25.6079 27.3718 25.6079 29.5024C25.6079 31.6331 27.3352 33.3604 29.4658 33.3604Z" fill="#F8F3E8"/>
<path d="M32.2855 14.7127C31.7414 14.1687 30.8511 14.1687 30.2576 14.7127L14.6776 30.2928C14.1335 30.8368 14.1335 31.7271 14.6776 32.3206C14.9743 32.6174 15.3206 32.7163 15.6668 32.7163C16.013 32.7163 16.4087 32.5679 16.656 32.3206L32.1866 16.7901C32.8295 16.1965 32.8295 15.2568 32.2855 14.7127Z" fill="#F8F3E8"/>
<path d="M46.975 23.5171C46.975 22.8247 46.6783 22.1322 46.1836 21.6376L42.8203 18.4227L44.0569 13.724C44.4525 12.3391 43.6117 10.8553 42.1774 10.509L37.6765 9.42091L36.4399 4.72218C36.0443 3.33728 34.6099 2.49646 33.225 2.84268L28.7736 4.12865L25.3608 0.765344C24.3716 -0.223865 22.6405 -0.223865 21.6513 0.765344L18.4364 4.12865L13.7376 2.89214C12.3527 2.49646 10.8689 3.33728 10.5227 4.77164L9.43457 9.27253L4.73583 10.509C4.04339 10.7069 3.49932 11.1026 3.1531 11.7456C2.80688 12.3391 2.70796 13.081 2.9058 13.724L4.19177 18.1754L0.779001 21.5882C-0.259667 22.6268 -0.259667 24.3085 0.779001 25.2977L4.14231 28.5126L2.9058 33.2114C2.70796 33.9038 2.80688 34.5963 3.1531 35.1898C3.49932 35.7833 4.09285 36.2285 4.73583 36.4263L9.23673 37.5144L10.4732 42.2132C10.8689 43.5981 12.3033 44.4389 13.6882 44.0927L18.1396 42.8067L21.5524 46.2195C22.047 46.7141 22.7394 47.0108 23.4319 47.0108C24.1243 47.0108 24.7673 46.7635 25.3114 46.2195L28.5263 42.8561L33.225 44.0927C34.6099 44.4883 36.0937 43.6475 36.4399 42.2132L37.5281 37.7123L42.2268 36.4758C43.6117 36.0801 44.4525 34.6457 44.1063 33.2608L42.8698 28.7105L46.2331 25.3472C46.6782 24.902 46.975 24.259 46.975 23.5171ZM40.743 26.831C40.1 27.474 39.8033 28.4632 40.0506 29.3535L41.2376 33.8049L36.7367 34.9919C35.8464 35.2392 35.1045 35.9317 34.8572 36.8714L33.6702 41.3229L29.1693 40.1358C28.279 39.8885 27.2898 40.1358 26.6468 40.8283L23.3824 44.0927L20.118 40.8283C19.6234 40.3337 18.931 40.0369 18.2385 40.0369C17.9912 40.0369 17.7934 40.0864 17.5461 40.1358L13.0946 41.3229L11.9076 36.822C11.6603 35.9317 10.9678 35.1898 10.0281 34.9425L5.57666 33.7554L6.76371 29.2545C7.01101 28.3642 6.76371 27.375 6.07126 26.7321L2.80688 23.4677L6.07126 20.2033C6.71425 19.5603 7.01101 18.5711 6.76371 17.6808L5.57666 13.2294L10.0776 12.0423C10.9678 11.795 11.7098 11.1026 11.9571 10.1628L13.1441 5.71138L17.5955 6.89843C18.4858 7.14574 19.475 6.89843 20.1675 6.20599L23.4319 2.9416L26.6962 6.20599C27.3392 6.84897 28.3284 7.14574 29.2187 6.89843L33.6702 5.71138L34.8572 10.2123C35.1045 11.1026 35.797 11.8445 36.7367 12.0918L41.1881 13.2788L40.0011 17.7797C39.7538 18.67 40.0011 19.6592 40.6935 20.3022L43.9579 23.5666L40.743 26.831Z" fill="#F8F3E8"/>
</svg>
