<svg width="24" height="24" viewBox="0 0 24 24" fill="none" xmlns="http://www.w3.org/2000/svg">
<circle opacity="0.2" cx="12" cy="12" r="12" fill="black"/>
<path d="M15.8331 7.625H15.8175H15.8018H15.7861H15.7704H15.7547H15.739H15.7233H15.7077H15.692H15.6763H15.6606H15.6449H15.6292H15.6136H15.5979H15.5822H15.5665H15.5508H15.5351H15.5195H15.5038H15.4881H15.4724H15.4567H15.441H15.4253H15.4097H15.394H15.3783H15.3626H15.3469H15.3312H15.3156H15.2999H15.2842H15.2685H15.2528H15.2371H15.2215H15.2058H15.1901H15.1744H15.1587H15.143H15.1273H15.1117H15.096H15.0803H15.0646H15.0489H15.0332H15.0176H15.0019H14.9862H14.9705H14.9548H14.9391H14.9235H14.9078H14.8921H14.8764H14.8607H14.845H14.8293H14.8137H14.798H14.7823H14.7666H14.7509H14.7352H14.7196H14.7039H14.6882H14.6725H14.6568H14.6411H14.6255H14.6098H14.5941H14.5784H14.5627H14.547H14.5313H14.5157H14.5H14.4843H14.4686H14.4529H14.4372H14.4216H14.4059H14.3902H14.3745H14.3588H14.3431H14.3275H14.3118H14.2961H14.2804H14.2647H14.249H14.2333H14.2177H14.202H14.1863H14.1706H14.1549H14.1392H14.1236H14.1079H14.0922H14.0765H14.0608H14.0451H14.0295H14.0138H13.9981H13.9824H13.9667H13.951H13.9354H13.9197H13.904H13.8883H13.8726H13.8569H13.8412H13.8256H13.8099H13.7942H13.7785H13.7628H13.7471H13.7315H13.7158H13.7001H13.6844H13.6687H13.653H13.6374H13.6217H13.606H13.5903H13.5746H13.5589H13.5432H13.5276H13.5119H13.4962H13.4805H13.4648H13.4491H13.4335H13.4178H13.4021H13.3864H13.3707H13.355H13.3394H13.3237H13.308H13.2923H13.2766H13.2609H13.2452H13.2296H13.2139H13.1982H13.1825H13.1668H13.1511H13.1355H13.1198H13.1041H13.0884H13.0727H13.057H13.0414H13.0257H13.01H12.9943H12.9786H12.9629H12.9472H12.9316H12.9159H12.9002H12.8845H12.8688H12.8531H12.8375H12.8218H12.8061H12.7904H12.7747H12.759H12.7434H12.7277H12.712H12.6963H12.6806H12.6649H12.6492H12.6336H12.6179H12.6022H12.5865H12.5708H12.5551H12.5395H12.5238H12.5081H12.4924H12.4767H12.461H12.4454H12.4297H12.414H12.3983H12.3826H12.3669H12.3512H12.3356H12.3199H12.3042H12.2885H12.2728H12.2571H12.2415H12.2258H12.2101H12.1944H12.1787H12.163H12.1474H12.1317H12.116H12.1003H12.0846H12.0689H12.0532H12.0376H12.0219H12.0062H11.9905H11.9748H11.9591H11.9435H11.9278H11.9121H11.8964H11.8807H11.865H11.8494H11.8337H11.818H11.8023H11.7866H11.7709H11.7552H11.7396H11.7239H11.7082H11.6925H11.6768H11.6611H11.6455H11.6298H11.6141H11.5984H11.5827H11.567H11.5514H11.5357H11.52H11.5043H11.4886H11.4729H11.4572H11.4416H11.4259H11.4102H11.3945H11.3788H11.3631H11.3475H11.3318H11.3161H11.3004H11.2847H11.269H11.2534H11.2377H11.222H11.2063H11.1906H11.1749H11.1592H11.1436H11.1279H11.1122H11.0965H11.0808H11.0651H11.0495H11.0338H11.0181H11.0024H10.9867H10.971H10.9554H10.9397H10.924H10.9083H10.8926H10.8769H10.8612H10.8456H10.8299H10.8142H10.7985H10.7828H10.7671H10.7515H10.7358H10.7201H10.7044H10.6887H10.673H10.6574H10.6417H10.626H10.6103H10.5946H10.5789H10.5633H10.5476H10.5319H10.5162H10.5005H10.4848H10.4691H10.4535H10.4378H10.4221H10.4064H10.3907H10.375H10.3594H10.3437H10.328H10.3123H10.2966H10.2809H10.2653H10.2496H10.2339H10.2182H10.2025H10.1868H10.1711H10.1555H10.1398H10.1241H10.1084H10.0927H10.077H10.0614H10.0457H10.03H10.0143H9.99862H9.98294H9.96725H9.95157H9.93588H9.9202H9.90451H9.88883H9.87315H9.85746H9.84178H9.82609H9.81041H9.79472H9.77904H9.76336H9.74767H9.73199H9.7163H9.70062H9.68494H9.66925H9.65357H9.63788H9.6222H9.60651H9.59083H9.57515H9.55946H9.54378H9.52809H9.51241H9.49673H9.48104H9.46536H9.44967H9.43399H9.4183H9.40262H9.38694H9.37125H9.35557H9.33988H9.3242H9.30852H9.29283H9.27715H9.26146H9.24578H9.23009H9.21441H9.19873H9.18304H9.16736H9.15167H9.13599H9.1203H9.10462H9.08894H9.07325H9.05757H9.04188H9.0262H9.01052H8.99483H8.97915H8.96346H8.94778H8.93209H8.91641H8.90073H8.88504H8.86936H8.85367H8.83799H8.82231H8.80662H8.79094H8.77525H8.75957H8.74388H8.7282H8.71252H8.69683H8.68115H8.66546H8.64978H8.63409H8.61841H8.60273H8.58704H8.57136H8.55567H8.53999H8.52431H8.50862H8.49294H8.47725H8.46157H8.44588H8.4302H8.41452H8.39883H8.38315H8.36746H8.35178H8.3361H8.32041H8.30473H8.28904H8.27336H8.25767H8.24199H8.22631H8.21062H8.19494H8.17925H8.16357H8.14789H8.1322H8.11652H8.10083H8.08515H8.06946H8.05378H8.0381H8.02241H8.00673H7.99104H7.97536H7.95967H7.94399H7.92831H7.91262H7.89694H7.88125H7.86557H7.84989H7.8342H7.81852H7.80283C7.51219 7.625 7.28516 7.85203 7.28516 8.14268V8.67803C7.28516 8.96868 7.51219 9.19571 7.80283 9.19571H15.8331C16.1238 9.19571 16.3508 8.96868 16.3508 8.67803V8.14268C16.3508 7.85203 16.1238 7.625 15.8331 7.625Z" fill="white" stroke="white" stroke-width="0.5"/>
<path d="M11.8185 10.9859C11.616 10.9859 11.4508 11.1512 11.4508 11.3536V15.3688C11.4508 15.5712 11.616 15.7364 11.8185 15.7364C12.0209 15.7364 12.1861 15.5712 12.1861 15.3688V11.3536C12.1861 11.1512 12.0209 10.9859 11.8185 10.9859Z" fill="white" stroke="white" stroke-width="0.2"/>
<path d="M13.6915 10.9859C13.4891 10.9859 13.3238 11.1512 13.3238 11.3536V15.3688C13.3238 15.5712 13.4891 15.7364 13.6915 15.7364C13.894 15.7364 14.0592 15.5712 14.0592 15.3688V11.3536C14.0592 11.1512 13.894 10.9859 13.6915 10.9859Z" fill="white" stroke="white" stroke-width="0.2"/>
<path d="M9.94346 10.9859C9.74101 10.9859 9.57578 11.1512 9.57578 11.3536V15.3688C9.57578 15.5712 9.74101 15.7364 9.94346 15.7364C10.1459 15.7364 10.3111 15.5712 10.3111 15.3688V11.3536C10.3111 11.1512 10.1459 10.9859 9.94346 10.9859Z" fill="white" stroke="white" stroke-width="0.2"/>
<path d="M8.48838 9.6298H15.148V16.592C15.148 16.8732 14.9287 17.0924 14.6475 17.0924H8.98884C8.70764 17.0924 8.48838 16.8732 8.48838 16.592V9.6298ZM13.0066 6.80303V7.18838H10.6298V6.80303C10.6298 6.7333 10.6777 6.68535 10.7475 6.68535H12.8889C12.9586 6.68535 13.0066 6.7333 13.0066 6.80303ZM13.8419 7.18838V6.80303C13.8419 6.2812 13.4107 5.85 12.8889 5.85H10.7475C10.2256 5.85 9.79444 6.2812 9.79444 6.80303V7.18838H7.80303C7.2812 7.18838 6.85 7.61958 6.85 8.14141V8.67677C6.85 9.14763 7.20108 9.5447 7.65303 9.61777V16.592C7.65303 17.3279 8.25286 17.9278 8.98884 17.9278H14.6475C15.3835 17.9278 15.9833 17.3279 15.9833 16.592V9.61777C16.4353 9.5447 16.7864 9.14763 16.7864 8.67677V8.14141C16.7864 7.61958 16.3552 7.18838 15.8333 7.18838H13.8419Z" fill="white" stroke="white" stroke-width="0.3"/>
<path d="M7.80283 7.875C10.4796 7.875 13.1564 7.875 15.8331 7.875C15.9857 7.875 16.1008 7.9901 16.1008 8.14268V8.67803C16.1008 8.83061 15.9857 8.94571 15.8331 8.94571H7.80283C7.65026 8.94571 7.53516 8.83061 7.53516 8.67803V8.14268C7.53516 7.9901 7.65026 7.875 7.80283 7.875Z" fill="#017DC2"/>
</svg>
