<svg width="130" height="130" viewBox="0 0 130 130" fill="none" xmlns="http://www.w3.org/2000/svg">
<path d="M11.9679 48.4121H16.0474C21.093 48.226 21.0936 40.9813 16.0474 40.7949H11.9679C6.92254 40.981 6.92177 48.2257 11.9679 48.4121Z" fill="#004236"/>
<path d="M118.034 81.5898H113.954C108.909 81.776 108.908 89.0207 113.954 89.207H118.034C123.079 89.0207 123.08 81.776 118.034 81.5898Z" fill="#D6CD56"/>
<path d="M44.6035 19.8561C46.7069 19.8561 48.4121 18.1509 48.4121 16.0475V11.968C48.226 6.92238 40.9813 6.92187 40.7949 11.968V16.0475C40.7949 18.1509 42.4999 19.8561 44.6035 19.8561Z" fill="#D6CD56"/>
<path d="M85.3965 110.145C83.2931 110.145 81.5879 111.85 81.5879 113.953V118.033C81.774 123.078 89.0187 123.079 89.2051 118.033V113.953C89.2051 111.85 87.5001 110.145 85.3965 110.145Z" fill="#004236"/>
<path d="M21.7134 27.1002C25.4082 30.5419 30.5384 25.4265 27.1076 21.722L24.2316 18.8374C20.537 15.3959 15.4064 20.5104 18.8374 24.2156C18.8374 24.2159 21.7134 27.1002 21.7134 27.1002Z" fill="#D6CD56"/>
<path d="M108.288 102.9C104.594 99.4584 99.463 104.573 102.894 108.278L105.77 111.163C109.465 114.604 114.595 109.489 111.164 105.785C111.164 105.784 108.288 102.9 108.288 102.9Z" fill="#D6CD56"/>
<path d="M13.6565 104.807C12.748 103.9 11.902 102.946 11.1187 101.953L1.11554 111.957C-0.371846 113.444 -0.371846 115.855 1.11554 117.343L12.6571 128.884C14.1445 130.372 16.5558 130.372 18.0432 128.884L28.0428 118.885C25.9775 117.431 15.6903 106.741 13.6565 104.807Z" fill="#004236"/>
<path d="M41.3516 54.0374L52.8903 65.5756L59.0501 59.4177C62.2183 56.2486 62.2536 51.0832 59.0498 47.8784C55.8709 44.6992 50.6907 44.6934 47.5032 47.8814L41.3516 54.0374Z" fill="#004236"/>
<path d="M82.1235 70.9526C78.9446 67.7734 73.7645 67.7676 70.5769 70.9556L64.4258 77.1108L75.9645 88.6491L82.1238 82.4919C85.292 79.3226 85.3273 74.1574 82.1235 70.9526Z" fill="#004236"/>
<path d="M33.0786 56.5374C31.592 55.051 29.1822 55.0498 27.6948 56.5351L19.0457 65.1895C9.56741 74.6564 9.57935 89.97 19.0452 99.4245L30.57 110.963C40.0164 120.398 55.3787 120.388 64.8202 110.958C64.8202 110.958 73.4616 102.311 73.4627 102.31C74.9508 100.824 74.9531 98.4096 73.465 96.9215L33.0786 56.5374Z" fill="#004236"/>
<path d="M128.884 12.6571L117.343 1.11554C115.855 -0.371846 113.444 -0.371846 111.957 1.11554L101.957 11.1151C102.951 11.8967 103.904 12.7404 104.812 13.6471C106.793 15.7324 117.372 25.9394 118.881 28.0464L128.885 18.0432C130.371 16.5558 130.371 14.1445 128.884 12.6571Z" fill="#D6CD56"/>
<path d="M110.954 64.8103C120.434 55.3424 120.42 40.0291 110.954 30.5754L99.4299 19.0369C89.9884 9.60678 74.6263 9.60653 65.18 19.0419C65.18 19.0419 56.5385 27.6887 56.5373 27.6897C55.0491 29.1756 55.0466 31.59 56.535 33.0784L96.9211 73.4627C98.4077 74.949 100.817 74.9501 102.305 73.465L110.954 64.8103Z" fill="#D6CD56"/>
</svg>
