<svg width="217" height="197" viewBox="0 0 217 197" fill="none" xmlns="http://www.w3.org/2000/svg">
<rect width="217" height="197" fill="white"/>
<path d="M187.011 18.114L5.18359 70.8438L9.99967 87.2964L191.827 34.5667L187.011 18.114Z" fill="#D7CE4B"/>
<path d="M26.9087 146.416L0.108866 54.8623C-0.0898211 54.1836 -0.00945804 53.454 0.332264 52.8342C0.673985 52.2144 1.24908 51.7551 1.93103 51.5573L179.35 0.105849C180.032 -0.0912461 180.765 -0.0109869 181.387 0.329019C182.01 0.669025 182.471 1.24099 182.671 1.91938L206.413 83.029L205.679 83.2421L181.936 2.13247C181.793 1.64811 181.464 1.23979 181.019 0.99697C180.574 0.754146 180.051 0.696612 179.564 0.836981L2.14508 52.2885C1.65796 52.4298 1.24719 52.7578 1.0031 53.2006C0.759013 53.6433 0.701611 54.1644 0.843523 54.6492L27.6434 146.202L26.9087 146.416Z" fill="#044236"/>
<path d="M167.144 83.4052C166.606 83.4046 166.083 83.2306 165.652 82.9091C165.221 82.5876 164.907 82.136 164.756 81.6218L160.261 66.266C160.077 65.6358 160.152 64.9587 160.469 64.3834C160.786 63.8081 161.32 63.3815 161.953 63.1972L177.38 58.7231C178.014 58.5403 178.694 58.6149 179.272 58.9307C179.85 59.2464 180.279 59.7775 180.464 60.4074L184.959 75.7632C185.142 76.3934 185.067 77.0705 184.75 77.6458C184.433 78.2211 183.9 78.6477 183.267 78.832L167.839 83.3061C167.613 83.3717 167.379 83.4051 167.144 83.4052Z" fill="#044236"/>
<path d="M26.4928 55.145C26.4466 54.9873 26.3917 54.8322 26.3282 54.6805C25.8969 53.6384 25.0938 52.7917 24.0734 52.3032C23.053 51.8146 21.8871 51.7187 20.7999 52.0337C19.7127 52.3488 18.7809 53.0526 18.1834 54.01C17.5859 54.9674 17.3649 56.1108 17.563 57.2205C17.5908 57.3824 17.6278 57.5426 17.6739 57.7003C17.9533 58.6495 18.5341 59.4831 19.3294 60.0763C20.1246 60.6694 21.0915 60.9902 22.0852 60.9906C22.5191 60.9915 22.9508 60.93 23.367 60.8078C24.535 60.4681 25.5201 59.6812 26.106 58.6196C26.692 57.5581 26.8311 56.3085 26.4928 55.145ZM23.1527 60.0766C22.1786 60.358 21.1321 60.2434 20.2428 59.758C19.3534 59.2726 18.6938 58.4559 18.4085 57.4871C18.3637 57.3293 18.3279 57.1691 18.3013 57.0072C18.1578 56.093 18.3538 55.1579 18.8526 54.377C19.3514 53.5961 20.1189 53.0228 21.0116 52.7643C21.9043 52.5057 22.8611 52.5797 23.703 52.9723C24.5449 53.3649 25.2143 54.0493 25.586 54.8975C25.6553 55.0465 25.7129 55.2005 25.7582 55.3583C26.0406 56.3279 25.9248 57.3694 25.4362 58.254C24.9477 59.1387 24.1264 59.7942 23.1527 60.0766V60.0766Z" fill="#044236"/>
<path d="M15.233 58.409C14.9882 57.5721 15.0117 56.6799 15.3003 55.8569C15.5889 55.0339 16.1282 54.321 16.8432 53.8175C16.1734 53.785 15.5055 53.9123 14.8951 54.1887C14.2848 54.4652 13.7496 54.8828 13.3343 55.4068C12.9189 55.9308 12.6353 56.546 12.5072 57.2011C12.3791 57.8563 12.4101 58.5324 12.5977 59.1733C12.7853 59.8141 13.124 60.401 13.5856 60.8851C14.0472 61.3692 14.6184 61.7366 15.2515 61.9565C15.8846 62.1764 16.5614 62.2426 17.2254 62.1495C17.8894 62.0564 18.5215 61.8067 19.0689 61.4212C18.1942 61.3787 17.3546 61.0657 16.667 60.5257C15.9794 59.9858 15.4782 59.2459 15.233 58.409Z" fill="#0E5648"/>
<path d="M134.168 77.2861C134.087 76.9947 133.949 76.7221 133.761 76.4839C133.574 76.2458 133.341 76.0467 133.076 75.8982C132.812 75.7496 132.52 75.6545 132.218 75.6182C131.917 75.5819 131.611 75.6052 131.318 75.6867L105.917 82.7584L103.182 83.52H120.36L123.096 82.7584L132.565 80.1232C133.156 79.9581 133.656 79.5666 133.957 79.0347C134.257 78.5028 134.333 77.8739 134.168 77.2861Z" fill="#D7CE4B"/>
<path d="M116.199 72.0011C116.033 71.4134 115.64 70.9151 115.106 70.6159C114.571 70.3167 113.939 70.241 113.348 70.4055L75.2339 81.0151C74.7013 81.1652 74.2401 81.4999 73.9335 81.9586C73.6269 82.4174 73.4951 82.9701 73.5619 83.517H83.4291L86.1684 82.7554L114.596 74.842C115.187 74.6764 115.687 74.2843 115.988 73.7516C116.288 73.219 116.364 72.5894 116.199 72.0011Z" fill="#D7CE4B"/>
<path d="M214.322 82.7578H29.5259C28.8158 82.7586 28.1351 83.0397 27.633 83.5395C27.1309 84.0392 26.8485 84.7168 26.8477 85.4235V194.337C26.8484 195.044 27.1308 195.721 27.6329 196.221C28.135 196.721 28.8158 197.002 29.5259 197.003H214.322C215.032 197.002 215.713 196.721 216.215 196.221C216.717 195.721 217 195.044 217.001 194.337V85.4235C217 84.7168 216.717 84.0392 216.215 83.5395C215.713 83.0398 215.032 82.7586 214.322 82.7578ZM216.235 194.337C216.235 194.842 216.034 195.326 215.675 195.683C215.316 196.04 214.83 196.241 214.322 196.241H29.5259C29.0186 196.241 28.5321 196.04 28.1734 195.683C27.8146 195.326 27.613 194.842 27.6129 194.337V85.4235C27.6131 84.9186 27.8147 84.4344 28.1734 84.0774C28.5321 83.7203 29.0186 83.5197 29.5259 83.5194H214.322C214.83 83.5197 215.316 83.7203 215.675 84.0774C216.034 84.4344 216.235 84.9186 216.235 85.4235V194.337Z" fill="#0E5648"/>
<path d="M47.5053 97.6083C46.5972 97.6083 45.7096 97.3403 44.9545 96.8382C44.1995 96.3361 43.611 95.6224 43.2635 94.7873C42.916 93.9523 42.8251 93.0335 43.0023 92.147C43.1794 91.2606 43.6167 90.4463 44.2588 89.8072C44.9009 89.1681 45.719 88.7329 46.6096 88.5566C47.5002 88.3802 48.4233 88.4707 49.2623 88.8166C50.1012 89.1625 50.8182 89.7482 51.3227 90.4997C51.8272 91.2512 52.0965 92.1347 52.0965 93.0385C52.0951 94.2501 51.6109 95.4116 50.7502 96.2683C49.8895 97.125 48.7225 97.607 47.5053 97.6083ZM47.5053 89.2304C46.7486 89.2304 46.0088 89.4537 45.3797 89.8722C44.7505 90.2906 44.2601 90.8854 43.9705 91.5812C43.6809 92.2771 43.6052 93.0428 43.7528 93.7815C43.9004 94.5202 44.2648 95.1987 44.7999 95.7313C45.335 96.2639 46.0167 96.6266 46.7589 96.7735C47.501 96.9205 48.2703 96.8451 48.9694 96.5568C49.6685 96.2686 50.2661 95.7805 50.6865 95.1543C51.1069 94.528 51.3313 93.7917 51.3313 93.0385C51.3301 92.0289 50.9267 91.061 50.2094 90.347C49.4921 89.6331 48.5196 89.2315 47.5053 89.2304Z" fill="#044236"/>
<path d="M40.3699 93.0405C40.3701 92.1688 40.6434 91.3189 41.1517 90.6091C41.6601 89.8993 42.3783 89.365 43.2062 89.0806C42.5722 88.8629 41.8952 88.7992 41.2316 88.8946C40.5679 88.9901 39.9367 89.2421 39.3907 89.6295C38.8446 90.0169 38.3995 90.5286 38.0924 91.122C37.7852 91.7153 37.625 92.3731 37.625 93.0405C37.625 93.708 37.7852 94.3658 38.0924 94.9591C38.3995 95.5525 38.8446 96.0641 39.3907 96.4516C39.9367 96.839 40.5679 97.091 41.2316 97.1864C41.8952 97.2819 42.5722 97.2182 43.2062 97.0005C42.3783 96.7161 41.6601 96.1818 41.1517 95.472C40.6434 94.7622 40.3701 93.9122 40.3699 93.0405Z" fill="#0E5648"/>
<path d="M66.1172 147.027C65.2043 147.026 64.3291 146.665 63.6835 146.022C63.038 145.38 62.6749 144.509 62.6738 143.6V133.318C62.6738 132.409 63.0366 131.537 63.6824 130.894C64.3281 130.252 65.204 129.891 66.1172 129.891C67.0305 129.891 67.9063 130.252 68.5521 130.894C69.1979 131.537 69.5606 132.409 69.5606 133.318V143.6C69.5596 144.509 69.1965 145.38 68.5509 146.022C67.9054 146.665 67.0302 147.026 66.1172 147.027Z" fill="#0E5648"/>
<path d="M75.2989 147.027C74.3859 147.026 73.5107 146.665 72.8652 146.022C72.2196 145.38 71.8565 144.509 71.8555 143.6V133.318C71.8555 132.409 72.2182 131.537 72.864 130.894C73.5098 130.252 74.3856 129.891 75.2989 129.891C76.2121 129.891 77.088 130.252 77.7337 130.894C78.3795 131.537 78.7423 132.409 78.7423 133.318V143.6C78.7412 144.509 78.3781 145.38 77.7326 146.022C77.087 146.665 76.2118 147.026 75.2989 147.027Z" fill="#0E5648"/>
<path d="M84.4825 147.027C83.5695 147.026 82.6943 146.665 82.0488 146.022C81.4032 145.38 81.0401 144.509 81.0391 143.6V133.318C81.0391 132.409 81.4019 131.537 82.0476 130.894C82.6934 130.252 83.5692 129.891 84.4825 129.891C85.3957 129.891 86.2716 130.252 86.9173 130.894C87.5631 131.537 87.9259 132.409 87.9259 133.318V143.6C87.9248 144.509 87.5617 145.38 86.9162 146.022C86.2706 146.665 85.3954 147.026 84.4825 147.027Z" fill="#0E5648"/>
<path d="M98.6387 147.027C97.7258 147.026 96.8506 146.665 96.205 146.022C95.5595 145.38 95.1964 144.509 95.1953 143.6V133.318C95.1953 132.409 95.5581 131.537 96.2039 130.894C96.8496 130.252 97.7255 129.891 98.6387 129.891C99.552 129.891 100.428 130.252 101.074 130.894C101.719 131.537 102.082 132.409 102.082 133.318V143.6C102.081 144.509 101.718 145.38 101.072 146.022C100.427 146.665 99.5517 147.026 98.6387 147.027Z" fill="#0E5648"/>
<path d="M107.82 147.027C106.907 147.026 106.032 146.665 105.387 146.022C104.741 145.38 104.378 144.509 104.377 143.6V133.318C104.377 132.409 104.74 131.537 105.386 130.894C106.031 130.252 106.907 129.891 107.82 129.891C108.734 129.891 109.609 130.252 110.255 130.894C110.901 131.537 111.264 132.409 111.264 133.318V143.6C111.263 144.509 110.9 145.38 110.254 146.022C109.609 146.665 108.733 147.026 107.82 147.027Z" fill="#0E5648"/>
<path d="M117.004 147.027C116.091 147.026 115.216 146.665 114.57 146.022C113.925 145.38 113.562 144.509 113.561 143.6V133.318C113.561 132.409 113.923 131.537 114.569 130.894C115.215 130.252 116.091 129.891 117.004 129.891C117.917 129.891 118.793 130.252 119.439 130.894C120.085 131.537 120.447 132.409 120.447 133.318V143.6C120.446 144.509 120.083 145.38 119.438 146.022C118.792 146.665 117.917 147.026 117.004 147.027Z" fill="#0E5648"/>
<path d="M131.16 147.027C130.247 147.026 129.372 146.665 128.727 146.022C128.081 145.38 127.718 144.509 127.717 143.6V133.318C127.717 132.409 128.08 131.537 128.725 130.894C129.371 130.252 130.247 129.891 131.16 129.891C132.073 129.891 132.949 130.252 133.595 130.894C134.241 131.537 134.604 132.409 134.604 133.318V143.6C134.603 144.509 134.239 145.38 133.594 146.022C132.948 146.665 132.073 147.026 131.16 147.027Z" fill="#0E5648"/>
<path d="M140.342 147.027C139.429 147.026 138.554 146.665 137.908 146.022C137.263 145.38 136.899 144.509 136.898 143.6V133.318C136.898 132.409 137.261 131.537 137.907 130.894C138.553 130.252 139.429 129.891 140.342 129.891C141.255 129.891 142.131 130.252 142.777 130.894C143.422 131.537 143.785 132.409 143.785 133.318V143.6C143.784 144.509 143.421 145.38 142.776 146.022C142.13 146.665 141.255 147.026 140.342 147.027Z" fill="#0E5648"/>
<path d="M149.523 147.027C148.611 147.026 147.735 146.665 147.09 146.022C146.444 145.38 146.081 144.509 146.08 143.6V133.318C146.08 132.409 146.443 131.537 147.089 130.894C147.734 130.252 148.61 129.891 149.523 129.891C150.437 129.891 151.313 130.252 151.958 130.894C152.604 131.537 152.967 132.409 152.967 133.318V143.6C152.966 144.509 152.603 145.38 151.957 146.022C151.312 146.665 150.436 147.026 149.523 147.027Z" fill="#0E5648"/>
<path d="M163.68 147.027C162.767 147.026 161.892 146.665 161.246 146.022C160.601 145.38 160.237 144.509 160.236 143.6V133.318C160.236 132.409 160.599 131.537 161.245 130.894C161.891 130.252 162.766 129.891 163.68 129.891C164.593 129.891 165.469 130.252 166.115 130.894C166.76 131.537 167.123 132.409 167.123 133.318V143.6C167.122 144.509 166.759 145.38 166.113 146.022C165.468 146.665 164.593 147.026 163.68 147.027Z" fill="#0E5648"/>
<path d="M172.863 147.027C171.95 147.026 171.075 146.665 170.43 146.022C169.784 145.38 169.421 144.509 169.42 143.6V133.318C169.42 132.409 169.783 131.537 170.428 130.894C171.074 130.252 171.95 129.891 172.863 129.891C173.777 129.891 174.652 130.252 175.298 130.894C175.944 131.537 176.307 132.409 176.307 133.318V143.6C176.306 144.509 175.943 145.38 175.297 146.022C174.652 146.665 173.776 147.026 172.863 147.027Z" fill="#0E5648"/>
<path d="M182.045 147.027C181.132 147.026 180.257 146.665 179.611 146.022C178.966 145.38 178.603 144.509 178.602 143.6V133.318C178.602 132.409 178.964 131.537 179.61 130.894C180.256 130.252 181.132 129.891 182.045 129.891C182.958 129.891 183.834 130.252 184.48 130.894C185.126 131.537 185.488 132.409 185.488 133.318V143.6C185.487 144.509 185.124 145.38 184.479 146.022C183.833 146.665 182.958 147.026 182.045 147.027Z" fill="#0E5648"/>
<path d="M89.4627 185.176H39.9387C39.3251 185.176 38.7366 184.934 38.3027 184.502C37.8688 184.07 37.625 183.484 37.625 182.873C37.625 182.262 37.8688 181.677 38.3027 181.245C38.7366 180.813 39.3251 180.57 39.9387 180.57H89.4627C90.0764 180.57 90.6649 180.813 91.0988 181.245C91.5327 181.677 91.7764 182.262 91.7764 182.873C91.7764 183.484 91.5327 184.07 91.0988 184.502C90.6649 184.934 90.0764 185.176 89.4627 185.176Z" fill="#D7CE4B"/>
<path d="M73.5857 175.27H55.8176C55.204 175.27 54.6155 175.027 54.1816 174.595C53.7477 174.164 53.5039 173.578 53.5039 172.967C53.5039 172.356 53.7477 171.77 54.1816 171.339C54.6155 170.907 55.204 170.664 55.8176 170.664H73.5857C74.1994 170.664 74.7879 170.907 75.2218 171.339C75.6557 171.77 75.8995 172.356 75.8995 172.967C75.8995 173.578 75.6557 174.164 75.2218 174.595C74.7879 175.027 74.1994 175.27 73.5857 175.27Z" fill="#D7CE4B"/>
<path d="M216.097 105.523H27.4746V106.285H216.097V105.523Z" fill="#0E5648"/>
</svg>
