<svg width="467" height="247" viewBox="0 0 467 247" fill="none" xmlns="http://www.w3.org/2000/svg">
<g clip-path="url(#clip0)">
<path d="M361.053 236.738C357.709 241.004 353.829 244.336 354.632 245.802C354.632 245.802 356.371 247.135 361.321 247.135C369.748 247.135 378.042 246.469 376.705 245.669C374.832 244.47 369.347 244.07 364.13 242.203C362.792 241.804 366.939 239.271 365.869 238.871C363.461 237.938 361.588 237.271 361.053 236.738Z" fill="#0D0D0D"/>
<path d="M447.871 245.535C447.871 245.535 448.941 247.134 453.222 247.134C460.579 247.134 468.07 246.201 467 245.402C465.395 244.335 452.553 241.669 452.553 241.669L449.744 238.07L444.928 240.736L447.871 245.535Z" fill="#0D0D0D"/>
<path d="M424.728 138.499C419.511 138.499 415.498 137.433 415.23 137.433C412.555 136.633 410.95 133.834 411.618 131.168C412.421 128.502 415.23 126.903 417.906 127.569C418.039 127.569 429.544 130.502 436.366 124.77C440.915 120.904 442.52 113.706 441.45 103.176L441.048 99.8432L451.349 93.9781C453.757 92.6451 456.967 93.4449 458.305 95.8442C459.643 98.2436 458.84 101.443 456.432 102.776L451.884 105.308C452.553 117.572 449.61 126.636 442.921 132.368C437.303 137.3 430.347 138.499 424.728 138.499Z" fill="#D3C9B4"/>
<path d="M442.52 110.105C442.386 117.57 440.379 122.902 436.634 126.101C429.276 132.366 416.702 129.167 416.434 129.167C413.491 128.367 410.414 130.1 409.612 133.166C408.809 136.098 410.548 139.164 413.491 140.097C413.892 140.231 418.173 142.363 423.925 142.097C445.73 141.297 458.84 122.635 459.108 111.705L442.52 110.105Z" fill="#D7CE4B"/>
<path d="M412.555 84.1117C410.548 83.1787 408.675 82.2456 406.803 81.3125C388.743 91.5764 365.734 104.64 365.199 105.173C365.199 105.173 376.704 123.301 377.373 124.101C377.908 124.634 406.267 104.24 426.735 89.5769C422.053 87.7108 417.103 86.2445 412.555 84.1117Z" fill="#C4DAD8"/>
<path d="M412.822 83.5792C417.504 85.712 422.453 87.1783 427.269 89.0444C438.506 80.9133 447.201 74.6483 447.201 74.6483L428.072 69.3164C428.072 69.3164 418.841 74.515 407.471 81.0466C409.21 81.9797 410.949 82.7794 412.822 83.5792Z" fill="#C4DAD8"/>
<path d="M379.646 59.717L391.017 90.3754L413.09 98.3732L385.131 47.3203L379.646 59.717Z" fill="#C4DAD8"/>
<path d="M414.293 105.973H397.973L412.554 131.299L434.76 140.763L414.293 105.973Z" fill="#C4DAD8"/>
<path d="M434.762 140.765L421.652 118.504L365.735 151.162L354.766 132.5L361.722 21.4635L386.871 6.80078L432.086 83.5801L447.336 74.6491L460.045 96.11L444.795 105.041L457.904 127.302L434.762 140.765ZM384.062 54.5212L382.59 55.321L378.845 114.638L409.077 96.9098L384.062 54.5212Z" fill="#769A98"/>
<path d="M336.305 127.434L354.899 132.499L365.868 151.161L346.204 146.229L336.305 127.434Z" fill="#C4DAD8"/>
<path d="M336.305 127.432L354.899 132.497L361.721 21.4603L344.732 17.3281L336.305 127.432Z" fill="#C4DAD8"/>
<path d="M344.732 17.3302L361.722 21.4624L386.871 6.79967L369.614 1.73438L344.732 17.3302Z" fill="#C4DAD8"/>
<path d="M382.054 171.688C382.054 171.688 384.729 201.013 384.729 211.277C384.729 211.277 363.326 227.939 357.975 236.603C360.249 238.336 364.663 240.602 367.606 240.469C381.92 226.873 397.571 217.142 397.571 217.142C397.571 217.142 404.394 197.547 406.4 181.018L382.054 171.688Z" fill="#0E5648"/>
<path d="M397.438 173.02C402.254 173.02 407.203 172.22 411.35 169.954C410.012 164.089 412.955 146.761 416.701 137.563C416.701 137.563 419.644 131.165 417.637 129.165C410.012 121.834 403.458 122.5 401.451 122.367C394.495 128.232 381.385 145.694 381.92 168.621C385.398 172.354 392.756 173.02 397.438 173.02Z" fill="#D7CE4B"/>
<path d="M444.66 241.536C447.469 240.736 450.145 239.536 451.884 237.137C443.59 223.807 413.224 174.62 411.618 170.755C411.618 170.622 411.485 170.488 411.485 170.488C407.07 172.888 401.719 173.687 396.502 173.554C391.954 173.421 385.533 172.754 381.787 169.422C381.787 169.688 381.787 169.955 381.787 170.088C382.456 182.885 425.129 225.673 441.985 242.069C442.921 242.069 443.858 241.802 444.66 241.536Z" fill="#044236"/>
<path d="M356.505 159.691C355.301 159.691 354.231 159.557 353.027 159.157C350.753 158.358 347.81 156.491 346.338 151.826C345.536 149.16 347.141 146.228 349.816 145.428C352.492 144.628 355.435 146.228 356.237 148.894C356.371 149.16 356.371 149.427 356.505 149.56C357.04 149.56 359.047 149.427 363.996 146.494C368.411 143.962 373.628 140.096 378.711 136.364C387.273 130.099 395.299 124.1 401.988 122.101C404.663 121.301 407.606 122.767 408.409 125.433C409.211 128.099 407.74 131.032 405.064 131.831C399.981 133.431 392.356 139.163 384.865 144.628C373.895 152.626 364.13 159.691 356.505 159.691Z" fill="#D3C9B4"/>
<path d="M365.869 155.96C365.2 152.894 364.531 149.561 362.658 147.162C358.511 149.428 356.772 149.561 356.237 149.561C356.237 149.428 356.104 149.295 355.97 148.895C355.167 146.229 352.358 144.629 349.549 145.429C346.873 146.229 345.268 149.028 346.071 151.828C347.542 156.626 350.485 158.492 352.759 159.292C353.829 159.692 355.033 159.825 356.237 159.825C359.18 159.825 362.525 158.759 366.003 156.893C366.003 156.626 366.003 156.226 365.869 155.96Z" fill="#D3C9B4"/>
<path d="M408.275 125.3C407.472 122.634 404.529 121.168 401.854 121.968C395.165 124.101 387.139 130.099 378.443 136.364C373.36 140.096 368.143 143.962 363.728 146.628C363.461 146.761 363.327 146.895 363.193 147.028C365.066 149.561 368.41 162.09 368.544 162.357C374.029 159.558 400.115 139.697 405.867 133.698C407.74 131.432 409.211 127.966 408.275 125.3Z" fill="#D7CE4B"/>
<path d="M349.28 155.559C349.012 155.559 348.611 155.426 348.344 155.292C344.33 152.493 342.19 146.895 342.19 146.628C341.922 145.828 342.324 145.029 343.126 144.762C343.929 144.495 344.732 144.895 344.999 145.695C344.999 145.695 346.872 150.627 350.083 152.893C350.752 153.426 350.885 154.359 350.484 155.026C350.216 155.426 349.681 155.559 349.28 155.559Z" fill="#D3C9B4"/>
<path d="M349.281 151.961C348.746 151.961 348.344 151.694 348.077 151.294C346.204 148.629 344.599 142.097 344.465 141.43C344.331 140.631 344.732 139.831 345.535 139.564C346.338 139.431 347.14 139.831 347.408 140.631C347.809 142.497 349.281 147.562 350.618 149.428C351.153 150.095 350.886 151.028 350.217 151.561C349.949 151.828 349.548 151.961 349.281 151.961Z" fill="#D3C9B4"/>
<path d="M351.02 151.159C350.485 151.159 349.816 150.759 349.682 150.226C348.345 146.894 347.81 139.696 347.676 139.429C347.676 138.629 348.211 137.83 349.014 137.83C349.816 137.696 350.619 138.363 350.619 139.163C350.753 141.029 351.288 146.627 352.358 149.027C352.625 149.826 352.358 150.626 351.555 151.026C351.421 151.159 351.288 151.159 351.02 151.159Z" fill="#D3C9B4"/>
<path d="M353.294 150.363C352.625 150.363 351.956 149.963 351.823 149.296C350.886 145.564 351.689 141.832 351.823 141.698C351.956 140.898 352.893 140.365 353.695 140.632C354.498 140.765 355.033 141.698 354.766 142.498C354.766 142.631 354.097 145.697 354.766 148.63C355.033 149.429 354.498 150.229 353.695 150.496C353.562 150.363 353.428 150.363 353.294 150.363Z" fill="#D3C9B4"/>
<path d="M414.161 133.433C413.492 133.433 412.823 133.3 412.154 133.034C409.746 131.967 408.676 129.035 409.88 126.635C411.084 124.103 413.224 121.57 413.492 121.303C415.231 119.304 418.307 119.037 420.314 120.77C422.321 122.503 422.588 125.569 420.849 127.568C420.18 128.235 419.11 129.834 418.575 130.901C417.639 132.5 415.9 133.433 414.161 133.433Z" fill="#D3C9B4"/>
<path d="M414.83 131.035C415.365 131.701 416.034 132.234 416.569 132.767C417.371 132.234 418.04 131.568 418.442 130.768C418.977 129.702 420.047 128.235 420.716 127.436C422.455 125.436 422.187 122.37 420.181 120.637C418.174 118.904 415.097 119.171 413.358 121.171C413.225 121.304 412.823 121.704 412.422 122.37C412.422 125.569 412.689 128.768 414.83 131.035Z" fill="#C1B39F"/>
<path d="M430.615 125.702C428.742 130.368 423.391 132.501 418.709 130.634C414.027 128.768 411.887 123.436 413.759 118.771L416.167 112.906C418.04 108.24 423.391 106.108 428.073 107.974C432.755 109.84 434.896 115.172 433.023 119.837L430.615 125.702Z" fill="#D3C9B4"/>
<path d="M414.828 118.104C414.026 121.17 409.611 120.237 407.872 118.638C405.598 116.372 404.127 110.107 409.344 110.373C405.598 104.775 418.173 98.7763 419.511 105.175C420.447 103.575 421.517 101.975 423.657 101.842C425.263 101.709 427.938 102.908 427.804 104.908C430.212 103.042 433.557 103.175 435.831 105.041C436.633 105.574 437.971 106.907 437.302 107.974C436.901 108.507 435.028 108.64 434.359 108.907C435.429 108.374 439.978 109.44 439.041 111.306C438.64 112.239 436.5 111.44 435.831 111.173C435.831 111.173 435.831 111.44 435.831 111.306C438.239 112.639 439.175 113.972 438.908 116.905C438.774 118.238 438.105 120.904 436.5 121.037C435.697 121.17 434.761 120.637 434.761 119.704C436.767 121.703 433.958 127.035 431.416 124.369C430.48 123.303 430.881 121.57 431.818 120.77C430.346 119.971 427.136 115.438 429.41 114.105C428.34 114.105 423.39 112.506 424.861 111.04C425.263 112.639 423.256 114.905 421.517 113.972C422.587 116.238 419.511 117.838 417.638 117.971C418.708 119.437 415.23 121.037 414.16 119.037L414.828 118.104Z" fill="#0D0D0D"/>
<path d="M243.734 99.9762C243.734 99.9762 240.791 88.7792 255.372 86.1133L254.168 99.5763L243.734 99.9762Z" fill="#D7CE4B"/>
<path d="M185.542 128.235C182.332 128.235 179.389 127.569 176.713 126.369C163.604 120.104 162.132 101.576 161.998 100.776C161.865 97.9769 163.871 95.5776 166.681 95.311C169.49 95.1777 171.898 97.1771 172.165 99.9764C172.433 103.709 174.573 114.106 180.994 117.172C186.345 119.704 194.505 117.172 204.806 109.84C207.08 108.241 210.29 108.774 211.896 111.04C213.501 113.306 212.966 116.505 210.692 118.105C201.328 124.77 192.9 128.235 185.542 128.235Z" fill="#CDE5E8"/>
<path d="M212.832 137.698C214.304 133.965 215.641 130.233 217.113 126.501C216.043 126.367 214.972 126.234 214.036 126.101C209.086 125.168 204.806 123.168 201.461 120.102C197.983 117.037 195.308 113.171 193.435 108.372C191.562 103.707 190.492 98.2417 190.225 92.2433C189.957 86.2449 190.358 79.8466 191.696 73.1818C193.034 66.3836 194.907 60.2519 197.448 54.7867C199.99 49.3215 202.933 44.7894 206.411 41.0571C209.889 37.3248 213.769 34.6588 218.183 33.0592C222.464 31.4597 227.146 31.1931 232.095 32.1262C235.975 32.9259 239.453 34.3922 242.53 36.525C244.001 33.5924 245.606 30.7932 247.078 27.9939C248.817 24.6615 250.422 21.1958 252.027 17.8633C252.696 16.3971 253.231 14.9308 253.9 13.3312C248.817 10.532 243.199 8.39923 236.911 7.19956C228.082 5.46669 219.655 5.86658 211.896 8.13264C204.137 10.3987 197.047 14.3976 190.76 19.8628C184.472 25.328 179.121 32.1262 174.841 40.3906C170.426 48.655 167.349 57.8526 165.343 67.9832C163.336 78.1138 162.935 87.8445 163.871 97.1753C164.942 106.506 167.216 114.771 171.095 122.102C174.841 129.433 180.058 135.698 186.479 140.764C192.499 145.429 199.455 148.628 207.615 150.494C209.354 146.362 211.093 142.096 212.832 137.698Z" fill="#C4DAD8"/>
<path d="M282.127 61.051C281.056 51.7202 278.782 43.4558 274.903 36.1244C271.157 28.7931 265.94 22.5281 259.653 17.4628C257.914 16.1298 256.175 14.9301 254.168 13.7305C253.633 15.1967 252.964 16.7963 252.295 18.2626C250.69 21.7283 249.085 25.0607 247.346 28.3932C245.874 31.1924 244.269 34.125 242.797 37.0575C243.333 37.4574 243.868 37.8573 244.269 38.2572C247.747 41.323 250.422 45.1886 252.295 49.9874C254.302 54.7861 255.372 60.118 255.64 65.983C255.907 71.9814 255.506 78.3797 254.168 85.1779C252.83 91.8427 250.958 97.9744 248.416 103.44C245.874 108.905 242.931 113.57 239.319 117.169C235.707 120.902 231.828 123.567 227.414 125.167C224.203 126.367 220.859 126.9 217.381 126.633C215.642 130.632 214.304 134.764 212.699 138.897C211.227 142.896 209.488 146.895 207.615 150.76C208.017 150.893 208.418 150.893 208.819 151.027C217.648 152.76 226.076 152.36 233.835 150.094C241.593 147.828 248.683 143.829 254.971 138.364C261.258 132.898 266.609 126.1 270.89 117.836C275.304 109.571 278.381 100.374 280.388 90.2431C282.662 79.9793 283.197 70.3818 282.127 61.051Z" fill="#C4DAD8"/>
<path d="M224.871 156.359C216.042 154.626 208.417 151.294 201.996 146.228C195.575 141.163 190.492 135.031 186.746 127.567C183.001 120.235 180.593 111.838 179.523 102.64C178.452 93.3093 178.987 83.7119 180.994 73.448C183.001 63.3174 186.077 54.1199 190.492 45.8554C194.906 37.591 200.124 30.7928 206.411 25.3276C212.698 19.8625 219.654 15.9968 227.547 13.5975C235.306 11.3314 243.733 10.9315 252.562 12.6644C261.391 14.3973 269.016 17.7297 275.437 22.795C281.859 27.8603 286.942 33.992 290.821 41.4566C294.567 48.788 296.975 57.1857 298.045 66.3832C299.115 75.7141 298.58 85.3115 296.574 95.5753C294.567 105.706 291.49 114.903 287.076 123.168C282.661 131.432 277.444 138.231 271.157 143.696C264.869 149.161 257.913 153.027 250.021 155.426C241.994 157.692 233.7 157.959 224.871 156.359ZM229.554 131.432C234.369 132.365 238.918 131.966 243.332 130.366C247.613 128.766 251.626 126.1 255.238 122.368C258.85 118.636 261.793 114.104 264.334 108.638C266.876 103.173 268.749 97.0416 270.087 90.3768C271.424 83.5786 271.826 77.1803 271.558 71.1819C271.291 65.1836 270.087 59.8517 268.214 55.1863C266.207 50.3876 263.532 46.5219 260.187 43.4561C256.709 40.3902 252.562 38.3908 247.747 37.4577C242.797 36.5246 238.115 36.7912 233.834 38.3908C229.554 39.9904 225.54 42.6563 222.062 46.3886C218.584 50.121 215.641 54.6531 213.099 60.1183C210.558 65.5834 208.685 71.7151 207.347 78.5133C206.01 85.1782 205.608 91.5764 205.876 97.5748C206.143 103.573 207.214 108.905 209.086 113.704C210.959 118.369 213.635 122.368 217.113 125.434C220.457 128.5 224.604 130.499 229.554 131.432Z" fill="#769A98"/>
<path d="M315.168 81.4457L315.569 100.241C315.569 100.241 310.218 105.039 305.402 100.241L307.141 79.1797L315.168 81.4457Z" fill="#0D0D0D"/>
<path d="M292.961 231.009C292.693 230.743 290.553 229.81 290.286 229.543C289.215 231.276 288.413 232.209 287.075 233.542C290.419 236.474 289.483 239.94 289.483 239.94C289.483 239.94 287.075 241.94 286.272 242.34C283.329 243.806 277.979 245.805 277.979 245.805L291.623 246.872L301.656 236.608C298.044 234.608 295.235 232.875 292.961 231.009Z" fill="#0D0D0D"/>
<path d="M239.719 231.808C237.579 231.408 234.77 233.141 233.031 231.808C232.629 235.54 232.763 237.673 232.763 237.673L212.697 245.937H238.382C238.649 243.271 238.114 240.605 238.515 238.073C238.515 236.606 239.452 233.007 239.719 231.808Z" fill="#0D0D0D"/>
<path d="M263.13 140.766L240.389 183.821C240.389 183.821 249.619 191.552 258.716 194.218L275.705 143.432L263.13 140.766Z" fill="#D7CE4B"/>
<path d="M288.01 234.606C289.348 233.273 290.552 231.54 291.622 229.807C285.736 224.741 282.927 219.543 274.901 210.745C271.556 207.013 280.385 185.952 282.526 182.353C286.405 175.955 286.94 171.423 289.883 160.492L267.677 168.757C262.326 187.685 256.173 206.48 262.46 215.544C269.015 225.008 280.519 232.739 286.138 236.605C286.271 236.738 287.877 234.472 288.01 234.606Z" fill="#0E5648"/>
<path d="M250.556 97.843C250.288 97.843 249.887 97.7097 249.619 97.5764C248.95 97.0432 248.817 96.1101 249.218 95.4436C250.957 92.911 251.358 90.9115 251.358 90.9115C251.492 90.1117 252.295 89.5785 253.097 89.7118C253.9 89.8451 254.435 90.6449 254.301 91.4447C254.301 91.578 253.766 94.1106 251.626 97.1765C251.492 97.5764 251.091 97.843 250.556 97.843Z" fill="#D3C9B4"/>
<path d="M288.279 165.16C294.834 147.031 300.587 118.639 302.593 107.309C301.389 106.776 300.319 106.509 299.383 106.242C297.376 105.709 295.102 105.043 293.095 105.709C292.025 105.976 291.222 106.509 290.286 107.042C289.483 109.442 289.082 111.574 289.082 111.574C289.082 111.574 274.902 138.634 265.672 157.029C273.431 158.895 281.189 161.428 288.279 165.16Z" fill="#F6EE9E"/>
<path d="M265.404 157.691C264.601 159.291 263.799 160.891 263.13 162.357C261.257 165.556 259.384 168.488 257.511 171.421C239.185 198.88 232.362 220.741 231.158 231.138C232.897 232.471 239.452 233.271 241.726 233.671C245.071 216.476 253.9 205.545 269.551 192.615C274.768 188.216 278.781 182.751 282.259 178.219C284.266 175.553 286.406 171.154 288.279 165.823C280.922 161.957 273.163 159.424 265.404 157.691Z" fill="#044236"/>
<path d="M247.612 165.291C245.472 165.291 243.465 163.958 242.796 161.825C241.86 159.159 243.331 156.227 246.007 155.294C252.16 153.161 261.792 144.63 268.213 135.566C281.189 117.171 290.419 106.907 290.821 106.507C292.694 104.374 295.904 104.241 298.044 106.107C300.185 107.973 300.319 111.172 298.446 113.305C298.312 113.438 289.215 123.569 276.641 141.431C270.354 150.362 259.117 161.559 249.485 164.891C248.682 165.158 248.147 165.291 247.612 165.291Z" fill="#D3C9B4"/>
<path d="M298.98 109.038C298.847 109.038 298.713 109.038 298.579 109.038C295.904 108.905 293.897 106.505 294.165 103.839C294.432 101.04 295.502 97.9744 295.502 97.5745C296.305 95.0419 299.114 93.7089 301.656 94.642C304.198 95.4417 305.535 98.241 304.599 100.774C304.331 101.707 303.796 103.44 303.662 104.639C303.662 107.172 301.522 109.038 298.98 109.038Z" fill="#D3C9B4"/>
<path d="M300.453 103.973C301.255 104.906 302.192 105.839 303.262 106.639C303.663 105.972 303.797 105.306 303.931 104.639C304.064 103.44 304.466 101.707 304.867 100.774C305.67 98.241 304.332 95.575 301.924 94.642C299.784 93.9755 297.643 94.7753 296.439 96.3748C296.707 99.1741 298.847 102.24 300.453 103.973Z" fill="#C1B39F"/>
<path d="M312.893 93.5763C312.759 98.6416 308.613 102.507 303.529 102.507C298.446 102.374 294.566 98.2417 294.566 93.1764L294.7 86.9114C294.834 81.8461 298.981 77.9805 304.064 77.9805C309.148 78.1138 313.027 82.246 313.027 87.3113L312.893 93.5763Z" fill="#D3C9B4"/>
<path d="M240.388 163.824C238.248 163.824 235.84 163.29 233.165 162.091C232.362 161.824 232.095 160.891 232.362 160.091C232.63 159.291 233.566 159.025 234.369 159.291C238.382 160.891 241.459 161.158 243.465 159.958C244.134 159.558 245.07 159.691 245.472 160.491C245.873 161.158 245.739 162.091 244.937 162.491C243.733 163.424 242.127 163.824 240.388 163.824Z" fill="#D3C9B4"/>
<path d="M242.26 165.959C239.852 165.959 237.979 165.559 235.705 165.026L235.036 164.892C234.234 164.759 233.699 163.826 233.966 163.026C234.1 162.227 235.036 161.693 235.839 161.96L236.508 162.093C240.12 163.026 242.528 163.56 247.878 162.227C248.681 161.96 249.484 162.493 249.751 163.293C250.019 164.093 249.484 164.893 248.681 165.159C246.006 165.692 243.999 165.959 242.26 165.959Z" fill="#D3C9B4"/>
<path d="M240.254 160.892C235.572 160.892 232.228 157.96 232.094 157.826C231.425 157.293 231.425 156.36 231.96 155.694C232.495 155.027 233.432 155.027 234.101 155.56C234.234 155.694 237.712 158.76 242.394 157.56C243.197 157.293 244 157.826 244.267 158.626C244.535 159.426 244 160.226 243.197 160.492C242.261 160.759 241.191 160.892 240.254 160.892Z" fill="#D3C9B4"/>
<path d="M243.465 159.293H243.331C238.248 158.76 236.107 155.028 235.974 154.894C235.572 154.228 235.84 153.295 236.509 152.895C237.178 152.495 238.114 152.762 238.515 153.428C238.649 153.561 239.987 155.961 243.465 156.361C244.268 156.494 244.937 157.16 244.803 157.96C244.803 158.627 244.268 159.293 243.465 159.293Z" fill="#D3C9B4"/>
<path d="M261.391 99.9769C261.257 99.9769 261.257 99.9769 261.123 99.9769C258.582 99.5771 251.759 98.5107 250.288 98.5107C249.485 98.5107 248.816 97.8442 248.816 97.0444C248.816 96.2446 249.485 95.5781 250.288 95.5781C252.428 95.5781 260.722 96.9111 261.659 97.0444C262.461 97.1777 262.996 97.9775 262.863 98.7773C262.863 99.4438 262.194 99.9769 261.391 99.9769Z" fill="#D3C9B4"/>
<path d="M260.455 103.175C260.321 103.175 260.187 103.175 260.053 103.175C259.919 103.175 252.829 101.176 249.485 101.042C248.683 101.042 248.014 100.243 248.014 99.4428C248.014 98.643 248.816 97.9766 249.619 97.9766C253.231 98.2432 260.455 100.109 260.856 100.243C261.658 100.509 262.194 101.309 261.926 102.109C261.792 102.642 261.123 103.175 260.455 103.175Z" fill="#D3C9B4"/>
<path d="M259.785 106.375C259.651 106.375 259.517 106.375 259.384 106.242C252.561 104.109 250.956 103.976 250.02 103.842C249.618 103.842 249.217 103.842 248.816 103.709C248.013 103.442 247.478 102.643 247.745 101.843C248.013 101.043 248.816 100.51 249.618 100.776C249.886 100.776 250.02 100.91 250.287 100.91C251.357 101.043 253.23 101.176 260.32 103.442C261.123 103.709 261.524 104.509 261.256 105.308C260.989 105.975 260.454 106.375 259.785 106.375Z" fill="#D3C9B4"/>
<path d="M256.708 108.775C249.752 108.242 249.484 104.643 249.484 104.243L252.561 104.11C252.561 104.11 252.561 104.11 252.561 103.977C252.561 103.977 252.829 105.443 256.842 105.709C257.644 105.709 258.313 106.509 258.18 107.309C258.18 108.242 257.511 108.775 256.708 108.775Z" fill="#D3C9B4"/>
<path d="M251.09 107.04C251.09 107.04 249.752 106.374 247.745 106.374C246.006 106.374 243.732 103.441 243.732 100.509C243.732 100.509 242.929 91.7113 252.293 95.7102L251.09 107.04Z" fill="#D3C9B4"/>
<path d="M280.655 133.302L267.545 197.818C267.545 197.818 287.878 202.75 300.453 195.552L303.664 105.843C303.53 105.976 289.484 101.044 280.655 133.302Z" fill="#D7CE4B"/>
<path d="M283.73 168.889L296.305 168.223C296.305 168.223 296.572 187.417 289.081 186.618C289.081 186.618 278.781 188.884 283.73 168.889Z" fill="#C9BC3D"/>
<path d="M299.516 104.374C298.178 103.174 296.305 102.508 294.433 102.508C292.292 102.508 290.286 103.441 288.814 105.04C288.413 105.44 279.182 115.704 266.073 134.366C265.27 135.566 264.2 136.765 263.264 138.098L261.926 139.698L263.397 141.164C265.003 142.764 266.608 144.363 268.213 145.963C269.016 146.763 269.952 147.696 270.755 148.495L272.628 150.362L274.367 148.362C275.838 146.629 277.31 144.763 278.514 143.03C291.088 125.302 300.051 115.171 300.185 115.171C302.86 111.972 302.593 107.173 299.516 104.374Z" fill="#D7CE4B"/>
<path d="M265.002 133.754L259.906 139.406L273.142 151.254L278.237 145.602L265.002 133.754Z" fill="#F8FDFF"/>
<path d="M285.471 97.1752L297.109 101.707C297.109 101.707 302.059 77.8471 298.447 74.2481C298.447 74.2481 285.471 73.0484 285.471 97.1752Z" fill="#0D0D0D"/>
<path d="M299.114 78.3816C299.515 79.0481 308.478 84.9132 315.568 83.3136C315.568 83.3136 314.364 72.7832 297.91 74.2494L299.114 78.3816Z" fill="#0D0D0D"/>
<path d="M300.988 94.779C303.795 94.779 306.071 92.5112 306.071 89.7137C306.071 86.9163 303.795 84.6484 300.988 84.6484C298.18 84.6484 295.904 86.9163 295.904 89.7137C295.904 92.5112 298.18 94.779 300.988 94.779Z" stroke="#044236" stroke-width="0.8679" stroke-miterlimit="10"/>
<path d="M313.026 95.0437C315.464 95.0437 317.44 93.0743 317.44 90.6449C317.44 88.2155 315.464 86.2461 313.026 86.2461C310.588 86.2461 308.611 88.2155 308.611 90.6449C308.611 93.0743 310.588 95.0437 313.026 95.0437Z" stroke="#044236" stroke-width="0.755" stroke-miterlimit="10"/>
<path d="M306.07 89.7135C306.07 89.7135 307.676 89.047 308.746 90.1134" stroke="#044236" stroke-width="0.8679" stroke-miterlimit="10"/>
<path d="M159.592 98.5068C159.458 98.5068 159.324 98.5068 159.19 98.5068C156.515 98.3735 154.508 95.9742 154.776 93.3082C155.043 90.509 156.114 87.4432 156.114 87.0433C156.916 84.5106 159.725 83.1776 162.267 84.1107C164.809 84.9105 166.147 87.7097 165.21 90.2424C164.943 91.1755 164.408 92.9083 164.274 94.108C164.14 96.5074 162 98.5068 159.592 98.5068Z" fill="#D3C9B4"/>
<path d="M156.648 231.67C164.675 235.403 171.23 235.27 171.765 235.403C176.982 226.205 192.633 201.145 178.32 180.751L158.12 169.954C158.254 169.82 178.32 190.881 156.648 231.67Z" fill="#0E5648"/>
<path d="M167.081 239.933C167.081 239.933 168.954 236.201 170.426 233.668C169.355 233.535 164.406 233.401 162.399 232.602C160.526 236.467 156.38 242.066 153.57 245.931H180.726L167.081 239.933Z" fill="#0D0D0D"/>
<path d="M200.658 181.815C197.314 175.284 172.833 155.689 170.559 144.359C170.426 143.426 170.158 142.359 170.024 141.293C166.145 143.426 160.928 143.959 156.915 144.092C152.366 144.359 149.557 144.625 145.143 142.493C145.544 149.557 144.34 156.222 148.487 163.287C156.647 177.417 183.669 189.413 186.612 194.079C192.498 203.276 194.638 223.138 196.645 235.268C199.856 235.268 207.347 235.134 210.424 234.068C209.487 227.936 211.226 202.343 200.658 181.815Z" fill="#044236"/>
<path d="M209.087 238.734C209.087 238.734 208.15 235.135 207.883 233.535C204.806 234.602 202.933 233.535 199.723 233.535C200.258 236.601 199.856 242.199 200.124 245.532H225.808L209.087 238.734Z" fill="#0D0D0D"/>
<path d="M157.183 147.959C161.062 147.825 169.356 146.759 172.567 143.427C171.898 138.095 169.49 129.43 170.292 122.499C173.102 99.0385 161.597 91.9738 161.597 91.9738C161.597 91.9738 156.246 88.2414 151.966 92.6402C145.544 99.3051 139.123 118.1 139.792 145.826C144.474 148.225 152.501 148.092 157.183 147.959Z" fill="#D7CE4B"/>
<path d="M216.177 155.292C215.776 155.292 215.375 155.292 214.973 155.158C196.379 150.893 180.727 139.829 169.491 123.167C161.063 110.637 158.254 99.44 158.12 99.0401C157.451 96.3742 159.056 93.5749 161.866 92.9084C164.541 92.2419 167.35 93.8415 168.019 96.6407C168.019 96.9073 170.695 106.905 178.186 117.968C187.951 132.498 201.195 141.695 217.247 145.428C220.057 146.094 221.662 148.76 221.127 151.559C220.725 153.692 218.585 155.292 216.177 155.292Z" fill="#D3C9B4"/>
<path d="M204.94 139.961C194.774 135.162 186.078 127.431 179.122 117.167C171.765 106.237 169.089 96.2396 169.089 96.1063C168.42 93.4404 166.012 91.5742 163.203 91.5742C162.668 91.5742 162.267 91.5742 161.732 91.7075C160.126 92.1074 158.922 93.0405 157.986 94.5068C157.183 95.8397 156.916 97.4393 157.317 99.0389V99.1722C158.12 102.638 161.33 114.635 168.822 125.965C177.784 139.428 190.091 149.425 204.138 155.024C204.271 155.024 204.405 155.024 204.539 155.024C204.673 155.024 204.94 155.024 205.074 154.89C205.342 154.757 205.475 154.491 205.475 154.091V140.628C205.475 140.494 205.208 140.094 204.94 139.961Z" fill="#D7CE4B"/>
<path d="M220.055 155.692C218.45 155.692 216.711 155.559 214.838 155.159C214.035 155.025 213.5 154.226 213.634 153.426C213.768 152.626 214.57 152.093 215.373 152.226C219.921 153.159 223.533 152.759 226.476 151.293C227.145 150.893 228.081 151.16 228.483 151.96C228.884 152.626 228.616 153.559 227.814 153.959C225.673 155.025 222.998 155.692 220.055 155.692Z" fill="#D3C9B4"/>
<path d="M220.189 152.359C219.52 152.359 218.718 152.359 218.049 152.225C217.246 152.092 216.711 151.292 216.711 150.493C216.845 149.693 217.647 149.16 218.45 149.16C223.266 149.826 227.68 147.427 227.814 147.293C228.483 146.893 229.419 147.16 229.821 147.827C230.222 148.493 229.954 149.426 229.286 149.826C229.152 150.093 225.139 152.359 220.189 152.359Z" fill="#D3C9B4"/>
<path d="M218.851 149.427C218.584 149.427 218.316 149.427 218.182 149.427C217.38 149.427 216.711 148.627 216.711 147.827C216.711 147.027 217.514 146.361 218.316 146.361C221.928 146.627 223.801 144.361 223.801 144.361C224.336 143.695 225.272 143.561 225.941 144.095C226.61 144.628 226.744 145.561 226.209 146.227C226.075 146.361 223.667 149.427 218.851 149.427Z" fill="#D3C9B4"/>
<path d="M213.768 146.895C212.966 146.895 212.297 146.228 212.297 145.428C212.297 144.629 212.966 143.962 213.768 143.962C213.902 143.962 216.845 143.829 218.584 141.43C219.119 140.763 220.056 140.63 220.725 141.03C221.393 141.563 221.527 142.496 221.126 143.162C218.317 146.761 213.902 146.895 213.768 146.895Z" fill="#D3C9B4"/>
<path d="M208.82 113.034C208.285 113.034 207.883 112.768 207.616 112.368C205.342 109.302 204.94 106.636 204.94 106.636C204.807 105.836 205.342 105.037 206.144 104.903C206.947 104.77 207.75 105.303 207.883 106.103C207.883 106.103 208.285 108.102 210.024 110.635C210.559 111.302 210.291 112.235 209.622 112.768C209.355 112.901 209.087 113.034 208.82 113.034Z" fill="#D3C9B4"/>
<path d="M209.087 113.704C208.954 113.704 208.954 113.704 208.82 113.704C205.476 113.038 199.054 113.038 198.921 113.038C198.118 113.038 197.449 112.372 197.449 111.572C197.449 110.772 198.118 110.105 198.921 110.105C199.188 110.105 205.743 110.105 209.355 110.772C210.158 110.905 210.693 111.705 210.559 112.505C210.425 113.171 209.756 113.704 209.087 113.704Z" fill="#D3C9B4"/>
<path d="M198.118 116.771C197.315 116.771 196.78 116.238 196.646 115.438C196.512 114.638 197.181 113.839 197.984 113.705C198.92 113.572 207.348 112.506 210.157 113.039C210.96 113.172 211.495 113.972 211.361 114.772C211.227 115.572 210.425 116.105 209.622 115.971C207.883 115.705 201.863 116.238 198.385 116.638C198.251 116.771 198.118 116.771 198.118 116.771Z" fill="#D3C9B4"/>
<path d="M199.99 120.101C199.321 120.101 198.652 119.568 198.519 118.902C198.385 118.102 198.92 117.302 199.722 117.169C203.334 116.502 204.405 116.102 206.144 115.569C206.946 115.303 208.016 115.036 209.488 114.503C210.291 114.236 211.093 114.77 211.361 115.569C211.628 116.369 211.093 117.169 210.291 117.435C208.819 117.835 207.883 118.235 206.946 118.502C205.073 119.035 204.003 119.435 200.258 120.235C200.258 120.101 200.124 120.101 199.99 120.101Z" fill="#D3C9B4"/>
<path d="M203.334 122.501C202.665 122.501 201.996 121.967 201.862 121.301C201.729 120.501 202.264 119.701 203.066 119.568C207.882 118.768 208.952 116.902 208.952 116.902C209.22 116.102 210.022 115.702 210.825 115.969C211.628 116.236 212.029 117.035 211.761 117.835C211.628 118.368 210.29 121.434 203.601 122.501C203.468 122.501 203.334 122.501 203.334 122.501Z" fill="#D3C9B4"/>
<path d="M209.087 120.767L207.883 108.504C207.883 108.504 213.234 108.904 213.234 114.502C213.367 116.368 212.832 118.501 209.087 120.767Z" fill="#D3C9B4"/>
<path d="M175.242 80.9106C176.58 85.9759 173.503 91.3078 168.42 92.6408C163.336 93.9738 157.985 90.9079 156.648 85.8426L154.909 79.4444C153.571 74.3791 156.648 69.0472 161.731 67.7142C166.814 66.3812 172.165 69.4471 173.503 74.5124L175.242 80.9106Z" fill="#D3C9B4"/>
<path d="M174.304 77.4453C173.636 79.4448 172.565 81.4442 170.96 82.9105C167.081 86.2429 161.195 87.176 156.379 85.1766L156.513 85.843C157.85 90.9083 163.201 93.9742 168.285 92.6412C173.368 91.3082 176.445 85.9763 175.107 80.911L174.304 77.4453Z" fill="#0D0D0D"/>
<path d="M156.514 85.4448C152.903 83.1787 149.023 74.3811 154.642 72.3817C158.12 71.182 156.782 81.9791 156.782 85.0449L156.514 85.4448Z" fill="#0D0D0D"/>
<path d="M153.705 73.1808C149.291 69.9817 154.775 61.0508 165.611 61.0508C172.299 61.0508 172.299 66.1161 167.617 68.9153C163.738 71.1814 157.852 69.8484 154.909 73.714L153.705 73.1808Z" fill="#0D0D0D"/>
<path d="M174.306 79.4468C172.835 77.1807 169.758 72.5153 168.554 69.8494C167.751 68.1165 166.815 65.3173 170.159 67.3167C172.968 69.0496 174.44 75.048 174.306 77.9805V79.4468Z" fill="#0D0D0D"/>
<path d="M98.0563 100.773C96.451 102.24 94.5782 103.706 93.1067 105.439L71.4355 150.626L87.622 129.832L104.745 94.375C102.471 96.6411 100.33 98.7738 98.0563 100.773Z" fill="#C4DAD8"/>
<path d="M85.0803 93.307C86.6856 91.1742 88.1571 88.6416 90.0299 86.3755L52.0385 67.9805L15.9199 71.5795L79.1943 100.638C81.2009 98.239 83.3413 95.8396 85.0803 93.307Z" fill="#C4DAD8"/>
<path d="M90.5641 86.7773C88.5575 89.31 86.9522 92.2425 84.9456 94.6419C83.2066 96.7746 81.4676 98.9074 79.7285 100.907L108.49 114.103L118.924 100.507L90.5641 86.7773Z" fill="#C4DAD8"/>
<path d="M47.2217 139.295L58.4586 115.968L0 88.1084L9.36408 68.647L105.547 12.1289L131.766 24.6589L93.2395 105.037L109.158 112.635L98.3228 135.162L82.4039 127.564L71.3008 150.758L47.2217 139.295ZM90.564 49.1856L89.0925 48.5191L37.5901 78.511L69.1604 93.5736L90.564 49.1856Z" fill="#769A98"/>
<path d="M109.158 112.634L118.923 100.504L111.298 117.299L98.0547 135.828L109.158 112.634Z" fill="#C4DAD8"/>
<path d="M105.412 93.8406L143.403 10.9297L131.899 24.6593L93.2383 105.038C94.3085 103.971 104.877 94.3738 105.412 93.8406Z" fill="#C4DAD8"/>
<path d="M9.36328 68.6481L26.4862 53.7188L120.528 0L105.546 12.1301L9.36328 68.6481Z" fill="#C4DAD8"/>
<path d="M105.547 12.1301L131.9 24.66L143.405 10.9304L120.529 0L105.547 12.1301Z" fill="#C4DAD8"/>
<path d="M73.3063 72.6453C70.0957 70.3792 67.8216 71.3123 66.3501 71.5789C64.611 71.8455 63.4071 70.9124 63.4071 70.9124C62.7382 70.5125 61.8018 70.6458 61.2667 71.3123C60.8654 71.9788 60.9992 72.9119 61.668 73.4451C61.8018 73.4451 63.0058 74.3782 65.4137 74.9114C63.0058 77.3107 60.3303 79.9767 60.1965 80.11C59.6614 80.7764 59.6614 81.7095 60.3303 82.2427C60.5979 82.5093 60.9992 82.6426 61.4005 82.6426C61.8018 82.6426 62.2031 82.5093 62.4707 82.1094C62.4707 82.1094 64.3435 80.11 66.2163 78.2438C64.3435 80.5098 62.6044 82.9092 62.3369 83.4424C61.8018 84.1089 62.0694 85.042 62.7382 85.5751C63.0058 85.7084 63.2733 85.8417 63.6746 85.8417C64.0759 85.8417 64.611 85.5751 64.8786 85.1753C65.815 83.8423 67.2865 81.9761 68.6242 80.2433C68.0891 81.1763 67.554 82.376 66.2163 84.3755C65.815 85.042 65.9488 85.975 66.7514 86.5082C67.0189 86.6415 67.2865 86.7748 67.554 86.7748C68.0891 86.7748 68.4904 86.5082 68.8918 86.1083C69.4269 85.3085 69.8282 84.6421 70.2295 83.9756C69.9619 84.6421 70.2295 85.4418 70.7646 85.8417C71.0321 85.975 71.2997 86.1083 71.5672 86.1083C72.1023 86.1083 72.5036 85.8417 72.7712 85.4418C74.2427 83.3091 74.9115 81.5762 75.1791 80.11C75.9817 75.8444 74.9115 73.845 73.3063 72.6453ZM70.3633 83.3091C70.8983 82.376 71.1659 81.8428 71.5672 81.1763C71.2997 81.7095 70.8983 82.376 70.3633 83.3091Z" fill="#D3C9B4"/>
<path d="M27.289 89.7088C22.4731 89.4422 15.6507 98.773 22.7407 101.306C16.3196 101.172 14.7143 110.237 20.6003 112.636C10.2998 110.636 11.5038 123.966 16.3196 128.765C12.9753 128.232 9.63098 131.431 10.1661 134.763C10.7012 138.229 12.0389 143.028 20.6003 145.56C29.1618 148.093 34.3789 143.294 38.6596 138.762C41.3351 144.361 54.8461 136.763 53.3746 130.231C58.458 131.964 63.0062 126.232 63.14 121.7C63.2738 117.168 60.0632 113.836 57.1202 110.903C59.2606 109.037 59.6619 105.438 59.1268 102.639C58.1904 98.1065 52.572 97.7066 52.572 94.1076C52.572 92.9079 52.8395 88.909 51.7693 87.1761C50.0303 84.3769 47.0873 81.7109 43.3417 83.0439C27.289 75.5792 27.289 89.7088 27.289 89.7088Z" fill="#0D0D0D"/>
<path d="M36.5191 235.404C32.2384 234.604 31.4357 234.871 27.155 233.805L17.2559 245.935H55.7824L33.3086 239.936L36.5191 235.404Z" fill="#0D0D0D"/>
<path d="M108.222 238.87L105.947 235.938C103.941 237.27 101.8 238.337 99.3926 239.137L105.412 245.935H128.02L108.222 238.87Z" fill="#0D0D0D"/>
<path d="M23.0078 235.402C27.2885 236.468 31.703 237.535 35.9838 238.334L67.8216 199.278L62.3369 183.816L40.1307 158.223L46.5518 194.48L23.0078 235.402Z" fill="#0E5648"/>
<path d="M66.3509 147.427C57.6557 145.161 45.7499 148.093 37.3223 151.293C37.3223 151.293 42.5394 171.954 46.0175 178.085C55.9167 196.081 99.1252 240.868 99.1252 240.868C101.533 240.069 106.081 236.736 108.088 235.403L66.3509 147.427Z" fill="#044236"/>
<path d="M36.1194 159.29C44.5471 156.091 61.4025 150.759 70.0977 153.025C70.0977 153.025 58.5932 126.099 53.3761 120.234C49.898 116.235 30.6348 104.905 30.6348 119.701C30.6348 139.829 36.1194 159.29 36.1194 159.29Z" fill="#D7CE4B"/>
<path d="M43.6095 118.369C43.4757 118.369 43.3419 118.502 43.2082 118.502C40.6665 119.169 37.991 117.702 37.3222 115.17C36.6533 112.504 36.5195 109.171 36.5195 108.771C36.5195 106.105 38.6599 103.973 41.3353 103.973C44.0108 103.973 46.1512 106.105 46.1512 108.771C46.1512 109.704 46.2849 111.571 46.5525 112.77C47.3551 115.036 46.0174 117.569 43.6095 118.369Z" fill="#D3C9B4"/>
<path d="M46.821 113.571C46.821 113.171 46.821 112.905 46.6872 112.505C46.4197 111.438 46.2859 109.439 46.2859 108.506C46.2859 105.84 44.1456 103.707 41.4701 103.707C38.7947 103.707 36.6543 105.84 36.6543 108.506C36.6543 108.506 36.6543 108.772 36.6543 108.906C38.9284 111.838 42.9416 113.038 46.821 113.571Z" fill="#C1B39F"/>
<path d="M51.3678 99.0397C52.8393 103.705 50.2976 108.77 45.6156 110.37C40.9335 111.836 35.8502 109.304 34.2449 104.638L32.3721 98.7731C30.9006 94.1077 33.4423 89.0424 38.1243 87.4429C42.8064 85.9766 47.8897 88.5093 49.495 93.1747L51.3678 99.0397Z" fill="#D3C9B4"/>
<path d="M105.146 94.3741C105.012 94.2408 104.744 94.1075 104.477 94.1075C104.744 93.841 104.878 93.5744 105.146 93.3078C105.681 92.6413 105.681 91.7082 105.012 91.175C104.878 91.0417 104.878 91.0417 104.744 91.0417C105.146 90.3752 105.146 89.5754 104.477 89.0423C104.076 88.6424 103.407 88.5091 102.872 88.7757C103.54 88.1092 103.942 87.576 104.076 87.576C104.611 86.9095 104.611 85.9764 103.942 85.4432C103.273 84.91 102.336 84.91 101.801 85.5765C101.801 85.5765 98.4571 89.3088 95.1128 91.175C93.6413 88.909 91.6347 88.2425 91.6347 88.1092C90.8321 87.8426 90.0294 88.2425 89.7619 88.9089C89.4943 89.7087 89.8956 90.5085 90.5645 90.9084C90.5645 90.9084 91.7685 91.4416 92.7049 92.7746C92.5711 93.1745 92.4373 93.5744 92.3036 94.1075C70.3649 124.099 41.0687 113.569 39.7309 113.036C37.0555 111.969 34.1125 113.302 33.1761 115.968C32.1059 118.634 33.4436 121.567 36.1191 122.633C36.5204 122.766 43.6103 125.432 53.9108 125.432C55.9174 125.432 58.1915 125.299 60.4657 125.033C71.5688 123.7 87.8891 117.435 100.999 100.639C101.266 100.506 101.534 100.373 101.935 99.9726C102.203 99.8393 102.47 99.5727 102.738 99.4394C103.54 98.773 104.477 97.8399 105.547 96.6402C105.948 95.8404 105.815 94.9073 105.146 94.3741Z" fill="#D3C9B4"/>
<path d="M64.3449 113.036L63.1409 113.303C60.0641 113.969 56.9874 114.236 53.7768 114.236C46.018 114.236 40.6671 112.236 39.9983 112.103C39.3294 111.836 38.5268 111.703 37.8579 111.703C35.3162 111.703 33.1759 113.169 32.2394 115.569C31.7044 117.035 31.5706 118.768 32.3732 120.101C35.3162 125.299 43.3426 127.432 53.7768 127.432C56.051 127.432 58.1913 127.299 60.4655 127.032C61.8032 126.899 63.1409 126.632 64.6124 126.366L65.5488 126.099C65.5488 126.099 64.3449 122.367 64.0773 118.501C63.9435 117.168 64.3449 113.036 64.3449 113.036Z" fill="#D7CE4B"/>
<path d="M32.1057 103.707C35.3162 101.708 36.3864 97.9755 35.9851 94.2432C38.7943 96.1094 40.9347 94.9097 42.6737 91.7106C47.8908 99.0419 55.9172 88.1115 45.0816 84.2459C36.3864 81.0468 27.8249 89.7111 29.9653 98.3754L32.1057 103.707Z" fill="#0D0D0D"/>
</g>
<defs>
<clipPath id="clip0">
<rect width="467" height="247" fill="white"/>
</clipPath>
</defs>
</svg>
