<svg width="21" height="14" viewBox="0 0 21 14" fill="none" xmlns="http://www.w3.org/2000/svg">
<path d="M0.9 4.85324V4.85325C0.900029 5.14515 1.13666 5.38178 1.42856 5.38181H1.42857C2.32519 5.38181 3.04286 6.09947 3.04286 6.99609C3.04286 7.89272 2.32519 8.61038 1.42857 8.61038H1.42856C1.13666 8.61041 0.900029 8.84704 0.9 9.13894V11.7104C0.9 12.4705 1.52561 13.0961 2.28571 13.0961H2.31752H2.34933H2.38114H2.41295H2.44475H2.47656H2.50837H2.54018H2.57199H2.60379H2.6356H2.66741H2.69922H2.73103H2.76283H2.79464H2.82645H2.85826H2.89007H2.92188H2.95368H2.98549H3.0173H3.04911H3.08092H3.11272H3.14453H3.17634H3.20815H3.23996H3.27176H3.30357H3.33538H3.36719H3.399H3.4308H3.46261H3.49442H3.52623H3.55804H3.58984H3.62165H3.65346H3.68527H3.71708H3.74888H3.78069H3.8125H3.84431H3.87612H3.90792H3.93973H3.97154H4.00335H4.03516H4.06696H4.09877H4.13058H4.16239H4.1942H4.226H4.25781H4.28962H4.32143H4.35324H4.38504H4.41685H4.44866H4.48047H4.51228H4.54408H4.57589H4.6077H4.63951H4.67132H4.70312H4.73493H4.76674H4.79855H4.83036H4.86217H4.89397H4.92578H4.95759H4.9894H5.02121H5.05301H5.08482H5.11663H5.14844H5.18025H5.21205H5.24386H5.27567H5.30748H5.33929H5.37109H5.4029H5.43471H5.46652H5.49833H5.53013H5.56194H5.59375H5.62556H5.65737H5.68917H5.72098H5.75279H5.7846H5.81641H5.84821H5.88002H5.91183H5.94364H5.97545H6.00725H6.03906H6.07087H6.10268H6.13449H6.16629H6.1981H6.22991H6.26172H6.29353H6.32534H6.35714H6.38895H6.42076H6.45257H6.48438H6.51618H6.54799H6.5798H6.61161H6.64342H6.67522H6.70703H6.73884H6.77065H6.80246H6.83426H6.86607H6.89788H6.92969H6.9615H6.9933H7.02511H7.05692H7.08873H7.12054H7.15234H7.18415H7.21596H7.24777H7.27958H7.31138H7.34319H7.375H7.40681H7.43862H7.47042H7.50223H7.53404H7.56585H7.59766H7.62946H7.66127H7.69308H7.72489H7.7567H7.7885H7.82031H7.85212H7.88393H7.91574H7.94754H7.97935H8.01116H8.04297H8.07478H8.10659H8.13839H8.1702H8.20201H8.23382H8.26562H8.29743H8.32924H8.36105H8.39286H8.42467H8.45647H8.48828H8.52009H8.5519H8.58371H8.61551H8.64732H8.67913H8.71094H8.74275H8.77455H8.80636H8.83817H8.86998H8.90179H8.93359H8.9654H8.99721H9.02902H9.06083H9.09263H9.12444H9.15625H9.18806H9.21987H9.25167H9.28348H9.31529H9.3471H9.37891H9.41071H9.44252H9.47433H9.50614H9.53795H9.56975H9.60156H9.63337H9.66518H9.69699H9.7288H9.7606H9.79241H9.82422H9.85603H9.88783H9.91964H9.95145H9.98326H10.0151H10.0469H10.0787H10.1105H10.1423H10.1741H10.2059H10.2377H10.2695H10.3013H10.3331H10.365H10.3968H10.4286H10.4604H10.4922H10.524H10.5558H10.5876H10.6194H10.6512H10.683H10.7148H10.7467H10.7785H10.8103H10.8421H10.8739H10.9057H10.9375H10.9693H11.0011H11.0329H11.0647H11.0965H11.1283H11.1602H11.192H11.2238H11.2556H11.2874H11.3192H11.351H11.3828H11.4146H11.4464H11.4782H11.51H11.5419H11.5737H11.6055H11.6373H11.6691H11.7009H11.7327H11.7645H11.7963H11.8281H11.8599H11.8917H11.9235H11.9554H11.9872H12.019H12.0508H12.0826H12.1144H12.1462H12.178H12.2098H12.2416H12.2734H12.3052H12.3371H12.3689H12.4007H12.4325H12.4643H12.4961H12.5279H12.5597H12.5915H12.6233H12.6551H12.6869H12.7188H12.7506H12.7824H12.8142H12.846H12.8778H12.9096H12.9414H12.9732H13.005H13.0368H13.0686H13.1004H13.1323H13.1641H13.1959H13.2277H13.2595H13.2913H13.3231H13.3549H13.3867H13.4185H13.4503H13.4821H13.514H13.5458H13.5776H13.6094H13.6412H13.673H13.7048H13.7366H13.7684H13.8002H13.832H13.8638H13.8956H13.9275H13.9593H13.9911H14.0229H14.0547H14.0865H14.1183H14.1501H14.1819H14.2137H14.2455H14.2773H14.3092H14.341H14.3728H14.4046H14.4364H14.4682H14.5H14.5318H14.5636H14.5954H14.6272H14.659H14.6908H14.7227H14.7545H14.7863H14.8181H14.8499H14.8817H14.9135H14.9453H14.9771H15.0089H15.0407H15.0725H15.1044H15.1362H15.168H15.1998H15.2316H15.2634H15.2952H15.327H15.3588H15.3906H15.4224H15.4542H15.486H15.5179H15.5497H15.5815H15.6133H15.6451H15.6769H15.7087H15.7405H15.7723H15.8041H15.8359H15.8677H15.8996H15.9314H15.9632H15.995H16.0268H16.0586H16.0904H16.1222H16.154H16.1858H16.2176H16.2494H16.2812H16.3131H16.3449H16.3767H16.4085H16.4403H16.4721H16.5039H16.5357H16.5675H16.5993H16.6311H16.6629H16.6948H16.7266H16.7584H16.7902H16.822H16.8538H16.8856H16.9174H16.9492H16.981H17.0128H17.0446H17.0765H17.1083H17.1401H17.1719H17.2037H17.2355H17.2673H17.2991H17.3309H17.3627H17.3945H17.4263H17.4581H17.49H17.5218H17.5536H17.5854H17.6172H17.649H17.6808H17.7126H17.7444H17.7762H17.808H17.8398H17.8717H17.9035H17.9353H17.9671H17.9989H18.0307H18.0625H18.0943H18.1261H18.1579H18.1897H18.2215H18.2533H18.2852H18.317H18.3488H18.3806H18.4124H18.4442H18.476H18.5078H18.5396H18.5714C19.3315 13.0961 19.9571 12.4705 19.9571 11.7104V9.13895C19.9571 8.84704 19.7205 8.61041 19.4286 8.61038C18.532 8.61038 17.8143 7.89272 17.8143 6.99609C17.8143 6.09947 18.532 5.38181 19.4286 5.38181C19.7205 5.38178 19.9571 5.14515 19.9571 4.85325V2.28181C19.9571 1.52171 19.3315 0.896094 18.5714 0.896094H2.28571C1.52561 0.896094 0.9 1.52171 0.9 2.28181V4.85324ZM2.28571 1.95324H5.18571V3.99609C5.18571 4.28802 5.42236 4.52467 5.71429 4.52467C6.00621 4.52467 6.24286 4.28802 6.24286 3.99609V1.95324H18.5714C18.761 1.95324 18.9 2.09219 18.9 2.28181V4.42909C17.6918 4.67978 16.7571 5.70928 16.7571 6.99609C16.7571 8.28291 17.6918 9.31241 18.9 9.5631V11.7104C18.9 11.9 18.761 12.039 18.5714 12.039H6.24286V9.99609C6.24286 9.70417 6.00621 9.46752 5.71429 9.46752C5.42236 9.46752 5.18571 9.70417 5.18571 9.99609V12.039H2.28571C2.0961 12.039 1.95714 11.9 1.95714 11.7104V9.5631C3.16535 9.31241 4.1 8.28291 4.1 6.99609C4.1 5.70928 3.16535 4.67978 1.95714 4.42909V2.28181C1.95714 2.09219 2.0961 1.95324 2.28571 1.95324Z" fill="white" stroke="white" stroke-width="0.2"/>
<path d="M13.4503 3.52197L13.4503 3.52198C13.7114 3.65252 13.8173 3.97008 13.6867 4.23121L10.6867 10.2312C10.5562 10.4923 10.2386 10.5982 9.97749 10.4676C9.97748 10.4676 9.97748 10.4676 9.97747 10.4676L10.0222 10.3782C9.81045 10.2723 9.72462 10.0148 9.83052 9.80311L13.4503 3.52197ZM13.4503 3.52197L13.4496 3.52161C13.1511 3.37548 12.8475 3.51682 12.7399 3.76068L9.74108 9.75838M13.4503 3.52197L9.74108 9.75838M9.74108 9.75838C9.74108 9.75838 9.74108 9.75839 9.74108 9.75839L9.74108 9.75838Z" fill="white" stroke="white" stroke-width="0.2"/>
<path d="M9.57087 4.11094C8.81064 4.11094 8.18516 4.73642 8.18516 5.49665C8.18516 6.25688 8.81064 6.88237 9.57087 6.88237C10.3311 6.88237 10.9566 6.25688 10.9566 5.49665C10.9566 4.73642 10.3311 4.11094 9.57087 4.11094ZM9.57087 5.16808C9.75741 5.16808 9.89944 5.31011 9.89944 5.49665C9.89944 5.68319 9.75741 5.82522 9.57087 5.82522C9.38433 5.82522 9.2423 5.68319 9.2423 5.49665C9.2423 5.31011 9.38433 5.16808 9.57087 5.16808Z" fill="white" stroke="white" stroke-width="0.2"/>
<path d="M13.858 7.11094C13.0977 7.11094 12.4723 7.73642 12.4723 8.49665C12.4723 9.25688 13.0977 9.88237 13.858 9.88237C14.6182 9.88237 15.2437 9.25688 15.2437 8.49665C15.2437 7.73642 14.6182 7.11094 13.858 7.11094ZM13.858 8.16808C14.0445 8.16808 14.1866 8.31011 14.1866 8.49665C14.1866 8.68319 14.0445 8.82522 13.858 8.82522C13.6714 8.82522 13.5294 8.68319 13.5294 8.49665C13.5294 8.31011 13.6714 8.16808 13.858 8.16808Z" fill="white" stroke="white" stroke-width="0.2"/>
<path d="M5.71373 5.18125C5.57354 5.18125 5.4391 5.23694 5.33997 5.33606C5.24084 5.43519 5.18516 5.56964 5.18516 5.70982V8.28125C5.18516 8.42144 5.24084 8.55588 5.33997 8.65501C5.4391 8.75413 5.57354 8.80982 5.71373 8.80982C5.85391 8.80982 5.98836 8.75413 6.08748 8.65501C6.18661 8.55588 6.2423 8.42144 6.2423 8.28125V5.70982C6.2423 5.56964 6.18661 5.43519 6.08748 5.33606C5.98836 5.23694 5.85391 5.18125 5.71373 5.18125Z" fill="white" stroke="white" stroke-width="0.2"/>
</svg>
