<svg width="22" height="20" viewBox="0 0 22 20" fill="none" xmlns="http://www.w3.org/2000/svg">
<path d="M18.8571 3.85714H14.5714V3.14286C14.5714 2.57454 14.3457 2.02949 13.9438 1.62763C13.5419 1.22576 12.9969 1 12.4286 1H9.57143C9.00311 1 8.45806 1.22576 8.0562 1.62763C7.65434 2.02949 7.42857 2.57454 7.42857 3.14286V3.85714H3.14286C2.57454 3.85714 2.02949 4.08291 1.62763 4.48477C1.22576 4.88664 1 5.43168 1 6V17.4286C1 17.9969 1.22576 18.5419 1.62763 18.9438C2.02949 19.3457 2.57454 19.5714 3.14286 19.5714H18.8571C19.4255 19.5714 19.9705 19.3457 20.3724 18.9438C20.7742 18.5419 21 17.9969 21 17.4286V6C21 5.43168 20.7742 4.88664 20.3724 4.48477C19.9705 4.08291 19.4255 3.85714 18.8571 3.85714ZM8.85714 3.14286C8.85714 2.95342 8.9324 2.77174 9.06635 2.63778C9.20031 2.50383 9.38199 2.42857 9.57143 2.42857H12.4286C12.618 2.42857 12.7997 2.50383 12.9336 2.63778C13.0676 2.77174 13.1429 2.95342 13.1429 3.14286V3.85714H8.85714V3.14286ZM3.14286 5.28571H18.8571C19.0466 5.28571 19.2283 5.36097 19.3622 5.49492C19.4962 5.62888 19.5714 5.81056 19.5714 6V7.62857L16 8.85714C15.9282 8.87939 15.8537 8.89141 15.7786 8.89286H6.22857C6.15105 8.89209 6.07406 8.88006 6 8.85714L2.42857 7.62857V6C2.42857 5.81056 2.50383 5.62888 2.63778 5.49492C2.77174 5.36097 2.95342 5.28571 3.14286 5.28571ZM18.8571 18.1429H3.14286C2.95342 18.1429 2.77174 18.0676 2.63778 17.9336C2.50383 17.7997 2.42857 17.618 2.42857 17.4286V9.13571L5.55714 10.1786C5.77382 10.2498 6.00049 10.286 6.22857 10.2857H15.7714C15.9995 10.286 16.2262 10.2498 16.4429 10.1786L19.5714 9.13571V17.4286C19.5714 17.618 19.4962 17.7997 19.3622 17.9336C19.2283 18.0676 19.0466 18.1429 18.8571 18.1429ZM13.8571 12.4286C13.8571 12.618 13.7819 12.7997 13.6479 12.9336C13.514 13.0676 13.3323 13.1429 13.1429 13.1429H8.85714C8.6677 13.1429 8.48602 13.0676 8.35207 12.9336C8.21811 12.7997 8.14286 12.618 8.14286 12.4286C8.14286 12.2391 8.21811 12.0574 8.35207 11.9235C8.48602 11.7895 8.6677 11.7143 8.85714 11.7143H13.1429C13.3323 11.7143 13.514 11.7895 13.6479 11.9235C13.7819 12.0574 13.8571 12.2391 13.8571 12.4286Z" fill="#333333" stroke="#333333" stroke-width="0.4"/>
</svg>
