<svg width="30" height="28" viewBox="0 0 30 28" fill="none" xmlns="http://www.w3.org/2000/svg">
<path d="M19.3746 10.7565L10.248 17.7033C10.0667 17.848 10.0063 18.1374 10.1876 18.3111C10.2783 18.4269 10.3992 18.4848 10.5503 18.4848C10.6409 18.4848 10.7618 18.4558 10.8222 18.3979L19.9488 11.4511C20.1302 11.3064 20.1906 11.017 20.0093 10.8433C19.8582 10.6407 19.5862 10.6117 19.3746 10.7565Z" fill="white" stroke="white" stroke-width="0.8"/>
<path d="M12.6965 13.852C12.8174 13.852 12.9383 13.852 13.0592 13.823C14.2982 13.6494 15.1746 12.5205 14.9631 11.3048C14.8724 10.7259 14.54 10.2049 14.0565 9.85758C13.5729 9.51024 12.9685 9.36552 12.3641 9.45235C11.7597 9.53919 11.2157 9.85758 10.8531 10.3207C10.4904 10.7838 10.3393 11.3627 10.43 11.9416C10.6113 13.0705 11.6086 13.852 12.6965 13.852ZM12.485 10.3496C12.5454 10.3496 12.6361 10.3207 12.6965 10.3207C13.3614 10.3207 13.9658 10.7838 14.0565 11.4496C14.1773 12.1732 13.6636 12.8389 12.9081 12.9547C12.1526 13.0705 11.4575 12.5784 11.3366 11.8548C11.2157 11.1312 11.7597 10.4654 12.485 10.3496Z" fill="white" stroke="white" stroke-width="0.8"/>
<path d="M17.5311 15.3008C16.2619 15.3008 15.2344 16.2849 15.2344 17.5006C15.2344 18.7163 16.2619 19.7004 17.5311 19.7004C18.8004 19.7004 19.8279 18.7163 19.8279 17.5006C19.7977 16.2849 18.7702 15.3008 17.5311 15.3008ZM17.5311 18.8031C16.7756 18.8031 16.141 18.1953 16.141 17.4717C16.141 16.748 16.7756 16.1402 17.5311 16.1402C18.2866 16.1402 18.9213 16.748 18.9213 17.4717C18.8911 18.2242 18.2866 18.8031 17.5311 18.8031Z" fill="white" stroke="white" stroke-width="0.8"/>
<path d="M28.8327 14.2857C28.8327 14.2568 28.8629 14.1989 28.8629 14.17C28.8629 12.9253 27.503 12.2885 26.3244 11.7386C25.4782 11.3334 24.5716 10.8992 24.3298 10.3782C24.0881 9.82822 24.4205 8.93092 24.7529 8.09152C25.2062 6.90478 25.6596 5.68909 24.8134 4.87863C23.9672 4.06817 22.7584 4.35762 21.5496 4.61812C20.7034 4.79179 19.827 4.99441 19.2528 4.76285C18.6786 4.53129 18.1951 3.80766 17.7418 3.11298C17.0769 2.12885 16.3516 1 15.0824 1C13.8131 1 13.0878 2.12885 12.4532 3.14193C11.9999 3.86555 11.5466 4.58918 10.9724 4.82074C10.3982 5.0523 9.49157 4.84968 8.6454 4.64707C7.43658 4.35762 6.19754 4.06817 5.38158 4.84968C4.53541 5.66014 4.95849 6.87583 5.35136 8.06258C5.65357 8.93092 5.92555 9.79927 5.68379 10.3782C5.44202 10.9281 4.59585 11.3334 3.77989 11.7386C2.63151 12.3175 1.33203 12.9543 1.33203 14.17C1.33203 14.1989 1.33203 14.2568 1.36225 14.2857C1.36225 14.3147 1.33203 14.3726 1.33203 14.4015C1.33203 15.6172 2.63151 16.2829 3.77989 16.8329C4.59585 17.2381 5.44202 17.6434 5.68379 18.1933C5.92555 18.7433 5.62335 19.6406 5.35136 20.5089C4.95849 21.6957 4.53541 22.9114 5.38158 23.7218C6.22776 24.5323 7.4668 24.2139 8.6454 23.9244C9.49157 23.7218 10.3982 23.5192 10.9724 23.7508C11.5466 23.9823 11.9999 24.7059 12.4532 25.4296C13.0878 26.4426 13.8131 27.5715 15.0824 27.5715C16.3516 27.5715 17.1071 26.4426 17.7418 25.4585C18.1951 24.7638 18.6786 24.0402 19.2528 23.8086C19.8572 23.5771 20.7034 23.7508 21.5496 23.9534C22.7282 24.2139 23.9672 24.5033 24.8134 23.6929C25.6596 22.8824 25.2062 21.6667 24.7529 20.48C24.4205 19.6116 24.0881 18.7433 24.3298 18.1933C24.5716 17.6434 25.448 17.2381 26.3244 16.8329C27.503 16.254 28.8629 15.6172 28.8629 14.4015C28.8629 14.3436 28.8327 14.3147 28.8327 14.2857ZM25.9013 16.0514C24.904 16.5435 23.8463 17.0355 23.4837 17.8749C23.0908 18.7433 23.5139 19.7853 23.8765 20.7984C24.2392 21.7536 24.6018 22.6798 24.1485 23.085C23.665 23.5481 22.7282 23.3455 21.7309 23.114C20.7336 22.8824 19.7363 22.6798 18.8599 23.0271C18.0138 23.3745 17.4698 24.1849 16.956 24.9954C16.3819 25.8637 15.8379 26.7031 15.0521 26.7031C14.2966 26.7031 13.7527 25.8637 13.1785 24.9664C12.6647 24.127 12.1208 23.2876 11.2746 22.9403C10.3982 22.593 9.37069 22.8245 8.37341 23.085C7.37614 23.3166 6.4393 23.5481 5.95577 23.114C5.50246 22.6798 5.80467 21.7536 6.13709 20.7984C6.46952 19.7853 6.83217 18.7433 6.4393 17.9039C6.07665 17.0645 5.07938 16.5724 4.11232 16.1093C3.11504 15.6172 2.17821 15.1541 2.17821 14.4305C2.17821 14.4015 2.17821 14.3436 2.14799 14.3147C2.14799 14.2857 2.17821 14.2279 2.17821 14.1989C2.17821 13.5042 3.11504 13.0411 4.11232 12.5201C5.07938 12.057 6.07665 11.5649 6.4393 10.7255C6.80195 9.85716 6.46952 8.81515 6.13709 7.83102C5.80467 6.84689 5.50246 5.92065 5.95577 5.51542C6.4393 5.0523 7.37614 5.28386 8.37341 5.54436C9.37069 5.77592 10.3982 6.03643 11.2746 5.68909C12.1208 5.34175 12.6647 4.50234 13.1785 3.66294C13.7527 2.76564 14.2664 1.92624 15.0521 1.92624C15.8379 1.92624 16.3819 2.76564 16.956 3.63399C17.5 4.44445 18.044 5.25491 18.8599 5.60225C19.7363 5.94959 20.7336 5.71803 21.7309 5.51542C22.7282 5.28386 23.665 5.08124 24.1485 5.54436C24.6018 5.94959 24.2392 6.87583 23.8765 7.83102C23.4837 8.84409 23.0908 9.88611 23.4837 10.7545C23.8463 11.5939 24.904 12.0859 25.9013 12.578C26.959 13.0701 27.9261 13.5621 27.9261 14.2568C27.9261 14.2857 27.9261 14.3436 27.9563 14.3726C27.9563 14.4015 27.9261 14.4594 27.9261 14.4884C27.9563 15.0673 26.959 15.5593 25.9013 16.0514Z" fill="white" stroke="white" stroke-width="0.8"/>
</svg>
