<svg width="71" height="71" viewBox="0 0 71 71" fill="none" xmlns="http://www.w3.org/2000/svg">
<circle cx="35.5" cy="35.5" r="35.5" fill="#D71407"/>
<path d="M19.3828 56.0005H45.1642V37.0156L40.4767 39.6941L36.3751 37.3503L32.2735 39.6941L28.1719 37.3503L24.0703 39.6941L19.3828 37.0156V56.0005ZM21.7266 41.0542L24.0703 42.3935L28.1719 40.0498L32.2735 42.3935L36.3751 40.0498L40.4767 42.3935L42.8204 41.0542V53.6567H21.7266V41.0542Z" fill="white"/>
<path d="M28.1719 34.6502L32.2735 36.9939L36.3751 34.6502L40.4767 36.9939L45.1642 34.3154V27.7969H52.1955V20.6875C52.1955 18.1028 50.0926 16 47.5079 16H25.2422C22.0113 16 19.3828 18.6285 19.3828 21.8594V34.3154L24.0703 36.9939L28.1719 34.6502ZM49.8517 20.6875V25.4532H45.1642V20.6875C45.1642 19.3952 46.2156 18.3438 47.5079 18.3438C48.8003 18.3438 49.8517 19.3952 49.8517 20.6875ZM21.7266 21.8594C21.7266 19.9209 23.3037 18.3438 25.2422 18.343H43.451C43.0508 19.0338 42.8204 19.834 42.8204 20.6875V32.9552L40.4767 34.2945L36.3751 31.9507L32.2735 34.2945L28.1719 31.9507L24.0703 34.2945L21.7266 32.9552V21.8594Z" fill="white"/>
<path d="M24.0703 23.1094H26.4141V25.4531H24.0703V23.1094Z" fill="white"/>
<path d="M24.0703 27.7969H26.4141V30.1406H24.0703V27.7969Z" fill="white"/>
<path d="M28.7578 23.1094H40.4766V25.4531H28.7578V23.1094Z" fill="white"/>
<path d="M28.7578 27.7969H40.4766V30.1406H28.7578V27.7969Z" fill="white"/>
<path d="M24.0703 44.2031H26.4141V46.5469H24.0703V44.2031Z" fill="white"/>
<path d="M24.0703 48.8906H26.4141V51.2344H24.0703V48.8906Z" fill="white"/>
<path d="M28.7578 44.2031H40.4766V46.5469H28.7578V44.2031Z" fill="white"/>
<path d="M28.7578 48.8906H40.4766V51.2344H28.7578V48.8906Z" fill="white"/>
</svg>
