<svg width="71" height="71" viewBox="0 0 71 71" fill="none" xmlns="http://www.w3.org/2000/svg">
<circle cx="35.5" cy="35.5" r="35.5" fill="#FFAE1F"/>
<path d="M49.7499 32.5057V19.098C49.7499 17.3855 48.3521 15.9922 46.6341 15.9922H18.4672C16.7492 15.9922 15.3513 17.3855 15.3513 19.098V47.1744C15.3513 48.8872 16.7492 50.2802 18.4672 50.2802H36.6063C38.7208 53.1465 42.1265 55.0102 45.9612 55.0102C52.361 55.0102 57.5675 49.8205 57.5675 43.4412C57.5675 38.3837 54.2948 34.0746 49.7499 32.5057ZM29.4908 18.5204H35.6104V25.4991L33.0212 24.4679C32.7191 24.3478 32.3822 24.3478 32.08 24.4679L29.4908 25.4991V18.5204ZM18.4672 47.7519C18.1477 47.7519 17.8877 47.4928 17.8877 47.1744V19.098C17.8877 18.7795 18.1477 18.5204 18.4672 18.5204H26.9547V27.3657C26.9547 27.785 27.1634 28.177 27.5116 28.4123C27.8601 28.6473 28.3026 28.6951 28.6933 28.5394L32.5506 27.0032L36.4082 28.5394C36.5599 28.5998 36.7197 28.6296 36.8785 28.6296C37.1284 28.6296 37.3767 28.5558 37.5899 28.4123C37.9381 28.177 38.1468 27.785 38.1468 27.3657V18.5204H46.6341C46.9536 18.5204 47.2135 18.7795 47.2135 19.098V31.9396C46.8022 31.8953 46.3845 31.8722 45.9612 31.8722C39.5614 31.8722 34.3549 37.062 34.3549 43.4412C34.3549 44.9643 34.6522 46.4189 35.1911 47.7519H18.4672ZM45.9612 52.4819C40.9599 52.4819 36.8913 48.4261 36.8913 43.4412C36.8913 38.456 40.9599 34.4005 45.9612 34.4005C50.9622 34.4005 55.0311 38.456 55.0311 43.4412C55.0311 48.4261 50.9622 52.4819 45.9612 52.4819Z" fill="white"/>
<path d="M50.5779 42.309H47.24V38.9711C47.24 38.2902 46.6881 37.7383 46.0072 37.7383C45.3266 37.7383 44.7747 38.2902 44.7747 38.9711V43.5418C44.7747 44.2224 45.3266 44.7743 46.0072 44.7743H50.5779C51.2588 44.7743 51.8107 44.2224 51.8107 43.5418C51.8107 42.8609 51.2588 42.309 50.5779 42.309Z" fill="white"/>
</svg>
