<svg width="17" height="22" viewBox="0 0 17 22" fill="none" xmlns="http://www.w3.org/2000/svg">
<path d="M8.70833 1C4.45793 1 1 4.45793 1 8.70833C1 11.0989 2.23692 13.8753 4.67641 16.9606C6.46145 19.2181 8.22079 20.7783 8.29481 20.8437C8.53106 21.0521 8.88556 21.0521 9.12185 20.8437C9.19587 20.7783 10.9552 19.2181 12.7402 16.9606C15.1797 13.8753 16.4167 11.0989 16.4167 8.70833C16.4167 4.45793 12.9587 1 8.70833 1V1ZM8.70833 19.5223C7.22298 18.1068 2.25 13.0428 2.25 8.70833C2.25 5.14719 5.14719 2.25 8.70833 2.25C12.2695 2.25 15.1667 5.14719 15.1667 8.70833C15.1667 13.0428 10.1936 18.1069 8.70833 19.5223Z" fill="#333333" stroke="#333333" stroke-width="0.4"/>
<path d="M13.4902 8.33797L9.11524 4.58797C8.88117 4.38734 8.53582 4.38734 8.30176 4.58797L3.92675 8.33797C3.66468 8.56258 3.63433 8.95719 3.85898 9.21926C4.08363 9.48133 4.4782 9.51169 4.74027 9.28704L5.27097 8.83211V11.9375C5.27097 12.2827 5.55082 12.5625 5.89598 12.5625H11.521C11.8661 12.5625 12.146 12.2827 12.146 11.9375V8.83211L12.6767 9.28704C12.94 9.5127 13.3344 9.48016 13.558 9.21926C13.7827 8.95719 13.7523 8.56262 13.4902 8.33797ZM10.896 11.3125H6.52098V7.76067L8.70848 5.88567L10.896 7.76067V11.3125Z" fill="#333333" stroke="#333333" stroke-width="0.4"/>
</svg>
