<svg width="36" height="11" viewBox="0 0 36 11" fill="none" xmlns="http://www.w3.org/2000/svg">
<path d="M35.8684 3.24467C35.5418 2.33566 34.6518 1.68291 33.6064 1.68291H33.5845C32.9049 1.68291 32.2925 1.95825 31.8565 2.40028C31.4198 1.95825 30.8074 1.68291 30.1285 1.68291H30.1067C29.5093 1.68291 28.9632 1.89584 28.5439 2.24829V2.06913C28.5295 1.8907 28.3787 1.75046 28.1924 1.75046H26.5889C26.3928 1.75046 26.2344 1.90465 26.2344 2.09629V10.5733C26.2344 10.7649 26.3928 10.9191 26.5889 10.9191H28.1924C28.3712 10.9191 28.5182 10.7892 28.5416 10.621L28.5409 4.5355C28.5409 4.51421 28.5416 4.49438 28.5439 4.47456C28.5695 4.20288 28.7739 3.97967 29.0967 3.95177H29.1563H29.3245H29.3924C29.5274 3.96351 29.6413 4.00977 29.7311 4.07953C29.8706 4.18746 29.9483 4.3534 29.9483 4.5355L29.9543 10.5909C29.9543 10.7826 30.1135 10.9375 30.3088 10.9375H31.9123C32.1017 10.9375 32.2555 10.7906 32.2646 10.6078L32.2638 4.52742C32.2631 4.32771 32.3581 4.14708 32.5248 4.03988C32.607 3.98848 32.7058 3.95397 32.8197 3.94369H32.8793H33.0475H33.1154C33.4623 3.97306 33.672 4.22931 33.6712 4.52742L33.6773 10.5748C33.6773 10.7664 33.8364 10.9206 34.0318 10.9206H35.6353C35.8306 10.9206 35.9898 10.7664 35.9898 10.5748V4.07071C35.9898 3.62722 35.9385 3.43852 35.8684 3.24467Z" fill="#54C1F0"/>
<path d="M25.0144 1.77237H24.0973V0.325881C24.0973 0.324412 24.0973 0.322945 24.0973 0.321476C24.0973 0.147456 23.9525 0.00647926 23.7737 0.00647926C23.7526 0.00647926 23.7322 0.00941563 23.7126 0.0130873C22.6959 0.284762 22.8995 1.65562 21.0433 1.77237H21.0018H20.8631C20.8359 1.77237 20.8103 1.77604 20.7854 1.78118H20.7839L20.7854 1.78191C20.627 1.81643 20.5078 1.953 20.5078 2.11747V3.6785C20.5078 3.86868 20.667 4.02361 20.8631 4.02361H21.8308L21.8293 10.6429C21.8293 10.8316 21.9861 10.9844 22.18 10.9844H23.7654C23.9585 10.9844 24.1154 10.8316 24.1154 10.6429L24.1161 4.02361H25.0144C25.2098 4.02361 25.3689 3.86868 25.3689 3.6785V2.11747C25.3689 1.9273 25.2098 1.77237 25.0144 1.77237Z" fill="#54C1F0"/>
<path d="M19.244 1.7771H17.6405C17.4451 1.7771 17.2867 1.93203 17.2867 2.1222V5.35C17.283 5.54972 17.117 5.70979 16.9111 5.70979H16.2398C16.0317 5.70979 15.8635 5.54678 15.8635 5.34412L15.8574 2.1222C15.8574 1.93203 15.6983 1.7771 15.5029 1.7771H13.8994C13.7033 1.7771 13.5449 1.93203 13.5449 2.1222V5.65986C13.5449 7.00355 14.5292 7.96176 15.9102 7.96176C15.9102 7.96176 16.9466 7.96176 16.9783 7.96763C17.1653 7.98819 17.3109 8.14092 17.3109 8.32889C17.3109 8.51465 17.1683 8.66664 16.9835 8.68941C16.9745 8.69087 16.9662 8.69308 16.9564 8.69455L14.6114 8.70262C14.4153 8.70262 14.2569 8.85755 14.2569 9.04772V10.608C14.2569 10.7989 14.4153 10.9531 14.6114 10.9531H17.2332C18.615 10.9531 19.5985 9.99565 19.5985 8.65123V2.1222C19.5985 1.93203 19.4401 1.7771 19.244 1.7771Z" fill="#233266"/>
<path d="M3.72337 4.63169V5.36007V5.59504C3.72337 5.79696 3.55517 5.96143 3.34775 5.96143L2.33027 5.96216V4.0318H3.34775C3.55517 4.0318 3.72337 4.1948 3.72337 4.39746V4.63169ZM3.86441 1.77102H0.359426C0.167093 1.77102 0.0117188 1.92301 0.0117188 2.10951V3.63897C0.0117188 3.64191 0.0124729 3.64485 0.0124729 3.64778C0.0124729 3.65512 0.0117188 3.66247 0.0117188 3.66908V8.57466V10.5917C0.0117188 10.7796 0.156534 10.9331 0.336045 10.9375H0.366214H1.96974C2.16509 10.9375 2.32424 10.7833 2.32424 10.5924L2.33027 8.22001H3.86441C5.14814 8.22001 6.04267 7.35285 6.04267 6.098V3.89596C6.04267 2.64111 5.14814 1.77102 3.86441 1.77102Z" fill="#233266"/>
<path d="M10.3771 8.29816V8.54194C10.3771 8.56176 10.3741 8.58085 10.3711 8.59921C10.3673 8.61683 10.3621 8.63372 10.356 8.64987C10.3062 8.78645 10.166 8.88557 9.99927 8.88557H9.33176C9.12359 8.88557 8.95388 8.73138 8.95388 8.54194V8.2475C8.95388 8.24383 8.95313 8.24016 8.95313 8.23649L8.95388 7.45303V7.45156V7.36492V7.20779L8.95464 7.20559C8.95539 7.01688 9.12359 6.86416 9.33176 6.86416H9.99927C10.2082 6.86416 10.3771 7.01762 10.3771 7.20779V8.29816ZM10.1222 1.78162H7.89718C7.70033 1.78162 7.54118 1.927 7.54118 2.10543V2.71266C7.54118 2.71633 7.54193 2.72074 7.54193 2.72441C7.54193 2.72881 7.54118 2.73322 7.54118 2.73763V3.56954C7.54118 3.75824 7.71013 3.91244 7.9183 3.91244H10.037C10.2044 3.93814 10.3372 4.05709 10.356 4.24286V4.44404C10.3372 4.621 10.2059 4.75023 10.046 4.76491H8.99687C7.60152 4.76491 6.60742 5.66732 6.60742 6.93465V8.70347V8.74973C6.60742 10.0097 7.46198 10.9062 8.84753 10.9062H11.7552C12.2771 10.9062 12.7002 10.5215 12.7002 10.0479V4.12464C12.7002 2.68843 11.9399 1.78162 10.1222 1.78162Z" fill="#233266"/>
</svg>
