<svg width="32" height="32" viewBox="0 0 32 32" fill="none" xmlns="http://www.w3.org/2000/svg">
<path d="M16 31.9999C24.8366 31.9999 32 24.8365 32 16C32 7.16343 24.8366 0 16 0C7.16344 0 0 7.16343 0 16C0 24.8365 7.16344 31.9999 16 31.9999Z" fill="#5F259F"/>
<path d="M23.2618 11.8181C23.2618 11.1927 22.7254 10.6563 22.1 10.6563H19.9549L15.0389 5.02524C14.5921 4.48886 13.877 4.31022 13.162 4.48886L11.4638 5.02524C11.1956 5.11479 11.1061 5.47206 11.2852 5.6507L16.648 10.7458H8.51323C8.24504 10.7458 8.06641 10.9245 8.06641 11.1927V12.0863C8.06641 12.7118 8.60279 13.2481 9.22825 13.2481H10.4796V17.5387C10.4796 20.7565 12.1779 22.6338 15.0384 22.6338C15.9321 22.6338 16.6475 22.5443 17.5412 22.187V25.0475C17.5412 25.8521 18.1667 26.4776 18.9712 26.4776H20.2226C20.4908 26.4776 20.759 26.2094 20.759 25.9412V13.1591H22.815C23.0832 13.1591 23.2618 12.9804 23.2618 12.7122V11.8181ZM17.5412 19.5051C17.0048 19.7733 16.2898 19.8629 15.7534 19.8629C14.3234 19.8629 13.6084 19.1478 13.6084 17.5387V13.2481H17.5412V19.5051Z" fill="white"/>
</svg>
