<svg width="19" height="19" viewBox="0 0 19 19" fill="none" xmlns="http://www.w3.org/2000/svg">
<path d="M13.6315 18C14.6948 18 15.6518 17.6807 16.2898 17.0423L17.6013 15.7298C18.1329 15.1977 18.1329 14.3109 17.6013 13.7433L14.8366 10.9765C14.5885 10.7282 14.234 10.5509 13.8442 10.5509C13.4543 10.5509 13.1353 10.6927 12.8517 10.9765L11.8238 12.0052C11.5403 12.289 11.0795 12.3245 10.7251 12.1116C10.0162 11.5795 9.3073 10.9765 8.6693 10.338C8.03131 9.69953 7.42875 8.99009 6.89709 8.28065C6.64898 7.9614 6.68442 7.50026 7.00342 7.18101L8.03131 6.15232C8.27942 5.90402 8.45664 5.5493 8.45664 5.1591C8.45664 4.76891 8.31486 4.44966 8.03131 4.16588L5.26665 1.39906C4.73499 0.86698 3.84889 0.86698 3.28178 1.39906L1.97034 2.71153C-0.156314 4.83985 1.33234 9.77048 5.26665 13.7079C8.03131 16.4392 11.2213 18 13.6315 18ZM2.39567 3.10172L3.70711 1.78925C3.88433 1.61189 4.09699 1.54095 4.30966 1.54095C4.52233 1.54095 4.73499 1.61189 4.91221 1.78925L7.67686 4.55608C7.99586 4.87533 7.99586 5.40741 7.67686 5.76213L6.64898 6.79082C6.15276 7.28743 6.11732 8.06781 6.5072 8.5999C7.03887 9.34481 7.67686 10.0543 8.31486 10.7282C8.9883 11.4022 9.69718 12.0052 10.4415 12.5373C10.9732 12.9275 11.753 12.892 12.2492 12.3954L13.2771 11.3667C13.5961 11.0475 14.1277 11.0475 14.4822 11.3667L17.2468 14.1335C17.5658 14.4528 17.5658 14.9849 17.2468 15.3396L15.9354 16.6521C14.0214 18.5676 9.44908 17.0777 5.72743 13.3532C2.00578 9.59311 0.517126 5.01721 2.39567 3.10172Z" fill="#3D857E" stroke="#3D857E" stroke-width="1.2"/>
</svg>
