<svg width="24" height="20" viewBox="0 0 24 20" fill="none" xmlns="http://www.w3.org/2000/svg">
<path d="M23.9995 9.382L23.8681 9.24674L19.8623 5.1187H16.5355V0.9375H11.9611H4.91419H0.462891V13.2166H0.769728V16.7059H2.54679C2.75596 18.0642 3.92972 19.1092 5.34636 19.1092C6.76299 19.1092 7.93675 18.0642 8.14592 16.7059H15.7918H16.2239H16.4456C16.6544 18.0642 17.8281 19.1092 19.2448 19.1092C20.6614 19.1092 21.8347 18.0642 22.0439 16.7059H23.9999V9.382H23.9995ZM23.1308 9.7273V10.8916H19.132V8.12916H21.5802L23.1308 9.7273ZM11.0967 1.80226V5.11913H5.77852V1.80226H11.0967ZM1.32722 1.80226H4.91419V5.98346H11.9611V1.80226H15.6716V12.3527H1.32722V1.80226ZM1.63406 13.217H15.3601V15.842H8.14592C7.93675 14.4833 6.76299 13.4383 5.34636 13.4383C3.92972 13.4383 2.75596 14.4833 2.54679 15.842H1.63406V13.217ZM5.34636 18.2448C4.25903 18.2448 3.37439 17.3606 3.37439 16.2737C3.37439 15.1864 4.25903 14.3022 5.34636 14.3022C6.43368 14.3022 7.31832 15.1864 7.31832 16.2737C7.31789 17.3611 6.43325 18.2448 5.34636 18.2448ZM19.2448 18.2448C18.1575 18.2448 17.2732 17.3606 17.2732 16.2737C17.2732 15.1864 18.1575 14.3022 19.2448 14.3022C20.3321 14.3022 21.2163 15.1864 21.2163 16.2737C21.2159 17.3611 20.3317 18.2448 19.2448 18.2448ZM22.0435 15.842C21.8347 14.4833 20.661 13.4383 19.2444 13.4383C17.8277 13.4383 16.6544 14.4833 16.4452 15.842H16.2235V13.217H16.5355V5.98303H19.4972L20.7414 7.26526H18.2672V11.7563H23.1351V15.842H22.0435Z" fill="#044236"/>
</svg>
