<svg width="24" height="24" viewBox="0 0 24 24" fill="none" xmlns="http://www.w3.org/2000/svg">
<path d="M6.17 18.0005C6.3766 17.415 6.75974 16.9079 7.2666 16.5493C7.77346 16.1906 8.37909 15.998 9 15.998C9.62091 15.998 10.2265 16.1906 10.7334 16.5493C11.2403 16.9079 11.6234 17.415 11.83 18.0005H22V20.0005H11.83C11.6234 20.586 11.2403 21.0931 10.7334 21.4517C10.2265 21.8104 9.62091 22.0029 9 22.0029C8.37909 22.0029 7.77346 21.8104 7.2666 21.4517C6.75974 21.0931 6.3766 20.586 6.17 20.0005H2V18.0005H6.17ZM12.17 11.0005C12.3766 10.415 12.7597 9.90793 13.2666 9.54929C13.7735 9.19064 14.3791 8.99805 15 8.99805C15.6209 8.99805 16.2265 9.19064 16.7334 9.54929C17.2403 9.90793 17.6234 10.415 17.83 11.0005H22V13.0005H17.83C17.6234 13.586 17.2403 14.0931 16.7334 14.4517C16.2265 14.8104 15.6209 15.0029 15 15.0029C14.3791 15.0029 13.7735 14.8104 13.2666 14.4517C12.7597 14.0931 12.3766 13.586 12.17 13.0005H2V11.0005H12.17ZM6.17 4.0005C6.3766 3.41496 6.75974 2.90793 7.2666 2.54929C7.77346 2.19064 8.37909 1.99805 9 1.99805C9.62091 1.99805 10.2265 2.19064 10.7334 2.54929C11.2403 2.90793 11.6234 3.41496 11.83 4.0005H22V6.0005H11.83C11.6234 6.58603 11.2403 7.09306 10.7334 7.45171C10.2265 7.81035 9.62091 8.00295 9 8.00295C8.37909 8.00295 7.77346 7.81035 7.2666 7.45171C6.75974 7.09306 6.3766 6.58603 6.17 6.0005H2V4.0005H6.17Z" fill="black"/>
</svg>
