<svg width="12" height="12" viewBox="0 0 12 12" fill="none" xmlns="http://www.w3.org/2000/svg">
<path d="M5.20455 5.37273H1.22727C0.880839 5.37273 0.6 5.65357 0.6 6C0.6 6.34643 0.88084 6.62727 1.22727 6.62727H5.20455C5.29743 6.62727 5.37273 6.70257 5.37273 6.79545L5.37273 10.7727C5.37273 11.1192 5.65357 11.4 6 11.4C6.34643 11.4 6.62727 11.1192 6.62727 10.7727L6.62727 6.79545C6.62727 6.70257 6.70257 6.62727 6.79545 6.62727L10.7727 6.62727C11.1192 6.62727 11.4 6.34643 11.4 6C11.4 5.65357 11.1192 5.37273 10.7727 5.37273L6.79545 5.37273C6.70257 5.37273 6.62727 5.29743 6.62727 5.20455V1.22727C6.62727 0.88084 6.34643 0.6 6 0.6C5.65357 0.6 5.37273 0.880839 5.37273 1.22727V5.20455C5.37273 5.29743 5.29743 5.37273 5.20455 5.37273Z" fill="white" stroke="white" stroke-width="0.3"/>
</svg>
