<svg width="142" height="142" viewBox="0 0 142 142" fill="none" xmlns="http://www.w3.org/2000/svg">
<path d="M97.0547 0.450558C93.4593 1.20323 90.9426 4.21391 90.9426 8.3536C90.9426 12.117 92.3807 14.375 96.3357 15.8803C126.896 27.923 144.873 60.6642 134.447 91.1474C125.099 118.244 100.291 137.813 71.1679 137.813C42.0453 137.813 17.237 118.244 7.88903 91.1474C-2.53761 60.6642 15.4394 27.923 46.0002 15.8803C49.9551 14.375 51.3933 11.7406 51.3933 8.3536C51.3933 4.59025 48.8765 1.20323 45.2811 0.450558C34.8545 -1.43112 -0.0208421 24.1597 0.338697 67.8146C0.698236 109.211 32.6972 141.576 71.1679 141.576C109.998 141.576 141.638 109.211 141.997 67.8146C142.357 24.1597 107.481 -1.43112 97.0547 0.450558Z" fill="#144236"/>
<path d="M132.647 85.5039C126.535 76.0955 117.547 67.0635 104.963 61.0421C102.086 59.5368 101.008 58.0314 101.008 55.0207C101.008 51.6337 103.525 48.623 107.12 48.623C113.951 48.9994 128.692 67.8161 132.647 85.5039Z" fill="#144236"/>
<path d="M102.447 24.5391C98.4916 24.5391 95.6152 27.9261 95.6152 31.6894C95.6152 34.7001 96.6939 36.9581 99.9297 38.4635C117.547 46.7428 127.974 61.4199 133.726 78.355C136.962 49.0009 111.795 24.9154 102.447 24.5391Z" fill="#144236"/>
<path d="M9.68555 85.502C15.7977 76.0936 24.7862 67.0615 37.3701 61.0402C40.2464 59.5348 41.325 58.0295 41.325 55.0188C41.325 51.6318 38.8083 48.6211 35.2129 48.6211C28.3816 48.9974 13.6405 67.8142 9.68555 85.502Z" fill="#144236"/>
<path d="M39.8894 24.5371C43.8444 24.5371 46.7207 27.9241 46.7207 31.6875C46.7207 34.6982 45.6421 36.9562 42.4062 38.4615C24.7888 46.7409 14.3621 61.418 8.60947 78.3531C5.37361 48.9989 30.5414 24.9134 39.8894 24.5371Z" fill="#144236"/>
</svg>
