<svg width="296" height="297" viewBox="0 0 296 297" fill="none" xmlns="http://www.w3.org/2000/svg">
<path d="M50.2985 58.5234H162.966C191.857 60.4375 191.727 92.1813 191.727 92.1813V243.861H78.929V92.1813C78.929 92.1813 78.3921 60.3239 50.2985 58.5234Z" fill="#044236"/>
<path d="M198.283 94.0977H199.584V210.838H198.283V94.0977Z" fill="#D6CD56"/>
<path d="M69.5428 40.7282H138.354V2.70703H69.5428V40.7282ZM137.052 39.4305H70.8442V4.00468H137.052V39.4305Z" fill="#D6CD56"/>
<path d="M198.283 80.3569H267.094V32.5547H198.283V80.3569ZM265.792 79.0593H199.584V33.8523H265.792V79.0593Z" fill="#D6CD56"/>
<path d="M3.30263 156.592H72.1133V118.441H3.30263V156.592ZM70.8119 155.295H4.60401V119.739H70.8119V155.295Z" fill="#D6CD56"/>
<path d="M54.8044 56.4648C82.8981 58.2816 83.4349 90.1227 83.4349 90.1227V241.802H196.232V90.1227C196.232 90.1227 196.363 58.3789 167.472 56.4648H54.8044Z" fill="url(#paint0_linear)"/>
<path d="M103.933 96.0898H181.414V102.903H103.933V96.0898Z" fill="white"/>
<path d="M115.255 111.84H181.414V116.674H115.255V111.84Z" fill="white"/>
<path d="M148.164 124.59H181.414V131.759H148.164V124.59Z" fill="white"/>
<path d="M103.949 124.59H138.338V131.759H103.949V124.59Z" fill="white"/>
<path d="M128.431 138.41H181.414V143.52H128.431V138.41Z" fill="white"/>
<path d="M121.713 151.191H181.414V154.03H121.713V151.191Z" fill="white"/>
<path d="M109.626 163.973H181.414V166.811H109.626V163.973Z" fill="white"/>
<path d="M147.92 192.619H181.658V176.512H147.92V192.619ZM181.17 192.132H148.408V176.998H181.17V192.132Z" fill="white"/>
<path d="M109.642 176.742H139.834V180.44H109.642V176.742Z" fill="white"/>
<path d="M118.426 184.559H139.834V188.257H118.426V184.559Z" fill="white"/>
<path d="M116.865 202.305H181.414V205.143H116.865V202.305Z" fill="white"/>
<path d="M147.415 215.086H181.414V217.925H147.415V215.086Z" fill="white"/>
<path d="M54.3821 141.962L57.7169 136.528C57.9934 136.09 57.847 135.506 57.4078 135.23C56.9686 134.954 56.383 135.1 56.1064 135.538L53.7477 139.382L47.501 135.684C47.0455 135.425 46.4762 135.571 46.1996 136.009C45.9393 136.463 46.0857 137.03 46.525 137.306L54.3821 141.962Z" fill="#D6CD56"/>
<path d="M52.1529 150.333C58.7574 150.333 64.1094 144.98 64.1094 138.41C64.1094 131.825 58.7412 126.488 52.1529 126.488C45.5484 126.488 40.1965 131.841 40.1965 138.41C40.1802 144.98 45.5484 150.333 52.1529 150.333ZM52.1529 128.175C57.8139 128.175 62.4013 132.766 62.4013 138.394C62.4013 144.039 57.7977 148.613 52.1529 148.613C46.4919 148.613 41.9046 144.023 41.9046 138.394C41.8883 132.766 46.4919 128.175 52.1529 128.175Z" fill="#D6CD56"/>
<path d="M204.888 46.1641H231.908V49.9921H204.888V46.1641Z" fill="#DED4CE"/>
<path d="M210.663 54.5508H231.908V58.3789H210.663V54.5508Z" fill="#DED4CE"/>
<path d="M208.077 62.918H231.908V66.746H208.077V62.918Z" fill="#DED4CE"/>
<path d="M15.9094 131.402H35.2188V135.23H15.9094V131.402Z" fill="#DED4CE"/>
<path d="M13.5507 139.789H35.2188V143.617H13.5507V139.789Z" fill="#DED4CE"/>
<path d="M76.8797 11.418H101.443V15.246H76.8797V11.418Z" fill="#DED4CE"/>
<path d="M82.134 19.8047H101.443V23.6328H82.134V19.8047Z" fill="#DED4CE"/>
<path d="M79.7753 28.1758H101.443V32.0039H79.7753V28.1758Z" fill="#DED4CE"/>
<path d="M54.1545 181.947H75.0254V180.649H55.4558V157.438H54.1545V181.947Z" fill="#DED4CE"/>
<path d="M154.279 54.1919H155.58V47.4278H110.292V42.6914H108.991V48.7255H154.279V54.1919Z" fill="#DED4CE"/>
<path d="M204.886 133.837H228.637V82.7422H227.335V132.54H204.886V133.837Z" fill="#DED4CE"/>
<path d="M75.0087 113.088H76.3101V97.6462C76.3263 97.3867 77.9856 67.7678 52.9176 63.4531L52.6898 64.7346C76.6192 68.8546 75.025 97.3218 75.0087 97.5976V113.088Z" fill="#D6CD56"/>
<path d="M-0.000429153 142.775H1.30096V116.579H29.4922V115.281H-0.000429153V142.775Z" fill="#D6CD56"/>
<path d="M243.994 84.2676H270.77V59.1094H269.468V82.9699H243.994V84.2676Z" fill="#D6CD56"/>
<path d="M140.16 19.8054H141.461V0H108.243V1.29765H140.16V19.8054Z" fill="#D6CD56"/>
<path d="M74.3757 248.323H98.7441V247.025H75.6771V210.172H74.3757V248.323Z" fill="#D6CD56"/>
<path opacity="0.24" d="M110.082 161.687C125.991 134.355 161.129 125.061 188.539 140.941C191.288 142.53 193.859 144.315 196.234 146.277V159.4C192.801 155.377 188.637 151.873 183.806 149.067C160.901 135.799 131.539 143.569 118.232 166.407C114.149 173.415 112.05 181.038 111.774 188.613C111.758 189.213 111.741 189.797 111.741 190.381C111.741 206.862 120.298 222.92 135.638 231.793C156.021 243.585 181.512 238.751 196.25 221.46V234.599C192.785 237.454 189.011 239.854 185.042 241.801H134.418C133.23 241.217 132.075 240.6 130.904 239.919C103.478 224.039 94.1563 189.019 110.082 161.687Z" fill="#3F444F"/>
<path d="M285.9 296.985L214.645 237.773L224.736 225.699L295.991 284.911L285.9 296.985Z" fill="#D6CD56"/>
<path d="M215.87 236.32L212.059 233.152L219.724 223.981L223.535 227.149L215.87 236.32Z" fill="#B8AE30"/>
<path d="M224.197 219.173C208.271 246.505 173.15 255.799 145.74 239.919C118.329 224.039 109.008 189.019 124.934 161.687C140.843 134.355 175.981 125.061 203.391 140.941C230.802 156.805 240.123 191.841 224.197 219.173ZM216.047 214.453C223.107 202.336 224.23 188.402 220.293 176.01C216.828 165.061 209.394 155.296 198.641 149.084C175.737 135.815 146.374 143.585 133.068 166.423C128.985 173.431 126.886 181.054 126.609 188.629C125.975 205.726 134.58 222.612 150.457 231.809C173.378 245.061 202.741 237.291 216.047 214.453Z" fill="#494F5C"/>
<path opacity="0.3" d="M220.293 175.993C220.293 175.993 170.336 138.167 126.61 188.613C126.886 181.038 128.985 173.414 133.068 166.407C146.391 143.568 175.753 135.799 198.657 149.067C209.41 155.296 216.828 165.044 220.293 175.993Z" fill="#C2C2C2"/>
<defs>
<linearGradient id="paint0_linear" x1="95.792" y1="218.824" x2="174.453" y2="33.3313" gradientUnits="userSpaceOnUse">
<stop stop-color="#044236"/>
<stop offset="1" stop-color="#24927C"/>
</linearGradient>
</defs>
</svg>
