<svg width="22" height="22" viewBox="0 0 22 22" fill="none" xmlns="http://www.w3.org/2000/svg">
<path d="M18.6326 1.00001C18.7359 1.02066 18.8256 1.0992 18.8598 1.19887L20.981 6.95645C20.9934 6.9897 20.9998 7.02514 21 7.06061V10.3939C21.0022 10.554 20.8571 10.7013 20.6969 10.7013C20.5368 10.7013 20.3916 10.554 20.3939 10.3939V7.36364H1.60605V20.3939H20.3939V13.7273H12.2121V15.5455C12.2113 15.7603 11.9302 15.9153 11.7481 15.8011L8.41475 13.6799C8.24361 13.571 8.24361 13.2775 8.41475 13.1686L11.7481 11.0474C11.8137 11.0026 11.8973 10.9852 11.9754 11C12.1109 11.0304 12.2154 11.1642 12.2121 11.303V13.1212H20.6969C20.8556 13.1212 21 13.2656 21 13.4242V20.697C21 20.8556 20.8556 21 20.6969 21H1.30302C1.14436 21 1 20.8556 0.999989 20.697V7.06061C0.999939 7.0351 1.00313 7.00958 1.00946 6.98486L2.52461 1.21781C2.5614 1.0923 2.68738 0.99883 2.81817 1.00001C8.08833 1.00001 13.3665 1.00001 18.6326 1.00001ZM18.3674 1.60607H11.606V6.75758H20.2613L18.3674 1.60607ZM11 1.60607H3.05491L1.70074 6.75758H11V1.60607ZM11.606 11.8523L9.13445 13.4242L11.606 14.9962V11.8523Z" fill="#3D857E" stroke="#3D857E"/>
</svg>
