<svg width="24" height="24" viewBox="0 0 24 24" fill="none" xmlns="http://www.w3.org/2000/svg">
<circle cx="12" cy="12" r="12" fill="#FFC107"/>
<path d="M11.0978 11.504C10.7893 11.1932 10.4797 10.8823 10.1712 10.5704C9.68124 10.0781 9.19247 9.58474 8.70255 9.09251C8.58932 8.97812 8.47608 8.86488 8.36284 8.75049C8.36284 8.8048 8.36284 8.8591 8.36284 8.91341C8.67251 8.60605 8.98218 8.2987 9.29069 7.99134C9.78061 7.50489 10.2705 7.01844 10.7593 6.53199C10.8714 6.4199 10.9846 6.30782 11.0967 6.1969C11.2018 6.09175 11.0389 5.92883 10.9338 6.03398C10.6241 6.34133 10.3144 6.64869 10.0059 6.95604C9.516 7.4425 9.02608 7.92895 8.53732 8.4154C8.42524 8.52748 8.312 8.63956 8.19992 8.75049C8.15602 8.7944 8.15602 8.8695 8.19992 8.91341C8.50843 9.22423 8.8181 9.53505 9.12661 9.84703C9.61653 10.3393 10.1053 10.8326 10.5952 11.3249C10.7084 11.4393 10.8217 11.5525 10.9349 11.6669C11.0401 11.7732 11.203 11.6091 11.0978 11.504Z" fill="white" stroke="white" stroke-width="1.2" stroke-linejoin="round"/>
<path d="M8.28984 8.94745C8.6723 8.94745 9.05591 8.94861 9.43837 8.94861C10.1629 8.94976 10.8862 8.95092 11.6107 8.95092C12.0393 8.95092 12.4669 8.95207 12.8955 8.95207C13.8257 8.95323 14.7212 9.33569 15.3648 10.0082C16.0581 10.7315 16.3989 11.7368 16.2938 12.7316C16.1898 13.7126 15.634 14.6231 14.8194 15.1766C14.4081 15.4562 13.9412 15.6446 13.4502 15.7254C13.2295 15.7624 13.0076 15.7682 12.7846 15.7682C12.2727 15.7682 11.7597 15.7682 11.2478 15.7682C10.521 15.7682 9.7931 15.7682 9.06631 15.7682C8.59026 15.7682 8.11421 15.7682 7.63931 15.7682C7.6162 15.7682 7.59193 15.7682 7.56882 15.7682C7.41977 15.7682 7.41977 15.9993 7.56882 15.9993C7.91778 15.9993 8.26788 15.9993 8.61683 15.9993C9.339 15.9993 10.06 15.9993 10.7822 15.9993C11.3853 15.9993 11.9885 15.9993 12.5928 15.9993C12.6968 15.9993 12.8008 15.9993 12.9048 15.9993C13.4167 15.9981 13.9216 15.8895 14.3884 15.6804C15.3243 15.2633 16.0558 14.4417 16.3712 13.4677C16.6947 12.4682 16.5572 11.3474 16.0038 10.4553C15.463 9.5818 14.556 8.95323 13.5426 8.77529C13.0746 8.69325 12.5893 8.71751 12.1156 8.71751C11.4027 8.71636 10.6886 8.7152 9.97567 8.7152C9.44184 8.71405 8.90917 8.71405 8.37534 8.71289C8.34761 8.71289 8.31872 8.71289 8.29099 8.71289C8.14194 8.71636 8.14194 8.94745 8.28984 8.94745Z" fill="white" stroke="white" stroke-width="1.2" stroke-linejoin="round"/>
</svg>
