<svg width="476" height="295" viewBox="0 0 476 295" fill="none" xmlns="http://www.w3.org/2000/svg">
<path d="M431.601 259.797C453.192 254.085 470.768 241.545 474.862 218.12C480.243 187.334 465.761 165.292 447.568 142.755C435.506 127.812 432.499 113.392 435.51 95.2068C439.888 68.7625 446.229 44.1165 426.502 21.7934C413.439 7.01211 393.368 -0.666029 373.773 0.0453373C345.536 1.07357 327.58 20.165 303.484 31.5658C280.804 42.2971 252.746 50.0193 227.855 43.275C197.287 34.9904 175.946 7.64373 142.887 5.87896C129.048 5.14031 114.33 9.52392 103.949 19.0214C93.0077 29.0288 88.2086 44.5047 72.8629 49.4548C65.7723 51.7421 58.1004 50.8377 50.714 51.7652C20.675 55.534 9.40231 85.3673 13.4271 112.137C19.1936 150.49 29.8368 188.217 44.5971 224.067C48.8317 234.353 53.4902 244.615 60.3919 253.338C76.6358 273.865 98.7826 273.218 122.81 273.491C152.815 273.831 182.789 272.138 212.769 271.195C255.791 269.842 298.802 268.111 341.793 265.993C370.298 264.587 403.759 267.16 431.601 259.797Z" fill="#F1F9F8"/>
<path d="M368.42 101.256C368.458 99.9846 370.074 98.9375 372.055 98.9375H446.931C448.939 98.9375 450.91 100.039 450.91 101.328V216.525C450.91 217.144 450.353 217.74 449.669 218.176C448.985 218.615 447.972 218.858 447.007 218.858L368.721 218.722C367.747 218.72 366.792 218.468 366.112 218.021C365.43 217.574 365.046 216.957 365.065 216.332L368.42 101.256Z" fill="#C8E5E2"/>
<g opacity="0.5">
<g opacity="0.5">
<path opacity="0.5" d="M423.564 112.513L444.895 112.496L445.065 105.477H423.713L423.564 112.513Z" fill="white"/>
<path opacity="0.5" d="M399.654 112.51L420.964 112.492L421.109 105.477H399.78L399.654 112.51Z" fill="white"/>
<path opacity="0.5" d="M375.77 112.506L397.056 112.487L397.18 105.477H375.87L375.77 112.506Z" fill="white"/>
</g>
<g opacity="0.5">
<path opacity="0.5" d="M423.299 125.112L444.592 125.12L444.762 118.147L423.446 118.141L423.299 125.112Z" fill="white"/>
<path opacity="0.5" d="M399.432 125.103L420.703 125.112L420.848 118.143L399.555 118.137L399.432 125.103Z" fill="white"/>
<path opacity="0.5" d="M375.586 125.091L396.837 125.102L396.96 118.135L375.689 118.129L375.586 125.091Z" fill="white"/>
</g>
<g opacity="0.5">
<path opacity="0.5" d="M423.031 137.628L444.288 137.642L444.456 130.692L423.18 130.68L423.031 137.628Z" fill="white"/>
<path opacity="0.5" d="M399.205 137.61L420.441 137.624L420.586 130.678L399.329 130.668L399.205 137.61Z" fill="white"/>
<path opacity="0.5" d="M375.402 137.594L396.617 137.608L396.739 130.667L375.505 130.656L375.402 137.594Z" fill="white"/>
</g>
<g opacity="0.5">
<path opacity="0.5" d="M422.768 150.098L443.987 150.119L444.155 143.193L422.914 143.176L422.768 150.098Z" fill="white"/>
<path opacity="0.5" d="M398.984 150.075L420.183 150.096L420.325 143.173L399.108 143.156L398.984 150.075Z" fill="white"/>
<path opacity="0.5" d="M375.223 150.053L396.398 150.072L396.52 143.154L375.323 143.137L375.223 150.053Z" fill="white"/>
</g>
<g opacity="0.5">
<path opacity="0.5" d="M422.502 162.523L443.686 162.548L443.851 155.646L422.649 155.625L422.502 162.523Z" fill="white"/>
<path opacity="0.5" d="M398.76 162.491L419.92 162.516L420.065 155.619L398.881 155.598L398.76 162.491Z" fill="white"/>
<path opacity="0.5" d="M375.039 162.465L396.179 162.491L396.3 155.595L375.14 155.574L375.039 162.465Z" fill="white"/>
</g>
<g opacity="0.5">
<path opacity="0.5" d="M422.24 174.906L443.386 174.937L443.552 168.061L422.387 168.031L422.24 174.906Z" fill="white"/>
<path opacity="0.5" d="M398.537 174.868L419.662 174.9L419.805 168.025L398.661 167.996L398.537 174.868Z" fill="white"/>
<path opacity="0.5" d="M374.859 174.835L395.963 174.866L396.083 167.996L374.96 167.969L374.859 174.835Z" fill="white"/>
</g>
<g opacity="0.5">
<path opacity="0.5" d="M421.979 187.244L443.089 187.282L443.254 180.428L422.125 180.395L421.979 187.244Z" fill="white"/>
<path opacity="0.5" d="M398.318 187.207L419.405 187.242L419.548 180.393L398.44 180.359L398.318 187.207Z" fill="white"/>
<path opacity="0.5" d="M374.68 187.165L395.748 187.201L395.867 180.354L374.78 180.32L374.68 187.165Z" fill="white"/>
</g>
<g opacity="0.5">
<path opacity="0.5" d="M421.717 199.545L442.789 199.587L442.955 192.757L421.862 192.719L421.717 199.545Z" fill="white"/>
<path opacity="0.5" d="M398.098 199.496L419.149 199.538L419.292 192.712L398.219 192.672L398.098 199.496Z" fill="white"/>
<path opacity="0.5" d="M374.498 199.451L395.531 199.493L395.65 192.669L374.599 192.629L374.498 199.451Z" fill="white"/>
</g>
<g opacity="0.5">
<path opacity="0.5" d="M421.457 211.799L442.494 211.845L442.657 205.04L421.602 204.996L421.457 211.799Z" fill="white"/>
<path opacity="0.5" d="M397.877 211.746L418.893 211.792L419.035 204.989L397.999 204.945L397.877 211.746Z" fill="white"/>
<path opacity="0.5" d="M374.32 211.695L395.315 211.741L395.435 204.942L374.419 204.898L374.32 211.695Z" fill="white"/>
</g>
</g>
<path d="M216.622 113.989C216.647 113.267 217.732 112.688 219.062 112.688H299.782C301.132 112.688 302.563 113.286 302.563 114.016V216.123C302.563 216.669 301.992 217.191 301.281 217.577C300.567 217.963 299.516 218.177 298.511 218.177L216.907 218.056C215.891 218.054 214.899 217.831 214.188 217.439C213.476 217.046 213.077 216.513 213.096 215.961L216.622 113.989Z" fill="#C8E5E2"/>
<g opacity="0.51">
<path opacity="0.51" d="M262.979 119.926L289.383 119.876L289.373 118.086L262.997 118.13L262.979 119.926Z" fill="white"/>
<path opacity="0.51" d="M262.906 126.52L289.42 126.455L289.411 124.648L262.927 124.709L262.906 126.52Z" fill="white"/>
<path opacity="0.51" d="M262.832 133.173L289.457 133.091L289.446 131.27L262.853 131.347L262.832 133.173Z" fill="white"/>
<path opacity="0.51" d="M262.758 139.876L289.492 139.778L289.481 137.941L262.779 138.036L262.758 139.876Z" fill="white"/>
<path opacity="0.51" d="M262.686 146.638L289.531 146.523L289.52 144.672L262.707 144.783L262.686 146.638Z" fill="white"/>
<path opacity="0.51" d="M262.533 160.332L289.605 160.183L289.595 158.301L262.554 158.446L262.533 160.332Z" fill="white"/>
<path opacity="0.51" d="M262.305 181.31L289.721 181.106L289.708 179.176L262.326 179.375L262.305 181.31Z" fill="white"/>
<path opacity="0.51" d="M262.609 153.457L289.568 153.325L289.557 151.457L262.63 151.585L262.609 153.457Z" fill="white"/>
<path opacity="0.51" d="M262.457 167.264L289.642 167.096L289.632 165.199L262.478 165.363L262.457 167.264Z" fill="white"/>
<path opacity="0.51" d="M262.383 174.255L289.681 174.07L289.671 172.156L262.404 172.337L262.383 174.255Z" fill="white"/>
<path opacity="0.51" d="M262.227 188.42L289.758 188.197L289.747 186.25L262.248 186.468L262.227 188.42Z" fill="white"/>
<path opacity="0.51" d="M262.148 195.592L289.799 195.351L289.789 193.387L262.169 193.624L262.148 195.592Z" fill="white"/>
<path opacity="0.51" d="M262.066 202.827L289.837 202.567L289.826 200.586L262.089 200.842L262.066 202.827Z" fill="white"/>
<path opacity="0.51" d="M261.988 210.124L289.878 209.845L289.868 207.848L262.009 208.123L261.988 210.124Z" fill="white"/>
<path opacity="0.51" d="M228.357 119.989L254.928 119.941L254.957 118.145L228.416 118.189L228.357 119.989Z" fill="white"/>
<path opacity="0.51" d="M228.143 126.609L254.824 126.541L254.853 124.73L228.203 124.793L228.143 126.609Z" fill="white"/>
<path opacity="0.51" d="M227.926 133.279L254.716 133.197L254.746 131.371L227.985 131.449L227.926 133.279Z" fill="white"/>
<path opacity="0.51" d="M227.705 140.007L254.609 139.909L254.638 138.066L227.766 138.161L227.705 140.007Z" fill="white"/>
<path opacity="0.51" d="M227.484 146.789L254.502 146.671L254.531 144.816L227.545 144.928L227.484 146.789Z" fill="white"/>
<path opacity="0.51" d="M227.039 160.528L254.283 160.377L254.312 158.488L227.1 158.635L227.039 160.528Z" fill="white"/>
<path opacity="0.51" d="M226.354 181.576L253.948 181.37L253.979 179.434L226.416 179.635L226.354 181.576Z" fill="white"/>
<path opacity="0.51" d="M227.264 153.631L254.394 153.497L254.424 151.625L227.325 151.753L227.264 153.631Z" fill="white"/>
<path opacity="0.51" d="M226.812 167.483L254.172 167.316L254.203 165.41L226.873 165.574L226.812 167.483Z" fill="white"/>
<path opacity="0.51" d="M226.584 174.501L254.061 174.315L254.092 172.395L226.647 172.577L226.584 174.501Z" fill="white"/>
<path opacity="0.51" d="M226.119 188.713L253.833 188.489L253.865 186.535L226.184 186.755L226.119 188.713Z" fill="white"/>
<path opacity="0.51" d="M225.885 195.909L253.716 195.666L253.748 193.695L225.948 193.935L225.885 195.909Z" fill="white"/>
<path opacity="0.51" d="M225.65 203.171L253.604 202.909L253.635 200.922L225.715 201.178L225.65 203.171Z" fill="white"/>
<path opacity="0.51" d="M225.41 210.492L253.485 210.211L253.519 208.207L225.475 208.484L225.41 210.492Z" fill="white"/>
</g>
<path d="M292.967 35.9353C293.009 33.6627 294.851 31.793 297.107 31.793H382.412C384.7 31.793 386.945 33.7592 386.945 36.0633V241.904C386.945 243.012 386.311 244.074 385.533 244.857C384.754 245.639 383.6 246.076 382.498 246.074L293.307 245.828C292.197 245.826 291.11 245.373 290.333 244.575C289.557 243.776 289.118 242.672 289.139 241.556L292.967 35.9353Z" fill="#D6ECE9"/>
<g opacity="0.5">
<g opacity="0.5">
<path opacity="0.5" d="M355.791 56.0524L380.093 56.0188L380.286 43.4766H355.961L355.791 56.0524Z" fill="#7AC7BC"/>
<path opacity="0.5" d="M328.553 56.0461L352.832 56.0125L352.997 43.4766H328.695L328.553 56.0461Z" fill="#7AC7BC"/>
<path opacity="0.5" d="M301.342 56.0398L325.593 56.0063L325.734 43.4766H301.457L301.342 56.0398Z" fill="#7AC7BC"/>
</g>
<g opacity="0.5">
<path opacity="0.5" d="M355.488 78.5635L379.746 78.5803L379.939 66.1199L355.656 66.1094L355.488 78.5635Z" fill="#7AC7BC"/>
<path opacity="0.5" d="M328.295 78.5455L352.532 78.5602L352.698 66.1061L328.438 66.0977L328.295 78.5455Z" fill="#7AC7BC"/>
<g opacity="0.5">
<path opacity="0.5" d="M301.131 78.5296L325.342 78.5443L325.481 66.0964L301.246 66.0859L301.131 78.5296Z" fill="#7AC7BC"/>
</g>
</g>
<g opacity="0.5">
<path opacity="0.5" d="M355.186 100.922L379.403 100.949L379.594 88.5306L355.356 88.5117L355.186 100.922Z" fill="#7AC7BC"/>
<path opacity="0.5" d="M328.043 100.894L352.236 100.919L352.399 88.5072L328.184 88.4883L328.043 100.894Z" fill="#7AC7BC"/>
<path opacity="0.5" d="M300.924 100.864L325.091 100.89L325.232 88.4858L301.039 88.4648L300.924 100.864Z" fill="#7AC7BC"/>
</g>
<g opacity="0.5">
<path opacity="0.5" d="M354.885 123.204L379.059 123.24L379.25 110.865L355.053 110.836L354.885 123.204Z" fill="#7AC7BC"/>
<path opacity="0.5" d="M327.787 123.167L351.938 123.202L352.104 110.834L327.93 110.805L327.787 123.167Z" fill="#7AC7BC"/>
<path opacity="0.5" d="M300.717 123.127L324.844 123.161L324.981 110.799L300.832 110.77L300.717 123.127Z" fill="#7AC7BC"/>
</g>
<g opacity="0.5">
<path opacity="0.5" d="M354.584 145.408L378.716 145.452L378.907 133.122L354.75 133.082L354.584 145.408Z" fill="#7AC7BC"/>
<path opacity="0.5" d="M327.533 145.357L351.642 145.401L351.806 133.075L327.674 133.035L327.533 145.357Z" fill="#7AC7BC"/>
<path opacity="0.5" d="M300.508 145.306L324.594 145.352L324.732 133.032L300.623 132.992L300.508 145.306Z" fill="#7AC7BC"/>
</g>
<g opacity="0.5">
<path opacity="0.5" d="M354.285 167.534L378.375 167.589L378.566 155.3L354.451 155.25L354.285 167.534Z" fill="#7AC7BC"/>
<path opacity="0.5" d="M327.281 167.473L351.348 167.528L351.512 155.246L327.422 155.195L327.281 167.473Z" fill="#7AC7BC"/>
<path opacity="0.5" d="M300.303 167.412L324.347 167.467L324.485 155.189L300.418 155.141L300.303 167.412Z" fill="#7AC7BC"/>
</g>
<g opacity="0.5">
<path opacity="0.5" d="M353.982 189.588L378.032 189.653L378.221 177.406L354.148 177.348L353.982 189.588Z" fill="#7AC7BC"/>
<path opacity="0.5" d="M327.027 189.517L351.054 189.58L351.216 177.34L327.168 177.281L327.027 189.517Z" fill="#7AC7BC"/>
<path opacity="0.5" d="M300.096 189.444L324.097 189.51L324.236 177.274L300.211 177.215L300.096 189.444Z" fill="#7AC7BC"/>
</g>
<g opacity="0.5">
<path opacity="0.5" d="M353.688 211.567L377.696 211.641L377.884 199.436L353.851 199.367L353.688 211.567Z" fill="#7AC7BC"/>
<path opacity="0.5" d="M326.775 211.483L350.76 211.556L350.924 199.358L326.916 199.289L326.775 211.483Z" fill="#7AC7BC"/>
<path opacity="0.5" d="M299.893 211.399L323.852 211.474L323.989 199.28L300.006 199.211L299.893 211.399Z" fill="#7AC7BC"/>
</g>
<g opacity="0.5">
<path opacity="0.5" d="M353.391 233.463L377.359 233.547L377.546 221.384L353.556 221.305L353.391 233.463Z" fill="#7AC7BC"/>
<path opacity="0.5" d="M326.527 233.371L350.47 233.455L350.632 221.298L326.666 221.219L326.527 233.371Z" fill="#7AC7BC"/>
<path opacity="0.5" d="M299.689 233.275L323.607 233.359L323.744 221.209L299.803 221.129L299.689 233.275Z" fill="#7AC7BC"/>
</g>
</g>
<path d="M144.003 170.361C138.775 150.732 127.633 134.745 114.001 124.995C101.816 116.281 93.355 103.228 90.6858 88.5016C90.4047 86.953 90.0584 85.398 89.6429 83.8389C83.356 60.2316 63.7966 44.9467 45.9537 49.6975C28.1108 54.4484 18.7413 77.4387 25.0282 101.046C26.3146 105.872 28.1549 110.35 30.4212 114.381C37.6586 127.241 40.0194 142.353 36.4625 156.682C33.2834 169.486 33.3002 184.081 37.218 198.797C43.0621 220.746 56.3052 238.142 72.1505 247.354C78.1436 250.838 83.482 255.389 87.8278 260.784C95.0485 269.751 105.601 274.317 115.617 271.65C126.424 268.773 133.582 258.279 134.654 245.678C135.261 238.547 137.262 231.627 140.301 225.141C147.471 209.83 149.286 190.206 144.003 170.361Z" fill="#D6CC5F"/>
<path d="M58.8891 73.1484C65.3753 88.1291 71.3726 103.307 77.2146 118.548C78.6772 122.356 80.0769 126.19 81.4891 130.018L83.6064 135.759L85.6755 141.519C87.0415 145.364 88.458 149.191 89.78 153.052L93.746 164.633C96.2914 172.389 98.9018 180.122 101.302 187.924C102.509 191.823 103.789 195.699 104.916 199.623L108.349 211.376C112.768 227.093 116.795 242.926 120.014 258.935L119.326 259.079L116.461 247.194L115.752 244.223L114.969 241.268L113.391 235.363L111.824 229.456C111.306 227.485 110.714 225.536 110.162 223.574C109.033 219.658 107.933 215.736 106.779 211.829C102.06 196.229 97.1329 180.693 91.8847 165.261C89.2029 157.564 86.5862 149.846 83.8498 142.168L81.8144 136.403L79.7306 130.656C78.3436 126.824 76.9565 122.99 75.5296 119.173C72.7429 111.512 69.8995 103.871 66.9953 96.2542C64.1309 88.6222 61.1932 81.0133 58.2344 73.4191L58.8891 73.1484Z" fill="#B5AB39"/>
<path d="M89.2731 209.356C81.0766 200.7 70.8573 195.573 61.108 194.356C52.3932 193.269 44.3773 188.905 38.8731 182.062C38.2939 181.342 37.6791 180.637 37.0286 179.951C27.1702 169.54 12.817 167.127 4.96884 174.558C-2.88136 181.988 -1.25298 196.453 8.60332 206.863C10.6199 208.991 12.8232 210.785 15.1189 212.229C22.4508 216.835 27.9046 223.963 30.0933 232.34C32.049 239.827 36.1514 247.344 42.2977 253.834C51.4615 263.512 63.1582 268.779 73.8958 269.102C77.9584 269.224 81.981 270.078 85.7309 271.646C91.9611 274.25 98.674 273.656 103.081 269.484C107.834 264.983 108.574 257.576 105.59 250.783C103.901 246.939 102.99 242.813 102.734 238.623C102.132 228.726 97.5597 218.106 89.2731 209.356Z" fill="#EBE6B0"/>
<path d="M18.2015 183.027C25.7411 188.937 33.0856 195.083 40.3671 201.305C42.1886 202.86 43.9827 204.444 45.7853 206.022L48.4859 208.389L51.1677 210.779C52.9493 212.38 54.7518 213.956 56.5145 215.576L61.8046 220.438C65.2901 223.724 68.8029 226.979 72.2275 230.33C73.9419 232.002 75.6878 233.641 77.3686 235.349L82.4321 240.447C89.1156 247.31 95.6291 254.347 101.775 261.697L101.463 261.964L96.6553 256.638L95.4571 255.305L94.2253 254.002L91.7575 251.4L89.294 248.794C88.4756 247.923 87.6236 247.084 86.7885 246.228C85.1097 244.526 83.4436 242.811 81.7523 241.12C74.9471 234.399 68.0537 227.768 61.024 221.282C57.484 218.065 53.9733 214.818 50.4102 211.625L47.7452 209.222L45.0613 206.842C43.2713 205.256 41.4835 203.667 39.6788 202.098C36.0947 198.929 32.4896 195.784 28.8573 192.67C25.2417 189.537 21.5967 186.435 17.9434 183.348L18.2015 183.027Z" fill="#DFD881"/>
<path d="M122.548 122.743C122.297 122.262 121.585 122.338 121.441 122.86C120.903 124.795 119.602 128.169 116.874 129.367C116.738 129.428 116.606 129.489 116.482 129.55C116.358 129.179 116.356 128.748 116.652 128.295C117.5 126.998 115.968 125.227 115.968 125.227C115.968 125.227 115.867 126.786 114.681 127.768C113.66 128.614 113.171 130.496 113.867 132.041C115.345 137.776 117.556 145.364 108.942 150.906C100.328 156.448 88.1973 140.445 88.1973 140.445L94.2176 159.532C94.2176 159.532 103.512 166.39 114.321 156.748C125.13 147.105 117.966 133.073 117.966 133.073C117.966 133.073 126.212 129.747 122.548 122.743Z" fill="url(#paint0_linear)"/>
<path d="M86.689 112.405C86.689 112.405 89.184 101.212 76.3626 104.175C76.3626 104.175 70.1387 103.157 69.8218 109.033C69.8218 109.033 65.8096 111.677 68.7474 116.761C68.7474 116.761 56.8242 112.155 51.6285 122.608C46.4328 133.058 51.2088 138.81 56.2156 140.308C56.2156 140.308 52.1594 142.343 54.0794 146.943C55.9995 151.541 65.7215 154.783 71.4649 149.19C71.4649 149.19 87.8074 151.35 87.4801 139.806C87.4801 139.806 95.0806 134.898 87.0982 125.359C79.1136 115.815 86.689 112.405 86.689 112.405Z" fill="#333333"/>
<path d="M87.3942 138.352C84.8173 137.58 77.3155 136.153 70.1787 142.74C68.9679 143.857 68.4748 145.554 68.905 147.143C70.8208 154.2 75.878 175.045 71.4441 184.067C71.4441 184.067 79.2586 192.681 87.7824 185.737C87.7824 185.737 91.6078 169.067 96.6168 161.75C100.075 156.697 91.1021 142.778 88.8316 139.414C88.4896 138.904 87.9818 138.529 87.3942 138.352Z" fill="#F4E4DD"/>
<path d="M80.2799 124.332C80.2799 124.332 76.4691 135.112 76.1816 139.867C76.1816 139.867 80.3932 141.783 84.3613 138.549C84.3613 138.549 84.7768 127.782 85.379 125.855L80.2799 124.332Z" fill="url(#paint1_linear)"/>
<path d="M85.5728 109.634C85.5728 109.634 95.5403 123.582 89.5808 127.634C83.6234 131.686 76.5286 121.773 76.5286 121.773C76.5286 121.773 74.2162 114.139 76.6335 111.55C79.053 108.958 85.5728 109.634 85.5728 109.634Z" fill="url(#paint2_linear)"/>
<path d="M80.9617 106.303C80.9617 106.303 85.5405 107.388 86.1826 109.459C86.8247 111.53 79.6901 113.453 77.6903 113.547L76.0787 121.907C76.0787 121.907 71.3173 114.042 73.2038 109.501C75.0882 104.958 80.9617 106.303 80.9617 106.303Z" fill="#333333"/>
<path d="M78.4601 120.747C78.4601 120.747 74.5802 116.254 73.0378 119.183C71.4955 122.113 76.5296 124.312 78.2734 122.872L78.4601 120.747Z" fill="url(#paint3_linear)"/>
<path d="M97.736 220.734C97.7067 221.492 99.035 227.493 99.7589 230.696C100.051 231.984 99.8471 233.331 99.1924 234.479L74.1498 276.628C73.8476 277.138 73.6272 277.69 73.4929 278.267C73.0334 280.246 72.0828 285.093 72.578 289.502L73.8728 292.192L68.27 290.92L67.0508 275.875L68.6372 274.907C70.0075 274.072 71.0756 272.824 71.6862 271.338C73.9504 265.838 79.5742 251.835 81.0242 245.013C82.6715 237.257 91.2834 230.96 91.2834 230.96L89.7704 227.382L97.736 220.734Z" fill="url(#paint4_linear)"/>
<path d="M62.043 285.745C62.043 285.745 65.0689 280.948 65.4256 279.081C65.7824 277.213 66.7728 273.916 68.6383 274.909C68.6383 274.909 69.5176 283.978 69.2154 287.523C68.9132 291.067 73.2213 290.953 73.2213 290.953C73.2213 290.953 74.409 291.121 75.2798 291.99C75.88 292.59 75.4519 293.633 74.6041 293.688C73.194 293.778 70.9529 293.803 68.6026 293.348C67.7801 293.188 67.1715 292.49 67.1212 291.654L66.5 281.215L62.683 286.035L62.043 285.745Z" fill="#333333"/>
<path d="M82.7762 227.449C82.7762 227.449 81.8928 265.15 81.7732 270.505C81.6536 275.86 82.6188 287.726 87.9866 291.273L85.6511 293.002C85.6511 293.002 82.7322 290.522 79.8804 285.746C76.6761 280.382 75.7087 279.402 75.7087 279.402L76.7726 277.226C77.2385 276.273 77.3749 275.195 77.1608 274.156C76.0025 268.543 72.133 249.869 71.0775 245.846C69.831 241.099 69.7429 234.76 74.0783 229.453C78.4094 224.146 82.7762 227.449 82.7762 227.449Z" fill="url(#paint5_linear)"/>
<path d="M77.8201 294.702C77.6543 294.704 77.5116 294.584 77.4885 294.419C77.3102 293.162 76.5673 288.123 75.9567 286.818C75.26 285.324 72.9832 279.035 75.9588 278.5C75.9588 278.5 83.3557 289.307 84.7764 290.763C86.197 292.22 87.989 291.273 87.989 291.273C87.989 291.273 89.3719 291.682 90.4148 293.015C90.9122 293.649 90.4484 294.58 89.6426 294.589L84.6609 294.637C83.213 294.652 81.912 293.772 81.3748 292.429C80.4977 290.239 78.991 287.026 77.2346 285.601L78.1474 294.337C78.1663 294.53 78.0152 294.7 77.8201 294.702Z" fill="#333333"/>
<path d="M88.9638 181.673C88.9638 181.673 87.8411 185.251 89.566 191.145L100.266 228.508C100.434 229.095 100.117 229.71 99.542 229.916C96.3419 231.064 85.8204 234.312 71.4587 233.322C70.7348 233.271 70.1283 232.759 69.9731 232.052C69.0267 227.792 65.7972 213.258 65.1341 210.272C62.6013 198.895 59.7726 186.623 72.2163 179.203C77.9471 181.66 83.296 183.108 88.9638 181.673Z" fill="#40857E"/>
<path d="M69.1586 144.146C69.1586 144.146 56.9857 154.262 53.9639 168.087C50.9422 181.911 71.7523 183.38 71.7523 183.38C71.7523 183.38 74.5768 180.226 77.9322 181.351C81.2854 182.476 78.1924 175.845 74.2683 175.864C70.3442 175.88 72.1615 178.984 66.6111 176.47C61.2035 174.021 57.8607 166.446 71.6579 154.961C72.4574 154.296 73.0953 153.446 73.4793 152.481C76.159 145.732 74.0333 141.309 69.1586 144.146Z" fill="url(#paint6_linear)"/>
<path d="M136.131 121.118C155.38 132.068 171.449 131.384 189.622 121.834C190.797 121.215 191.512 119.975 191.45 118.648L191.414 117.88C191.303 115.53 188.9 113.996 186.722 114.884C170.944 121.313 159.075 124.841 139.318 115.089C137.144 114.017 134.576 115.503 134.414 117.922C134.324 119.232 134.994 120.472 136.131 121.118Z" fill="#40857E"/>
<path d="M139.778 129.994L129.152 114.934C128.829 114.474 129.112 113.836 129.668 113.769L147.27 111.616C147.924 111.536 148.422 112.193 148.168 112.802C144.147 118.379 141.883 124.07 141.065 129.853C140.842 130.388 140.114 130.468 139.778 129.994Z" fill="#40857E"/>
<path d="M187.578 25.3465C167.557 12.9784 150.466 13.0854 130.801 22.5283C129.53 23.1389 128.722 24.4295 128.739 25.8396L128.747 26.658C128.776 29.1572 131.267 30.8779 133.615 30.0197C150.619 23.7978 163.356 20.5096 183.965 31.625C186.233 32.8483 189.018 31.369 189.282 28.8047C189.425 27.4218 188.762 26.0788 187.578 25.3465Z" fill="#40857E"/>
<path d="M184.045 15.7821L194.751 32.1834C195.076 32.6828 194.753 33.3501 194.157 33.4005L175.383 35.01C174.684 35.0708 174.18 34.3532 174.474 33.7173C178.958 27.9488 181.581 21.9934 182.673 15.8828C182.931 15.3225 183.707 15.2638 184.045 15.7821Z" fill="#40857E"/>
<path d="M140.696 37.6266L131.627 99.5508L160.5 103.779L169.569 41.8552L140.696 37.6266Z" fill="#5BB2A9"/>
<path opacity="0.5" d="M146.283 41.9258L162.803 44.3453C162.608 45.6757 163.662 46.9704 165.133 47.1865C165.179 47.1928 165.292 47.2075 165.292 47.2054L157.973 97.1899C157.973 97.1878 157.862 97.1689 157.816 97.1626C156.342 96.9465 154.981 97.8488 154.783 99.2002C154.781 99.2191 154.769 99.2443 154.769 99.2443L138.619 96.8793C138.953 94.6004 137.471 94.1661 135.998 93.9499C135.952 93.9436 135.939 93.9625 135.939 93.9646L143.259 43.9801C143.259 43.9822 143.267 43.9864 143.313 43.9927C144.784 44.2068 146.087 43.2562 146.283 41.9258Z" fill="white"/>
<path d="M150.526 79.83C155.597 79.83 159.707 75.7197 159.707 70.6494C159.707 65.579 155.597 61.4688 150.526 61.4688C145.456 61.4688 141.346 65.579 141.346 70.6494C141.346 75.7197 145.456 79.83 150.526 79.83Z" fill="url(#paint7_linear)"/>
<path d="M156.518 72.4646L155.557 72.324C155.37 73.3187 154.988 74.2756 154.577 74.9345C154.43 75.1695 154.13 75.2555 153.876 75.1464L153.018 74.7708C152.703 74.6323 152.585 74.2504 152.762 73.9566C153.156 73.3019 153.513 72.473 153.649 71.5455C153.79 70.5802 153.57 69.8143 152.898 69.7157C152.294 69.6276 151.853 70.1312 151.297 71.4175C150.493 73.2536 149.459 74.5043 147.776 74.2588C146.257 74.0363 145.258 72.7542 145.23 70.7796L144.269 70.639C143.961 70.5928 143.747 70.3074 143.791 69.9969L143.873 69.4324C143.919 69.1239 144.204 68.9099 144.515 68.954L145.377 69.0799C145.549 68.1587 145.807 67.5081 146.074 67.0003C146.21 66.7401 146.527 66.6331 146.798 66.7506L147.593 67.0969C147.9 67.2291 148.026 67.5963 147.862 67.888C147.604 68.3538 147.308 69.0211 147.176 69.9276C147.008 71.0713 147.434 71.4679 147.86 71.5308C148.382 71.6085 148.844 70.9726 149.518 69.5541C150.466 67.5228 151.477 66.7695 153.064 67.0003C154.518 67.2144 155.668 68.4839 155.689 70.6243L156.763 70.7817C157.072 70.8279 157.286 71.1132 157.242 71.4238L157.16 71.9883C157.114 72.2968 156.826 72.5108 156.518 72.4646Z" fill="white"/>
<path d="M139.084 99.1257C139.077 99.1257 139.069 99.1257 139.063 99.1236L133.649 98.3325C133.571 98.3221 133.517 98.2486 133.529 98.171L135.768 82.8797C135.779 82.8021 135.85 82.7455 135.93 82.7601C136.007 82.7706 136.062 82.8441 136.049 82.9217L133.831 98.0723L139.105 98.8446C139.182 98.8551 139.237 98.9285 139.224 99.0061C139.214 99.0754 139.153 99.1257 139.084 99.1257Z" fill="#4CA79D"/>
<path d="M165.48 58.6576C165.474 58.6576 165.466 58.6576 165.459 58.6555C165.382 58.645 165.327 58.5716 165.34 58.4939L167.53 43.5322L161.877 42.7054C161.8 42.6949 161.745 42.6215 161.758 42.5438C161.768 42.4662 161.842 42.4095 161.919 42.4242L167.713 43.272C167.751 43.2783 167.784 43.2971 167.807 43.3286C167.831 43.3601 167.839 43.3979 167.835 43.4335L165.623 58.5359C165.61 58.6073 165.55 58.6576 165.48 58.6576Z" fill="white"/>
<path d="M138.721 35.2047L129.652 97.1289L158.715 101.385L167.784 39.461L138.721 35.2047Z" fill="#83C5BE"/>
<path opacity="0.5" d="M144.365 39.5117L160.886 41.9312C160.69 43.2616 161.811 44.5584 163.284 44.7746C163.33 44.7809 163.32 44.7704 163.511 44.7956L156.191 94.78C156.003 94.7507 156.013 94.7486 155.967 94.7423C154.494 94.5261 153.098 95.4326 152.899 96.784C152.897 96.8029 152.849 96.8302 152.849 96.8302L136.699 94.4653C137.033 92.1864 135.524 91.7394 134.051 91.5233C134.005 91.517 133.965 91.5233 133.965 91.5254L141.284 41.5409C141.284 41.543 141.32 41.5577 141.366 41.5661C142.839 41.7801 144.169 40.8421 144.365 39.5117Z" fill="#E3F2F1"/>
<path d="M148.61 77.4042C153.681 77.4042 157.791 73.2939 157.791 68.2236C157.791 63.1533 153.681 59.043 148.61 59.043C143.54 59.043 139.43 63.1533 139.43 68.2236C139.43 73.2939 143.54 77.4042 148.61 77.4042Z" fill="url(#paint8_linear)"/>
<path d="M154.604 70.0388L153.643 69.8983C153.456 70.8929 153.074 71.8498 152.663 72.5087C152.516 72.7437 152.216 72.8297 151.962 72.7206L151.104 72.345C150.789 72.2065 150.671 71.8246 150.848 71.5308C151.242 70.8761 151.601 70.0472 151.735 69.1197C151.876 68.1545 151.656 67.3885 150.984 67.2899C150.38 67.2018 149.939 67.7054 149.383 68.9917C148.579 70.8279 147.545 72.0785 145.862 71.833C144.342 71.6106 143.344 70.3284 143.316 68.3538L142.355 68.2132C142.047 68.1671 141.833 67.8817 141.877 67.5711L141.959 67.0066C142.005 66.6982 142.29 66.4841 142.601 66.5282L143.463 66.6541C143.635 65.7329 143.893 65.0824 144.16 64.5745C144.296 64.3143 144.613 64.2073 144.884 64.3248L145.679 64.6711C145.986 64.8054 146.109 65.1705 145.948 65.4622C145.69 65.928 145.394 66.5953 145.262 67.5018C145.094 68.6455 145.52 69.0421 145.946 69.105C146.468 69.1806 146.93 68.5469 147.603 67.1283C148.552 65.0971 149.563 64.3437 151.15 64.5745C152.604 64.7886 153.754 66.0581 153.775 68.1985L154.849 68.3559C155.158 68.4021 155.372 68.6875 155.328 68.998L155.246 69.5625C155.2 69.871 154.912 70.085 154.604 70.0388Z" fill="white"/>
<path d="M137.325 96.5444C137.319 96.5444 137.31 96.5444 137.304 96.5423L131.699 95.7218C131.661 95.7155 131.628 95.6966 131.604 95.6652C131.581 95.6337 131.573 95.5959 131.577 95.5602L133.789 80.4579C133.799 80.3802 133.873 80.3236 133.951 80.3383C134.028 80.3488 134.083 80.4222 134.07 80.4998L131.879 95.4616L137.342 96.2611C137.419 96.2716 137.474 96.345 137.461 96.4227C137.457 96.494 137.396 96.5444 137.325 96.5444Z" fill="#5BB2A9"/>
<path d="M163.506 56.2358C163.5 56.2358 163.491 56.2358 163.485 56.2337C163.407 56.2232 163.353 56.1498 163.366 56.0721L165.556 41.1104L160.094 40.3109C160.016 40.3004 159.962 40.2269 159.974 40.1493C159.985 40.0716 160.058 40.015 160.136 40.0297L165.741 40.8502C165.819 40.8606 165.873 40.9341 165.861 41.0117L163.649 56.1141C163.636 56.1854 163.575 56.2358 163.506 56.2358Z" fill="white"/>
<path d="M147.546 31.5415L120.227 87.8516L146.654 100.673L173.974 44.3631L147.546 31.5415Z" fill="#5BB2A9"/>
<path opacity="0.5" d="M151.648 37.3711L166.671 44.6589C166.083 45.8676 166.742 47.4498 168.081 48.0982C168.123 48.1192 168.098 48.1108 168.272 48.1927L146.222 93.6446C146.05 93.5585 146.075 93.5669 146.033 93.548C144.694 92.8975 143.101 93.3298 142.505 94.5595C142.497 94.5783 142.457 94.5784 142.457 94.5784L127.772 87.4542C128.777 85.381 127.453 84.508 126.115 83.8575C126.073 83.8365 126.014 83.8386 126.012 83.8407L148.062 38.3888C148.062 38.3909 148.11 38.4098 148.152 38.4308C149.491 39.0813 151.061 38.5798 151.648 37.3711Z" fill="#E3F2F1"/>
<path d="M151.035 57.7905C155.597 60.0044 157.5 65.496 155.289 70.0579C153.075 74.6199 147.583 76.5232 143.021 74.3114C138.459 72.0976 136.556 66.606 138.768 62.044C140.98 57.48 146.473 55.5767 151.035 57.7905Z" fill="#5BB2A9"/>
<path d="M145.699 62.2263C145.756 62.1038 145.85 62.0185 145.981 61.9702C146.112 61.922 146.239 61.9262 146.362 61.9828C146.492 62.0432 146.578 62.1371 146.618 62.2646C146.662 62.384 146.653 62.5089 146.593 62.6395L146.242 63.3985L146.291 63.4211C147.042 63.7683 147.561 64.3157 147.85 65.0632C148.13 65.8069 148.04 66.7611 147.581 67.9256L150.976 66.6575C151.143 66.596 151.288 66.5936 151.41 66.6503C151.541 66.7106 151.628 66.8206 151.674 66.9801C151.719 67.1397 151.705 67.297 151.634 67.452C151.543 67.6479 151.384 67.7875 151.158 67.8709L146.717 69.4726C146.566 69.5215 146.425 69.5157 146.294 69.4554C146.147 69.3874 146.043 69.28 145.982 69.133C145.925 68.9778 145.929 68.8309 145.993 68.6921L146.412 67.7863C147.148 66.1949 146.928 65.1275 145.753 64.584L145.704 64.5614L143.978 68.295C143.921 68.4174 143.831 68.5046 143.708 68.5567C143.58 68.5968 143.456 68.5885 143.333 68.5319C143.211 68.4753 143.123 68.3854 143.071 68.2623C143.023 68.131 143.027 68.0042 143.084 67.8817L144.675 64.4419C144.359 64.5039 144.056 64.666 143.766 64.9282C143.472 65.1786 143.21 65.5527 142.98 66.0505L142.301 67.5194C142.244 67.6419 142.154 67.7291 142.031 67.7811C141.903 67.8212 141.778 67.8129 141.656 67.7563C141.534 67.6997 141.446 67.6099 141.394 67.4867C141.346 67.3554 141.35 67.2286 141.407 67.1062L144.022 61.4507C144.079 61.3283 144.173 61.2429 144.304 61.1947C144.435 61.1464 144.562 61.1506 144.685 61.2072C144.815 61.2676 144.901 61.3616 144.941 61.4891C144.985 61.6084 144.976 61.7334 144.916 61.8639L144.129 63.5655C144.472 63.3378 144.846 63.2137 145.252 63.1933L145.699 62.2263Z" fill="white"/>
<path d="M127.674 89.7948C127.653 89.7948 127.632 89.7906 127.611 89.7801L122.516 87.3082C122.444 87.2746 122.415 87.1886 122.451 87.1172L129.197 73.213C129.231 73.1417 129.317 73.1123 129.388 73.148C129.459 73.1816 129.489 73.2676 129.453 73.339L122.77 87.1151L127.737 89.5241C127.808 89.5577 127.837 89.6437 127.802 89.7151C127.779 89.7654 127.728 89.7948 127.674 89.7948Z" fill="#4CA79D"/>
<path d="M164.872 59.0798C164.851 59.0798 164.83 59.0756 164.809 59.0651C164.737 59.0315 164.708 58.9455 164.744 58.8741L171.343 45.27L166.376 42.861C166.305 42.8275 166.276 42.7414 166.311 42.6701C166.345 42.5987 166.431 42.5694 166.502 42.605L171.597 45.077C171.631 45.0938 171.658 45.1231 171.671 45.1588C171.683 45.1945 171.681 45.2344 171.664 45.2679L165.002 59C164.977 59.0504 164.926 59.0798 164.872 59.0798Z" fill="#4CA79D"/>
<path d="M140.743 80.9531C142.035 81.5806 142.575 83.1355 141.947 84.4281C141.32 85.7208 139.765 86.2601 138.472 85.6326C137.179 85.0052 136.64 83.4503 137.268 82.1576C137.895 80.865 139.45 80.3257 140.743 80.9531Z" fill="#5BB2A9"/>
<path d="M158.844 49.5439C159.642 48.3501 159.321 46.7355 158.127 45.9377C156.933 45.1399 155.318 45.461 154.521 46.6548C153.723 47.8486 154.044 49.4631 155.238 50.2609C156.432 51.0587 158.046 50.7377 158.844 49.5439Z" fill="#5BB2A9"/>
<path d="M151.419 96.974C155.739 96.974 159.242 93.4715 159.242 89.1511C159.242 84.8306 155.739 81.3281 151.419 81.3281C147.098 81.3281 143.596 84.8306 143.596 89.1511C143.596 93.4715 147.098 96.974 151.419 96.974Z" fill="#48A097"/>
<path d="M151.418 96.7114C155.595 96.7114 158.981 93.3254 158.981 89.1487C158.981 84.9719 155.595 81.5859 151.418 81.5859C147.241 81.5859 143.855 84.9719 143.855 89.1487C143.855 93.3254 147.241 96.7114 151.418 96.7114Z" fill="#51A89F"/>
<path opacity="0.68" d="M144.557 89.5229C144.523 89.5418 144.485 89.5523 144.443 89.5523C144.303 89.5544 144.187 89.4432 144.185 89.3047C144.129 86.5558 145.602 84.0482 148.029 82.7618C148.418 82.5562 148.823 82.3862 149.238 82.254C149.37 82.212 149.513 82.2855 149.555 82.4177C149.597 82.5499 149.526 82.6947 149.391 82.7345C149.007 82.8562 148.628 83.0157 148.267 83.2067C146.009 84.4049 144.638 86.7362 144.691 89.2921C144.693 89.3928 144.638 89.4789 144.557 89.5229Z" fill="#83C5BE"/>
<path opacity="0.68" d="M153.968 95.1794C157.263 93.8977 158.896 90.1871 157.614 86.8917C156.332 83.5962 152.622 81.9638 149.326 83.2456C146.031 84.5273 144.398 88.2379 145.68 91.5333C146.962 94.8288 150.673 96.4612 153.968 95.1794Z" fill="white"/>
<path d="M152.792 85.7854C152.892 85.7326 152.998 85.7235 153.11 85.758C153.222 85.7925 153.304 85.8597 153.357 85.9596C153.414 86.0662 153.423 86.1721 153.385 86.2775C153.353 86.3793 153.284 86.4583 153.178 86.5147L152.558 86.8421L152.58 86.8821C152.903 87.4948 152.972 88.1234 152.784 88.7679C152.593 89.4058 152.049 89.9961 151.151 90.5387L154.057 91.4181C154.2 91.462 154.297 91.534 154.35 91.6339C154.407 91.7404 154.409 91.8583 154.358 91.9875C154.307 92.1167 154.219 92.2148 154.092 92.2817C153.932 92.3662 153.756 92.3786 153.562 92.319L149.79 91.1307C149.664 91.0864 149.573 91.0109 149.517 90.9044C149.453 90.7845 149.439 90.6601 149.473 90.5313C149.513 90.3989 149.59 90.3028 149.704 90.243L150.443 89.8522C151.742 89.1656 152.137 88.3428 151.63 87.3838L151.609 87.3438L148.562 88.9546C148.463 89.0074 148.358 89.0199 148.25 88.992C148.145 88.954 148.066 88.885 148.013 88.7851C147.96 88.6852 147.947 88.581 147.975 88.4726C148.01 88.3606 148.077 88.2782 148.177 88.2254L150.984 86.7413C150.742 86.6221 150.458 86.5763 150.132 86.6039C149.809 86.6214 149.444 86.7375 149.038 86.9523L147.839 87.586C147.739 87.6388 147.635 87.6513 147.526 87.6234C147.421 87.5854 147.342 87.5164 147.289 87.4165C147.236 87.3166 147.224 87.2124 147.252 87.104C147.286 86.992 147.353 86.9096 147.453 86.8567L152.069 84.4168C152.169 84.364 152.275 84.3548 152.387 84.3894C152.499 84.4239 152.581 84.4911 152.634 84.591C152.69 84.6976 152.699 84.8035 152.661 84.9088C152.63 85.0107 152.561 85.0897 152.454 85.1461L151.066 85.8802C151.41 85.9027 151.722 86.0102 152.003 86.2026L152.792 85.7854Z" fill="#51A89F"/>
<path d="M166.744 84.136C174.265 84.136 180.363 78.0387 180.363 70.5172C180.363 62.9958 174.265 56.8984 166.744 56.8984C159.222 56.8984 153.125 62.9958 153.125 70.5172C153.125 78.0387 159.222 84.136 166.744 84.136Z" fill="#48A097"/>
<path d="M166.742 83.6826C174.013 83.6826 179.907 77.7882 179.907 70.5171C179.907 63.246 174.013 57.3516 166.742 57.3516C159.471 57.3516 153.576 63.246 153.576 70.5171C153.576 77.7882 159.471 83.6826 166.742 83.6826Z" fill="#51A89F"/>
<path opacity="0.68" d="M154.708 70.999C154.675 71.0179 154.637 71.0284 154.595 71.0284C154.454 71.0305 154.339 70.9193 154.337 70.7808C154.24 66.0678 156.767 61.766 160.93 59.5584C161.595 59.2059 162.292 58.9121 163.001 58.6876C163.133 58.6456 163.276 58.7191 163.318 58.8513C163.36 58.9835 163.286 59.1283 163.154 59.1681C162.472 59.3843 161.805 59.6655 161.167 60.0033C157.174 62.1206 154.752 66.2461 154.842 70.7682C154.844 70.8689 154.79 70.955 154.708 70.999Z" fill="#83C5BE"/>
<path opacity="0.68" d="M173.652 79.6782C178.643 76.0756 179.768 69.1096 176.166 64.119C172.563 59.1285 165.597 58.0033 160.606 61.6059C155.616 65.2084 154.491 72.1745 158.093 77.1651C161.696 82.1556 168.662 83.2807 173.652 79.6782Z" fill="white"/>
<path d="M169.341 65.441C169.51 65.3519 169.689 65.3364 169.878 65.3947C170.067 65.453 170.206 65.5665 170.295 65.7351C170.39 65.915 170.406 66.0938 170.341 66.2716C170.288 66.4434 170.172 66.5769 169.992 66.672L168.947 67.2247L168.982 67.2921C169.529 68.3264 169.644 69.3874 169.328 70.4754C169.005 71.552 168.086 72.5484 166.571 73.4644L171.477 74.9487C171.717 75.0229 171.882 75.1443 171.971 75.3129C172.066 75.4928 172.071 75.6918 171.985 75.9099C171.899 76.128 171.749 76.2935 171.535 76.4064C171.266 76.549 170.967 76.57 170.641 76.4693L164.273 74.4636C164.061 74.3888 163.907 74.2614 163.812 74.0816C163.705 73.8792 163.681 73.6693 163.738 73.4518C163.807 73.2284 163.937 73.0662 164.128 72.9652L165.376 72.3055C167.568 71.1466 168.236 69.7578 167.38 68.139L167.345 68.0716L162.202 70.7905C162.033 70.8796 161.857 70.9007 161.674 70.8536C161.496 70.7894 161.363 70.673 161.274 70.5044C161.185 70.3357 161.164 70.1599 161.211 69.9768C161.269 69.7878 161.382 69.6487 161.551 69.5595L166.289 67.0546C165.881 66.8534 165.401 66.7761 164.851 66.8227C164.305 66.8521 163.69 67.0481 163.004 67.4106L160.98 68.4803C160.812 68.5695 160.636 68.5905 160.453 68.5435C160.275 68.4793 160.142 68.3628 160.052 68.1942C159.963 68.0256 159.942 67.8497 159.989 67.6667C160.048 67.4776 160.161 67.3385 160.33 67.2494L168.12 63.1309C168.289 63.0417 168.468 63.0263 168.657 63.0846C168.846 63.1429 168.985 63.2563 169.074 63.4249C169.169 63.6048 169.184 63.7836 169.12 63.9614C169.067 64.1333 168.951 64.2667 168.771 64.3618L166.427 65.601C167.008 65.639 167.535 65.8204 168.009 66.1453L169.341 65.441Z" fill="#51A89F"/>
<path d="M189.296 106.999C197.036 106.999 203.31 100.725 203.31 92.9859C203.31 85.2466 197.036 78.9727 189.296 78.9727C181.557 78.9727 175.283 85.2466 175.283 92.9859C175.283 100.725 181.557 106.999 189.296 106.999Z" fill="#48A097"/>
<path d="M189.297 106.532C196.779 106.532 202.845 100.467 202.845 92.9849C202.845 85.5029 196.779 79.4375 189.297 79.4375C181.815 79.4375 175.75 85.5029 175.75 92.9849C175.75 100.467 181.815 106.532 189.297 106.532Z" fill="#51A89F"/>
<path opacity="0.68" d="M176.909 93.4721C176.876 93.491 176.838 93.5015 176.796 93.5015C176.655 93.5036 176.54 93.3924 176.538 93.2539C176.439 88.4065 179.037 83.983 183.318 81.7125C184 81.3495 184.718 81.0494 185.448 80.8165C185.58 80.7745 185.723 80.848 185.765 80.9802C185.807 81.1124 185.735 81.2551 185.601 81.297C184.9 81.5195 184.212 81.8091 183.555 82.1574C179.444 84.3377 176.949 88.5849 177.044 93.2413C177.046 93.342 176.991 93.4301 176.909 93.4721Z" fill="#83C5BE"/>
<path opacity="0.68" d="M192.7 104.172C198.81 102.509 202.416 96.2086 200.754 90.0985C199.091 83.9884 192.791 80.3827 186.681 82.0449C180.57 83.7072 176.965 90.0079 178.627 96.118C180.289 102.228 186.59 105.834 192.7 104.172Z" fill="white"/>
<path d="M192.286 87.0986C192.478 86.9969 192.682 86.9793 192.898 87.0458C193.113 87.1123 193.272 87.2417 193.374 87.434C193.482 87.6392 193.5 87.8432 193.427 88.046C193.366 88.242 193.233 88.3942 193.028 88.5027L191.836 89.1331L191.876 89.21C192.5 90.3897 192.631 91.6 192.27 92.8409C191.902 94.069 190.854 95.2055 189.126 96.2503L194.722 97.9434C194.996 98.028 195.184 98.1665 195.286 98.3588C195.394 98.564 195.399 98.7909 195.301 99.0397C195.203 99.2885 195.032 99.4773 194.788 99.6061C194.481 99.7688 194.141 99.7927 193.768 99.6779L186.505 97.39C186.263 97.3047 186.088 97.1594 185.979 96.9543C185.857 96.7235 185.829 96.484 185.895 96.236C185.973 95.9812 186.122 95.7962 186.339 95.6809L187.763 94.9285C190.263 93.6066 191.025 92.0225 190.049 90.176L190.008 90.0991L184.142 93.2004C183.95 93.3021 183.749 93.3261 183.54 93.2724C183.338 93.1992 183.185 93.0664 183.084 92.874C182.982 92.6817 182.958 92.4811 183.012 92.2723C183.078 92.0566 183.208 91.898 183.4 91.7963L188.805 88.9391C188.339 88.7096 187.792 88.6214 187.164 88.6746C186.542 88.7081 185.839 88.9317 185.057 89.3452L182.749 90.5654C182.557 90.667 182.356 90.691 182.147 90.6374C181.945 90.5641 181.792 90.4313 181.691 90.239C181.589 90.0467 181.565 89.8461 181.619 89.6372C181.685 89.4216 181.815 89.263 182.007 89.1613L190.893 84.4636C191.085 84.3619 191.289 84.3443 191.505 84.4108C191.72 84.4773 191.879 84.6067 191.981 84.799C192.089 85.0042 192.107 85.2081 192.034 85.4109C191.973 85.607 191.84 85.7592 191.635 85.8676L188.962 87.281C189.624 87.3244 190.226 87.5314 190.766 87.9019L192.286 87.0986Z" fill="#51A89F"/>
<path d="M196.232 77.9688C201.903 77.9688 206.5 73.3718 206.5 67.7012C206.5 62.0305 201.903 57.4336 196.232 57.4336C190.562 57.4336 185.965 62.0305 185.965 67.7012C185.965 73.3718 190.562 77.9688 196.232 77.9688Z" fill="#48A097"/>
<path d="M196.232 77.6284C201.714 77.6284 206.158 73.1846 206.158 67.7029C206.158 62.2212 201.714 57.7773 196.232 57.7773C190.75 57.7773 186.307 62.2212 186.307 67.7029C186.307 73.1846 190.75 77.6284 196.232 77.6284Z" fill="#51A89F"/>
<path opacity="0.68" d="M187.188 68.1156C187.154 68.1345 187.117 68.145 187.075 68.145C186.934 68.1471 186.819 68.0358 186.816 67.8974C186.743 64.3195 188.661 61.0565 191.819 59.3798C192.323 59.1133 192.852 58.8909 193.391 58.7188C193.523 58.6769 193.666 58.7503 193.708 58.8825C193.75 59.0147 193.678 59.1595 193.544 59.1994C193.034 59.361 192.533 59.5729 192.056 59.8247C189.068 61.4111 187.253 64.4979 187.322 67.8848C187.324 67.9855 187.27 68.0736 187.188 68.1156Z" fill="#83C5BE"/>
<path opacity="0.68" d="M204.927 67.9144C204.998 63.2746 201.294 59.4556 196.654 59.3846C192.015 59.3136 188.196 63.0175 188.125 67.6573C188.054 72.2972 191.757 76.1161 196.397 76.1871C201.037 76.2581 204.856 72.5543 204.927 67.9144Z" fill="white"/>
<path d="M198.395 63.4255C198.537 63.3509 198.686 63.338 198.844 63.3868C199.002 63.4355 199.119 63.5305 199.193 63.6716C199.273 63.822 199.286 63.9717 199.232 64.1204C199.188 64.2642 199.09 64.3759 198.94 64.4554L198.065 64.9178L198.095 64.9743C198.552 65.8396 198.649 66.7274 198.384 67.6376C198.114 68.5384 197.345 69.3721 196.078 70.1385L200.182 71.3804C200.383 71.4424 200.521 71.544 200.596 71.6851C200.675 71.8356 200.679 72.0021 200.607 72.1845C200.535 72.367 200.41 72.5055 200.231 72.6C200.005 72.7193 199.756 72.7369 199.483 72.6526L194.155 70.9745C193.977 70.9119 193.849 70.8053 193.769 70.6548C193.68 70.4855 193.659 70.3099 193.707 70.128C193.765 69.941 193.874 69.8053 194.034 69.7208L195.078 69.1689C196.912 68.1993 197.471 67.0372 196.755 65.6828L196.725 65.6264L192.422 67.9013C192.281 67.9759 192.134 67.9935 191.98 67.9541C191.832 67.9004 191.72 67.803 191.645 67.6619C191.571 67.5208 191.553 67.3737 191.593 67.2205C191.641 67.0623 191.736 66.9459 191.877 66.8714L195.842 64.7755C195.5 64.6072 195.099 64.5425 194.638 64.5815C194.182 64.6061 193.667 64.7701 193.093 65.0734L191.4 65.9684C191.259 66.043 191.112 66.0606 190.959 66.0213C190.81 65.9675 190.698 65.8701 190.624 65.729C190.549 65.588 190.531 65.4408 190.571 65.2876C190.62 65.1295 190.714 65.0131 190.856 64.9385L197.374 61.4927C197.515 61.4181 197.664 61.4052 197.822 61.4539C197.981 61.5027 198.097 61.5976 198.172 61.7387C198.251 61.8892 198.264 62.0388 198.21 62.1876C198.166 62.3313 198.069 62.443 197.918 62.5226L195.957 63.5593C196.443 63.5911 196.884 63.7429 197.281 64.0147L198.395 63.4255Z" fill="#51A89F"/>
<path d="M436.355 173.8C434.945 170.86 433.933 167.782 433.698 164.43C433.104 155.986 438.012 148.212 441.62 140.943C444.933 134.261 447.397 124.306 436.214 125.192C427.306 125.897 416.831 134.775 415.637 144.034C414.223 154.992 419.557 168.808 413.232 178.761C404.385 192.684 398.004 189.494 398.004 212.99C398.004 223.031 403.565 228.569 409.936 231.618C419.989 236.432 431.977 234.486 439.987 226.735C447.063 219.885 451.272 210.042 449.848 200.156C448.41 190.176 440.581 182.605 436.355 173.8Z" fill="#EBE6B0"/>
<path d="M428.878 249.551C428.647 249.551 428.437 249.395 428.379 249.16C422.832 227.024 419.815 206.955 419.406 189.513C419.078 175.537 420.417 163.201 423.386 152.847C428.465 135.128 436.457 129.42 436.795 129.185C437.028 129.023 437.349 129.082 437.511 129.315C437.672 129.548 437.616 129.869 437.383 130.031C437.362 130.045 435.347 131.472 432.745 135.031C430.341 138.322 426.931 144.155 424.337 153.267C421.416 163.522 420.104 175.749 420.438 189.609C420.856 206.946 423.863 226.898 429.377 248.911C429.447 249.186 429.279 249.467 429.004 249.536C428.962 249.544 428.92 249.551 428.878 249.551Z" fill="#DFD881"/>
<path d="M472.751 203.188C473.89 195.678 471.162 187.058 469.798 179.115C469.078 174.916 468.745 170.749 469.418 166.518C470.09 162.313 472.064 157.764 470.243 153.573C466.571 145.131 457.843 148.973 452.843 155.327C447.041 162.701 445.454 174.753 443.251 184.034C441.923 189.628 439.921 195.365 439.22 201.067C438.059 210.51 440.194 217.067 444.711 221.495C449.045 225.742 455.644 226.624 460.945 223.671C465.736 221.004 470.912 215.303 472.751 203.188Z" fill="#D6CC5F"/>
<path d="M452.782 238.256C452.534 238.256 452.318 238.078 452.274 237.826C452.255 237.713 450.354 226.243 450.304 210.421C450.258 195.81 451.825 174.385 459.551 155.278C459.659 155.014 459.959 154.888 460.221 154.995C460.485 155.102 460.611 155.402 460.504 155.665C452.843 174.607 451.288 195.883 451.332 210.398C451.38 226.14 453.269 237.543 453.288 237.656C453.336 237.937 453.145 238.202 452.866 238.25C452.839 238.254 452.811 238.256 452.782 238.256Z" fill="#B5AB39"/>
<path d="M129.678 276.386V227.292C129.678 220.841 134.861 215.593 141.311 215.524C160.669 215.314 200.594 215.303 233.26 218.054C237.717 218.43 241.186 222.083 241.348 226.555L244.401 274.019C244.627 280.298 239.665 285.542 233.382 285.661L140.921 287.418C134.748 287.535 129.678 282.562 129.678 276.386Z" fill="#40857E"/>
<path d="M140.89 232.604C140.808 236.782 140.932 243.408 141.033 247.691C141.085 249.92 143.041 251.617 145.255 251.357L161.186 249.49C163.307 249.24 164.804 247.284 164.487 245.171L162.531 232.127C162.254 230.274 160.663 228.906 158.789 228.906H144.671C142.615 228.906 140.932 230.547 140.89 232.604Z" fill="white"/>
<path opacity="0.37" d="M182.521 257.328L195.81 258.761C197.67 258.963 199.256 257.429 199.12 255.563L196.215 216.033C190.644 215.857 185.15 215.727 179.848 215.637V254.348C179.846 255.88 181 257.165 182.521 257.328Z" fill="white"/>
<path d="M187.97 250.474C188.012 251.186 188.599 251.733 189.302 251.733C189.328 251.733 189.355 251.733 189.38 251.731C190.117 251.689 190.681 251.058 190.637 250.319L188.633 215.817C187.735 215.794 186.843 215.775 185.951 215.754L187.97 250.474Z" fill="white"/>
<path d="M148.257 245.056C148.024 245.056 147.827 244.875 147.812 244.638L147.124 233.771C147.109 233.525 147.294 233.313 147.541 233.298C147.8 233.277 147.999 233.471 148.014 233.716L148.702 244.584C148.717 244.829 148.532 245.041 148.284 245.056C148.276 245.056 148.265 245.056 148.257 245.056Z" fill="#40857E"/>
<path d="M149.675 245.056C149.436 245.056 149.237 244.867 149.23 244.626L148.869 233.55C148.861 233.305 149.054 233.097 149.3 233.091C149.583 233.076 149.751 233.275 149.759 233.521L150.12 244.596C150.128 244.842 149.935 245.05 149.69 245.056C149.69 245.056 149.679 245.056 149.675 245.056Z" fill="#40857E"/>
<path d="M151.579 245.055C151.341 245.055 151.144 244.87 151.134 244.631C151.048 242.81 150.613 233.719 150.613 233.535C150.613 233.289 150.813 233.09 151.058 233.09C151.304 233.09 151.503 233.287 151.503 233.531C151.507 233.772 151.845 240.869 152.021 244.589C152.034 244.835 151.843 245.042 151.597 245.055C151.591 245.055 151.585 245.055 151.579 245.055ZM151.505 233.535H151.514H151.505Z" fill="#40857E"/>
<path d="M154.548 245.501C154.07 245.501 153.675 245.124 153.659 244.641C153.281 233.91 153.348 233.668 153.392 233.509C153.52 233.033 154.015 232.753 154.485 232.883C154.922 233.003 155.195 233.425 155.134 233.861C155.104 234.506 155.304 240.751 155.438 244.578C155.455 245.069 155.071 245.482 154.58 245.499C154.571 245.501 154.559 245.501 154.548 245.501Z" fill="#40857E"/>
<path d="M156.478 245.054C156.233 245.054 156.033 244.855 156.033 244.609V233.742C156.033 233.496 156.233 233.297 156.478 233.297C156.724 233.297 156.923 233.496 156.923 233.742V244.609C156.925 244.855 156.726 245.054 156.478 245.054Z" fill="#40857E"/>
<path d="M158.039 245.056C157.798 245.056 157.598 244.863 157.594 244.622C157.508 240.847 157.309 234.677 157.131 233.936C157.053 233.796 157.053 233.62 157.147 233.475C157.282 233.267 157.559 233.212 157.764 233.347C158.008 233.506 158.238 233.657 158.484 244.601C158.488 244.846 158.295 245.05 158.05 245.056H158.039Z" fill="#40857E"/>
<path d="M145.86 246.046C145.39 246.046 144.995 245.677 144.97 245.201L144.376 233.789C144.351 233.298 144.729 232.879 145.22 232.854C145.686 232.82 146.13 233.206 146.156 233.697L146.75 245.108C146.775 245.599 146.397 246.019 145.906 246.044C145.891 246.046 145.874 246.046 145.86 246.046Z" fill="#40857E"/>
<path d="M145.197 209.149V174.672C145.197 170.141 148.838 166.457 153.366 166.406C166.96 166.257 194.999 166.251 217.939 168.184C221.07 168.448 223.504 171.012 223.617 174.154L225.762 207.487C225.922 211.896 222.436 215.579 218.025 215.662L153.092 216.896C148.758 216.978 145.197 213.486 145.197 209.149Z" fill="#4B9A91"/>
<path d="M153.07 178.403C153.011 181.336 153.099 185.99 153.171 188.997C153.208 190.563 154.581 191.755 156.136 191.572L167.323 190.261C168.812 190.087 169.864 188.712 169.641 187.229L168.269 178.067C168.074 176.766 166.957 175.805 165.642 175.805H155.727C154.283 175.807 153.099 176.959 153.07 178.403Z" fill="white"/>
<path opacity="0.37" d="M182.308 195.764L191.64 196.771C192.945 196.912 194.059 195.835 193.963 194.526L191.923 166.763C188.011 166.64 184.152 166.549 180.428 166.484V193.672C180.43 194.746 181.24 195.648 182.308 195.764Z" fill="white"/>
<path d="M186.133 190.952C186.163 191.451 186.576 191.835 187.069 191.835C187.088 191.835 187.107 191.835 187.124 191.833C187.642 191.804 188.037 191.359 188.007 190.843L186.599 166.614C185.967 166.6 185.342 166.585 184.717 166.57L186.133 190.952Z" fill="white"/>
<path d="M158.247 187.145C158.084 187.145 157.945 187.017 157.935 186.851L157.45 179.219C157.439 179.047 157.569 178.898 157.744 178.888C157.926 178.873 158.065 179.007 158.075 179.18L158.56 186.811C158.57 186.984 158.44 187.133 158.266 187.143C158.26 187.145 158.254 187.145 158.247 187.145Z" fill="#40857E"/>
<path d="M159.243 187.145C159.075 187.145 158.936 187.013 158.93 186.843L158.676 179.066C158.67 178.894 158.806 178.749 158.978 178.743C159.178 178.732 159.295 178.873 159.301 179.045L159.555 186.822C159.562 186.994 159.425 187.139 159.253 187.145C159.253 187.145 159.245 187.145 159.243 187.145Z" fill="#40857E"/>
<path d="M160.576 187.144C160.41 187.144 160.272 187.014 160.264 186.846C160.203 185.568 159.898 179.183 159.898 179.055C159.898 178.883 160.039 178.742 160.211 178.742C160.383 178.742 160.524 178.881 160.524 179.053C160.528 179.223 160.763 184.206 160.889 186.819C160.897 186.991 160.765 187.138 160.591 187.146C160.587 187.144 160.583 187.144 160.576 187.144ZM160.526 179.053H160.532H160.526Z" fill="#40857E"/>
<path d="M162.665 187.459C162.329 187.459 162.052 187.192 162.039 186.854C161.775 179.319 161.821 179.149 161.853 179.036C161.943 178.702 162.291 178.505 162.621 178.597C162.927 178.681 163.118 178.977 163.076 179.283C163.055 179.736 163.196 184.12 163.29 186.81C163.303 187.156 163.032 187.446 162.688 187.457C162.682 187.459 162.673 187.459 162.665 187.459Z" fill="#40857E"/>
<path d="M164.022 187.144C163.85 187.144 163.709 187.003 163.709 186.831V179.199C163.709 179.027 163.85 178.887 164.022 178.887C164.194 178.887 164.334 179.027 164.334 179.199V186.831C164.334 187.003 164.194 187.144 164.022 187.144Z" fill="#40857E"/>
<path d="M165.117 187.144C164.947 187.144 164.808 187.008 164.804 186.838C164.743 184.185 164.605 179.854 164.479 179.334C164.424 179.235 164.424 179.111 164.492 179.009C164.586 178.864 164.779 178.824 164.924 178.918C165.094 179.03 165.255 179.137 165.43 186.821C165.434 186.993 165.297 187.138 165.123 187.142H165.117V187.144Z" fill="#40857E"/>
<path d="M156.563 187.84C156.232 187.84 155.957 187.582 155.938 187.246L155.52 179.232C155.504 178.886 155.768 178.592 156.112 178.576C156.439 178.553 156.752 178.823 156.769 179.169L157.186 187.183C157.203 187.53 156.939 187.823 156.595 187.84C156.584 187.84 156.574 187.84 156.563 187.84Z" fill="#40857E"/>
<path d="M170.576 142.772L175.159 145.237C180.655 148.584 185.573 150.351 189.999 151.016C203.817 153.089 212.824 144.371 219.536 139.08C228.398 132.097 235.294 135.494 235.294 135.494L225.844 153.528C211.732 166.834 197.264 163.88 188.142 159.567C182.336 156.823 178.695 153.528 178.695 153.528C168.312 147.34 170.576 142.772 170.576 142.772Z" fill="url(#paint9_linear)"/>
<path d="M157.077 149.23C157.372 148.245 158.099 147.45 159.053 147.068L168.354 143.329C168.354 143.329 168.494 142.137 166.389 141.325C164.285 140.515 164.776 138.156 164.776 138.156C164.776 138.156 167.653 139.468 171.862 141.549C174.271 142.739 175.622 144.842 176.338 146.422L173.944 149.57C168.211 151.292 162.411 151.62 156.562 150.938L157.077 149.23Z" fill="url(#paint10_linear)"/>
<path d="M237.321 280.676C237.321 280.676 238.028 284.684 238.376 288.65C238.513 290.201 237.316 291.546 235.762 291.611C230.478 291.831 219.178 292.259 215.121 292.079C214.513 292.051 214.114 291.428 214.339 290.859C214.528 290.385 214.893 290.001 215.356 289.787L234.024 281.207L237.321 280.676Z" fill="#333333"/>
<path d="M237.901 278.317L237.332 283.112C237.332 283.112 234.063 284.633 231.83 282.921L233.184 277.578L237.901 278.317Z" fill="url(#paint11_linear)"/>
<path d="M238.814 185.031C239.06 186.33 238.374 253.018 231.829 281.464C231.722 281.928 231.046 282.839 231.279 283.24C231.848 284.211 236.028 283.938 238.386 284.02C239.117 284.045 239.509 283.189 239.715 282.461C241.584 275.862 250.549 242.795 251.718 211.209C253.025 175.914 251.718 210.007 251.718 210.007L252.299 187.646L238.814 185.031Z" fill="#2F625D"/>
<path d="M258.795 282.766C258.795 282.766 259.922 284.789 261.013 290.165C261.211 291.136 260.533 292.066 259.547 292.162C257.803 292.334 255.117 292.555 252.966 292.54C251.973 292.534 251.201 291.669 251.321 290.685C251.56 288.723 252.301 285.504 254.594 282.994L258.795 282.766Z" fill="#333333"/>
<path d="M259.787 276.598L258.458 283.848C258.458 283.848 257.145 284.826 254.545 284.116L255.179 276.316L259.787 276.598Z" fill="url(#paint12_linear)"/>
<path d="M262.979 187.634C268.33 221.35 262.213 273.55 260.018 283.26C259.884 283.854 259.424 284.309 258.847 284.41C257.867 284.58 256.252 284.718 254.661 284.235C254.113 284.07 253.727 283.553 253.704 282.957C253.41 275.107 253.939 226.911 248.953 207.863C248.701 206.898 248.135 206.057 247.354 205.477L239.147 198.79L238.994 184.367L262.979 187.634Z" fill="#2F625D"/>
<path d="M232.314 133.545C246.42 133.312 261.984 137.249 261.984 137.249C265.45 157.471 264.057 179.885 263.337 187.265C263.19 188.778 263.998 190.379 262.498 190.622C255.118 191.814 243.515 190.601 239.91 189.554C238.593 189.172 238.817 187.768 238.536 186.425C236.116 174.817 229.196 149.214 229.196 149.214C225.84 153.531 221.106 159.57 214.108 161.177C217.675 157.043 210.835 148.375 211.565 145.265C217.894 138.155 227.964 133.616 232.314 133.545Z" fill="#40857E"/>
<path d="M246.601 122.092L251.09 135.071C251.163 135.287 251.075 135.524 250.876 135.633C249.653 136.309 245.244 138.264 239.933 134.897C239.379 134.546 239.003 133.973 238.919 133.325L237.465 122.09H246.601V122.092Z" fill="url(#paint13_linear)"/>
<path d="M236.834 110.074C236.834 110.074 231.905 119.351 232.536 123.099C233.168 126.847 239.276 126.578 244.611 123.534L248.337 113.516L236.834 110.074Z" fill="url(#paint14_linear)"/>
<path d="M244.376 118.615C244.16 118.519 244.08 118.254 244.208 118.055C244.602 117.453 245.343 116.221 245.578 115.144C245.578 115.144 246.464 114.578 243.322 113.824C241.612 113.415 238.58 113.077 237.247 111.848C235.755 110.471 238.506 107.871 239.663 107.175C241.188 106.253 243.045 105.708 244.766 106.174C245.597 106.398 246.348 106.841 247.087 107.279C248.346 108.026 249.651 108.816 250.451 110.041C250.969 110.834 251.242 111.762 251.489 112.677C251.846 113.99 252.173 115.337 252.113 116.699C251.947 120.325 247.698 123.574 244.281 123.97C244.002 124.002 243.786 123.727 243.876 123.46L245.274 119.4C245.339 119.211 245.249 119.005 245.066 118.924L244.376 118.615Z" fill="#333333"/>
<path d="M243.816 119.192C243.816 119.192 247.324 116.785 247.58 118.812C247.836 120.839 244.42 121.75 242.729 120.992L243.816 119.192Z" fill="url(#paint15_linear)"/>
<path d="M235.041 107.797C242.241 94.1974 260.902 106.553 252.219 118.01C245.76 113.717 238.464 107.334 235.041 107.797Z" fill="#4B9A91"/>
<path d="M246.286 113.558L233.358 113.157C233.031 113.147 232.731 112.966 232.571 112.679C231.413 110.586 229.717 109.254 227.598 108.524C227.329 108.431 227.386 108.035 227.669 108.016L235.595 107.477C235.603 107.477 235.612 107.477 235.622 107.477C239.574 107.781 243.07 110.156 246.406 113.27C246.517 113.375 246.44 113.562 246.286 113.558Z" fill="#3D7E77"/>
<path d="M260.385 157.836C252.491 148.973 253.29 142.151 262.2 137.238C262.2 137.238 276.971 147.275 279.399 159.998C276.608 160.203 271.53 160.929 266.559 163.439C265.468 157.431 260.385 157.836 260.385 157.836Z" fill="#40857E"/>
<path d="M243.228 166.954C243.228 166.954 259.812 176.326 265.406 168.325C266.569 166.663 266.846 165.011 266.561 163.438C271.532 160.928 276.61 160.202 279.401 159.996C280.133 163.832 279.745 167.911 277.491 172.035C267.689 189.964 241.033 171.044 241.033 171.044L243.228 166.954Z" fill="url(#paint16_linear)"/>
<path d="M245.22 178.817L236.17 147.211C236.067 146.852 235.76 146.59 235.391 146.548C233.752 146.357 228.999 145.82 223.514 145.356C216.906 144.798 209.232 144.345 204.647 144.729C203.994 144.783 203.602 145.473 203.892 146.059C206.5 151.334 217.225 172.795 222.597 179.825C222.775 180.058 223.05 180.194 223.344 180.192L244.343 179.997C244.952 179.99 245.39 179.403 245.22 178.817Z" fill="#C5BA3E"/>
<path d="M222.576 142.612L216.014 141.518C215.663 141.46 215.378 141.793 215.489 142.131L216.14 144.1C216.196 144.272 216.345 144.395 216.524 144.419L222.838 145.262C223.165 145.306 223.434 145.008 223.358 144.687L222.955 142.968C222.913 142.784 222.762 142.643 222.576 142.612Z" fill="#C5BA3E"/>
<path d="M227.489 148.166L226.948 145.35C226.894 145.067 226.661 144.855 226.375 144.825L213.122 143.48C212.675 143.434 212.318 143.843 212.423 144.28L213.266 147.788C213.333 148.069 213.579 148.271 213.866 148.286L226.818 148.938C227.24 148.961 227.569 148.581 227.489 148.166Z" fill="#A49B34"/>
<path d="M243.032 171.179C243.032 171.179 244.293 165.995 243.783 164.155C243.276 162.317 242.289 159.952 239.005 160.477C235.721 161.001 231.848 162.386 231.848 162.386C231.848 162.386 232.043 164.783 234.54 164.008L232.991 165.206C232.991 165.206 233.212 167.124 235.321 166.1L233.881 167.689C233.881 167.689 234.785 169.265 236.338 168.253C237.891 167.242 238.634 171.802 243.032 171.179Z" fill="url(#paint17_linear)"/>
<path d="M248.291 151.441C249.326 151.525 258.082 151.804 258.082 151.804L257.73 160.618L253.195 163.176L248.293 160.618V151.441H248.291Z" fill="#36706A"/>
<path d="M247.596 151.441L258.061 151.804L258.489 155.187L253.041 156.601L247.252 154.022L247.596 151.441Z" fill="#36706A"/>
<path d="M452.724 263.199H311.441V271.771H452.724V263.199Z" fill="#084236"/>
<path d="M452.725 273.044H454.185C454.957 273.044 455.583 272.419 455.583 271.646V261.297H452.725V273.044Z" fill="url(#paint18_linear)"/>
<path d="M313.822 211.373C313.822 209.233 315.954 207.48 319.402 207.48H449.284C452.732 207.48 455.581 209.233 455.581 211.373V260.067C455.581 262.207 452.732 263.995 449.284 263.995H319.402C315.954 263.995 313.822 262.207 313.822 260.067V211.373Z" fill="#40857E"/>
<path d="M316.998 213.337C316.998 211.379 319.695 210.023 322.947 210.023H445.474C448.727 210.023 451.457 211.379 451.457 213.337V257.847C451.457 259.804 448.727 261.296 445.474 261.296H322.947C319.695 261.296 316.998 259.804 316.998 257.847V213.337Z" fill="#4B9A91"/>
<path d="M279.066 245.702L285.47 226.159C285.63 225.664 286.094 225.578 286.614 225.578C291.084 225.578 311.281 225.578 312.551 225.578V271.773H277.549L279.066 245.702Z" fill="#40857E"/>
<path d="M277.081 265.012C277.425 264.786 277.984 264.664 278.464 264.672L305.36 265.188L305.513 272.812L278.451 273.471C277.469 273.471 276.359 272.997 276.359 272.334V265.877C276.359 265.549 276.737 265.239 277.081 265.012Z" fill="#084236"/>
<path d="M284.064 244.536L287.935 229.215C288.07 228.682 288.55 228.277 289.102 228.277H304.24C304.565 228.277 304.876 228.439 305.103 228.674C305.329 228.907 305.451 229.238 305.442 229.564L305.079 241.848C305.063 242.425 304.639 242.912 304.068 243.004L285.421 246.02C285.021 246.085 284.616 245.944 284.343 245.646C284.07 245.344 283.965 244.928 284.064 244.536Z" fill="#ACD8D4"/>
<path d="M284.839 228.09L285.036 228.123C285.372 228.178 285.668 228.373 285.851 228.659C286.035 228.944 286.09 229.294 286.002 229.622L281.782 245.312C281.618 245.918 281.016 246.298 280.399 246.182L279.066 245.933L284.839 228.09Z" fill="#ACD8D4"/>
<path d="M305.251 248.259C305.251 247.657 304.762 247.168 304.16 247.168H299.359C298.757 247.168 298.268 247.657 298.268 248.259V248.456C298.268 249.059 298.757 249.548 299.359 249.548H304.16C304.762 249.548 305.251 249.059 305.251 248.456V248.259Z" fill="#ACD8D4"/>
<path d="M310.563 211.647C310.965 211.617 311.576 211.689 311.872 211.964C312.168 212.239 312.55 212.557 312.55 212.962V225.578H296.656C296.658 225.578 297.502 212.599 310.563 211.647Z" fill="#40857E"/>
<path d="M296.263 285.224C302.999 285.224 308.461 279.763 308.461 273.026C308.461 266.289 302.999 260.828 296.263 260.828C289.526 260.828 284.064 266.289 284.064 273.026C284.064 279.763 289.526 285.224 296.263 285.224Z" fill="#03352B"/>
<path d="M305.905 275.33C307.162 270.005 303.865 264.669 298.54 263.412C293.215 262.155 287.88 265.452 286.622 270.777C285.365 276.101 288.662 281.437 293.987 282.695C299.312 283.952 304.647 280.655 305.905 275.33Z" fill="#40857E"/>
<path d="M287.943 276.646C287.863 276.646 287.786 276.598 287.752 276.52C287.284 275.412 287.047 274.237 287.047 273.026C287.047 268.076 291.074 264.047 296.026 264.047C297.562 264.047 299.077 264.441 300.41 265.188C300.508 265.245 300.544 265.371 300.489 265.47C300.433 265.57 300.307 265.606 300.208 265.549C298.939 264.838 297.493 264.462 296.028 264.462C291.305 264.462 287.464 268.305 287.464 273.026C287.464 274.182 287.691 275.305 288.138 276.36C288.182 276.465 288.134 276.587 288.029 276.631C287.995 276.642 287.968 276.646 287.943 276.646Z" fill="#BDD0FB"/>
<path d="M291.719 273.027C291.719 275.537 293.752 277.571 296.262 277.571C298.772 277.571 300.805 275.537 300.805 273.027C300.805 270.518 298.772 268.484 296.262 268.484C293.752 268.484 291.719 270.518 291.719 273.027Z" fill="#03352B"/>
<path d="M412.315 285.564C419.052 285.564 424.513 280.103 424.513 273.366C424.513 266.629 419.052 261.168 412.315 261.168C405.578 261.168 400.117 266.629 400.117 273.366C400.117 280.103 405.578 285.564 412.315 285.564Z" fill="#03352B"/>
<path d="M422.186 274C422.528 268.54 418.378 263.836 412.918 263.494C407.458 263.152 402.754 267.301 402.412 272.762C402.07 278.222 406.219 282.926 411.68 283.268C417.14 283.61 421.844 279.46 422.186 274Z" fill="#40857E"/>
<path d="M403.992 276.988C403.912 276.988 403.834 276.939 403.801 276.862C403.333 275.754 403.096 274.579 403.096 273.366C403.096 268.416 407.123 264.387 412.073 264.387C413.609 264.387 415.124 264.781 416.456 265.528C416.555 265.585 416.591 265.711 416.536 265.809C416.479 265.908 416.354 265.946 416.255 265.889C414.985 265.178 413.54 264.802 412.075 264.802C407.351 264.802 403.511 268.644 403.511 273.366C403.511 274.522 403.738 275.645 404.185 276.7C404.229 276.805 404.181 276.927 404.076 276.971C404.046 276.981 404.019 276.988 403.992 276.988Z" fill="#BDD0FB"/>
<path d="M412.315 277.91C414.824 277.91 416.858 275.876 416.858 273.367C416.858 270.858 414.824 268.824 412.315 268.824C409.806 268.824 407.771 270.858 407.771 273.367C407.771 275.876 409.806 277.91 412.315 277.91Z" fill="#03352B"/>
<path d="M343.567 285.564C350.304 285.564 355.765 280.103 355.765 273.366C355.765 266.629 350.304 261.168 343.567 261.168C336.83 261.168 331.369 266.629 331.369 273.366C331.369 280.103 336.83 285.564 343.567 285.564Z" fill="#03352B"/>
<path d="M353.405 274.344C353.944 268.899 349.967 264.049 344.523 263.51C339.078 262.971 334.228 266.947 333.689 272.392C333.15 277.836 337.127 282.687 342.571 283.226C348.015 283.765 352.866 279.788 353.405 274.344Z" fill="#40857E"/>
<path d="M335.248 276.988C335.168 276.988 335.09 276.939 335.057 276.862C334.589 275.754 334.352 274.579 334.352 273.366C334.352 268.416 338.378 264.387 343.329 264.387C344.865 264.387 346.38 264.781 347.712 265.528C347.811 265.585 347.847 265.711 347.792 265.809C347.735 265.908 347.609 265.946 347.511 265.889C346.241 265.178 344.795 264.802 343.331 264.802C338.607 264.802 334.767 268.644 334.767 273.366C334.767 274.522 334.994 275.645 335.441 276.7C335.485 276.805 335.436 276.927 335.332 276.971C335.3 276.981 335.273 276.988 335.248 276.988Z" fill="#BDD0FB"/>
<path d="M343.568 277.91C346.078 277.91 348.112 275.876 348.112 273.367C348.112 270.858 346.078 268.824 343.568 268.824C341.059 268.824 339.025 270.858 339.025 273.367C339.025 275.876 341.059 277.91 343.568 277.91Z" fill="#03352B"/>
<path d="M440.218 285.564C446.955 285.564 452.416 280.103 452.416 273.366C452.416 266.629 446.955 261.168 440.218 261.168C433.481 261.168 428.02 266.629 428.02 273.366C428.02 280.103 433.481 285.564 440.218 285.564Z" fill="#03352B"/>
<path d="M450.092 274.004C450.434 268.543 446.285 263.84 440.824 263.498C435.364 263.156 430.66 267.305 430.318 272.765C429.976 278.226 434.126 282.93 439.586 283.272C445.046 283.613 449.75 279.464 450.092 274.004Z" fill="#40857E"/>
<path d="M431.898 276.988C431.818 276.988 431.741 276.939 431.707 276.862C431.239 275.754 431.002 274.579 431.002 273.366C431.002 268.416 435.029 264.387 439.981 264.387C441.517 264.387 443.032 264.781 444.365 265.528C444.463 265.585 444.499 265.711 444.444 265.809C444.388 265.908 444.262 265.946 444.163 265.889C442.894 265.178 441.448 264.802 439.983 264.802C435.26 264.802 431.42 268.644 431.42 273.366C431.42 274.522 431.646 275.645 432.093 276.7C432.137 276.805 432.089 276.927 431.984 276.971C431.953 276.981 431.925 276.988 431.898 276.988Z" fill="#BDD0FB"/>
<path d="M440.219 277.91C442.728 277.91 444.762 275.876 444.762 273.367C444.762 270.858 442.728 268.824 440.219 268.824C437.71 268.824 435.676 270.858 435.676 273.367C435.676 275.876 437.71 277.91 440.219 277.91Z" fill="#03352B"/>
<path d="M282.866 258.212C282.866 257.547 282.327 257.008 281.662 257.008H278.355C277.69 257.008 277.15 257.547 277.15 258.212V261.836C277.15 262.501 277.69 263.041 278.355 263.041H281.662C282.327 263.041 282.866 262.501 282.866 261.836V258.212Z" fill="#084236"/>
<path opacity="0.8" d="M280.643 257.008V263.993H281.501C282.166 263.993 283.341 263.286 283.341 262.623V258.661C283.341 257.996 282.164 257.01 281.501 257.01H280.643V257.008Z" fill="#ACD8D4"/>
<path d="M310.647 256.58C310.534 256.58 310.439 256.487 310.439 256.372V228.274C310.439 228.161 310.532 228.066 310.647 228.066C310.763 228.066 310.855 228.159 310.855 228.274V256.372C310.853 256.487 310.761 256.58 310.647 256.58Z" fill="#91B3FA"/>
<path d="M299.541 224.071C299.518 224.071 299.494 224.067 299.473 224.061C299.366 224.023 299.308 223.905 299.345 223.798C300.418 220.691 302.535 216.59 306.535 214.712C308.939 213.581 310.86 213.793 310.941 213.804C311.055 213.816 311.137 213.919 311.122 214.032C311.109 214.146 311.006 214.23 310.893 214.213C310.874 214.211 308.99 214.007 306.688 215.096C302.835 216.92 300.781 220.909 299.738 223.933C299.706 224.019 299.627 224.071 299.541 224.071Z" fill="#4B9A91"/>
<defs>
<linearGradient id="paint0_linear" x1="126.227" y1="109.307" x2="93.8438" y2="161.206" gradientUnits="userSpaceOnUse">
<stop stop-color="#FF928E"/>
<stop offset="1" stop-color="#FEB3B1"/>
</linearGradient>
<linearGradient id="paint1_linear" x1="87.2297" y1="119.372" x2="67.0848" y2="168.895" gradientUnits="userSpaceOnUse">
<stop stop-color="#FF928E"/>
<stop offset="1" stop-color="#FEB3B1"/>
</linearGradient>
<linearGradient id="paint2_linear" x1="76.7499" y1="138.162" x2="86.8739" y2="109.864" gradientUnits="userSpaceOnUse">
<stop stop-color="#FF928E"/>
<stop offset="1" stop-color="#FEB3B1"/>
</linearGradient>
<linearGradient id="paint3_linear" x1="70.3314" y1="135.866" x2="80.4555" y2="107.568" gradientUnits="userSpaceOnUse">
<stop stop-color="#FF928E"/>
<stop offset="1" stop-color="#FEB3B1"/>
</linearGradient>
<linearGradient id="paint4_linear" x1="83.9443" y1="256.766" x2="19.3128" y2="267.258" gradientUnits="userSpaceOnUse">
<stop stop-color="#FF928E"/>
<stop offset="1" stop-color="#FEB3B1"/>
</linearGradient>
<linearGradient id="paint5_linear" x1="132.309" y1="217.592" x2="94.9566" y2="248.649" gradientUnits="userSpaceOnUse">
<stop stop-color="#FF928E"/>
<stop offset="1" stop-color="#FEB3B1"/>
</linearGradient>
<linearGradient id="paint6_linear" x1="56.6165" y1="187.158" x2="121.453" y2="91.0266" gradientUnits="userSpaceOnUse">
<stop stop-color="#FF928E"/>
<stop offset="1" stop-color="#FEB3B1"/>
</linearGradient>
<linearGradient id="paint7_linear" x1="144.189" y1="69.2128" x2="223.378" y2="87.1682" gradientUnits="userSpaceOnUse">
<stop stop-color="#50E7B7"/>
<stop offset="0.9964" stop-color="#323992"/>
</linearGradient>
<linearGradient id="paint8_linear" x1="142.272" y1="66.7864" x2="221.462" y2="84.7417" gradientUnits="userSpaceOnUse">
<stop stop-color="#50E7B7"/>
<stop offset="0.9964" stop-color="#323992"/>
</linearGradient>
<linearGradient id="paint9_linear" x1="227.644" y1="148.566" x2="167.167" y2="150.737" gradientUnits="userSpaceOnUse">
<stop stop-color="#FF928E"/>
<stop offset="1" stop-color="#FEB3B1"/>
</linearGradient>
<linearGradient id="paint10_linear" x1="227.424" y1="142.431" x2="166.946" y2="144.602" gradientUnits="userSpaceOnUse">
<stop stop-color="#FF928E"/>
<stop offset="1" stop-color="#FEB3B1"/>
</linearGradient>
<linearGradient id="paint11_linear" x1="237.901" y1="280.656" x2="231.83" y2="280.656" gradientUnits="userSpaceOnUse">
<stop stop-color="#F9B776"/>
<stop offset="1" stop-color="#F47960"/>
</linearGradient>
<linearGradient id="paint12_linear" x1="259.786" y1="280.344" x2="254.544" y2="280.344" gradientUnits="userSpaceOnUse">
<stop stop-color="#F9B776"/>
<stop offset="1" stop-color="#F47960"/>
</linearGradient>
<linearGradient id="paint13_linear" x1="240.754" y1="106.153" x2="249.987" y2="167.007" gradientUnits="userSpaceOnUse">
<stop stop-color="#FF928E"/>
<stop offset="1" stop-color="#FEB3B1"/>
</linearGradient>
<linearGradient id="paint14_linear" x1="312.129" y1="-480.734" x2="308.902" y2="-453.801" gradientUnits="userSpaceOnUse">
<stop stop-color="#FF928E"/>
<stop offset="1" stop-color="#FEB3B1"/>
</linearGradient>
<linearGradient id="paint15_linear" x1="317.086" y1="-480.136" x2="313.859" y2="-453.202" gradientUnits="userSpaceOnUse">
<stop stop-color="#FF928E"/>
<stop offset="1" stop-color="#FEB3B1"/>
</linearGradient>
<linearGradient id="paint16_linear" x1="241.36" y1="178.931" x2="296.339" y2="157.107" gradientUnits="userSpaceOnUse">
<stop stop-color="#FF928E"/>
<stop offset="1" stop-color="#FEB3B1"/>
</linearGradient>
<linearGradient id="paint17_linear" x1="2162.83" y1="1375.84" x2="2114.15" y2="1345.2" gradientUnits="userSpaceOnUse">
<stop stop-color="#FF928E"/>
<stop offset="1" stop-color="#FEB3B1"/>
</linearGradient>
<linearGradient id="paint18_linear" x1="454.782" y1="264.106" x2="450.715" y2="279.996" gradientUnits="userSpaceOnUse">
<stop stop-color="#09005D"/>
<stop offset="1" stop-color="#1A0F91"/>
</linearGradient>
</defs>
</svg>
