<svg width="18" height="20" viewBox="0 0 18 20" fill="none" xmlns="http://www.w3.org/2000/svg">
<path d="M7.3628 10.9072C6.80333 10.3478 6.24177 9.78828 5.6823 9.22672C4.79386 8.34069 3.90751 7.45259 3.01906 6.56657C2.81372 6.36066 2.60837 6.15683 2.40302 5.95093C2.40302 6.04868 2.40302 6.14643 2.40302 6.24419C2.96458 5.69094 3.52615 5.1377 4.08562 4.58445C4.97406 3.70883 5.8625 2.83321 6.74885 1.95758C6.95211 1.75584 7.15745 1.55409 7.36071 1.35442C7.55139 1.16515 7.25594 0.871892 7.06526 1.06116C6.50369 1.6144 5.94213 2.16765 5.38266 2.72089C4.49422 3.59652 3.60577 4.47214 2.71942 5.34777C2.51617 5.54951 2.31082 5.75126 2.10757 5.95093C2.02795 6.02996 2.02795 6.16515 2.10757 6.24419C2.66704 6.80367 3.2286 7.36316 3.78807 7.92472C4.67651 8.81074 5.56286 9.69885 6.45131 10.5849C6.65666 10.7908 6.862 10.9946 7.06735 11.2005C7.25803 11.3919 7.55348 11.0965 7.3628 10.9072Z" fill="#333333" stroke="#333333" stroke-width="1.5" stroke-linejoin="round"/>
<path d="M2.27124 6.30502C2.96481 6.30502 3.66048 6.3071 4.35405 6.3071C5.66786 6.30918 6.97957 6.31126 8.29338 6.31126C9.07077 6.31126 9.84606 6.31334 10.6234 6.31334C12.3102 6.31542 13.9342 7.00386 15.1013 8.21434C16.3585 9.51634 16.9767 11.3258 16.786 13.1166C16.5974 14.8824 15.5895 16.5213 14.1123 17.5176C13.3663 18.0209 12.5198 18.3599 11.6292 18.5055C11.229 18.5721 10.8267 18.5825 10.4223 18.5825C9.49403 18.5825 8.56368 18.5825 7.63543 18.5825C6.31743 18.5825 4.99733 18.5825 3.67934 18.5825C2.81604 18.5825 1.95274 18.5825 1.09153 18.5825C1.04963 18.5825 1.00562 18.5825 0.963715 18.5825C0.69341 18.5825 0.69341 18.9984 0.963715 18.9984C1.59652 18.9984 2.23142 18.9984 2.86423 18.9984C4.17385 18.9984 5.48137 18.9984 6.79099 18.9984C7.88478 18.9984 8.97857 18.9984 10.0745 18.9984C10.263 18.9984 10.4516 18.9984 10.6402 18.9984C11.5685 18.9964 12.4842 18.8008 13.3307 18.4244C15.028 17.6736 16.3543 16.1948 16.9264 14.4415C17.5131 12.6424 17.2637 10.6249 16.26 9.01925C15.2794 7.44687 13.6345 6.31542 11.7969 5.99513C10.9482 5.84745 10.0682 5.89113 9.20906 5.89113C7.91621 5.88905 6.62126 5.88697 5.32841 5.88697C4.36034 5.88489 3.39436 5.88489 2.4263 5.88281C2.37601 5.88281 2.32362 5.88281 2.27333 5.88281C2.00303 5.88905 2.00303 6.30502 2.27124 6.30502Z" fill="#333333" stroke="#333333" stroke-width="1.5" stroke-linejoin="round"/>
</svg>
