<svg width="45" height="45" viewBox="0 0 45 45" fill="none" xmlns="http://www.w3.org/2000/svg">
<rect width="45" height="45" rx="3" fill="#D6CD56"/>
<path d="M30.4556 19.9217L32.3609 19.8375C32.6923 19.7533 33.0237 19.4163 33.0237 18.9951V16.6365H12.4793C12.0651 16.6365 11.7337 16.2996 11.7337 15.9626C11.7337 15.5414 12.0651 15.2045 12.4793 15.2045H16.2899L18.9408 13.941H11.3195C10.8225 13.941 10.4083 14.3621 10.4083 14.8676V32.7256C10.4083 33.231 10.8225 33.6522 11.3195 33.6522H32.1124C32.6095 33.6522 33.0237 33.231 33.0237 32.7256V28.5981C33.0237 28.0926 32.6095 27.6715 32.1124 27.6715C31.2012 27.6715 30.2899 27.6715 29.2959 27.6715C28.0533 27.6715 27.0592 26.6606 27.0592 25.3128V22.1961C27.0592 20.0902 28.7988 19.9217 30.4556 19.9217ZM19.5207 15.2045H28.6331L26.8935 11.6666L19.5207 15.2045ZM30.2071 15.2045H33.0237V14.8676C33.0237 14.3621 32.6095 13.941 32.1124 13.941H29.5444L30.2071 15.2045ZM28.8817 12.5089H32.1124C33.355 12.5089 34.3491 13.604 34.3491 14.8676C34.3491 16.2153 34.3491 17.6473 34.3491 18.9951C34.3491 19.3321 34.3491 19.5848 34.1834 19.9217H34.6805C35.9231 19.9217 37 20.9326 37 22.1961V25.3128C37 26.5764 35.9231 27.6715 34.6805 27.6715H34.1834C34.3491 27.9242 34.3491 28.2611 34.3491 28.5981V32.7256C34.3491 33.9892 33.355 35 32.1124 35H11.3195C10.0769 35 9 33.9892 9 32.7256V14.8676C9 13.604 10.0769 12.5089 11.3195 12.5089H21.8402L26.9763 10.0661C27.3077 9.89762 27.7219 10.0661 27.8876 10.403L28.8817 12.5089ZM34.6805 21.3537C32.858 21.3537 31.1183 21.3537 29.2959 21.3537C28.7988 21.3537 28.4675 21.6907 28.4675 22.1961V25.3128C28.4675 25.8183 28.7988 26.2394 29.2959 26.2394C31.1183 26.2394 32.858 26.2394 34.6805 26.2394C35.1775 26.2394 35.5917 25.8183 35.5917 25.3128V22.1961C35.5917 21.6907 35.1775 21.3537 34.6805 21.3537Z" fill="white"/>
</svg>
