<svg width="14" height="20" viewBox="0 0 14 20" fill="none" xmlns="http://www.w3.org/2000/svg">
<path d="M0.605225 7.3892C0.605225 9.73119 1.65267 12.3868 3.71861 15.2824C5.24779 17.4256 6.80017 18.9115 6.81582 18.9264C6.86747 18.9755 6.93371 19 6.99996 19C7.06908 19 7.1382 18.9734 7.19036 18.9204C7.20575 18.9046 8.75579 17.3237 10.2829 15.1349C12.3478 12.1756 13.3947 9.56949 13.3947 7.3892C13.3947 3.86618 10.526 1 6.99996 1C3.47396 1 0.605225 3.86618 0.605225 7.3892ZM12.8605 7.3892C12.8605 11.8467 8.01063 17.2656 6.99448 18.3518C5.9679 17.3143 1.13938 12.1778 1.13938 7.3892C1.13938 4.16053 3.76843 1.5337 6.99996 1.5337C10.2315 1.5337 12.8605 4.16053 12.8605 7.3892Z" fill="#3D857E" stroke="#3D857E"/>
<circle cx="7" cy="7.5" r="2.5" stroke="#3D857E" stroke-width="1.6"/>
</svg>
