<svg width="17" height="17" viewBox="0 0 17 17" fill="none" xmlns="http://www.w3.org/2000/svg">
<path d="M6.12426 -9.34601e-05L4.67601 0.388406L5.26626 2.59266C4.38273 2.91851 3.56159 3.39338 2.83851 3.99666L1.22376 2.38116L0.162506 3.44241L1.77801 5.05716C0.866063 6.14934 0.253322 7.45958 -0.000244141 8.85966L1.47576 9.12891C2.04501 5.97741 4.80201 3.58641 8.11776 3.58641C11.4328 3.58641 14.1905 5.97741 14.7598 9.12891L16.2358 8.86041C15.9825 7.46014 15.37 6.14963 14.4583 5.05716L16.073 3.44241L15.0118 2.38116L13.397 3.99666C12.6739 3.39338 11.8528 2.91851 10.9693 2.59266L11.5595 0.387656L10.1113 -9.34601e-05L9.52026 2.20491C8.59202 2.04585 7.64349 2.04585 6.71526 2.20491L6.12426 -9.34601e-05Z" fill="#A4A4A4"/>
<path d="M15.4697 8.78809C15.4697 12.6541 12.1777 15.7881 8.11669 15.7881C4.05573 15.7881 0.763672 12.6541 0.763672 8.78809" stroke="#A4A4A4" stroke-width="1.5"/>
<circle cx="8.11768" cy="9.12891" r="2.5" fill="#A4A4A4"/>
</svg>
