<svg width="62" height="50" viewBox="0 0 62 50" fill="none" xmlns="http://www.w3.org/2000/svg">
<g opacity="0.5">
<path d="M4.2904 0C1.85624 5.48542 0.370246 13.0832 5.04894 20.5987C13.8841 34.7887 37.0071 22.6443 48.8826 24.194C59.0778 25.5245 50.8364 40.2337 62 49.1496" stroke="#D6CD56" stroke-width="0.75" stroke-miterlimit="10" stroke-linecap="round" stroke-linejoin="round"/>
<path d="M46.9878 4.21484C46.9878 4.21484 45.5018 13.0158 31.2963 16.7214" stroke="#D6CD56" stroke-width="0.75" stroke-miterlimit="10" stroke-linecap="round" stroke-linejoin="round"/>
<path d="M38.0938 14.152C38.0938 14.152 35.4777 15.4173 32.0938 13.793" stroke="#D6CD56" stroke-width="0.75" stroke-miterlimit="10" stroke-linecap="round" stroke-linejoin="round"/>
<path d="M31.2553 16.658C31.26 16.658 30.5543 15.0336 27.4984 15.7875C24.4969 16.5616 23.4042 18.9709 23.3669 18.96C23.3637 18.9507 25.285 19.6501 27.7378 19.3719C30.1642 19.0875 31.2243 16.6564 31.2553 16.658Z" stroke="#D6CD56" stroke-width="0.75" stroke-miterlimit="10" stroke-linecap="round" stroke-linejoin="round"/>
<path d="M31.2561 16.6578C31.2623 16.6532 29.5976 16.4931 27.3375 17.3278C25.0914 18.164 23.3738 18.9614 23.3676 18.9583" stroke="#D6CD56" stroke-width="0.75" stroke-miterlimit="10" stroke-linecap="round" stroke-linejoin="round"/>
<path d="M37.9361 15.6485C37.9423 15.6174 36.3584 15.479 35.2439 18.0407C34.1372 20.4919 35.2563 22.6416 35.2579 22.6883C35.261 22.7023 36.7687 21.8147 37.8661 19.7754C38.9728 17.7484 37.9438 15.6391 37.9361 15.6485Z" stroke="#D6CD56" stroke-width="0.75" stroke-miterlimit="10" stroke-linecap="round" stroke-linejoin="round"/>
<path d="M37.9351 15.6485C37.9335 15.6407 36.8796 16.8469 36.233 18.9515C35.5833 21.0531 35.2584 22.6836 35.2569 22.6867" stroke="#D6CD56" stroke-width="0.75" stroke-miterlimit="10" stroke-linecap="round" stroke-linejoin="round"/>
<path d="M44.6544 15.3487C44.6435 15.3783 43.2399 16.415 44.3217 19.1601C45.3756 21.9953 47.9916 23.0787 47.9979 23.0383C47.9979 23.0414 48.346 20.9367 47.7321 18.4311C47.1274 15.8928 44.659 15.3192 44.6544 15.3487Z" stroke="#D6CD56" stroke-width="0.75" stroke-miterlimit="10" stroke-linecap="round" stroke-linejoin="round"/>
<path d="M44.6551 15.3496C44.6535 15.362 44.7359 16.9475 45.8224 19.1221C46.9027 21.3169 47.9939 23.0485 47.9985 23.0391" stroke="#D6CD56" stroke-width="0.75" stroke-miterlimit="10" stroke-linecap="round" stroke-linejoin="round"/>
<path d="M31.9343 13.7974C31.9188 13.8037 32.239 12.2695 29.9385 11.085C27.579 9.92858 25.4168 11.0555 25.4401 11.0353C25.4541 11.0337 26.4489 12.4234 28.2131 13.5938C30.0069 14.7736 31.9437 13.8052 31.9343 13.7974Z" stroke="#D6CD56" stroke-width="0.75" stroke-miterlimit="10" stroke-linecap="round" stroke-linejoin="round"/>
<path d="M31.9338 13.7973C31.9261 13.8004 30.9282 12.7341 29.0132 12.03C27.0919 11.3243 25.4381 11.0352 25.4396 11.0352" stroke="#D6CD56" stroke-width="0.75" stroke-miterlimit="10" stroke-linecap="round" stroke-linejoin="round"/>
<path d="M38.2133 11.0622C38.2024 11.0669 38.4402 9.92595 36.7288 9.04462C34.9739 8.18504 33.3667 9.02286 33.3838 9.00731C33.3931 9.00576 34.1346 10.041 35.4449 10.9114C36.7786 11.7897 38.2195 11.0684 38.2133 11.0622Z" stroke="#D6CD56" stroke-width="0.75" stroke-miterlimit="10" stroke-linecap="round" stroke-linejoin="round"/>
<path d="M38.2141 11.0627C38.2094 11.0643 37.4665 10.2731 36.0411 9.7477C34.6126 9.22387 33.3831 9.00781 33.3831 9.00781" stroke="#D6CD56" stroke-width="0.75" stroke-miterlimit="10" stroke-linecap="round" stroke-linejoin="round"/>
<path d="M39.781 13.1777C39.781 13.1777 39.0333 13.3114 37.8411 15.7829" stroke="#D6CD56" stroke-width="0.75" stroke-miterlimit="10" stroke-linecap="round" stroke-linejoin="round"/>
<path d="M43.9614 9.67773C43.9614 9.67773 43.4034 12.1057 44.6609 15.2113" stroke="#D6CD56" stroke-width="0.75" stroke-miterlimit="10" stroke-linecap="round" stroke-linejoin="round"/>
<path d="M42.8093 10.8555C42.8093 10.8555 40.5275 12.015 38.3296 11.0591" stroke="#D6CD56" stroke-width="0.75" stroke-miterlimit="10" stroke-linecap="round" stroke-linejoin="round"/>
<g opacity="0.5">
<path d="M13.5958 19.6259C13.4078 19.4658 13.3751 19.214 13.386 18.9373C13.3767 18.5876 13.4435 18.4679 14 18.7974C14.5502 19.1736 14.4507 19.6088 14.3062 19.6834C14.0528 19.8559 13.7513 19.7627 13.5958 19.6259Z" fill="#D6CD56"/>
<path d="M12.1386 17.7431C11.9505 17.583 11.9178 17.3312 11.9287 17.0545C11.9194 16.7048 11.9862 16.5851 12.5427 16.9146C13.093 17.2892 12.9935 17.726 12.8489 17.8006C12.5955 17.9716 12.294 17.8783 12.1386 17.7431Z" fill="#D6CD56"/>
<path d="M14.1465 17.8173C13.9584 17.6572 13.9274 17.4054 13.9382 17.1287C13.9289 16.779 13.9958 16.6593 14.5522 16.9888C15.1025 17.365 15.003 17.8002 14.8584 17.8748C14.6035 18.0458 14.302 17.9525 14.1465 17.8173Z" fill="#D6CD56"/>
<path d="M12.3202 15.8173C12.1321 15.6572 12.0995 15.4054 12.1104 15.1287C12.101 14.779 12.1679 14.6593 12.7243 14.9888C13.2746 15.365 13.1751 15.8002 13.0306 15.8748C12.7772 16.0458 12.4756 15.9525 12.3202 15.8173Z" fill="#D6CD56"/>
<path d="M10.1702 16.0068C9.98212 15.8467 9.95104 15.5948 9.96192 15.3182C9.95259 14.9684 10.0194 14.8487 10.5759 15.1783C11.1262 15.5544 11.0267 15.9897 10.8821 16.0643C10.6256 16.2353 10.3241 16.1435 10.1702 16.0068Z" fill="#D6CD56"/>
<path d="M11.5526 19.7802C11.3646 19.6201 11.3335 19.3683 11.3428 19.0916C11.3335 18.7419 11.4003 18.6222 11.9568 18.9517C12.5086 19.3279 12.4075 19.7631 12.263 19.8377C12.0096 20.0087 11.7081 19.9154 11.5526 19.7802Z" fill="#D6CD56"/>
<path d="M10.0132 18.3755C9.82515 18.2154 9.79406 17.9636 9.80494 17.6854C9.79561 17.3356 9.86245 17.2159 10.4189 17.5455C10.9692 17.9216 10.8697 18.3584 10.7251 18.4315C10.4702 18.604 10.1687 18.5107 10.0132 18.3755Z" fill="#D6CD56"/>
<path d="M10.8661 23.8759C10.678 23.7158 10.6454 23.464 10.6563 23.1873C10.6469 22.8376 10.7138 22.7179 11.2702 23.0474C11.8205 23.4236 11.721 23.8588 11.5765 23.9334C11.3231 24.1044 11.0215 24.0111 10.8661 23.8759Z" fill="#D6CD56"/>
<path d="M9.40858 21.9931C9.2205 21.833 9.18785 21.5812 9.19873 21.3045C9.18941 20.9548 9.25625 20.8351 9.81272 21.1646C10.363 21.5408 10.2635 21.9775 10.1189 22.0506C9.86557 22.2216 9.56402 22.1283 9.40858 21.9931Z" fill="#D6CD56"/>
<path d="M11.4166 22.0669C11.2286 21.9068 11.1959 21.655 11.2068 21.3768C11.1975 21.027 11.2643 20.9073 11.8208 21.2369C12.371 21.613 12.2715 22.0498 12.127 22.1229C11.8736 22.2954 11.5721 22.2021 11.4166 22.0669Z" fill="#D6CD56"/>
<path d="M9.59193 20.0654C9.40385 19.9052 9.37121 19.6534 9.38209 19.3768C9.37276 19.027 9.4396 18.9073 9.99607 19.2369C10.5463 19.613 10.4468 20.0483 10.3023 20.1229C10.0474 20.2954 9.74581 20.2021 9.59193 20.0654Z" fill="#D6CD56"/>
<path d="M7.44032 20.2564C7.25224 20.0963 7.21959 19.8444 7.23047 19.5662C7.22115 19.2165 7.28799 19.0968 7.84446 19.4263C8.39471 19.8025 8.29523 20.2393 8.15067 20.3123C7.89731 20.4849 7.59575 20.3916 7.44032 20.2564Z" fill="#D6CD56"/>
<path d="M8.8224 24.0309C8.63432 23.8708 8.60167 23.6189 8.61255 23.3423C8.60323 22.9925 8.67007 22.8713 9.22654 23.2024C9.77679 23.5785 9.67731 24.0138 9.53275 24.0884C9.27939 24.2594 8.97783 24.1661 8.8224 24.0309Z" fill="#D6CD56"/>
<path d="M7.28334 22.6239C7.09526 22.4638 7.06261 22.212 7.0735 21.9354C7.06417 21.5856 7.131 21.4659 7.68747 21.7955C8.23773 22.1716 8.13825 22.6068 7.99369 22.6815C7.74032 22.854 7.43878 22.7607 7.28334 22.6239Z" fill="#D6CD56"/>
<path d="M7.67592 18.3935C7.48784 18.2334 7.45519 17.9816 7.46607 17.7049C7.45675 17.3551 7.52358 17.2355 8.08005 17.565C8.6303 17.9411 8.53082 18.3764 8.38627 18.451C8.1329 18.6235 7.83135 18.5303 7.67592 18.3935Z" fill="#D6CD56"/>
<path d="M6.21864 16.5103C6.03056 16.3502 5.99791 16.0984 6.00879 15.8201C5.99947 15.4704 6.06631 15.3507 6.62278 15.6802C7.17303 16.0564 7.07355 16.4932 6.92899 16.5662C6.67563 16.7388 6.37407 16.6455 6.21864 16.5103Z" fill="#D6CD56"/>
<path d="M8.2266 16.5845C8.03852 16.4244 8.00588 16.1726 8.01831 15.8943C8.00899 15.5446 8.07583 15.4249 8.6323 15.7544C9.18255 16.1306 9.08307 16.5674 8.93851 16.6404C8.68359 16.813 8.38204 16.7197 8.2266 16.5845Z" fill="#D6CD56"/>
<path d="M6.40043 14.5849C6.21235 14.4248 6.18126 14.173 6.19214 13.8963C6.18282 13.5466 6.24966 13.4269 6.80613 13.7564C7.35638 14.1326 7.2569 14.5678 7.11234 14.6424C6.85742 14.8134 6.55587 14.7201 6.40043 14.5849Z" fill="#D6CD56"/>
<path d="M4.25037 14.7743C4.06229 14.6142 4.02965 14.3624 4.04053 14.0857C4.03121 13.736 4.09805 13.6163 4.65451 13.9458C5.20477 14.322 5.10529 14.7572 4.96073 14.8318C4.70736 15.0044 4.40426 14.9111 4.25037 14.7743Z" fill="#D6CD56"/>
<path d="M5.63236 18.5493C5.44428 18.3892 5.41164 18.1374 5.42408 17.8592C5.41475 17.5094 5.48159 17.3898 6.03806 17.7193C6.58831 18.0954 6.48883 18.5322 6.34427 18.6053C6.08935 18.7778 5.7878 18.6846 5.63236 18.5493Z" fill="#D6CD56"/>
<path d="M4.09315 17.1435C3.90507 16.9834 3.87242 16.7316 3.88331 16.4549C3.87398 16.1051 3.94082 15.9855 4.49729 16.315C5.04754 16.6911 4.94806 17.1264 4.8035 17.201C4.55014 17.372 4.24859 17.2787 4.09315 17.1435Z" fill="#D6CD56"/>
<path d="M4.72767 22.7118C4.53959 22.5517 4.50695 22.2999 4.51783 22.0232C4.5085 21.6735 4.57534 21.5538 5.13181 21.8833C5.68206 22.2595 5.58258 22.6947 5.43802 22.7693C5.18466 22.9403 4.88311 22.8471 4.72767 22.7118Z" fill="#D6CD56"/>
<path d="M3.26966 20.8267C3.08158 20.6666 3.04894 20.4148 3.05982 20.1365C3.05049 19.7868 3.11733 19.6671 3.6738 19.9966C4.22405 20.3728 4.12457 20.8096 3.98002 20.8826C3.72665 21.0552 3.4251 20.9619 3.26966 20.8267Z" fill="#D6CD56"/>
<path d="M5.27836 20.9028C5.09028 20.7427 5.05919 20.4909 5.07007 20.2127C5.06075 19.863 5.12759 19.7433 5.68406 20.0728C6.23431 20.449 6.13483 20.8857 5.99027 20.9588C5.73535 21.1313 5.43224 21.0381 5.27836 20.9028Z" fill="#D6CD56"/>
<path d="M3.45219 18.9013C3.26411 18.7412 3.23302 18.4894 3.2439 18.2127C3.23457 17.863 3.30141 17.7433 3.85788 18.0728C4.40814 18.449 4.30866 18.8842 4.1641 18.9588C3.90918 19.1298 3.60763 19.0365 3.45219 18.9013Z" fill="#D6CD56"/>
<path d="M9.02601 14.0263C8.83793 13.8662 8.80684 13.6144 8.81617 13.3377C8.80684 12.988 8.87368 12.8683 9.43015 13.1978C9.9804 13.574 9.88092 14.0107 9.73636 14.0838C9.48144 14.2548 9.17989 14.1615 9.02601 14.0263Z" fill="#D6CD56"/>
<path d="M6.35975 24.7626C6.17167 24.6025 6.14058 24.3507 6.14991 24.074C6.14058 23.7243 6.20742 23.6046 6.76389 23.9341C7.31414 24.3103 7.21466 24.7455 7.0701 24.8201C6.81518 24.9911 6.51519 24.8978 6.35975 24.7626Z" fill="#D6CD56"/>
<path d="M2.14613 16.581C1.95805 16.4209 1.9254 16.1691 1.93628 15.8924C1.92696 15.5426 1.9938 15.423 2.55027 15.7525C3.10052 16.1286 3.00104 16.5639 2.85648 16.6385C2.60312 16.8095 2.30156 16.7162 2.14613 16.581Z" fill="#D6CD56"/>
<path d="M11.2379 13.3696C11.0498 13.2095 11.0172 12.9577 11.0281 12.6795C11.0188 12.3298 11.0856 12.2101 11.6421 12.5396C12.1923 12.9158 12.0928 13.351 11.9483 13.4256C11.6949 13.5981 11.3934 13.5049 11.2379 13.3696Z" fill="#D6CD56"/>
<path d="M13.4371 22.44C13.2491 22.2798 13.2164 22.028 13.2273 21.7498C13.218 21.4001 13.2848 21.2804 13.8413 21.6099C14.3915 21.9861 14.2921 22.4229 14.1475 22.4959C13.8941 22.67 13.5926 22.5767 13.4371 22.44Z" fill="#D6CD56"/>
<path d="M0.211317 17.0962C0.0232362 16.9361 -0.00940681 16.6843 0.0014739 16.4061C-0.00785244 16.0563 0.0589833 15.9366 0.615452 16.2662C1.1657 16.6423 1.06622 17.0791 0.921666 17.1522C0.666747 17.3262 0.365201 17.233 0.211317 17.0962Z" fill="#D6CD56"/>
<path d="M1.30213 19.0923C1.11405 18.9322 1.08141 18.6804 1.09229 18.4021C1.08296 18.0524 1.1498 17.9327 1.70627 18.2623C2.25652 18.6384 2.15704 19.0752 2.01249 19.1483C1.75912 19.3208 1.45602 19.2275 1.30213 19.0923Z" fill="#D6CD56"/>
<path d="M2.68412 22.8657C2.49604 22.7056 2.46495 22.4538 2.47583 22.1756C2.46651 21.8258 2.53335 21.7062 3.08982 22.0357C3.64007 22.4119 3.54059 22.8486 3.39603 22.9217C3.14111 23.0942 2.83956 23.001 2.68412 22.8657Z" fill="#D6CD56"/>
<path d="M1.14491 21.4599C0.956825 21.2998 0.924182 21.048 0.935063 20.7713C0.925737 20.4216 0.992577 20.3019 1.54905 20.6314C2.0993 21.0076 1.99982 21.4428 1.85526 21.5174C1.6019 21.6884 1.29879 21.5951 1.14491 21.4599Z" fill="#D6CD56"/>
</g>
</g>
</svg>
