<svg width="28" height="31" viewBox="0 0 28 31" fill="none" xmlns="http://www.w3.org/2000/svg">
<g opacity="0.5">
<path d="M-0.00012207 28.6467C3.00796 29.9815 7.17445 30.7964 11.2958 28.2307C19.0772 23.3857 12.4175 10.7056 13.2673 4.19332C13.997 -1.39751 22.0632 3.12187 26.9525 -3" stroke="#D6CD56" stroke-width="0.75" stroke-miterlimit="10" stroke-linecap="round" stroke-linejoin="round"/>
<path d="M2.31116 5.23438C2.31116 5.23438 7.13739 6.04926 9.16949 13.8393" stroke="#D6CD56" stroke-width="0.75" stroke-miterlimit="10" stroke-linecap="round" stroke-linejoin="round"/>
<path d="M7.76148 10.1094C7.76148 10.1094 8.45532 11.5439 7.56458 13.3996" stroke="#D6CD56" stroke-width="0.75" stroke-miterlimit="10" stroke-linecap="round" stroke-linejoin="round"/>
<path d="M9.13514 13.8594C9.13514 13.8568 8.2444 14.2438 8.65781 15.9196C9.0823 17.5656 10.4035 18.1648 10.3975 18.1853C10.3924 18.187 10.776 17.1334 10.6234 15.7883C10.4674 14.4578 9.13429 13.8764 9.13514 13.8594Z" stroke="#D6CD56" stroke-width="0.75" stroke-miterlimit="10" stroke-linecap="round" stroke-linejoin="round"/>
<path d="M9.13531 13.8594C9.13275 13.856 9.04496 14.7689 9.50269 16.0083C9.96128 17.24 10.3986 18.1819 10.3968 18.1853" stroke="#D6CD56" stroke-width="0.75" stroke-miterlimit="10" stroke-linecap="round" stroke-linejoin="round"/>
<path d="M8.58103 10.1978C8.56398 10.1944 8.48812 11.063 9.89286 11.6741C11.2371 12.281 12.4159 11.6673 12.4415 11.6665C12.4492 11.6647 11.9625 10.8379 10.8441 10.2361C9.73261 9.62924 8.57592 10.1935 8.58103 10.1978Z" stroke="#D6CD56" stroke-width="0.75" stroke-miterlimit="10" stroke-linecap="round" stroke-linejoin="round"/>
<path d="M8.58046 10.1992C8.5762 10.2001 9.23766 10.778 10.3918 11.1326C11.5442 11.4889 12.4384 11.667 12.4401 11.6679" stroke="#D6CD56" stroke-width="0.75" stroke-miterlimit="10" stroke-linecap="round" stroke-linejoin="round"/>
<path d="M8.41733 6.51242C8.43353 6.51838 9.00207 7.28809 10.5074 6.69483C12.0622 6.11691 12.6563 4.68233 12.6341 4.67892C12.6358 4.67892 11.4817 4.48799 10.1076 4.82468C8.71567 5.15626 8.40114 6.50986 8.41733 6.51242Z" stroke="#D6CD56" stroke-width="0.75" stroke-miterlimit="10" stroke-linecap="round" stroke-linejoin="round"/>
<path d="M8.41748 6.51318C8.4243 6.51403 9.29374 6.46885 10.4862 5.87303C11.6898 5.28062 12.6394 4.68224 12.6343 4.67969" stroke="#D6CD56" stroke-width="0.75" stroke-miterlimit="10" stroke-linecap="round" stroke-linejoin="round"/>
<path d="M7.56682 13.4884C7.57023 13.4969 6.72892 13.3213 6.0794 14.5829C5.44522 15.8768 6.0632 17.0625 6.05212 17.0497C6.05127 17.042 6.81331 16.4965 7.45516 15.529C8.10212 14.5453 7.57108 13.4833 7.56682 13.4884Z" stroke="#D6CD56" stroke-width="0.75" stroke-miterlimit="10" stroke-linecap="round" stroke-linejoin="round"/>
<path d="M7.56768 13.4883C7.56938 13.4925 6.98464 14.0398 6.59851 15.0899C6.21152 16.1435 6.05298 17.0504 6.05298 17.0496" stroke="#D6CD56" stroke-width="0.75" stroke-miterlimit="10" stroke-linecap="round" stroke-linejoin="round"/>
<path d="M6.06596 10.0442C6.06851 10.0501 5.44286 9.91971 4.95955 10.8582C4.48818 11.8205 4.94762 12.7019 4.9391 12.6925C4.93824 12.6874 5.50594 12.2808 5.98327 11.5623C6.46488 10.8309 6.06937 10.0408 6.06596 10.0442Z" stroke="#D6CD56" stroke-width="0.75" stroke-miterlimit="10" stroke-linecap="round" stroke-linejoin="round"/>
<path d="M6.06509 10.0449C6.06594 10.0475 5.63208 10.4549 5.34397 11.2366C5.05671 12.0199 4.93823 12.6942 4.93823 12.6942" stroke="#D6CD56" stroke-width="0.75" stroke-miterlimit="10" stroke-linecap="round" stroke-linejoin="round"/>
<path d="M7.22729 9.18555C7.22729 9.18555 7.3006 9.59555 8.6559 10.2493" stroke="#D6CD56" stroke-width="0.75" stroke-miterlimit="10" stroke-linecap="round" stroke-linejoin="round"/>
<path d="M5.30762 6.89334C5.30762 6.89334 6.63905 7.19935 8.34213 6.50977" stroke="#D6CD56" stroke-width="0.75" stroke-miterlimit="10" stroke-linecap="round" stroke-linejoin="round"/>
<path d="M5.9541 7.52344C5.9541 7.52344 6.58999 8.77475 6.06577 9.98003" stroke="#D6CD56" stroke-width="0.75" stroke-miterlimit="10" stroke-linecap="round" stroke-linejoin="round"/>
<g opacity="0.5">
<path d="M10.7629 23.5436C10.6751 23.6467 10.537 23.6646 10.3853 23.6586C10.1935 23.6638 10.1279 23.6271 10.3086 23.322C10.5149 23.0202 10.7535 23.0748 10.7945 23.154C10.8891 23.293 10.8379 23.4583 10.7629 23.5436Z" fill="#D6CD56"/>
<path d="M9.72984 24.3424C9.64205 24.4455 9.50396 24.4634 9.35223 24.4575C9.16044 24.4626 9.09481 24.4259 9.27552 24.1208C9.48094 23.819 9.72046 23.8736 9.76138 23.9529C9.85514 24.0918 9.804 24.2572 9.72984 24.3424Z" fill="#D6CD56"/>
<path d="M9.77098 23.2417C9.68318 23.3448 9.5451 23.3619 9.39337 23.3559C9.20158 23.361 9.13595 23.3244 9.31665 23.0192C9.52293 22.7175 9.7616 22.772 9.80252 22.8513C9.89628 22.9911 9.84514 23.1565 9.77098 23.2417Z" fill="#D6CD56"/>
<path d="M8.67369 24.2428C8.58589 24.3459 8.4478 24.3638 8.29608 24.3579C8.10429 24.363 8.03866 24.3263 8.21936 24.0212C8.42564 23.7194 8.66431 23.774 8.70523 23.8533C8.79899 23.9922 8.74785 24.1576 8.67369 24.2428Z" fill="#D6CD56"/>
<path d="M8.77733 25.4214C8.68953 25.5245 8.55144 25.5416 8.39972 25.5356C8.20793 25.5407 8.1423 25.5041 8.323 25.1989C8.52928 24.8972 8.76795 24.9517 8.80886 25.031C8.90263 25.1716 8.85234 25.337 8.77733 25.4214Z" fill="#D6CD56"/>
<path d="M10.8468 24.6649C10.759 24.7681 10.6209 24.7851 10.4692 24.78C10.2774 24.7851 10.2118 24.7485 10.3925 24.4433C10.5987 24.1407 10.8374 24.1961 10.8783 24.2754C10.9721 24.4143 10.9209 24.5797 10.8468 24.6649Z" fill="#D6CD56"/>
<path d="M10.0762 25.5073C9.98836 25.6105 9.85027 25.6275 9.69769 25.6215C9.5059 25.6267 9.44027 25.59 9.62098 25.2848C9.82725 24.9831 10.0668 25.0377 10.1068 25.1169C10.2015 25.2567 10.1503 25.4221 10.0762 25.5073Z" fill="#D6CD56"/>
<path d="M13.0917 25.0416C13.0039 25.1448 12.8658 25.1627 12.714 25.1567C12.5223 25.1618 12.4566 25.1252 12.6373 24.82C12.8436 24.5183 13.0823 24.5728 13.1232 24.6521C13.217 24.791 13.1658 24.9564 13.0917 25.0416Z" fill="#D6CD56"/>
<path d="M12.0602 25.8405C11.9724 25.9436 11.8343 25.9615 11.6826 25.9555C11.4908 25.9606 11.4251 25.924 11.6058 25.6188C11.8121 25.3171 12.0516 25.3716 12.0917 25.4509C12.1855 25.5898 12.1343 25.7552 12.0602 25.8405Z" fill="#D6CD56"/>
<path d="M12.1006 24.7389C12.0128 24.842 11.8747 24.8599 11.7221 24.854C11.5303 24.8591 11.4647 24.8224 11.6454 24.5173C11.8517 24.2155 12.0912 24.2701 12.1313 24.3493C12.2259 24.4883 12.1747 24.6536 12.1006 24.7389Z" fill="#D6CD56"/>
<path d="M11.0024 25.7389C10.9146 25.842 10.7765 25.8599 10.6248 25.854C10.433 25.8591 10.3674 25.8224 10.5481 25.5173C10.7544 25.2155 10.993 25.2701 11.034 25.3493C11.1286 25.4891 11.0774 25.6545 11.0024 25.7389Z" fill="#D6CD56"/>
<path d="M11.1069 26.9186C11.0191 27.0217 10.881 27.0396 10.7285 27.0336C10.5367 27.0388 10.471 27.0021 10.6517 26.697C10.858 26.3952 11.0975 26.4498 11.1376 26.529C11.2322 26.668 11.1811 26.8333 11.1069 26.9186Z" fill="#D6CD56"/>
<path d="M13.1776 26.1608C13.0898 26.2639 12.9517 26.2818 12.8 26.2758C12.6082 26.281 12.5417 26.2443 12.7233 25.9391C12.9295 25.6374 13.1682 25.6919 13.2091 25.7712C13.3029 25.9102 13.2518 26.0755 13.1776 26.1608Z" fill="#D6CD56"/>
<path d="M12.4056 27.0045C12.3178 27.1076 12.1797 27.1256 12.028 27.1196C11.8362 27.1247 11.7706 27.088 11.9513 26.7829C12.1576 26.4811 12.3962 26.5357 12.4372 26.615C12.5318 26.7539 12.4806 26.9193 12.4056 27.0045Z" fill="#D6CD56"/>
<path d="M10.0864 26.7897C9.99861 26.8928 9.86053 26.9107 9.7088 26.9047C9.51701 26.9099 9.45138 26.8732 9.63208 26.568C9.83836 26.2663 10.077 26.3209 10.1179 26.4001C10.2126 26.5391 10.1614 26.7044 10.0864 26.7897Z" fill="#D6CD56"/>
<path d="M9.05247 27.5885C8.96467 27.6916 8.82659 27.7095 8.67401 27.7036C8.48222 27.7087 8.41659 27.672 8.59729 27.3669C8.80357 27.0651 9.04309 27.1197 9.08316 27.199C9.17777 27.3379 9.12663 27.5033 9.05247 27.5885Z" fill="#D6CD56"/>
<path d="M9.09361 26.4878C9.00581 26.5909 8.86773 26.6088 8.71515 26.602C8.52336 26.6071 8.45773 26.5705 8.63843 26.2653C8.84471 25.9636 9.08423 26.0181 9.1243 26.0974C9.21891 26.2372 9.16777 26.4025 9.09361 26.4878Z" fill="#D6CD56"/>
<path d="M7.99717 27.4897C7.90938 27.5929 7.77129 27.6099 7.61957 27.604C7.42778 27.6091 7.36214 27.5724 7.54285 27.2673C7.74913 26.9655 7.9878 27.0201 8.02871 27.0993C8.12248 27.2391 8.07133 27.4045 7.99717 27.4897Z" fill="#D6CD56"/>
<path d="M8.10081 28.6686C8.01302 28.7717 7.87493 28.7896 7.7232 28.7836C7.53142 28.7888 7.46578 28.7521 7.64649 28.447C7.85277 28.1452 8.09144 28.1998 8.13235 28.279C8.22697 28.418 8.17582 28.5842 8.10081 28.6686Z" fill="#D6CD56"/>
<path d="M10.1711 27.9097C10.0833 28.0128 9.94524 28.0307 9.79266 28.0239C9.60087 28.029 9.53524 27.9923 9.71595 27.6872C9.92223 27.3854 10.1617 27.44 10.2018 27.5193C10.2964 27.6591 10.2453 27.8244 10.1711 27.9097Z" fill="#D6CD56"/>
<path d="M9.40037 28.7545C9.31258 28.8577 9.17449 28.8756 9.02276 28.8696C8.83098 28.8747 8.76534 28.838 8.94605 28.5329C9.15233 28.2311 9.391 28.2857 9.43191 28.365C9.52567 28.5039 9.47453 28.6693 9.40037 28.7545Z" fill="#D6CD56"/>
<path d="M12.4538 28.4049C12.366 28.508 12.228 28.5259 12.0762 28.52C11.8844 28.5251 11.8188 28.4884 11.9995 28.1833C12.2058 27.8815 12.4445 27.9361 12.4854 28.0154C12.5791 28.1543 12.528 28.3197 12.4538 28.4049Z" fill="#D6CD56"/>
<path d="M11.4216 29.2057C11.3338 29.3088 11.1957 29.3267 11.0431 29.3208C10.8514 29.3259 10.7857 29.2892 10.9664 28.9841C11.1727 28.6823 11.4122 28.7369 11.4523 28.8161C11.5469 28.9551 11.4958 29.1204 11.4216 29.2057Z" fill="#D6CD56"/>
<path d="M11.4627 28.103C11.375 28.2062 11.2369 28.2232 11.0843 28.2172C10.8925 28.2224 10.8269 28.1857 11.0076 27.8805C11.2139 27.5788 11.4534 27.6334 11.4934 27.7126C11.5881 27.8524 11.5369 28.0186 11.4627 28.103Z" fill="#D6CD56"/>
<path d="M10.3663 29.105C10.2785 29.2081 10.1404 29.2252 9.98871 29.2192C9.79692 29.2243 9.73129 29.1877 9.91199 28.8825C10.1183 28.5808 10.3569 28.6353 10.3979 28.7146C10.4916 28.8544 10.4405 29.0197 10.3663 29.105Z" fill="#D6CD56"/>
<path d="M7.6931 26.0494C7.6053 26.1526 7.46722 26.1696 7.31549 26.1645C7.1237 26.1696 7.05807 26.133 7.23877 25.8278C7.44505 25.5261 7.68457 25.5806 7.72464 25.6599C7.8184 25.7997 7.76726 25.965 7.6931 26.0494Z" fill="#D6CD56"/>
<path d="M13.5791 27.5104C13.4913 27.6135 13.3532 27.6306 13.2015 27.6254C13.0097 27.6306 12.9441 27.5939 13.1248 27.2888C13.331 26.987 13.5697 27.0416 13.6106 27.1208C13.7044 27.2606 13.6532 27.4251 13.5791 27.5104Z" fill="#D6CD56"/>
<path d="M9.093 29.8209C9.0052 29.9241 8.86712 29.942 8.71539 29.936C8.5236 29.9411 8.45797 29.9045 8.63868 29.5993C8.84495 29.2976 9.08362 29.3521 9.12454 29.4314C9.2183 29.5703 9.16716 29.7357 9.093 29.8209Z" fill="#D6CD56"/>
<path d="M7.33201 24.8365C7.24422 24.9397 7.10613 24.9576 6.95355 24.9516C6.76176 24.9567 6.69613 24.9201 6.87684 24.6149C7.08311 24.3132 7.32178 24.3677 7.3627 24.447C7.45731 24.5859 7.40617 24.7513 7.33201 24.8365Z" fill="#D6CD56"/>
<path d="M12.305 23.6295C12.2172 23.7326 12.0792 23.7506 11.9266 23.7446C11.7348 23.7497 11.6692 23.713 11.8499 23.4079C12.0561 23.1061 12.2957 23.1607 12.3357 23.24C12.4312 23.3789 12.38 23.5443 12.305 23.6295Z" fill="#D6CD56"/>
<path d="M9.37522 30.8834C9.28743 30.9866 9.14934 31.0045 8.99676 30.9985C8.80498 31.0036 8.73934 30.967 8.92005 30.6618C9.12633 30.3601 9.36585 30.4146 9.40591 30.4939C9.50138 30.6337 9.45023 30.799 9.37522 30.8834Z" fill="#D6CD56"/>
<path d="M10.4708 30.2838C10.383 30.3869 10.2449 30.4048 10.0923 30.3989C9.90056 30.404 9.83492 30.3673 10.0156 30.0622C10.2219 29.7604 10.4614 29.815 10.5015 29.8943C10.5961 30.0332 10.545 30.1994 10.4708 30.2838Z" fill="#D6CD56"/>
<path d="M12.5386 29.5269C12.4508 29.63 12.3127 29.647 12.1601 29.6411C11.9683 29.6462 11.9027 29.6095 12.0834 29.3044C12.2897 29.0026 12.5292 29.0572 12.5692 29.1365C12.6639 29.2762 12.6127 29.4416 12.5386 29.5269Z" fill="#D6CD56"/>
<path d="M11.7695 30.3697C11.6817 30.4729 11.5436 30.4908 11.3919 30.4848C11.2001 30.4899 11.1345 30.4533 11.3152 30.1481C11.5215 29.8464 11.7601 29.9009 11.8011 29.9802C11.8948 30.1191 11.8437 30.2854 11.7695 30.3697Z" fill="#D6CD56"/>
</g>
</g>
</svg>
