<svg width="62" height="47" viewBox="0 0 62 47" fill="none" xmlns="http://www.w3.org/2000/svg">
<g opacity="0.6">
<path d="M4.29064 50.1504C1.85648 44.665 0.37049 37.0671 5.04918 29.5517C13.8843 15.3617 37.0073 27.5061 48.8828 25.9564C59.078 24.6259 50.8367 9.91673 62.0002 1.00078" stroke="#D6CD56" stroke-width="0.75" stroke-miterlimit="10" stroke-linecap="round" stroke-linejoin="round"/>
<path d="M46.988 45.9355C46.988 45.9355 45.502 37.1346 31.2965 33.429" stroke="#D6CD56" stroke-width="0.75" stroke-miterlimit="10" stroke-linecap="round" stroke-linejoin="round"/>
<path d="M38.094 35.9984C38.094 35.9984 35.478 34.7331 32.0941 36.3574" stroke="#D6CD56" stroke-width="0.75" stroke-miterlimit="10" stroke-linecap="round" stroke-linejoin="round"/>
<path d="M31.2556 33.4924C31.2603 33.4924 30.5546 35.1168 27.4986 34.3629C24.4971 33.5888 23.4044 31.1795 23.3671 31.1904C23.364 31.1997 25.2852 30.5002 27.738 30.7785C30.1644 31.0629 31.2245 33.494 31.2556 33.4924Z" stroke="#D6CD56" stroke-width="0.75" stroke-miterlimit="10" stroke-linecap="round" stroke-linejoin="round"/>
<path d="M31.2563 33.4926C31.2625 33.4972 29.5978 33.6573 27.3377 32.8226C25.0916 31.9864 23.3741 31.189 23.3678 31.1921" stroke="#D6CD56" stroke-width="0.75" stroke-miterlimit="10" stroke-linecap="round" stroke-linejoin="round"/>
<path d="M37.9363 34.5019C37.9425 34.533 36.3586 34.6713 35.2441 32.1097C34.1374 29.6585 35.2566 27.5087 35.2581 27.4621C35.2612 27.4481 36.769 28.3357 37.8664 30.375C38.9731 32.4019 37.9441 34.5112 37.9363 34.5019Z" stroke="#D6CD56" stroke-width="0.75" stroke-miterlimit="10" stroke-linecap="round" stroke-linejoin="round"/>
<path d="M37.9353 34.5019C37.9337 34.5097 36.8799 33.3035 36.2333 31.1989C35.5835 29.0973 35.2587 27.4668 35.2571 27.4637" stroke="#D6CD56" stroke-width="0.75" stroke-miterlimit="10" stroke-linecap="round" stroke-linejoin="round"/>
<path d="M44.6546 34.8017C44.6437 34.7721 43.2401 33.7354 44.322 30.9903C45.3759 28.1551 47.9919 27.0717 47.9981 27.1121C47.9981 27.109 48.3463 29.2137 47.7323 31.7193C47.1276 34.2576 44.6593 34.8312 44.6546 34.8017Z" stroke="#D6CD56" stroke-width="0.75" stroke-miterlimit="10" stroke-linecap="round" stroke-linejoin="round"/>
<path d="M44.6553 34.8008C44.6537 34.7883 44.7361 33.2029 45.8226 31.0283C46.9029 28.8335 47.9941 27.1019 47.9988 27.1112" stroke="#D6CD56" stroke-width="0.75" stroke-miterlimit="10" stroke-linecap="round" stroke-linejoin="round"/>
<path d="M31.9346 36.3529C31.919 36.3467 32.2392 37.8809 29.9388 39.0653C27.5792 40.2218 25.4171 39.0949 25.4404 39.1151C25.4544 39.1166 26.4492 37.727 28.2134 36.5566C30.0071 35.3768 31.9439 36.3452 31.9346 36.3529Z" stroke="#D6CD56" stroke-width="0.75" stroke-miterlimit="10" stroke-linecap="round" stroke-linejoin="round"/>
<path d="M31.9341 36.3531C31.9263 36.35 30.9284 37.4163 29.0134 38.1204C27.0922 38.8261 25.4383 39.1152 25.4399 39.1152" stroke="#D6CD56" stroke-width="0.75" stroke-miterlimit="10" stroke-linecap="round" stroke-linejoin="round"/>
<path d="M38.2135 39.0882C38.2026 39.0835 38.4404 40.2244 36.7291 41.1058C34.9742 41.9653 33.3669 41.1275 33.384 41.1431C33.3934 41.1446 34.1348 40.1094 35.4451 39.239C36.7788 38.3607 38.2197 39.082 38.2135 39.0882Z" stroke="#D6CD56" stroke-width="0.75" stroke-miterlimit="10" stroke-linecap="round" stroke-linejoin="round"/>
<path d="M38.2144 39.0877C38.2097 39.0861 37.4667 39.8773 36.0413 40.4027C34.6128 40.9265 33.3833 41.1426 33.3833 41.1426" stroke="#D6CD56" stroke-width="0.75" stroke-miterlimit="10" stroke-linecap="round" stroke-linejoin="round"/>
<path d="M39.7812 36.9727C39.7812 36.9727 39.0336 36.839 37.8414 34.3675" stroke="#D6CD56" stroke-width="0.75" stroke-miterlimit="10" stroke-linecap="round" stroke-linejoin="round"/>
<path d="M43.9617 40.4727C43.9617 40.4727 43.4036 38.0447 44.6611 34.9391" stroke="#D6CD56" stroke-width="0.75" stroke-miterlimit="10" stroke-linecap="round" stroke-linejoin="round"/>
<path d="M42.8096 39.2949C42.8096 39.2949 40.5277 38.1354 38.3298 39.0913" stroke="#D6CD56" stroke-width="0.75" stroke-miterlimit="10" stroke-linecap="round" stroke-linejoin="round"/>
<g opacity="0.5">
<path d="M13.5961 30.5245C13.408 30.6846 13.3754 30.9364 13.3862 31.2131C13.3769 31.5628 13.4437 31.6825 14.0002 31.353C14.5505 30.9768 14.451 30.5416 14.3064 30.467C14.0531 30.2944 13.7515 30.3877 13.5961 30.5245Z" fill="#D6CD56"/>
<path d="M12.1388 32.4073C11.9507 32.5674 11.9181 32.8192 11.929 33.0959C11.9196 33.4456 11.9865 33.5653 12.5429 33.2358C13.0932 32.8612 12.9937 32.4244 12.8492 32.3498C12.5958 32.1788 12.2942 32.2721 12.1388 32.4073Z" fill="#D6CD56"/>
<path d="M14.1468 32.3331C13.9587 32.4932 13.9276 32.745 13.9385 33.0217C13.9292 33.3714 13.996 33.4911 14.5525 33.1616C15.1027 32.7854 15.0032 32.3502 14.8587 32.2756C14.6038 32.1046 14.3022 32.1979 14.1468 32.3331Z" fill="#D6CD56"/>
<path d="M12.3204 34.3331C12.1324 34.4932 12.0997 34.745 12.1106 35.0217C12.1013 35.3714 12.1681 35.4911 12.7246 35.1616C13.2748 34.7854 13.1754 34.3502 13.0308 34.2756C12.7774 34.1046 12.4759 34.1979 12.3204 34.3331Z" fill="#D6CD56"/>
<path d="M10.1704 34.1436C9.98237 34.3037 9.95128 34.5555 9.96216 34.8322C9.95284 35.182 10.0197 35.3017 10.5761 34.9721C11.1264 34.596 11.0269 34.1607 10.8824 34.0861C10.6259 33.9151 10.3243 34.0068 10.1704 34.1436Z" fill="#D6CD56"/>
<path d="M11.5529 30.3702C11.3648 30.5303 11.3337 30.7821 11.343 31.0588C11.3337 31.4085 11.4005 31.5282 11.957 31.1987C12.5088 30.8225 12.4078 30.3873 12.2632 30.3127C12.0099 30.1417 11.7083 30.235 11.5529 30.3702Z" fill="#D6CD56"/>
<path d="M10.0135 31.7749C9.82539 31.935 9.7943 32.1868 9.80518 32.465C9.79586 32.8148 9.86269 32.9345 10.4192 32.6049C10.9694 32.2288 10.8699 31.792 10.7254 31.7189C10.4705 31.5464 10.1689 31.6397 10.0135 31.7749Z" fill="#D6CD56"/>
<path d="M10.8663 26.2745C10.6783 26.4346 10.6456 26.6864 10.6565 26.9631C10.6472 27.3128 10.714 27.4325 11.2705 27.103C11.8207 26.7268 11.7213 26.2916 11.5767 26.217C11.3233 26.046 11.0218 26.1393 10.8663 26.2745Z" fill="#D6CD56"/>
<path d="M9.40882 28.1573C9.22074 28.3174 9.1881 28.5692 9.19898 28.8459C9.18965 29.1956 9.25649 29.3153 9.81296 28.9858C10.3632 28.6096 10.2637 28.1729 10.1192 28.0998C9.86581 27.9288 9.56426 28.0221 9.40882 28.1573Z" fill="#D6CD56"/>
<path d="M11.4169 28.0835C11.2288 28.2436 11.1962 28.4954 11.207 28.7736C11.1977 29.1234 11.2645 29.2431 11.821 28.9135C12.3713 28.5374 12.2718 28.1006 12.1272 28.0275C11.8739 27.855 11.5723 27.9483 11.4169 28.0835Z" fill="#D6CD56"/>
<path d="M9.59217 30.085C9.40409 30.2451 9.37145 30.497 9.38233 30.7736C9.37301 31.1234 9.43984 31.2431 9.99631 30.9135C10.5466 30.5374 10.4471 30.1021 10.3025 30.0275C10.0476 29.855 9.74606 29.9483 9.59217 30.085Z" fill="#D6CD56"/>
<path d="M7.44056 29.894C7.25248 30.0541 7.21984 30.3059 7.23072 30.5842C7.22139 30.9339 7.28823 31.0536 7.8447 30.7241C8.39495 30.3479 8.29547 29.9111 8.15091 29.8381C7.89755 29.6655 7.596 29.7588 7.44056 29.894Z" fill="#D6CD56"/>
<path d="M8.82264 26.1195C8.63456 26.2796 8.60192 26.5314 8.6128 26.8081C8.60347 27.1579 8.67031 27.2791 9.22678 26.948C9.77703 26.5719 9.67755 26.1366 9.53299 26.062C9.27963 25.891 8.97808 25.9843 8.82264 26.1195Z" fill="#D6CD56"/>
<path d="M7.28358 27.5264C7.0955 27.6865 7.06286 27.9384 7.07374 28.215C7.06441 28.5648 7.13125 28.6845 7.68772 28.3549C8.23797 27.9788 8.13849 27.5435 7.99393 27.4689C7.74057 27.2964 7.43902 27.3897 7.28358 27.5264Z" fill="#D6CD56"/>
<path d="M7.67616 31.7569C7.48808 31.917 7.45544 32.1688 7.46632 32.4455C7.45699 32.7952 7.52383 32.9149 8.0803 32.5854C8.63055 32.2092 8.53107 31.774 8.38651 31.6994C8.13315 31.5269 7.8316 31.6201 7.67616 31.7569Z" fill="#D6CD56"/>
<path d="M6.21888 33.6401C6.0308 33.8002 5.99816 34.052 6.00904 34.3303C5.99971 34.68 6.06655 34.7997 6.62302 34.4702C7.17327 34.094 7.07379 33.6572 6.92923 33.5842C6.67587 33.4116 6.37432 33.5049 6.21888 33.6401Z" fill="#D6CD56"/>
<path d="M8.22685 33.5659C8.03877 33.726 8.00612 33.9778 8.01856 34.2561C8.00923 34.6058 8.07607 34.7255 8.63254 34.3959C9.18279 34.0198 9.08331 33.583 8.93876 33.5099C8.68384 33.3374 8.38228 33.4307 8.22685 33.5659Z" fill="#D6CD56"/>
<path d="M6.40067 35.5655C6.21259 35.7256 6.18151 35.9774 6.19239 36.2541C6.18306 36.6038 6.2499 36.7235 6.80637 36.394C7.35662 36.0178 7.25714 35.5826 7.11258 35.508C6.85767 35.337 6.55611 35.4303 6.40067 35.5655Z" fill="#D6CD56"/>
<path d="M4.25062 35.3761C4.06254 35.5362 4.0299 35.788 4.04078 36.0646C4.03145 36.4144 4.09829 36.5341 4.65476 36.2045C5.20501 35.8284 5.10553 35.3932 4.96097 35.3185C4.70761 35.146 4.4045 35.2393 4.25062 35.3761Z" fill="#D6CD56"/>
<path d="M5.63261 31.6011C5.44453 31.7612 5.41189 32.013 5.42432 32.2912C5.41499 32.6409 5.48183 32.7606 6.0383 32.4311C6.58856 32.0549 6.48908 31.6182 6.34452 31.5451C6.0896 31.3726 5.78805 31.4658 5.63261 31.6011Z" fill="#D6CD56"/>
<path d="M4.09339 33.0069C3.90531 33.167 3.87267 33.4188 3.88355 33.6955C3.87422 34.0452 3.94106 34.1649 4.49753 33.8354C5.04778 33.4592 4.9483 33.024 4.80375 32.9494C4.55038 32.7784 4.24883 32.8717 4.09339 33.0069Z" fill="#D6CD56"/>
<path d="M4.72792 27.4386C4.53984 27.5987 4.50719 27.8505 4.51808 28.1271C4.50875 28.4769 4.57558 28.5966 5.13205 28.267C5.68231 27.8909 5.58283 27.4557 5.43827 27.381C5.1849 27.2101 4.88336 27.3033 4.72792 27.4386Z" fill="#D6CD56"/>
<path d="M3.26991 29.3237C3.08183 29.4838 3.04918 29.7356 3.06006 30.0139C3.05074 30.3636 3.11758 30.4833 3.67405 30.1538C4.2243 29.7776 4.12482 29.3408 3.98026 29.2678C3.7269 29.0952 3.42534 29.1885 3.26991 29.3237Z" fill="#D6CD56"/>
<path d="M5.2786 29.2475C5.09052 29.4077 5.05944 29.6595 5.07032 29.9377C5.06099 30.2874 5.12783 30.4071 5.6843 30.0776C6.23455 29.7014 6.13507 29.2646 5.99051 29.1916C5.73559 29.0191 5.43249 29.1123 5.2786 29.2475Z" fill="#D6CD56"/>
<path d="M3.45243 31.2491C3.26435 31.4092 3.23326 31.661 3.24414 31.9377C3.23482 32.2874 3.30166 32.4071 3.85813 32.0776C4.40838 31.7014 4.3089 31.2662 4.16434 31.1916C3.90942 31.0206 3.60787 31.1139 3.45243 31.2491Z" fill="#D6CD56"/>
<path d="M9.02625 36.1241C8.83817 36.2842 8.80708 36.536 8.81641 36.8127C8.80708 37.1624 8.87392 37.2821 9.43039 36.9526C9.98065 36.5764 9.88117 36.1396 9.73661 36.0666C9.48169 35.8956 9.18014 35.9889 9.02625 36.1241Z" fill="#D6CD56"/>
<path d="M6.36 25.3878C6.17192 25.5479 6.14083 25.7997 6.15016 26.0764C6.14083 26.4261 6.20766 26.5458 6.76413 26.2163C7.31439 25.8401 7.21491 25.4049 7.07035 25.3303C6.81543 25.1593 6.51544 25.2525 6.36 25.3878Z" fill="#D6CD56"/>
<path d="M2.14637 33.5694C1.95829 33.7295 1.92565 33.9813 1.93653 34.258C1.9272 34.6077 1.99404 34.7274 2.55051 34.3979C3.10076 34.0217 3.00128 33.5865 2.85672 33.5119C2.60336 33.3409 2.30181 33.4342 2.14637 33.5694Z" fill="#D6CD56"/>
<path d="M11.2382 36.7808C11.0501 36.9409 11.0174 37.1927 11.0283 37.4709C11.019 37.8206 11.0858 37.9403 11.6423 37.6108C12.1926 37.2346 12.0931 36.7994 11.9485 36.7248C11.6952 36.5523 11.3936 36.6455 11.2382 36.7808Z" fill="#D6CD56"/>
<path d="M13.4374 27.7104C13.2493 27.8705 13.2167 28.1224 13.2275 28.4006C13.2182 28.7503 13.2851 28.87 13.8415 28.5405C14.3918 28.1643 14.2923 27.7275 14.1477 27.6545C13.8944 27.4804 13.5928 27.5737 13.4374 27.7104Z" fill="#D6CD56"/>
<path d="M0.211561 33.0542C0.0234803 33.2143 -0.00916266 33.4661 0.00171804 33.7443C-0.00760829 34.0941 0.0592274 34.2138 0.615697 33.8842C1.16595 33.5081 1.06647 33.0713 0.92191 32.9982C0.666991 32.8241 0.365445 32.9174 0.211561 33.0542Z" fill="#D6CD56"/>
<path d="M1.30238 31.0581C1.1143 31.2182 1.08165 31.47 1.09253 31.7482C1.08321 32.098 1.15005 32.2177 1.70652 31.8881C2.25677 31.512 2.15729 31.0752 2.01273 31.0021C1.75937 30.8296 1.45626 30.9229 1.30238 31.0581Z" fill="#D6CD56"/>
<path d="M2.68437 27.2847C2.49628 27.4448 2.4652 27.6966 2.47608 27.9748C2.46675 28.3245 2.53359 28.4442 3.09006 28.1147C3.64031 27.7385 3.54083 27.3018 3.39628 27.2287C3.14136 27.0562 2.8398 27.1494 2.68437 27.2847Z" fill="#D6CD56"/>
<path d="M1.14515 28.6905C0.957069 28.8506 0.924426 29.1024 0.935307 29.3791C0.925981 29.7288 0.992821 29.8485 1.54929 29.519C2.09954 29.1428 2.00006 28.7076 1.8555 28.633C1.60214 28.462 1.29903 28.5553 1.14515 28.6905Z" fill="#D6CD56"/>
</g>
</g>
</svg>
