<svg width="28" height="34" viewBox="0 0 28 34" fill="none" xmlns="http://www.w3.org/2000/svg">
<g opacity="0.5">
<path d="M0 2.3533C3.00809 1.01845 7.17457 0.203569 11.2959 2.76926C19.0774 7.61425 12.4176 20.2944 13.2675 26.8067C13.9971 32.3975 22.0633 27.8781 26.9526 34" stroke="#D6CD56" stroke-width="0.75" stroke-miterlimit="10" stroke-linecap="round" stroke-linejoin="round"/>
<path d="M2.31128 25.7656C2.31128 25.7656 7.13751 24.9507 9.16961 17.1607" stroke="#D6CD56" stroke-width="0.75" stroke-miterlimit="10" stroke-linecap="round" stroke-linejoin="round"/>
<path d="M7.7616 20.8906C7.7616 20.8906 8.45545 19.4561 7.5647 17.6004" stroke="#D6CD56" stroke-width="0.75" stroke-miterlimit="10" stroke-linecap="round" stroke-linejoin="round"/>
<path d="M9.13527 17.1406C9.13527 17.1432 8.24452 16.7562 8.65793 15.0804C9.08242 13.4344 10.4036 12.8352 10.3977 12.8147C10.3925 12.813 10.7761 13.8666 10.6235 15.2117C10.4676 16.5422 9.13441 17.1236 9.13527 17.1406Z" stroke="#D6CD56" stroke-width="0.75" stroke-miterlimit="10" stroke-linecap="round" stroke-linejoin="round"/>
<path d="M9.13555 17.1406C9.133 17.144 9.0452 16.2311 9.50293 14.9917C9.96152 13.76 10.3988 12.8181 10.3971 12.8147" stroke="#D6CD56" stroke-width="0.75" stroke-miterlimit="10" stroke-linecap="round" stroke-linejoin="round"/>
<path d="M8.58115 20.8022C8.56411 20.8056 8.48824 19.937 9.89298 19.3259C11.2372 18.719 12.4161 19.3327 12.4416 19.3335C12.4493 19.3353 11.9626 20.1621 10.8443 20.7639C9.73273 21.3708 8.57604 20.8065 8.58115 20.8022Z" stroke="#D6CD56" stroke-width="0.75" stroke-miterlimit="10" stroke-linecap="round" stroke-linejoin="round"/>
<path d="M8.58059 20.8008C8.57632 20.7999 9.23778 20.222 10.3919 19.8674C11.5443 19.5111 12.4385 19.333 12.4402 19.3321" stroke="#D6CD56" stroke-width="0.75" stroke-miterlimit="10" stroke-linecap="round" stroke-linejoin="round"/>
<path d="M8.41745 24.4876C8.43365 24.4816 9.00219 23.7119 10.5075 24.3052C12.0623 24.8831 12.6564 26.3177 12.6342 26.3211C12.6359 26.3211 11.4818 26.512 10.1077 26.1753C8.71579 25.8437 8.40126 24.4901 8.41745 24.4876Z" stroke="#D6CD56" stroke-width="0.75" stroke-miterlimit="10" stroke-linecap="round" stroke-linejoin="round"/>
<path d="M8.4176 24.4868C8.42442 24.486 9.29386 24.5311 10.4864 25.127C11.6899 25.7194 12.6395 26.3178 12.6344 26.3203" stroke="#D6CD56" stroke-width="0.75" stroke-miterlimit="10" stroke-linecap="round" stroke-linejoin="round"/>
<path d="M7.56694 17.5116C7.57035 17.5031 6.72904 17.6787 6.07952 16.4171C5.44534 15.1232 6.06333 13.9375 6.05224 13.9503C6.05139 13.958 6.81343 14.5035 7.45528 15.471C8.10224 16.4547 7.5712 17.5167 7.56694 17.5116Z" stroke="#D6CD56" stroke-width="0.75" stroke-miterlimit="10" stroke-linecap="round" stroke-linejoin="round"/>
<path d="M7.56768 17.5117C7.56938 17.5075 6.98464 16.9602 6.59851 15.9101C6.21152 14.8565 6.05298 13.9496 6.05298 13.9504" stroke="#D6CD56" stroke-width="0.75" stroke-miterlimit="10" stroke-linecap="round" stroke-linejoin="round"/>
<path d="M6.06608 20.9558C6.06864 20.9499 5.44298 21.0803 4.95968 20.1418C4.4883 19.1795 4.94774 18.2981 4.93922 18.3075C4.93837 18.3126 5.50606 18.7192 5.9834 19.4377C6.465 20.1691 6.06949 20.9592 6.06608 20.9558Z" stroke="#D6CD56" stroke-width="0.75" stroke-miterlimit="10" stroke-linecap="round" stroke-linejoin="round"/>
<path d="M6.06509 20.9551C6.06594 20.9525 5.63208 20.5451 5.34397 19.7634C5.05671 18.9801 4.93823 18.3058 4.93823 18.3058" stroke="#D6CD56" stroke-width="0.75" stroke-miterlimit="10" stroke-linecap="round" stroke-linejoin="round"/>
<path d="M7.22742 21.8145C7.22742 21.8145 7.30072 21.4045 8.65602 20.7507" stroke="#D6CD56" stroke-width="0.75" stroke-miterlimit="10" stroke-linecap="round" stroke-linejoin="round"/>
<path d="M5.30774 24.1067C5.30774 24.1067 6.63917 23.8007 8.34225 24.4902" stroke="#D6CD56" stroke-width="0.75" stroke-miterlimit="10" stroke-linecap="round" stroke-linejoin="round"/>
<path d="M5.95422 23.4766C5.95422 23.4766 6.59011 22.2253 6.06589 21.02" stroke="#D6CD56" stroke-width="0.75" stroke-miterlimit="10" stroke-linecap="round" stroke-linejoin="round"/>
<g opacity="0.5">
<path d="M10.763 7.45642C10.6752 7.35329 10.5372 7.33538 10.3854 7.34135C10.1936 7.33624 10.128 7.37289 10.3087 7.67805C10.515 7.97979 10.7537 7.92524 10.7946 7.84597C10.8892 7.70703 10.8381 7.54166 10.763 7.45642Z" fill="#D6CD56"/>
<path d="M9.72996 6.6576C9.64217 6.55446 9.50408 6.53656 9.35235 6.54252C9.16057 6.53741 9.09493 6.57406 9.27564 6.87922C9.48107 7.18096 9.72059 7.12641 9.7615 7.04714C9.85526 6.9082 9.80412 6.74284 9.72996 6.6576Z" fill="#D6CD56"/>
<path d="M9.7711 7.75831C9.6833 7.65517 9.54522 7.63812 9.39349 7.64409C9.2017 7.63897 9.13607 7.67563 9.31678 7.98078C9.52306 8.28253 9.76172 8.22797 9.80264 8.1487C9.8964 8.00891 9.84526 7.84355 9.7711 7.75831Z" fill="#D6CD56"/>
<path d="M8.67381 6.75721C8.58601 6.65407 8.44793 6.63617 8.2962 6.64213C8.10441 6.63702 8.03878 6.67367 8.21949 6.97883C8.42577 7.28057 8.66443 7.22602 8.70535 7.14675C8.79911 7.00781 8.74797 6.84244 8.67381 6.75721Z" fill="#D6CD56"/>
<path d="M8.77745 5.57862C8.68965 5.47548 8.55156 5.45843 8.39984 5.4644C8.20805 5.45928 8.14242 5.49594 8.32312 5.80109C8.5294 6.10284 8.76807 6.04829 8.80899 5.96901C8.90275 5.82837 8.85246 5.663 8.77745 5.57862Z" fill="#D6CD56"/>
<path d="M10.8469 6.33507C10.7591 6.23193 10.621 6.21488 10.4693 6.22C10.2775 6.21488 10.2119 6.25154 10.3926 6.55669C10.5989 6.85929 10.8375 6.80388 10.8784 6.72461C10.9722 6.58567 10.9211 6.42031 10.8469 6.33507Z" fill="#D6CD56"/>
<path d="M10.0763 5.49268C9.98848 5.38954 9.85039 5.3725 9.69781 5.37846C9.50603 5.37335 9.44039 5.41 9.6211 5.71516C9.82738 6.0169 10.0669 5.96235 10.107 5.88308C10.2016 5.74328 10.1504 5.57792 10.0763 5.49268Z" fill="#D6CD56"/>
<path d="M13.0918 5.95838C13.004 5.85524 12.8659 5.83734 12.7142 5.8433C12.5224 5.83819 12.4567 5.87484 12.6375 6.18C12.8437 6.48175 13.0824 6.42719 13.1233 6.34792C13.2171 6.20898 13.1659 6.04362 13.0918 5.95838Z" fill="#D6CD56"/>
<path d="M12.0603 5.15955C11.9725 5.05641 11.8344 5.03851 11.6827 5.04448C11.4909 5.03936 11.4253 5.07602 11.606 5.38117C11.8122 5.68292 12.0518 5.62836 12.0918 5.54909C12.1856 5.41015 12.1344 5.24479 12.0603 5.15955Z" fill="#D6CD56"/>
<path d="M12.1007 6.26111C12.0129 6.15798 11.8748 6.14007 11.7222 6.14604C11.5304 6.14093 11.4648 6.17758 11.6455 6.48273C11.8518 6.78448 12.0913 6.72993 12.1314 6.65066C12.226 6.51172 12.1748 6.34635 12.1007 6.26111Z" fill="#D6CD56"/>
<path d="M11.0025 5.26111C10.9148 5.15797 10.7767 5.14007 10.6249 5.14604C10.4331 5.14093 10.3675 5.17758 10.5482 5.48273C10.7545 5.78448 10.9932 5.72993 11.0341 5.65066C11.1287 5.51086 11.0776 5.3455 11.0025 5.26111Z" fill="#D6CD56"/>
<path d="M11.107 4.08142C11.0192 3.97829 10.8812 3.96038 10.7286 3.96635C10.5368 3.96124 10.4712 3.99789 10.6519 4.30305C10.8581 4.60479 11.0977 4.55024 11.1377 4.47097C11.2323 4.33203 11.1812 4.16666 11.107 4.08142Z" fill="#D6CD56"/>
<path d="M13.1777 4.83924C13.0899 4.7361 12.9518 4.7182 12.8001 4.72416C12.6083 4.71905 12.5418 4.7557 12.7234 5.06086C12.9297 5.36261 13.1683 5.30805 13.2093 5.22878C13.303 5.08984 13.2519 4.92448 13.1777 4.83924Z" fill="#D6CD56"/>
<path d="M12.4057 3.99549C12.3179 3.89235 12.1799 3.87445 12.0281 3.88042C11.8363 3.8753 11.7707 3.91195 11.9514 4.21711C12.1577 4.51886 12.3964 4.4643 12.4373 4.38503C12.5319 4.24609 12.4808 4.08073 12.4057 3.99549Z" fill="#D6CD56"/>
<path d="M10.0865 4.21033C9.99873 4.10719 9.86065 4.08929 9.70892 4.09526C9.51713 4.09015 9.4515 4.1268 9.63221 4.43195C9.83848 4.7337 10.0772 4.67915 10.1181 4.59987C10.2127 4.46093 10.1615 4.29557 10.0865 4.21033Z" fill="#D6CD56"/>
<path d="M9.05259 3.4115C8.9648 3.30836 8.82671 3.29046 8.67413 3.29643C8.48234 3.29132 8.41671 3.32797 8.59742 3.63312C8.8037 3.93487 9.04322 3.88032 9.08328 3.80105C9.17789 3.66211 9.12675 3.49674 9.05259 3.4115Z" fill="#D6CD56"/>
<path d="M9.09373 4.51221C9.00594 4.40907 8.86785 4.39117 8.71527 4.39799C8.52348 4.39288 8.45785 4.42953 8.63855 4.73469C8.84483 5.03643 9.08436 4.98188 9.12442 4.90261C9.21903 4.76282 9.16789 4.59745 9.09373 4.51221Z" fill="#D6CD56"/>
<path d="M7.9973 3.51026C7.9095 3.40712 7.77141 3.39007 7.61969 3.39604C7.4279 3.39092 7.36227 3.42758 7.54297 3.73273C7.74925 4.03448 7.98792 3.97993 8.02884 3.90066C8.1226 3.76086 8.07146 3.5955 7.9973 3.51026Z" fill="#D6CD56"/>
<path d="M8.10093 2.33142C8.01314 2.22829 7.87505 2.21038 7.72333 2.21635C7.53154 2.21124 7.4659 2.24789 7.64661 2.55305C7.85289 2.85479 8.09156 2.80024 8.13247 2.72097C8.22709 2.58203 8.17595 2.41581 8.10093 2.33142Z" fill="#D6CD56"/>
<path d="M10.1712 3.09034C10.0834 2.9872 9.94536 2.9693 9.79278 2.97612C9.601 2.971 9.53536 3.00766 9.71607 3.31281C9.92235 3.61456 10.1619 3.56001 10.2019 3.48073C10.2965 3.34094 10.2454 3.17558 10.1712 3.09034Z" fill="#D6CD56"/>
<path d="M9.4005 2.24549C9.3127 2.14235 9.17461 2.12445 9.02289 2.13041C8.8311 2.1253 8.76546 2.16195 8.94617 2.46711C9.15245 2.76886 9.39112 2.7143 9.43203 2.63503C9.5258 2.49609 9.47465 2.33073 9.4005 2.24549Z" fill="#D6CD56"/>
<path d="M12.454 2.5951C12.3662 2.49196 12.2281 2.47406 12.0764 2.48003C11.8846 2.47491 11.8189 2.51156 11.9996 2.81672C12.2059 3.11846 12.4446 3.06391 12.4855 2.98464C12.5793 2.8457 12.5281 2.68034 12.454 2.5951Z" fill="#D6CD56"/>
<path d="M11.4217 1.79432C11.3339 1.69118 11.1958 1.67328 11.0433 1.67924C10.8515 1.67413 10.7859 1.71078 10.9666 2.01594C11.1728 2.31768 11.4124 2.26313 11.4524 2.18386C11.547 2.04492 11.4959 1.87955 11.4217 1.79432Z" fill="#D6CD56"/>
<path d="M11.4629 2.89698C11.3751 2.79384 11.237 2.77679 11.0844 2.78276C10.8926 2.77764 10.827 2.8143 11.0077 3.11945C11.214 3.4212 11.4535 3.36665 11.4936 3.28737C11.5882 3.14758 11.537 2.98136 11.4629 2.89698Z" fill="#D6CD56"/>
<path d="M10.3664 1.89502C10.2786 1.79189 10.1406 1.77484 9.98883 1.7808C9.79704 1.77569 9.73141 1.81234 9.91211 2.1175C10.1184 2.41925 10.3571 2.36469 10.398 2.28542C10.4917 2.14563 10.4406 1.98026 10.3664 1.89502Z" fill="#D6CD56"/>
<path d="M7.69322 4.95057C7.60542 4.84743 7.46734 4.83038 7.31561 4.83549C7.12382 4.83038 7.05819 4.86703 7.2389 5.17219C7.44517 5.47393 7.6847 5.41938 7.72476 5.34011C7.81852 5.20032 7.76738 5.03495 7.69322 4.95057Z" fill="#D6CD56"/>
<path d="M13.5792 3.48963C13.4914 3.38649 13.3533 3.36944 13.2016 3.37456C13.0098 3.36944 12.9442 3.40609 13.1249 3.71125C13.3312 4.013 13.5698 3.95844 13.6107 3.87917C13.7045 3.73938 13.6534 3.57487 13.5792 3.48963Z" fill="#D6CD56"/>
<path d="M9.09312 1.17908C9.00533 1.07594 8.86724 1.05804 8.71551 1.06401C8.52373 1.05889 8.45809 1.09555 8.6388 1.4007C8.84508 1.70245 9.08375 1.6479 9.12466 1.56862C9.21842 1.42968 9.16728 1.26432 9.09312 1.17908Z" fill="#D6CD56"/>
<path d="M7.33213 6.16346C7.24434 6.06032 7.10625 6.04242 6.95367 6.04839C6.76188 6.04327 6.69625 6.07992 6.87696 6.38508C7.08324 6.68682 7.32191 6.63227 7.36282 6.553C7.45744 6.41406 7.40629 6.24869 7.33213 6.16346Z" fill="#D6CD56"/>
<path d="M12.3052 7.37049C12.2174 7.26735 12.0793 7.24945 11.9267 7.25542C11.7349 7.2503 11.6693 7.28695 11.85 7.59211C12.0563 7.89386 12.2958 7.8393 12.3358 7.76003C12.4313 7.62109 12.3802 7.45573 12.3052 7.37049Z" fill="#D6CD56"/>
<path d="M9.37535 0.116583C9.28755 0.0134442 9.14946 -0.00445646 8.99689 0.00151026C8.8051 -0.00360405 8.73946 0.0330471 8.92017 0.338203C9.12645 0.639949 9.36597 0.585396 9.40603 0.506124C9.5015 0.366332 9.45036 0.20097 9.37535 0.116583Z" fill="#D6CD56"/>
<path d="M10.4709 0.71619C10.3831 0.613051 10.245 0.59515 10.0925 0.601117C9.90068 0.596003 9.83504 0.632657 10.0158 0.937812C10.222 1.23956 10.4616 1.18501 10.5016 1.10573C10.5962 0.966794 10.5451 0.800577 10.4709 0.71619Z" fill="#D6CD56"/>
<path d="M12.5387 1.47315C12.4509 1.37001 12.3128 1.35296 12.1602 1.35893C11.9684 1.35382 11.9028 1.39047 12.0835 1.69562C12.2898 1.99737 12.5293 1.94282 12.5694 1.86355C12.664 1.72375 12.6128 1.55839 12.5387 1.47315Z" fill="#D6CD56"/>
<path d="M11.7696 0.630253C11.6818 0.527113 11.5438 0.509213 11.392 0.51518C11.2002 0.510065 11.1346 0.546719 11.3153 0.851875C11.5216 1.15362 11.7603 1.09907 11.8012 1.0198C11.8949 0.880856 11.8438 0.714639 11.7696 0.630253Z" fill="#D6CD56"/>
</g>
</g>
</svg>
