<svg width="19" height="18" viewBox="0 0 19 18" fill="none" xmlns="http://www.w3.org/2000/svg">
<path d="M16.9437 9.55256H15.1388C14.9596 9.55256 14.8203 9.41289 14.8203 9.23331C14.8203 9.05373 14.9596 8.91406 15.1388 8.91406H16.9437C17.1228 8.91406 17.2621 9.05373 17.2621 9.23331C17.2621 9.39294 17.1228 9.55256 16.9437 9.55256Z" fill="#3D857E" stroke="#3D857E" stroke-width="1.3"/>
<path d="M11.6818 9.55256H1.31846C1.13932 9.55256 1 9.41289 1 9.23331C1 9.05373 1.13932 8.91406 1.31846 8.91406H11.7017C11.8809 8.91406 12.0202 9.05373 12.0202 9.23331C12.0003 9.39294 11.861 9.55256 11.6818 9.55256Z" fill="#3D857E" stroke="#3D857E" stroke-width="1.3"/>
<path d="M13.3999 11.0941C12.3649 11.0941 11.5488 10.2561 11.5488 9.23846C11.5488 8.20089 12.3848 7.38281 13.3999 7.38281C14.4348 7.38281 15.2509 8.22085 15.2509 9.23846C15.2509 10.2561 14.4149 11.0941 13.3999 11.0941ZM13.3999 8.00136C12.7231 8.00136 12.1857 8.56005 12.1857 9.21851C12.1857 9.89692 12.743 10.4357 13.3999 10.4357C14.0766 10.4357 14.614 9.87696 14.614 9.21851C14.614 8.56005 14.0766 8.00136 13.3999 8.00136Z" fill="#3D857E" stroke="#3D857E"/>
<path d="M1.55674 15.9119H3.36162C3.54075 15.9119 3.68008 15.7723 3.68008 15.5927C3.68008 15.4131 3.54075 15.2734 3.36162 15.2734H1.55674C1.37761 15.2734 1.23828 15.4131 1.23828 15.5927C1.23828 15.7723 1.37761 15.9119 1.55674 15.9119Z" fill="#3D857E" stroke="#3D857E" stroke-width="1.3"/>
<path d="M6.79892 15.9119H17.1822C17.3613 15.9119 17.5007 15.7723 17.5007 15.5927C17.5007 15.4131 17.3613 15.2734 17.1822 15.2734H6.79892C6.61979 15.2734 6.48047 15.4131 6.48047 15.5927C6.48047 15.7723 6.61979 15.9119 6.79892 15.9119Z" fill="#3D857E" stroke="#3D857E" stroke-width="1.3"/>
<path d="M3.22852 15.5978C3.22852 14.5603 4.06446 13.7422 5.07954 13.7422C6.11452 13.7422 6.93057 14.5802 6.93057 15.5978C6.93057 16.6354 6.09462 17.4535 5.07954 17.4535C4.06446 17.4535 3.22852 16.6154 3.22852 15.5978ZM3.86543 15.5978C3.86543 16.2762 4.42273 16.815 5.07954 16.815C5.75626 16.815 6.29365 16.2563 6.29365 15.5978C6.29365 14.9194 5.73636 14.3807 5.07954 14.3807C4.42273 14.3807 3.86543 14.9194 3.86543 15.5978Z" fill="#3D857E" stroke="#3D857E"/>
<path d="M1.31846 3.17756H3.12334C3.30247 3.17756 3.4418 3.03789 3.4418 2.85831C3.4418 2.67873 3.30247 2.53906 3.12334 2.53906H1.31846C1.13932 2.53906 1 2.67873 1 2.85831C1 3.03789 1.13932 3.17756 1.31846 3.17756Z" fill="#3D857E" stroke="#3D857E" stroke-width="1.3"/>
<path d="M6.56064 3.17756H16.9439C17.1231 3.17756 17.2624 3.03789 17.2624 2.85831C17.2624 2.67873 17.1231 2.53906 16.9439 2.53906H6.56064C6.38151 2.53906 6.24219 2.67873 6.24219 2.85831C6.24219 3.03789 6.38151 3.17756 6.56064 3.17756Z" fill="#3D857E" stroke="#3D857E" stroke-width="1.3"/>
<path d="M2.99023 2.85565C2.99023 1.81808 3.82618 1 4.84126 1C5.87624 1 6.69228 1.83803 6.69228 2.85565C6.69228 3.89321 5.85634 4.7113 4.84126 4.7113C3.82618 4.73125 2.99023 3.89321 2.99023 2.85565ZM3.62715 2.85565C3.62715 3.53406 4.18444 4.07279 4.84126 4.07279C5.51798 4.07279 6.05537 3.5141 6.05537 2.85565C6.05537 2.17724 5.49807 1.6385 4.84126 1.6385C4.18444 1.6385 3.62715 2.17724 3.62715 2.85565Z" fill="#3D857E" stroke="#3D857E"/>
</svg>
