<svg width="22" height="13" viewBox="0 0 22 13" fill="none" xmlns="http://www.w3.org/2000/svg">
<path d="M20.9981 8.19361C20.9973 8.17826 20.9959 8.16347 20.9934 8.14813C20.9912 8.13525 20.9885 8.12319 20.9858 8.11087C20.9822 8.09771 20.9784 8.08456 20.9734 8.07169C20.9685 8.05826 20.963 8.04539 20.9564 8.03251C20.9534 8.02621 20.9515 8.01936 20.9482 8.01306L17.5236 1.84867C17.5205 1.84347 17.5167 1.83936 17.5137 1.83443C17.5063 1.8221 17.4978 1.81059 17.4893 1.79936C17.4814 1.78895 17.4732 1.77881 17.4644 1.76922C17.4553 1.75963 17.4455 1.75087 17.4356 1.74182C17.4258 1.73278 17.4159 1.72456 17.4055 1.71662C17.3942 1.70867 17.3825 1.70155 17.3707 1.6947C17.36 1.6884 17.3493 1.6821 17.3381 1.67717C17.3252 1.67114 17.3121 1.66621 17.2984 1.66155C17.2866 1.65744 17.2751 1.65361 17.263 1.65059C17.2499 1.6473 17.2364 1.64511 17.223 1.64319C17.209 1.641 17.1951 1.63963 17.1808 1.63881C17.1753 1.63881 17.1701 1.63744 17.1644 1.63744H13.4658V0.678537C13.4658 0.451414 13.2816 0.267578 13.0548 0.267578H1.41096C1.18384 0.267578 1 0.451414 1 0.678537V10.9525C1 11.1794 1.18384 11.3635 1.41096 11.3635H3.10466C3.29096 12.1476 3.99534 12.7333 4.83562 12.7333C5.67589 12.7333 6.38055 12.1476 6.56658 11.3635H15.4332C15.6195 12.1476 16.3238 12.7333 17.1641 12.7333C18.0044 12.7333 18.709 12.1476 18.8951 11.3635H20.589C20.8159 11.3635 21 11.1794 21 10.9525V8.21278C21 8.20648 20.9984 8.20018 20.9981 8.19361ZM17.1644 9.17169C16.3241 9.17169 15.6195 9.75744 15.4334 10.5416H6.56658C6.38027 9.75744 5.67589 9.17169 4.83562 9.17169C3.99534 9.17169 3.29068 9.75744 3.10466 10.5416H1.82192V1.0895H12.6438V6.15799C12.6438 6.38484 12.8279 6.56895 13.0548 6.56895H19.2055L20.1781 8.31963V10.5416H18.8953C18.7093 9.75744 18.0047 9.17169 17.1644 9.17169ZM16.9225 2.45936L18.749 5.74703H13.4658V2.45936H16.9225ZM4.83562 11.9114C4.30685 11.9114 3.87671 11.4813 3.87671 10.9525C3.87671 10.4237 4.30685 9.99361 4.83562 9.99361C5.36438 9.99361 5.79452 10.4237 5.79452 10.9525C5.79452 11.4813 5.36438 11.9114 4.83562 11.9114ZM17.1644 11.9114C16.6356 11.9114 16.2055 11.4813 16.2055 10.9525C16.2055 10.4237 16.6356 9.99361 17.1644 9.99361C17.6931 9.99361 18.1233 10.4237 18.1233 10.9525C18.1233 11.4813 17.6931 11.9114 17.1644 11.9114Z" fill="#3D857E" stroke="#3D857E" stroke-width="0.3"/>
</svg>
