<svg width="15" height="14" viewBox="0 0 15 14" fill="none" xmlns="http://www.w3.org/2000/svg">
<path d="M14.6611 5.17903L10.0088 4.76556L8.16076 0.653451C8.09606 0.509487 7.95721 0.437503 7.81836 0.4375C7.6795 0.437497 7.54065 0.50948 7.47596 0.653451L5.62792 4.76553L0.975612 5.17903C0.649841 5.20796 0.518211 5.59623 0.763974 5.80313L4.27416 8.758L3.24689 13.1256C3.17496 13.4315 3.51965 13.6714 3.80093 13.5114L7.81836 11.2255L11.8358 13.5114C12.1171 13.6714 12.4617 13.4315 12.3898 13.1256L11.3625 8.758L14.8728 5.80313C15.1185 5.59623 14.9869 5.20796 14.6611 5.17903Z" fill="#3D857E"/>
</svg>
