<svg width="60" height="60" viewBox="0 0 60 60" fill="none" xmlns="http://www.w3.org/2000/svg">
<path d="M27.5431 0C29.1452 0 30.7458 0 32.3479 0C32.4042 0.148242 32.5361 0.108217 32.6443 0.117111C33.907 0.23274 35.1608 0.413595 36.3998 0.69229C48.7379 3.46886 57.8095 13.2247 59.6932 25.7289C59.7955 26.4108 59.7747 27.112 60 27.7761C60 28.1674 60 28.5573 60 28.9487C59.714 28.9042 59.508 28.7159 59.3079 28.5336C58.2719 27.5878 57.2419 26.6376 56.2148 25.6829C54.4305 24.0256 52.6609 22.3534 50.8602 20.7138C50.5075 20.3922 50.1933 19.9978 49.7205 19.8199C49.5026 19.267 49.1721 18.7911 48.7512 18.3716C47.948 17.5726 47.1565 16.7632 46.3444 15.9731C46.0806 15.7166 45.7916 15.4705 45.4744 15.2882C43.9909 14.4402 42.3458 14.7278 41.0046 16.062C35.9937 21.0474 30.9814 26.0328 25.9884 31.0359C25.612 31.4139 25.4356 31.3754 25.0888 31.0196C23.0851 28.965 21.0547 26.9341 19.0317 24.8987C17.3155 23.1717 15.2569 23.1761 13.5229 24.9032C12.8174 25.6058 12.1135 26.3115 11.411 27.0156C9.63103 28.8004 9.63251 30.8076 11.4199 32.6103C15.0909 36.3119 18.7649 40.012 22.4315 43.718C22.9532 44.2458 23.4823 44.7572 24.1418 45.1145C24.1744 45.4184 24.4189 45.574 24.6072 45.7638C28.7776 49.9397 32.9511 54.1128 37.1216 58.2887C37.3246 58.4918 37.584 58.6593 37.6284 58.981C35.5491 59.6303 33.4016 59.8912 31.2393 59.9742C25.8447 60.1833 20.696 59.1293 15.9742 56.495C6.11264 50.9937 0.755028 42.5484 0.0554999 31.2687C-0.279444 25.8593 0.904715 20.6961 3.52498 15.9434C8.35498 7.18232 15.74 1.97014 25.6224 0.323167C26.2626 0.216433 26.9295 0.262388 27.5431 0Z" fill="#32B97C"/>
<path d="M49.7203 19.8203C50.1931 19.9997 50.5073 20.394 50.86 20.7142C52.6607 22.3523 54.4303 24.0259 56.2147 25.6833C57.2417 26.638 58.2717 27.5897 59.3077 28.534C59.5063 28.7163 59.7138 28.9031 59.9998 28.949C59.9998 30.1216 59.9998 31.2928 59.9998 32.4653C59.8827 32.5069 59.8901 32.6077 59.8827 32.704C59.7494 34.2769 59.5048 35.8319 59.0943 37.3559C56.6578 46.4001 51.2142 52.9805 42.8288 57.1224C41.1718 57.9407 39.4467 58.5989 37.6283 58.9843C37.5838 58.6627 37.3244 58.4951 37.1214 58.2921C32.9509 54.1161 28.7775 49.9431 24.607 45.7671C24.4187 45.5788 24.1742 45.4217 24.1416 45.1178C25.8178 45.6811 27.2183 45.2823 28.4277 43.9912C29.72 42.611 31.0598 41.2739 32.3981 39.9382C37.8091 34.5393 43.223 29.1418 48.6503 23.7561C49.7796 22.6354 50.1886 21.3576 49.7203 19.8203Z" fill="#0AA06E"/>
<path d="M49.7202 19.8216C50.1886 21.3588 49.7795 22.6367 48.6487 23.7574C43.2229 29.143 37.809 34.539 32.3965 39.9395C31.0582 41.2751 29.72 42.6123 28.4261 43.9924C27.2153 45.2836 25.8148 45.6824 24.14 45.119C23.4805 44.7633 22.9514 44.2504 22.4297 43.7226C18.7632 40.0166 15.0877 36.3179 11.4181 32.6148C9.63076 30.8122 9.62928 28.8065 11.4092 27.0202C12.1132 26.3146 12.8157 25.6104 13.5211 24.9077C15.2551 23.1807 17.3137 23.1763 19.0299 24.9033C21.0544 26.9387 23.0833 28.9696 25.0871 31.0242C25.4339 31.38 25.6102 31.4171 25.9867 31.0405C30.9797 26.0374 35.992 21.0535 41.0028 16.0666C42.3441 14.7324 43.9891 14.4434 45.4727 15.2928C45.7898 15.4736 46.0788 15.7212 46.3426 15.9777C47.1548 16.7663 47.9462 17.5772 48.7495 18.3762C49.1733 18.7928 49.5038 19.2686 49.7202 19.8216Z" fill="#FDFEFE"/>
</svg>
