<svg width="22" height="22" viewBox="0 0 22 22" fill="none" xmlns="http://www.w3.org/2000/svg">
<path d="M11 1C5.48666 1 1 5.48666 1 11C1 16.5133 5.48666 21 11 21C16.5133 21 21 16.5133 21 11C21 5.48666 16.5133 1 11 1ZM11 20.1304C5.96529 20.1304 1.86956 16.0347 1.86956 11C1.86956 5.96529 5.96529 1.86956 11 1.86956C16.0347 1.86956 20.1304 5.96529 20.1304 11C20.1304 16.0347 16.0347 20.1304 11 20.1304Z" fill="#3D857E" stroke="#3D857E" stroke-width="0.7"/>
<path d="M11.436 10.8181V4.91134C11.436 4.67142 11.2411 4.47656 11.0012 4.47656C10.7613 4.47656 10.5664 4.67142 10.5664 4.91134V10.9983C10.5664 11.0543 10.5774 11.1116 10.5993 11.1639C10.6212 11.2175 10.6529 11.265 10.6943 11.3052L15.0421 15.653C15.1274 15.7383 15.2382 15.7809 15.349 15.7809C15.4598 15.7809 15.5719 15.7383 15.6559 15.653C15.8252 15.4837 15.8252 15.2085 15.6559 15.038L11.436 10.8181Z" fill="#3D857E" stroke="#3D857E" stroke-width="0.7"/>
</svg>
