<svg width="24" height="20" viewBox="0 0 24 20" fill="none" xmlns="http://www.w3.org/2000/svg">
<path d="M2.13645 3.1H15.8636C16.5344 3.1 17.1 2.61949 17.1 2C17.1 1.3805 16.5344 0.9 15.8636 0.9H2.13645C1.46558 0.9 0.9 1.3805 0.9 2C0.9 2.61949 1.46558 3.1 2.13645 3.1Z" fill="#333333" stroke="#333333" stroke-width="0.2"/>
<path d="M2.14052 11.1H21.8595C22.5322 11.1 23.1 10.6198 23.1 10C23.1 9.38019 22.5322 8.9 21.8595 8.9H2.14052C1.46776 8.9 0.9 9.38019 0.9 10C0.9 10.6198 1.46776 11.1 2.14052 11.1Z" fill="#333333" stroke="#333333" stroke-width="0.2"/>
<path d="M2.13645 19.1H15.8636C16.5344 19.1 17.1 18.6195 17.1 18C17.1 17.3805 16.5344 16.9 15.8636 16.9H2.13645C1.46558 16.9 0.9 17.3805 0.9 18C0.9 18.6195 1.46558 19.1 2.13645 19.1Z" fill="#333333" stroke="#333333" stroke-width="0.2"/>
</svg>
