<svg width="24" height="24" viewBox="0 0 24 24" fill="none" xmlns="http://www.w3.org/2000/svg">
<path d="M18.0701 10.3214C17.8801 10.3214 17.6901 10.2514 17.5401 10.1014L12.0001 4.56141L6.46012 10.1014C6.17012 10.3914 5.69012 10.3914 5.40012 10.1014C5.11012 9.81141 5.11012 9.33141 5.40012 9.04141L11.4701 2.97141C11.7601 2.68141 12.2401 2.68141 12.5301 2.97141L18.6001 9.04141C18.8901 9.33141 18.8901 9.81141 18.6001 10.1014C18.4601 10.2514 18.2601 10.3214 18.0701 10.3214Z" fill="#044236"/>
<path d="M12 21.2519C11.59 21.2519 11.25 20.9119 11.25 20.5019V3.67188C11.25 3.26188 11.59 2.92188 12 2.92188C12.41 2.92188 12.75 3.26188 12.75 3.67188V20.5019C12.75 20.9119 12.41 21.2519 12 21.2519Z" fill="#044236"/>
</svg>