<svg width="52" height="67" viewBox="0 0 52 67" fill="none" xmlns="http://www.w3.org/2000/svg">
<path d="M0.666016 66.6641C0.666016 59.9453 3.33506 53.5016 8.08598 48.7507C12.8369 43.9998 19.2805 41.3307 25.9993 41.3307C32.7182 41.3307 39.1618 43.9998 43.9127 48.7507C48.6636 53.5016 51.3327 59.9453 51.3327 66.6641H44.9993C44.9993 61.625 42.9976 56.7922 39.4344 53.229C35.8712 49.6658 31.0385 47.6641 25.9993 47.6641C20.9602 47.6641 16.1275 49.6658 12.5643 53.229C9.00113 56.7922 6.99935 61.625 6.99935 66.6641H0.666016ZM25.9993 38.1641C15.5018 38.1641 6.99935 29.6616 6.99935 19.1641C6.99935 8.66656 15.5018 0.164062 25.9993 0.164062C36.4968 0.164062 44.9993 8.66656 44.9993 19.1641C44.9993 29.6616 36.4968 38.1641 25.9993 38.1641ZM25.9993 31.8307C32.9977 31.8307 38.666 26.1624 38.666 19.1641C38.666 12.1657 32.9977 6.4974 25.9993 6.4974C19.001 6.4974 13.3327 12.1657 13.3327 19.1641C13.3327 26.1624 19.001 31.8307 25.9993 31.8307Z" fill="#004236"/>
</svg>
