<svg width="16" height="19" viewBox="0 0 16 19" fill="none" xmlns="http://www.w3.org/2000/svg">
<path d="M11.6421 10.8783C10.5406 10.5562 5.45939 10.5562 4.35787 10.8783C2.35025 11.4547 1 13.2517 1 15.2521V17.0152C1 17.5577 1.46193 17.9985 2.03046 17.9985H13.9695C14.5381 17.9985 15 17.5577 15 17.0152V15.2521C15 13.2517 13.6497 11.4547 11.6421 10.8783Z" stroke="#3D857E" stroke-width="1.8"/>
<path d="M7.9999 8.62881C10.2076 8.62881 11.9974 6.92104 11.9974 4.8144C11.9974 2.70777 10.2076 1 7.9999 1C5.79217 1 4.00244 2.70777 4.00244 4.8144C4.00244 6.92104 5.79217 8.62881 7.9999 8.62881Z" stroke="#3D857E" stroke-width="1.8"/>
</svg>
