<svg width="22" height="22" viewBox="0 0 22 22" fill="none" xmlns="http://www.w3.org/2000/svg">
<path d="M9.17647 21C9.06879 21 8.98529 20.9164 8.96771 20.8349C8.93914 20.7205 6.27582 10.1813 1.03708 2.39965C1.00412 2.35123 0.993133 2.29401 1.00412 2.2368C1.01071 2.19938 1.03269 2.14877 1.08543 2.11356C1.12938 2.08495 1.17552 2.07174 1.22387 2.07174C1.29858 2.07174 1.3667 2.10916 1.41285 2.17518C5.16171 7.75176 7.65143 14.8446 8.8007 18.5748L9.20504 19.8842L9.63794 18.5836C10.5806 15.7491 11.842 13.1501 13.3868 10.857L13.6153 10.518L13.2945 10.265C12.2859 9.47271 11.7629 8.43618 11.8574 7.41725C12.0332 5.45202 13.6769 4.69278 15.5821 3.8147C16.9796 3.15889 18.4234 2.48327 19.6254 1.23327C19.7726 1.08583 19.9726 1 20.1813 1C20.2736 1 20.3659 1.0154 20.4538 1.04842L19.8122 1.66901C18.5794 2.8618 17.1005 3.55502 15.793 4.16681L15.7557 4.18442C13.6988 5.14613 12.4287 5.81734 12.2749 7.42386C12.2068 8.28213 12.6353 9.14261 13.4901 9.85123L13.8461 10.1461L14.1229 9.77641C14.9206 8.71127 15.7425 7.79798 16.5687 7.06294C16.5973 7.03873 16.6193 7.01893 16.6346 7.00352C16.6742 6.97271 16.716 6.95511 16.7599 6.95511C16.8214 6.95511 16.883 6.98592 16.9313 7.04533C16.9884 7.12016 17.0082 7.2544 16.8939 7.34903L16.8786 7.36224L16.8654 7.37544C16.5423 7.66593 15.6656 8.5066 14.5624 9.97447L14.224 10.4234L14.7404 10.6435C15.3887 10.9186 16.0589 11.066 16.6808 11.066C17.3444 11.066 17.918 10.9032 18.3904 10.5797C20.0759 9.4375 20.6955 5.43222 20.5593 1.96831L20.5241 1.07702C20.7966 1.20246 20.9636 1.45555 20.9768 1.76144C21.1043 4.49472 20.7571 9.49692 18.6431 10.9296C18.085 11.2971 17.3928 11.493 16.6478 11.493C15.8567 11.493 15.0723 11.3015 14.3163 10.923L13.9713 10.7513L13.756 11.0704C11.831 13.9181 10.3609 17.206 9.38742 20.8416C9.37863 20.8768 9.3259 21 9.17647 21Z" fill="#333333" stroke="#333333" stroke-width="1.5" stroke-linejoin="round"/>
</svg>
