<svg width="12" height="12" viewBox="0 0 12 12" fill="none" xmlns="http://www.w3.org/2000/svg">
<path d="M6 12C4.81331 12 3.65328 11.6481 2.66658 10.9888C1.67989 10.3295 0.910851 9.39246 0.456725 8.2961C0.0025997 7.19975 -0.11622 5.99335 0.115291 4.82946C0.346802 3.66557 0.918247 2.59648 1.75736 1.75736C2.59648 0.918247 3.66557 0.346802 4.82946 0.115291C5.99335 -0.11622 7.19975 0.0025997 8.2961 0.456725C9.39246 0.910851 10.3295 1.67989 10.9888 2.66658C11.6481 3.65328 12 4.81331 12 6C12 7.5913 11.3679 9.11742 10.2426 10.2426C9.11742 11.3679 7.5913 12 6 12ZM6 1.2C5.05065 1.2 4.12262 1.48152 3.33326 2.00895C2.54391 2.53638 1.92868 3.28604 1.56538 4.16312C1.20208 5.04021 1.10702 6.00533 1.29223 6.93644C1.47744 7.86754 1.9346 8.72282 2.60589 9.39411C3.27718 10.0654 4.13246 10.5226 5.06357 10.7078C5.99468 10.893 6.9598 10.7979 7.83688 10.4346C8.71397 10.0713 9.46362 9.45609 9.99105 8.66674C10.5185 7.87738 10.8 6.94935 10.8 6C10.8 4.72696 10.2943 3.50606 9.39411 2.60589C8.49394 1.70572 7.27304 1.2 6 1.2Z" fill="#60BE6F"/>
<path d="M5.66742 7.99999C5.59438 8.00042 5.52196 7.98602 5.45434 7.9576C5.38671 7.92918 5.3252 7.8873 5.27334 7.83437L4.16324 6.69219C4.05872 6.58465 4 6.43879 4 6.28671C4 6.13463 4.05872 5.98877 4.16324 5.88123C4.26775 5.77369 4.40951 5.71328 4.55732 5.71328C4.70513 5.71328 4.84689 5.77369 4.95141 5.88123L5.66742 6.62366L8.04859 4.16795C8.15311 4.06041 8.29487 4 8.44268 4C8.59049 4 8.73225 4.06041 8.83676 4.16795C8.94128 4.27549 9 4.42135 9 4.57343C9 4.72551 8.94128 4.87137 8.83676 4.97891L6.06151 7.83437C6.00965 7.8873 5.94814 7.92918 5.88051 7.9576C5.81289 7.98602 5.74047 8.00042 5.66742 7.99999Z" fill="#60BE6F"/>
</svg>
