<svg width="20" height="19" viewBox="0 0 20 19" fill="none" xmlns="http://www.w3.org/2000/svg">
<path d="M1.81223e-05 4C1.81223e-05 3.448 0.455018 3 0.992018 3H19.008C19.556 3 20 3.445 20 4V18C20 18.552 19.545 19 19.008 19H0.992018C0.861146 18.9997 0.731614 18.9736 0.610855 18.9232C0.490096 18.8727 0.380487 18.7989 0.288319 18.706C0.196151 18.6131 0.123237 18.5029 0.0737631 18.3818C0.024289 18.2606 -0.000772111 18.1309 1.81223e-05 18V4ZM2.00002 5V17H18V5H2.00002ZM12 14C12.7957 14 13.5587 13.6839 14.1213 13.1213C14.6839 12.5587 15 11.7956 15 11C15 10.2044 14.6839 9.44129 14.1213 8.87868C13.5587 8.31607 12.7957 8 12 8C11.2044 8 10.4413 8.31607 9.8787 8.87868C9.31609 9.44129 9.00002 10.2044 9.00002 11C9.00002 11.7956 9.31609 12.5587 9.8787 13.1213C10.4413 13.6839 11.2044 14 12 14ZM12 16C10.6739 16 9.40217 15.4732 8.46448 14.5355C7.5268 13.5979 7.00002 12.3261 7.00002 11C7.00002 9.67392 7.5268 8.40215 8.46448 7.46447C9.40217 6.52678 10.6739 6 12 6C13.3261 6 14.5979 6.52678 15.5356 7.46447C16.4732 8.40215 17 9.67392 17 11C17 12.3261 16.4732 13.5979 15.5356 14.5355C14.5979 15.4732 13.3261 16 12 16ZM2.00002 0H8.00002V2H2.00002V0Z" fill="#044236"/>
</svg>
