<?xml version="1.0" encoding="utf-8"?>
<!-- Generator: Adobe Illustrator 21.1.0, SVG Export Plug-In . SVG Version: 6.00 Build 0)  -->
<svg version="1.1" id="Layer_1" xmlns="http://www.w3.org/2000/svg" xmlns:xlink="http://www.w3.org/1999/xlink" x="0px" y="0px"
	 viewBox="0 0 60 60" style="enable-background:new 0 0 60 60;" xml:space="preserve">
<style type="text/css">
	.st0{clip-path:url(#SVGID_2_);}
	.st1{fill:#FFFFFF;}
</style>
<g>
	<defs>
		<rect id="SVGID_1_" x="1" y="22.5" width="58" height="18"/>
	</defs>
	<clipPath id="SVGID_2_">
		<use xlink:href="#SVGID_1_"  style="overflow:visible;"/>
	</clipPath>
	<g class="st0">
		<path class="st1" d="M24.2,22.8l-2.9,17.4H26l3-17.4H24.2z"/>
		<path class="st1" d="M17.3,22.8l-4.6,11.9l-0.5-1.8c-1.5-2.9-3.8-5.4-6.5-7.2l4.2,14.5l5,0l7.4-17.4L17.3,22.8z"/>
		<path class="st1" d="M10.4,24.1c-0.1-0.4-0.4-0.8-0.8-1.1s-0.8-0.4-1.3-0.3H1.1L1,23c5.7,1.4,9.5,4.7,11,8.7L10.4,24.1z"/>
		<path class="st1" d="M38.5,26.2c1.2,0,2.4,0.2,3.5,0.7l0.4,0.2l0.6-3.8c-1.4-0.5-2.8-0.7-4.2-0.7c-4.7,0-7.9,2.4-8,5.7
			c0,2.5,2.3,3.9,4.1,4.7c1.8,0.9,2.5,1.4,2.4,2.2c0,1.2-1.5,1.7-2.8,1.7c-1.5,0-3-0.3-4.4-0.9l-0.6-0.3l-0.7,3.9
			c1.7,0.6,3.5,0.9,5.3,0.9c5,0,8.2-2.3,8.2-5.9c0-2-1.2-3.5-4-4.7c-1.6-0.8-2.7-1.3-2.6-2.2C35.8,26.9,36.6,26.2,38.5,26.2z"/>
		<path class="st1" d="M55.2,22.8h-3.6c-0.5-0.1-1,0-1.5,0.3c-0.4,0.3-0.8,0.7-1,1.1l-7,15.9h5c0,0,0.8-2.1,1-2.6l6,0
			c0.1,0.6,0.6,2.6,0.6,2.6H59L55.2,22.8z M49.4,34.1c0.4-1,1.9-4.9,1.9-4.9c0,0,0.4-1,0.6-1.7l0.3,1.5l1.1,5H49.4z"/>
	</g>
</g>
</svg>
