<svg width="100" height="100" viewBox="0 0 100 100" fill="none" xmlns="http://www.w3.org/2000/svg">
<circle cx="50" cy="50" r="50" fill="#3A857E"/>
<path d="M65.4767 71.7728H34.5847C31.0776 71.7728 28.2246 68.9199 28.2246 65.4127V47.241C28.2246 43.7338 31.0776 40.8809 34.5847 40.8809H65.4767C68.9838 40.8809 71.8368 43.7338 71.8368 47.241V65.4127C71.8368 68.918 68.9838 71.7728 65.4767 71.7728ZM34.5847 42.698C32.0788 42.698 30.0418 44.7369 30.0418 47.241V65.4127C30.0418 67.9168 32.0788 69.9556 34.5847 69.9556H65.4767C67.9826 69.9556 70.0196 67.9168 70.0196 65.4127V47.241C70.0196 44.7369 67.9826 42.698 65.4767 42.698H34.5847Z" fill="white" stroke="white"/>
<path d="M63.6594 59.0541C62.1566 59.0541 60.9336 57.8311 60.9336 56.3283C60.9336 54.8255 62.1566 53.6025 63.6594 53.6025C65.1622 53.6025 66.3851 54.8255 66.3851 56.3283C66.3851 57.8311 65.1622 59.0541 63.6594 59.0541ZM63.6594 55.4197C63.1596 55.4197 62.7508 55.8268 62.7508 56.3283C62.7508 56.8298 63.1596 57.2369 63.6594 57.2369C64.1591 57.2369 64.5679 56.8298 64.5679 56.3283C64.5679 55.8268 64.1591 55.4197 63.6594 55.4197Z" fill="white" stroke="white"/>
<path d="M70.9276 62.688H63.6589C60.1518 62.688 57.2988 59.835 57.2988 56.3279C57.2988 52.8207 60.1518 49.9678 63.6589 49.9678H70.9276C71.4292 49.9678 71.8362 50.3748 71.8362 50.8764V61.7794C71.8362 62.2809 71.4292 62.688 70.9276 62.688ZM63.6589 51.7849C61.1531 51.7849 59.116 53.8238 59.116 56.3279C59.116 58.8319 61.1531 60.8708 63.6589 60.8708H70.019V51.7849H63.6589Z" fill="white" stroke="white"/>
<path d="M29.1332 48.1474C28.6317 48.1474 28.2246 47.7422 28.2246 47.2388C28.2246 43.5608 30.4161 40.2645 33.807 38.8416L56.9469 29.1379C59.0584 27.9568 61.4407 27.9132 63.3887 29.0616C65.2659 30.1665 66.3853 32.1944 66.3853 34.4877V41.7873C66.3853 42.2888 65.9782 42.6959 65.4767 42.6959C64.9751 42.6959 64.5681 42.2906 64.5681 41.7891V34.4877C64.5681 32.8431 63.7831 31.4003 62.4692 30.6262C61.0864 29.8139 59.3619 29.8666 57.741 30.7698L34.5102 40.5189C31.7954 41.6564 30.0418 44.2932 30.0418 47.2388C30.0418 47.7403 29.6347 48.1474 29.1332 48.1474Z" fill="white" stroke="white"/>
<path d="M45.4889 42.6963C45.1218 42.6963 44.7747 42.471 44.6384 42.1075C44.4622 41.6369 44.6984 41.1117 45.1691 40.9354L59.7064 35.4839C60.1735 35.3077 60.7004 35.5457 60.8767 36.0145C61.0548 36.4852 60.8167 37.0085 60.3461 37.1848L45.8087 42.6363C45.7033 42.6763 45.5961 42.6963 45.4889 42.6963Z" fill="white" stroke="white"/>
</svg>
