<svg width="100" height="100" viewBox="0 0 100 100" fill="none" xmlns="http://www.w3.org/2000/svg">
<circle cx="50" cy="50" r="50" fill="#3A857E"/>
<path d="M56.7321 56.2036L56.732 56.2036C55.9581 56.2155 55.3379 56.85 55.3459 57.6261V63.5673H30.8205C29.4221 63.5673 28.3708 62.5142 28.3708 61.2139V51.4073H39.3216C40.1076 51.4215 40.75 50.7887 40.75 50.002C40.75 49.2165 40.1084 48.58 39.3217 48.5936H28.3702V38.7882C28.3702 37.4876 29.4212 36.4372 30.8199 36.4372H55.3453V42.5378C55.3345 43.3231 55.9647 43.967 56.7524 43.967C57.5379 43.967 58.1723 43.3241 58.1595 42.5376V36.4372H69.1781C70.5806 36.4372 71.6302 37.4877 71.6302 38.7876V61.2133C71.6302 62.5136 70.5802 63.5667 69.1781 63.5667H58.1595V57.6259C58.1662 56.8359 57.5237 56.1917 56.7321 56.2036ZM31.0699 33.6217V33.6211H30.8199C27.9494 33.6211 25.5566 35.9221 25.5566 38.7876V61.2133C25.5566 64.0782 27.9501 66.3792 30.8199 66.3792H69.1781C72.0509 66.3792 74.4437 64.0782 74.4437 61.2133V38.7882C74.4437 35.9226 72.0503 33.6217 69.1781 33.6217H31.0699Z" fill="white" stroke="white" stroke-width="0.5"/>
</svg>
