<svg width="28" height="28" viewBox="0 0 28 28" fill="none" xmlns="http://www.w3.org/2000/svg">
<path d="M0 28L1.93102 21C0.675883 18.8276 0 16.4138 0 13.9034C0 6.27588 6.27588 0 13.9517 0C21.6275 0 28 6.27588 28 13.9034C28 21.531 21.6276 28 13.9517 28C11.5379 28 9.2207 27.2276 7.14481 26.069L0 28Z" fill="#EDEDED"/>
<path d="M7.53104 23.5589L7.96553 23.8003C9.75173 24.9106 11.8276 25.5865 14 25.5865C20.3241 25.5865 25.5862 20.3244 25.5862 13.9037C25.5862 7.48299 20.3241 2.41406 13.9517 2.41406C7.57933 2.41406 2.41382 7.53128 2.41382 13.9037C2.41382 16.1244 3.04141 18.2968 4.20002 20.1313L4.4897 20.5658L3.37938 24.621L7.53104 23.5589Z" fill="#55CD6C"/>
<path d="M10.2345 7.43501L9.31727 7.38672C9.02759 7.38672 8.73797 7.4833 8.54487 7.6764C8.11037 8.0626 7.38626 8.78672 7.19315 9.75228C6.85524 11.2006 7.38626 12.9385 8.64144 14.6764C9.89663 16.4143 12.3104 19.2143 16.5587 20.4212C17.9104 20.8074 18.9725 20.566 19.8414 20.035C20.5173 19.6005 20.9518 18.9247 21.0966 18.2005L21.2414 17.5246C21.2897 17.3315 21.1932 17.0901 21.0001 16.9936L17.9587 15.5936C17.7656 15.497 17.5242 15.5453 17.3794 15.7384L16.1725 17.2832C16.0759 17.3798 15.9311 17.4281 15.7863 17.3798C14.9656 17.0901 12.2139 15.9315 10.7173 13.035C10.669 12.8902 10.669 12.7453 10.7656 12.6488L11.9242 11.3454C12.0208 11.2006 12.069 11.0075 12.0208 10.8626L10.6207 7.72469C10.5724 7.57982 10.4276 7.43501 10.2345 7.43501Z" fill="#FEFEFE"/>
</svg>
