<svg width="20" height="18" viewBox="0 0 20 18" fill="none" xmlns="http://www.w3.org/2000/svg">
<path d="M9.02734 17C9.10389 17 9.20232 16.9563 9.26794 16.8906C9.35543 16.8141 9.36637 16.7266 9.36637 16.6719C9.36637 16.6172 9.35543 16.5188 9.26794 16.4313L2.19207 9.32263H18.6719C18.8469 9.32263 19 9.16951 19 8.99453C19 8.81955 18.8469 8.66644 18.6719 8.66644H2.15926L9.26794 1.55776C9.35543 1.4812 9.36637 1.39371 9.36637 1.33903C9.36637 1.28435 9.35543 1.18592 9.26794 1.09843C9.18045 1.01094 9.10389 1 9.04921 1C8.99453 1 8.8961 1.01094 8.80861 1.09843L1.15311 8.75393C1.08749 8.81955 1.03281 8.91798 1 9.03828C1.01094 9.1039 1.05468 9.16951 1.09843 9.2242L8.7758 16.9016C8.86329 16.9891 8.93985 17 9.02734 17Z" fill="white" stroke="white" stroke-width="1.4"/>
</svg>
