<svg width="24" height="24" viewBox="0 0 24 24" fill="none" xmlns="http://www.w3.org/2000/svg">
<circle cx="12" cy="12" r="12" fill="#3D857E"/>
<path d="M16.2842 8.72688C16.2308 8.72899 16.1803 8.75191 16.1437 8.79075C14.0093 10.9298 12.4507 12.6688 10.3511 14.7813L7.84116 12.661C7.82064 12.6432 7.7968 12.6296 7.77102 12.621C7.74523 12.6125 7.71801 12.6091 7.69091 12.6111C7.66382 12.6131 7.63738 12.6204 7.61313 12.6327C7.58888 12.6449 7.5673 12.6619 7.54962 12.6825C7.53193 12.7031 7.5185 12.7271 7.5101 12.7529C7.5017 12.7787 7.49849 12.806 7.50066 12.833C7.50282 12.8601 7.51032 12.8865 7.52273 12.9107C7.53513 12.9349 7.55219 12.9564 7.57293 12.9739L10.2297 15.222C10.2693 15.2562 10.3205 15.274 10.3728 15.2717C10.425 15.2693 10.4744 15.247 10.5107 15.2093C12.6949 13.0204 14.2617 11.2586 16.4374 9.07823C16.4675 9.04928 16.4879 9.01183 16.4961 8.9709C16.5042 8.92998 16.4996 8.88754 16.4829 8.8493C16.4663 8.81106 16.4383 8.77885 16.4027 8.75698C16.3672 8.73511 16.3258 8.72454 16.2842 8.72688Z" fill="white" stroke="white"/>
</svg>
