<svg width="24" height="24" viewBox="0 0 24 24" fill="none" xmlns="http://www.w3.org/2000/svg">
<circle cx="12" cy="12" r="12" fill="#F44336"/>
<path d="M12.579 12L15.876 15.2801C16.0415 15.4448 16.0415 15.7118 15.876 15.8765C15.7104 16.0412 15.442 16.0412 15.2765 15.8765L11.6798 12.2982C11.5143 12.1335 11.5143 11.8665 11.6798 11.7018L15.2765 8.12351C15.442 7.95883 15.7104 7.95883 15.876 8.12351C16.0415 8.2882 16.0415 8.55521 15.876 8.7199L12.579 12Z" fill="white" stroke="white" stroke-width="0.6"/>
<path d="M11.4215 12L8.12453 15.2801C7.959 15.4448 7.959 15.7118 8.12453 15.8765C8.29006 16.0412 8.55845 16.0412 8.72398 15.8765L12.3207 12.2982C12.4862 12.1335 12.4862 11.8665 12.3207 11.7018L8.72398 8.12351C8.55845 7.95883 8.29006 7.95883 8.12453 8.12351C7.959 8.2882 7.959 8.55521 8.12453 8.7199L11.4215 12Z" fill="white" stroke="white" stroke-width="0.6"/>
</svg>
