<svg width="24" height="24" viewBox="0 0 24 24" fill="none" xmlns="http://www.w3.org/2000/svg">
<circle cx="12" cy="12" r="12" fill="#FFC107"/>
<path d="M17.6011 12.0021C17.6011 12.1577 17.5945 12.3119 17.5825 12.4674C17.5772 12.5406 17.5692 12.6137 17.5613 12.6868C17.5586 12.7054 17.5573 12.7227 17.5546 12.7413C17.548 12.8011 17.5613 12.7014 17.552 12.7613C17.5453 12.8038 17.54 12.845 17.5333 12.8876C17.4868 13.1774 17.4163 13.4632 17.3259 13.7424C17.2807 13.8834 17.2289 14.0216 17.173 14.1586C17.1717 14.1626 17.1478 14.2171 17.1664 14.1759C17.1597 14.1918 17.1531 14.2078 17.1451 14.225C17.1305 14.257 17.1172 14.2889 17.1012 14.3221C17.0693 14.3912 17.0361 14.4604 17.0015 14.5282C16.8726 14.7834 16.7237 15.0281 16.5575 15.2607C16.5176 15.3179 16.475 15.3737 16.4338 15.4296C16.4604 15.395 16.4259 15.4402 16.4219 15.4442C16.4112 15.4575 16.4006 15.4721 16.39 15.4854C16.3647 15.5173 16.3394 15.5492 16.3128 15.5798C16.2238 15.6862 16.1307 15.7899 16.0336 15.8909C15.9326 15.9946 15.8289 16.0957 15.7199 16.1927C15.668 16.2393 15.6149 16.2845 15.5617 16.3283C15.5351 16.3509 15.5085 16.3722 15.4806 16.3948C15.4673 16.4055 15.454 16.4161 15.4394 16.4267C15.43 16.4334 15.4207 16.4413 15.4114 16.448C15.4287 16.4347 15.4287 16.4347 15.4101 16.4493C15.1814 16.6208 14.9434 16.7777 14.6935 16.916C14.5659 16.9864 14.4342 17.0529 14.3013 17.1128C14.2694 17.1274 14.2375 17.142 14.2042 17.1553C14.2002 17.158 14.1457 17.1806 14.187 17.1633C14.171 17.1699 14.1537 17.1766 14.1378 17.1832C14.0673 17.2125 13.9955 17.2404 13.9224 17.2656C13.6472 17.3654 13.3653 17.4438 13.0781 17.501C13.0063 17.5156 12.9359 17.5276 12.8641 17.5395C12.8282 17.5448 12.7923 17.5502 12.7564 17.5555C12.6966 17.5635 12.7976 17.5502 12.7365 17.5581C12.7125 17.5608 12.6886 17.5648 12.6633 17.5674C12.5171 17.5847 12.3695 17.5954 12.2219 17.6007C11.5944 17.6246 11.0599 17.5621 10.463 17.3919C10.3207 17.3521 10.1785 17.3055 10.0402 17.2537C9.97373 17.2297 9.90725 17.2032 9.8421 17.1766C9.83812 17.1752 9.78361 17.1513 9.82482 17.1699C9.80887 17.1633 9.79291 17.1566 9.77563 17.1486C9.7384 17.1327 9.69985 17.1154 9.66262 17.0981C9.40336 16.9771 9.15209 16.8375 8.91277 16.6807C8.65751 16.5131 8.49132 16.3842 8.26397 16.1808C8.04859 15.9867 7.8465 15.7766 7.6617 15.5532C7.6391 15.5266 7.61783 15.4987 7.59656 15.4721C7.58592 15.4588 7.57528 15.4442 7.56465 15.4309C7.52875 15.3857 7.58858 15.4628 7.55268 15.4163C7.51014 15.3605 7.46892 15.3046 7.42904 15.2474C7.34528 15.1291 7.26551 15.0068 7.19105 14.8818C7.1166 14.7569 7.04614 14.6279 6.97966 14.4976C6.94775 14.4351 6.91717 14.3713 6.88792 14.3075C6.8733 14.2756 6.85868 14.2437 6.84538 14.2104C6.84272 14.2064 6.82012 14.1519 6.8374 14.1931C6.8281 14.1719 6.81879 14.1493 6.81081 14.128C6.70179 13.8581 6.61272 13.5802 6.54491 13.297C6.51034 13.1508 6.48109 13.0019 6.45716 12.853C6.45184 12.8171 6.44653 12.7812 6.44121 12.7453C6.44653 12.7839 6.44254 12.7519 6.44121 12.744C6.43855 12.7254 6.43722 12.7081 6.43456 12.6895C6.42525 12.6097 6.41728 12.5312 6.41196 12.4515C6.38803 12.1417 6.38936 11.8306 6.41462 11.5221C6.42127 11.449 6.42791 11.3759 6.43722 11.3028C6.43855 11.2908 6.43988 11.2788 6.44121 11.2669C6.44786 11.2071 6.43456 11.3068 6.44387 11.2469C6.45051 11.2044 6.45583 11.1632 6.46248 11.1206C6.48641 10.9717 6.51699 10.8242 6.55289 10.6779C6.62202 10.3947 6.71243 10.1182 6.82278 9.84962C6.82411 9.84563 6.84804 9.79112 6.82943 9.83233C6.83607 9.81638 6.84272 9.80043 6.8507 9.78314C6.86532 9.75123 6.87862 9.71933 6.89457 9.68609C6.92648 9.61695 6.95972 9.54782 6.99429 9.48001C7.06076 9.34972 7.13123 9.22209 7.20701 9.09711C7.28279 8.97214 7.36256 8.85115 7.44765 8.73283C7.48488 8.68098 7.52343 8.62912 7.56199 8.5786C7.5354 8.61317 7.56997 8.56797 7.57395 8.56398C7.58459 8.55068 7.59523 8.53606 7.60586 8.52276C7.63112 8.49085 7.65638 8.45895 7.68297 8.42837C7.86911 8.20634 8.07119 7.99761 8.2879 7.80483C8.33577 7.76228 8.38363 7.72107 8.43282 7.67985C8.45941 7.65725 8.486 7.63598 8.51392 7.61338C8.52722 7.60274 8.54051 7.5921 8.55513 7.58147C8.56444 7.57482 8.57375 7.56684 8.58305 7.5602C8.56577 7.57349 8.56577 7.57349 8.58438 7.55887C8.70005 7.47112 8.81838 7.38736 8.94069 7.30759C9.18134 7.15203 9.43261 7.01377 9.6932 6.89411C9.72511 6.87948 9.75701 6.86486 9.79025 6.85156C9.79424 6.84891 9.84875 6.8263 9.80754 6.84359C9.82349 6.83694 9.84077 6.83029 9.85673 6.82364C9.92719 6.7944 9.99899 6.76648 10.0721 6.74122C10.2117 6.69069 10.3526 6.64549 10.4962 6.6056C10.6345 6.56705 10.7754 6.53381 10.9164 6.50589C10.9881 6.49127 11.0586 6.4793 11.1304 6.46734C11.1663 6.46202 11.2022 6.4567 11.2381 6.45138C11.2979 6.4434 11.1969 6.4567 11.258 6.44872C11.282 6.44606 11.3059 6.44207 11.3312 6.43942C11.6383 6.40485 11.9494 6.39421 12.2592 6.40751C12.4067 6.41415 12.5543 6.42612 12.7006 6.4434C12.7192 6.44606 12.7365 6.44739 12.7551 6.45005C12.7085 6.44473 12.7697 6.45271 12.775 6.45271C12.8109 6.45803 12.8468 6.46335 12.8827 6.46866C12.9598 6.48063 13.0369 6.49526 13.114 6.51121C13.3999 6.56971 13.6817 6.65081 13.9556 6.75185C14.0221 6.77578 14.0886 6.80237 14.1537 6.82896C14.1577 6.83029 14.2122 6.85422 14.171 6.83561C14.187 6.84226 14.2029 6.84891 14.2202 6.85688C14.2574 6.87284 14.296 6.89012 14.3332 6.9074C14.4662 6.96856 14.5964 7.03504 14.7241 7.10683C14.8464 7.17464 14.9661 7.24776 15.083 7.32487C15.1415 7.36343 15.1987 7.40331 15.2559 7.4432C15.2838 7.46314 15.3131 7.48441 15.341 7.50436C15.3556 7.51499 15.3689 7.52563 15.3835 7.53626C15.3888 7.54025 15.4473 7.58546 15.4128 7.55754C15.6414 7.73569 15.8582 7.9298 16.0576 8.13986C16.1533 8.24091 16.2464 8.34461 16.3341 8.4523C16.3567 8.47889 16.378 8.50681 16.3993 8.5334C16.4099 8.54669 16.4205 8.56132 16.4312 8.57461C16.4671 8.61982 16.4072 8.54271 16.4431 8.58924C16.4883 8.64907 16.5335 8.71022 16.5774 8.77271C16.7423 9.00671 16.8885 9.25267 17.0162 9.50793C17.0481 9.57042 17.0786 9.63424 17.1079 9.69805C17.1225 9.72996 17.1371 9.76187 17.1504 9.79511C17.1531 9.7991 17.1757 9.85361 17.1584 9.81239C17.1677 9.83366 17.177 9.85627 17.185 9.87754C17.2408 10.0145 17.2914 10.1541 17.3352 10.295C17.4243 10.5755 17.4921 10.8627 17.5373 11.1525C17.5426 11.1884 17.548 11.2243 17.5533 11.2602C17.5466 11.2137 17.5546 11.2749 17.5559 11.2802C17.5586 11.2988 17.5599 11.3161 17.5626 11.3347C17.5706 11.4078 17.5785 11.4809 17.5839 11.5541C17.5945 11.7043 17.6011 11.8532 17.6011 12.0021C17.6011 12.1058 17.6929 12.2068 17.8006 12.2015C17.9083 12.1962 18 12.1138 18 12.0021C17.9987 11.3772 17.9029 10.751 17.7102 10.1567C17.5227 9.57973 17.2488 9.03064 16.8978 8.53739C16.5429 8.04015 16.1187 7.60274 15.6335 7.23048C15.1548 6.86353 14.6217 6.5737 14.0553 6.36629C13.473 6.15224 12.8535 6.03391 12.2326 6.00865C11.6024 5.98339 10.9642 6.05917 10.358 6.23068C9.77696 6.39554 9.21856 6.65081 8.71335 6.98319C8.21478 7.31158 7.76274 7.71309 7.3825 8.1731C6.98897 8.6504 6.67387 9.17821 6.43855 9.7499C6.20322 10.3229 6.06496 10.9318 6.01709 11.5487C5.96923 12.1749 6.02241 12.8131 6.16999 13.426C6.31357 14.0176 6.55023 14.5893 6.86665 15.1105C7.17643 15.621 7.56332 16.0864 8.01003 16.4826C8.45808 16.8801 8.96463 17.2151 9.51106 17.4611C10.0854 17.7203 10.689 17.8879 11.3139 17.961C11.9454 18.0354 12.5889 18.0049 13.2111 17.8772C13.8067 17.7562 14.3864 17.5395 14.9169 17.243C15.438 16.9519 15.9193 16.5809 16.3315 16.1489C16.7463 15.7141 17.0999 15.2169 17.3672 14.6784C17.6397 14.1307 17.8312 13.5417 17.9229 12.9367C17.9708 12.627 17.996 12.3145 17.9973 12.0008C17.9973 11.8971 17.9056 11.796 17.7979 11.8013C17.6916 11.808 17.6011 11.8904 17.6011 12.0021Z" fill="white"/>
<path d="M17.6011 12.0021C17.6011 12.1577 17.5945 12.3119 17.5825 12.4674C17.5772 12.5406 17.5692 12.6137 17.5613 12.6868C17.5586 12.7054 17.5573 12.7227 17.5546 12.7413C17.548 12.8011 17.5613 12.7014 17.552 12.7613C17.5453 12.8038 17.54 12.845 17.5333 12.8876C17.4868 13.1774 17.4163 13.4632 17.3259 13.7424C17.2807 13.8834 17.2289 14.0216 17.173 14.1586C17.1717 14.1626 17.1478 14.2171 17.1664 14.1759C17.1597 14.1918 17.1531 14.2078 17.1451 14.225C17.1305 14.257 17.1172 14.2889 17.1012 14.3221C17.0693 14.3912 17.0361 14.4604 17.0015 14.5282C16.8726 14.7834 16.7237 15.0281 16.5575 15.2607C16.5176 15.3179 16.475 15.3737 16.4338 15.4296C16.4604 15.395 16.4259 15.4402 16.4219 15.4442C16.4112 15.4575 16.4006 15.4721 16.39 15.4854C16.3647 15.5173 16.3394 15.5492 16.3128 15.5798C16.2238 15.6862 16.1307 15.7899 16.0336 15.8909C15.9326 15.9946 15.8289 16.0957 15.7199 16.1927C15.668 16.2393 15.6149 16.2845 15.5617 16.3283C15.5351 16.3509 15.5085 16.3722 15.4806 16.3948C15.4673 16.4055 15.454 16.4161 15.4394 16.4267C15.4301 16.4334 15.4207 16.4413 15.4114 16.448C15.4287 16.4347 15.4287 16.4347 15.4101 16.4493C15.1814 16.6208 14.9434 16.7777 14.6935 16.916C14.5659 16.9864 14.4342 17.0529 14.3013 17.1128C14.2694 17.1274 14.2375 17.142 14.2042 17.1553C14.2002 17.158 14.1457 17.1806 14.187 17.1633C14.171 17.1699 14.1537 17.1766 14.1378 17.1832C14.0673 17.2125 13.9955 17.2404 13.9224 17.2656C13.6472 17.3654 13.3653 17.4438 13.0781 17.501C13.0063 17.5156 12.9359 17.5276 12.8641 17.5395C12.8282 17.5448 12.7923 17.5502 12.7564 17.5555C12.6966 17.5635 12.7976 17.5502 12.7365 17.5581C12.7125 17.5608 12.6886 17.5648 12.6633 17.5674C12.5171 17.5847 12.3695 17.5954 12.2219 17.6007C11.5944 17.6246 11.0599 17.5621 10.463 17.3919C10.3207 17.3521 10.1785 17.3055 10.0402 17.2537C9.97373 17.2297 9.90725 17.2032 9.8421 17.1766C9.83812 17.1752 9.78361 17.1513 9.82482 17.1699C9.80887 17.1633 9.79291 17.1566 9.77563 17.1486C9.7384 17.1327 9.69985 17.1154 9.66262 17.0981C9.40336 16.9771 9.15209 16.8375 8.91277 16.6807C8.65751 16.5131 8.49132 16.3842 8.26397 16.1808C8.04859 15.9867 7.8465 15.7766 7.6617 15.5532C7.6391 15.5266 7.61783 15.4987 7.59656 15.4721C7.58592 15.4588 7.57528 15.4442 7.56465 15.4309C7.52875 15.3857 7.58858 15.4628 7.55268 15.4163C7.51014 15.3605 7.46892 15.3046 7.42904 15.2474C7.34528 15.1291 7.26551 15.0068 7.19105 14.8818C7.1166 14.7569 7.04614 14.6279 6.97966 14.4976C6.94775 14.4351 6.91717 14.3713 6.88792 14.3075C6.8733 14.2756 6.85868 14.2437 6.84538 14.2104C6.84272 14.2064 6.82012 14.1519 6.8374 14.1931C6.8281 14.1719 6.81879 14.1493 6.81081 14.128C6.70179 13.8581 6.61272 13.5802 6.54491 13.297C6.51034 13.1508 6.48109 13.0019 6.45716 12.853C6.45184 12.8171 6.44653 12.7812 6.44121 12.7453C6.44653 12.7839 6.44254 12.7519 6.44121 12.744C6.43855 12.7254 6.43722 12.7081 6.43456 12.6895C6.42525 12.6097 6.41728 12.5312 6.41196 12.4515C6.38803 12.1417 6.38936 11.8306 6.41462 11.5221C6.42127 11.449 6.42791 11.3759 6.43722 11.3028C6.43855 11.2908 6.43988 11.2788 6.44121 11.2669C6.44786 11.2071 6.43456 11.3068 6.44387 11.2469C6.45051 11.2044 6.45583 11.1632 6.46248 11.1206C6.48641 10.9717 6.51699 10.8242 6.55289 10.6779C6.62202 10.3947 6.71243 10.1182 6.82278 9.84962C6.82411 9.84563 6.84804 9.79112 6.82943 9.83233C6.83607 9.81638 6.84272 9.80043 6.8507 9.78314C6.86532 9.75123 6.87862 9.71933 6.89457 9.68609C6.92648 9.61695 6.95972 9.54782 6.99429 9.48001C7.06076 9.34972 7.13123 9.22209 7.20701 9.09711C7.28279 8.97214 7.36256 8.85115 7.44765 8.73283C7.48488 8.68098 7.52343 8.62912 7.56199 8.5786C7.5354 8.61317 7.56997 8.56797 7.57395 8.56398C7.58459 8.55068 7.59523 8.53606 7.60586 8.52276C7.63112 8.49085 7.65638 8.45895 7.68297 8.42837C7.86911 8.20634 8.07119 7.99761 8.2879 7.80483C8.33577 7.76228 8.38363 7.72107 8.43282 7.67985C8.45941 7.65725 8.486 7.63598 8.51392 7.61338C8.52722 7.60274 8.54051 7.5921 8.55513 7.58147C8.56444 7.57482 8.57375 7.56684 8.58305 7.5602C8.56577 7.57349 8.56577 7.57349 8.58438 7.55887C8.70005 7.47112 8.81838 7.38736 8.94069 7.30759C9.18134 7.15203 9.43261 7.01377 9.6932 6.89411C9.72511 6.87948 9.75702 6.86486 9.79025 6.85156C9.79424 6.84891 9.84875 6.8263 9.80754 6.84359C9.82349 6.83694 9.84077 6.83029 9.85673 6.82364C9.92719 6.7944 9.99899 6.76648 10.0721 6.74122C10.2117 6.69069 10.3526 6.64549 10.4962 6.6056C10.6345 6.56705 10.7754 6.53381 10.9164 6.50589C10.9881 6.49127 11.0586 6.4793 11.1304 6.46734C11.1663 6.46202 11.2022 6.4567 11.2381 6.45138C11.2979 6.4434 11.1969 6.4567 11.258 6.44872C11.282 6.44606 11.3059 6.44207 11.3312 6.43942C11.6383 6.40485 11.9494 6.39421 12.2592 6.40751C12.4067 6.41415 12.5543 6.42612 12.7006 6.4434C12.7192 6.44606 12.7365 6.44739 12.7551 6.45005C12.7085 6.44473 12.7697 6.45271 12.775 6.45271C12.8109 6.45803 12.8468 6.46335 12.8827 6.46866C12.9598 6.48063 13.0369 6.49526 13.114 6.51121C13.3999 6.56971 13.6817 6.65081 13.9556 6.75185C14.0221 6.77578 14.0886 6.80237 14.1537 6.82896C14.1577 6.83029 14.2122 6.85422 14.171 6.83561C14.187 6.84226 14.2029 6.84891 14.2202 6.85688C14.2574 6.87284 14.296 6.89012 14.3332 6.9074C14.4662 6.96856 14.5964 7.03504 14.7241 7.10683C14.8464 7.17464 14.966 7.24776 15.083 7.32487C15.1415 7.36343 15.1987 7.40331 15.2559 7.4432C15.2838 7.46314 15.3131 7.48441 15.341 7.50436C15.3556 7.51499 15.3689 7.52563 15.3835 7.53626C15.3888 7.54025 15.4473 7.58546 15.4128 7.55754C15.6414 7.73569 15.8582 7.9298 16.0576 8.13986C16.1533 8.24091 16.2464 8.34461 16.3341 8.4523C16.3567 8.47889 16.378 8.50681 16.3993 8.5334C16.4099 8.54669 16.4205 8.56132 16.4312 8.57461C16.4671 8.61982 16.4072 8.54271 16.4431 8.58924C16.4883 8.64907 16.5335 8.71022 16.5774 8.77271C16.7423 9.00671 16.8885 9.25267 17.0162 9.50793C17.0481 9.57042 17.0786 9.63424 17.1079 9.69805C17.1225 9.72996 17.1371 9.76187 17.1504 9.79511C17.1531 9.7991 17.1757 9.85361 17.1584 9.81239C17.1677 9.83366 17.177 9.85627 17.185 9.87754C17.2408 10.0145 17.2914 10.1541 17.3352 10.295C17.4243 10.5755 17.4921 10.8627 17.5373 11.1525C17.5426 11.1884 17.548 11.2243 17.5533 11.2602C17.5466 11.2137 17.5546 11.2749 17.5559 11.2802C17.5586 11.2988 17.5599 11.3161 17.5626 11.3347C17.5706 11.4078 17.5785 11.4809 17.5839 11.5541C17.5945 11.7043 17.6011 11.8532 17.6011 12.0021ZM17.6011 12.0021C17.6011 12.1058 17.6929 12.2068 17.8006 12.2015C17.9083 12.1962 18 12.1138 18 12.0021C17.9987 11.3772 17.9029 10.751 17.7102 10.1567C17.5227 9.57973 17.2488 9.03064 16.8978 8.53739C16.5429 8.04015 16.1187 7.60274 15.6335 7.23048C15.1548 6.86353 14.6217 6.5737 14.0553 6.36629C13.473 6.15224 12.8535 6.03391 12.2326 6.00865C11.6024 5.98339 10.9642 6.05917 10.358 6.23068C9.77696 6.39554 9.21856 6.65081 8.71335 6.98319C8.21478 7.31158 7.76274 7.71309 7.3825 8.1731C6.98897 8.6504 6.67387 9.17821 6.43855 9.7499C6.20322 10.3229 6.06496 10.9318 6.01709 11.5487C5.96923 12.1749 6.02241 12.8131 6.16999 13.426C6.31357 14.0176 6.55023 14.5893 6.86665 15.1105C7.17643 15.621 7.56332 16.0864 8.01003 16.4826C8.45808 16.8801 8.96463 17.2151 9.51106 17.4611C10.0854 17.7203 10.689 17.8879 11.3139 17.961C11.9454 18.0354 12.5889 18.0049 13.2111 17.8772C13.8067 17.7562 14.3864 17.5395 14.9169 17.243C15.438 16.9519 15.9193 16.5809 16.3315 16.1489C16.7463 15.7141 17.0999 15.2169 17.3672 14.6784C17.6397 14.1307 17.8312 13.5417 17.9229 12.9367C17.9708 12.627 17.996 12.3145 17.9973 12.0008C17.9973 11.8971 17.9056 11.796 17.7979 11.8013C17.6916 11.808 17.6011 11.8904 17.6011 12.0021Z" stroke="white" stroke-linejoin="round"/>
<path d="M17.5166 11.0306C17.5435 11.1838 17.5637 11.3369 17.5789 11.4921C17.5863 11.5651 17.5911 11.6385 17.5959 11.7119C17.5965 11.7307 17.5982 11.7479 17.5988 11.7667C17.6026 11.8268 17.5985 11.7263 17.5997 11.7868C17.6005 11.8299 17.6024 11.8714 17.6032 11.9144C17.6076 12.2079 17.5877 12.5017 17.547 12.7923C17.5269 12.9389 17.4998 13.0841 17.4685 13.2286C17.4679 13.2328 17.4538 13.2906 17.465 13.2468C17.4612 13.2637 17.4574 13.2805 17.4526 13.2989C17.4437 13.3329 17.4361 13.3666 17.4262 13.4021C17.4067 13.4758 17.3859 13.5496 17.3636 13.6224C17.2809 13.8961 17.1766 14.1628 17.0532 14.4208C17.0238 14.484 16.9916 14.5464 16.9607 14.6085C16.9809 14.5698 16.9547 14.6204 16.9514 14.625C16.9433 14.6399 16.9353 14.6562 16.9271 14.6711C16.9078 14.7069 16.8884 14.7427 16.8676 14.7774C16.7982 14.8976 16.7246 15.0159 16.6465 15.1322C16.5649 15.2518 16.4803 15.3693 16.3897 15.4838C16.3467 15.5386 16.3022 15.5923 16.2574 15.6447C16.2351 15.6716 16.2126 15.6972 16.189 15.7243C16.1778 15.737 16.1665 15.7498 16.154 15.7628C16.146 15.771 16.1382 15.7805 16.1302 15.7886C16.1449 15.7725 16.1449 15.7725 16.1291 15.7902C15.9336 15.9987 15.7264 16.1944 15.5042 16.3739C15.3907 16.4654 15.2725 16.5537 15.152 16.6356C15.1231 16.6556 15.0942 16.6755 15.0637 16.6944C15.0603 16.6977 15.0105 16.7294 15.0481 16.7052C15.0335 16.7145 15.0177 16.7241 15.0031 16.7334C14.9388 16.7744 14.8729 16.8143 14.8053 16.8519C14.5515 16.9977 14.2875 17.1238 14.0146 17.2299C13.9464 17.2567 13.8791 17.2807 13.8104 17.3049C13.776 17.3164 13.7416 17.3278 13.7071 17.3393C13.6496 17.3575 13.7468 17.3269 13.6879 17.3454C13.6648 17.3521 13.642 17.3602 13.6175 17.3672C13.4765 17.4096 13.333 17.4456 13.1886 17.4764C12.5747 17.6087 12.0375 17.6397 11.4201 17.5755C11.273 17.5609 11.1249 17.5397 10.9797 17.5126C10.9101 17.5005 10.84 17.4859 10.7713 17.471C10.7671 17.4704 10.7093 17.4562 10.7531 17.4674C10.7362 17.4636 10.7193 17.4599 10.7009 17.455C10.6615 17.4457 10.6206 17.4354 10.5809 17.4248C10.3046 17.3506 10.0329 17.2566 9.77006 17.1436C9.48964 17.0228 9.30362 16.9246 9.04447 16.7636C8.79872 16.6097 8.5633 16.4379 8.3426 16.2499C8.31573 16.2276 8.28995 16.2038 8.26439 16.1813C8.25161 16.1701 8.2386 16.1575 8.22582 16.1462C8.18264 16.1079 8.25492 16.1735 8.2115 16.1339C8.15993 16.0863 8.10966 16.0384 8.06048 15.989C7.95749 15.887 7.85773 15.7804 7.76276 15.6702C7.66778 15.56 7.57604 15.4452 7.488 15.3284C7.44575 15.2724 7.40458 15.2148 7.36471 15.157C7.34478 15.1281 7.32485 15.0992 7.306 15.0688C7.30269 15.0653 7.27099 15.0156 7.29515 15.0532C7.2823 15.0338 7.26922 15.0132 7.25768 14.9936C7.10355 14.7467 6.96768 14.4884 6.85185 14.2213C6.79247 14.0832 6.73786 13.9417 6.6885 13.7991C6.67704 13.7647 6.66559 13.7303 6.65413 13.6958C6.66605 13.7329 6.65659 13.7022 6.6539 13.6945C6.64806 13.6767 6.64375 13.6599 6.63791 13.642C6.61493 13.5651 6.59348 13.4892 6.57442 13.4115C6.49719 13.1106 6.44461 12.804 6.41605 12.4958C6.40993 12.4226 6.40381 12.3495 6.40031 12.2758C6.39955 12.2638 6.39878 12.2518 6.39802 12.2398C6.3942 12.1797 6.39838 12.2802 6.39718 12.2197C6.39636 12.1766 6.39446 12.1351 6.39363 12.0921C6.39141 11.9413 6.39596 11.7906 6.40598 11.6404C6.42501 11.3495 6.46615 11.0615 6.5283 10.7778C6.52892 10.7737 6.54305 10.7159 6.53186 10.7597C6.53564 10.7428 6.53942 10.7259 6.54428 10.7075C6.55316 10.6736 6.56073 10.6399 6.57068 10.6044C6.59013 10.5307 6.61089 10.4569 6.63319 10.3841C6.67609 10.2443 6.72338 10.1064 6.77636 9.97016C6.82935 9.83395 6.88696 9.70097 6.95026 9.56969C6.97794 9.51218 7.00693 9.45443 7.03615 9.39799C7.01595 9.43664 7.04217 9.38614 7.0454 9.38152C7.05358 9.36658 7.06152 9.35033 7.06969 9.3354C7.08904 9.2996 7.10839 9.26379 7.12928 9.22907C7.27414 8.97815 7.43701 8.73757 7.61705 8.51016C7.65682 8.45997 7.69682 8.41109 7.73813 8.36197C7.7604 8.33511 7.7829 8.30955 7.80648 8.28245C7.81774 8.26967 7.82899 8.2569 7.84155 8.24389C7.84956 8.23573 7.85735 8.22626 7.86536 8.2181C7.85064 8.23419 7.85064 8.23419 7.86644 8.21656C7.96516 8.1101 8.06719 8.00711 8.17383 7.90736C8.38389 7.71247 8.60742 7.53276 8.84333 7.36977C8.87222 7.34984 8.90112 7.32991 8.93155 7.31106C8.93502 7.30775 8.98479 7.27604 8.94719 7.30021C8.96175 7.29089 8.97762 7.28135 8.99218 7.27204C9.05651 7.23103 9.12239 7.19109 9.19003 7.15355C9.31876 7.07961 9.44973 7.01067 9.58424 6.94652C9.71374 6.88459 9.84678 6.82744 9.98074 6.77553C10.0489 6.74869 10.1162 6.7247 10.1849 6.70048C10.2193 6.68902 10.2537 6.67756 10.2882 6.66611C10.3457 6.64789 10.2485 6.67849 10.3074 6.66003C10.3305 6.65327 10.3533 6.6452 10.3778 6.6382C10.6742 6.55095 10.9788 6.48658 11.2862 6.44601C11.4327 6.427 11.5801 6.41322 11.7271 6.4049C11.7459 6.4043 11.7632 6.40261 11.782 6.40201C11.7352 6.40483 11.7968 6.40209 11.8021 6.40117C11.8384 6.40019 11.8746 6.39921 11.9109 6.39823C11.9889 6.39666 12.0674 6.3977 12.1461 6.40006C12.4378 6.40815 12.7294 6.4392 13.0167 6.49127C13.0863 6.50332 13.1564 6.518 13.2251 6.5329C13.2293 6.53352 13.2871 6.54764 13.2433 6.53645C13.2602 6.54023 13.277 6.54402 13.2954 6.54888C13.3349 6.55814 13.3758 6.56849 13.4155 6.57906C13.557 6.61626 13.6969 6.65916 13.835 6.70776C13.9672 6.75335 14.0977 6.80464 14.2263 6.86032C14.2906 6.88816 14.3538 6.91754 14.417 6.94691C14.448 6.96172 14.4805 6.9776 14.5114 6.99241C14.5277 7.00035 14.5426 7.00852 14.5589 7.01646C14.5648 7.01947 14.6302 7.05386 14.5914 7.03235C14.8474 7.16819 15.0945 7.32183 15.3273 7.49417C15.4391 7.5771 15.5487 7.66311 15.6538 7.75397C15.6806 7.77624 15.7064 7.80006 15.732 7.82256C15.7448 7.83381 15.7578 7.84637 15.7706 7.85762C15.8137 7.89593 15.7415 7.83034 15.7849 7.86996C15.8398 7.92105 15.8949 7.97345 15.9489 8.02739C16.1518 8.22929 16.3385 8.4462 16.5084 8.67549C16.5506 8.73151 16.5918 8.78906 16.6317 8.84685C16.6516 8.87574 16.6715 8.90463 16.6904 8.93506C16.6937 8.93853 16.7254 8.9883 16.7012 8.9507C16.7141 8.97004 16.7272 8.99069 16.7387 9.01026C16.8174 9.13546 16.8914 9.26419 16.959 9.39539C17.0953 9.65624 17.2118 9.92733 17.3066 10.205C17.318 10.2394 17.3295 10.2738 17.3409 10.3083C17.3263 10.2636 17.3448 10.3224 17.347 10.3274C17.3529 10.3453 17.3572 10.3621 17.363 10.38C17.3835 10.4506 17.404 10.5212 17.422 10.5923C17.4585 10.7385 17.4908 10.884 17.5166 11.0306C17.5346 11.1327 17.6424 11.2164 17.7476 11.1925C17.8527 11.1686 17.9288 11.0715 17.9094 10.9615C17.7999 10.3463 17.5971 9.74617 17.3043 9.19426C17.0197 8.65845 16.6548 8.16511 16.2237 7.74012C15.788 7.31189 15.2945 6.95457 14.7521 6.672C14.2171 6.39351 13.6418 6.20042 13.0481 6.09427C12.4375 5.98433 11.8068 5.97512 11.1909 6.0578C10.5659 6.14209 9.95049 6.32728 9.38311 6.60122C8.83946 6.86423 8.33372 7.21237 7.89373 7.62724C7.45958 8.03704 7.08394 8.51079 6.78914 9.02971C6.48423 9.56797 6.26534 10.1424 6.13261 10.7462C6.00011 11.3513 5.96942 11.975 6.02914 12.5908C6.09048 13.2159 6.25341 13.8352 6.50493 14.4133C6.74884 14.9711 7.08095 15.4931 7.48288 15.9516C7.87641 16.4007 8.33806 16.792 8.84666 17.1048C9.35679 17.4187 9.91372 17.661 10.4945 17.8085C11.1051 17.9644 11.7286 18.0248 12.3567 17.9886C12.9915 17.9525 13.62 17.8109 14.2107 17.5774C14.7763 17.3551 15.3097 17.0412 15.7808 16.6573C16.2436 16.2803 16.6534 15.8316 16.9845 15.3346C17.3177 14.8346 17.5798 14.2836 17.7498 13.707C17.9233 13.1203 18.0098 12.5071 17.9954 11.8954C17.9889 11.582 17.9596 11.2699 17.9066 10.9607C17.8886 10.8585 17.7807 10.7749 17.6756 10.7988C17.572 10.8238 17.4972 10.9206 17.5166 11.0306Z" fill="white"/>
<path d="M17.5166 11.0306C17.5435 11.1838 17.5637 11.3369 17.5789 11.4921C17.5863 11.5651 17.5911 11.6385 17.5959 11.7119C17.5965 11.7307 17.5982 11.7479 17.5988 11.7667C17.6026 11.8268 17.5985 11.7263 17.5997 11.7868C17.6005 11.8299 17.6024 11.8714 17.6032 11.9144C17.6076 12.2079 17.5877 12.5017 17.547 12.7923C17.5269 12.9389 17.4998 13.0841 17.4685 13.2286C17.4679 13.2328 17.4538 13.2906 17.465 13.2468C17.4612 13.2637 17.4574 13.2805 17.4526 13.2989C17.4437 13.3329 17.4361 13.3666 17.4262 13.4021C17.4067 13.4758 17.3859 13.5496 17.3636 13.6224C17.2809 13.8961 17.1766 14.1628 17.0532 14.4208C17.0238 14.484 16.9916 14.5464 16.9607 14.6085C16.9809 14.5698 16.9547 14.6204 16.9514 14.625C16.9433 14.6399 16.9353 14.6562 16.9271 14.6711C16.9078 14.7069 16.8884 14.7427 16.8676 14.7774C16.7982 14.8976 16.7246 15.0159 16.6465 15.1322C16.5649 15.2518 16.4803 15.3693 16.3897 15.4838C16.3467 15.5386 16.3022 15.5923 16.2574 15.6447C16.2351 15.6716 16.2126 15.6972 16.189 15.7243C16.1778 15.737 16.1665 15.7498 16.154 15.7628C16.146 15.771 16.1382 15.7805 16.1302 15.7886C16.1449 15.7725 16.1449 15.7725 16.1291 15.7902C15.9336 15.9987 15.7264 16.1944 15.5042 16.3739C15.3907 16.4654 15.2725 16.5537 15.152 16.6356C15.1231 16.6556 15.0942 16.6755 15.0637 16.6944C15.0603 16.6977 15.0105 16.7294 15.0481 16.7052C15.0335 16.7145 15.0177 16.7241 15.0031 16.7334C14.9388 16.7744 14.8729 16.8143 14.8053 16.8519C14.5515 16.9977 14.2875 17.1238 14.0146 17.2299C13.9464 17.2567 13.8791 17.2807 13.8104 17.3049C13.776 17.3164 13.7416 17.3278 13.7071 17.3393C13.6496 17.3575 13.7468 17.3269 13.6879 17.3454C13.6648 17.3521 13.642 17.3602 13.6175 17.3672C13.4765 17.4096 13.333 17.4456 13.1886 17.4764C12.5747 17.6087 12.0375 17.6397 11.4201 17.5755C11.273 17.5609 11.1249 17.5397 10.9797 17.5126C10.9101 17.5005 10.84 17.4859 10.7713 17.471C10.7671 17.4704 10.7093 17.4562 10.7531 17.4674C10.7362 17.4636 10.7193 17.4599 10.7009 17.455C10.6615 17.4457 10.6206 17.4354 10.5809 17.4248C10.3046 17.3506 10.0329 17.2566 9.77006 17.1436C9.48964 17.0228 9.30362 16.9246 9.04447 16.7636C8.79872 16.6097 8.5633 16.4379 8.3426 16.2499C8.31573 16.2276 8.28995 16.2038 8.26439 16.1813C8.25161 16.1701 8.2386 16.1575 8.22582 16.1462C8.18264 16.1079 8.25492 16.1735 8.2115 16.1339C8.15993 16.0863 8.10967 16.0384 8.06048 15.989C7.95749 15.887 7.85773 15.7804 7.76276 15.6702C7.66778 15.56 7.57604 15.4452 7.488 15.3284C7.44575 15.2724 7.40458 15.2148 7.36471 15.157C7.34478 15.1281 7.32485 15.0992 7.306 15.0688C7.30269 15.0653 7.27099 15.0156 7.29515 15.0532C7.2823 15.0338 7.26922 15.0132 7.25768 14.9936C7.10355 14.7467 6.96768 14.4884 6.85185 14.2213C6.79247 14.0832 6.73786 13.9417 6.6885 13.7991C6.67704 13.7647 6.66559 13.7303 6.65413 13.6958C6.66605 13.7329 6.65659 13.7022 6.6539 13.6945C6.64806 13.6767 6.64375 13.6599 6.63791 13.642C6.61493 13.5651 6.59348 13.4892 6.57442 13.4115C6.49719 13.1106 6.44461 12.804 6.41605 12.4958C6.40993 12.4226 6.40381 12.3495 6.40031 12.2758C6.39955 12.2638 6.39878 12.2518 6.39802 12.2398C6.3942 12.1797 6.39838 12.2802 6.39718 12.2197C6.39636 12.1766 6.39446 12.1351 6.39363 12.0921C6.39141 11.9413 6.39596 11.7906 6.40598 11.6404C6.42501 11.3495 6.46615 11.0615 6.5283 10.7778C6.52892 10.7737 6.54305 10.7159 6.53186 10.7597C6.53564 10.7428 6.53942 10.7259 6.54428 10.7075C6.55316 10.6736 6.56073 10.6399 6.57068 10.6044C6.59013 10.5307 6.61089 10.4569 6.63319 10.3841C6.67609 10.2443 6.72338 10.1064 6.77636 9.97016C6.82935 9.83395 6.88696 9.70097 6.95026 9.56969C6.97794 9.51218 7.00693 9.45443 7.03615 9.39799C7.01595 9.43664 7.04217 9.38614 7.0454 9.38152C7.05358 9.36658 7.06152 9.35033 7.06969 9.3354C7.08904 9.2996 7.10839 9.26379 7.12928 9.22907C7.27414 8.97815 7.43701 8.73757 7.61705 8.51016C7.65682 8.45997 7.69682 8.41109 7.73813 8.36197C7.7604 8.33511 7.7829 8.30955 7.80648 8.28245C7.81774 8.26967 7.82899 8.2569 7.84155 8.24389C7.84956 8.23573 7.85735 8.22626 7.86536 8.2181C7.85064 8.23419 7.85064 8.23419 7.86644 8.21656C7.96516 8.1101 8.06719 8.00711 8.17383 7.90736C8.38389 7.71247 8.60741 7.53276 8.84333 7.36977C8.87222 7.34984 8.90112 7.32991 8.93155 7.31106C8.93502 7.30775 8.98479 7.27604 8.94719 7.30021C8.96175 7.29089 8.97762 7.28135 8.99218 7.27204C9.05651 7.23103 9.12239 7.19109 9.19003 7.15355C9.31876 7.07961 9.44973 7.01067 9.58424 6.94652C9.71374 6.88459 9.84678 6.82744 9.98074 6.77553C10.0489 6.74869 10.1162 6.7247 10.1849 6.70048C10.2193 6.68902 10.2537 6.67756 10.2882 6.66611C10.3457 6.64789 10.2485 6.67849 10.3074 6.66003C10.3305 6.65327 10.3533 6.6452 10.3778 6.6382C10.6742 6.55095 10.9788 6.48658 11.2862 6.44601C11.4327 6.427 11.5801 6.41322 11.7271 6.4049C11.7459 6.4043 11.7632 6.40261 11.782 6.40201C11.7352 6.40483 11.7968 6.40209 11.8021 6.40117C11.8384 6.40019 11.8746 6.39921 11.9109 6.39823C11.9889 6.39666 12.0674 6.3977 12.1461 6.40006C12.4378 6.40815 12.7294 6.4392 13.0167 6.49127C13.0863 6.50332 13.1564 6.518 13.2251 6.5329C13.2293 6.53352 13.2871 6.54764 13.2433 6.53645C13.2602 6.54023 13.277 6.54402 13.2954 6.54888C13.3349 6.55814 13.3758 6.56849 13.4155 6.57906C13.557 6.61626 13.6969 6.65916 13.835 6.70776C13.9672 6.75335 14.0977 6.80464 14.2263 6.86032C14.2906 6.88816 14.3538 6.91754 14.417 6.94691C14.448 6.96172 14.4805 6.9776 14.5114 6.99241C14.5277 7.00035 14.5426 7.00852 14.5589 7.01646C14.5648 7.01947 14.6302 7.05386 14.5914 7.03235C14.8474 7.16819 15.0945 7.32183 15.3273 7.49417C15.4391 7.5771 15.5487 7.66311 15.6538 7.75397C15.6806 7.77624 15.7064 7.80006 15.732 7.82256C15.7448 7.83381 15.7578 7.84637 15.7706 7.85762C15.8137 7.89593 15.7415 7.83034 15.7849 7.86996C15.8398 7.92105 15.8949 7.97345 15.9489 8.02739C16.1518 8.22929 16.3385 8.4462 16.5084 8.67549C16.5506 8.73151 16.5918 8.78906 16.6317 8.84685C16.6516 8.87574 16.6715 8.90463 16.6904 8.93506C16.6937 8.93853 16.7254 8.9883 16.7012 8.9507C16.7141 8.97004 16.7272 8.99069 16.7387 9.01026C16.8174 9.13546 16.8914 9.26419 16.959 9.39539C17.0953 9.65624 17.2118 9.92733 17.3066 10.205C17.318 10.2394 17.3295 10.2738 17.3409 10.3083C17.3263 10.2636 17.3448 10.3224 17.347 10.3274C17.3529 10.3453 17.3572 10.3621 17.363 10.38C17.3835 10.4506 17.404 10.5212 17.422 10.5923C17.4585 10.7385 17.4908 10.884 17.5166 11.0306ZM17.5166 11.0306C17.5346 11.1327 17.6424 11.2164 17.7476 11.1925C17.8527 11.1686 17.9288 11.0715 17.9094 10.9615C17.7999 10.3463 17.5971 9.74617 17.3043 9.19426C17.0197 8.65845 16.6548 8.16511 16.2237 7.74012C15.788 7.31189 15.2945 6.95457 14.7521 6.672C14.2171 6.39351 13.6418 6.20042 13.0481 6.09427C12.4375 5.98433 11.8068 5.97512 11.1909 6.0578C10.5659 6.14209 9.95049 6.32728 9.38311 6.60122C8.83946 6.86423 8.33372 7.21237 7.89373 7.62724C7.45958 8.03704 7.08394 8.51079 6.78914 9.02971C6.48423 9.56797 6.26534 10.1424 6.13261 10.7462C6.00011 11.3513 5.96942 11.975 6.02914 12.5908C6.09048 13.2159 6.25341 13.8352 6.50493 14.4133C6.74884 14.9711 7.08095 15.4931 7.48288 15.9516C7.87641 16.4007 8.33806 16.792 8.84666 17.1048C9.35679 17.4187 9.91372 17.661 10.4945 17.8085C11.1051 17.9644 11.7286 18.0248 12.3567 17.9886C12.9915 17.9525 13.62 17.8109 14.2107 17.5774C14.7763 17.3551 15.3097 17.0412 15.7808 16.6573C16.2436 16.2803 16.6534 15.8316 16.9845 15.3346C17.3177 14.8346 17.5798 14.2836 17.7498 13.707C17.9233 13.1203 18.0098 12.5071 17.9954 11.8954C17.9889 11.582 17.9596 11.2699 17.9066 10.9607C17.8886 10.8585 17.7807 10.7749 17.6756 10.7988C17.572 10.8238 17.4972 10.9206 17.5166 11.0306Z" stroke="white" stroke-linejoin="round"/>
<path d="M11.8008 8.51213C11.8008 9.02399 11.8008 9.53718 11.8008 10.049C11.8008 10.86 11.8008 11.6697 11.8008 12.4807C11.8008 12.6669 11.8008 12.8517 11.8008 13.0378C11.8008 13.1415 11.8925 13.2425 12.0002 13.2372C12.1079 13.2319 12.1996 13.1495 12.1996 13.0378C12.1996 12.5259 12.1996 12.0127 12.1996 11.5009C12.1996 10.6899 12.1996 9.8802 12.1996 9.06919C12.1996 8.88306 12.1996 8.69826 12.1996 8.51213C12.1996 8.40843 12.1079 8.30738 12.0002 8.3127C11.8925 8.31669 11.8008 8.40045 11.8008 8.51213Z" fill="white" stroke="white" stroke-linejoin="round"/>
<path d="M11.8008 15.0473C11.8008 15.1949 11.8008 15.3424 11.8008 15.49C11.8008 15.5937 11.8925 15.6948 12.0002 15.6894C12.1079 15.6841 12.1996 15.6017 12.1996 15.49C12.1996 15.3424 12.1996 15.1949 12.1996 15.0473C12.1996 14.9436 12.1079 14.8425 12.0002 14.8479C11.8925 14.8532 11.8008 14.9356 11.8008 15.0473Z" fill="white" stroke="white" stroke-linejoin="round"/>
</svg>
