<svg width="61" height="42" viewBox="0 0 61 42" fill="none" xmlns="http://www.w3.org/2000/svg">
<path d="M60.9996 18.5859C60.9996 18.5859 48.9961 28.1992 38.4734 22.8403C34.2295 20.6765 29.2992 19.1922 25.125 18.8298" stroke="#D6CD56" stroke-width="0.75" stroke-miterlimit="10" stroke-linecap="round" stroke-linejoin="round"/>
<path d="M25.2931 18.8848C25.2792 18.8883 25.2652 18.3343 21.5753 21.3622C17.8158 24.4005 18.2269 24.9859 12.774 24.9266C7.2757 24.8535 2.51612 27.9719 1.00392 26.9162C0.996954 26.9232 3.23737 24.9615 7.58232 21.5643C11.9551 18.1845 16.429 18.519 19.5649 18.5155C22.7182 18.519 25.2896 18.8848 25.2931 18.8848Z" stroke="#D6CD56" stroke-width="0.75" stroke-miterlimit="10" stroke-linecap="round" stroke-linejoin="round"/>
<path d="M25.2927 18.8867C25.2787 18.8867 22.2439 19.6672 17.2578 20.9111C12.2021 22.1585 12.324 21.8205 8.65157 23.3954C4.94425 24.9669 1.00348 26.9181 1 26.9181" stroke="#D6CD56" stroke-width="0.75" stroke-miterlimit="10" stroke-linecap="round" stroke-linejoin="round"/>
<path d="M31.2854 22.5296C31.2924 22.5331 31.045 22.0697 28.3795 26.2021C25.7279 30.3519 26.3446 30.7735 21.2715 32.662C16.1391 34.5296 13.1774 38.8258 11.4004 38.3414C11.4074 38.3449 12.5189 35.892 15.16 31.4425C17.8534 27.0139 22.4004 25.6968 25.4736 24.4808C28.5851 23.2822 31.2854 22.5296 31.2854 22.5296Z" stroke="#D6CD56" stroke-width="0.75" stroke-miterlimit="10" stroke-linecap="round" stroke-linejoin="round"/>
<path d="M31.2854 22.5312C31.2819 22.5312 28.4178 24.4964 24.0624 27.4511C19.6861 30.4093 19.6931 30.0434 16.8917 32.7055C14.0764 35.364 11.3969 38.3396 11.4004 38.3431" stroke="#D6CD56" stroke-width="0.75" stroke-miterlimit="10" stroke-linecap="round" stroke-linejoin="round"/>
<path d="M31.5199 14.9895C31.5025 14.9895 31.7604 14.5819 27.607 13.3589C23.4607 12.1429 22.9206 12.7944 20.2551 8.46342C17.8753 4.14983 13.9555 2.69686 14.5827 1C14.5652 1 17.0147 1.39373 21.0286 2.42509C24.9032 3.44599 26.1436 7.15679 27.9834 9.80836C29.6802 12.4495 31.5165 14.9895 31.5199 14.9895Z" stroke="#D6CD56" stroke-width="0.6512" stroke-miterlimit="10" stroke-linecap="round" stroke-linejoin="round"/>
<path d="M31.5193 14.9895C31.5402 14.9895 28.7179 12.7422 25.3068 9.48432C21.9792 6.22997 22.4252 6.15331 19.8399 4.36586C17.3103 2.5784 14.589 1 14.582 1" stroke="#D6CD56" stroke-width="0.6512" stroke-miterlimit="10" stroke-linecap="round" stroke-linejoin="round"/>
<path d="M50.9054 23.787C50.9194 23.7939 50.6162 23.3549 48.2643 27.672C45.9438 32.01 46.5884 32.3897 41.7138 34.7103C36.7835 37.01 34.2992 41.5256 32.5117 41.1807C32.5222 41.1877 33.3549 38.6406 35.5361 34.0099C37.7696 29.4002 42.2086 27.7277 45.1981 26.2469C48.226 24.7904 50.9054 23.787 50.9054 23.787Z" stroke="#D6CD56" stroke-width="0.75" stroke-miterlimit="10" stroke-linecap="round" stroke-linejoin="round"/>
<path d="M50.9054 23.7891C50.902 23.7891 48.1493 25.9946 44.0413 29.3047C39.9264 32.6149 39.9089 32.249 37.3758 35.127C34.8358 38.0016 32.5117 41.1828 32.5117 41.1863" stroke="#D6CD56" stroke-width="0.75" stroke-miterlimit="10" stroke-linecap="round" stroke-linejoin="round"/>
<path d="M38.0657 22.6359C38.0657 22.6359 33.4804 21.6394 31.0762 22.7125" stroke="#D6CD56" stroke-width="0.75" stroke-miterlimit="10" stroke-linecap="round" stroke-linejoin="round"/>
<path d="M41.962 24.0941C41.962 24.0941 35.5787 20.8223 31.2129 14.6133" stroke="#D6CD56" stroke-width="0.75" stroke-miterlimit="10" stroke-linecap="round" stroke-linejoin="round"/>
</svg>
