<svg width="133" height="107" viewBox="0 0 133 107" fill="none" xmlns="http://www.w3.org/2000/svg">
<path d="M10.5631 122C4.57053 108.496 0.912209 89.7907 12.4306 71.2887C34.1815 36.3548 91.1073 66.2527 120.343 62.4375C145.443 59.1619 125.153 22.9499 152.637 1" stroke="#D6CD56" stroke-width="0.75" stroke-miterlimit="10" stroke-linecap="round" stroke-linejoin="round"/>
<path d="M115.68 111.621C115.68 111.621 112.021 89.9544 77.0492 80.8315" stroke="#D6CD56" stroke-width="0.75" stroke-miterlimit="10" stroke-linecap="round" stroke-linejoin="round"/>
<path d="M93.7832 87.159C93.7832 87.159 87.3429 84.0441 79.0122 88.043" stroke="#D6CD56" stroke-width="0.75" stroke-miterlimit="10" stroke-linecap="round" stroke-linejoin="round"/>
<path d="M76.9492 80.9867C76.9606 80.9867 75.2233 84.9856 67.7 83.1297C60.3107 81.224 57.6205 75.2926 57.5287 75.3194C57.521 75.3423 62.2508 73.6203 68.2894 74.3053C74.2628 75.0056 76.8726 80.9905 76.9492 80.9867Z" stroke="#D6CD56" stroke-width="0.75" stroke-miterlimit="10" stroke-linecap="round" stroke-linejoin="round"/>
<path d="M76.9492 80.9859C76.9645 80.9974 72.8661 81.3916 67.3021 79.3366C61.7725 77.2779 57.544 75.3148 57.5287 75.3224" stroke="#D6CD56" stroke-width="0.75" stroke-miterlimit="10" stroke-linecap="round" stroke-linejoin="round"/>
<path d="M93.3928 83.4711C93.4081 83.5476 89.5087 83.8882 86.765 77.5818C84.0404 71.5471 86.7956 66.2548 86.7994 66.14C86.8071 66.1055 90.519 68.2906 93.2206 73.3112C95.9452 78.3012 93.412 83.494 93.3928 83.4711Z" stroke="#D6CD56" stroke-width="0.75" stroke-miterlimit="10" stroke-linecap="round" stroke-linejoin="round"/>
<path d="M93.3926 83.4726C93.3888 83.4917 90.7943 80.5222 89.2024 75.3408C87.6028 70.1672 86.803 66.153 86.7992 66.1453" stroke="#D6CD56" stroke-width="0.75" stroke-miterlimit="10" stroke-linecap="round" stroke-linejoin="round"/>
<path d="M109.935 84.2122C109.908 84.1395 106.453 81.5871 109.116 74.8292C111.71 67.8493 118.151 65.1821 118.166 65.2816C118.166 65.2739 119.023 70.4553 117.512 76.6239C116.023 82.8729 109.946 84.2849 109.935 84.2122Z" stroke="#D6CD56" stroke-width="0.75" stroke-miterlimit="10" stroke-linecap="round" stroke-linejoin="round"/>
<path d="M109.935 84.2109C109.931 84.1803 110.134 80.2771 112.809 74.9236C115.468 69.5203 118.155 65.2573 118.166 65.2803" stroke="#D6CD56" stroke-width="0.75" stroke-miterlimit="10" stroke-linecap="round" stroke-linejoin="round"/>
<path d="M78.6168 88.0282C78.5785 88.0129 79.3668 91.7898 73.7033 94.7058C67.8944 97.5528 62.5714 94.7785 62.6288 94.8282C62.6633 94.832 65.1124 91.411 69.4557 88.5295C73.8717 85.625 78.6397 88.009 78.6168 88.0282Z" stroke="#D6CD56" stroke-width="0.75" stroke-miterlimit="10" stroke-linecap="round" stroke-linejoin="round"/>
<path d="M78.6172 88.0281C78.5981 88.0204 76.1413 90.6456 71.4268 92.379C66.697 94.1164 62.6254 94.8281 62.6293 94.8281" stroke="#D6CD56" stroke-width="0.75" stroke-miterlimit="10" stroke-linecap="round" stroke-linejoin="round"/>
<path d="M94.0777 94.7643C94.0509 94.7529 94.6364 97.5617 90.4232 99.7314C86.1029 101.848 82.1461 99.785 82.1881 99.8232C82.2111 99.8271 84.0364 97.2785 87.2623 95.1355C90.5456 92.9735 94.093 94.749 94.0777 94.7643Z" stroke="#D6CD56" stroke-width="0.75" stroke-miterlimit="10" stroke-linecap="round" stroke-linejoin="round"/>
<path d="M94.0781 94.7653C94.0666 94.7615 92.2375 96.7093 88.7284 98.0027C85.2117 99.2923 82.1848 99.8242 82.1848 99.8242" stroke="#D6CD56" stroke-width="0.75" stroke-miterlimit="10" stroke-linecap="round" stroke-linejoin="round"/>
<path d="M97.9375 89.5547C97.9375 89.5547 96.0969 89.2256 93.1618 83.1411" stroke="#D6CD56" stroke-width="0.75" stroke-miterlimit="10" stroke-linecap="round" stroke-linejoin="round"/>
<path d="M108.229 98.1758C108.229 98.1758 106.855 92.1985 109.951 84.5528" stroke="#D6CD56" stroke-width="0.75" stroke-miterlimit="10" stroke-linecap="round" stroke-linejoin="round"/>
<path d="M105.393 95.2734C105.393 95.2734 99.775 92.4187 94.364 94.7721" stroke="#D6CD56" stroke-width="0.75" stroke-miterlimit="10" stroke-linecap="round" stroke-linejoin="round"/>
<g opacity="0.5">
<path d="M33.4718 73.6862C33.0088 74.0803 32.9284 74.7002 32.9552 75.3814C32.9322 76.2424 33.0968 76.537 34.4667 75.7258C35.8214 74.7997 35.5765 73.7282 35.2206 73.5446C34.5969 73.1198 33.8545 73.3494 33.4718 73.6862Z" fill="#D6CD56"/>
<path d="M29.8839 78.319C29.4209 78.7131 29.3405 79.333 29.3673 80.0142C29.3443 80.8752 29.5089 81.1699 30.8789 80.3586C32.2335 79.4364 31.9886 78.3611 31.6327 78.1774C31.009 77.7564 30.2666 77.986 29.8839 78.319Z" fill="#D6CD56"/>
<path d="M34.8274 78.1354C34.3643 78.5295 34.2878 79.1494 34.3146 79.8306C34.2916 80.6916 34.4562 80.9863 35.8261 80.175C37.1808 79.2489 36.9359 78.1775 36.58 77.9938C35.9524 77.5729 35.21 77.8025 34.8274 78.1354Z" fill="#D6CD56"/>
<path d="M30.3312 83.0612C29.8681 83.4553 29.7878 84.0752 29.8146 84.7564C29.7916 85.6174 29.9562 85.912 31.3261 85.1008C32.6808 84.1747 32.4359 83.1032 32.08 82.9196C31.4562 82.4986 30.7138 82.7282 30.3312 83.0612Z" fill="#D6CD56"/>
<path d="M25.0383 82.5924C24.5753 82.9866 24.4987 83.6065 24.5255 84.2876C24.5025 85.1486 24.6671 85.4433 26.0371 84.632C27.3917 83.706 27.1468 82.6345 26.7909 82.4508C26.1595 82.0299 25.4171 82.2557 25.0383 82.5924Z" fill="#D6CD56"/>
<path d="M28.4413 73.3033C27.9783 73.6975 27.9018 74.3174 27.9247 74.9986C27.9018 75.8596 28.0663 76.1542 29.4363 75.343C30.7947 74.4169 30.546 73.3454 30.1901 73.1618C29.5664 72.7408 28.824 72.9704 28.4413 73.3033Z" fill="#D6CD56"/>
<path d="M24.6516 76.7644C24.1885 77.1585 24.112 77.7784 24.1388 78.4634C24.1158 79.3244 24.2804 79.6191 25.6503 78.8078C27.005 77.8818 26.7601 76.8065 26.4042 76.6266C25.7766 76.2018 25.0342 76.4314 24.6516 76.7644Z" fill="#D6CD56"/>
<path d="M26.7531 63.2252C26.29 63.6194 26.2097 64.2393 26.2364 64.9204C26.2135 65.7814 26.378 66.0761 27.748 65.2648C29.1026 64.3388 28.8577 63.2673 28.5019 63.0836C27.8781 62.6627 27.1357 62.8923 26.7531 63.2252Z" fill="#D6CD56"/>
<path d="M23.1652 67.858C22.7021 68.2522 22.6218 68.8721 22.6486 69.5533C22.6256 70.4143 22.7901 70.7089 24.1601 69.8977C25.5148 68.9716 25.2698 67.8963 24.914 67.7164C24.2902 67.2955 23.5478 67.5251 23.1652 67.858Z" fill="#D6CD56"/>
<path d="M28.1085 67.6745C27.6455 68.0687 27.5651 68.6886 27.5919 69.3736C27.569 70.2346 27.7335 70.5292 29.1035 69.718C30.4581 68.7919 30.2132 67.7166 29.8573 67.5368C29.2336 67.112 28.4912 67.3416 28.1085 67.6745Z" fill="#D6CD56"/>
<path d="M23.6163 72.6041C23.1533 72.9983 23.073 73.6182 23.0997 74.2993C23.0768 75.1604 23.2413 75.455 24.6113 74.6437C25.9659 73.7177 25.721 72.6462 25.3651 72.4625C24.7376 72.0378 23.9952 72.2674 23.6163 72.6041Z" fill="#D6CD56"/>
<path d="M18.3195 72.1315C17.8564 72.5257 17.7761 73.1456 17.8029 73.8306C17.7799 74.6916 17.9444 74.9863 19.3144 74.175C20.669 73.2489 20.4241 72.1736 20.0683 71.9938C19.4445 71.569 18.7021 71.7986 18.3195 72.1315Z" fill="#D6CD56"/>
<path d="M21.7218 62.8408C21.2588 63.2349 21.1784 63.8548 21.2052 64.536C21.1822 65.397 21.3468 65.6955 22.7167 64.8804C24.0714 63.9543 23.8265 62.8829 23.4706 62.6992C22.8469 62.2782 22.1045 62.5078 21.7218 62.8408Z" fill="#D6CD56"/>
<path d="M17.9328 66.3072C17.4697 66.7014 17.3894 67.3213 17.4161 68.0025C17.3932 68.8635 17.5577 69.1581 18.9277 68.3469C20.2823 67.4208 20.0374 66.3493 19.6815 66.1657C19.0578 65.7409 18.3154 65.9705 17.9328 66.3072Z" fill="#D6CD56"/>
<path d="M18.8995 76.7213C18.4365 77.1155 18.3562 77.7354 18.3829 78.4165C18.36 79.2775 18.5245 79.5722 19.8945 78.7609C21.2491 77.8349 21.0042 76.7634 20.6483 76.5797C20.0246 76.155 19.2822 76.3846 18.8995 76.7213Z" fill="#D6CD56"/>
<path d="M15.3116 81.3542C14.8486 81.7484 14.7683 82.3683 14.795 83.0533C14.7721 83.9143 14.9366 84.2089 16.3066 83.3977C17.6612 82.4716 17.4163 81.3963 17.0604 81.2164C16.4367 80.7917 15.6943 81.0213 15.3116 81.3542Z" fill="#D6CD56"/>
<path d="M20.2551 81.1706C19.7921 81.5648 19.7117 82.1847 19.7423 82.8697C19.7193 83.7307 19.8839 84.0253 21.2539 83.2141C22.6085 82.288 22.3636 81.2127 22.0077 81.0328C21.3801 80.6081 20.6377 80.8377 20.2551 81.1706Z" fill="#D6CD56"/>
<path d="M15.759 86.0963C15.296 86.4905 15.2194 87.1104 15.2462 87.7915C15.2233 88.6525 15.3878 88.9472 16.7578 88.1359C18.1124 87.2099 17.8675 86.1384 17.5116 85.9547C16.884 85.5338 16.1417 85.7634 15.759 86.0963Z" fill="#D6CD56"/>
<path d="M10.4659 85.6276C10.0029 86.0217 9.92255 86.6416 9.94934 87.3228C9.92638 88.1838 10.0909 88.4784 11.4609 87.6672C12.8155 86.7411 12.5706 85.6697 12.2147 85.486C11.591 85.0612 10.8448 85.2908 10.4659 85.6276Z" fill="#D6CD56"/>
<path d="M13.8684 76.3386C13.4053 76.7327 13.325 77.3527 13.3556 78.0376C13.3326 78.8986 13.4972 79.1933 14.8671 78.382C16.2218 77.456 15.9769 76.3807 15.621 76.2008C14.9934 75.7761 14.251 76.0057 13.8684 76.3386Z" fill="#D6CD56"/>
<path d="M10.0792 79.7994C9.61619 80.1936 9.53583 80.8135 9.56262 81.4947C9.53966 82.3557 9.70421 82.6503 11.0742 81.8391C12.4288 80.913 12.1839 79.8415 11.828 79.6578C11.2043 79.2369 10.4619 79.4665 10.0792 79.7994Z" fill="#D6CD56"/>
<path d="M11.6417 66.0885C11.1787 66.4826 11.0983 67.1026 11.1251 67.7837C11.1022 68.6447 11.2667 68.9394 12.6367 68.1281C13.9913 67.2021 13.7464 66.1306 13.3905 65.9469C12.7668 65.526 12.0244 65.7556 11.6417 66.0885Z" fill="#D6CD56"/>
<path d="M8.05188 70.7292C7.58885 71.1234 7.50849 71.7433 7.53527 72.4283C7.51231 73.2893 7.67687 73.5839 9.04682 72.7727C10.4015 71.8466 10.1566 70.7713 9.80068 70.5914C9.17693 70.1667 8.43455 70.3963 8.05188 70.7292Z" fill="#D6CD56"/>
<path d="M12.9973 70.5456C12.5342 70.9398 12.4577 71.5597 12.4845 72.2447C12.4615 73.1057 12.6261 73.4003 13.996 72.5891C15.3507 71.663 15.1058 70.5877 14.7499 70.4078C14.1223 69.9831 13.3761 70.2127 12.9973 70.5456Z" fill="#D6CD56"/>
<path d="M8.50117 75.4713C8.03814 75.8655 7.96161 76.4854 7.9884 77.1665C7.96544 78.0275 8.12999 78.3222 9.49995 77.5109C10.8546 76.5849 10.6097 75.5134 10.2538 75.3297C9.62623 74.9088 8.88384 75.1384 8.50117 75.4713Z" fill="#D6CD56"/>
<path d="M22.2238 87.4713C21.7607 87.8655 21.6842 88.4854 21.7071 89.1665C21.6842 90.0275 21.8487 90.3222 23.2187 89.5109C24.5733 88.5849 24.3284 87.5096 23.9726 87.3297C23.345 86.9088 22.6026 87.1384 22.2238 87.4713Z" fill="#D6CD56"/>
<path d="M15.6593 61.0377C15.1963 61.4319 15.1197 62.0518 15.1427 62.7329C15.1197 63.5939 15.2843 63.8886 16.6542 63.0773C18.0089 62.1513 17.764 61.0798 17.4081 60.8961C16.7805 60.4752 16.042 60.7048 15.6593 61.0377Z" fill="#D6CD56"/>
<path d="M5.28625 81.1823C4.82322 81.5764 4.74286 82.1963 4.76965 82.8775C4.74669 83.7385 4.91124 84.0331 6.2812 83.2219C7.63585 82.2958 7.39094 81.2243 7.03506 81.0407C6.4113 80.6197 5.66892 80.8493 5.28625 81.1823Z" fill="#D6CD56"/>
<path d="M27.6691 89.0886C27.206 89.4827 27.1257 90.1027 27.1525 90.7876C27.1295 91.6486 27.2941 91.9433 28.664 91.132C30.0187 90.206 29.7738 89.1345 29.4179 88.9508C28.7941 88.5261 28.0517 88.7557 27.6691 89.0886Z" fill="#D6CD56"/>
<path d="M33.0831 66.7605C32.6201 67.1546 32.5397 67.7745 32.5665 68.4595C32.5436 69.3205 32.7081 69.6152 34.0781 68.8039C35.4327 67.8778 35.1878 66.8025 34.8319 66.6227C34.2082 66.1941 33.4658 66.4237 33.0831 66.7605Z" fill="#D6CD56"/>
<path d="M0.522594 79.9128C0.0595646 80.3069 -0.0207984 80.9269 0.0059886 81.6118C-0.0169716 82.4729 0.147569 82.7675 1.51752 81.9562C2.87217 81.0302 2.62727 79.9549 2.27138 79.775C1.64381 79.3464 0.901437 79.576 0.522594 79.9128Z" fill="#D6CD56"/>
<path d="M3.20813 74.9987C2.7451 75.3929 2.66474 76.0128 2.69152 76.6978C2.66856 77.5588 2.83312 77.8534 4.20307 77.0422C5.55772 76.1161 5.31281 75.0408 4.95693 74.861C4.33318 74.4362 3.58697 74.6658 3.20813 74.9987Z" fill="#D6CD56"/>
<path d="M6.61055 65.7097C6.14752 66.1038 6.07099 66.7237 6.09777 67.4087C6.07481 68.2697 6.23937 68.5644 7.60932 67.7531C8.96397 66.8271 8.71906 65.7518 8.36318 65.5719C7.7356 65.1471 6.99322 65.3768 6.61055 65.7097Z" fill="#D6CD56"/>
<path d="M2.82141 69.1705C2.35838 69.5647 2.27802 70.1846 2.30481 70.8658C2.28184 71.7268 2.4464 72.0214 3.81635 71.2102C5.171 70.2841 4.92609 69.2126 4.57021 69.0289C3.94646 68.608 3.20025 68.8376 2.82141 69.1705Z" fill="#D6CD56"/>
</g>
</svg>
