<svg width="57" height="45" viewBox="0 0 57 45" fill="none" xmlns="http://www.w3.org/2000/svg">
<path d="M52.7096 50.1484C55.1438 44.663 56.6298 37.0652 51.9511 29.5497C43.1159 15.3598 19.9929 27.5042 8.11744 25.9545C-2.07776 24.6239 6.16358 9.91477 -5 0.99883" stroke="#D6CD56" stroke-width="0.75" stroke-miterlimit="10" stroke-linecap="round" stroke-linejoin="round"/>
<path d="M10.0117 45.9336C10.0117 45.9336 11.4977 37.1327 25.7032 33.427" stroke="#D6CD56" stroke-width="0.75" stroke-miterlimit="10" stroke-linecap="round" stroke-linejoin="round"/>
<path d="M18.9062 35.9964C18.9062 35.9964 21.5223 34.7311 24.9062 36.3555" stroke="#D6CD56" stroke-width="0.75" stroke-miterlimit="10" stroke-linecap="round" stroke-linejoin="round"/>
<path d="M25.7442 33.4924C25.7395 33.4924 26.4452 35.1168 29.5011 34.3629C32.5026 33.5888 33.5954 31.1795 33.6327 31.1904C33.6358 31.1997 31.7146 30.5002 29.2617 30.7785C26.8353 31.0629 25.7753 33.494 25.7442 33.4924Z" stroke="#D6CD56" stroke-width="0.75" stroke-miterlimit="10" stroke-linecap="round" stroke-linejoin="round"/>
<path d="M25.7442 33.4926C25.7379 33.4972 27.4027 33.6573 29.6628 32.8226C31.9088 31.9864 33.6264 31.189 33.6327 31.1921" stroke="#D6CD56" stroke-width="0.75" stroke-miterlimit="10" stroke-linecap="round" stroke-linejoin="round"/>
<path d="M19.0637 34.5C19.0575 34.5311 20.6414 34.6694 21.7559 32.1078C22.8626 29.6565 21.7434 27.5068 21.7419 27.4602C21.7388 27.4462 20.231 28.3337 19.1336 30.3731C18.0269 32.4 19.0559 34.5093 19.0637 34.5Z" stroke="#D6CD56" stroke-width="0.75" stroke-miterlimit="10" stroke-linecap="round" stroke-linejoin="round"/>
<path d="M19.0645 34.5C19.066 34.5077 20.1199 33.3015 20.7665 31.1969C21.4162 29.0954 21.7411 27.4648 21.7427 27.4617" stroke="#D6CD56" stroke-width="0.75" stroke-miterlimit="10" stroke-linecap="round" stroke-linejoin="round"/>
<path d="M12.3461 34.7997C12.357 34.7702 13.7606 33.7334 12.6787 30.9884C11.6249 28.1532 9.00885 27.0698 9.00263 27.1102C9.00263 27.1071 8.65445 29.2117 9.26843 31.7174C9.87309 34.2557 12.3414 34.8292 12.3461 34.7997Z" stroke="#D6CD56" stroke-width="0.75" stroke-miterlimit="10" stroke-linecap="round" stroke-linejoin="round"/>
<path d="M12.3454 34.8008C12.347 34.7883 12.2646 33.2029 11.1781 31.0283C10.0978 28.8335 9.00662 27.1019 9.00195 27.1112" stroke="#D6CD56" stroke-width="0.75" stroke-miterlimit="10" stroke-linecap="round" stroke-linejoin="round"/>
<path d="M25.0659 36.351C25.0815 36.3448 24.7612 37.879 27.0617 39.0634C29.4213 40.2199 31.5834 39.0929 31.5601 39.1131C31.5461 39.1147 30.5513 37.7251 28.7871 36.5546C26.9933 35.3748 25.0566 36.3432 25.0659 36.351Z" stroke="#D6CD56" stroke-width="0.75" stroke-miterlimit="10" stroke-linecap="round" stroke-linejoin="round"/>
<path d="M25.0664 36.3511C25.0742 36.348 26.0721 37.4143 27.9871 38.1185C29.9083 38.8242 31.5622 39.1133 31.5606 39.1133" stroke="#D6CD56" stroke-width="0.75" stroke-miterlimit="10" stroke-linecap="round" stroke-linejoin="round"/>
<path d="M18.787 39.0862C18.7979 39.0816 18.56 40.2225 20.2714 41.1038C22.0263 41.9634 23.6336 41.1256 23.6165 41.1411C23.6071 41.1427 22.8657 40.1075 21.5553 39.237C20.2217 38.3588 18.7808 39.08 18.787 39.0862Z" stroke="#D6CD56" stroke-width="0.75" stroke-miterlimit="10" stroke-linecap="round" stroke-linejoin="round"/>
<path d="M18.7871 39.0857C18.7918 39.0842 19.5348 39.8754 20.9601 40.4007C22.3886 40.9246 23.6181 41.1406 23.6181 41.1406" stroke="#D6CD56" stroke-width="0.75" stroke-miterlimit="10" stroke-linecap="round" stroke-linejoin="round"/>
<path d="M17.2188 36.9727C17.2188 36.9727 17.9664 36.839 19.1586 34.3675" stroke="#D6CD56" stroke-width="0.75" stroke-miterlimit="10" stroke-linecap="round" stroke-linejoin="round"/>
<path d="M13.0393 40.4727C13.0393 40.4727 13.5973 38.0447 12.3398 34.9391" stroke="#D6CD56" stroke-width="0.75" stroke-miterlimit="10" stroke-linecap="round" stroke-linejoin="round"/>
<path d="M14.1914 39.293C14.1914 39.293 16.4732 38.1334 18.6711 39.0893" stroke="#D6CD56" stroke-width="0.75" stroke-miterlimit="10" stroke-linecap="round" stroke-linejoin="round"/>
<g opacity="0.5">
<path d="M43.4039 30.5245C43.592 30.6846 43.6246 30.9364 43.6138 31.2131C43.6231 31.5628 43.5563 31.6825 42.9998 31.353C42.4495 30.9768 42.549 30.5416 42.6936 30.467C42.9469 30.2944 43.2485 30.3877 43.4039 30.5245Z" fill="#D6CD56"/>
<path d="M44.861 32.4073C45.049 32.5674 45.0817 32.8192 45.0708 33.0959C45.0801 33.4456 45.0133 33.5653 44.4568 33.2358C43.9066 32.8612 44.006 32.4244 44.1506 32.3498C44.404 32.1788 44.7055 32.2721 44.861 32.4073Z" fill="#D6CD56"/>
<path d="M42.8527 32.3331C43.0408 32.4932 43.0719 32.745 43.061 33.0217C43.0704 33.3714 43.0035 33.4911 42.447 33.1616C41.8968 32.7854 41.9963 32.3502 42.1408 32.2756C42.3958 32.1046 42.6973 32.1979 42.8527 32.3331Z" fill="#D6CD56"/>
<path d="M44.6793 34.3331C44.8674 34.4932 44.9 34.745 44.8892 35.0217C44.8985 35.3714 44.8316 35.4911 44.2752 35.1616C43.7249 34.7854 43.8244 34.3502 43.969 34.2756C44.2223 34.1046 44.5239 34.1979 44.6793 34.3331Z" fill="#D6CD56"/>
<path d="M46.8293 34.1417C47.0174 34.3018 47.0485 34.5536 47.0376 34.8303C47.0469 35.18 46.9801 35.2997 46.4236 34.9702C45.8734 34.594 45.9728 34.1588 46.1174 34.0842C46.3739 33.9132 46.6754 34.0049 46.8293 34.1417Z" fill="#D6CD56"/>
<path d="M45.4474 30.3682C45.6354 30.5283 45.6665 30.7802 45.6572 31.0568C45.6665 31.4066 45.5997 31.5263 45.0432 31.1967C44.4914 30.8206 44.5925 30.3853 44.737 30.3107C44.9904 30.1397 45.2919 30.233 45.4474 30.3682Z" fill="#D6CD56"/>
<path d="M46.9856 31.7729C47.1736 31.933 47.2047 32.1849 47.1938 32.4631C47.2032 32.8128 47.1363 32.9325 46.5799 32.603C46.0296 32.2268 46.1291 31.79 46.2736 31.717C46.5286 31.5444 46.8301 31.6377 46.9856 31.7729Z" fill="#D6CD56"/>
<path d="M46.1344 26.2745C46.3225 26.4346 46.3551 26.6864 46.3442 26.9631C46.3536 27.3128 46.2867 27.4325 45.7303 27.103C45.18 26.7268 45.2795 26.2916 45.424 26.217C45.6774 26.046 45.979 26.1393 46.1344 26.2745Z" fill="#D6CD56"/>
<path d="M47.5914 28.1573C47.7795 28.3174 47.8121 28.5692 47.8013 28.8459C47.8106 29.1956 47.7438 29.3153 47.1873 28.9858C46.637 28.6096 46.7365 28.1729 46.8811 28.0998C47.1344 27.9288 47.436 28.0221 47.5914 28.1573Z" fill="#D6CD56"/>
<path d="M45.5836 28.0815C45.7717 28.2416 45.8043 28.4934 45.7934 28.7717C45.8028 29.1214 45.7359 29.2411 45.1795 28.9116C44.6292 28.5354 44.7287 28.0986 44.8733 28.0256C45.1266 27.853 45.4282 27.9463 45.5836 28.0815Z" fill="#D6CD56"/>
<path d="M47.4078 30.0831C47.5959 30.2432 47.6285 30.495 47.6177 30.7717C47.627 31.1214 47.5602 31.2411 47.0037 30.9116C46.4534 30.5354 46.5529 30.1002 46.6975 30.0256C46.9524 29.853 47.2539 29.9463 47.4078 30.0831Z" fill="#D6CD56"/>
<path d="M49.5602 29.8901C49.7483 30.0502 49.7809 30.302 49.77 30.5803C49.7793 30.93 49.7125 31.0497 49.156 30.7202C48.6058 30.344 48.7053 29.9072 48.8498 29.8342C49.1032 29.6616 49.4047 29.7549 49.5602 29.8901Z" fill="#D6CD56"/>
<path d="M48.1774 26.1176C48.3654 26.2777 48.3981 26.5295 48.3872 26.8062C48.3965 27.1559 48.3297 27.2771 47.7732 26.9461C47.223 26.5699 47.3224 26.1347 47.467 26.0601C47.7204 25.8891 48.0219 25.9823 48.1774 26.1176Z" fill="#D6CD56"/>
<path d="M49.7164 27.5245C49.9045 27.6846 49.9371 27.9364 49.9263 28.2131C49.9356 28.5628 49.8688 28.6825 49.3123 28.353C48.762 27.9768 48.8615 27.5416 49.0061 27.467C49.2594 27.2944 49.561 27.3877 49.7164 27.5245Z" fill="#D6CD56"/>
<path d="M49.3238 31.755C49.5119 31.9151 49.5446 32.1669 49.5337 32.4436C49.543 32.7933 49.4762 32.913 48.9197 32.5834C48.3695 32.2073 48.4689 31.7721 48.6135 31.6974C48.8669 31.5249 49.1684 31.6182 49.3238 31.755Z" fill="#D6CD56"/>
<path d="M50.7809 33.6362C50.969 33.7963 51.0016 34.0481 50.9907 34.3264C51 34.6761 50.9332 34.7958 50.3767 34.4663C49.8265 34.0901 49.926 33.6533 50.0705 33.5803C50.3239 33.4077 50.6254 33.501 50.7809 33.6362Z" fill="#D6CD56"/>
<path d="M48.7727 33.562C48.9607 33.7221 48.9934 33.9739 48.981 34.2521C48.9903 34.6019 48.9234 34.7216 48.367 34.392C47.8167 34.0159 47.9162 33.5791 48.0608 33.506C48.3157 33.3335 48.6172 33.4268 48.7727 33.562Z" fill="#D6CD56"/>
<path d="M50.5988 35.5636C50.7869 35.7237 50.818 35.9755 50.8071 36.2521C50.8165 36.6019 50.7496 36.7216 50.1931 36.392C49.6429 36.0159 49.7424 35.5807 49.8869 35.506C50.1418 35.3351 50.4434 35.4283 50.5988 35.5636Z" fill="#D6CD56"/>
<path d="M52.7496 35.3722C52.9377 35.5323 52.9703 35.7841 52.9595 36.0607C52.9688 36.4105 52.902 36.5302 52.3455 36.2006C51.7952 35.8245 51.8947 35.3892 52.0393 35.3146C52.2926 35.1421 52.5957 35.2354 52.7496 35.3722Z" fill="#D6CD56"/>
<path d="M51.3664 31.6011C51.5545 31.7612 51.5871 32.013 51.5747 32.2912C51.584 32.6409 51.5172 32.7606 50.9607 32.4311C50.4105 32.0549 50.5099 31.6182 50.6545 31.5451C50.9094 31.3726 51.211 31.4658 51.3664 31.6011Z" fill="#D6CD56"/>
<path d="M52.9059 33.005C53.094 33.1651 53.1266 33.4169 53.1157 33.6936C53.125 34.0433 53.0582 34.163 52.5017 33.8334C51.9515 33.4573 52.051 33.0221 52.1955 32.9475C52.4489 32.7765 52.7504 32.8697 52.9059 33.005Z" fill="#D6CD56"/>
<path d="M52.2711 27.4386C52.4592 27.5987 52.4918 27.8505 52.4809 28.1271C52.4903 28.4769 52.4234 28.5966 51.867 28.267C51.3167 27.8909 51.4162 27.4557 51.5608 27.381C51.8141 27.2101 52.1157 27.3033 52.2711 27.4386Z" fill="#D6CD56"/>
<path d="M53.7301 29.3237C53.9182 29.4838 53.9508 29.7356 53.9399 30.0139C53.9493 30.3636 53.8824 30.4833 53.326 30.1538C52.7757 29.7776 52.8752 29.3408 53.0197 29.2678C53.2731 29.0952 53.5747 29.1885 53.7301 29.3237Z" fill="#D6CD56"/>
<path d="M51.7199 29.2495C51.908 29.4096 51.9391 29.6614 51.9282 29.9396C51.9375 30.2894 51.8707 30.4091 51.3142 30.0795C50.764 29.7034 50.8635 29.2666 51.008 29.1935C51.2629 29.021 51.566 29.1143 51.7199 29.2495Z" fill="#D6CD56"/>
<path d="M53.5481 31.2471C53.7361 31.4073 53.7672 31.6591 53.7563 31.9357C53.7657 32.2855 53.6988 32.4052 53.1424 32.0756C52.5921 31.6995 52.6916 31.2642 52.8361 31.1896C53.0911 31.0187 53.3926 31.1119 53.5481 31.2471Z" fill="#D6CD56"/>
<path d="M47.9723 36.1222C48.1604 36.2823 48.1915 36.5341 48.1821 36.8107C48.1915 37.1605 48.1246 37.2802 47.5681 36.9506C47.0179 36.5745 47.1174 36.1377 47.2619 36.0646C47.5168 35.8937 47.8184 35.9869 47.9723 36.1222Z" fill="#D6CD56"/>
<path d="M50.6402 25.3878C50.8283 25.5479 50.8594 25.7997 50.8501 26.0764C50.8594 26.4261 50.7926 26.5458 50.2361 26.2163C49.6859 25.8401 49.7853 25.4049 49.9299 25.3303C50.1848 25.1593 50.4848 25.2525 50.6402 25.3878Z" fill="#D6CD56"/>
<path d="M54.8531 33.5714C55.0412 33.7315 55.0739 33.9833 55.063 34.26C55.0723 34.6097 55.0055 34.7294 54.449 34.3999C53.8987 34.0237 53.9982 33.5885 54.1428 33.5139C54.3962 33.3429 54.6977 33.4361 54.8531 33.5714Z" fill="#D6CD56"/>
<path d="M45.7613 36.7808C45.9494 36.9409 45.9821 37.1927 45.9712 37.4709C45.9805 37.8206 45.9137 37.9403 45.3572 37.6108C44.807 37.2346 44.9064 36.7994 45.051 36.7248C45.3044 36.5523 45.6059 36.6455 45.7613 36.7808Z" fill="#D6CD56"/>
<path d="M43.5621 27.7104C43.7502 27.8705 43.7828 28.1224 43.772 28.4006C43.7813 28.7503 43.7145 28.87 43.158 28.5405C42.6077 28.1643 42.7072 27.7275 42.8518 27.6545C43.1051 27.4804 43.4067 27.5737 43.5621 27.7104Z" fill="#D6CD56"/>
<path d="M56.7887 33.0542C56.9768 33.2143 57.0094 33.4661 56.9985 33.7443C57.0079 34.0941 56.941 34.2138 56.3845 33.8842C55.8343 33.5081 55.9338 33.0713 56.0783 32.9982C56.3333 32.8241 56.6348 32.9174 56.7887 33.0542Z" fill="#D6CD56"/>
<path d="M55.6969 31.0581C55.885 31.2182 55.9176 31.47 55.9067 31.7482C55.9161 32.098 55.8492 32.2177 55.2928 31.8881C54.7425 31.512 54.842 31.0752 54.9865 31.0021C55.2399 30.8296 55.543 30.9229 55.6969 31.0581Z" fill="#D6CD56"/>
<path d="M54.3156 27.2847C54.5037 27.4448 54.5348 27.6966 54.5239 27.9748C54.5332 28.3245 54.4664 28.4442 53.9099 28.1147C53.3597 27.7385 53.4592 27.3018 53.6037 27.2287C53.8586 27.0562 54.1602 27.1494 54.3156 27.2847Z" fill="#D6CD56"/>
<path d="M55.8551 28.6886C56.0432 28.8487 56.0758 29.1005 56.0649 29.3771C56.0743 29.7269 56.0074 29.8466 55.451 29.517C54.9007 29.1409 55.0002 28.7057 55.1447 28.631C55.3981 28.4601 55.7012 28.5533 55.8551 28.6886Z" fill="#D6CD56"/>
</g>
</svg>
