<svg width="133" height="102" viewBox="0 0 133 102" fill="none" xmlns="http://www.w3.org/2000/svg">
<path d="M122.074 -20C128.066 -6.4956 131.725 12.2093 120.206 30.7113C98.4552 65.6452 41.5294 35.7473 12.2935 39.5625C-12.8058 42.8381 7.4833 79.0501 -20 101" stroke="#D6CD56" stroke-width="0.75" stroke-miterlimit="10" stroke-linecap="round" stroke-linejoin="round"/>
<path d="M16.957 -9.62109C16.957 -9.62109 20.6154 12.0456 55.5875 21.1685" stroke="#D6CD56" stroke-width="0.75" stroke-miterlimit="10" stroke-linecap="round" stroke-linejoin="round"/>
<path d="M38.8535 14.841C38.8535 14.841 45.2938 17.9559 53.6245 13.957" stroke="#D6CD56" stroke-width="0.75" stroke-miterlimit="10" stroke-linecap="round" stroke-linejoin="round"/>
<path d="M55.6876 21.0133C55.6761 21.0133 57.4134 17.0144 64.9367 18.8703C72.326 20.776 75.0162 26.7074 75.108 26.6806C75.1157 26.6577 70.3859 28.3797 64.3474 27.6947C58.3739 26.9944 55.7641 21.0095 55.6876 21.0133Z" stroke="#D6CD56" stroke-width="0.75" stroke-miterlimit="10" stroke-linecap="round" stroke-linejoin="round"/>
<path d="M55.6875 21.0141C55.6722 21.0026 59.7706 20.6084 65.3346 22.6634C70.8642 24.7221 75.0927 26.6852 75.108 26.6776" stroke="#D6CD56" stroke-width="0.75" stroke-miterlimit="10" stroke-linecap="round" stroke-linejoin="round"/>
<path d="M39.2439 18.5289C39.2286 18.4524 43.128 18.1118 45.8717 24.4182C48.5963 30.4529 45.8411 35.7452 45.8373 35.86C45.8296 35.8945 42.1177 33.7094 39.4161 28.6888C36.6915 23.6988 39.2248 18.506 39.2439 18.5289Z" stroke="#D6CD56" stroke-width="0.75" stroke-miterlimit="10" stroke-linecap="round" stroke-linejoin="round"/>
<path d="M39.2441 18.5274C39.248 18.5083 41.8425 21.4778 43.4344 26.6592C45.0339 31.8328 45.8337 35.847 45.8375 35.8547" stroke="#D6CD56" stroke-width="0.75" stroke-miterlimit="10" stroke-linecap="round" stroke-linejoin="round"/>
<path d="M22.7018 17.7878C22.7286 17.8605 26.1841 20.4129 23.5207 27.1708C20.9262 34.1507 14.4859 36.8179 14.4706 36.7184C14.4706 36.7261 13.6134 31.5447 15.125 25.3761C16.6136 19.1271 22.6903 17.7151 22.7018 17.7878Z" stroke="#D6CD56" stroke-width="0.75" stroke-miterlimit="10" stroke-linecap="round" stroke-linejoin="round"/>
<path d="M22.7019 17.7891C22.7057 17.8197 22.5029 21.7229 19.8281 27.0764C17.1685 32.4797 14.4822 36.7427 14.4707 36.7197" stroke="#D6CD56" stroke-width="0.75" stroke-miterlimit="10" stroke-linecap="round" stroke-linejoin="round"/>
<path d="M54.02 13.9718C54.0582 13.9871 53.2699 10.2102 58.9334 7.29425C64.7423 4.44719 70.0653 7.22154 70.0079 7.1718C69.9734 7.16797 67.5244 10.589 63.1811 13.4705C58.7651 16.375 53.997 13.991 54.02 13.9718Z" stroke="#D6CD56" stroke-width="0.75" stroke-miterlimit="10" stroke-linecap="round" stroke-linejoin="round"/>
<path d="M54.0195 13.9719C54.0387 13.9796 56.4954 11.3544 61.2099 9.62096C65.9397 7.88364 70.0113 7.17188 70.0074 7.17188" stroke="#D6CD56" stroke-width="0.75" stroke-miterlimit="10" stroke-linecap="round" stroke-linejoin="round"/>
<path d="M38.559 7.23565C38.5858 7.24713 38.0003 4.43834 42.2135 2.26861C46.5339 0.152447 50.4907 2.21503 50.4486 2.17677C50.4256 2.17294 48.6003 4.72152 45.3744 6.86447C42.0911 9.02655 38.5437 7.25096 38.559 7.23565Z" stroke="#D6CD56" stroke-width="0.75" stroke-miterlimit="10" stroke-linecap="round" stroke-linejoin="round"/>
<path d="M38.5586 7.23467C38.5701 7.23849 40.3992 5.29071 43.9083 3.99729C47.425 2.70769 50.4519 2.17578 50.4519 2.17578" stroke="#D6CD56" stroke-width="0.75" stroke-miterlimit="10" stroke-linecap="round" stroke-linejoin="round"/>
<path d="M34.6992 12.4453C34.6992 12.4453 36.5399 12.7744 39.4749 18.8589" stroke="#D6CD56" stroke-width="0.75" stroke-miterlimit="10" stroke-linecap="round" stroke-linejoin="round"/>
<path d="M24.4076 3.82422C24.4076 3.82422 25.7813 9.80151 22.6855 17.4472" stroke="#D6CD56" stroke-width="0.75" stroke-miterlimit="10" stroke-linecap="round" stroke-linejoin="round"/>
<path d="M27.2441 6.72656C27.2441 6.72656 32.8617 9.58128 38.2727 7.22786" stroke="#D6CD56" stroke-width="0.75" stroke-miterlimit="10" stroke-linecap="round" stroke-linejoin="round"/>
<g opacity="0.5">
<path d="M99.1649 28.3138C99.6279 27.9197 99.7083 27.2998 99.6815 26.6186C99.7045 25.7576 99.5399 25.463 98.17 26.2742C96.8153 27.2003 97.0602 28.2718 97.4161 28.4554C98.0399 28.8802 98.7822 28.6506 99.1649 28.3138Z" fill="#D6CD56"/>
<path d="M102.753 23.681C103.216 23.2869 103.296 22.667 103.269 21.9858C103.292 21.1248 103.128 20.8301 101.758 21.6414C100.403 22.5636 100.648 23.6389 101.004 23.8226C101.628 24.2436 102.37 24.014 102.753 23.681Z" fill="#D6CD56"/>
<path d="M97.8094 23.8646C98.2724 23.4705 98.3489 22.8506 98.3221 22.1694C98.3451 21.3084 98.1806 21.0137 96.8106 21.825C95.456 22.7511 95.7009 23.8225 96.0567 24.0062C96.6843 24.4271 97.4267 24.1975 97.8094 23.8646Z" fill="#D6CD56"/>
<path d="M102.306 18.9388C102.769 18.5447 102.849 17.9248 102.822 17.2436C102.845 16.3826 102.681 16.088 101.311 16.8992C99.956 17.8253 100.201 18.8968 100.557 19.0804C101.18 19.5014 101.923 19.2718 102.306 18.9388Z" fill="#D6CD56"/>
<path d="M107.598 19.4076C108.061 19.0134 108.138 18.3935 108.111 17.7124C108.134 16.8514 107.97 16.5567 106.6 17.368C105.245 18.294 105.49 19.3655 105.846 19.5492C106.477 19.9701 107.22 19.7443 107.598 19.4076Z" fill="#D6CD56"/>
<path d="M104.195 28.6967C104.658 28.3025 104.735 27.6826 104.712 27.0014C104.735 26.1404 104.57 25.8458 103.2 26.657C101.842 27.5831 102.091 28.6546 102.447 28.8382C103.07 29.2592 103.813 29.0296 104.195 28.6967Z" fill="#D6CD56"/>
<path d="M107.985 25.2356C108.448 24.8415 108.525 24.2216 108.498 23.5366C108.521 22.6756 108.356 22.3809 106.986 23.1922C105.632 24.1182 105.877 25.1935 106.233 25.3734C106.86 25.7982 107.602 25.5686 107.985 25.2356Z" fill="#D6CD56"/>
<path d="M105.884 38.7748C106.347 38.3806 106.427 37.7607 106.4 37.0796C106.423 36.2186 106.259 35.9239 104.889 36.7352C103.534 37.6612 103.779 38.7327 104.135 38.9164C104.759 39.3373 105.501 39.1077 105.884 38.7748Z" fill="#D6CD56"/>
<path d="M109.472 34.142C109.935 33.7478 110.015 33.1279 109.988 32.4467C110.011 31.5857 109.847 31.2911 108.477 32.1023C107.122 33.0284 107.367 34.1037 107.723 34.2836C108.347 34.7045 109.089 34.4749 109.472 34.142Z" fill="#D6CD56"/>
<path d="M104.528 34.3255C104.991 33.9313 105.072 33.3114 105.045 32.6264C105.068 31.7654 104.903 31.4708 103.533 32.282C102.179 33.2081 102.424 34.2834 102.779 34.4632C103.403 34.888 104.146 34.6584 104.528 34.3255Z" fill="#D6CD56"/>
<path d="M109.02 29.3959C109.483 29.0017 109.564 28.3818 109.537 27.7007C109.56 26.8396 109.395 26.545 108.025 27.3563C106.671 28.2823 106.916 29.3538 107.272 29.5375C107.899 29.9622 108.642 29.7326 109.02 29.3959Z" fill="#D6CD56"/>
<path d="M114.317 29.8685C114.78 29.4743 114.861 28.8544 114.834 28.1694C114.857 27.3084 114.692 27.0137 113.322 27.825C111.968 28.7511 112.213 29.8264 112.568 30.0062C113.192 30.431 113.935 30.2014 114.317 29.8685Z" fill="#D6CD56"/>
<path d="M110.915 39.1592C111.378 38.7651 111.458 38.1452 111.432 37.464C111.454 36.603 111.29 36.3045 109.92 37.1196C108.565 38.0457 108.81 39.1171 109.166 39.3008C109.79 39.7218 110.532 39.4922 110.915 39.1592Z" fill="#D6CD56"/>
<path d="M114.704 35.6928C115.167 35.2986 115.247 34.6787 115.221 33.9975C115.244 33.1365 115.079 32.8419 113.709 33.6531C112.354 34.5792 112.599 35.6507 112.955 35.8343C113.579 36.2591 114.321 36.0295 114.704 35.6928Z" fill="#D6CD56"/>
<path d="M113.737 25.2787C114.2 24.8845 114.281 24.2646 114.254 23.5835C114.277 22.7225 114.112 22.4278 112.742 23.2391C111.388 24.1651 111.633 25.2366 111.988 25.4203C112.612 25.845 113.355 25.6154 113.737 25.2787Z" fill="#D6CD56"/>
<path d="M117.325 20.6458C117.788 20.2516 117.868 19.6317 117.842 18.9467C117.865 18.0857 117.7 17.7911 116.33 18.6023C114.975 19.5284 115.22 20.6037 115.576 20.7836C116.2 21.2083 116.942 20.9787 117.325 20.6458Z" fill="#D6CD56"/>
<path d="M112.382 20.8294C112.845 20.4352 112.925 19.8153 112.894 19.1303C112.917 18.2693 112.753 17.9747 111.383 18.7859C110.028 19.712 110.273 20.7873 110.629 20.9672C111.257 21.3919 111.999 21.1623 112.382 20.8294Z" fill="#D6CD56"/>
<path d="M116.878 15.9037C117.341 15.5095 117.417 14.8896 117.391 14.2085C117.413 13.3475 117.249 13.0528 115.879 13.8641C114.524 14.7901 114.769 15.8616 115.125 16.0453C115.753 16.4662 116.495 16.2366 116.878 15.9037Z" fill="#D6CD56"/>
<path d="M122.171 16.3724C122.634 15.9783 122.714 15.3584 122.687 14.6772C122.71 13.8162 122.546 13.5216 121.176 14.3328C119.821 15.2589 120.066 16.3303 120.422 16.514C121.046 16.9388 121.792 16.7092 122.171 16.3724Z" fill="#D6CD56"/>
<path d="M118.768 25.6614C119.231 25.2673 119.312 24.6473 119.281 23.9624C119.304 23.1014 119.14 22.8067 117.77 23.618C116.415 24.544 116.66 25.6193 117.016 25.7992C117.643 26.2239 118.386 25.9943 118.768 25.6614Z" fill="#D6CD56"/>
<path d="M122.557 22.2006C123.021 21.8064 123.101 21.1865 123.074 20.5053C123.097 19.6443 122.933 19.3497 121.563 20.1609C120.208 21.087 120.453 22.1585 120.809 22.3422C121.432 22.7631 122.175 22.5335 122.557 22.2006Z" fill="#D6CD56"/>
<path d="M120.995 35.9115C121.458 35.5174 121.538 34.8974 121.512 34.2163C121.535 33.3553 121.37 33.0606 120 33.8719C118.645 34.7979 118.89 35.8694 119.246 36.0531C119.87 36.474 120.612 36.2444 120.995 35.9115Z" fill="#D6CD56"/>
<path d="M124.585 31.2708C125.048 30.8766 125.128 30.2567 125.101 29.5717C125.124 28.7107 124.96 28.4161 123.59 29.2273C122.235 30.1534 122.48 31.2287 122.836 31.4086C123.46 31.8333 124.202 31.6037 124.585 31.2708Z" fill="#D6CD56"/>
<path d="M119.639 31.4544C120.102 31.0602 120.179 30.4403 120.152 29.7553C120.175 28.8943 120.011 28.5997 118.641 29.4109C117.286 30.337 117.531 31.4123 117.887 31.5922C118.514 32.0169 119.261 31.7873 119.639 31.4544Z" fill="#D6CD56"/>
<path d="M124.136 26.5287C124.599 26.1345 124.675 25.5146 124.648 24.8335C124.671 23.9725 124.507 23.6778 123.137 24.4891C121.782 25.4151 122.027 26.4866 122.383 26.6703C123.01 27.0912 123.753 26.8616 124.136 26.5287Z" fill="#D6CD56"/>
<path d="M110.413 14.5287C110.876 14.1345 110.953 13.5146 110.93 12.8335C110.953 11.9725 110.788 11.6778 109.418 12.4891C108.063 13.4151 108.308 14.4904 108.664 14.6703C109.292 15.0912 110.034 14.8616 110.413 14.5287Z" fill="#D6CD56"/>
<path d="M116.977 40.9623C117.44 40.5681 117.517 39.9482 117.494 39.2671C117.517 38.4061 117.352 38.1114 115.982 38.9227C114.628 39.8487 114.873 40.9202 115.229 41.1039C115.856 41.5248 116.595 41.2952 116.977 40.9623Z" fill="#D6CD56"/>
<path d="M127.35 20.8177C127.813 20.4236 127.894 19.8037 127.867 19.1225C127.89 18.2615 127.725 17.9669 126.356 18.7781C125.001 19.7042 125.246 20.7757 125.602 20.9593C126.225 21.3803 126.968 21.1507 127.35 20.8177Z" fill="#D6CD56"/>
<path d="M104.968 12.9114C105.431 12.5173 105.511 11.8973 105.484 11.2124C105.507 10.3514 105.343 10.0567 103.973 10.868C102.618 11.794 102.863 12.8655 103.219 13.0492C103.843 13.4739 104.585 13.2443 104.968 12.9114Z" fill="#D6CD56"/>
<path d="M99.5536 35.2395C100.017 34.8454 100.097 34.2255 100.07 33.5405C100.093 32.6795 99.9286 32.3848 98.5586 33.1961C97.204 34.1222 97.4489 35.1975 97.8048 35.3773C98.4285 35.8059 99.1709 35.5763 99.5536 35.2395Z" fill="#D6CD56"/>
<path d="M132.114 22.0872C132.577 21.6931 132.658 21.0731 132.631 20.3882C132.654 19.5271 132.489 19.2325 131.119 20.0438C129.765 20.9698 130.009 22.0451 130.365 22.225C130.993 22.6536 131.735 22.424 132.114 22.0872Z" fill="#D6CD56"/>
<path d="M129.429 27.0013C129.892 26.6071 129.972 25.9872 129.945 25.3022C129.968 24.4412 129.804 24.1466 128.434 24.9578C127.079 25.8839 127.324 26.9592 127.68 27.139C128.304 27.5638 129.05 27.3342 129.429 27.0013Z" fill="#D6CD56"/>
<path d="M126.026 36.2903C126.489 35.8962 126.566 35.2763 126.539 34.5913C126.562 33.7303 126.397 33.4356 125.027 34.2469C123.673 35.1729 123.918 36.2482 124.274 36.4281C124.901 36.8529 125.644 36.6232 126.026 36.2903Z" fill="#D6CD56"/>
<path d="M129.815 32.8295C130.278 32.4353 130.359 31.8154 130.332 31.1342C130.355 30.2732 130.19 29.9786 128.82 30.7898C127.466 31.7159 127.711 32.7874 128.067 32.9711C128.69 33.392 129.436 33.1624 129.815 32.8295Z" fill="#D6CD56"/>
</g>
</svg>
