<svg width="343" height="210" viewBox="0 0 343 210" fill="none" xmlns="http://www.w3.org/2000/svg">
<mask id="mask0" style="mask-type:alpha" maskUnits="userSpaceOnUse" x="0" y="0" width="343" height="210">
<rect width="343" height="210" fill="#C4C4C4"/>
</mask>
<g mask="url(#mask0)">
<path d="M41.4944 40.049C39.4032 51.111 43.4363 63.4426 52.4734 70.1644C61.2864 76.7203 73.0953 77.3012 84.0743 76.8946C94.0242 76.5211 104.082 75.517 113.41 72.0399C122.737 68.5628 131.351 62.3721 136.098 53.6254C138.463 49.2687 139.807 44.4223 140.811 39.5677C142.778 30.0409 143.027 18.8462 136.09 12.0331C130.223 6.27388 121.011 5.5934 112.903 6.93777C104.796 8.28213 96.9453 11.2862 88.7298 11.643C68.5726 12.5227 45.8594 16.9209 41.4944 40.049Z" fill="#DCEFE4"/>
<path d="M328.234 300.283C331.703 300.018 332.192 272.641 332.059 269.819C331.495 257.778 327.462 247.422 316.881 240.758C296.907 228.186 270.725 236.011 254.095 216.427C241.373 201.439 247.895 178.27 260.567 165.341C273.156 152.494 289.305 143.175 300.118 128.81C327.246 92.7781 311.438 37.9745 271.082 20.1077C250.659 11.0706 227.041 8.29056 205.722 14.9377C155.599 30.5722 151.956 98.3547 98.3888 110.022C76.9951 114.678 52.8048 108.454 34.0667 119.79C23.1043 126.42 16.0174 138.287 12.9967 150.743C9.98431 163.191 10.6648 176.253 12.4822 188.942C18.2497 229.173 35.577 269.587 57.8006 303.321C147.151 305.968 239.066 306.557 328.234 300.283Z" fill="#DCEFE4"/>
<path d="M28.8228 75.3576C33.4948 74.8016 38.2914 76.6356 40.9303 81.5815C43.2788 85.9798 43.3535 91.3489 41.9594 96.1455C41.4614 97.8716 40.7727 99.5562 39.7436 101.033C35.5944 106.967 26.0261 107.664 20.5823 102.884C15.7525 98.6434 14.9393 90.7348 16.8562 84.901C18.6487 79.4903 23.6611 75.9717 28.8228 75.3576Z" fill="#DCEFE4"/>
<path d="M323.446 193.797C343.014 193.739 343.778 224.186 323.255 222.278C316.691 221.663 310.857 216.319 309.679 209.83C307.737 199.141 315.43 193.822 323.446 193.797Z" fill="#DCEFE4"/>
<path d="M114.221 47.1783L123.374 164.379H237.072L246.773 40.2656L114.221 47.1783Z" fill="#40857E"/>
<path d="M190.791 15.0223C188.899 14.624 186.716 16.5492 185.596 17.8106C183.621 20.018 182.168 22.7732 180.832 25.3955C178.086 30.7979 176.202 36.5736 175.156 42.532C174.617 35.9844 174.111 29.4286 173.496 22.8893C172.907 16.516 172.069 10.0764 169.878 4.02673C169.422 2.76535 168.733 0.549633 166.941 1.08074C164.916 1.67824 164.227 5.56196 163.912 7.21337C162.7 13.4705 164.219 19.7774 166.019 25.7606C168.028 32.441 170.326 39.113 174.492 44.7809C174.7 45.0631 175.081 44.9718 175.223 44.756C175.223 44.756 175.223 44.756 175.231 44.756C175.355 44.9967 175.654 45.1212 175.861 44.8639C180.094 39.4035 184.027 33.7272 187.612 27.8187C189.206 25.188 191.289 22.3665 192.035 19.3376C192.376 17.9268 192.641 15.4123 190.791 15.0223ZM167.057 26.2917C164.883 19.1716 162.783 11.122 165.754 3.91055C165.887 3.51222 166.061 3.13048 166.277 2.75705C167.887 2.04337 168.783 2.41681 168.957 3.87735C169.231 4.59103 169.472 5.3213 169.696 6.04327C170.235 7.74448 170.667 9.47058 171.04 11.2133C171.804 14.8065 172.243 18.4579 172.6 22.1093C173.272 29.1049 173.803 36.1255 174.376 43.1295C170.932 38.0093 168.858 32.1754 167.057 26.2917ZM191.139 19.4288C190.741 20.8562 189.952 22.1591 189.222 23.437C187.894 25.7606 186.517 28.0427 185.089 30.2999C182.21 34.8558 179.106 39.2624 175.828 43.5361C176.625 38.5736 177.994 33.7189 179.994 29.1049C181.065 26.6403 182.301 24.2586 183.687 21.9599C184.982 19.8272 186.45 17.4123 188.799 16.3169C189.795 15.8522 190.708 15.4289 191.421 17.2048C191.67 17.8438 191.297 18.8479 191.139 19.4288Z" fill="#00696D" stroke="#00696D" stroke-width="2"/>
<path d="M174.834 43.2039L180.062 165.375C180.087 165.881 180.917 165.881 180.892 165.375L175.664 43.2039C175.647 42.6977 174.818 42.6977 174.834 43.2039Z" fill="#00696D" stroke="#00696D" stroke-width="2"/>
<path d="M176.668 43.137L178.236 165.408C178.245 165.914 179.075 165.939 179.066 165.433L177.498 43.1619C177.49 42.6557 176.66 42.6308 176.668 43.137Z" fill="#00696D" stroke="#00696D" stroke-width="2"/>
<path d="M243.794 106.199L119.382 107.693C118.868 107.701 118.835 108.531 119.357 108.523L243.769 107.029C244.284 107.029 244.309 106.199 243.794 106.199Z" fill="#00696D" stroke="#00696D"/>
<path d="M243.055 104.387L118.735 109.499C118.22 109.524 118.212 110.354 118.735 110.329L243.055 105.217C243.57 105.192 243.57 104.362 243.055 104.387Z" fill="#00696D" stroke="#00696D"/>
<path opacity="0.2" d="M242.159 44.5898L164.683 160.072H127.348L118.834 51.0129L242.159 44.5898Z" fill="#D6CC5F"/>
<path opacity="0.2" d="M180.492 160.022L239.462 79.0859L236.897 111.874L205.512 160.163L180.492 160.022Z" fill="#D6CC5F"/>
<path d="M122.304 150.681C119.607 149.834 117.524 149.112 116.951 148.855C108.362 145.054 98.6943 136.83 94.6197 128.507C91.209 121.544 88.9103 104.898 79.5579 104.084C75.1845 103.703 70.612 106.267 68.9108 110.516C67.3092 114.516 68.4129 119.08 70.0726 123.055C72.1307 127.992 74.9937 132.548 77.8401 137.071C82.0225 143.71 86.4374 150.589 93.1509 154.656C99.2918 158.373 106.669 159.311 113.798 160.158C116.91 160.531 120.013 160.905 123.125 161.27L122.304 150.681Z" fill="#A2C9CC"/>
<path d="M128.627 161.891C129.606 161.716 130.784 162.032 131.772 161.957C133.921 161.783 138.012 159.136 139.896 160.92C140.137 161.152 140.344 161.468 140.294 161.799C140.195 162.521 136.942 163.443 136.203 163.833C136.784 163.534 139.182 164.729 139.788 164.878C141.298 165.252 142.908 165.401 144.402 164.853C144.817 164.704 145.224 164.496 145.663 164.488C147.174 164.472 147.356 166.247 146.527 167.094C145.655 167.99 143.946 168.198 142.776 168.364C141.664 168.521 140.543 168.455 139.423 168.38C136.12 168.164 129.647 168.496 126.942 166.272C125.183 164.828 126.361 162.621 128.286 161.974C128.386 161.941 128.51 161.907 128.627 161.891Z" fill="#FAB08B"/>
<path d="M90.123 187.582C88.3637 221.946 75.4097 264.053 50.6468 286.692C46.1905 287.024 42.8544 285.123 40.8711 283.256C45.7672 274.709 53.2857 261.489 54.6716 257.207C56.9537 250.186 56.8458 242.51 56.489 234.983C55.85 221.432 52.4891 201.075 50.3895 187.582C62.5801 187.582 79.2685 187.582 90.123 187.582Z" fill="#00686B"/>
<path d="M94.3619 287.142C91.7561 287.142 88.1214 287.133 85.0094 285.889C85.6484 268.196 86.6193 248.213 77.4245 233.077C72.6446 225.218 65.6406 219.019 59.6324 212.065C53.6243 205.11 47.2676 196.148 48.3547 185.924C59.1179 185.8 68.3127 187.567 75.3416 187.584C90.113 198.654 93.0258 212.919 97.3328 230.869C101.631 248.819 101.424 270.08 94.3619 287.142Z" fill="#198D8D"/>
<path d="M71.7335 93.7757C63.2192 98.0163 56.904 111.742 55.0036 119.676C49.7589 141.534 47.1532 164.031 47.2693 186.52C61.1694 193.491 77.335 192.387 92.1396 187.641C83.7913 150.928 98.571 104.738 87.5754 95.9666C81.6171 91.2198 76.2396 91.5268 71.7335 93.7757Z" fill="#BEE5EA"/>
<path d="M84.5126 68.9715C90.9606 69.4777 99.7985 67.6603 103.234 61.536C104.769 58.7975 105.491 53.9345 103.143 51.4533C100.944 49.1297 96.8442 48.9554 93.8734 49.1131C89.7407 49.3371 85.3673 49.9097 81.4421 51.2707C80.0729 51.7437 78.8115 52.2333 77.7161 53.196C77.1767 53.669 76.4879 55.2789 75.6497 55.2623C74.3718 55.1295 73.2515 54.308 71.9735 54.2001C70.2391 54.0424 68.6043 55.2706 67.7993 56.8224C66.9943 58.366 66.8616 60.1668 66.845 61.9095C66.7703 69.3035 67.957 78.8717 76.0896 81.6683C78.3053 82.4318 80.4961 81.0044 82.0894 79.2783C84.6288 76.5398 85.1599 72.6561 84.5126 68.9715Z" fill="#1B2C58"/>
<path d="M85.99 95.5685L87.3012 87.5936L100.612 87.2036L99.6743 76.4072L102.811 75.5856L99.8652 61.5859C93.7989 66.8804 84.795 64.034 84.795 64.034L82.6042 71.1625C81.3013 68.7642 79.1105 64.9551 76.513 67.9592C73.9156 70.9633 77.9321 76.1416 77.9321 76.1416L72.3223 93.9669C72.314 93.9752 79.8408 101.784 85.99 95.5685Z" fill="#FAB08B"/>
<path d="M74.0071 109.635C69.6337 109.253 65.0612 111.818 63.36 116.066C61.7584 120.066 62.8621 124.631 64.5218 128.606C66.5799 133.543 69.4429 138.099 72.2893 142.622C76.4718 149.261 80.8866 156.14 87.6001 160.206C93.741 163.924 101.118 164.862 108.247 165.708C115.915 166.621 123.583 167.542 131.25 168.455C131.392 165.841 131.674 163.443 132.047 160.016C126.014 159.352 112.977 155.103 111.384 154.397C102.795 150.597 93.1269 142.373 89.0524 134.049C85.6665 127.095 83.3596 110.457 74.0071 109.635Z" fill="#B4E0E3"/>
<path d="M216.17 164.383C216.22 164.989 216.261 165.586 216.294 166.2C221.365 165.594 226.435 164.989 231.506 164.383H216.17Z" fill="#178080"/>
<path d="M284.192 113.801C282.491 109.552 277.919 106.988 273.545 107.369C264.193 108.191 261.894 124.83 258.484 131.792C254.716 139.493 246.16 147.103 238.102 151.211L237.123 163.708C237.845 163.625 238.575 163.534 239.297 163.451C246.426 162.596 253.803 161.667 259.944 157.949C266.658 153.883 271.072 147.003 275.255 140.365C278.101 135.834 280.964 131.286 283.022 126.348C284.682 122.365 285.794 117.801 284.192 113.801Z" fill="#18504A"/>
<path d="M299.404 184.555C297.968 191.352 298.358 196.098 296.425 202.737C287.844 232.089 269.952 263.416 255.496 289.781C252.036 289.665 249.579 288.943 246.492 286.47C254.21 253.159 262.401 216.09 270.508 182.895C279.496 183.053 290.674 182.223 299.404 184.555Z" fill="#18504A"/>
<path d="M300.268 185.988C300.882 218.884 303.38 255.356 307.454 288.002C303.886 289.787 300.068 290.417 295.737 289.546C286.857 258.202 276.733 223.307 276.758 190.727C284.152 189.606 292.874 187.1 300.268 185.988Z" fill="#2F625D"/>
<path d="M224.41 161.891C223.431 161.716 222.252 162.032 221.265 161.957C219.115 161.783 215.024 159.136 213.14 160.92C212.9 161.152 212.692 161.468 212.742 161.799C212.842 162.521 216.095 163.443 216.833 163.833C216.252 163.534 213.854 164.729 213.248 164.878C211.738 165.252 210.128 165.401 208.634 164.853C208.219 164.704 207.813 164.496 207.373 164.488C205.863 164.472 205.68 166.247 206.51 167.094C207.381 167.99 209.091 168.198 210.261 168.364C211.373 168.521 212.493 168.455 213.613 168.38C216.916 168.164 223.389 168.496 226.094 166.272C227.854 164.828 226.675 162.621 224.75 161.974C224.65 161.941 224.526 161.907 224.41 161.891Z" fill="#FAB08B"/>
<path d="M281.305 93.7757C289.819 98.0163 296.134 111.742 298.034 119.676C303.279 141.534 305.885 164.031 305.769 186.52C291.869 193.491 275.703 192.387 260.898 187.641C269.247 150.928 254.467 104.738 265.463 95.9666C271.421 91.2198 276.798 91.5268 281.305 93.7757Z" fill="#40857E"/>
<path d="M268.525 68.9702C268.442 69.4183 240.833 66.5138 248.119 53.0121C249.662 50.1408 253.065 48.3981 256.293 48.8047C259.919 49.2611 262.758 52.0328 265.944 53.8336C272.118 57.319 286.085 51.2528 286.193 61.9081C286.267 69.3021 285.081 78.8703 276.948 81.667C274.732 82.4304 272.542 81.0031 270.948 79.277C268.409 76.5384 267.878 72.6547 268.525 68.9702Z" fill="#1B2C58"/>
<path d="M267.048 95.5685L265.737 87.5936L252.426 87.2036L253.363 76.4072L250.227 75.5856L253.173 61.5859C259.239 66.8804 268.243 64.034 268.243 64.034L270.434 71.1625C271.736 68.7642 273.927 64.9551 276.525 67.9592C279.122 70.9633 275.106 76.1416 275.106 76.1416L280.715 93.9669C280.724 93.9752 273.197 101.784 267.048 95.5685Z" fill="#FAB08B"/>
<path d="M279.03 109.635C283.404 109.253 287.976 111.818 289.677 116.066C291.279 120.066 290.175 124.631 288.516 128.606C286.458 133.543 283.595 138.099 280.748 142.622C276.566 149.261 272.151 156.14 265.437 160.206C259.296 163.924 251.919 164.862 244.791 165.708C237.123 166.621 229.455 167.542 221.787 168.455C221.646 165.841 221.364 163.443 220.99 160.016C227.023 159.352 240.06 155.103 241.654 154.397C250.243 150.597 259.91 142.373 263.985 134.049C267.371 127.095 269.678 110.457 279.03 109.635Z" fill="#36706A"/>
<path d="M253.455 76.4957C255.032 75.7239 257.015 75.8567 258.484 76.8193C259.322 77.367 259.978 78.1637 260.841 78.6699C263.048 79.9728 266.11 78.9935 267.662 76.9521C269.222 74.9107 268.674 66.554 268.243 64.0312C269.247 64.0312 271.38 64.0312 272.384 64.0312C272.699 66.8528 272.384 74.7779 272.384 77.6243C272.384 80.2466 272.21 83.0017 270.84 85.2423C268.774 88.6282 264.533 89.9725 260.592 90.4704C257.969 90.8024 255.081 90.8107 252.965 89.2339C251.115 87.8481 250.21 85.4 250.426 83.093C250.642 80.7943 251.372 77.5081 253.455 76.4957Z" fill="#1B2C58"/>
</g>
</svg>
