<svg width="48" height="48" viewBox="0 0 48 48" fill="none" xmlns="http://www.w3.org/2000/svg">
<path d="M23.4721 46.1066C23.3284 45.9613 23.283 45.763 23.2713 45.5845L23.2713 40.1391L17.8259 40.1391C17.6092 40.1418 17.3934 40.0415 17.2557 39.8741C17.08 39.6605 17.0424 39.3429 17.1634 39.0942C17.2843 38.8455 17.5575 38.679 17.834 38.6854L23.2793 38.6854L23.2713 32.0594C20.2619 31.8877 17.3022 30.6522 15.0068 28.3569C10.045 23.395 10.045 15.3281 15.0068 10.3662C19.9687 5.40436 28.0356 5.40431 32.9975 10.3662C37.9594 15.3281 37.9594 23.395 32.9975 28.3569C30.7004 30.654 27.737 31.8812 24.725 32.0514L24.725 38.6854L30.1704 38.6854C30.5558 38.68 30.9097 39.031 30.9076 39.4164C30.9055 39.8018 30.5477 40.1488 30.1624 40.1392L24.725 40.1311L24.725 45.5765C24.7366 45.8695 24.5519 46.1605 24.2819 46.2748C24.0118 46.389 23.6743 46.319 23.4721 46.1066ZM16.0349 27.3288C20.4412 31.7351 27.5632 31.7351 31.9695 27.3288C36.3757 22.9226 36.3758 15.8005 31.9695 11.3942C27.5632 6.98795 20.4411 6.988 16.0349 11.3942C11.6286 15.8005 11.6286 22.9225 16.0349 27.3288Z" fill="#E94EA5" stroke="#E94EA5" stroke-width="1.5"/>
</svg>
