<svg width="120" height="186" viewBox="0 0 120 186" fill="none" xmlns="http://www.w3.org/2000/svg">
<path d="M117.681 175.888C102.942 176.901 84.1138 173.941 70.667 156.789C45.2792 124.402 92.8439 81.1348 99.258 52.3572C104.764 27.6512 63.797 34.3315 52.5706 0.998378" stroke="#D6CD56" stroke-width="0.75" stroke-miterlimit="10" stroke-linecap="round" stroke-linejoin="round"/>
<path d="M143.881 73.5625C143.881 73.5625 122.27 69.5897 101.736 99.3326" stroke="#D6CD56" stroke-width="0.75" stroke-miterlimit="10" stroke-linecap="round" stroke-linejoin="round"/>
<path d="M113.404 85.768C113.404 85.768 108.274 90.7545 109.182 99.9505" stroke="#D6CD56" stroke-width="0.75" stroke-miterlimit="10" stroke-linecap="round" stroke-linejoin="round"/>
<path d="M101.849 99.478C101.853 99.4672 105.016 102.467 100.699 108.902C96.381 115.194 89.8872 115.693 89.881 115.789C89.8999 115.804 89.8994 110.77 92.6084 105.33C95.3095 99.9566 101.826 99.5512 101.849 99.478Z" stroke="#D6CD56" stroke-width="0.75" stroke-miterlimit="10" stroke-linecap="round" stroke-linejoin="round"/>
<path d="M101.85 99.4794C101.866 99.4689 100.834 103.455 97.0002 107.981C93.1743 112.473 89.8834 115.775 89.8854 115.792" stroke="#D6CD56" stroke-width="0.75" stroke-miterlimit="10" stroke-linecap="round" stroke-linejoin="round"/>
<path d="M109.807 84.8773C109.884 84.8891 108.871 88.6698 102.006 89.0911C95.4036 89.5874 91.3728 85.1883 91.2662 85.1454C91.2365 85.1265 94.5593 82.3858 100.201 81.5642C105.822 80.7106 109.835 84.8671 109.807 84.8773Z" stroke="#D6CD56" stroke-width="0.75" stroke-miterlimit="10" stroke-linecap="round" stroke-linejoin="round"/>
<path d="M109.807 84.8789C109.823 84.889 106.145 86.3114 100.732 86.0352C95.3233 85.7688 91.2777 85.1474 91.2692 85.1484" stroke="#D6CD56" stroke-width="0.75" stroke-miterlimit="10" stroke-linecap="round" stroke-linejoin="round"/>
<path d="M116.158 69.5825C116.081 69.5828 112.5 71.9569 107.061 67.1428C101.389 62.3175 101.086 55.3534 101.184 55.373C101.177 55.3704 106.339 56.337 111.619 59.8672C116.982 63.4033 116.23 69.5966 116.158 69.5825Z" stroke="#D6CD56" stroke-width="0.75" stroke-miterlimit="10" stroke-linecap="round" stroke-linejoin="round"/>
<path d="M116.157 69.5825C116.127 69.5756 112.529 68.05 108.413 63.7055C104.245 59.3583 101.158 55.3759 101.184 55.373" stroke="#D6CD56" stroke-width="0.75" stroke-miterlimit="10" stroke-linecap="round" stroke-linejoin="round"/>
<path d="M109.036 100.32C109.008 100.351 112.827 100.902 113.63 107.221C114.318 113.654 109.891 117.707 109.957 117.67C109.973 117.639 107.596 114.167 106.373 109.1C105.154 103.957 109.025 100.292 109.036 100.32Z" stroke="#D6CD56" stroke-width="0.75" stroke-miterlimit="10" stroke-linecap="round" stroke-linejoin="round"/>
<path d="M109.036 100.319C109.022 100.334 110.649 103.541 110.665 108.564C110.68 113.602 109.956 117.672 109.958 117.668" stroke="#D6CD56" stroke-width="0.75" stroke-miterlimit="10" stroke-linecap="round" stroke-linejoin="round"/>
<path d="M120.652 88.0929C120.632 88.1141 123.472 88.5246 124.069 93.2258C124.58 98.0094 121.289 101.022 121.339 100.996C121.351 100.975 119.58 98.3885 118.67 94.6242C117.761 90.7994 120.643 88.0733 120.652 88.0929Z" stroke="#D6CD56" stroke-width="0.75" stroke-miterlimit="10" stroke-linecap="round" stroke-linejoin="round"/>
<path d="M120.652 88.094C120.645 88.1035 121.85 90.4885 121.865 94.2283C121.874 97.974 121.338 101 121.338 101" stroke="#D6CD56" stroke-width="0.75" stroke-miterlimit="10" stroke-linecap="round" stroke-linejoin="round"/>
<path d="M117.08 82.6836C117.08 82.6836 116.141 84.3007 109.42 84.9777" stroke="#D6CD56" stroke-width="0.75" stroke-miterlimit="10" stroke-linecap="round" stroke-linejoin="round"/>
<path d="M128.696 75.9619C128.696 75.9619 122.61 75.2085 116.484 69.6844" stroke="#D6CD56" stroke-width="0.75" stroke-miterlimit="10" stroke-linecap="round" stroke-linejoin="round"/>
<path d="M125.002 77.6367C125.002 77.6367 120.398 81.9392 120.759 87.8287" stroke="#D6CD56" stroke-width="0.75" stroke-miterlimit="10" stroke-linecap="round" stroke-linejoin="round"/>
<g opacity="0.5">
<path d="M80.113 137.834C80.325 138.404 80.8801 138.692 81.5293 138.899C82.3305 139.215 82.6637 139.162 82.3699 137.597C81.963 136.007 80.8724 135.871 80.5781 136.142C79.9656 136.583 79.9275 137.359 80.113 137.834Z" fill="#D6CD56"/>
<path d="M83.24 142.791C83.452 143.361 84.007 143.649 84.6563 143.856C85.4575 144.172 85.7907 144.119 85.4969 142.554C85.0936 140.965 83.9994 140.828 83.705 141.099C83.0962 141.542 83.058 142.318 83.24 142.791Z" fill="#D6CD56"/>
<path d="M84.7582 138.084C84.9702 138.654 85.5266 138.938 86.1758 139.145C86.977 139.461 87.3102 139.408 87.0164 137.843C86.6095 136.253 85.5189 136.117 85.2246 136.388C84.6144 136.834 84.5762 137.61 84.7582 138.084Z" fill="#D6CD56"/>
<path d="M87.8493 143.994C88.0614 144.564 88.6164 144.852 89.2656 145.059C90.0669 145.376 90.4 145.322 90.1063 143.757C89.6994 142.167 88.6087 142.031 88.3144 142.302C87.7055 142.745 87.6674 143.521 87.8493 143.994Z" fill="#D6CD56"/>
<path d="M85.6 148.806C85.812 149.376 86.3684 149.66 87.0176 149.868C87.8188 150.184 88.152 150.13 87.8582 148.565C87.4513 146.976 86.3607 146.839 86.0664 147.111C85.4549 147.56 85.4131 148.335 85.6 148.806Z" fill="#D6CD56"/>
<path d="M78.0325 142.433C78.2445 143.003 78.8009 143.287 79.4488 143.498C80.2501 143.814 80.5832 143.76 80.2894 142.196C79.8839 140.602 78.7919 140.469 78.4976 140.741C77.8887 141.183 77.8506 141.959 78.0325 142.433Z" fill="#D6CD56"/>
<path d="M79.989 147.176C80.201 147.746 80.7573 148.03 81.4102 148.239C82.2114 148.555 82.5446 148.501 82.2508 146.937C81.8439 145.347 80.7497 145.209 80.4589 145.482C79.8452 145.927 79.807 146.703 79.989 147.176Z" fill="#D6CD56"/>
<path d="M67.9841 140.572C68.1961 141.142 68.7512 141.43 69.4004 141.638C70.2016 141.954 70.5348 141.9 70.241 140.335C69.8341 138.745 68.7435 138.609 68.4492 138.881C67.8403 139.323 67.8021 140.099 67.9841 140.572Z" fill="#D6CD56"/>
<path d="M71.1111 145.529C71.3231 146.099 71.8781 146.387 72.5274 146.595C73.3286 146.911 73.6618 146.857 73.368 145.292C72.9611 143.702 71.8669 143.565 71.5761 143.838C70.9673 144.28 70.9291 145.056 71.1111 145.529Z" fill="#D6CD56"/>
<path d="M72.629 140.821C72.841 141.391 73.396 141.679 74.0488 141.888C74.8501 142.204 75.1832 142.15 74.8895 140.585C74.4826 138.995 73.3883 138.858 73.0976 139.131C72.4851 139.571 72.447 140.348 72.629 140.821Z" fill="#D6CD56"/>
<path d="M75.7243 146.729C75.9364 147.299 76.4914 147.586 77.1406 147.794C77.9419 148.11 78.275 148.056 77.9813 146.491C77.5744 144.902 76.4837 144.765 76.1894 145.037C75.5756 145.481 75.5375 146.257 75.7243 146.729Z" fill="#D6CD56"/>
<path d="M73.4707 151.544C73.6828 152.114 74.2378 152.401 74.8906 152.61C75.6919 152.926 76.025 152.872 75.7313 151.308C75.3244 149.718 74.2301 149.58 73.9394 149.853C73.3269 150.294 73.2888 151.07 73.4707 151.544Z" fill="#D6CD56"/>
<path d="M65.9044 145.169C66.1164 145.739 66.6715 146.027 67.3207 146.235C68.122 146.551 68.4587 146.498 68.1613 144.932C67.7545 143.342 66.6638 143.206 66.3695 143.478C65.7606 143.92 65.7225 144.696 65.9044 145.169Z" fill="#D6CD56"/>
<path d="M67.863 149.912C68.075 150.482 68.6301 150.77 69.2793 150.977C70.0805 151.294 70.4137 151.24 70.1199 149.675C69.713 148.085 68.6224 147.949 68.3281 148.22C67.7156 148.661 67.6775 149.437 67.863 149.912Z" fill="#D6CD56"/>
<path d="M77.9822 152.565C78.1942 153.134 78.7492 153.422 79.3985 153.63C80.1997 153.946 80.5328 153.892 80.2391 152.327C79.8322 150.738 78.7415 150.601 78.4472 150.873C77.8347 151.314 77.7966 152.09 77.9822 152.565Z" fill="#D6CD56"/>
<path d="M81.1094 157.52C81.3214 158.09 81.8765 158.378 82.5293 158.587C83.3305 158.903 83.6637 158.849 83.3699 157.284C82.963 155.695 81.8688 155.557 81.5781 155.83C80.9656 156.271 80.9275 157.047 81.1094 157.52Z" fill="#D6CD56"/>
<path d="M82.6276 152.813C82.8396 153.383 83.3947 153.67 84.0488 153.876C84.8501 154.192 85.1832 154.138 84.8895 152.573C84.4826 150.984 83.3883 150.846 83.0976 151.119C82.4838 151.563 82.4457 152.339 82.6276 152.813Z" fill="#D6CD56"/>
<path d="M85.7191 158.724C85.9311 159.294 86.4875 159.578 87.1367 159.786C87.938 160.102 88.2711 160.048 87.9773 158.483C87.5705 156.894 86.4798 156.757 86.1855 157.029C85.5753 157.475 85.5372 158.251 85.7191 158.724Z" fill="#D6CD56"/>
<path d="M83.4704 163.537C83.6824 164.107 84.2375 164.395 84.8867 164.602C85.688 164.919 86.0211 164.865 85.7273 163.3C85.3205 161.71 84.2298 161.574 83.9355 161.845C83.323 162.286 83.2836 163.066 83.4704 163.537Z" fill="#D6CD56"/>
<path d="M75.903 157.161C76.115 157.731 76.6701 158.018 77.3242 158.224C78.1255 158.54 78.4586 158.486 78.1648 156.921C77.758 155.331 76.6637 155.194 76.373 155.467C75.7592 155.911 75.7211 156.687 75.903 157.161Z" fill="#D6CD56"/>
<path d="M77.8572 161.904C78.0692 162.474 78.6242 162.762 79.2735 162.97C80.0747 163.286 80.4078 163.232 80.1141 161.667C79.7072 160.077 78.6166 159.941 78.3222 160.213C77.7133 160.655 77.6752 161.431 77.8572 161.904Z" fill="#D6CD56"/>
<path d="M65.5095 155.752C65.7215 156.322 66.2766 156.61 66.9258 156.817C67.727 157.133 68.0602 157.08 67.7664 155.515C67.3595 153.925 66.2689 153.789 65.9746 154.06C65.3657 154.502 65.3275 155.279 65.5095 155.752Z" fill="#D6CD56"/>
<path d="M68.6407 160.712C68.8527 161.282 69.4077 161.569 70.0606 161.778C70.8618 162.094 71.195 162.04 70.9012 160.476C70.4943 158.886 69.4001 158.748 69.1093 159.021C68.4969 159.462 68.4587 160.238 68.6407 160.712Z" fill="#D6CD56"/>
<path d="M70.1589 156C70.3709 156.57 70.9273 156.854 71.5801 157.063C72.3813 157.379 72.7145 157.326 72.4207 155.761C72.0138 154.171 70.9196 154.033 70.6289 154.306C70.0151 154.751 69.9756 155.531 70.1589 156Z" fill="#D6CD56"/>
<path d="M73.2504 161.912C73.4624 162.482 74.0188 162.766 74.668 162.974C75.4692 163.29 75.8024 163.236 75.5086 161.671C75.1017 160.081 74.0111 159.945 73.7168 160.217C73.1066 160.662 73.0684 161.438 73.2504 161.912Z" fill="#D6CD56"/>
<path d="M89.2204 153.119C89.4324 153.689 89.9888 153.973 90.6367 154.184C91.438 154.501 91.7711 154.447 91.4773 152.882C91.0705 151.292 89.9762 151.155 89.6855 151.427C89.0753 151.873 89.0372 152.649 89.2204 153.119Z" fill="#D6CD56"/>
<path d="M62.1384 150.248C62.3504 150.818 62.9068 151.102 63.5547 151.313C64.3559 151.629 64.6891 151.576 64.3953 150.011C63.9884 148.421 62.8978 148.285 62.6035 148.556C61.9933 149.002 61.9564 149.775 62.1384 150.248Z" fill="#D6CD56"/>
<path d="M77.5193 166.885C77.7313 167.455 78.2863 167.742 78.9356 167.95C79.7368 168.266 80.07 168.212 79.7762 166.648C79.3693 165.058 78.2787 164.922 77.9843 165.193C77.3755 165.635 77.3373 166.411 77.5193 166.885Z" fill="#D6CD56"/>
<path d="M92.6036 148.559C92.8156 149.129 93.3706 149.417 94.0235 149.626C94.8247 149.942 95.1578 149.888 94.8641 148.323C94.4572 146.734 93.3666 146.597 93.0722 146.869C92.4597 147.31 92.4216 148.086 92.6036 148.559Z" fill="#D6CD56"/>
<path d="M73.4727 135.833C73.6847 136.403 74.2398 136.69 74.8926 136.899C75.6938 137.215 76.027 137.162 75.7332 135.597C75.3263 134.007 74.2321 133.869 73.9414 134.142C73.3253 134.582 73.2871 135.358 73.4727 135.833Z" fill="#D6CD56"/>
<path d="M74.6954 170.93C74.9074 171.5 75.4624 171.788 76.1153 171.997C76.9165 172.313 77.2496 172.259 76.9559 170.694C76.549 169.105 75.4548 168.967 75.164 169.24C74.5466 169.683 74.5085 170.459 74.6954 170.93Z" fill="#D6CD56"/>
<path d="M70.9981 166.723C71.2101 167.293 71.7652 167.581 72.418 167.79C73.2192 168.106 73.5524 168.052 73.2586 166.487C72.8517 164.898 71.7575 164.76 71.4668 165.033C70.8543 165.474 70.8148 166.254 70.9981 166.723Z" fill="#D6CD56"/>
<path d="M63.4343 160.352C63.6463 160.922 64.2027 161.206 64.8555 161.415C65.6567 161.731 65.9899 161.677 65.6961 160.112C65.2892 158.523 64.195 158.385 63.9043 158.658C63.2905 159.102 63.2523 159.879 63.4343 160.352Z" fill="#D6CD56"/>
<path d="M65.3884 165.092C65.6004 165.662 66.1555 165.949 66.8047 166.157C67.6059 166.473 67.9391 166.419 67.6453 164.855C67.2384 163.265 66.1478 163.129 65.8535 163.4C65.2446 163.842 65.2051 164.622 65.3884 165.092Z" fill="#D6CD56"/>
</g>
</svg>
