<svg width="97" height="66" viewBox="0 0 97 66" fill="none" xmlns="http://www.w3.org/2000/svg">
<path d="M0.00108663 29.0781C0.00108663 29.0781 19.2067 44.4593 36.0429 35.8851C42.8331 32.4231 50.7216 30.0482 57.4004 29.4684" stroke="#D6CD56" stroke-width="0.75" stroke-miterlimit="10" stroke-linecap="round" stroke-linejoin="round"/>
<path d="M57.1314 29.5564C57.1537 29.5619 57.176 28.6755 63.0798 33.5201C69.0952 38.3814 68.4373 39.318 77.1621 39.2233C85.9593 39.1062 93.5746 44.0957 95.9941 42.4065C96.0053 42.4177 92.4206 39.279 85.4687 33.8435C78.4722 28.4358 71.314 28.971 66.2966 28.9654C61.2513 28.971 57.137 29.5564 57.1314 29.5564Z" stroke="#D6CD56" stroke-width="0.75" stroke-miterlimit="10" stroke-linecap="round" stroke-linejoin="round"/>
<path d="M57.1317 29.5547C57.154 29.5547 62.0098 30.8035 69.9875 32.7937C78.0767 34.7895 77.8815 34.2488 83.7575 36.7686C89.6892 39.2829 95.9944 42.4049 96 42.4049" stroke="#D6CD56" stroke-width="0.75" stroke-miterlimit="10" stroke-linecap="round" stroke-linejoin="round"/>
<path d="M47.5434 35.3895C47.5322 35.3951 47.928 34.6537 52.1928 41.2655C56.4353 47.9052 55.4486 48.5798 63.5656 51.6014C71.7775 54.5895 76.5162 61.4634 79.3594 60.6885C79.3482 60.6941 77.5698 56.7693 73.344 49.6502C69.0346 42.5645 61.7594 40.4571 56.8423 38.5115C51.8639 36.5937 47.5434 35.3895 47.5434 35.3895Z" stroke="#D6CD56" stroke-width="0.75" stroke-miterlimit="10" stroke-linecap="round" stroke-linejoin="round"/>
<path d="M47.5433 35.3906C47.5489 35.3906 52.1315 38.5349 59.1001 43.2624C66.1022 47.9955 66.0911 47.4101 70.5733 51.6694C75.0778 55.923 79.3649 60.684 79.3594 60.6896" stroke="#D6CD56" stroke-width="0.75" stroke-miterlimit="10" stroke-linecap="round" stroke-linejoin="round"/>
<path d="M47.1701 23.3247C47.1979 23.3247 46.7854 22.6724 53.4307 20.7156C60.0648 18.77 60.9289 19.8125 65.1937 12.8829C69.0014 5.98114 75.2732 3.65639 74.2697 0.941406C74.2976 0.941406 70.3784 1.57137 63.9561 3.22154C57.7568 4.85499 55.7721 10.7923 52.8286 15.0348C50.1136 19.2606 47.1756 23.3247 47.1701 23.3247Z" stroke="#D6CD56" stroke-width="0.6512" stroke-miterlimit="10" stroke-linecap="round" stroke-linejoin="round"/>
<path d="M47.1699 23.3247C47.1364 23.3247 51.6521 19.7289 57.1099 14.5163C62.434 9.30935 61.7204 9.1867 65.857 6.32677C69.9044 3.46684 74.2584 0.941406 74.2695 0.941406" stroke="#D6CD56" stroke-width="0.6512" stroke-miterlimit="10" stroke-linecap="round" stroke-linejoin="round"/>
<path d="M16.1521 37.4021C16.1298 37.4132 16.6148 36.7108 20.3779 43.6181C24.0907 50.5589 23.0594 51.1666 30.8587 54.8795C38.7472 58.5589 42.7221 65.784 45.582 65.2321C45.5653 65.2432 44.2329 61.1679 40.743 53.7589C37.1695 46.3833 30.067 43.7073 25.2838 41.338C20.4392 39.0077 16.1521 37.4021 16.1521 37.4021Z" stroke="#D6CD56" stroke-width="0.75" stroke-miterlimit="10" stroke-linecap="round" stroke-linejoin="round"/>
<path d="M16.1521 37.4023C16.1576 37.4023 20.5618 40.9313 27.1346 46.2274C33.7186 51.5236 33.7465 50.9382 37.7995 55.5431C41.8636 60.1424 45.582 65.2323 45.582 65.2379" stroke="#D6CD56" stroke-width="0.75" stroke-miterlimit="10" stroke-linecap="round" stroke-linejoin="round"/>
<path d="M36.6937 35.5604C36.6937 35.5604 44.0303 33.9659 47.877 35.683" stroke="#D6CD56" stroke-width="0.75" stroke-miterlimit="10" stroke-linecap="round" stroke-linejoin="round"/>
<path d="M30.4616 37.892C30.4616 37.892 40.6748 32.6572 47.6602 22.7227" stroke="#D6CD56" stroke-width="0.75" stroke-miterlimit="10" stroke-linecap="round" stroke-linejoin="round"/>
</svg>
