<svg width="377" height="223" viewBox="0 0 377 223" fill="none" xmlns="http://www.w3.org/2000/svg">
<path d="M352.51 222.037L22.626 222.09C10.1648 222.09 0.0564709 212.644 0.0564709 201L0 21.1431C0 9.49855 10.1083 0.0527697 22.5696 0.0527697L352.454 0C365.988 0 376.944 10.2373 376.962 22.8845L377 199.135C377 211.782 366.026 222.037 352.51 222.037Z" fill="#044236"/>
<g opacity="0.2">
<path opacity="0.6" d="M0.0175781 131.986L377.001 18.75V46.1707L0.0364037 169.414L0.0175781 131.986Z" fill="#D0C754"/>
</g>
<g opacity="0.2">
<path opacity="0.6" d="M223.789 0.0703125L261.904 85.3048L303.448 222.092L336.128 222.074L270.751 63.6708L253.057 0.0703125H223.789Z" fill="#D0C754"/>
</g>
<path d="M51.9932 185.512H56.2497V193.673C54.0335 195.344 50.9907 196.223 48.1237 196.223C41.8094 196.223 37.1484 191.897 37.1484 185.828C37.1484 179.778 41.7918 175.434 48.2117 175.434C51.747 175.434 54.6667 176.647 56.6191 178.899L53.629 181.66C52.1691 180.112 50.463 179.391 48.4228 179.391C44.5181 179.391 41.8446 182.012 41.8446 185.828C41.8446 189.592 44.5181 192.266 48.37 192.266C49.6364 192.266 50.8148 192.037 51.9932 191.404V185.512Z" fill="white"/>
<path d="M60.5586 175.785H65.202V195.889H60.5586V175.785Z" fill="white"/>
<path d="M74.6297 179.512V184.824H83.9341V188.553H74.6297V195.869H69.9863V175.766H85.1829V179.494L74.6297 179.512Z" fill="white"/>
<path d="M92.6406 179.565H86.2031V175.766H103.721V179.565H97.284V195.869H92.6406V179.565Z" fill="white"/>
<path d="M113.553 185.83C113.553 179.973 118.003 175.629 123.965 175.629C126.815 175.629 129.365 176.544 131.124 178.408L130.209 179.358C128.485 177.669 126.392 176.983 124.036 176.983C118.9 176.983 115.013 180.782 115.013 185.83C115.013 190.878 118.9 194.677 124.036 194.677C126.392 194.677 128.485 193.956 130.209 192.268L131.124 193.218C129.383 195.082 126.815 196.032 123.983 196.032C118.003 196.014 113.553 191.687 113.553 185.83Z" fill="white"/>
<path d="M147.922 190.206H136.26L133.71 195.869H132.127L141.361 175.766H142.821L152.072 195.869H150.489L147.922 190.206ZM147.376 188.975L142.1 177.366L136.841 188.975H147.376Z" fill="white"/>
<path d="M169.696 195.854L164.894 189.135C164.261 189.223 163.628 189.276 162.942 189.276H157.19V195.854H155.73V175.75H162.942C167.99 175.75 171.05 178.265 171.05 182.522C171.05 185.705 169.326 187.921 166.336 188.818L171.367 195.854H169.696ZM162.942 187.992C167.251 187.992 169.538 185.987 169.555 182.539C169.555 179.057 167.251 177.087 162.942 177.087H157.208V187.992H162.942Z" fill="white"/>
<path d="M176.414 175.766H184.364C190.731 175.766 195.04 179.952 195.04 185.809C195.04 191.666 190.731 195.869 184.364 195.869H176.414V175.766ZM184.259 194.533C189.94 194.533 193.598 190.909 193.598 185.809C193.598 180.69 189.94 177.085 184.259 177.085H177.874V194.55L184.259 194.533Z" fill="white"/>
<path d="M251.666 64.1322C245.633 66.0845 239.073 65.4514 232.899 64.0267C226.725 62.5844 220.763 60.3682 214.554 59.1194C199.428 56.059 183.176 59.0491 170.125 67.2982C169.51 67.6851 168.859 68.1424 168.595 68.8284C168.296 69.6023 168.595 70.4817 168.876 71.2556C175.314 88.9146 181.769 106.574 188.206 124.215C188.875 126.027 189.631 127.979 191.249 129.052C193.571 130.582 196.649 129.738 199.27 128.823C207.712 125.868 216.119 122.614 223.753 117.953C231.386 113.275 238.246 107.084 242.573 99.2391C244.596 95.5807 246.02 91.6232 248.166 88.0352C250.294 84.4471 253.319 81.1404 257.294 79.8565L251.666 64.1322Z" fill="#D6CD56"/>
<path d="M362.121 73.3838C356.334 50.6769 350.495 27.8468 341.085 6.37109C325.748 7.2857 311.888 15.9217 300.473 26.2111C289.058 36.5004 279.401 48.6014 267.846 58.7325L269.358 75.2482C273.65 73.1903 278.663 73.12 283.324 74.0346C287.985 74.9492 292.399 76.796 296.849 78.5021C307.016 82.4068 317.569 85.6079 328.439 86.2763C339.308 86.9446 350.565 84.9395 359.746 79.0825C360.872 78.3614 362.05 77.4644 362.385 76.1628C362.578 75.2658 362.349 74.2984 362.121 73.3838Z" fill="#D6CD56"/>
<g opacity="0.3">
<g opacity="0.3">
<path opacity="0.3" d="M251.666 64.1322C245.633 66.0845 239.073 65.4514 232.899 64.0267C226.725 62.5844 220.763 60.3682 214.554 59.1194C199.428 56.059 183.176 59.0491 170.125 67.2982C169.51 67.6851 168.859 68.1424 168.595 68.8284C168.296 69.6023 168.595 70.4817 168.876 71.2556C175.314 88.9146 181.769 106.574 188.206 124.215C188.875 126.027 189.631 127.979 191.249 129.052C193.571 130.582 196.649 129.738 199.27 128.823C207.712 125.868 216.119 122.614 223.753 117.953C231.386 113.275 238.246 107.084 242.573 99.2391C244.596 95.5807 246.02 91.6232 248.166 88.0352C250.294 84.4471 253.319 81.1404 257.294 79.8565L251.666 64.1322Z" fill="black"/>
</g>
</g>
<path d="M251.666 64.128C251.666 64.128 251.806 64.4446 252.053 65.0954C252.317 65.8165 252.686 66.8015 253.178 68.0678C254.181 70.7765 255.623 74.6988 257.488 79.7467L257.576 79.9578L257.347 80.0281C254.849 80.8372 252.405 82.6664 250.417 85.1992C248.377 87.7143 246.846 90.9507 245.281 94.4156C243.733 97.8982 241.834 101.609 239.125 105.039C236.452 108.487 233.127 111.705 229.311 114.59C221.66 120.429 212.039 124.703 201.714 128.362C199.146 129.206 196.508 130.508 193.465 130.244C191.97 130.103 190.475 129.259 189.578 128.028C188.663 126.796 188.171 125.389 187.678 124.052C185.708 118.653 183.686 113.13 181.645 107.519C178.638 99.2525 175.683 91.1793 172.851 83.3875C171.426 79.4829 170.037 75.6661 168.665 71.9022C168.366 71.0051 167.803 69.9674 168.155 68.7362C168.595 67.5226 169.668 67.0477 170.459 66.5552C172.13 65.5351 173.836 64.5853 175.56 63.7586C182.472 60.3992 189.631 58.5172 196.42 57.8664C203.209 57.1805 209.611 57.6906 215.275 58.9042C220.938 60.153 225.863 61.9118 230.278 63.0727C234.675 64.2863 238.562 64.9547 241.781 65.113C244.982 65.2888 247.48 64.9898 249.133 64.6732C250.786 64.3742 251.683 64.0752 251.666 64.128C251.666 64.1456 251.437 64.2159 251.033 64.3566C250.646 64.4974 250.012 64.6732 249.186 64.8667C247.532 65.2361 245.017 65.6054 241.781 65.4823C238.545 65.3768 234.605 64.7612 230.172 63.5827C225.723 62.4571 220.78 60.751 215.169 59.5549C209.559 58.3765 203.227 57.9192 196.525 58.6403C189.824 59.3263 182.754 61.2083 175.964 64.5325C174.258 65.3592 172.587 66.2914 170.934 67.3115C170.107 67.804 169.228 68.2965 168.999 69.0352C168.771 69.7739 169.157 70.6885 169.509 71.6383C170.881 75.3847 172.288 79.219 173.713 83.1061C176.562 90.8979 179.517 98.9711 182.525 107.238C184.565 112.849 186.588 118.371 188.558 123.771C189.05 125.125 189.525 126.445 190.334 127.517C191.108 128.59 192.304 129.259 193.606 129.399C196.262 129.663 198.882 128.45 201.45 127.588C211.74 123.947 221.29 119.743 228.871 114.009C232.652 111.178 235.942 108.012 238.597 104.635C241.288 101.275 243.153 97.6695 244.736 94.187C246.336 90.722 247.919 87.4505 250.03 84.8826C252.105 82.297 254.656 80.4327 257.259 79.6236L257.118 79.905C255.377 74.8746 254.023 70.9524 253.09 68.2613C252.651 66.9598 252.299 65.9396 252.053 65.2009C251.771 64.5149 251.666 64.128 251.666 64.128Z" fill="#263238"/>
<g opacity="0.3">
<g opacity="0.3">
<path opacity="0.3" d="M362.121 73.3838C356.334 50.6769 350.495 27.8468 341.085 6.37109C325.748 7.2857 311.888 15.9217 300.473 26.2111C289.058 36.5004 279.401 48.6014 267.846 58.7325L269.358 75.2482C273.65 73.1903 278.663 73.12 283.324 74.0346C287.985 74.9492 292.399 76.796 296.849 78.5021C307.016 82.4068 317.569 85.6079 328.439 86.2763C339.308 86.9446 350.565 84.9395 359.746 79.0825C360.872 78.3614 362.05 77.4644 362.385 76.1628C362.578 75.2658 362.349 74.2984 362.121 73.3838Z" fill="black"/>
</g>
</g>
<path d="M362.123 73.3841C362.123 73.3841 362.422 73.9997 362.528 75.2836C362.563 75.9168 362.387 76.7787 361.771 77.535C361.173 78.2913 360.259 78.9421 359.221 79.5577C355.105 82.1784 348.421 85.2036 339.469 86.2589C330.551 87.4198 319.559 86.2765 307.897 82.706C304.978 81.8266 302.005 80.8241 298.98 79.716C295.955 78.6079 292.912 77.3415 289.746 76.251C286.58 75.1605 283.273 74.2283 279.808 73.9645C276.378 73.7007 272.755 74.0876 269.554 75.6354L268.991 75.9168L268.938 75.2836C268.446 70.0246 267.936 64.4666 267.408 58.7679L267.391 58.5392L267.566 58.3809C273.019 53.5968 278.278 48.1444 283.59 42.516C292.314 33.282 300.879 24.2414 310.588 17.5929C320.174 10.874 330.833 6.54723 341.069 5.96681L341.351 5.94922L341.456 6.19546C349.811 25.6133 354.296 42.7095 357.497 54.5818C359.063 60.5444 360.223 65.2405 360.997 68.4417C361.367 70.007 361.666 71.2383 361.877 72.1001C361.965 72.487 362.035 72.8036 362.088 73.0499C362.105 73.2785 362.123 73.3841 362.123 73.3841C362.105 73.3841 362.07 73.2785 362.017 73.0675C361.947 72.8212 361.859 72.5222 361.754 72.1353C361.525 71.2734 361.191 70.0598 360.769 68.4944C359.907 65.2581 358.64 60.5971 357.057 54.7049C353.733 42.8678 349.143 25.842 340.753 6.51206L341.14 6.74071C331.079 7.33872 320.596 11.6303 311.116 18.2964C301.53 24.9098 293 33.8976 284.276 43.1316C278.946 48.76 273.67 54.2476 268.182 59.0493L268.34 58.6624C268.85 64.3611 269.361 69.9191 269.835 75.1781L269.202 74.8263C272.597 73.2082 276.361 72.8212 279.896 73.1026C283.467 73.3841 286.844 74.3514 290.027 75.4595C293.228 76.5852 296.254 77.8516 299.261 78.9597C302.269 80.0853 305.224 81.0879 308.126 81.9849C319.717 85.5906 330.569 86.7866 339.416 85.7137C348.298 84.7463 354.947 81.8266 359.08 79.3114C360.135 78.7134 361.033 78.0978 361.613 77.3943C362.211 76.6907 362.404 75.9168 362.387 75.2836C362.316 74.0348 362.07 73.4016 362.123 73.3841Z" fill="#263238"/>
<path d="M259.897 83.0234C259.897 83.0234 255.782 84.0612 253.372 96.0742C250.962 108.087 248.605 163.14 248.605 163.14L301.846 172.866L272.086 83.7094L259.897 83.0234Z" fill="#D6CD56"/>
<path d="M275.568 81.596L311.009 138.056L335.282 101.19C335.282 101.19 298.557 73.7867 276.782 76.1084L275.568 81.596Z" fill="#D6CD56"/>
<g opacity="0.3">
<path opacity="0.3" d="M259.897 83.0234C259.897 83.0234 255.782 84.0612 253.372 96.0742C250.962 108.087 248.605 163.14 248.605 163.14L301.846 172.866L272.086 83.7094L259.897 83.0234Z" fill="black"/>
</g>
<g opacity="0.3">
<path opacity="0.3" d="M275.568 81.596L311.009 138.056L335.282 101.19C335.282 101.19 298.557 73.7867 276.782 76.1084L275.568 81.596Z" fill="black"/>
</g>
<path d="M259.898 83.0249C259.898 83.0073 260.161 83.0073 260.672 83.0249C261.234 83.0425 262.008 83.0777 262.993 83.1129C265.104 83.2008 268.147 83.3415 272.104 83.535H272.245L272.298 83.6581C277.82 99.7693 289.042 133.082 302.304 172.727L302.55 173.448L301.794 173.307C297.045 172.446 292.032 171.531 286.949 170.599C273.441 168.119 260.443 165.744 248.553 163.563L248.184 163.493L248.201 163.124C249.327 139.168 250.54 118.624 252.053 104.114C252.704 96.8496 254.093 91.0981 255.905 87.5276C256.802 85.7511 257.752 84.5024 258.561 83.8164C258.948 83.4646 259.3 83.2712 259.528 83.148C259.757 83.0425 259.898 83.0073 259.898 83.0249C259.898 83.0425 259.775 83.0777 259.546 83.2184C259.335 83.3591 259.001 83.5702 258.631 83.9395C257.875 84.6255 256.978 85.8743 256.134 87.6683C254.428 91.2388 253.126 96.9199 252.546 104.184C251.174 118.677 250.083 139.238 249.028 163.176L248.676 162.737C260.566 164.9 273.564 167.274 287.072 169.719C292.155 170.651 297.168 171.566 301.917 172.428L301.407 173.026C288.18 133.364 277.152 99.9804 271.893 83.7988L272.069 83.9395C268.129 83.6757 265.104 83.4822 262.993 83.3415C262.008 83.2712 261.234 83.2008 260.672 83.1656C260.161 83.0777 259.898 83.0425 259.898 83.0249Z" fill="#263238"/>
<path d="M275.569 81.596C275.552 81.596 275.569 81.4729 275.605 81.2442C275.657 80.9628 275.71 80.611 275.798 80.1889C275.992 79.1863 276.273 77.8144 276.625 76.0556L276.642 75.95L276.765 75.9324C282.007 75.2113 290.854 76.6888 301.143 81.0156C311.45 85.3248 323.34 92.0612 335.564 100.838L335.898 101.084L335.67 101.436C332.117 106.818 328.388 112.499 324.554 118.321C319.963 125.286 315.513 132.023 311.38 138.284L310.993 138.865L310.624 138.284C300.457 121.962 291.645 107.803 285.331 97.672C282.271 92.6768 279.808 88.6842 278.067 85.8524C277.258 84.5157 276.625 83.4604 276.167 82.6865C275.745 81.9829 275.552 81.6136 275.569 81.596C275.587 81.596 275.851 81.9653 276.326 82.6689C276.836 83.4428 277.504 84.4805 278.366 85.7997C280.16 88.5963 282.693 92.5713 285.876 97.5137C292.243 107.574 301.126 121.61 311.38 137.809H310.641C314.774 131.53 319.207 124.794 323.78 117.829C327.614 112.007 331.361 106.343 334.913 100.961L335.019 101.559C322.9 92.8175 311.063 86.0283 300.879 81.6663C290.696 77.2868 281.989 75.7038 276.801 76.2666L276.941 76.1435C276.537 77.8672 276.203 79.2039 275.974 80.1889C275.868 80.611 275.78 80.9628 275.71 81.2442C275.622 81.4729 275.587 81.596 275.569 81.596Z" fill="#263238"/>
<path d="M253.408 76.3236C253.444 76.4643 251.087 77.115 247.34 78.3111C243.594 79.5071 238.458 81.3011 232.935 83.658C227.412 86.0149 222.576 88.4949 219.128 90.3945C215.681 92.294 213.605 93.578 213.517 93.4549C213.482 93.4021 213.957 93.0152 214.872 92.382C215.769 91.7312 217.106 90.8694 218.794 89.8316C222.171 87.7738 227.008 85.1882 232.566 82.8138C238.124 80.4393 243.33 78.7332 247.147 77.6955C249.047 77.1678 250.612 76.7984 251.702 76.5698C252.793 76.3587 253.391 76.2708 253.408 76.3236Z" fill="#263238"/>
<path d="M251.069 70.7485C251.069 70.8892 248.818 71.0475 245.177 71.4169C241.536 71.8038 236.541 72.4722 231.106 73.6858C225.671 74.8994 220.834 76.3769 217.351 77.4498C213.851 78.5403 211.706 79.2262 211.653 79.1031C211.635 79.0504 212.145 78.8041 213.095 78.3996C214.045 77.995 215.417 77.4674 217.158 76.8342C220.605 75.5854 225.442 74.02 230.93 72.7888C236.418 71.5752 241.483 70.9948 245.142 70.7837C246.971 70.6782 248.466 70.643 249.486 70.6606C250.488 70.6606 251.069 70.6958 251.069 70.7485Z" fill="#263238"/>
<path d="M322.883 45.4567C322.9 45.615 320.086 45.8261 315.636 46.5648C311.186 47.3035 305.065 48.693 298.646 51.1906C292.226 53.7058 286.791 56.8366 283.062 59.3693C279.316 61.9021 277.17 63.7137 277.064 63.5906C277.029 63.5378 277.522 63.0454 278.471 62.2011C279.404 61.3393 280.846 60.1784 282.693 58.8417C286.369 56.1506 291.821 52.8791 298.311 50.3288C304.819 47.796 311.028 46.4945 315.548 45.914C317.8 45.615 319.646 45.4567 320.913 45.4215C322.162 45.3864 322.865 45.3864 322.883 45.4567Z" fill="#263238"/>
<path d="M321.352 61.4082C321.37 61.461 320.824 61.7248 319.804 62.1294C318.784 62.5339 317.289 63.0615 315.425 63.6596C311.696 64.8556 306.419 66.2451 300.492 67.1773C294.564 68.1095 289.13 68.4085 285.207 68.4085C283.237 68.4085 281.654 68.3557 280.564 68.2678C279.473 68.1974 278.858 68.1095 278.875 68.0567C278.875 67.916 281.303 67.916 285.207 67.7577C289.112 67.5994 294.494 67.1949 300.369 66.2627C306.243 65.3305 311.485 64.0641 315.249 63.0264C318.995 62.0062 321.299 61.2851 321.352 61.4082Z" fill="#263238"/>
<path d="M279.861 70.2854C279.034 67.1547 277.487 64.3053 275.728 61.5615C274.215 59.2046 273.547 56.7774 269.994 55.7396C267.233 55.0713 262.818 56.0738 260.918 58.2724C258.456 56.3201 254.78 57.8327 252.476 59.9609C250.172 62.0891 249.31 65.4662 249.697 68.5618C250.084 71.6749 251.561 74.5419 253.355 77.1098C255.958 80.8738 259.406 84.2332 263.662 85.8338C267.584 87.3112 271.911 86.7132 275.271 84.2156C279.808 80.8562 281.233 75.4741 279.861 70.2854Z" fill="#D6CD56"/>
<g opacity="0.3">
<g opacity="0.3">
<path opacity="0.3" d="M279.861 70.2854C279.034 67.1547 277.487 64.3053 275.728 61.5615C274.215 59.2046 273.547 56.7774 269.994 55.7396C267.233 55.0713 262.818 56.0738 260.918 58.2724C258.456 56.3201 254.78 57.8327 252.476 59.9609C250.172 62.0891 249.31 65.4662 249.697 68.5618C250.084 71.6749 251.561 74.5419 253.355 77.1098C255.958 80.8738 259.406 84.2332 263.662 85.8338C267.584 87.3112 271.911 86.7132 275.271 84.2156C279.808 80.8562 281.233 75.4741 279.861 70.2854Z" fill="black"/>
</g>
</g>
<path d="M279.861 70.2871C279.896 70.2871 280.002 70.6037 280.178 71.2368C280.301 71.87 280.529 72.8198 280.547 74.0862C280.635 76.5134 279.896 80.4885 276.519 83.6192C274.883 85.1495 272.615 86.4334 269.959 86.8556C267.32 87.3129 264.33 86.8204 261.692 85.3957C259.019 84.0414 256.626 81.9307 254.586 79.4507C252.581 76.9531 250.682 74.1214 249.714 70.7795C248.606 67.1035 249.186 62.8471 251.719 60.1032C253.003 58.7841 254.516 57.8167 256.204 57.2715C257.84 56.7262 259.845 56.8142 261.2 57.9398L260.637 57.9926C262.184 56.3393 264.242 55.6709 266.142 55.3191C268.041 54.9849 270.047 55.1081 271.63 55.9875C273.248 56.7966 274.25 58.274 274.954 59.558C275.64 60.8596 276.379 61.9852 276.994 63.0581C278.225 65.2039 278.982 67.0156 279.404 68.282C279.615 68.9151 279.738 69.4076 279.826 69.7418C279.861 70.0936 279.896 70.2695 279.861 70.2871C279.808 70.3046 279.615 69.6187 279.122 68.3875C278.63 67.1563 277.821 65.415 276.537 63.322C275.904 62.2842 275.112 61.1586 274.391 59.857C273.67 58.5906 272.738 57.3066 271.278 56.6031C269.836 55.8116 268.059 55.7413 266.247 56.0754C264.471 56.4096 262.536 57.1132 261.235 58.5379L260.971 58.8369L260.672 58.5906C259.564 57.6936 257.928 57.6057 256.451 58.0981C254.956 58.573 253.513 59.5052 252.37 60.7013C250.119 63.1637 249.538 67.0683 250.594 70.5333C251.491 73.6817 253.337 76.4607 255.29 78.8879C257.277 81.2975 259.564 83.3378 262.097 84.657C264.612 86.0289 267.356 86.5038 269.853 86.1168C272.351 85.7475 274.497 84.5866 276.097 83.1444C279.369 80.2246 280.178 76.4607 280.213 74.0862C280.213 71.6238 279.773 70.3046 279.861 70.2871Z" fill="#263238"/>
<path d="M260.654 84.4072C260.531 84.3193 261.428 83.0353 262.43 80.7488C263.433 78.4799 264.435 75.138 264.471 71.3741C264.506 67.5925 263.574 64.2331 262.624 61.9466C261.674 59.6424 260.812 58.3409 260.935 58.2529C261.023 58.1826 262.096 59.3786 263.222 61.6827C264.348 63.9692 265.438 67.4342 265.385 71.3741C265.35 75.3139 264.189 78.7613 263.011 81.0302C261.832 83.2992 260.724 84.46 260.654 84.4072Z" fill="#263238"/>
<path d="M277.046 63.6058C277.151 63.6058 277.292 65.0657 277.028 67.405C276.782 69.7443 276.061 72.963 274.495 76.2345C272.93 79.4884 270.819 82.0739 269.113 83.6745C267.39 85.2926 266.123 86.0313 266.07 85.961C265.842 85.7499 270.643 82.2498 273.669 75.8475C276.764 69.4628 276.729 63.5531 277.046 63.6058Z" fill="#263238"/>
<path d="M236.417 68.5126C236.4 68.583 235.503 68.4423 233.867 68.1608C232.073 67.8442 229.769 67.4221 226.99 66.9296C221.186 65.9095 213.148 64.5024 204.195 64.1682C195.225 63.834 187.134 65.0125 181.506 66.6834C178.691 67.4925 176.458 68.3367 174.945 68.9875C173.432 69.6207 172.606 70.0076 172.571 69.9373C172.553 69.8845 173.327 69.4096 174.804 68.6533C176.282 67.9146 178.498 66.9648 181.33 66.0502C186.976 64.2034 195.19 62.9018 204.23 63.236C213.288 63.5702 221.344 65.1004 227.131 66.2789C230.015 66.8769 232.354 67.4045 233.955 67.7915C235.556 68.2136 236.435 68.4599 236.417 68.5126Z" fill="white"/>
<path d="M228.272 77.3583C228.307 77.6222 225.211 78.185 221.465 79.0644C217.719 79.9439 214.711 80.8057 214.623 80.5595C214.535 80.3308 217.455 79.0644 221.254 78.1674C225.071 77.2704 228.254 77.1121 228.272 77.3583Z" fill="white"/>
<path d="M225.812 88.9324C225.935 89.1611 224.844 89.9877 223.367 90.7792C221.889 91.5883 220.605 92.0456 220.482 91.8346C220.359 91.6059 221.45 90.7792 222.927 89.9877C224.404 89.1787 225.688 88.7038 225.812 88.9324Z" fill="white"/>
<path d="M254.392 73.5627C254.304 73.633 253.688 72.9647 253.037 71.6807C252.404 70.3967 251.841 68.4092 251.877 66.193C251.912 63.9769 252.545 62.0245 253.231 60.7406C253.917 59.4566 254.55 58.841 254.638 58.8937C254.884 59.0345 252.826 61.9718 252.791 66.193C252.668 70.4143 254.638 73.4396 254.392 73.5627Z" fill="white"/>
<path d="M266.738 75.1271C266.475 75.0744 266.721 73.2979 266.598 71.1169C266.51 68.9535 266.088 67.1947 266.334 67.1243C266.563 67.0364 267.407 68.7601 267.512 71.0818C267.636 73.4035 266.967 75.1975 266.738 75.1271Z" fill="white"/>
<path d="M300.28 31.9432C300.456 32.1367 295.25 37.1495 288.654 43.1472C282.058 49.1449 276.588 53.8587 276.413 53.6652C276.237 53.4717 281.443 48.459 288.039 42.4613C294.634 36.4635 300.122 31.7498 300.28 31.9432Z" fill="white"/>
<path d="M292.947 56.2288C293.07 56.4398 291.452 57.6359 289.323 58.9023C287.195 60.1686 285.366 61.0129 285.243 60.7842C285.12 60.5732 286.738 59.3771 288.866 58.1108C290.977 56.8444 292.806 56.0001 292.947 56.2288Z" fill="white"/>
<path d="M256.59 106.517C256.361 106.552 255.622 101.979 256.308 96.3509C256.959 90.7226 258.771 86.4485 258.982 86.5365C259.246 86.6244 257.856 90.9336 257.223 96.4565C256.537 101.979 256.854 106.5 256.59 106.517Z" fill="white"/>
<path d="M292.839 100.192C292.628 100.315 290.676 97.3071 288.477 93.4728C286.296 89.6385 284.695 86.4373 284.924 86.2966C285.135 86.1735 287.087 89.1812 289.286 93.0155C291.467 96.8498 293.068 100.051 292.839 100.192Z" fill="white"/>
</svg>
