<svg width="255" height="270" viewBox="0 0 255 270" fill="none" xmlns="http://www.w3.org/2000/svg">
<path d="M108.83 221.355C108.83 221.355 120.309 185.809 148.812 182.6C160.31 181.31 172.292 177.725 181.24 172.877" stroke="#D6CD56" stroke-width="0.75" stroke-miterlimit="10" stroke-linecap="round" stroke-linejoin="round"/>
<path d="M180.827 172.989C180.851 172.964 181.62 174.068 185.051 162.994C188.61 151.805 186.993 151.168 198.129 143.994C209.374 136.789 214.853 124.1 219.331 124.217C219.336 124.194 217.418 131.168 213.152 143.868C208.807 156.569 199.288 161.875 192.935 166.076C186.537 170.287 180.834 172.985 180.827 172.989Z" stroke="#D6CD56" stroke-width="0.75" stroke-miterlimit="10" stroke-linecap="round" stroke-linejoin="round"/>
<path d="M180.828 172.989C180.856 172.97 185.966 167.329 194.411 158.137C202.993 148.846 203.198 149.694 208.538 141.589C213.952 133.444 219.333 124.217 219.34 124.212" stroke="#D6CD56" stroke-width="0.75" stroke-miterlimit="10" stroke-linecap="round" stroke-linejoin="round"/>
<path d="M163.803 173.612C163.784 173.614 164.905 174.223 164.782 162.279C164.608 150.319 162.794 150.289 170.554 139.674C178.462 129.023 178.72 116.351 182.971 114.956C182.952 114.958 183.979 121.418 184.576 133.972C185.038 146.554 177.581 155.306 172.976 161.882C168.271 168.474 163.803 173.612 163.803 173.612Z" stroke="#D6CD56" stroke-width="0.75" stroke-miterlimit="10" stroke-linecap="round" stroke-linejoin="round"/>
<path d="M163.802 173.613C163.809 173.608 166.987 165.793 171.866 153.977C176.782 142.125 177.258 142.876 179.377 133.732C181.529 124.576 182.982 114.959 182.97 114.957" stroke="#D6CD56" stroke-width="0.75" stroke-miterlimit="10" stroke-linecap="round" stroke-linejoin="round"/>
<path d="M173.415 189.216C173.45 189.193 173.473 190.364 183.53 187.289C193.563 184.208 193.786 182.165 204.984 187.381C215.579 192.943 225.47 190.646 226.468 194.926C226.503 194.902 221.01 197.38 211.492 200.658C202.271 203.771 194.792 197.906 187.516 194.991C180.543 191.905 173.422 189.211 173.415 189.216Z" stroke="#D6CD56" stroke-width="0.6512" stroke-miterlimit="10" stroke-linecap="round" stroke-linejoin="round"/>
<path d="M173.414 189.216C173.372 189.244 182.1 190.026 193.374 192.069C204.473 194.216 203.672 194.968 211.304 195.134C218.824 195.375 226.453 194.935 226.467 194.926" stroke="#D6CD56" stroke-width="0.6512" stroke-miterlimit="10" stroke-linecap="round" stroke-linejoin="round"/>
<path d="M122.34 197.31C122.302 197.314 123.504 197.799 122.498 185.9C121.401 174.001 119.586 174.093 126.366 162.868C133.286 151.611 132.283 139.132 136.369 137.441C136.338 137.441 138.056 143.719 139.828 156.025C141.465 168.359 134.702 177.687 130.621 184.688C126.43 191.691 122.34 197.31 122.34 197.31Z" stroke="#D6CD56" stroke-width="0.75" stroke-miterlimit="10" stroke-linecap="round" stroke-linejoin="round"/>
<path d="M122.339 197.31C122.346 197.305 124.977 189.151 128.879 176.945C132.795 164.73 133.319 165.448 134.606 156.225C135.911 146.999 136.368 137.441 136.363 137.434" stroke="#D6CD56" stroke-width="0.75" stroke-miterlimit="10" stroke-linecap="round" stroke-linejoin="round"/>
<path d="M149.91 182.464C149.91 182.464 160.54 178.351 163.979 172.96" stroke="#D6CD56" stroke-width="0.75" stroke-miterlimit="10" stroke-linecap="round" stroke-linejoin="round"/>
<path d="M140.064 184.721C140.064 184.721 157.382 182.817 174.539 189.566" stroke="#D6CD56" stroke-width="0.75" stroke-miterlimit="10" stroke-linecap="round" stroke-linejoin="round"/>
<path d="M1.34179 18.6729C25.1043 8.12825 58.0177 1.69102 90.5743 21.9589C152.044 60.2322 99.4356 160.4 106.149 211.844C111.913 256.009 175.632 220.308 214.255 268.668" stroke="#D6CD56" stroke-width="0.75" stroke-miterlimit="10" stroke-linecap="round" stroke-linejoin="round"/>
<path d="M1.625 213.809C1.625 213.809 47.7041 206.028 67.1058 131.652" stroke="#D6CD56" stroke-width="0.75" stroke-miterlimit="10" stroke-linecap="round" stroke-linejoin="round"/>
<path d="M53.6534 167.242C53.6534 167.242 60.278 153.545 51.7734 135.828" stroke="#D6CD56" stroke-width="0.75" stroke-miterlimit="10" stroke-linecap="round" stroke-linejoin="round"/>
<path d="M66.7725 131.441C66.7725 131.466 58.268 127.771 62.2151 111.771C66.2679 96.0559 78.8823 90.3347 78.8253 90.1394C78.7765 90.1231 82.4387 100.182 80.982 113.024C79.4927 125.728 66.7644 131.279 66.7725 131.441Z" stroke="#D6CD56" stroke-width="0.75" stroke-miterlimit="10" stroke-linecap="round" stroke-linejoin="round"/>
<path d="M66.7751 131.441C66.7507 131.474 65.9124 122.758 70.2827 110.925C74.6611 99.1648 78.8361 90.172 78.8198 90.1394" stroke="#D6CD56" stroke-width="0.75" stroke-miterlimit="10" stroke-linecap="round" stroke-linejoin="round"/>
<path d="M61.4873 166.413C61.3246 166.446 60.6002 158.153 74.0122 152.318C86.8463 146.523 98.1016 152.383 98.3457 152.391C98.4189 152.407 93.772 160.301 83.0945 166.047C72.4822 171.841 61.4385 166.454 61.4873 166.413Z" stroke="#D6CD56" stroke-width="0.75" stroke-miterlimit="10" stroke-linecap="round" stroke-linejoin="round"/>
<path d="M61.4885 166.414C61.4478 166.406 67.7631 160.888 78.7824 157.503C89.7854 154.101 98.3224 152.4 98.3387 152.392" stroke="#D6CD56" stroke-width="0.75" stroke-miterlimit="10" stroke-linecap="round" stroke-linejoin="round"/>
<path d="M59.9196 201.593C60.0743 201.536 65.5025 194.187 79.8748 199.851C94.719 205.369 100.391 219.066 100.18 219.098C100.196 219.098 89.1768 220.921 76.0579 217.707C62.768 214.541 59.765 201.617 59.9196 201.593Z" stroke="#D6CD56" stroke-width="0.75" stroke-miterlimit="10" stroke-linecap="round" stroke-linejoin="round"/>
<path d="M59.916 201.592C59.9811 201.584 68.2822 202.015 79.6677 207.704C91.159 213.36 100.225 219.073 100.176 219.098" stroke="#D6CD56" stroke-width="0.75" stroke-miterlimit="10" stroke-linecap="round" stroke-linejoin="round"/>
<path d="M51.7966 134.989C51.8292 134.908 43.7967 136.584 37.5953 124.539C31.5404 112.186 37.4406 100.865 37.3348 100.987C37.3267 101.06 44.6023 106.269 50.7305 115.506C56.9075 124.898 51.8373 135.038 51.7966 134.989Z" stroke="#D6CD56" stroke-width="0.75" stroke-miterlimit="10" stroke-linecap="round" stroke-linejoin="round"/>
<path d="M51.7957 134.988C51.812 134.948 46.2292 129.723 42.5425 119.696C38.8477 109.637 37.334 100.978 37.334 100.986" stroke="#D6CD56" stroke-width="0.75" stroke-miterlimit="10" stroke-linecap="round" stroke-linejoin="round"/>
<path d="M37.4758 167.868C37.5002 167.811 31.5267 169.057 26.9123 160.096C22.4118 150.908 26.7983 142.493 26.717 142.583C26.7088 142.632 32.1289 146.514 36.6864 153.374C41.2845 160.357 37.5084 167.901 37.4758 167.868Z" stroke="#D6CD56" stroke-width="0.75" stroke-miterlimit="10" stroke-linecap="round" stroke-linejoin="round"/>
<path d="M37.4795 167.867C37.4877 167.843 33.3453 163.953 30.5945 156.49C27.8519 149.011 26.7207 142.573 26.7207 142.573" stroke="#D6CD56" stroke-width="0.75" stroke-miterlimit="10" stroke-linecap="round" stroke-linejoin="round"/>
<path d="M48.5508 176.078C48.5508 176.078 49.2507 172.164 62.1906 165.922" stroke="#D6CD56" stroke-width="0.75" stroke-miterlimit="10" stroke-linecap="round" stroke-linejoin="round"/>
<path d="M30.2246 197.963C30.2246 197.963 42.9366 195.041 59.197 201.625" stroke="#D6CD56" stroke-width="0.75" stroke-miterlimit="10" stroke-linecap="round" stroke-linejoin="round"/>
<path d="M36.3926 191.934C36.3926 191.934 42.4638 179.987 37.4587 168.479" stroke="#D6CD56" stroke-width="0.75" stroke-miterlimit="10" stroke-linecap="round" stroke-linejoin="round"/>
<g opacity="0.5">
<path d="M86.3605 58.9858C85.667 58.1711 84.5762 58.0297 83.3776 58.0768C81.8626 58.0364 81.3441 58.326 82.7716 60.7366C84.4011 63.1202 86.2865 62.6893 86.6097 62.0631C87.3571 60.9655 86.9531 59.6592 86.3605 58.9858Z" fill="#D6CD56"/>
<path d="M78.2082 52.6694C77.5146 51.8547 76.4238 51.7133 75.2253 51.7604C73.7102 51.72 73.1917 52.0095 74.6192 54.4201C76.242 56.8038 78.1341 56.3729 78.4573 55.7466C79.198 54.6491 78.794 53.3428 78.2082 52.6694Z" fill="#D6CD56"/>
<path d="M78.5324 61.3697C77.8389 60.555 76.748 60.4203 75.5495 60.4675C74.0344 60.4271 73.516 60.7166 74.9435 63.1272C76.573 65.5108 78.4583 65.0799 78.7816 64.4537C79.5222 63.3494 79.1182 62.0431 78.5324 61.3697Z" fill="#D6CD56"/>
<path d="M69.8645 53.4585C69.1709 52.6437 68.0801 52.5023 66.8815 52.5495C65.3665 52.5091 64.848 52.7986 66.2755 55.2092C67.905 57.5929 69.7904 57.1619 70.1136 56.5357C70.8543 55.4381 70.4503 54.1318 69.8645 53.4585Z" fill="#D6CD56"/>
<path d="M70.6867 44.1471C69.9932 43.3323 68.9023 43.1976 67.7038 43.2448C66.1887 43.2044 65.6703 43.4939 67.0978 45.9045C68.7273 48.2882 70.6126 47.8572 70.9359 47.231C71.6765 46.12 71.2793 44.8137 70.6867 44.1471Z" fill="#D6CD56"/>
<path d="M87.0344 50.1322C86.3408 49.3174 85.25 49.1828 84.0514 49.2232C82.5364 49.1828 82.0179 49.4723 83.4454 51.8829C85.0749 54.2733 86.9603 53.8356 87.2835 53.2094C88.0242 52.1119 87.6202 50.8056 87.0344 50.1322Z" fill="#D6CD56"/>
<path d="M80.9474 43.4674C80.2538 42.6526 79.163 42.518 77.9577 42.5651C76.4426 42.5247 75.9242 42.8142 77.3517 45.2248C78.9812 47.6085 80.8733 47.1776 81.1898 46.5513C81.9372 45.447 81.5332 44.1407 80.9474 43.4674Z" fill="#D6CD56"/>
<path d="M104.767 47.1616C104.073 46.3469 102.982 46.2055 101.784 46.2526C100.269 46.2122 99.7503 46.5017 101.178 48.9123C102.807 51.296 104.693 50.8651 105.016 50.2388C105.757 49.1413 105.353 47.835 104.767 47.1616Z" fill="#D6CD56"/>
<path d="M96.6105 40.8452C95.917 40.0305 94.8262 39.889 93.6276 39.9362C92.1126 39.8958 91.5941 40.1853 93.0216 42.5959C94.6511 44.9796 96.5432 44.5486 96.8597 43.9224C97.6004 42.8249 97.1964 41.5186 96.6105 40.8452Z" fill="#D6CD56"/>
<path d="M96.9376 49.5444C96.244 48.7297 95.1532 48.5883 93.9479 48.6354C92.4329 48.595 91.9144 48.8845 93.3419 51.2951C94.9714 53.6788 96.8635 53.2479 97.18 52.6216C97.9274 51.5241 97.5234 50.2178 96.9376 49.5444Z" fill="#D6CD56"/>
<path d="M88.2629 41.6382C87.5693 40.8234 86.4785 40.682 85.2799 40.7292C83.7649 40.6888 83.2464 40.9783 84.6739 43.3889C86.3034 45.7726 88.1888 45.3416 88.512 44.7154C89.2594 43.6111 88.8554 42.3048 88.2629 41.6382Z" fill="#D6CD56"/>
<path d="M89.0919 32.3218C88.3983 31.507 87.3075 31.3656 86.1022 31.4127C84.5872 31.3723 84.0687 31.6619 85.4962 34.0725C87.1257 36.4562 89.0178 36.0252 89.3343 35.399C90.0817 34.3014 89.6777 32.9951 89.0919 32.3218Z" fill="#D6CD56"/>
<path d="M105.44 38.3061C104.746 37.4914 103.655 37.35 102.457 37.3971C100.942 37.3567 100.416 37.6463 101.851 40.0569C103.48 42.4405 105.366 42.0096 105.689 41.3834C106.429 40.2858 106.025 38.9795 105.44 38.3061Z" fill="#D6CD56"/>
<path d="M99.3469 31.6421C98.6533 30.8274 97.5625 30.6859 96.3639 30.7331C94.8489 30.6927 94.3304 30.9822 95.7579 33.3928C97.3874 35.7765 99.2728 35.3455 99.596 34.7193C100.343 33.6217 99.9394 32.3155 99.3469 31.6421Z" fill="#D6CD56"/>
<path d="M81.0187 33.3452C80.3252 32.5305 79.2344 32.3891 78.0358 32.4362C76.5208 32.3958 76.0023 32.6853 77.4298 35.0959C79.0593 37.4796 80.9447 37.0486 81.2679 36.4224C82.0153 35.3249 81.6113 34.0186 81.0187 33.3452Z" fill="#D6CD56"/>
<path d="M72.8673 27.0288C72.1737 26.214 71.0829 26.0726 69.8776 26.1198C68.3626 26.0794 67.8441 26.3689 69.2716 28.7795C70.9011 31.1632 72.7932 30.7322 73.1097 30.106C73.8571 29.0085 73.4531 27.7022 72.8673 27.0288Z" fill="#D6CD56"/>
<path d="M73.1895 35.7291C72.496 34.9143 71.4052 34.7729 70.1999 34.8268C68.6848 34.7864 68.1663 35.076 69.5938 37.4866C71.2234 39.8702 73.1155 39.4393 73.432 38.8131C74.1794 37.7088 73.7754 36.4024 73.1895 35.7291Z" fill="#D6CD56"/>
<path d="M64.5227 27.8189C63.8291 27.0042 62.7383 26.8695 61.5397 26.9167C60.0247 26.8763 59.5062 27.1658 60.9337 29.5764C62.5632 31.9601 64.4486 31.5291 64.7718 30.9029C65.5125 29.7986 65.1085 28.4923 64.5227 27.8189Z" fill="#D6CD56"/>
<path d="M65.3449 18.5054C64.6514 17.6906 63.5605 17.5492 62.362 17.5963C60.8469 17.5559 60.3285 17.8455 61.756 20.2561C63.3855 22.6397 65.2708 22.2088 65.5941 21.5826C66.3415 20.485 65.9375 19.172 65.3449 18.5054Z" fill="#D6CD56"/>
<path d="M81.6934 24.4908C80.9999 23.6761 79.9091 23.5347 78.7038 23.5885C77.1887 23.5481 76.6703 23.8377 78.0978 26.2483C79.7273 28.6319 81.6194 28.201 81.9359 27.5748C82.6833 26.4705 82.2793 25.1642 81.6934 24.4908Z" fill="#D6CD56"/>
<path d="M75.6066 17.8257C74.9131 17.0109 73.8223 16.8695 72.6237 16.9167C71.1086 16.8763 70.5902 17.1658 72.0177 19.5764C73.6472 21.9601 75.5326 21.5291 75.8558 20.9029C76.5965 19.8053 76.1925 18.499 75.6066 17.8257Z" fill="#D6CD56"/>
<path d="M99.7258 20.5718C99.0322 19.757 97.9414 19.6156 96.7428 19.6628C95.2278 19.6224 94.7093 19.9119 96.1368 22.3225C97.7663 24.7062 99.6517 24.2752 99.9749 23.649C100.716 22.5514 100.312 21.2451 99.7258 20.5718Z" fill="#D6CD56"/>
<path d="M91.5665 14.2554C90.8729 13.4406 89.7821 13.2992 88.5768 13.3463C87.0618 13.3059 86.5433 13.5955 87.9708 16.0061C89.6003 18.3897 91.4924 17.9588 91.8089 17.3326C92.5563 16.235 92.1523 14.9287 91.5665 14.2554Z" fill="#D6CD56"/>
<path d="M91.8907 22.9557C91.1972 22.1409 90.1063 22.0062 88.901 22.0534C87.386 22.013 86.8675 22.3025 88.295 24.7131C89.9245 27.0968 91.8166 26.6658 92.1331 26.0396C92.8805 24.9353 92.4765 23.6223 91.8907 22.9557Z" fill="#D6CD56"/>
<path d="M83.2219 15.0416C82.5283 14.2268 81.4375 14.0922 80.2389 14.1393C78.7239 14.0989 78.2054 14.3885 79.6329 16.7991C81.2624 19.1827 83.1478 18.7518 83.471 18.1256C84.2117 17.0213 83.8077 15.7149 83.2219 15.0416Z" fill="#D6CD56"/>
<path d="M62.1066 39.189C61.4131 38.3742 60.3223 38.2395 59.1237 38.2799C57.6087 38.2395 57.0902 38.5291 58.5177 40.9397C60.1472 43.3233 62.0393 42.8924 62.3558 42.2662C63.0965 41.1619 62.6925 39.8556 62.1066 39.189Z" fill="#D6CD56"/>
<path d="M108.612 27.6421C107.919 26.8274 106.828 26.6927 105.63 26.7331C104.115 26.6927 103.596 26.9822 105.024 29.3928C106.653 31.7765 108.538 31.3455 108.862 30.7193C109.602 29.615 109.198 28.3155 108.612 27.6421Z" fill="#D6CD56"/>
<path d="M73.1691 9.38818C72.4756 8.57342 71.3848 8.43202 70.1862 8.47915C68.6711 8.43875 68.1527 8.7283 69.5802 11.1389C71.2097 13.5226 73.0951 13.0916 73.4183 12.4654C74.159 11.3678 73.7549 10.0615 73.1691 9.38818Z" fill="#D6CD56"/>
<path d="M59.2579 48.771C58.5644 47.9562 57.4735 47.8148 56.2682 47.862C54.7532 47.8216 54.2347 48.1111 55.6622 50.5217C57.2917 52.9054 59.1771 52.4744 59.5003 51.8482C60.2477 50.7506 59.8437 49.4443 59.2579 48.771Z" fill="#D6CD56"/>
<path d="M98.547 58.2984C97.8534 57.4836 96.7626 57.3422 95.5573 57.3893C94.0422 57.3489 93.5238 57.6385 94.9513 60.0491C96.5808 62.4327 98.4729 62.0018 98.7894 61.3756C99.5435 60.278 99.1395 58.9717 98.547 58.2984Z" fill="#D6CD56"/>
<path d="M75.4044 1.00539C74.7108 0.190633 73.62 0.0492247 72.4147 0.0963597C70.8997 0.0559583 70.3812 0.345487 71.8087 2.75608C73.4382 5.13975 75.3303 4.7088 75.6468 4.08259C76.4009 2.97829 75.9969 1.672 75.4044 1.00539Z" fill="#D6CD56"/>
<path d="M84.0509 5.73193C83.3573 4.91717 82.2665 4.77577 81.0612 4.8229C79.5461 4.7825 79.0277 5.07205 80.4552 7.48265C82.0847 9.86631 83.9768 9.43536 84.2933 8.80915C85.0407 7.71159 84.6367 6.39855 84.0509 5.73193Z" fill="#D6CD56"/>
<path d="M100.393 11.7174C99.6991 10.9026 98.6083 10.768 97.403 10.8151C95.8879 10.7747 95.3695 11.0642 96.797 13.4748C98.4265 15.8585 100.319 15.4276 100.635 14.8013C101.382 13.697 100.978 12.3907 100.393 11.7174Z" fill="#D6CD56"/>
<path d="M94.3059 5.04834C93.6123 4.23358 92.5215 4.09217 91.3229 4.13931C89.8079 4.09891 89.2894 4.38846 90.7169 6.79905C92.3464 9.18271 94.2318 8.75177 94.555 8.12555C95.2957 7.02799 94.8917 5.71495 94.3059 5.04834Z" fill="#D6CD56"/>
</g>
</svg>
