<svg width="133" height="186" viewBox="0 0 133 186" fill="none" xmlns="http://www.w3.org/2000/svg">
<path d="M15.592 175.888C30.3316 176.901 49.1596 173.941 62.6064 156.789C87.9942 124.402 40.4296 81.1348 34.0154 52.3572C28.5091 27.6512 69.4765 34.3315 80.7028 0.998378" stroke="#D6CD56" stroke-width="0.75" stroke-miterlimit="10" stroke-linecap="round" stroke-linejoin="round"/>
<path d="M-10.6074 73.5625C-10.6074 73.5625 11.0039 69.5897 31.5377 99.3326" stroke="#D6CD56" stroke-width="0.75" stroke-miterlimit="10" stroke-linecap="round" stroke-linejoin="round"/>
<path d="M19.8697 85.768C19.8697 85.768 24.9995 90.7545 24.0911 99.9505" stroke="#D6CD56" stroke-width="0.75" stroke-miterlimit="10" stroke-linecap="round" stroke-linejoin="round"/>
<path d="M31.4247 99.478C31.4208 99.4672 28.2573 102.467 32.5744 108.902C36.8925 115.194 43.3862 115.693 43.3925 115.789C43.3735 115.804 43.374 110.77 40.665 105.33C37.9639 99.9566 31.4473 99.5512 31.4247 99.478Z" stroke="#D6CD56" stroke-width="0.75" stroke-miterlimit="10" stroke-linecap="round" stroke-linejoin="round"/>
<path d="M31.4239 99.4794C31.4079 99.4689 32.4393 103.455 36.2733 107.981C40.0991 112.473 43.39 115.775 43.3881 115.792" stroke="#D6CD56" stroke-width="0.75" stroke-miterlimit="10" stroke-linecap="round" stroke-linejoin="round"/>
<path d="M23.4663 84.8773C23.3891 84.8891 24.4027 88.6698 31.2672 89.0911C37.8699 89.5874 41.9007 85.1883 42.0072 85.1454C42.037 85.1265 38.7142 82.3858 33.0723 81.5642C27.4514 80.7106 23.4381 84.8671 23.4663 84.8773Z" stroke="#D6CD56" stroke-width="0.75" stroke-miterlimit="10" stroke-linecap="round" stroke-linejoin="round"/>
<path d="M23.4669 84.8789C23.4502 84.889 27.128 86.3114 32.5413 86.0352C37.9501 85.7688 41.9958 85.1474 42.0043 85.1484" stroke="#D6CD56" stroke-width="0.75" stroke-miterlimit="10" stroke-linecap="round" stroke-linejoin="round"/>
<path d="M17.1153 69.5825C17.1928 69.5828 20.7732 71.9569 26.2126 67.1428C31.8842 62.3175 32.1878 55.3534 32.0891 55.373C32.0963 55.3704 26.9342 56.337 21.6546 59.8672C16.2916 63.4033 17.0431 69.5966 17.1153 69.5825Z" stroke="#D6CD56" stroke-width="0.75" stroke-miterlimit="10" stroke-linecap="round" stroke-linejoin="round"/>
<path d="M17.116 69.5825C17.1461 69.5756 20.7446 68.05 24.8604 63.7055C29.0282 59.3583 32.1153 55.3759 32.0898 55.373" stroke="#D6CD56" stroke-width="0.75" stroke-miterlimit="10" stroke-linecap="round" stroke-linejoin="round"/>
<path d="M24.2379 100.32C24.2654 100.351 20.4466 100.902 19.6436 107.221C18.955 113.654 23.3826 117.707 23.3162 117.67C23.3008 117.639 25.6779 114.167 26.9001 109.1C28.1191 103.957 24.2481 100.292 24.2379 100.32Z" stroke="#D6CD56" stroke-width="0.75" stroke-miterlimit="10" stroke-linecap="round" stroke-linejoin="round"/>
<path d="M24.2376 100.319C24.2513 100.334 22.6248 103.541 22.6083 108.564C22.5934 113.602 23.3172 117.672 23.3158 117.668" stroke="#D6CD56" stroke-width="0.75" stroke-miterlimit="10" stroke-linecap="round" stroke-linejoin="round"/>
<path d="M12.6216 88.0929C12.6415 88.1141 9.80185 88.5246 9.20396 93.2258C8.69307 98.0094 11.9846 101.022 11.9342 100.996C11.9228 100.975 13.6933 98.3885 14.6037 94.6242C15.5125 90.7994 12.6307 88.0733 12.6216 88.0929Z" stroke="#D6CD56" stroke-width="0.75" stroke-miterlimit="10" stroke-linecap="round" stroke-linejoin="round"/>
<path d="M12.621 88.094C12.6285 88.1035 11.4238 90.4885 11.4086 94.2283C11.3995 97.974 11.935 101 11.935 101" stroke="#D6CD56" stroke-width="0.75" stroke-miterlimit="10" stroke-linecap="round" stroke-linejoin="round"/>
<path d="M16.1934 82.6836C16.1934 82.6836 17.1321 84.3007 23.8535 84.9777" stroke="#D6CD56" stroke-width="0.75" stroke-miterlimit="10" stroke-linecap="round" stroke-linejoin="round"/>
<path d="M4.57724 75.9619C4.57724 75.9619 10.6639 75.2085 16.7897 69.6844" stroke="#D6CD56" stroke-width="0.75" stroke-miterlimit="10" stroke-linecap="round" stroke-linejoin="round"/>
<path d="M8.27148 77.6367C8.27148 77.6367 12.8754 81.9392 12.5145 87.8287" stroke="#D6CD56" stroke-width="0.75" stroke-miterlimit="10" stroke-linecap="round" stroke-linejoin="round"/>
<g opacity="0.5">
<path d="M53.1604 137.834C52.9484 138.404 52.3934 138.692 51.7441 138.899C50.9429 139.215 50.6097 139.162 50.9035 137.597C51.3104 136.007 52.401 135.871 52.6953 136.142C53.3078 136.583 53.346 137.359 53.1604 137.834Z" fill="#D6CD56"/>
<path d="M50.0335 142.791C49.8215 143.361 49.2664 143.649 48.6172 143.856C47.8159 144.172 47.4828 144.119 47.7766 142.554C48.1799 140.965 49.2741 140.828 49.5684 141.099C50.1773 141.542 50.2154 142.318 50.0335 142.791Z" fill="#D6CD56"/>
<path d="M48.5152 138.084C48.3032 138.654 47.7469 138.938 47.0976 139.145C46.2964 139.461 45.9632 139.408 46.257 137.843C46.6639 136.253 47.7545 136.117 48.0489 136.388C48.6591 136.834 48.6972 137.61 48.5152 138.084Z" fill="#D6CD56"/>
<path d="M45.4241 143.994C45.2121 144.564 44.657 144.852 44.0078 145.059C43.2066 145.376 42.8734 145.322 43.1672 143.757C43.5741 142.167 44.6647 142.031 44.959 142.302C45.5679 142.745 45.6061 143.521 45.4241 143.994Z" fill="#D6CD56"/>
<path d="M47.6735 148.806C47.4614 149.376 46.9051 149.66 46.2558 149.868C45.4546 150.184 45.1215 150.13 45.4152 148.565C45.8221 146.976 46.9127 146.839 47.2071 147.111C47.8186 147.56 47.8603 148.335 47.6735 148.806Z" fill="#D6CD56"/>
<path d="M55.2409 142.433C55.0289 143.003 54.4725 143.287 53.8246 143.498C53.0234 143.814 52.6902 143.76 52.984 142.196C53.3896 140.602 54.4815 140.469 54.7758 140.741C55.3847 141.183 55.4229 141.959 55.2409 142.433Z" fill="#D6CD56"/>
<path d="M53.2845 147.176C53.0725 147.746 52.5161 148.03 51.8633 148.239C51.062 148.555 50.7289 148.501 51.0227 146.937C51.4295 145.347 52.5238 145.209 52.8145 145.482C53.4283 145.927 53.4664 146.703 53.2845 147.176Z" fill="#D6CD56"/>
<path d="M65.2893 140.572C65.0773 141.142 64.5223 141.43 63.873 141.638C63.0718 141.954 62.7386 141.9 63.0324 140.335C63.4393 138.745 64.5299 138.609 64.8243 138.881C65.4331 139.323 65.4713 140.099 65.2893 140.572Z" fill="#D6CD56"/>
<path d="M62.1624 145.529C61.9504 146.099 61.3953 146.387 60.7461 146.595C59.9449 146.911 59.6117 146.857 59.9055 145.292C60.3124 143.702 61.4066 143.565 61.6973 143.838C62.3062 144.28 62.3443 145.056 62.1624 145.529Z" fill="#D6CD56"/>
<path d="M60.6445 140.821C60.4325 141.391 59.8774 141.679 59.2246 141.888C58.4234 142.204 58.0902 142.15 58.384 140.585C58.7909 138.995 59.8851 138.858 60.1758 139.131C60.7883 139.571 60.8264 140.348 60.6445 140.821Z" fill="#D6CD56"/>
<path d="M57.5491 146.729C57.3371 147.299 56.782 147.586 56.1328 147.794C55.3316 148.11 54.9984 148.056 55.2922 146.491C55.6991 144.902 56.7897 144.765 57.084 145.037C57.6978 145.481 57.736 146.257 57.5491 146.729Z" fill="#D6CD56"/>
<path d="M59.8027 151.544C59.5907 152.114 59.0356 152.401 58.3828 152.61C57.5816 152.926 57.2484 152.872 57.5422 151.308C57.9491 149.718 59.0433 149.58 59.334 149.853C59.9465 150.294 59.9847 151.07 59.8027 151.544Z" fill="#D6CD56"/>
<path d="M67.369 145.169C67.157 145.739 66.6019 146.027 65.9527 146.235C65.1515 146.551 64.8147 146.498 65.1121 144.932C65.519 143.342 66.6096 143.206 66.9039 143.478C67.5128 143.92 67.551 144.696 67.369 145.169Z" fill="#D6CD56"/>
<path d="M65.4104 149.912C65.1984 150.482 64.6434 150.77 63.9941 150.977C63.1929 151.294 62.8597 151.24 63.1535 149.675C63.5604 148.085 64.651 147.949 64.9453 148.22C65.5578 148.661 65.596 149.437 65.4104 149.912Z" fill="#D6CD56"/>
<path d="M55.2913 152.565C55.0793 153.134 54.5242 153.422 53.875 153.63C53.0738 153.946 52.7406 153.892 53.0344 152.327C53.4413 150.738 54.5319 150.601 54.8262 150.873C55.4387 151.314 55.4768 152.09 55.2913 152.565Z" fill="#D6CD56"/>
<path d="M52.164 157.52C51.952 158.09 51.397 158.378 50.7441 158.587C49.9429 158.903 49.6097 158.849 49.9035 157.284C50.3104 155.695 51.4046 155.557 51.6953 155.83C52.3078 156.271 52.346 157.047 52.164 157.52Z" fill="#D6CD56"/>
<path d="M50.6458 152.813C50.4338 153.383 49.8787 153.67 49.2246 153.876C48.4234 154.192 48.0902 154.138 48.384 152.573C48.7909 150.984 49.8851 150.846 50.1758 151.119C50.7896 151.563 50.8278 152.339 50.6458 152.813Z" fill="#D6CD56"/>
<path d="M47.5543 158.724C47.3423 159.294 46.7859 159.578 46.1367 159.786C45.3355 160.102 45.0023 160.048 45.2961 158.483C45.703 156.894 46.7936 156.757 47.0879 157.029C47.6981 157.475 47.7363 158.251 47.5543 158.724Z" fill="#D6CD56"/>
<path d="M49.803 163.537C49.591 164.107 49.0359 164.395 48.3867 164.602C47.5855 164.919 47.2523 164.865 47.5461 163.3C47.953 161.71 49.0436 161.574 49.3379 161.845C49.9504 162.286 49.9899 163.066 49.803 163.537Z" fill="#D6CD56"/>
<path d="M57.3704 157.161C57.1584 157.731 56.6033 158.018 55.9492 158.224C55.148 158.54 54.8148 158.486 55.1086 156.921C55.5155 155.331 56.6097 155.194 56.9004 155.467C57.5142 155.911 57.5524 156.687 57.3704 157.161Z" fill="#D6CD56"/>
<path d="M55.4163 161.904C55.2043 162.474 54.6492 162.762 54 162.97C53.1988 163.286 52.8656 163.232 53.1594 161.667C53.5663 160.077 54.6569 159.941 54.9512 160.213C55.5601 160.655 55.5982 161.431 55.4163 161.904Z" fill="#D6CD56"/>
<path d="M67.7639 155.752C67.5519 156.322 66.9969 156.61 66.3476 156.817C65.5464 157.133 65.2132 157.08 65.507 155.515C65.9139 153.925 67.0045 153.789 67.2989 154.06C67.9078 154.502 67.9459 155.279 67.7639 155.752Z" fill="#D6CD56"/>
<path d="M64.6328 160.712C64.4208 161.282 63.8657 161.569 63.2129 161.778C62.4116 162.094 62.0785 162.04 62.3723 160.476C62.7792 158.886 63.8734 158.748 64.1641 159.021C64.7766 159.462 64.8147 160.238 64.6328 160.712Z" fill="#D6CD56"/>
<path d="M63.1145 156C62.9025 156.57 62.3462 156.854 61.6933 157.063C60.8921 157.379 60.559 157.326 60.8527 155.761C61.2596 154.171 62.3538 154.033 62.6446 154.306C63.2584 154.751 63.2978 155.531 63.1145 156Z" fill="#D6CD56"/>
<path d="M60.0231 161.912C59.8111 162.482 59.2547 162.766 58.6055 162.974C57.8042 163.29 57.4711 163.236 57.7648 161.671C58.1717 160.081 59.2624 159.945 59.5567 160.217C60.1669 160.662 60.205 161.438 60.0231 161.912Z" fill="#D6CD56"/>
<path d="M44.053 153.119C43.841 153.689 43.2846 153.973 42.6367 154.184C41.8355 154.501 41.5023 154.447 41.7961 152.882C42.203 151.292 43.2972 151.155 43.5879 151.427C44.1981 151.873 44.2363 152.649 44.053 153.119Z" fill="#D6CD56"/>
<path d="M71.135 150.248C70.923 150.818 70.3667 151.102 69.7187 151.313C68.9175 151.629 68.5843 151.576 68.8781 150.011C69.285 148.421 70.3756 148.285 70.67 148.556C71.2802 149.002 71.317 149.775 71.135 150.248Z" fill="#D6CD56"/>
<path d="M55.7542 166.885C55.5422 167.455 54.9871 167.742 54.3379 167.95C53.5366 168.266 53.2035 168.212 53.4973 166.648C53.9042 165.058 54.9948 164.922 55.2891 165.193C55.898 165.635 55.9361 166.411 55.7542 166.885Z" fill="#D6CD56"/>
<path d="M40.6699 148.559C40.4579 149.129 39.9028 149.417 39.25 149.626C38.4488 149.942 38.1156 149.888 38.4094 148.323C38.8163 146.734 39.9069 146.597 40.2012 146.869C40.8137 147.31 40.8518 148.086 40.6699 148.559Z" fill="#D6CD56"/>
<path d="M59.8007 135.833C59.5887 136.403 59.0337 136.69 58.3808 136.899C57.5796 137.215 57.2465 137.162 57.5402 135.597C57.9471 134.007 59.0413 133.869 59.3321 134.142C59.9481 134.582 59.9863 135.358 59.8007 135.833Z" fill="#D6CD56"/>
<path d="M58.5781 170.93C58.3661 171.5 57.811 171.788 57.1582 171.997C56.357 172.313 56.0238 172.259 56.3176 170.694C56.7245 169.105 57.8187 168.967 58.1094 169.24C58.7268 169.683 58.7649 170.459 58.5781 170.93Z" fill="#D6CD56"/>
<path d="M62.2753 166.723C62.0633 167.293 61.5083 167.581 60.8555 167.79C60.0542 168.106 59.7211 168.052 60.0148 166.487C60.4217 164.898 61.516 164.76 61.8067 165.033C62.4192 165.474 62.4586 166.254 62.2753 166.723Z" fill="#D6CD56"/>
<path d="M69.8392 160.352C69.6271 160.922 69.0708 161.206 68.418 161.415C67.6167 161.731 67.2836 161.677 67.5773 160.112C67.9842 158.523 69.0785 158.385 69.3692 158.658C69.983 159.102 70.0211 159.879 69.8392 160.352Z" fill="#D6CD56"/>
<path d="M67.885 165.092C67.673 165.662 67.118 165.949 66.4687 166.157C65.6675 166.473 65.3343 166.419 65.6281 164.855C66.035 163.265 67.1256 163.129 67.42 163.4C68.0288 163.842 68.0683 164.622 67.885 165.092Z" fill="#D6CD56"/>
</g>
</svg>
