<svg width="34" height="34" viewBox="0 0 34 34" fill="none" xmlns="http://www.w3.org/2000/svg">
<path d="M24.2727 1C23.8711 1 23.5455 1.32561 23.5455 1.72727C23.5455 2.12893 23.8711 2.45455 24.2727 2.45455H30.5114L22.1932 10.7727C19.9427 8.76521 16.9749 7.54545 13.7273 7.54545C6.70681 7.54545 1 13.2523 1 20.2727C1 27.2931 6.70681 33 13.7273 33C20.7477 33 26.4545 27.2931 26.4545 20.2727C26.4545 17.0225 25.2263 14.058 23.2159 11.8068L31.5455 3.47727V9.72727C31.5455 10.1289 31.8711 10.4545 32.2727 10.4545C32.6744 10.4545 33 10.1289 33 9.72727V1.72727C33 1.53439 32.9234 1.34941 32.787 1.21302C32.6506 1.07664 32.4656 1.00002 32.2727 1H24.2727ZM13.7273 9C19.9616 9 25 14.0384 25 20.2727C25 26.507 19.9616 31.5455 13.7273 31.5455C7.49291 31.5455 2.45455 26.507 2.45455 20.2727C2.45455 14.0384 7.49291 9 13.7273 9Z" fill="#1DA4FB" stroke="#1DA4FB" stroke-width="1.5"/>
</svg>
