<svg width="36" height="24" viewBox="0 0 36 24" fill="none" xmlns="http://www.w3.org/2000/svg">
<path d="M32.4 0H3.6C1.6148 0 0 1.6148 0 3.6V20.4C0 22.3852 1.6148 24 3.6 24H32.4C34.3852 24 36 22.3852 36 20.4V3.6C36 1.6148 34.3852 0 32.4 0ZM34.4 3.6V10H16.8472C18.1664 9.1112 19.3364 7.9656 19.796 6.856C20.21 5.8568 20.0568 4.926 19.3656 4.2344C18.9352 3.804 18.3964 3.5764 17.808 3.5764C16.3712 3.5764 14.7604 5.038 13.5996 6.7504V1.6H32.3996C33.5028 1.6 34.4 2.4972 34.4 3.6ZM13.7988 9.7992C14.4476 7.8908 16.534 5.1764 17.808 5.1764C17.9716 5.1764 18.1032 5.2348 18.234 5.3656C18.398 5.53 18.522 5.75 18.3176 6.2436C17.7588 7.5932 15.45 9.2356 13.7988 9.7992ZM3.6 1.6H12V6.9496C10.7456 5.1576 8.9604 3.5764 7.4152 3.5764C6.8112 3.5764 6.2648 3.8036 5.8344 4.2344C5.1692 4.8996 5.0196 5.7896 5.4128 6.7396C5.884 7.8768 7.1652 9.0768 8.6016 10H1.6V3.6C1.6 2.4972 2.4972 1.6 3.6 1.6ZM11.7748 9.8036C9.9996 9.228 7.46 7.4992 6.8916 6.1276C6.7056 5.6792 6.8328 5.4996 6.966 5.366C7.0968 5.2352 7.2356 5.1768 7.4156 5.1768C8.7696 5.1764 11.0532 7.918 11.7748 9.8036ZM1.6 20.4V11.6H10.4868L6.706 14.5712L7.6944 15.8292L12 12.446V22.4H3.6C2.4972 22.4 1.6 21.5028 1.6 20.4ZM32.4 22.4H13.6V12.446L17.906 15.8288L18.8944 14.5708L15.1132 11.6H34.4V20.4C34.4 21.5028 33.5028 22.4 32.4 22.4ZM20 18.4H32V20H20V18.4ZM27.2 17.6H20V16H27.2V17.6Z" fill="#333333"/>
</svg>
