<svg width="1440" height="466" viewBox="0 0 1440 466" fill="none" xmlns="http://www.w3.org/2000/svg">
<path d="M52.7096 468.148C55.1438 462.663 56.6298 455.065 51.9511 447.55C43.1159 433.36 19.9929 445.504 8.11744 443.954C-2.07776 442.624 6.16358 427.915 -5 418.999" stroke="#D6CD56" stroke-width="0.75" stroke-miterlimit="10" stroke-linecap="round" stroke-linejoin="round"/>
<path d="M10.0117 463.934C10.0117 463.934 11.4977 455.133 25.7032 451.427" stroke="#D6CD56" stroke-width="0.75" stroke-miterlimit="10" stroke-linecap="round" stroke-linejoin="round"/>
<path d="M18.9062 453.996C18.9062 453.996 21.5223 452.731 24.9062 454.355" stroke="#D6CD56" stroke-width="0.75" stroke-miterlimit="10" stroke-linecap="round" stroke-linejoin="round"/>
<path d="M25.7442 451.492C25.7395 451.492 26.4452 453.117 29.5011 452.363C32.5026 451.589 33.5954 449.18 33.6327 449.19C33.6358 449.2 31.7146 448.5 29.2617 448.778C26.8353 449.063 25.7753 451.494 25.7442 451.492Z" stroke="#D6CD56" stroke-width="0.75" stroke-miterlimit="10" stroke-linecap="round" stroke-linejoin="round"/>
<path d="M25.7442 451.493C25.7379 451.497 27.4027 451.657 29.6628 450.823C31.9088 449.986 33.6264 449.189 33.6327 449.192" stroke="#D6CD56" stroke-width="0.75" stroke-miterlimit="10" stroke-linecap="round" stroke-linejoin="round"/>
<path d="M19.0637 452.5C19.0575 452.531 20.6414 452.669 21.7559 450.108C22.8626 447.657 21.7434 445.507 21.7419 445.46C21.7388 445.446 20.231 446.334 19.1336 448.373C18.0269 450.4 19.0559 452.509 19.0637 452.5Z" stroke="#D6CD56" stroke-width="0.75" stroke-miterlimit="10" stroke-linecap="round" stroke-linejoin="round"/>
<path d="M19.0645 452.5C19.066 452.508 20.1199 451.302 20.7665 449.197C21.4162 447.095 21.7411 445.465 21.7427 445.462" stroke="#D6CD56" stroke-width="0.75" stroke-miterlimit="10" stroke-linecap="round" stroke-linejoin="round"/>
<path d="M12.3461 452.8C12.357 452.77 13.7606 451.733 12.6787 448.988C11.6249 446.153 9.00885 445.07 9.00263 445.11C9.00263 445.107 8.65445 447.212 9.26843 449.717C9.87309 452.256 12.3414 452.829 12.3461 452.8Z" stroke="#D6CD56" stroke-width="0.75" stroke-miterlimit="10" stroke-linecap="round" stroke-linejoin="round"/>
<path d="M12.3454 452.801C12.347 452.788 12.2646 451.203 11.1781 449.028C10.0978 446.834 9.00662 445.102 9.00195 445.111" stroke="#D6CD56" stroke-width="0.75" stroke-miterlimit="10" stroke-linecap="round" stroke-linejoin="round"/>
<path d="M25.0659 454.351C25.0815 454.345 24.7612 455.879 27.0617 457.063C29.4213 458.22 31.5834 457.093 31.5601 457.113C31.5461 457.115 30.5513 455.725 28.7871 454.555C26.9933 453.375 25.0566 454.343 25.0659 454.351Z" stroke="#D6CD56" stroke-width="0.75" stroke-miterlimit="10" stroke-linecap="round" stroke-linejoin="round"/>
<path d="M25.0664 454.351C25.0742 454.348 26.0721 455.414 27.9871 456.118C29.9083 456.824 31.5622 457.113 31.5606 457.113" stroke="#D6CD56" stroke-width="0.75" stroke-miterlimit="10" stroke-linecap="round" stroke-linejoin="round"/>
<path d="M18.787 457.086C18.7979 457.082 18.56 458.222 20.2714 459.104C22.0263 459.963 23.6336 459.126 23.6165 459.141C23.6071 459.143 22.8657 458.107 21.5553 457.237C20.2217 456.359 18.7808 457.08 18.787 457.086Z" stroke="#D6CD56" stroke-width="0.75" stroke-miterlimit="10" stroke-linecap="round" stroke-linejoin="round"/>
<path d="M18.7871 457.086C18.7918 457.084 19.5348 457.875 20.9601 458.401C22.3886 458.925 23.6181 459.141 23.6181 459.141" stroke="#D6CD56" stroke-width="0.75" stroke-miterlimit="10" stroke-linecap="round" stroke-linejoin="round"/>
<path d="M17.2188 454.973C17.2188 454.973 17.9664 454.839 19.1586 452.368" stroke="#D6CD56" stroke-width="0.75" stroke-miterlimit="10" stroke-linecap="round" stroke-linejoin="round"/>
<path d="M13.0393 458.473C13.0393 458.473 13.5973 456.045 12.3398 452.939" stroke="#D6CD56" stroke-width="0.75" stroke-miterlimit="10" stroke-linecap="round" stroke-linejoin="round"/>
<path d="M14.1914 457.293C14.1914 457.293 16.4732 456.133 18.6711 457.089" stroke="#D6CD56" stroke-width="0.75" stroke-miterlimit="10" stroke-linecap="round" stroke-linejoin="round"/>
<g opacity="0.5">
<path d="M43.4039 448.524C43.592 448.685 43.6246 448.936 43.6138 449.213C43.6231 449.563 43.5563 449.683 42.9998 449.353C42.4495 448.977 42.549 448.542 42.6936 448.467C42.9469 448.294 43.2485 448.388 43.4039 448.524Z" fill="#D6CD56"/>
<path d="M44.861 450.407C45.049 450.567 45.0817 450.819 45.0708 451.096C45.0801 451.446 45.0133 451.565 44.4568 451.236C43.9066 450.861 44.006 450.424 44.1506 450.35C44.404 450.179 44.7055 450.272 44.861 450.407Z" fill="#D6CD56"/>
<path d="M42.8527 450.333C43.0408 450.493 43.0719 450.745 43.061 451.022C43.0704 451.371 43.0035 451.491 42.447 451.162C41.8968 450.785 41.9963 450.35 42.1408 450.276C42.3958 450.105 42.6973 450.198 42.8527 450.333Z" fill="#D6CD56"/>
<path d="M44.6793 452.333C44.8674 452.493 44.9 452.745 44.8892 453.022C44.8985 453.371 44.8316 453.491 44.2752 453.162C43.7249 452.785 43.8244 452.35 43.969 452.276C44.2223 452.105 44.5239 452.198 44.6793 452.333Z" fill="#D6CD56"/>
<path d="M46.8293 452.142C47.0174 452.302 47.0485 452.554 47.0376 452.83C47.0469 453.18 46.9801 453.3 46.4236 452.97C45.8734 452.594 45.9728 452.159 46.1174 452.084C46.3739 451.913 46.6754 452.005 46.8293 452.142Z" fill="#D6CD56"/>
<path d="M45.4474 448.368C45.6354 448.528 45.6665 448.78 45.6572 449.057C45.6665 449.407 45.5997 449.526 45.0432 449.197C44.4914 448.821 44.5925 448.385 44.737 448.311C44.9904 448.14 45.2919 448.233 45.4474 448.368Z" fill="#D6CD56"/>
<path d="M46.9856 449.773C47.1736 449.933 47.2047 450.185 47.1938 450.463C47.2032 450.813 47.1363 450.933 46.5799 450.603C46.0296 450.227 46.1291 449.79 46.2736 449.717C46.5286 449.544 46.8301 449.638 46.9856 449.773Z" fill="#D6CD56"/>
<path d="M46.1344 444.274C46.3225 444.435 46.3551 444.686 46.3442 444.963C46.3536 445.313 46.2867 445.433 45.7303 445.103C45.18 444.727 45.2795 444.292 45.424 444.217C45.6774 444.046 45.979 444.139 46.1344 444.274Z" fill="#D6CD56"/>
<path d="M47.5914 446.157C47.7795 446.317 47.8121 446.569 47.8013 446.846C47.8106 447.196 47.7438 447.315 47.1873 446.986C46.637 446.61 46.7365 446.173 46.8811 446.1C47.1344 445.929 47.436 446.022 47.5914 446.157Z" fill="#D6CD56"/>
<path d="M45.5836 446.082C45.7717 446.242 45.8043 446.493 45.7934 446.772C45.8028 447.121 45.7359 447.241 45.1795 446.912C44.6292 446.535 44.7287 446.099 44.8733 446.026C45.1266 445.853 45.4282 445.946 45.5836 446.082Z" fill="#D6CD56"/>
<path d="M47.4078 448.083C47.5959 448.243 47.6285 448.495 47.6177 448.772C47.627 449.121 47.5602 449.241 47.0037 448.912C46.4534 448.535 46.5529 448.1 46.6975 448.026C46.9524 447.853 47.2539 447.946 47.4078 448.083Z" fill="#D6CD56"/>
<path d="M49.5602 447.89C49.7483 448.05 49.7809 448.302 49.77 448.58C49.7793 448.93 49.7125 449.05 49.156 448.72C48.6058 448.344 48.7053 447.907 48.8498 447.834C49.1032 447.662 49.4047 447.755 49.5602 447.89Z" fill="#D6CD56"/>
<path d="M48.1774 444.118C48.3654 444.278 48.3981 444.529 48.3872 444.806C48.3965 445.156 48.3297 445.277 47.7732 444.946C47.223 444.57 47.3224 444.135 47.467 444.06C47.7204 443.889 48.0219 443.982 48.1774 444.118Z" fill="#D6CD56"/>
<path d="M49.7164 445.524C49.9045 445.685 49.9371 445.936 49.9263 446.213C49.9356 446.563 49.8688 446.683 49.3123 446.353C48.762 445.977 48.8615 445.542 49.0061 445.467C49.2594 445.294 49.561 445.388 49.7164 445.524Z" fill="#D6CD56"/>
<path d="M49.3238 449.755C49.5119 449.915 49.5446 450.167 49.5337 450.444C49.543 450.793 49.4762 450.913 48.9197 450.583C48.3695 450.207 48.4689 449.772 48.6135 449.697C48.8669 449.525 49.1684 449.618 49.3238 449.755Z" fill="#D6CD56"/>
<path d="M50.7809 451.636C50.969 451.796 51.0016 452.048 50.9907 452.326C51 452.676 50.9332 452.796 50.3767 452.466C49.8265 452.09 49.926 451.653 50.0705 451.58C50.3239 451.408 50.6254 451.501 50.7809 451.636Z" fill="#D6CD56"/>
<path d="M48.7727 451.562C48.9607 451.722 48.9934 451.974 48.981 452.252C48.9903 452.602 48.9234 452.722 48.367 452.392C47.8167 452.016 47.9162 451.579 48.0608 451.506C48.3157 451.334 48.6172 451.427 48.7727 451.562Z" fill="#D6CD56"/>
<path d="M50.5988 453.564C50.7869 453.724 50.818 453.975 50.8071 454.252C50.8165 454.602 50.7496 454.722 50.1931 454.392C49.6429 454.016 49.7424 453.581 49.8869 453.506C50.1418 453.335 50.4434 453.428 50.5988 453.564Z" fill="#D6CD56"/>
<path d="M52.7496 453.372C52.9377 453.532 52.9703 453.784 52.9595 454.061C52.9688 454.41 52.902 454.53 52.3455 454.201C51.7952 453.824 51.8947 453.389 52.0393 453.315C52.2926 453.142 52.5957 453.235 52.7496 453.372Z" fill="#D6CD56"/>
<path d="M51.3664 449.601C51.5545 449.761 51.5871 450.013 51.5747 450.291C51.584 450.641 51.5172 450.761 50.9607 450.431C50.4105 450.055 50.5099 449.618 50.6545 449.545C50.9094 449.373 51.211 449.466 51.3664 449.601Z" fill="#D6CD56"/>
<path d="M52.9059 451.005C53.094 451.165 53.1266 451.417 53.1157 451.694C53.125 452.043 53.0582 452.163 52.5017 451.833C51.9515 451.457 52.051 451.022 52.1955 450.947C52.4489 450.776 52.7504 450.87 52.9059 451.005Z" fill="#D6CD56"/>
<path d="M52.2711 445.439C52.4592 445.599 52.4918 445.85 52.4809 446.127C52.4903 446.477 52.4234 446.597 51.867 446.267C51.3167 445.891 51.4162 445.456 51.5608 445.381C51.8141 445.21 52.1157 445.303 52.2711 445.439Z" fill="#D6CD56"/>
<path d="M53.7301 447.324C53.9182 447.484 53.9508 447.736 53.9399 448.014C53.9493 448.364 53.8824 448.483 53.326 448.154C52.7757 447.778 52.8752 447.341 53.0197 447.268C53.2731 447.095 53.5747 447.188 53.7301 447.324Z" fill="#D6CD56"/>
<path d="M51.7199 447.25C51.908 447.41 51.9391 447.661 51.9282 447.94C51.9375 448.289 51.8707 448.409 51.3142 448.08C50.764 447.703 50.8635 447.267 51.008 447.194C51.2629 447.021 51.566 447.114 51.7199 447.25Z" fill="#D6CD56"/>
<path d="M53.5481 449.247C53.7361 449.407 53.7672 449.659 53.7563 449.936C53.7657 450.285 53.6988 450.405 53.1424 450.076C52.5921 449.699 52.6916 449.264 52.8361 449.19C53.0911 449.019 53.3926 449.112 53.5481 449.247Z" fill="#D6CD56"/>
<path d="M47.9723 454.122C48.1604 454.282 48.1915 454.534 48.1821 454.811C48.1915 455.16 48.1246 455.28 47.5681 454.951C47.0179 454.574 47.1174 454.138 47.2619 454.065C47.5168 453.894 47.8184 453.987 47.9723 454.122Z" fill="#D6CD56"/>
<path d="M50.6402 443.388C50.8283 443.548 50.8594 443.8 50.8501 444.076C50.8594 444.426 50.7926 444.546 50.2361 444.216C49.6859 443.84 49.7853 443.405 49.9299 443.33C50.1848 443.159 50.4848 443.253 50.6402 443.388Z" fill="#D6CD56"/>
<path d="M54.8531 451.571C55.0412 451.731 55.0739 451.983 55.063 452.26C55.0723 452.61 55.0055 452.729 54.449 452.4C53.8987 452.024 53.9982 451.588 54.1428 451.514C54.3962 451.343 54.6977 451.436 54.8531 451.571Z" fill="#D6CD56"/>
<path d="M45.7613 454.781C45.9494 454.941 45.9821 455.193 45.9712 455.471C45.9805 455.821 45.9137 455.94 45.3572 455.611C44.807 455.235 44.9064 454.799 45.051 454.725C45.3044 454.552 45.6059 454.646 45.7613 454.781Z" fill="#D6CD56"/>
<path d="M43.5621 445.71C43.7502 445.871 43.7828 446.122 43.772 446.401C43.7813 446.75 43.7145 446.87 43.158 446.54C42.6077 446.164 42.7072 445.728 42.8518 445.654C43.1051 445.48 43.4067 445.574 43.5621 445.71Z" fill="#D6CD56"/>
<path d="M56.7887 451.054C56.9768 451.214 57.0094 451.466 56.9985 451.744C57.0079 452.094 56.941 452.214 56.3845 451.884C55.8343 451.508 55.9338 451.071 56.0783 450.998C56.3333 450.824 56.6348 450.917 56.7887 451.054Z" fill="#D6CD56"/>
<path d="M55.6969 449.058C55.885 449.218 55.9176 449.47 55.9067 449.748C55.9161 450.098 55.8492 450.218 55.2928 449.888C54.7425 449.512 54.842 449.075 54.9865 449.002C55.2399 448.83 55.543 448.923 55.6969 449.058Z" fill="#D6CD56"/>
<path d="M54.3156 445.285C54.5037 445.445 54.5348 445.697 54.5239 445.975C54.5332 446.325 54.4664 446.444 53.9099 446.115C53.3597 445.739 53.4592 445.302 53.6037 445.229C53.8586 445.056 54.1602 445.149 54.3156 445.285Z" fill="#D6CD56"/>
<path d="M55.8551 446.689C56.0432 446.849 56.0758 447.1 56.0649 447.377C56.0743 447.727 56.0074 447.847 55.451 447.517C54.9007 447.141 55.0002 446.706 55.1447 446.631C55.3981 446.46 55.7012 446.553 55.8551 446.689Z" fill="#D6CD56"/>
</g>
<path d="M1440 47.5859C1440 47.5859 1428 57.1992 1417.47 51.8403C1413.23 49.6765 1408.3 48.1922 1404.12 47.8298" stroke="#D6CD56" stroke-width="0.75" stroke-miterlimit="10" stroke-linecap="round" stroke-linejoin="round"/>
<path d="M1404.29 47.8848C1404.28 47.8883 1404.27 47.3343 1400.58 50.3622C1396.82 53.4005 1397.23 53.9859 1391.77 53.9266C1386.28 53.8535 1381.52 56.9719 1380 55.9162C1380 55.9232 1382.24 53.9615 1386.58 50.5643C1390.96 47.1845 1395.43 47.519 1398.56 47.5155C1401.72 47.519 1404.29 47.8848 1404.29 47.8848Z" stroke="#D6CD56" stroke-width="0.75" stroke-miterlimit="10" stroke-linecap="round" stroke-linejoin="round"/>
<path d="M1404.29 47.8867C1404.28 47.8867 1401.24 48.6672 1396.26 49.9111C1391.2 51.1585 1391.32 50.8205 1387.65 52.3954C1383.94 53.9669 1380 55.9181 1380 55.9181" stroke="#D6CD56" stroke-width="0.75" stroke-miterlimit="10" stroke-linecap="round" stroke-linejoin="round"/>
<path d="M1410.29 51.5296C1410.29 51.5331 1410.04 51.0697 1407.38 55.2021C1404.73 59.3519 1405.34 59.7735 1400.27 61.662C1395.14 63.5296 1392.18 67.8258 1390.4 67.3414C1390.41 67.3449 1391.52 64.892 1394.16 60.4425C1396.85 56.0139 1401.4 54.6968 1404.47 53.4808C1407.59 52.2822 1410.29 51.5296 1410.29 51.5296Z" stroke="#D6CD56" stroke-width="0.75" stroke-miterlimit="10" stroke-linecap="round" stroke-linejoin="round"/>
<path d="M1410.29 51.5312C1410.28 51.5312 1407.42 53.4964 1403.06 56.4511C1398.69 59.4093 1398.69 59.0434 1395.89 61.7055C1393.08 64.364 1390.4 67.3396 1390.4 67.3431" stroke="#D6CD56" stroke-width="0.75" stroke-miterlimit="10" stroke-linecap="round" stroke-linejoin="round"/>
<path d="M1410.52 43.9895C1410.5 43.9895 1410.76 43.5819 1406.61 42.3589C1402.46 41.1429 1401.92 41.7944 1399.26 37.4634C1396.88 33.1498 1392.96 31.6969 1393.58 30C1393.57 30 1396.01 30.3937 1400.03 31.4251C1403.9 32.446 1405.14 36.1568 1406.98 38.8084C1408.68 41.4495 1410.52 43.9895 1410.52 43.9895Z" stroke="#D6CD56" stroke-width="0.6512" stroke-miterlimit="10" stroke-linecap="round" stroke-linejoin="round"/>
<path d="M1410.52 43.9895C1410.54 43.9895 1407.72 41.7422 1404.31 38.4843C1400.98 35.23 1401.43 35.1533 1398.84 33.3659C1396.31 31.5784 1393.59 30 1393.58 30" stroke="#D6CD56" stroke-width="0.6512" stroke-miterlimit="10" stroke-linecap="round" stroke-linejoin="round"/>
<path d="M1429.91 52.787C1429.92 52.7939 1429.62 52.3549 1427.26 56.672C1424.94 61.01 1425.59 61.3897 1420.71 63.7103C1415.78 66.01 1413.3 70.5256 1411.51 70.1807C1411.52 70.1877 1412.35 67.6406 1414.54 63.0099C1416.77 58.4002 1421.21 56.7277 1424.2 55.2469C1427.23 53.7904 1429.91 52.787 1429.91 52.787Z" stroke="#D6CD56" stroke-width="0.75" stroke-miterlimit="10" stroke-linecap="round" stroke-linejoin="round"/>
<path d="M1429.91 52.7891C1429.9 52.7891 1427.15 54.9946 1423.04 58.3047C1418.93 61.6149 1418.91 61.249 1416.38 64.127C1413.84 67.0016 1411.51 70.1828 1411.51 70.1863" stroke="#D6CD56" stroke-width="0.75" stroke-miterlimit="10" stroke-linecap="round" stroke-linejoin="round"/>
<path d="M1417.07 51.6359C1417.07 51.6359 1412.48 50.6394 1410.08 51.7125" stroke="#D6CD56" stroke-width="0.75" stroke-miterlimit="10" stroke-linecap="round" stroke-linejoin="round"/>
<path d="M1420.96 53.0941C1420.96 53.0941 1414.58 49.8223 1410.21 43.6133" stroke="#D6CD56" stroke-width="0.75" stroke-miterlimit="10" stroke-linecap="round" stroke-linejoin="round"/>
<path d="M122.074 -20C128.066 -6.4956 131.725 12.2093 120.206 30.7113C98.4552 65.6452 41.5294 35.7473 12.2935 39.5625C-12.8058 42.8381 7.4833 79.0501 -20 101" stroke="#D6CD56" stroke-width="0.75" stroke-miterlimit="10" stroke-linecap="round" stroke-linejoin="round"/>
<path d="M16.957 -9.62109C16.957 -9.62109 20.6154 12.0456 55.5875 21.1685" stroke="#D6CD56" stroke-width="0.75" stroke-miterlimit="10" stroke-linecap="round" stroke-linejoin="round"/>
<path d="M38.8535 14.841C38.8535 14.841 45.2938 17.9559 53.6245 13.957" stroke="#D6CD56" stroke-width="0.75" stroke-miterlimit="10" stroke-linecap="round" stroke-linejoin="round"/>
<path d="M55.6876 21.0133C55.6761 21.0133 57.4134 17.0144 64.9367 18.8703C72.326 20.776 75.0162 26.7074 75.108 26.6806C75.1157 26.6577 70.3859 28.3797 64.3474 27.6947C58.3739 26.9944 55.7641 21.0095 55.6876 21.0133Z" stroke="#D6CD56" stroke-width="0.75" stroke-miterlimit="10" stroke-linecap="round" stroke-linejoin="round"/>
<path d="M55.6875 21.0141C55.6722 21.0026 59.7706 20.6084 65.3346 22.6634C70.8642 24.7221 75.0927 26.6852 75.108 26.6776" stroke="#D6CD56" stroke-width="0.75" stroke-miterlimit="10" stroke-linecap="round" stroke-linejoin="round"/>
<path d="M39.2439 18.5289C39.2286 18.4524 43.128 18.1118 45.8717 24.4182C48.5963 30.4529 45.8411 35.7452 45.8373 35.86C45.8296 35.8945 42.1177 33.7094 39.4161 28.6888C36.6915 23.6988 39.2248 18.506 39.2439 18.5289Z" stroke="#D6CD56" stroke-width="0.75" stroke-miterlimit="10" stroke-linecap="round" stroke-linejoin="round"/>
<path d="M39.2441 18.5274C39.248 18.5083 41.8425 21.4778 43.4344 26.6592C45.0339 31.8328 45.8337 35.847 45.8375 35.8547" stroke="#D6CD56" stroke-width="0.75" stroke-miterlimit="10" stroke-linecap="round" stroke-linejoin="round"/>
<path d="M22.7018 17.7878C22.7286 17.8605 26.1841 20.4129 23.5207 27.1708C20.9262 34.1507 14.4859 36.8179 14.4706 36.7184C14.4706 36.7261 13.6134 31.5447 15.125 25.3761C16.6136 19.1271 22.6903 17.7151 22.7018 17.7878Z" stroke="#D6CD56" stroke-width="0.75" stroke-miterlimit="10" stroke-linecap="round" stroke-linejoin="round"/>
<path d="M22.7019 17.7891C22.7057 17.8197 22.5029 21.7229 19.8281 27.0764C17.1685 32.4797 14.4822 36.7427 14.4707 36.7197" stroke="#D6CD56" stroke-width="0.75" stroke-miterlimit="10" stroke-linecap="round" stroke-linejoin="round"/>
<path d="M54.02 13.9718C54.0582 13.9871 53.2699 10.2102 58.9334 7.29425C64.7423 4.44719 70.0653 7.22154 70.0079 7.1718C69.9734 7.16797 67.5244 10.589 63.1811 13.4705C58.7651 16.375 53.997 13.991 54.02 13.9718Z" stroke="#D6CD56" stroke-width="0.75" stroke-miterlimit="10" stroke-linecap="round" stroke-linejoin="round"/>
<path d="M54.0195 13.9719C54.0387 13.9796 56.4954 11.3544 61.2099 9.62096C65.9397 7.88364 70.0113 7.17188 70.0074 7.17188" stroke="#D6CD56" stroke-width="0.75" stroke-miterlimit="10" stroke-linecap="round" stroke-linejoin="round"/>
<path d="M38.559 7.23565C38.5858 7.24713 38.0003 4.43834 42.2135 2.26861C46.5339 0.152447 50.4907 2.21503 50.4486 2.17677C50.4256 2.17294 48.6003 4.72152 45.3744 6.86447C42.0911 9.02655 38.5437 7.25096 38.559 7.23565Z" stroke="#D6CD56" stroke-width="0.75" stroke-miterlimit="10" stroke-linecap="round" stroke-linejoin="round"/>
<path d="M38.5586 7.23467C38.5701 7.23849 40.3992 5.29071 43.9083 3.99729C47.425 2.70769 50.4519 2.17578 50.4519 2.17578" stroke="#D6CD56" stroke-width="0.75" stroke-miterlimit="10" stroke-linecap="round" stroke-linejoin="round"/>
<path d="M34.6992 12.4453C34.6992 12.4453 36.5399 12.7744 39.4749 18.8589" stroke="#D6CD56" stroke-width="0.75" stroke-miterlimit="10" stroke-linecap="round" stroke-linejoin="round"/>
<path d="M24.4076 3.82422C24.4076 3.82422 25.7813 9.80151 22.6855 17.4472" stroke="#D6CD56" stroke-width="0.75" stroke-miterlimit="10" stroke-linecap="round" stroke-linejoin="round"/>
<path d="M27.2441 6.72656C27.2441 6.72656 32.8617 9.58128 38.2727 7.22786" stroke="#D6CD56" stroke-width="0.75" stroke-miterlimit="10" stroke-linecap="round" stroke-linejoin="round"/>
<g opacity="0.5">
<path d="M99.1649 28.3138C99.6279 27.9197 99.7083 27.2998 99.6815 26.6186C99.7045 25.7576 99.5399 25.463 98.17 26.2742C96.8153 27.2003 97.0602 28.2718 97.4161 28.4554C98.0399 28.8802 98.7822 28.6506 99.1649 28.3138Z" fill="#D6CD56"/>
<path d="M102.753 23.681C103.216 23.2869 103.296 22.667 103.269 21.9858C103.292 21.1248 103.128 20.8301 101.758 21.6414C100.403 22.5636 100.648 23.6389 101.004 23.8226C101.628 24.2436 102.37 24.014 102.753 23.681Z" fill="#D6CD56"/>
<path d="M97.8094 23.8646C98.2724 23.4705 98.3489 22.8506 98.3221 22.1694C98.3451 21.3084 98.1806 21.0137 96.8106 21.825C95.456 22.7511 95.7009 23.8225 96.0567 24.0062C96.6843 24.4271 97.4267 24.1975 97.8094 23.8646Z" fill="#D6CD56"/>
<path d="M102.306 18.9388C102.769 18.5447 102.849 17.9248 102.822 17.2436C102.845 16.3826 102.681 16.088 101.311 16.8992C99.956 17.8253 100.201 18.8968 100.557 19.0804C101.18 19.5014 101.923 19.2718 102.306 18.9388Z" fill="#D6CD56"/>
<path d="M107.598 19.4076C108.061 19.0134 108.138 18.3935 108.111 17.7124C108.134 16.8514 107.97 16.5567 106.6 17.368C105.245 18.294 105.49 19.3655 105.846 19.5492C106.477 19.9701 107.22 19.7443 107.598 19.4076Z" fill="#D6CD56"/>
<path d="M104.195 28.6967C104.658 28.3025 104.735 27.6826 104.712 27.0014C104.735 26.1404 104.57 25.8458 103.2 26.657C101.842 27.5831 102.091 28.6546 102.447 28.8382C103.07 29.2592 103.813 29.0296 104.195 28.6967Z" fill="#D6CD56"/>
<path d="M107.985 25.2356C108.448 24.8415 108.525 24.2216 108.498 23.5366C108.521 22.6756 108.356 22.3809 106.986 23.1922C105.632 24.1182 105.877 25.1935 106.233 25.3734C106.86 25.7982 107.602 25.5686 107.985 25.2356Z" fill="#D6CD56"/>
<path d="M105.884 38.7748C106.347 38.3806 106.427 37.7607 106.4 37.0796C106.423 36.2186 106.259 35.9239 104.889 36.7352C103.534 37.6612 103.779 38.7327 104.135 38.9164C104.759 39.3373 105.501 39.1077 105.884 38.7748Z" fill="#D6CD56"/>
<path d="M109.472 34.142C109.935 33.7478 110.015 33.1279 109.988 32.4467C110.011 31.5857 109.847 31.2911 108.477 32.1023C107.122 33.0284 107.367 34.1037 107.723 34.2836C108.347 34.7045 109.089 34.4749 109.472 34.142Z" fill="#D6CD56"/>
<path d="M104.528 34.3255C104.991 33.9313 105.072 33.3114 105.045 32.6264C105.068 31.7654 104.903 31.4708 103.533 32.282C102.179 33.2081 102.424 34.2834 102.779 34.4632C103.403 34.888 104.146 34.6584 104.528 34.3255Z" fill="#D6CD56"/>
<path d="M109.02 29.3959C109.483 29.0017 109.564 28.3818 109.537 27.7007C109.56 26.8396 109.395 26.545 108.025 27.3563C106.671 28.2823 106.916 29.3538 107.272 29.5375C107.899 29.9622 108.642 29.7326 109.02 29.3959Z" fill="#D6CD56"/>
<path d="M114.317 29.8685C114.78 29.4743 114.861 28.8544 114.834 28.1694C114.857 27.3084 114.692 27.0137 113.322 27.825C111.968 28.7511 112.213 29.8264 112.568 30.0062C113.192 30.431 113.935 30.2014 114.317 29.8685Z" fill="#D6CD56"/>
<path d="M110.915 39.1592C111.378 38.7651 111.458 38.1452 111.432 37.464C111.454 36.603 111.29 36.3045 109.92 37.1196C108.565 38.0457 108.81 39.1171 109.166 39.3008C109.79 39.7218 110.532 39.4922 110.915 39.1592Z" fill="#D6CD56"/>
<path d="M114.704 35.6928C115.167 35.2986 115.247 34.6787 115.221 33.9975C115.244 33.1365 115.079 32.8419 113.709 33.6531C112.354 34.5792 112.599 35.6507 112.955 35.8343C113.579 36.2591 114.321 36.0295 114.704 35.6928Z" fill="#D6CD56"/>
<path d="M113.737 25.2787C114.2 24.8845 114.281 24.2646 114.254 23.5835C114.277 22.7225 114.112 22.4278 112.742 23.2391C111.388 24.1651 111.633 25.2366 111.988 25.4203C112.612 25.845 113.355 25.6154 113.737 25.2787Z" fill="#D6CD56"/>
<path d="M117.325 20.6458C117.788 20.2516 117.868 19.6317 117.842 18.9467C117.865 18.0857 117.7 17.7911 116.33 18.6023C114.975 19.5284 115.22 20.6037 115.576 20.7836C116.2 21.2083 116.942 20.9787 117.325 20.6458Z" fill="#D6CD56"/>
<path d="M112.382 20.8294C112.845 20.4352 112.925 19.8153 112.894 19.1303C112.917 18.2693 112.753 17.9747 111.383 18.7859C110.028 19.712 110.273 20.7873 110.629 20.9672C111.257 21.3919 111.999 21.1623 112.382 20.8294Z" fill="#D6CD56"/>
<path d="M116.878 15.9037C117.341 15.5095 117.417 14.8896 117.391 14.2085C117.413 13.3475 117.249 13.0528 115.879 13.8641C114.524 14.7901 114.769 15.8616 115.125 16.0453C115.753 16.4662 116.495 16.2366 116.878 15.9037Z" fill="#D6CD56"/>
<path d="M122.171 16.3724C122.634 15.9783 122.714 15.3584 122.687 14.6772C122.71 13.8162 122.546 13.5216 121.176 14.3328C119.821 15.2589 120.066 16.3303 120.422 16.514C121.046 16.9388 121.792 16.7092 122.171 16.3724Z" fill="#D6CD56"/>
<path d="M118.768 25.6614C119.231 25.2673 119.312 24.6473 119.281 23.9624C119.304 23.1014 119.14 22.8067 117.77 23.618C116.415 24.544 116.66 25.6193 117.016 25.7992C117.643 26.2239 118.386 25.9943 118.768 25.6614Z" fill="#D6CD56"/>
<path d="M122.557 22.2006C123.021 21.8064 123.101 21.1865 123.074 20.5053C123.097 19.6443 122.933 19.3497 121.563 20.1609C120.208 21.087 120.453 22.1585 120.809 22.3422C121.432 22.7631 122.175 22.5335 122.557 22.2006Z" fill="#D6CD56"/>
<path d="M120.995 35.9115C121.458 35.5174 121.538 34.8974 121.512 34.2163C121.535 33.3553 121.37 33.0606 120 33.8719C118.645 34.7979 118.89 35.8694 119.246 36.0531C119.87 36.474 120.612 36.2444 120.995 35.9115Z" fill="#D6CD56"/>
<path d="M124.585 31.2708C125.048 30.8766 125.128 30.2567 125.101 29.5717C125.124 28.7107 124.96 28.4161 123.59 29.2273C122.235 30.1534 122.48 31.2287 122.836 31.4086C123.46 31.8333 124.202 31.6037 124.585 31.2708Z" fill="#D6CD56"/>
<path d="M119.639 31.4544C120.102 31.0602 120.179 30.4403 120.152 29.7553C120.175 28.8943 120.011 28.5997 118.641 29.4109C117.286 30.337 117.531 31.4123 117.887 31.5922C118.514 32.0169 119.261 31.7873 119.639 31.4544Z" fill="#D6CD56"/>
<path d="M124.136 26.5287C124.599 26.1345 124.675 25.5146 124.648 24.8335C124.671 23.9725 124.507 23.6778 123.137 24.4891C121.782 25.4151 122.027 26.4866 122.383 26.6703C123.01 27.0912 123.753 26.8616 124.136 26.5287Z" fill="#D6CD56"/>
<path d="M110.413 14.5287C110.876 14.1345 110.953 13.5146 110.93 12.8335C110.953 11.9725 110.788 11.6778 109.418 12.4891C108.063 13.4151 108.308 14.4904 108.664 14.6703C109.292 15.0912 110.034 14.8616 110.413 14.5287Z" fill="#D6CD56"/>
<path d="M116.977 40.9623C117.44 40.5681 117.517 39.9482 117.494 39.2671C117.517 38.4061 117.352 38.1114 115.982 38.9227C114.628 39.8487 114.873 40.9202 115.229 41.1039C115.856 41.5248 116.595 41.2952 116.977 40.9623Z" fill="#D6CD56"/>
<path d="M127.35 20.8177C127.813 20.4236 127.894 19.8037 127.867 19.1225C127.89 18.2615 127.725 17.9669 126.356 18.7781C125.001 19.7042 125.246 20.7757 125.602 20.9593C126.225 21.3803 126.968 21.1507 127.35 20.8177Z" fill="#D6CD56"/>
<path d="M104.968 12.9114C105.431 12.5173 105.511 11.8973 105.484 11.2124C105.507 10.3514 105.343 10.0567 103.973 10.868C102.618 11.794 102.863 12.8655 103.219 13.0492C103.843 13.4739 104.585 13.2443 104.968 12.9114Z" fill="#D6CD56"/>
<path d="M99.5536 35.2395C100.017 34.8454 100.097 34.2255 100.07 33.5405C100.093 32.6795 99.9286 32.3848 98.5586 33.1961C97.204 34.1222 97.4489 35.1975 97.8048 35.3773C98.4285 35.8059 99.1709 35.5763 99.5536 35.2395Z" fill="#D6CD56"/>
<path d="M132.114 22.0872C132.577 21.6931 132.658 21.0731 132.631 20.3882C132.654 19.5271 132.489 19.2325 131.119 20.0438C129.765 20.9698 130.009 22.0451 130.365 22.225C130.993 22.6536 131.735 22.424 132.114 22.0872Z" fill="#D6CD56"/>
<path d="M129.429 27.0013C129.892 26.6071 129.972 25.9872 129.945 25.3022C129.968 24.4412 129.804 24.1466 128.434 24.9578C127.079 25.8839 127.324 26.9592 127.68 27.139C128.304 27.5638 129.05 27.3342 129.429 27.0013Z" fill="#D6CD56"/>
<path d="M126.026 36.2903C126.489 35.8962 126.566 35.2763 126.539 34.5913C126.562 33.7303 126.397 33.4356 125.027 34.2469C123.673 35.1729 123.918 36.2482 124.274 36.4281C124.901 36.8529 125.644 36.6232 126.026 36.2903Z" fill="#D6CD56"/>
<path d="M129.815 32.8295C130.278 32.4353 130.359 31.8154 130.332 31.1342C130.355 30.2732 130.19 29.9786 128.82 30.7898C127.466 31.7159 127.711 32.7874 128.067 32.9711C128.69 33.392 129.436 33.1624 129.815 32.8295Z" fill="#D6CD56"/>
</g>
<path d="M1317.56 478C1311.57 464.496 1307.91 445.791 1319.43 427.289C1341.18 392.355 1398.11 422.253 1427.34 418.438C1452.44 415.162 1432.15 378.95 1459.64 357" stroke="#D6CD56" stroke-width="0.75" stroke-miterlimit="10" stroke-linecap="round" stroke-linejoin="round"/>
<path d="M1422.68 467.621C1422.68 467.621 1419.02 445.954 1384.05 436.832" stroke="#D6CD56" stroke-width="0.75" stroke-miterlimit="10" stroke-linecap="round" stroke-linejoin="round"/>
<path d="M1400.78 443.159C1400.78 443.159 1394.34 440.044 1386.01 444.043" stroke="#D6CD56" stroke-width="0.75" stroke-miterlimit="10" stroke-linecap="round" stroke-linejoin="round"/>
<path d="M1383.95 436.987C1383.96 436.987 1382.22 440.986 1374.7 439.13C1367.31 437.224 1364.62 431.293 1364.53 431.319C1364.52 431.342 1369.25 429.62 1375.29 430.305C1381.26 431.006 1383.87 436.991 1383.95 436.987Z" stroke="#D6CD56" stroke-width="0.75" stroke-miterlimit="10" stroke-linecap="round" stroke-linejoin="round"/>
<path d="M1383.95 436.986C1383.96 436.997 1379.87 437.392 1374.3 435.337C1368.77 433.278 1364.54 431.315 1364.53 431.322" stroke="#D6CD56" stroke-width="0.75" stroke-miterlimit="10" stroke-linecap="round" stroke-linejoin="round"/>
<path d="M1400.39 439.471C1400.41 439.548 1396.51 439.888 1393.76 433.582C1391.04 427.547 1393.8 422.255 1393.8 422.14C1393.81 422.106 1397.52 424.291 1400.22 429.311C1402.95 434.301 1400.41 439.494 1400.39 439.471Z" stroke="#D6CD56" stroke-width="0.75" stroke-miterlimit="10" stroke-linecap="round" stroke-linejoin="round"/>
<path d="M1400.39 439.473C1400.39 439.492 1397.79 436.522 1396.2 431.341C1394.6 426.167 1393.8 422.153 1393.8 422.145" stroke="#D6CD56" stroke-width="0.75" stroke-miterlimit="10" stroke-linecap="round" stroke-linejoin="round"/>
<path d="M1416.93 440.212C1416.91 440.14 1413.45 437.587 1416.12 430.829C1418.71 423.849 1425.15 421.182 1425.17 421.282C1425.17 421.274 1426.02 426.455 1424.51 432.624C1423.02 438.873 1416.95 440.285 1416.93 440.212Z" stroke="#D6CD56" stroke-width="0.75" stroke-miterlimit="10" stroke-linecap="round" stroke-linejoin="round"/>
<path d="M1416.93 440.211C1416.93 440.18 1417.13 436.277 1419.81 430.924C1422.47 425.52 1425.15 421.257 1425.17 421.28" stroke="#D6CD56" stroke-width="0.75" stroke-miterlimit="10" stroke-linecap="round" stroke-linejoin="round"/>
<path d="M1385.62 444.028C1385.58 444.013 1386.37 447.79 1380.7 450.706C1374.89 453.553 1369.57 450.778 1369.63 450.828C1369.66 450.832 1372.11 447.411 1376.46 444.529C1380.87 441.625 1385.64 444.009 1385.62 444.028Z" stroke="#D6CD56" stroke-width="0.75" stroke-miterlimit="10" stroke-linecap="round" stroke-linejoin="round"/>
<path d="M1385.62 444.028C1385.6 444.02 1383.14 446.646 1378.43 448.379C1373.7 450.116 1369.63 450.828 1369.63 450.828" stroke="#D6CD56" stroke-width="0.75" stroke-miterlimit="10" stroke-linecap="round" stroke-linejoin="round"/>
<path d="M1401.08 450.764C1401.05 450.753 1401.64 453.562 1397.42 455.731C1393.1 457.848 1389.15 455.785 1389.19 455.823C1389.21 455.827 1391.04 453.278 1394.26 451.136C1397.55 448.973 1401.09 450.749 1401.08 450.764Z" stroke="#D6CD56" stroke-width="0.75" stroke-miterlimit="10" stroke-linecap="round" stroke-linejoin="round"/>
<path d="M1401.08 450.765C1401.07 450.762 1399.24 452.709 1395.73 454.003C1392.21 455.292 1389.18 455.824 1389.18 455.824" stroke="#D6CD56" stroke-width="0.75" stroke-miterlimit="10" stroke-linecap="round" stroke-linejoin="round"/>
<path d="M1404.94 445.555C1404.94 445.555 1403.1 445.226 1400.16 439.141" stroke="#D6CD56" stroke-width="0.75" stroke-miterlimit="10" stroke-linecap="round" stroke-linejoin="round"/>
<path d="M1415.23 454.176C1415.23 454.176 1413.86 448.198 1416.95 440.553" stroke="#D6CD56" stroke-width="0.75" stroke-miterlimit="10" stroke-linecap="round" stroke-linejoin="round"/>
<path d="M1412.39 451.273C1412.39 451.273 1406.77 448.419 1401.36 450.772" stroke="#D6CD56" stroke-width="0.75" stroke-miterlimit="10" stroke-linecap="round" stroke-linejoin="round"/>
<g opacity="0.5">
<path d="M1340.47 429.686C1340.01 430.08 1339.93 430.7 1339.96 431.381C1339.93 432.242 1340.1 432.537 1341.47 431.726C1342.82 430.8 1342.58 429.728 1342.22 429.545C1341.6 429.12 1340.85 429.349 1340.47 429.686Z" fill="#D6CD56"/>
<path d="M1336.88 434.319C1336.42 434.713 1336.34 435.333 1336.37 436.014C1336.34 436.875 1336.51 437.17 1337.88 436.359C1339.23 435.436 1338.99 434.361 1338.63 434.177C1338.01 433.756 1337.27 433.986 1336.88 434.319Z" fill="#D6CD56"/>
<path d="M1341.83 434.135C1341.36 434.53 1341.29 435.149 1341.31 435.831C1341.29 436.692 1341.46 436.986 1342.83 436.175C1344.18 435.249 1343.94 434.177 1343.58 433.994C1342.95 433.573 1342.21 433.802 1341.83 434.135Z" fill="#D6CD56"/>
<path d="M1337.33 439.061C1336.87 439.455 1336.79 440.075 1336.81 440.756C1336.79 441.617 1336.96 441.912 1338.33 441.101C1339.68 440.175 1339.44 439.103 1339.08 438.92C1338.46 438.499 1337.71 438.728 1337.33 439.061Z" fill="#D6CD56"/>
<path d="M1332.04 438.592C1331.58 438.987 1331.5 439.606 1331.53 440.288C1331.5 441.149 1331.67 441.443 1333.04 440.632C1334.39 439.706 1334.15 438.634 1333.79 438.451C1333.16 438.03 1332.42 438.256 1332.04 438.592Z" fill="#D6CD56"/>
<path d="M1335.44 429.303C1334.98 429.697 1334.9 430.317 1334.92 430.999C1334.9 431.86 1335.07 432.154 1336.44 431.343C1337.79 430.417 1337.55 429.345 1337.19 429.162C1336.57 428.741 1335.82 428.97 1335.44 429.303Z" fill="#D6CD56"/>
<path d="M1331.65 432.764C1331.19 433.159 1331.11 433.778 1331.14 434.463C1331.12 435.324 1331.28 435.619 1332.65 434.808C1334 433.882 1333.76 432.806 1333.4 432.627C1332.78 432.202 1332.03 432.431 1331.65 432.764Z" fill="#D6CD56"/>
<path d="M1333.75 419.225C1333.29 419.619 1333.21 420.239 1333.24 420.92C1333.21 421.781 1333.38 422.076 1334.75 421.265C1336.1 420.339 1335.86 419.267 1335.5 419.084C1334.88 418.663 1334.14 418.892 1333.75 419.225Z" fill="#D6CD56"/>
<path d="M1330.17 423.858C1329.7 424.252 1329.62 424.872 1329.65 425.553C1329.63 426.414 1329.79 426.709 1331.16 425.898C1332.51 424.972 1332.27 423.896 1331.91 423.716C1331.29 423.296 1330.55 423.525 1330.17 423.858Z" fill="#D6CD56"/>
<path d="M1335.11 423.675C1334.65 424.069 1334.57 424.689 1334.59 425.374C1334.57 426.235 1334.73 426.529 1336.1 425.718C1337.46 424.792 1337.21 423.717 1336.86 423.537C1336.23 423.112 1335.49 423.342 1335.11 423.675Z" fill="#D6CD56"/>
<path d="M1330.62 428.604C1330.15 428.998 1330.07 429.618 1330.1 430.299C1330.08 431.16 1330.24 431.455 1331.61 430.644C1332.97 429.718 1332.72 428.646 1332.37 428.463C1331.74 428.038 1331 428.267 1330.62 428.604Z" fill="#D6CD56"/>
<path d="M1325.32 428.132C1324.86 428.526 1324.78 429.146 1324.8 429.831C1324.78 430.692 1324.94 430.986 1326.31 430.175C1327.67 429.249 1327.42 428.174 1327.07 427.994C1326.44 427.569 1325.7 427.799 1325.32 428.132Z" fill="#D6CD56"/>
<path d="M1328.72 418.841C1328.26 419.235 1328.18 419.855 1328.21 420.536C1328.18 421.397 1328.35 421.695 1329.72 420.88C1331.07 419.954 1330.83 418.883 1330.47 418.699C1329.85 418.278 1329.1 418.508 1328.72 418.841Z" fill="#D6CD56"/>
<path d="M1324.93 422.307C1324.47 422.701 1324.39 423.321 1324.42 424.002C1324.39 424.863 1324.56 425.158 1325.93 424.347C1327.28 423.421 1327.04 422.349 1326.68 422.166C1326.06 421.741 1325.32 421.971 1324.93 422.307Z" fill="#D6CD56"/>
<path d="M1325.9 432.721C1325.44 433.115 1325.36 433.735 1325.38 434.417C1325.36 435.278 1325.52 435.572 1326.89 434.761C1328.25 433.835 1328 432.763 1327.65 432.58C1327.02 432.155 1326.28 432.385 1325.9 432.721Z" fill="#D6CD56"/>
<path d="M1322.31 437.354C1321.85 437.748 1321.77 438.368 1321.8 439.053C1321.77 439.914 1321.94 440.209 1323.31 439.398C1324.66 438.472 1324.42 437.396 1324.06 437.216C1323.44 436.792 1322.69 437.021 1322.31 437.354Z" fill="#D6CD56"/>
<path d="M1327.26 437.171C1326.79 437.565 1326.71 438.185 1326.74 438.87C1326.72 439.731 1326.88 440.025 1328.25 439.214C1329.61 438.288 1329.36 437.213 1329.01 437.033C1328.38 436.608 1327.64 436.838 1327.26 437.171Z" fill="#D6CD56"/>
<path d="M1322.76 442.096C1322.3 442.49 1322.22 443.11 1322.25 443.792C1322.22 444.653 1322.39 444.947 1323.76 444.136C1325.11 443.21 1324.87 442.138 1324.51 441.955C1323.88 441.534 1323.14 441.763 1322.76 442.096Z" fill="#D6CD56"/>
<path d="M1317.47 441.628C1317 442.022 1316.92 442.642 1316.95 443.323C1316.93 444.184 1317.09 444.478 1318.46 443.667C1319.82 442.741 1319.57 441.67 1319.21 441.486C1318.59 441.061 1317.84 441.291 1317.47 441.628Z" fill="#D6CD56"/>
<path d="M1320.87 432.339C1320.41 432.733 1320.32 433.353 1320.36 434.038C1320.33 434.899 1320.5 435.193 1321.87 434.382C1323.22 433.456 1322.98 432.381 1322.62 432.201C1321.99 431.776 1321.25 432.006 1320.87 432.339Z" fill="#D6CD56"/>
<path d="M1317.08 435.799C1316.62 436.194 1316.54 436.814 1316.56 437.495C1316.54 438.356 1316.7 438.65 1318.07 437.839C1319.43 436.913 1319.18 435.842 1318.83 435.658C1318.2 435.237 1317.46 435.467 1317.08 435.799Z" fill="#D6CD56"/>
<path d="M1318.64 422.088C1318.18 422.483 1318.1 423.103 1318.13 423.784C1318.1 424.645 1318.27 424.939 1319.64 424.128C1320.99 423.202 1320.75 422.131 1320.39 421.947C1319.77 421.526 1319.02 421.756 1318.64 422.088Z" fill="#D6CD56"/>
<path d="M1315.05 426.729C1314.59 427.123 1314.51 427.743 1314.54 428.428C1314.51 429.289 1314.68 429.584 1316.05 428.773C1317.4 427.847 1317.16 426.771 1316.8 426.591C1316.18 426.167 1315.43 426.396 1315.05 426.729Z" fill="#D6CD56"/>
<path d="M1320 426.546C1319.53 426.94 1319.46 427.56 1319.48 428.245C1319.46 429.106 1319.63 429.4 1321 428.589C1322.35 427.663 1322.11 426.588 1321.75 426.408C1321.12 425.983 1320.38 426.213 1320 426.546Z" fill="#D6CD56"/>
<path d="M1315.5 431.471C1315.04 431.865 1314.96 432.485 1314.99 433.167C1314.97 434.028 1315.13 434.322 1316.5 433.511C1317.85 432.585 1317.61 431.513 1317.25 431.33C1316.63 430.909 1315.88 431.138 1315.5 431.471Z" fill="#D6CD56"/>
<path d="M1329.22 443.471C1328.76 443.865 1328.68 444.485 1328.71 445.167C1328.68 446.028 1328.85 446.322 1330.22 445.511C1331.57 444.585 1331.33 443.51 1330.97 443.33C1330.34 442.909 1329.6 443.138 1329.22 443.471Z" fill="#D6CD56"/>
<path d="M1322.66 417.038C1322.2 417.432 1322.12 418.052 1322.14 418.733C1322.12 419.594 1322.28 419.889 1323.65 419.077C1325.01 418.151 1324.76 417.08 1324.41 416.896C1323.78 416.475 1323.04 416.705 1322.66 417.038Z" fill="#D6CD56"/>
<path d="M1312.29 437.182C1311.82 437.576 1311.74 438.196 1311.77 438.877C1311.75 439.738 1311.91 440.033 1313.28 439.222C1314.64 438.296 1314.39 437.224 1314.04 437.041C1313.41 436.62 1312.67 436.849 1312.29 437.182Z" fill="#D6CD56"/>
<path d="M1334.67 445.089C1334.21 445.483 1334.13 446.103 1334.15 446.788C1334.13 447.649 1334.29 447.943 1335.66 447.132C1337.02 446.206 1336.77 445.134 1336.42 444.951C1335.79 444.526 1335.05 444.756 1334.67 445.089Z" fill="#D6CD56"/>
<path d="M1340.08 422.76C1339.62 423.155 1339.54 423.775 1339.57 424.46C1339.54 425.321 1339.71 425.615 1341.08 424.804C1342.43 423.878 1342.19 422.803 1341.83 422.623C1341.21 422.194 1340.47 422.424 1340.08 422.76Z" fill="#D6CD56"/>
<path d="M1307.52 435.913C1307.06 436.307 1306.98 436.927 1307.01 437.612C1306.98 438.473 1307.15 438.768 1308.52 437.956C1309.87 437.03 1309.63 435.955 1309.27 435.775C1308.64 435.346 1307.9 435.576 1307.52 435.913Z" fill="#D6CD56"/>
<path d="M1310.21 430.999C1309.75 431.393 1309.66 432.013 1309.69 432.698C1309.67 433.559 1309.83 433.853 1311.2 433.042C1312.56 432.116 1312.31 431.041 1311.96 430.861C1311.33 430.436 1310.59 430.666 1310.21 430.999Z" fill="#D6CD56"/>
<path d="M1313.61 421.71C1313.15 422.104 1313.07 422.724 1313.1 423.409C1313.07 424.27 1313.24 424.564 1314.61 423.753C1315.96 422.827 1315.72 421.752 1315.36 421.572C1314.74 421.147 1313.99 421.377 1313.61 421.71Z" fill="#D6CD56"/>
<path d="M1309.82 425.171C1309.36 425.565 1309.28 426.185 1309.3 426.866C1309.28 427.727 1309.45 428.021 1310.82 427.21C1312.17 426.284 1311.93 425.213 1311.57 425.029C1310.95 424.608 1310.2 424.838 1309.82 425.171Z" fill="#D6CD56"/>
</g>
</svg>
