<svg width="375" height="212" viewBox="0 0 375 212" fill="none" xmlns="http://www.w3.org/2000/svg">
<path d="M25.5934 211.464C25.5934 211.464 -16.1425 166.847 18.5354 118.54C49.3032 75.6806 85.176 78.6093 111.494 96.0027C122.704 103.411 155.022 96.9155 182.53 53.3037C220.042 -6.1711 350.073 29.9001 326.365 121.404C314.891 165.685 361.283 167.295 337.645 211.558L25.5934 211.464Z" fill="#DCEFE4"/>
<path d="M364.039 152.24C361.1 141.435 342.789 144.812 342.789 144.812C342.789 144.812 330.356 163.719 326.74 164.17C323.122 164.62 334.2 145.937 334.2 145.937C327.192 145.263 309.334 153.816 309.334 153.816C309.334 153.816 310.464 175.874 306.848 175.425C303.23 174.974 306.848 155.842 306.848 155.842C300.065 157.868 293.737 165.745 293.737 165.745C285.824 178.575 302.779 188.029 302.779 188.029C302.779 188.029 303.005 195.682 298.258 204.46C298.258 204.46 297.186 206.081 296.098 208.837H297.947C298.098 208.343 298.264 207.866 298.449 207.407C298.449 207.403 298.45 207.401 298.453 207.399C298.455 207.393 298.458 207.386 298.461 207.38C298.587 207.095 298.769 206.691 298.996 206.198L298.998 206.197C298.998 206.195 298.999 206.195 298.999 206.194C299.563 205.093 299.946 204.279 300.186 203.693C300.187 203.691 300.187 203.689 300.187 203.687C301.88 200.232 304.319 195.727 305.944 194.784C305.944 194.784 305.74 194.497 305.549 193.939C305.675 194.209 305.806 194.49 305.944 194.784C309.109 201.537 324.932 202.662 333.75 200.861C342.566 199.06 338.723 196.585 333.976 192.566C329.228 188.547 319.282 189.606 316.344 188.03C313.405 186.455 317.7 184.879 323.577 185.329C329.455 185.78 332.393 191.632 341.888 192.532C351.383 193.432 358.617 175.65 358.617 175.65C352.061 177.676 340.306 174.074 339.855 171.824C339.402 169.574 356.809 169.798 359.522 169.123C362.23 168.446 366.978 163.044 364.039 152.24Z" fill="#D6CC5F"/>
<path d="M114.495 155.188C114.495 155.188 115.302 161.606 114.094 161.683C112.885 161.759 113.712 154.466 113.712 154.466C113.712 154.466 107.965 151.267 105.627 151.349C105.627 151.349 108.918 157.77 107.728 157.547C106.538 157.325 102.801 150.802 102.801 150.802C102.801 150.802 96.7977 149.31 95.6027 152.834C94.4077 156.357 95.8705 158.245 96.7573 158.525C97.6429 158.803 103.42 159.082 103.224 159.82C103.027 160.556 99.0563 161.513 96.9225 160.708C96.9225 160.708 98.9575 166.752 102.125 166.645C105.293 166.539 106.386 164.658 108.344 164.628C110.303 164.598 111.695 165.208 110.688 165.67C109.681 166.134 106.404 165.58 104.748 166.816C103.091 168.053 101.766 168.796 104.653 169.571C107.539 170.347 112.811 170.295 113.998 168.12C114.05 168.026 114.1 167.935 114.146 167.848C114.071 168.029 113.998 168.12 113.998 168.12C114.518 168.466 115.235 170.01 115.725 171.19C115.793 171.389 115.903 171.668 116.068 172.046C116.135 172.217 116.187 172.355 116.223 172.452C117.095 175.083 116.276 179.484 116.276 179.484L116.89 179.69C118.549 175.306 116.348 171.486 116.348 171.486C114.953 168.479 115.184 165.945 115.184 165.945C115.184 165.945 121 163.153 118.639 158.738C118.64 158.738 116.701 155.997 114.495 155.188Z" fill="#EBE6B0"/>
<path d="M71.0035 183.836C70.4821 175.919 83.5397 173.998 83.5397 173.998C83.5397 173.998 96.2372 183.834 98.7663 183.308C101.295 182.784 89.5602 172.789 89.5602 172.789C94.1034 170.734 108.051 172.386 108.051 172.386C108.051 172.386 112.379 187.436 114.7 186.307C117.021 185.178 110.184 173.176 110.184 173.176C115.2 172.984 121.26 176.819 121.26 176.819C129.524 183.614 120.336 193.829 120.336 193.829C120.336 193.829 121.949 199.012 127.156 203.814C127.156 203.814 128.248 204.656 129.613 206.255L128.374 206.677C128.16 206.38 127.937 206.098 127.709 205.834C127.707 205.831 127.706 205.83 127.705 205.829C127.701 205.825 127.698 205.821 127.694 205.817C127.543 205.655 127.329 205.426 127.062 205.146L127.061 205.145C127.061 205.144 127.06 205.145 127.06 205.144C126.426 204.534 125.983 204.077 125.687 203.738C125.685 203.737 125.685 203.735 125.684 203.734C123.752 201.803 121.078 199.341 119.77 199.079C119.77 199.079 119.842 198.841 119.84 198.423C119.818 198.633 119.795 198.85 119.77 199.079C119.205 204.331 108.854 208.703 102.527 209.511C96.1995 210.319 98.2059 207.78 100.462 204.001C102.718 200.221 109.633 198.657 111.24 196.929C112.847 195.2 109.604 195.125 105.767 196.771C101.93 198.416 101.308 203.013 95.1502 205.787C88.9906 208.562 80.0406 198.292 80.0406 198.292C84.9038 198.152 91.9553 193.05 91.7395 191.437C91.5236 189.823 79.9041 193.955 77.9289 194.122C75.9525 194.29 71.5236 191.754 71.0035 183.836Z" fill="#D6CC5F"/>
<path d="M315.533 41.8468C315.533 41.8468 314.142 40.8006 313.781 39.2366C313.515 38.0765 314.183 36.6199 314.238 36.5539L312.373 36.1836C312.373 36.1836 311.82 38.6475 312.755 40.2866C313.041 40.789 313.874 41.4803 314.408 41.738C314.998 42.0228 315.533 41.8468 315.533 41.8468Z" fill="#6BB7BF"/>
<path d="M318.773 40.7164L320.47 42.6495C320.47 42.6495 315.675 43.917 312.934 40.5391C312.932 40.5391 316.97 41.8985 318.773 40.7164Z" fill="#86D1CD"/>
<path d="M231.327 16.4524C231.327 16.4524 233.058 13.5923 236.112 15.3428L237.786 13.5302C237.786 13.5302 236.038 12.3779 232.343 14.8832C229.923 16.5223 231.327 16.4524 231.327 16.4524Z" fill="#F99746"/>
<path d="M229.615 19.2583C229.615 19.2583 229.034 16.1406 234.19 13.8398C234.19 13.8398 232.341 14.8847 231.955 18.0542L229.615 19.2583Z" fill="#F99746"/>
<path d="M124.545 109.29C124.545 109.29 121.711 108.178 122.824 105.191L120.941 103.973C120.941 103.973 120.168 105.705 122.981 108.622C124.82 110.532 124.545 109.29 124.545 109.29Z" fill="#5685D8"/>
<path d="M127.327 110.389C127.327 110.389 124.609 111.378 121.762 107.129C121.762 107.129 122.98 108.62 125.89 108.486L127.327 110.389Z" fill="#739AF0"/>
<path d="M132.711 70.1569C132.711 70.1569 134.275 69.1729 134.44 67.9844C134.44 67.9844 135.963 68.0659 136.293 68.5579C136.293 68.5579 135.594 70.5259 134.771 70.8949C134.769 70.8949 132.918 71.0179 132.711 70.1569Z" fill="#F1A34F"/>
<path d="M30.0247 141.263C30.0247 141.263 28.3564 140.213 28.1796 138.945C28.1796 138.945 26.5542 139.033 26.2031 139.558C26.2031 139.558 26.9495 141.656 27.8285 142.05C27.8298 142.05 29.8063 142.181 30.0247 141.263Z" fill="#F1A34F"/>
<path d="M217.032 48.6079C217.032 48.6079 214.7 47.1423 214.456 45.3711C214.456 45.3711 212.186 45.4928 211.695 46.2256C211.695 46.2256 212.738 49.1569 213.966 49.7072C213.964 49.7072 216.725 49.891 217.032 48.6079Z" fill="#86D1CD"/>
<path d="M360.248 41.8187L374.739 86.9945C375.378 88.9871 374.263 91.1402 372.261 91.7772L292.67 117.089C290.669 117.726 288.506 116.615 287.866 114.623L273.376 69.447C272.736 67.4544 273.852 65.3013 275.853 64.6642L355.445 39.3522C357.446 38.7139 359.608 39.8248 360.248 41.8187Z" fill="#86D1CD"/>
<path d="M316.364 75.8059C315.537 76.07 314.758 76.1178 314.028 75.9494C313.306 75.7782 312.667 75.409 312.112 74.8417C311.565 74.2716 311.14 73.5156 310.837 72.5739C310.537 71.6411 310.456 70.7803 310.594 69.9916C310.732 69.2029 311.058 68.5256 311.572 67.9598C312.092 67.3822 312.774 66.9586 313.619 66.6889C314.535 66.3965 315.329 66.3341 316 66.5017C316.678 66.6576 317.299 67.0326 317.863 67.6265L316.744 68.6744C316.418 68.2397 316.02 67.9649 315.552 67.85C315.09 67.7233 314.583 67.748 314.031 67.924C313.205 68.188 312.631 68.6897 312.31 69.4289C311.989 70.1682 311.996 71.0576 312.331 72.097C312.671 73.1542 313.166 73.8977 313.814 74.3275C314.468 74.7456 315.249 74.8099 316.156 74.5203C316.814 74.3102 317.317 73.9685 317.664 73.495C318.009 73.0126 318.071 72.4294 317.851 71.7453L317.769 71.4921L315.209 72.3097L314.835 71.1504L318.663 69.9282L320.122 74.459L319.055 74.7997L318.628 73.6574C318.505 74.1572 318.252 74.5906 317.87 74.9575C317.497 75.3216 316.995 75.6044 316.364 75.8059ZM320.094 65.8853C319.783 65.9847 319.518 65.9858 319.301 65.8888C319.089 65.7799 318.938 65.5834 318.846 65.2991C318.755 65.0148 318.764 64.7716 318.876 64.5695C318.996 64.3645 319.212 64.2123 319.523 64.113C319.825 64.0165 320.081 64.0182 320.29 64.1181C320.507 64.2152 320.662 64.4059 320.753 64.6901C320.845 64.9744 320.832 65.2235 320.714 65.4374C320.603 65.6395 320.396 65.7888 320.094 65.8853ZM321.161 66.779L323.307 73.442L321.88 73.8976L319.734 67.2347L321.161 66.779ZM327.131 64.8729L327.491 65.9923L325.371 66.6694L327.156 72.213L325.729 72.6686L323.944 67.125L322.69 67.5253L322.33 66.406L323.583 66.0057L323.274 65.0462C323.057 64.371 323.092 63.7816 323.381 63.2778C323.679 62.7713 324.188 62.403 324.908 62.1731C325.477 61.9914 325.934 61.9631 326.278 62.0883L326.342 63.1996C326.224 63.1686 326.099 63.1597 325.966 63.1728C325.83 63.177 325.682 63.2047 325.522 63.2558C325.148 63.375 324.886 63.5517 324.736 63.7858C324.586 64.0199 324.573 64.3279 324.696 64.7099L324.97 65.5628L327.131 64.8729ZM331.741 63.4009L332.101 64.5203L329.807 65.2528L330.949 68.7975C331.052 69.1173 331.218 69.3288 331.447 69.4319C331.674 69.5262 331.929 69.5279 332.214 69.437C332.463 69.3575 332.66 69.2553 332.806 69.1303C332.958 68.9935 333.089 68.8344 333.197 68.6529L333.852 69.5901C333.704 69.8331 333.497 70.0561 333.229 70.2592C332.967 70.4507 332.654 70.6046 332.289 70.721C331.702 70.9083 331.163 70.9238 330.671 70.7672C330.177 70.6018 329.819 70.1771 329.599 69.493L328.38 65.7084L327.1 66.1172L326.739 64.9979L328.02 64.589L327.518 63.0299L328.816 62.1745L329.447 64.1334L331.741 63.4009ZM320.829 88.4572C320.82 89.3419 320.559 90.1011 320.048 90.7348C319.533 91.3596 318.845 91.8097 317.982 92.085C317.129 92.3576 316.332 92.4111 315.592 92.2456C314.862 92.0772 314.219 91.7094 313.663 91.1421C313.105 90.5659 312.676 89.8114 312.375 88.8786C312.075 87.9458 311.985 87.0878 312.105 86.3048C312.223 85.5128 312.53 84.8368 313.026 84.2767C313.531 83.7137 314.206 83.2974 315.05 83.0277C315.922 82.7494 316.718 82.6959 317.44 82.8671C318.162 83.0383 318.771 83.4367 319.267 84.0622L318.113 85.092C317.449 84.1871 316.588 83.9036 315.53 84.2414C314.703 84.5054 314.133 85.0057 313.821 85.7421C313.516 86.4668 313.531 87.3533 313.869 88.4017C314.204 89.4411 314.7 90.1743 315.357 90.6013C316.014 91.0283 316.765 91.1069 317.61 90.8372C318.152 90.664 318.575 90.3773 318.877 89.977C319.186 89.5649 319.334 89.0521 319.323 88.4385L320.829 88.4572ZM325.361 84.8645C325.218 84.4203 324.983 84.118 324.657 83.9576C324.337 83.7855 323.963 83.7676 323.537 83.9039C323.137 84.0316 322.82 84.2356 322.586 84.5159C322.362 84.7933 322.255 85.1607 322.265 85.6179L320.901 85.4948C320.896 84.899 321.085 84.3586 321.468 83.8738C321.86 83.3861 322.447 83.0173 323.229 82.7675C323.754 82.6 324.249 82.5398 324.716 82.5869C325.188 82.6222 325.597 82.7807 325.942 83.0622C326.294 83.332 326.556 83.7335 326.727 84.2665L327.684 87.2382C327.79 87.5669 328.008 87.6787 328.337 87.5737C328.497 87.5226 328.645 87.4507 328.782 87.358L329.02 88.3697C328.847 88.5327 328.604 88.6639 328.293 88.7633C327.938 88.8768 327.605 88.8948 327.296 88.8172C326.986 88.7396 326.736 88.5551 326.544 88.2637C326.436 88.6605 326.21 89.0072 325.864 89.3038C325.515 89.5915 325.141 89.7992 324.741 89.9269C324.11 90.1285 323.537 90.145 323.021 89.9763C322.506 89.8077 322.151 89.4213 321.957 88.8172C321.799 88.3286 321.829 87.8733 322.046 87.4513C322.272 87.0264 322.663 86.6567 323.219 86.3421L325.442 85.1177L325.361 84.8645ZM323.363 88.2507C323.443 88.4995 323.601 88.6695 323.836 88.761C324.077 88.8406 324.358 88.8294 324.678 88.7272C324.98 88.6307 325.249 88.4909 325.485 88.3081C325.72 88.1252 325.882 87.8971 325.97 87.6239C326.068 87.3479 326.059 87.0322 325.945 86.6768L325.764 86.1171L324.196 87.0002C323.836 87.1933 323.584 87.3863 323.441 87.5792C323.306 87.7692 323.28 87.9931 323.363 88.2507ZM330.173 88.0456L328.027 81.3826L329.241 80.9951L329.76 82.1518C329.839 81.147 330.393 80.48 331.425 80.1506C331.558 80.1081 331.696 80.0788 331.838 80.0629C331.977 80.038 332.098 80.0337 332.201 80.0497L332.405 81.3662C332.295 81.3619 332.176 81.3707 332.045 81.3927C331.921 81.403 331.757 81.4407 331.552 81.506C331.268 81.5969 331.017 81.7604 330.799 81.9966C330.587 82.2211 330.44 82.5127 330.36 82.8716C330.285 83.2187 330.319 83.6143 330.462 84.0585L331.6 87.5899L330.173 88.0456ZM337.812 85.7534C337.26 85.9294 336.718 85.9507 336.185 85.8172C335.652 85.6838 335.169 85.402 334.736 84.9719C334.312 84.5389 333.984 83.9627 333.753 83.2431C333.512 82.4968 333.447 81.8221 333.557 81.2188C333.666 80.6155 333.91 80.1068 334.286 79.6926C334.66 79.2696 335.122 78.9701 335.673 78.7941C336.153 78.6408 336.609 78.6228 337.039 78.7403C337.475 78.846 337.842 79.057 338.14 79.3733L336.818 75.2689L338.245 74.8133L341.356 84.4746L340.089 84.8791L339.602 83.6387C339.567 84.1397 339.385 84.5799 339.056 84.9592C338.724 85.3297 338.31 85.5944 337.812 85.7534ZM337.749 84.5094C338.309 84.3305 338.69 83.974 338.89 83.4397C339.091 82.9053 339.071 82.2651 338.831 81.5188C338.607 80.8259 338.264 80.3379 337.8 80.0549C337.343 79.7601 336.847 79.6979 336.313 79.8683C335.718 80.0585 335.321 80.4104 335.124 80.9241C334.927 81.4378 334.944 82.0545 335.175 82.7741C335.407 83.4937 335.75 84.0112 336.205 84.3265C336.657 84.633 337.171 84.6939 337.749 84.5094Z" fill="white"/>
<path d="M303.162 81.0156H257.848V210.98H303.162V81.0156Z" fill="#3D7E77"/>
<path d="M257.848 81.0156H138.133V210.98H257.848V81.0156Z" fill="#40857E"/>
<path d="M257.848 153.691V144.594L138.132 144.594V153.691L257.848 153.691Z" fill="#D6CC5F"/>
<path d="M303.162 153.691V144.594H257.848V153.691H303.162Z" fill="#CFC447"/>
<path d="M220.672 82.4082C220.672 82.4082 247.719 64.9086 266.104 70.5316L262.311 74.0585L264.019 79.9858C264.019 79.9858 243.576 73.3567 220.113 83.4052L220.672 82.4082Z" fill="#C5BA3E"/>
<path d="M219.159 78.4462C219.159 78.4462 214.387 77.8713 207.275 76.8977C188.393 74.3108 153.026 68.9014 146.678 63.8947C136.703 56.0292 160.339 22.6264 170.571 17.99C180.802 13.3574 219.159 78.4462 219.159 78.4462Z" fill="#D6CC5F"/>
<path d="M293.99 36.8501C295.695 45.126 218.459 80.8761 218.459 80.8761C218.459 80.8761 219.865 77.0929 222.151 71.1682C222.151 71.1682 222.154 71.163 222.157 71.1579C230.506 49.5216 250.623 -0.688124 257.233 0.00714764C257.897 0.0757685 258.674 0.312704 259.541 0.690766C269.694 5.13817 292.419 29.2293 293.99 36.8501Z" fill="#D6CC5F"/>
<path d="M258.888 8.04873C254.172 16.2068 222.647 70.315 222.154 71.1579C230.505 49.5216 250.622 -0.688124 257.231 0.00714764C257.231 0.00714764 258.541 -0.0303996 259.539 0.690766C260.745 1.56471 261.492 3.54306 258.888 8.04873Z" fill="#A49B34"/>
<path d="M207.289 76.8983H207.276C188.394 74.3114 153.027 68.902 146.679 63.8953C143.813 55.8563 151.25 55.2012 156.663 54.6354C162.071 54.0683 207.289 76.8983 207.289 76.8983Z" fill="#A49B34"/>
<path d="M204.756 81.0043C204.756 81.0043 209.086 71.1967 217.607 70.6542C226.507 70.0871 231.562 81.0043 231.562 81.0043H204.756Z" fill="#A49B34"/>
<path d="M259.769 81.0156H134.504V98.8907H259.769V81.0156Z" fill="#D6CC5F"/>
<path d="M306.984 81.0156H259.77V98.8907H306.984V81.0156Z" fill="#CFC447"/>
<path d="M209.142 79.5193C209.142 79.5193 184.608 71.7807 168.053 76.8975C148.969 82.795 150.101 106.24 150.101 106.24L154.589 104.403L160.649 107.233C160.649 107.233 161.671 82.4066 177.229 78.9302C190.681 75.9251 209.142 79.5193 209.142 79.5193Z" fill="#C5BA3E"/>
<path d="M196.558 81.0156H187.422V210.965H196.558V81.0156Z" fill="#D6CC5F"/>
<path d="M112.694 42.0016L104.307 44.8008L112.404 68.8557L120.791 66.0565L112.694 42.0016Z" fill="#3D7E77"/>
<path d="M104.307 44.8004L82.1484 52.1953L90.2454 76.2502L112.404 68.8553L104.307 44.8004Z" fill="#40857E"/>
<path d="M108.828 58.2534L108.262 56.5703L86.1031 63.9652L86.6697 65.6483L108.828 58.2534Z" fill="#D6CC5F"/>
<path d="M117.215 55.4566L116.648 53.7734L108.261 56.5726L108.827 58.2558L117.215 55.4566Z" fill="#CFC447"/>
<path d="M98.1848 46.4309C98.1848 46.4309 103.944 41.094 109.072 40.6797L108.339 41.6248L109.189 42.5778C109.189 42.5778 103.461 42.9688 98.1094 46.6575L98.1848 46.4309Z" fill="#C5BA3E"/>
<path d="M96.9804 46.715C96.9804 46.715 96.0611 46.904 94.684 47.1629C91.0276 47.8505 84.1451 49.0338 82.6588 48.4991C80.3222 47.6601 82.6159 40.0173 84.2218 38.5271C85.8264 37.0368 96.9804 46.715 96.9804 46.715Z" fill="#D6CC5F"/>
<path d="M108.239 34.3955C109.07 35.8223 97.002 47.2095 97.002 47.2095C97.002 47.2095 97.0267 46.4223 97.08 45.1846C97.08 45.1846 97.08 45.1833 97.08 45.182C97.2776 40.6621 97.8732 30.1255 99.1397 29.8459C99.2671 29.8174 99.4257 29.8135 99.6091 29.8303C101.768 30.0258 107.475 33.0814 108.239 34.3955Z" fill="#D6CC5F"/>
<path d="M99.9492 31.2316C99.5851 33.0326 97.121 44.9946 97.082 45.1811C97.2797 40.6611 97.8752 30.1246 99.1417 29.845C99.1417 29.845 99.3823 29.7569 99.6111 29.8294C99.8894 29.9162 100.151 30.2373 99.9492 31.2316Z" fill="#A49B34"/>
<path d="M94.6875 47.1591L94.6849 47.1604C91.0284 47.8479 84.1459 49.0313 82.6596 48.4966C81.6285 47.1863 82.9639 46.6049 83.93 46.166C84.8962 45.7258 94.6875 47.1591 94.6875 47.1591Z" fill="#A49B34"/>
<path d="M94.4746 48.0782C94.4746 48.0782 94.6645 45.995 96.2079 45.3683C97.8203 44.7132 99.4353 46.4222 99.4353 46.4222L94.4746 48.0782Z" fill="#A49B34"/>
<path d="M104.662 44.6843L81.4766 52.4219L82.5902 55.7304L105.776 47.9928L104.662 44.6843Z" fill="#D6CC5F"/>
<path d="M113.401 41.7671L104.662 44.6836L105.776 47.9922L114.515 45.0757L113.401 41.7671Z" fill="#CFC447"/>
<path d="M95.195 47.5312C95.195 47.5312 90.1719 47.6141 87.427 49.5834C84.262 51.8531 85.9329 56.1231 85.9329 56.1231L86.6494 55.5055L87.9471 55.6557C87.9471 55.6557 86.5896 50.9972 89.2526 49.3931C91.5542 48.0064 95.195 47.5312 95.195 47.5312Z" fill="#C5BA3E"/>
<path d="M92.9619 48.5882L91.2715 49.1523L99.4383 73.4147L101.129 72.8506L92.9619 48.5882Z" fill="#D6CC5F"/>
<path d="M258.795 94.8032C258.795 94.8032 255.478 96.7492 257.513 100.518C257.513 100.518 254.61 99.9887 253.983 99.1264C253.983 99.1264 254.056 99.4863 254.164 99.6676C254.164 99.6676 251.494 99.0655 250.62 97.9559C249.747 96.8463 254.03 83.5598 260.97 87.0012C260.97 87.0012 267.315 88.1729 264.83 95.1878C262.345 102.203 264.694 102.822 264.694 102.822C264.694 102.822 263.955 102.97 263.64 102.886C263.64 102.886 263.226 102.59 263.202 102.311C263.202 102.311 263.187 102.733 263.272 102.891C263.272 102.891 260.673 102.462 259.66 101.176C258.647 99.8903 258.041 96.1873 258.795 94.8032Z" fill="#233862"/>
<path d="M254.006 106.098C254.002 106.099 253.998 106.1 253.994 106.102C253.973 106.1 253.977 106.098 254.006 106.098Z" fill="#FFB27D"/>
<path d="M262.068 103.789C262.165 104.659 262.282 105.438 262.333 105.81C262.45 106.642 254.512 106.101 254.006 106.1C254.358 105.947 255.435 102.546 255.777 101.25C256.19 99.6766 256.514 97.9766 256.514 97.9766L262.118 98.3287L262.451 98.3494C262.245 99.1107 262.098 99.8293 261.995 100.496C261.982 100.585 261.969 100.677 261.957 100.765C261.856 101.503 261.947 102.714 262.068 103.789Z" fill="#FFB27D"/>
<path d="M255.739 97.4091C255.739 97.4091 254.83 94.5399 255.015 92.3389C255.146 90.7684 257.392 85.4095 262.792 87.6895C262.792 87.6895 264.38 88.2786 265.638 89.7132C266.64 90.8538 267.927 93.0872 264.671 97.4207L263.724 98.9252L255.739 97.4091Z" fill="#233862"/>
<path d="M262.067 103.786C258.147 102.642 256.482 98.1328 256.482 98.1328C258.14 98.1807 260.301 99.3278 261.996 100.492C261.983 100.581 261.97 100.673 261.958 100.761C261.855 101.5 261.946 102.711 262.067 103.786Z" fill="#ED975D"/>
<path d="M262.344 102.2C262.344 102.2 255.262 100.458 256.419 96.0816C257.577 91.7067 257.443 88.5346 262.014 89.4629C266.586 90.3912 267.019 92.2906 266.989 93.8443C266.959 95.3979 264.217 102.541 262.344 102.2Z" fill="#FFB27D"/>
<path d="M265.256 90.2055C265.256 90.2055 261.961 94.8277 258.795 94.8057C255.63 94.7836 254.555 93.6534 254.555 93.6534C254.555 93.6534 257.306 92.4544 258.612 89.4403C258.612 89.4403 264.449 87.3791 265.256 90.2055Z" fill="#233862"/>
<path d="M264.666 90.4953C264.666 90.4953 265.804 92.0218 265.858 93.2272C265.914 94.4339 265.462 96.7683 266.155 96.8679C266.155 96.8679 268.537 93.7632 267.427 91.3589C266.25 88.8108 264.666 90.4953 264.666 90.4953Z" fill="#233862"/>
<path d="M264.888 90.7397C264.888 90.7397 262.083 95.7516 257.887 96.487C257.887 96.487 262.504 94.1707 263.764 90.7073C265.024 87.2426 264.888 90.7397 264.888 90.7397Z" fill="#233862"/>
<path d="M261.238 99.3966C261.238 99.3966 261.327 100.063 261.753 100.22C262.18 100.378 263.312 100.663 263.428 100.593C263.542 100.522 263.968 100.003 263.968 100.003C263.968 100.003 262.181 99.3202 261.238 99.3966Z" fill="white"/>
<path d="M258.595 166.33C258.505 166.704 258.415 167.074 258.325 167.442C257.791 169.652 257.294 171.7 256.981 173.414C256.574 175.647 256.478 177.306 257.012 178.004C259.212 180.876 257.012 203.667 257.012 203.667L254.509 206.235C254.509 206.235 250.157 183.733 248.976 180.208C248.439 178.605 247.658 171.76 246.967 164.771C246.932 164.421 246.898 164.072 246.865 163.722C246.745 162.5 246.631 161.282 246.519 160.094C245.9 153.482 245.436 147.82 245.436 147.82C245.436 147.82 250.052 144.589 254.246 144.229C256.717 144.014 259.042 144.797 260.189 147.82C261.861 152.218 260.167 159.813 258.595 166.33Z" fill="#FFB27D"/>
<path d="M258.595 166.327C255.165 163.861 250.339 159.471 248.588 152.275C248.252 148.698 251.086 145.299 254.247 144.225C256.717 144.01 259.042 144.793 260.189 147.816C261.861 152.216 260.167 159.811 258.595 166.327Z" fill="#ED975D"/>
<path d="M271.103 122.867L287.96 127.203V129.163C287.96 129.163 271.185 128.968 270.103 127.107C269.02 125.244 271.103 122.867 271.103 122.867Z" fill="#FFB27D"/>
<path d="M287.958 187.47L287.17 190.709C287.17 190.709 264.367 178.982 261.418 176.73C260.233 175.825 258.668 170.912 257.218 165.352C255.058 157.067 253.154 147.349 253.154 147.349C253.154 147.349 256.352 135.107 264.908 142.6C270.028 147.083 269.233 155.723 268.671 162.441C268.298 166.95 268.029 170.594 269.727 171.54C273.039 173.381 282.758 181.86 285.835 187.693L287.958 187.47Z" fill="#FFB27D"/>
<path d="M249.277 133.052C243.321 131.543 236.775 122.343 236.775 122.343L238.453 120.894C240.189 122.932 247.407 126.442 247.407 126.442C247.368 124.576 247.417 122.876 247.535 121.328C248.336 110.804 252.321 107.299 253.408 106.529C253.583 106.405 253.683 106.352 253.683 106.352C253.683 106.352 253.687 106.428 253.694 106.573C253.709 106.885 253.738 107.516 253.768 108.38C253.989 114.823 254.253 134.314 249.277 133.052Z" fill="#FFB27D"/>
<path d="M253.993 120.424C253.685 127.931 252.556 135.366 249.274 134.887C245.251 134.301 244.203 130.562 243.988 127.782C243.856 126.053 244.047 124.694 244.047 124.694C244.047 124.694 246.027 124.685 246.347 124.392C247.868 122.993 247.416 109.274 248.169 107.85C248.922 106.426 253.807 105.512 253.807 105.512C253.807 105.512 254.3 113.004 253.993 120.424Z" fill="#F4E4DD"/>
<path d="M253.993 120.426C253.685 127.933 252.556 135.368 249.274 134.889C245.251 134.303 244.203 130.564 243.988 127.784C244.977 127.735 246.715 127.494 247.407 126.446C248.396 124.944 251.483 115.273 251.483 115.273C251.483 115.273 252.696 117.445 253.993 120.426Z" fill="#EAD0C5"/>
<path d="M279.375 122.869C280.466 124.411 279.865 127.402 277.578 129.809C276.158 131.304 274.233 132.188 271.102 131.729C269.737 131.528 265.924 129.385 265.522 126.771C265.451 126.297 265.411 126.02 265.411 126.02C265.411 126.02 263.675 127.751 263.61 128.078C263.58 128.225 263.43 129.533 263.407 129.711C263.379 129.928 263.534 130.721 263.534 130.721C263.534 130.721 255.24 134.334 248.383 130.22C248.383 130.22 246.427 113.538 247.832 110.762C248.53 109.383 252.444 106.696 253.807 105.51C254.112 105.244 254.424 104.44 254.34 103.92C254.271 103.483 254.777 102.745 255.201 102.879C256.02 103.141 258.339 104.283 259.971 103.848C260.784 103.633 261.815 102.697 262.603 102.912C263.567 103.173 262.549 105.482 263.095 105.512C263.846 105.548 267.908 106.357 268.25 107.01C268.369 107.236 269.536 110.315 270.999 114.388C270.999 114.388 271.001 114.391 271.002 114.399C273.746 122.039 277.774 120.606 279.375 122.869Z" fill="#F4E4DD"/>
<path d="M265.412 126.021C265.412 126.021 265.21 119.657 264.694 119.735C264.178 119.813 256.727 126.953 258.498 129.811C260.267 132.667 265.412 126.021 265.412 126.021Z" fill="#EAD0C5"/>
<path d="M271.102 152.11C271.102 152.11 268.231 152.993 264 153.576C258.762 154.297 251.44 154.557 244.901 152.11C244.901 152.11 244.363 142.422 245.911 137.371C247.461 132.319 248.186 129.903 248.186 129.903C248.186 129.903 254.393 131.453 260.697 130.251C261.583 130.084 262.47 129.86 263.342 129.57C263.342 129.57 267.231 137.792 268.3 141.315C269.369 144.838 271.102 152.11 271.102 152.11Z" fill="#68B8B0"/>
<path d="M271.103 152.11C271.103 152.11 268.232 152.993 264.001 153.576C256.243 149.196 260.026 130.767 260.026 130.767C260.256 130.58 260.481 130.409 260.698 130.251C261.583 130.084 262.47 129.86 263.343 129.57C263.343 129.57 267.232 137.792 268.301 141.315C269.37 144.838 271.103 152.11 271.103 152.11Z" fill="#54A69E"/>
<path d="M254.78 131.731C250.18 131.731 248.286 130.155 248.145 130.048L247.848 127.891C247.892 127.923 254.062 131.613 263.611 128.08L263.408 129.714C259.736 131.072 257.167 131.731 254.78 131.731Z" fill="#B64C41"/>
<path d="M287.961 127.203C287.961 127.203 291.053 125.685 292.283 125.539C293.513 125.393 295.578 125.343 295.578 125.539C295.578 125.734 293.365 127.104 292.775 127.203C292.184 127.302 291.053 128.135 291.398 128.232C291.742 128.33 293.561 127.914 293.586 128.232C293.611 128.551 292.479 128.746 292.283 128.991C292.087 129.235 291.398 129.529 290.291 129.383C289.185 129.237 287.961 129.163 287.961 129.163V127.203Z" fill="#FFB27D"/>
<path d="M238.45 120.89L236.769 122.35C236.769 122.35 233.782 120.177 233.639 119.288V119.198C233.639 118.273 235.535 116.349 237.108 116.277C237.269 116.277 237.412 116.314 237.537 116.385C238.376 116.907 238.474 119.083 238.468 120.208C238.465 120.619 238.45 120.89 238.45 120.89Z" fill="#FFB27D"/>
<path d="M287.959 187.47L287.171 190.709C287.171 190.709 264.368 178.982 261.419 176.73C260.234 175.825 258.669 170.912 257.219 165.352C259.165 165.749 263.368 165.962 268.673 162.441C268.3 166.95 268.031 170.594 269.729 171.539C273.041 173.381 282.761 181.86 285.837 187.693L287.959 187.47Z" fill="#68B8B0"/>
<path d="M292.467 188.725C292.467 188.725 292.46 188.724 292.446 188.72C292.343 188.694 291.875 188.54 291.564 187.798C291.359 187.309 291.298 186.907 291.111 186.423L290.341 185.1C289.536 184.043 289.252 184.291 289.252 184.291C289.252 184.291 289.042 184.56 288.731 184.914C288.217 185.499 287.429 186.314 286.872 186.524C286.475 186.672 286.228 186.918 286.076 187.144C285.882 187.43 285.838 187.688 285.838 187.688C285.838 187.688 287.492 187.976 287.348 188.786C287.067 190.357 287.133 190.641 287.162 190.693L287.172 190.704C287.172 190.704 289.992 192.173 290.893 192.462C292.498 192.973 293.337 194.06 293.857 194.555C294.068 194.756 294.359 194.849 294.646 194.803C295.069 194.737 295.617 194.601 295.738 194.343L292.467 188.725Z" fill="#333333"/>
<path d="M257.012 178.003C259.212 180.875 257.012 203.666 257.012 203.666L254.509 206.233C254.509 206.233 250.156 183.732 248.976 180.207C248.439 178.604 247.657 171.758 246.967 164.77C249.052 165.697 254.143 167.715 258.325 167.441C257.791 169.651 257.294 171.699 256.98 173.413C256.573 175.645 256.479 177.305 257.012 178.003Z" fill="#68B8B0"/>
<path d="M259.53 207.376L258.179 208.104C257.687 208.278 257.283 208.327 256.786 208.517C256.032 208.805 255.5 209.37 255.476 209.473C255.095 211.015 254.554 210.918 254.554 210.918L249.127 210.968C248.871 210.841 249.306 209.75 249.514 209.546C250.027 209.043 251.562 209.297 252.122 207.714C252.438 206.825 253.994 204.061 253.994 204.061L254.005 204.052C254.057 204.024 254.346 203.967 255.914 204.291C256.724 204.458 257.059 202.82 257.059 202.82C257.059 202.82 257.317 202.871 257.599 203.073C257.823 203.231 258.062 203.485 258.198 203.883C258.392 204.444 259.189 205.252 259.761 205.78C260.108 206.1 260.372 206.317 260.372 206.317C260.372 206.317 260.613 206.605 259.53 207.376Z" fill="#333333"/>
<path d="M204.979 145.051H181.934V211.146H204.979V145.051Z" fill="#176958"/>
<path d="M181.934 145.051H121.051V211.146H181.934V145.051Z" fill="#13735E"/>
<path d="M181.934 182.009V177.383H121.051V182.009H181.934Z" fill="#5BB2A9"/>
<path d="M204.979 182.009V177.383H181.933V182.009H204.979Z" fill="#40857E"/>
<path d="M165.464 144.031C165.464 144.031 184.13 135.596 197.14 138.801L194.542 140.532L195.851 143.587C195.851 143.587 181.376 139.83 165.09 144.53L165.464 144.031Z" fill="#0F604E"/>
<path d="M162.265 143.71C162.265 143.71 159.839 143.417 156.222 142.923C146.619 141.607 128.633 138.856 125.404 136.309C120.332 132.31 132.352 115.322 137.556 112.964C142.758 110.607 162.265 143.71 162.265 143.71Z" fill="#0F604E"/>
<path d="M200.321 122.554C201.188 126.761 161.908 144.943 161.908 144.943C161.908 144.943 162.623 143.019 163.786 140.006C163.786 140.006 163.787 140.004 163.79 140.001C168.037 128.997 178.266 103.463 181.629 103.816C181.967 103.851 182.362 103.972 182.803 104.163C187.965 106.426 199.522 118.678 200.321 122.554Z" fill="#0F604E"/>
<path d="M182.471 107.906C180.071 112.056 164.04 139.573 163.789 140.001C168.036 128.997 178.265 103.463 181.628 103.816C181.628 103.816 182.294 103.797 182.802 104.163C183.415 104.609 183.796 105.616 182.471 107.906Z" fill="#084236"/>
<path d="M156.227 142.921H156.221C146.618 141.606 128.632 138.855 125.404 136.308C123.946 132.219 127.729 131.886 130.481 131.599C133.23 131.31 156.227 142.921 156.227 142.921Z" fill="#084236"/>
<path d="M154.939 145.01C154.939 145.01 157.141 140.022 161.475 139.745C166.001 139.457 168.572 145.01 168.572 145.01H154.939Z" fill="#084236"/>
<path d="M182.91 145.051H119.205V154.141H182.91V145.051Z" fill="#0F604E"/>
<path d="M206.922 145.051H182.91V154.141H206.922V145.051Z" fill="#0D4D3F"/>
<path d="M157.164 144.29C157.164 144.29 144.686 140.354 136.267 142.956C126.563 145.955 127.137 157.879 127.137 157.879L129.419 156.944L132.501 158.384C132.501 158.384 133.021 145.758 140.934 143.99C147.774 142.463 157.164 144.29 157.164 144.29Z" fill="#0F604E"/>
<path d="M150.763 145.051H146.117V211.715H150.763V145.051Z" fill="#5BB2A9"/>
<path d="M47.3245 117.914C47.3245 117.914 64.4846 130.437 68.6833 130.134C72.8807 129.832 87.7471 120.698 87.7471 120.698L84.6016 116.974C84.6016 116.974 71.1383 121.941 68.6729 120.572C66.2075 119.202 56.5787 107.58 52.5387 108.2C48.4986 108.821 44.508 113.412 47.3245 117.914Z" fill="#233862"/>
<path d="M37.2048 212H32.0751C31.4289 211.65 30.8541 210.851 30.6721 209.659C30.4211 208.013 28.5695 207.116 28.169 205.769C27.7685 204.424 29.8217 202.53 29.8217 202.53L30.165 202.09L30.5225 201.633L33.9267 202.432C33.9267 202.432 34.0113 203.24 34.062 204.268C34.0997 205.009 34.1192 205.867 34.0763 206.619C33.9762 208.413 34.5808 210.346 36.1815 210.696C37.3661 210.952 37.3127 211.653 37.2048 212Z" fill="#233862"/>
<path d="M66.9762 212H55.2448C54.6805 211.314 54.8886 208.784 54.9744 207.958C54.9926 207.791 55.0043 207.695 55.0043 207.695C55.0043 207.695 59.0105 204.505 59.5606 206.948C59.5775 207.025 59.5983 207.1 59.6204 207.174C60.3134 209.459 63.4238 210.497 65.2195 210.786C66.3846 210.975 66.8163 211.578 66.9762 212Z" fill="#233862"/>
<path d="M64.7404 146.796C64.7404 146.796 64.1319 154.353 63.4167 163.437C62.4454 175.777 61.2764 190.935 61.1607 193.807C60.9604 198.793 60.1595 206.768 60.1595 206.768C60.1595 206.768 58.2584 208.662 54.4524 207.865C54.4524 207.865 51.0612 196.479 50.0925 184.433C50.0769 184.236 50.0626 184.037 50.047 183.837C49.1459 171.573 47.7441 145.75 47.7441 145.75L64.7404 146.796Z" fill="#2F625D"/>
<path d="M64.7417 146.797C64.7417 146.797 64.1332 154.355 63.418 163.439L50.0925 184.433C50.0769 184.236 50.0626 184.037 50.047 183.837C49.1459 171.573 47.7441 145.75 47.7441 145.75L64.7417 146.797Z" fill="#18504A"/>
<path d="M61.9626 147.695C61.9626 147.695 50.9984 175.063 43.7882 187.925C36.5793 200.786 34.3259 204.375 34.3259 204.375C34.3259 204.375 30.1948 202.73 29.8203 201.609C29.8203 201.609 32.577 176.778 37.405 170.725C40.133 167.305 43.3383 157.041 43.4878 153.451C43.6387 149.862 44.4644 142.758 44.4644 142.758L61.9626 147.695Z" fill="#2F625D"/>
<path d="M54.7364 108.726C50.6443 110.574 42.8477 107.85 42.8477 107.85C42.8477 107.85 46.4144 104.449 45.4717 98.3789L49.08 100.624L51.5311 102.148C51.5311 102.148 51.6494 103.206 51.6299 105.087C51.6247 105.582 51.6104 106.134 51.5805 106.74C53.5271 107.52 54.7364 108.726 54.7364 108.726Z" fill="#FFB27D"/>
<path d="M51.5312 102.148C51.5312 102.148 51.6496 103.205 51.6301 105.087C49.1036 104.961 45.8125 101.314 45.8125 101.314C47.0296 100.8 48.1244 100.603 49.0802 100.622L51.5312 102.148Z" fill="#ED975D"/>
<path d="M52.8179 101.892C52.8179 101.892 45.9327 103.897 44.7443 99.608C43.5558 95.3185 41.8667 92.6889 46.2136 91.2272C50.5592 89.7654 51.8712 91.1663 52.6176 92.5025C53.3627 93.8387 54.5785 101.26 52.8179 101.892Z" fill="#FFB27D"/>
<path d="M65.1687 144.101C65.3833 146.078 65.4834 147.309 65.4353 147.357C65.3196 147.479 65.1791 147.561 65.0088 147.581C63.4094 147.752 58.8584 149.193 54.8677 149.264C51.5064 149.346 48.4468 148.718 45.1167 147.687C44.6759 147.552 43.6474 147.154 43.6136 146.684C43.5655 146.173 43.5265 145.424 43.477 144.483C43.308 141.21 43.0219 135.58 41.8621 129.184C41.6488 127.995 41.4707 126.807 41.3237 125.637C40.2341 116.912 41.0429 109.025 44.2208 106.006C44.4939 105.758 46.4339 106.43 48.2167 107.054C49.8654 107.631 51.4297 107.53 52.864 107.056L54.4906 108.174C56.4814 109.613 58.7127 111.628 59.9779 114.94C61.0559 117.758 62.1143 122.946 63.0063 128.347C63.4094 130.795 63.7969 133.267 64.1025 135.618L64.1129 135.702C64.1623 135.933 64.1935 136.189 64.2221 136.422C64.2793 136.84 64.3326 137.251 64.3873 137.655C64.7162 140.168 64.9841 142.409 65.1687 144.101Z" fill="#40857E"/>
<path d="M44.6871 99.1866C44.6871 99.1866 45.3932 98.9795 45.1578 98.0045C44.9225 97.0296 44.7664 95.7375 45.6038 95.8812C46.4412 96.0249 46.5583 96.6645 46.8443 96.2489C47.1304 95.8333 46.9444 94.2485 49.3344 93.8497C51.7244 93.451 52.801 94.167 53.8595 93.5429C54.9179 92.9201 54.7723 91.2292 54.7723 91.2292C54.7723 91.2292 54.5278 91.8688 54.0701 92.1174C54.0701 92.1174 55.6266 89.3557 53.2587 87.8733C50.8896 86.3921 48.8273 87.7956 47.5868 88.0209C44.8549 88.5167 43.0981 88.8948 42.4168 90.8032C41.7367 92.7117 42.7119 97.6653 44.6871 99.1866Z" fill="#233862"/>
<path d="M65.1685 144.1C64.8304 144.162 58.9583 145.212 54.9663 142.593C50.856 139.898 46.041 123.914 46.041 123.914C46.041 123.914 55.2732 134.137 55.4526 134.541C55.6022 134.88 62.261 136.988 64.3844 137.655C64.716 140.167 64.9839 142.408 65.1685 144.1Z" fill="#27605A"/>
<path d="M113.014 92.8073L67.3438 93.4531L67.9923 138.927L113.662 138.282L113.014 92.8073Z" fill="#C5BA3E"/>
<path d="M103.268 92.948L57.5977 93.5938L58.2462 139.068L103.916 138.422L103.268 92.948Z" fill="#D6CC5F"/>
<path d="M63.5849 107.555C63.5238 103.263 66.4781 99.7518 70.9199 99.6883C75.3176 99.6262 78.3278 103.009 78.3902 107.345C78.4513 111.595 75.497 115.149 71.0552 115.212C66.6562 115.274 63.6473 111.891 63.5849 107.555ZM88.7783 99.7829L93.9601 99.7091L72.1435 130.375L66.9618 130.449L88.7783 99.7829ZM73.8183 107.41C73.7897 105.372 72.6311 103.61 70.89 103.635C69.0618 103.661 68.1282 105.408 68.1581 107.489C68.1867 109.527 69.3453 111.288 71.0864 111.263C72.9146 111.239 73.8469 109.448 73.8183 107.41ZM82.5304 122.811C82.4693 118.519 85.4235 115.008 89.8654 114.944C94.263 114.882 97.2732 118.265 97.3357 122.601C97.3968 126.851 94.4425 130.405 90.0006 130.468C85.603 130.53 82.5928 127.147 82.5304 122.811ZM92.7638 122.666C92.7352 120.628 91.5766 118.867 89.8355 118.892C88.006 118.918 87.0736 120.666 87.1035 122.746C87.1322 124.784 88.2907 126.546 90.0318 126.522C91.8601 126.496 92.7924 124.704 92.7638 122.666Z" fill="white"/>
<path d="M80.6028 140.502C79.0606 140.473 77.0842 139.813 76.4496 139.5C75.3782 138.969 74.832 138.455 74.832 138.455L74.9946 137.444L75.1896 136.237C75.1896 136.237 75.3092 136.218 75.5069 136.198C75.7032 136.178 75.9815 136.157 76.2949 136.152C76.2949 136.152 76.802 136.304 77.222 135.932C77.6407 135.559 78.4131 135.306 78.9982 135.445C79.582 135.585 80.8381 135.454 80.8785 135.658C80.9773 136.15 79.1464 136.061 78.9332 136.369C78.7394 136.649 78.9163 136.837 78.9514 136.872C78.954 136.873 78.9566 136.875 78.9592 136.878C80.0307 137.954 83.7183 138.345 83.5714 139.198C83.5142 139.515 81.2542 140.515 80.6028 140.502Z" fill="#FFB27D"/>
<path d="M43.2292 117.791C43.2292 117.791 51.676 137.234 55.4508 139.087C59.2256 140.939 76.4507 139.5 76.4507 139.5L76.5639 136.181C76.5639 136.181 61.7287 133.255 60.297 130.833C58.8654 128.41 56.4611 113.535 52.6603 112.036C48.8595 110.538 43.0849 112.489 43.2292 117.791Z" fill="#36706A"/>
<path d="M341.96 169.838C341.772 169.952 341.583 170.062 341.39 170.167C341.325 170.203 341.259 170.238 341.194 170.272C341.044 170.351 340.895 170.427 340.744 170.502C333.518 174.035 324.705 171.323 320.776 164.229C317.03 157.461 319.043 149.079 325.191 144.677C325.681 144.326 326.197 144 326.74 143.704C326.935 143.597 327.13 143.494 327.327 143.398C327.519 143.304 327.712 143.213 327.906 143.128C328.5 142.863 329.104 142.642 329.713 142.459C330.62 142.188 331.539 142.005 332.461 141.908C335.319 141.606 338.195 142.127 340.745 143.368C343.451 144.685 345.79 146.816 347.355 149.641C351.292 156.757 348.864 165.656 341.96 169.838Z" fill="#40857E"/>
<path d="M334.163 170.859C329.12 170.859 324.476 168.13 322.044 163.737C320.261 160.517 319.845 156.799 320.871 153.266C321.897 149.734 324.243 146.812 327.477 145.037C329.518 143.917 331.822 143.324 334.14 143.324C339.182 143.324 343.827 146.054 346.258 150.447C348.041 153.667 348.457 157.385 347.431 160.917C346.405 164.449 344.06 167.371 340.826 169.146C338.783 170.268 336.48 170.859 334.163 170.859ZM334.138 144.145C331.96 144.145 329.794 144.702 327.875 145.756C324.833 147.425 322.628 150.173 321.663 153.494C320.698 156.815 321.09 160.312 322.766 163.341C325.053 167.472 329.419 170.038 334.163 170.038C336.341 170.038 338.507 169.482 340.427 168.428C343.468 166.759 345.673 164.01 346.638 160.689C347.603 157.368 347.212 153.871 345.535 150.843C343.248 146.711 338.882 144.145 334.138 144.145Z" fill="#D6CC5F"/>
<path d="M334.152 146.957L337.2 153.108L344.017 154.095L339.084 158.883L340.249 165.644L334.152 162.451L328.053 165.644L329.219 158.883L324.285 154.095L331.103 153.108L334.152 146.957Z" fill="#D6CC5F"/>
<path d="M351.054 133.072C350.948 133.137 350.84 133.198 350.732 133.259C350.696 133.279 350.658 133.299 350.622 133.318C350.537 133.363 350.453 133.406 350.368 133.448C346.291 135.441 341.316 133.911 339.099 129.906C336.984 126.087 338.121 121.356 341.59 118.871C341.867 118.673 342.158 118.49 342.464 118.321C342.573 118.26 342.685 118.203 342.795 118.149C342.903 118.096 343.012 118.044 343.122 117.996C343.457 117.847 343.798 117.722 344.141 117.619C344.652 117.467 345.171 117.363 345.691 117.309C347.305 117.139 348.928 117.432 350.367 118.133C351.894 118.877 353.215 120.079 354.098 121.675C356.32 125.69 354.951 130.712 351.054 133.072Z" fill="#40857E"/>
<path d="M346.653 133.651C343.806 133.651 341.185 132.111 339.813 129.631C338.807 127.813 338.571 125.715 339.151 123.722C339.73 121.728 341.055 120.079 342.879 119.077C344.031 118.445 345.332 118.109 346.64 118.109C349.486 118.109 352.107 119.65 353.479 122.13C354.486 123.947 354.721 126.046 354.141 128.039C353.563 130.033 352.238 131.682 350.413 132.683C349.26 133.317 347.96 133.651 346.653 133.651ZM346.638 118.574C345.41 118.574 344.187 118.889 343.103 119.483C341.386 120.426 340.141 121.977 339.597 123.852C339.054 125.726 339.273 127.699 340.22 129.409C341.511 131.74 343.975 133.189 346.653 133.189C347.881 133.189 349.104 132.874 350.188 132.28C351.905 131.338 353.15 129.787 353.694 127.912C354.239 126.037 354.018 124.064 353.071 122.355C351.78 120.022 349.316 118.574 346.638 118.574Z" fill="#D6CC5F"/>
<path d="M346.645 120.156L348.366 123.627L352.213 124.184L349.429 126.886L350.086 130.703L346.645 128.901L343.203 130.703L343.86 126.886L341.076 124.184L344.924 123.627L346.645 120.156Z" fill="#D6CC5F"/>
<path d="M204.165 22.5778C204.102 22.6542 204.037 22.7293 203.971 22.8031C203.949 22.8277 203.926 22.8536 203.904 22.8769C203.852 22.9326 203.8 22.9882 203.746 23.0426C201.199 25.6321 197.031 25.7952 194.285 23.3585C191.665 21.0345 191.257 17.1581 193.214 14.3614C193.37 14.1387 193.54 13.9225 193.727 13.7141C193.794 13.639 193.863 13.5665 193.931 13.4953C193.999 13.4266 194.067 13.358 194.137 13.2933C194.35 13.0913 194.574 12.9062 194.807 12.7378C195.152 12.4867 195.517 12.2704 195.895 12.0905C197.068 11.5337 198.373 11.324 199.648 11.4716C201 11.6283 202.32 12.1863 203.413 13.156C206.167 15.6031 206.478 19.7605 204.165 22.5778Z" fill="#40857E"/>
<path d="M198.901 24.5379C197.367 24.5379 195.905 23.985 194.751 22.9609C193.504 21.8552 192.765 20.3313 192.669 18.6727C192.573 17.0129 193.132 15.4152 194.242 14.1735C195.353 12.9319 196.883 12.1952 198.549 12.1007C200.215 12.0036 201.82 12.5616 203.067 13.6673C204.314 14.773 205.053 16.2969 205.149 17.9555C205.245 19.6153 204.686 21.213 203.576 22.4547C202.465 23.6963 200.936 24.4317 199.269 24.5275C199.147 24.534 199.023 24.5379 198.901 24.5379ZM198.918 12.4606C198.802 12.4606 198.688 12.4645 198.572 12.471C197.005 12.5616 195.566 13.253 194.522 14.4208C193.478 15.5887 192.952 17.0906 193.042 18.6507C193.133 20.2109 193.827 21.6442 195 22.6838C196.173 23.7235 197.682 24.2466 199.248 24.1572C200.815 24.0666 202.255 23.3752 203.299 22.2074C204.343 21.0395 204.868 19.5376 204.779 17.9775C204.688 16.4173 203.993 14.9841 202.82 13.9444C201.735 12.9811 200.36 12.4606 198.918 12.4606Z" fill="#D6CC5F"/>
<path d="M197.379 13.9922L199.607 16.1583L202.663 15.5575L201.283 18.3373L202.802 21.0459L199.719 20.5979L197.602 22.8728L197.077 19.8159L194.25 18.5134L197.008 17.0711L197.379 13.9922Z" fill="#D6CC5F"/>
<path d="M184.104 206.492C183.992 206.628 183.878 206.762 183.758 206.896C183.718 206.941 183.677 206.985 183.637 207.029C183.545 207.13 183.451 207.227 183.356 207.324C178.806 211.949 171.362 212.242 166.456 207.89C161.776 203.739 161.047 196.816 164.542 191.818C164.82 191.42 165.126 191.034 165.459 190.662C165.578 190.529 165.699 190.398 165.824 190.273C165.944 190.15 166.067 190.028 166.191 189.911C166.572 189.551 166.972 189.221 167.387 188.92C168.004 188.47 168.655 188.084 169.331 187.765C171.427 186.77 173.757 186.396 176.034 186.66C178.45 186.94 180.806 187.937 182.761 189.669C187.681 194.032 188.235 201.459 184.104 206.492Z" fill="#40857E"/>
<path d="M174.704 209.99C171.964 209.99 169.353 209.002 167.291 207.172C165.064 205.197 163.743 202.476 163.572 199.511C163.4 196.546 164.397 193.693 166.382 191.476C168.366 189.26 171.098 187.944 174.076 187.773C177.051 187.6 179.919 188.595 182.145 190.571C184.373 192.547 185.693 195.267 185.865 198.232C186.037 201.197 185.038 204.051 183.056 206.267C181.073 208.484 178.339 209.799 175.362 209.97C175.142 209.984 174.922 209.99 174.704 209.99ZM174.732 188.418C174.527 188.418 174.321 188.423 174.115 188.436C171.315 188.597 168.746 189.833 166.88 191.919C165.014 194.004 164.076 196.688 164.237 199.475C164.399 202.263 165.64 204.821 167.735 206.679C169.829 208.537 172.524 209.472 175.324 209.31C178.123 209.149 180.693 207.913 182.559 205.827C184.425 203.743 185.362 201.059 185.201 198.271C185.04 195.483 183.798 192.925 181.703 191.067C179.763 189.346 177.308 188.418 174.732 188.418Z" fill="#D6CC5F"/>
<path d="M171.982 191.152L175.965 195.021L181.423 193.949L178.958 198.916L181.671 203.753L176.165 202.954L172.382 207.015L171.444 201.556L166.395 199.229L171.321 196.654L171.982 191.152Z" fill="#D6CC5F"/>
<path d="M358.263 211.913H0.405695C0.182043 211.913 0 211.73 0 211.509V211.37C0 211.147 0.183343 210.965 0.405695 210.965H358.263C358.487 210.965 358.669 211.147 358.669 211.37V211.509C358.67 211.731 358.487 211.913 358.263 211.913Z" fill="#2E3552"/>
<path d="M222.501 127.825C222.501 127.825 220.804 128.977 218.917 128.787C217.517 128.646 216.137 127.355 216.084 127.27L214.967 129.203C214.967 129.203 217.519 130.743 219.708 130.321C220.379 130.192 221.466 129.529 221.956 129.032C222.498 128.484 222.501 127.825 222.501 127.825Z" fill="#6BB7BF"/>
<path d="M222.456 123.798L225.261 122.641C225.261 122.641 224.876 128.445 220.059 130.219C220.059 130.22 223.103 126.246 222.456 123.798Z" fill="#86D1CD"/>
<path d="M242.135 193.188C242.135 193.188 243.36 194.569 244.564 194.542C244.564 194.542 244.725 196.053 244.289 196.454C244.289 196.454 242.227 196.079 241.731 195.328C241.731 195.328 241.314 193.527 242.135 193.188Z" fill="#F99746"/>
<path d="M222.918 174.196C222.918 174.196 221.808 172.856 221.824 171.252C221.836 170.062 222.827 168.8 222.895 168.749L221.167 167.957C221.167 167.957 220.054 170.225 220.581 172.035C220.742 172.59 221.39 173.454 221.849 173.83C222.357 174.244 222.918 174.196 222.918 174.196Z" fill="#CDE0FB"/>
<path d="M226.333 173.846L227.532 176.119C227.532 176.119 222.572 176.241 220.695 172.32C220.694 172.32 224.304 174.578 226.333 173.846Z" fill="#CDE0FB"/>
</svg>
