<svg width="22" height="22" viewBox="0 0 22 22" fill="none" xmlns="http://www.w3.org/2000/svg">
<path d="M11 1C16.5696 1 21 5.49367 21 11C21 16.5696 16.5696 21 11 21C5.49367 21 1 16.5696 1 11C1 5.49367 5.49367 1 11 1Z" fill="white" stroke="#3D857E" stroke-width="1.9"/>
<path d="M10.3672 5.67177C10.3672 4.84898 11.633 4.84898 11.633 5.67177V5.92493C11.633 6.74772 10.3672 6.74772 10.3672 5.92493V5.67177ZM10.3672 9.68513C10.3672 8.86235 11.633 8.86235 11.633 9.68513V16.3307C11.633 17.1535 10.3672 17.1535 10.3672 16.3307V9.68513Z" fill="#3D857E" stroke="#3D857E" stroke-width="0.8"/>
</svg>
