<svg width="20" height="20" viewBox="0 0 20 20" fill="none" xmlns="http://www.w3.org/2000/svg">
<path d="M8.33203 12.918C7.99036 12.918 7.70703 13.2013 7.70703 13.543V14.793C7.70703 15.1346 7.99036 15.418 8.33203 15.418C8.6737 15.418 8.95703 15.1346 8.95703 14.793V13.543C8.95703 13.2013 8.6737 12.918 8.33203 12.918Z" fill="#40857E"/>
<path d="M18.3346 17.7073H17.5013V8.31562C17.5013 7.79896 17.268 7.31562 16.8596 6.99896L11.0263 2.46562C10.4263 1.99063 9.5763 1.99063 8.9763 2.46562L3.14297 6.99896C2.73464 7.31562 2.5013 7.79896 2.5013 8.30729L2.45964 17.7073H1.66797C1.3263 17.7073 1.04297 17.9823 1.04297 18.3323C1.04297 18.674 1.3263 18.9573 1.66797 18.9573H18.3346C18.6763 18.9573 18.9596 18.674 18.9596 18.3323C18.9596 17.9823 18.6763 17.7073 18.3346 17.7073ZM8.7513 5.62396H11.2513C11.593 5.62396 11.8763 5.90729 11.8763 6.24896C11.8763 6.59062 11.593 6.87396 11.2513 6.87396H8.7513C8.40964 6.87396 8.1263 6.59062 8.1263 6.24896C8.1263 5.90729 8.40964 5.62396 8.7513 5.62396ZM14.168 17.7073H5.83464V10.4156C5.83464 9.72396 6.39297 9.16562 7.08464 9.16562H12.918C13.6096 9.16562 14.168 9.72396 14.168 10.4156V17.7073Z" fill="#40857E"/>
</svg>
