<svg width="22" height="20" viewBox="0 0 22 20" fill="none" xmlns="http://www.w3.org/2000/svg">
<path d="M8.34074 13.8193V13.8194L8.34515 13.8193C8.49015 13.8161 8.62844 13.7567 8.73032 13.6533C8.83225 13.5499 8.88959 13.4107 8.88959 13.2654C8.88959 13.1201 8.83225 12.9809 8.73032 12.8775C8.62844 12.7741 8.49015 12.7147 8.34515 12.7115L8.34515 12.7115H8.34074H3.85351C3.78042 12.7102 3.70774 12.7232 3.63966 12.7499C3.5708 12.7769 3.50797 12.8173 3.45489 12.8688C3.40181 12.9203 3.35954 12.9819 3.33065 13.0501C3.30177 13.1182 3.28687 13.1914 3.28687 13.2654C3.28687 13.3394 3.30177 13.4126 3.33065 13.4808C3.35954 13.5489 3.40181 13.6105 3.45489 13.662C3.50797 13.7135 3.5708 13.7539 3.63966 13.7809C3.70775 13.8076 3.78042 13.8206 3.85352 13.8193H8.34074ZM3.05726 2.84687C1.84201 2.84687 0.848828 3.82755 0.848828 5.03772V6.95253V9.4245V15.554C0.848828 16.7639 1.84173 17.7469 3.05726 17.7469H19.0397C20.2551 17.7469 21.2488 16.7639 21.2488 15.554V9.4245V6.95253V5.03772C21.2488 3.82746 20.2549 2.84687 19.0397 2.84687H3.05726ZM3.05726 3.95473H19.0397C19.6549 3.95473 20.1355 4.43212 20.1355 5.03772V6.39722H1.96219V5.03772C1.96219 4.43198 2.44216 3.95473 3.05726 3.95473ZM1.96219 7.50577H20.1355V8.86919H1.96219V7.50577ZM1.96219 9.97704H20.1355V15.554C20.1355 16.16 19.6545 16.639 19.0397 16.639H3.05726C2.44258 16.639 1.96219 16.1601 1.96219 15.554V9.97704Z" fill="#292D32" stroke="#292D32" stroke-width="0.4"/>
</svg>
