<svg width="22" height="16" viewBox="0 0 22 16" fill="none" xmlns="http://www.w3.org/2000/svg">
<path d="M8.33879 11.8193V11.8194L8.34319 11.8193C8.48819 11.8161 8.62649 11.7567 8.72837 11.6533C8.8303 11.5499 8.88764 11.4107 8.88764 11.2654C8.88764 11.1201 8.8303 10.9809 8.72837 10.8775C8.62649 10.7741 8.4882 10.7147 8.34319 10.7115L8.3432 10.7115H8.33879H3.85156C3.77846 10.7102 3.70579 10.7232 3.6377 10.7499C3.56885 10.7769 3.50602 10.8173 3.45294 10.8688C3.39985 10.9203 3.35759 10.9819 3.3287 11.0501C3.29982 11.1182 3.28491 11.1914 3.28491 11.2654C3.28491 11.3394 3.29982 11.4126 3.3287 11.4808C3.35759 11.5489 3.39985 11.6105 3.45294 11.662C3.50602 11.7135 3.56885 11.7539 3.6377 11.7809C3.7058 11.8076 3.77847 11.8206 3.85156 11.8193H8.33879ZM3.0553 0.846875C1.84005 0.846875 0.846875 1.82755 0.846875 3.03772V4.95253V7.4245V13.554C0.846875 14.7639 1.83978 15.7469 3.0553 15.7469H19.0378C20.2532 15.7469 21.2469 14.7639 21.2469 13.554V7.4245V4.95253V3.03772C21.2469 1.82746 20.2529 0.846875 19.0378 0.846875H3.0553ZM3.0553 1.95473H19.0378C19.653 1.95473 20.1335 2.43212 20.1335 3.03772V4.39722H1.96024V3.03772C1.96024 2.43198 2.44021 1.95473 3.0553 1.95473ZM1.96024 5.50577H20.1335V6.86919H1.96024V5.50577ZM1.96024 7.97704H20.1335V13.554C20.1335 14.16 19.6526 14.639 19.0378 14.639H3.0553C2.44063 14.639 1.96024 14.1601 1.96024 13.554V7.97704Z" fill="#40857E" stroke="#40857E" stroke-width="0.4"/>
</svg>
