<svg width="20" height="20" viewBox="0 0 20 20" fill="none" xmlns="http://www.w3.org/2000/svg">
<path d="M1.125 7.875V1.125H7.875V7.875H1.125Z" stroke="#292D32" stroke-width="1.5"/>
<path d="M12.125 7.875V1.125H18.875V7.875H12.125Z" stroke="#292D32" stroke-width="1.5"/>
<path d="M1.125 18.875V12.125H7.875V18.875H1.125Z" stroke="#292D32" stroke-width="1.5"/>
<path d="M18.9375 14.8125H16.1875V12.0625C16.1875 11.8802 16.1151 11.7053 15.9861 11.5764C15.8572 11.4474 15.6823 11.375 15.5 11.375C15.3177 11.375 15.1428 11.4474 15.0139 11.5764C14.8849 11.7053 14.8125 11.8802 14.8125 12.0625V14.8125H12.0625C11.8802 14.8125 11.7053 14.8849 11.5764 15.0139C11.4474 15.1428 11.375 15.3177 11.375 15.5C11.375 15.6823 11.4474 15.8572 11.5764 15.9861C11.7053 16.1151 11.8802 16.1875 12.0625 16.1875H14.8125V18.9375C14.8125 19.1198 14.8849 19.2947 15.0139 19.4236C15.1428 19.5526 15.3177 19.625 15.5 19.625C15.6823 19.625 15.8572 19.5526 15.9861 19.4236C16.1151 19.2947 16.1875 19.1198 16.1875 18.9375V16.1875H18.9375C19.1198 16.1875 19.2947 16.1151 19.4236 15.9861C19.5526 15.8572 19.625 15.6823 19.625 15.5C19.625 15.3177 19.5526 15.1428 19.4236 15.0139C19.2947 14.8849 19.1198 14.8125 18.9375 14.8125Z" fill="#292D32"/>
</svg>
