<svg width="20" height="20" viewBox="0 0 20 20" fill="none" xmlns="http://www.w3.org/2000/svg">
<path d="M7.9375 0.375H1.0625C0.880164 0.375 0.705295 0.447433 0.576364 0.576364C0.447433 0.705295 0.375 0.880164 0.375 1.0625V7.9375C0.375 8.11984 0.447433 8.2947 0.576364 8.42364C0.705295 8.55257 0.880164 8.625 1.0625 8.625H7.9375C8.11984 8.625 8.2947 8.55257 8.42364 8.42364C8.55257 8.2947 8.625 8.11984 8.625 7.9375V1.0625C8.625 0.880164 8.55257 0.705295 8.42364 0.576364C8.2947 0.447433 8.11984 0.375 7.9375 0.375Z" fill="#40857E"/>
<path d="M18.9375 0.375H12.0625C11.8802 0.375 11.7053 0.447433 11.5764 0.576364C11.4474 0.705295 11.375 0.880164 11.375 1.0625V7.9375C11.375 8.11984 11.4474 8.2947 11.5764 8.42364C11.7053 8.55257 11.8802 8.625 12.0625 8.625H18.9375C19.1198 8.625 19.2947 8.55257 19.4236 8.42364C19.5526 8.2947 19.625 8.11984 19.625 7.9375V1.0625C19.625 0.880164 19.5526 0.705295 19.4236 0.576364C19.2947 0.447433 19.1198 0.375 18.9375 0.375Z" fill="#40857E"/>
<path d="M7.9375 11.375H1.0625C0.880164 11.375 0.705295 11.4474 0.576364 11.5764C0.447433 11.7053 0.375 11.8802 0.375 12.0625V18.9375C0.375 19.1198 0.447433 19.2947 0.576364 19.4236C0.705295 19.5526 0.880164 19.625 1.0625 19.625H7.9375C8.11984 19.625 8.2947 19.5526 8.42364 19.4236C8.55257 19.2947 8.625 19.1198 8.625 18.9375V12.0625C8.625 11.8802 8.55257 11.7053 8.42364 11.5764C8.2947 11.4474 8.11984 11.375 7.9375 11.375Z" fill="#40857E"/>
<path d="M18.9375 14.8125H16.1875V12.0625C16.1875 11.8802 16.1151 11.7053 15.9861 11.5764C15.8572 11.4474 15.6823 11.375 15.5 11.375C15.3177 11.375 15.1428 11.4474 15.0139 11.5764C14.8849 11.7053 14.8125 11.8802 14.8125 12.0625V14.8125H12.0625C11.8802 14.8125 11.7053 14.8849 11.5764 15.0139C11.4474 15.1428 11.375 15.3177 11.375 15.5C11.375 15.6823 11.4474 15.8572 11.5764 15.9861C11.7053 16.1151 11.8802 16.1875 12.0625 16.1875H14.8125V18.9375C14.8125 19.1198 14.8849 19.2947 15.0139 19.4236C15.1428 19.5526 15.3177 19.625 15.5 19.625C15.6823 19.625 15.8572 19.5526 15.9861 19.4236C16.1151 19.2947 16.1875 19.1198 16.1875 18.9375V16.1875H18.9375C19.1198 16.1875 19.2947 16.1151 19.4236 15.9861C19.5526 15.8572 19.625 15.6823 19.625 15.5C19.625 15.3177 19.5526 15.1428 19.4236 15.0139C19.2947 14.8849 19.1198 14.8125 18.9375 14.8125Z" fill="#40857E"/>
</svg>
