<svg width="20" height="20" viewBox="0 0 20 20" fill="none" xmlns="http://www.w3.org/2000/svg">
<path d="M0 4C0 1.79086 1.79086 0 4 0H16C18.2091 0 20 1.79086 20 4V16C20 18.2091 18.2091 20 16 20H4C1.79086 20 0 18.2091 0 16V4Z" fill="#40857E"/>
<path d="M13.1564 8.24097C13.4266 7.66123 13.5664 7.02924 13.5657 6.3896C13.5647 5.49093 13.2073 4.62936 12.5718 3.99391C11.9363 3.35846 11.0748 3.00101 10.1761 3H9.3896C8.49093 3.00101 7.62936 3.35846 6.99391 3.99391C6.35845 4.62936 6.00101 5.49093 6 6.3896C6 6.52866 6.05524 6.66203 6.15358 6.76037C6.25191 6.8587 6.38528 6.91394 6.52435 6.91394C6.66341 6.91394 6.79678 6.8587 6.89512 6.76037C6.99345 6.66203 7.0487 6.52866 7.0487 6.3896C7.04947 5.76899 7.29635 5.17402 7.73519 4.73519C8.17402 4.29635 8.76899 4.04947 9.3896 4.0487H10.1761C10.7967 4.04947 11.3916 4.29632 11.8305 4.73511C12.2693 5.1739 12.5162 5.76882 12.517 6.38939C12.5175 6.87586 12.4112 7.3565 12.2057 7.79742C12.0001 8.23834 11.7004 8.62879 11.3275 8.94123L10.775 9.40465C10.188 9.89636 9.71612 10.5109 9.3926 11.2049C9.06908 11.8989 8.90183 12.6555 8.90263 13.4212C8.90263 13.5602 8.95788 13.6936 9.05621 13.7919C9.15455 13.8903 9.28792 13.9455 9.42698 13.9455C9.56605 13.9455 9.69942 13.8903 9.79775 13.7919C9.89609 13.6936 9.95133 13.5602 9.95133 13.4212C9.95073 12.8087 10.0845 12.2035 10.3433 11.6483C10.6021 11.0932 10.9796 10.6016 11.4491 10.2083L12.0016 9.74484C12.4919 9.33407 12.8861 8.82071 13.1564 8.24097Z" fill="white"/>
<path d="M10.0573 15.9816C10.1406 15.8569 10.185 15.7104 10.185 15.5604C10.185 15.3594 10.1051 15.1666 9.96298 15.0245C9.82083 14.8823 9.62805 14.8025 9.42703 14.8025C9.27711 14.8025 9.13056 14.847 9.00591 14.9302C8.88125 15.0135 8.7841 15.1319 8.72673 15.2704C8.66936 15.4089 8.65435 15.5614 8.68361 15.7084C8.71286 15.8554 8.78505 15.9905 8.89107 16.0965C8.99708 16.2025 9.13215 16.2747 9.27919 16.3039C9.42623 16.3332 9.57864 16.3182 9.71714 16.2608C9.85565 16.2034 9.97403 16.1062 10.0573 15.9816Z" fill="white"/>
<path d="M13.1564 8.24097C13.4266 7.66123 13.5664 7.02924 13.5657 6.3896C13.5647 5.49093 13.2073 4.62936 12.5718 3.99391C11.9363 3.35846 11.0748 3.00101 10.1761 3H9.3896C8.49093 3.00101 7.62936 3.35846 6.99391 3.99391C6.35845 4.62936 6.00101 5.49093 6 6.3896C6 6.52866 6.05524 6.66203 6.15358 6.76037C6.25191 6.8587 6.38528 6.91394 6.52435 6.91394C6.66341 6.91394 6.79678 6.8587 6.89512 6.76037C6.99345 6.66203 7.0487 6.52866 7.0487 6.3896C7.04947 5.76899 7.29635 5.17402 7.73519 4.73519C8.17402 4.29635 8.76899 4.04947 9.3896 4.0487H10.1761C10.7967 4.04947 11.3916 4.29632 11.8305 4.73511C12.2693 5.1739 12.5162 5.76882 12.517 6.38939C12.5175 6.87586 12.4112 7.3565 12.2057 7.79742C12.0001 8.23834 11.7004 8.62879 11.3275 8.94123L10.775 9.40465C10.188 9.89636 9.71612 10.5109 9.3926 11.2049C9.06908 11.8989 8.90183 12.6555 8.90263 13.4212C8.90263 13.5602 8.95788 13.6936 9.05621 13.7919C9.15455 13.8903 9.28792 13.9455 9.42698 13.9455C9.56605 13.9455 9.69942 13.8903 9.79775 13.7919C9.89609 13.6936 9.95133 13.5602 9.95133 13.4212C9.95073 12.8087 10.0845 12.2035 10.3433 11.6483C10.6021 11.0932 10.9796 10.6016 11.4491 10.2083L12.0016 9.74484C12.4919 9.33407 12.8861 8.82071 13.1564 8.24097Z" stroke="white" stroke-width="0.4"/>
<path d="M10.0573 15.9816C10.1406 15.8569 10.185 15.7104 10.185 15.5604C10.185 15.3594 10.1051 15.1666 9.96298 15.0245C9.82083 14.8823 9.62805 14.8025 9.42703 14.8025C9.27711 14.8025 9.13056 14.847 9.00591 14.9302C8.88125 15.0135 8.7841 15.1319 8.72673 15.2704C8.66936 15.4089 8.65435 15.5614 8.68361 15.7084C8.71286 15.8554 8.78505 15.9905 8.89107 16.0965C8.99708 16.2025 9.13215 16.2747 9.27919 16.3039C9.42623 16.3332 9.57864 16.3182 9.71714 16.2608C9.85565 16.2034 9.97403 16.1062 10.0573 15.9816Z" stroke="white" stroke-width="0.4"/>
</svg>
