<svg width="22" height="22" viewBox="0 0 22 22" fill="none" xmlns="http://www.w3.org/2000/svg">
<path d="M17.3296 1H4.67044C3.69731 1.00108 2.76435 1.38814 2.07624 2.07624C1.38814 2.76435 1.00108 3.69731 1 4.67044V17.3296C1.00108 18.3027 1.38814 19.2357 2.07624 19.9238C2.76435 20.6119 3.69731 20.9989 4.67044 21H17.3296C18.3027 20.9989 19.2357 20.6119 19.9238 19.9238C20.6119 19.2357 20.9989 18.3027 21 17.3296V4.67044C20.9989 3.69731 20.6119 2.76435 19.9238 2.07624C19.2357 1.38814 18.3027 1.00108 17.3296 1ZM19.9513 17.3296C19.9505 18.0246 19.674 18.691 19.1825 19.1825C18.691 19.674 18.0246 19.9505 17.3296 19.9513H4.67044C3.97536 19.9505 3.30898 19.674 2.81749 19.1825C2.326 18.691 2.04951 18.0246 2.0487 17.3296V4.67044C2.04951 3.97536 2.326 3.30898 2.81749 2.81749C3.30898 2.326 3.97536 2.04951 4.67044 2.0487H17.3296C18.0246 2.04951 18.691 2.326 19.1825 2.81749C19.674 3.30898 19.9505 3.97536 19.9513 4.67044V17.3296ZM14.7829 7.58765C14.7835 8.22729 14.6438 8.85928 14.3735 9.43902C14.1032 10.0188 13.709 10.5321 13.2187 10.9429L12.6662 11.4063C12.1967 11.7997 11.8193 12.2913 11.5605 12.8464C11.3017 13.4015 11.1679 14.0067 11.1685 14.6192C11.1685 14.7583 11.1132 14.8916 11.0149 14.99C10.9166 15.0883 10.7832 15.1436 10.6441 15.1436C10.5051 15.1436 10.3717 15.0883 10.2734 14.99C10.175 14.8916 10.1198 14.7583 10.1198 14.6192C10.119 13.8535 10.2862 13.097 10.6097 12.403C10.9333 11.709 11.4052 11.0944 11.9921 10.6027L12.5446 10.1393C12.9175 9.82684 13.2173 9.43639 13.4228 8.99547C13.6283 8.55455 13.7346 8.07391 13.7342 7.58744C13.7333 6.96687 13.4864 6.37195 13.0476 5.93316C12.6088 5.49437 12.0138 5.24752 11.3933 5.24675H10.6067C9.98613 5.24752 9.39117 5.4944 8.95233 5.93324C8.51349 6.37207 8.26662 6.96704 8.26584 7.58765C8.26584 7.72671 8.21059 7.86008 8.11226 7.95842C8.01393 8.05675 7.88056 8.112 7.74149 8.112C7.60243 8.112 7.46905 8.05675 7.37072 7.95842C7.27239 7.86008 7.21714 7.72671 7.21714 7.58765C7.21816 6.68898 7.5756 5.82741 8.21105 5.19196C8.8465 4.55651 9.70807 4.19906 10.6067 4.19805H11.3933C12.2919 4.19906 13.1535 4.55651 13.7889 5.19196C14.4244 5.82741 14.7818 6.68898 14.7829 7.58765ZM11.4022 16.7585C11.4022 16.9084 11.3577 17.055 11.2745 17.1796C11.1912 17.3043 11.0728 17.4015 10.9343 17.4588C10.7958 17.5162 10.6434 17.5312 10.4963 17.502C10.3493 17.4727 10.2142 17.4006 10.1082 17.2946C10.0022 17.1885 9.93 17.0535 9.90075 16.9064C9.8715 16.7594 9.8865 16.607 9.94387 16.4685C10.0012 16.33 10.0984 16.2116 10.2231 16.1283C10.3477 16.045 10.4943 16.0006 10.6442 16.0006C10.8452 16.0006 11.038 16.0804 11.1801 16.2225C11.3223 16.3647 11.4021 16.5574 11.4022 16.7584V16.7585Z" fill="#292D32" stroke="#292D32" stroke-width="0.4"/>
</svg>
