<svg width="22" height="16" viewBox="0 0 22 16" fill="none" xmlns="http://www.w3.org/2000/svg">
<path d="M18.593 5.97632H17.7177C17.8071 5.74798 17.8567 5.49984 17.8567 5.24013C17.8567 4.12342 16.9482 3.21484 15.8315 3.21484C15.2983 3.21484 14.8128 3.42234 14.4507 3.76037C14.0887 3.4223 13.6033 3.21484 13.07 3.21484C11.9533 3.21484 11.0447 4.12342 11.0447 5.24013C11.0447 5.49979 11.0944 5.74794 11.1839 5.97632H10.3086C9.95264 5.97632 9.66406 6.26489 9.66406 6.62085V9.38236C9.66406 9.73832 9.95264 10.0269 10.3086 10.0269H10.3544V12.1438C10.3544 12.4997 10.643 12.7883 10.999 12.7883H17.9026C18.2586 12.7883 18.5472 12.4997 18.5472 12.1438V10.0269H18.593C18.9489 10.0269 19.2375 9.73827 19.2375 9.38232V6.6208C19.2375 6.26489 18.949 5.97632 18.593 5.97632ZM13.8063 11.4993H11.6435V10.0269H13.8063V11.4993ZM13.8063 8.73783H10.9532V7.26538H13.8063V8.73783ZM13.8063 5.97632H13.0701C12.6641 5.97632 12.3338 5.64606 12.3338 5.24013C12.3338 4.83421 12.6641 4.50395 13.0701 4.50395C13.476 4.50395 13.8063 4.83425 13.8063 5.24018V5.97632ZM15.0953 5.24013C15.0953 4.83421 15.4256 4.50391 15.8315 4.50391C16.2375 4.50391 16.5677 4.83421 16.5677 5.24013C16.5677 5.64606 16.2375 5.97632 15.8315 5.97632H15.0953V5.24013ZM17.2581 11.4993H15.0953V10.0269H17.2581V11.4993ZM17.9484 8.73783H15.0953V7.26538H17.9484V8.73783Z" fill="black"/>
<path d="M19.2844 0.453125H2.71563C1.21821 0.453125 0 1.67138 0 3.16875V12.8339C0 14.3313 1.21825 15.5495 2.71563 15.5495H19.2844C20.7818 15.5495 22 14.3313 22 12.8339V3.16875C22 1.67138 20.7817 0.453125 19.2844 0.453125ZM20.7109 12.8339C20.7109 13.6205 20.071 14.2604 19.2844 14.2604H2.71563C1.929 14.2604 1.28906 13.6205 1.28906 12.8339V3.16875C1.28906 2.38212 1.92904 1.74219 2.71563 1.74219H19.2844C20.071 1.74219 20.7109 2.38216 20.7109 3.16875V12.8339Z" fill="black"/>
<path d="M5.47734 11.5H3.40625C3.0503 11.5 2.76172 11.7886 2.76172 12.1445C2.76172 12.5005 3.0503 12.7891 3.40625 12.7891H5.47734C5.8333 12.7891 6.12188 12.5005 6.12188 12.1445C6.12188 11.7886 5.8333 11.5 5.47734 11.5Z" fill="black"/>
<path d="M3.40625 4.50391H5.47734C5.8333 4.50391 6.12188 4.21533 6.12188 3.85938C6.12188 3.50342 5.8333 3.21484 5.47734 3.21484H3.40625C3.0503 3.21484 2.76172 3.50342 2.76172 3.85938C2.76172 4.21533 3.05025 4.50391 3.40625 4.50391Z" fill="black"/>
<path d="M7.54844 8.73828H3.40625C3.0503 8.73828 2.76172 9.02686 2.76172 9.38281C2.76172 9.73877 3.0503 10.0273 3.40625 10.0273H7.54844C7.90439 10.0273 8.19297 9.73877 8.19297 9.38281C8.19297 9.02686 7.90439 8.73828 7.54844 8.73828Z" fill="black"/>
</svg>
