<svg width="20" height="22" viewBox="0 0 20 22" fill="none" xmlns="http://www.w3.org/2000/svg">
<path d="M10.0009 21C8.28057 21 6.78057 19.7712 6.43311 18.0847L6.33989 17.6102H3.64498C2.72972 17.6102 1.89074 17.0763 1.50091 16.2542C1.22972 15.678 1.19582 15.0339 1.40769 14.4407C1.61955 13.8475 2.05176 13.3644 2.62803 13.0932L2.96701 12.9322V8.0339C2.96701 4.15254 6.11955 1 10.0009 1C13.8823 1 17.0348 4.15254 17.0348 8.0339V12.9322L17.3738 13.0932C18.1958 13.4831 18.7297 14.322 18.7297 15.2373C18.7297 16.5424 17.6619 17.6102 16.3568 17.6102H13.6704L13.5772 18.0847C13.289 19.5254 12.1704 20.6356 10.7297 20.9322C10.484 20.9746 10.2382 21 10.0009 21ZM7.05175 18.3983C7.49243 19.6441 8.67887 20.483 9.99243 20.4915C11.3145 20.483 12.5009 19.6441 12.9416 18.3983L13.2212 17.6102H6.77209L7.05175 18.3983ZM10.0009 1.50847C6.39921 1.50847 3.47548 4.4322 3.47548 8.0339V13.161C3.47548 13.2797 3.39074 13.3898 3.27209 13.4068C2.40769 13.5847 1.78057 14.3475 1.78057 15.2373C1.78057 16.2627 2.61955 17.1017 3.64498 17.1017H16.3568C17.2382 17.1017 18.0094 16.4746 18.1873 15.6102C18.289 15.1186 18.1873 14.6271 17.9162 14.2119C17.6365 13.7966 17.2212 13.5169 16.7297 13.4153C16.6111 13.3814 16.5263 13.2797 16.5263 13.161V8.0339C16.5263 4.4322 13.6026 1.50847 10.0009 1.50847Z" fill="#3D857E" stroke="#3D857E" stroke-width="1.3"/>
</svg>
