<svg width="18" height="22" viewBox="0 0 18 22" fill="none" xmlns="http://www.w3.org/2000/svg">
<path d="M16.535 20.999H1.29205C1.20565 20.999 1.13574 20.9302 1.13574 20.8452V1.15384C1.13574 1.06881 1.20565 1 1.29205 1H12.196C12.2823 1 12.3523 1.06881 12.3523 1.15384C12.3523 1.23887 12.2823 1.30768 12.196 1.30768H1.44836V20.6914H16.3787V5.36893C16.3787 5.2839 16.4486 5.21509 16.535 5.21509C16.6214 5.21509 16.6913 5.2839 16.6913 5.36893V20.8452C16.6913 20.9302 16.6214 20.999 16.535 20.999Z" fill="#3D857E" stroke="#3D857E" stroke-width="1.4" stroke-linecap="round" stroke-linejoin="round"/>
<path d="M16.7082 5.52289H12.3707C12.2843 5.52289 12.2144 5.45408 12.2144 5.36905V1.15396C12.2144 1.09191 12.2522 1.03587 12.3105 1.01199C12.3673 0.987948 12.4354 1.00072 12.4806 1.04444L16.8181 5.25953C16.8633 5.3034 16.877 5.3698 16.8529 5.42749C16.8288 5.48518 16.7717 5.52289 16.7082 5.52289ZM12.527 5.21521H16.3275L12.527 1.52203V5.21521Z" fill="#3D857E" stroke="#3D857E" stroke-width="1.2" stroke-linecap="round" stroke-linejoin="round"/>
<path d="M13.1811 13.9092H3.53476C3.43701 13.9092 3.35791 13.8404 3.35791 13.7554C3.35791 13.6704 3.43701 13.6016 3.53476 13.6016H13.1811C13.2788 13.6016 13.3579 13.6704 13.3579 13.7554C13.3579 13.8404 13.2788 13.9092 13.1811 13.9092Z" fill="#3D857E" stroke="#3D857E" stroke-width="1.2" stroke-linecap="round" stroke-linejoin="round"/>
<path d="M8.91523 8.81986V6.71164C8.91523 6.12224 8.4122 5.65753 7.80137 5.65753H7.77742V4.94345C7.77742 4.09336 7.04682 3.39062 6.13657 3.39062C5.22632 3.39062 4.49572 4.08203 4.49572 4.94345V5.65753H4.47177C3.84897 5.65753 3.35791 6.13358 3.35791 6.71164V8.81986C3.35791 9.40925 3.86094 9.87397 4.47177 9.87397H7.77742C8.4122 9.8853 8.91523 9.40925 8.91523 8.81986ZM5.03469 4.94345C5.03469 4.36539 5.52574 3.90068 6.13657 3.90068C6.7474 3.90068 7.23845 4.36539 7.23845 4.94345V5.65753H5.03469V4.94345Z" fill="#3D857E"/>
<path d="M13.1811 17.2139H3.53476C3.43701 17.2139 3.35791 17.1451 3.35791 17.0601C3.35791 16.9751 3.43701 16.9062 3.53476 16.9062H13.1811C13.2788 16.9062 13.3579 16.9751 13.3579 17.0601C13.3579 17.1451 13.2788 17.2139 13.1811 17.2139Z" fill="#3D857E" stroke="#3D857E" stroke-width="1.2" stroke-linecap="round" stroke-linejoin="round"/>
</svg>
