<svg width="20" height="20" viewBox="0 0 20 20" fill="none" xmlns="http://www.w3.org/2000/svg">
<path d="M10 12.5C11.3807 12.5 12.5 11.3807 12.5 10C12.5 8.61929 11.3807 7.5 10 7.5C8.61929 7.5 7.5 8.61929 7.5 10C7.5 11.3807 8.61929 12.5 10 12.5Z" stroke="#292D32" stroke-width="1.5" stroke-miterlimit="10" stroke-linecap="round" stroke-linejoin="round"/>
<path d="M1.66602 10.7319V9.26523C1.66602 8.39856 2.37435 7.6819 3.24935 7.6819C4.75768 7.6819 5.37435 6.61523 4.61602 5.3069C4.18268 4.5569 4.44102 3.5819 5.19935 3.14856L6.64102 2.32356C7.29935 1.9319 8.14935 2.16523 8.54102 2.82356L8.63268 2.9819C9.38268 4.29023 10.616 4.29023 11.3743 2.9819L11.466 2.82356C11.8577 2.16523 12.7077 1.9319 13.366 2.32356L14.8077 3.14856C15.566 3.5819 15.8243 4.5569 15.391 5.3069C14.6327 6.61523 15.2494 7.6819 16.7577 7.6819C17.6244 7.6819 18.341 8.39023 18.341 9.26523V10.7319C18.341 11.5986 17.6327 12.3152 16.7577 12.3152C15.2494 12.3152 14.6327 13.3819 15.391 14.6902C15.8243 15.4486 15.566 16.4152 14.8077 16.8486L13.366 17.6736C12.7077 18.0652 11.8577 17.8319 11.466 17.1736L11.3743 17.0152C10.6243 15.7069 9.39102 15.7069 8.63268 17.0152L8.54102 17.1736C8.14935 17.8319 7.29935 18.0652 6.64102 17.6736L5.19935 16.8486C4.44102 16.4152 4.18268 15.4402 4.61602 14.6902C5.37435 13.3819 4.75768 12.3152 3.24935 12.3152C2.37435 12.3152 1.66602 11.5986 1.66602 10.7319Z" stroke="#292D32" stroke-width="1.5" stroke-miterlimit="10" stroke-linecap="round" stroke-linejoin="round"/>
</svg>
