<svg width="20" height="20" viewBox="0 0 20 20" fill="none" xmlns="http://www.w3.org/2000/svg">
<path d="M16.7493 7.6819C15.241 7.6819 14.6244 6.61523 15.3744 5.3069C15.8077 4.54856 15.5493 3.5819 14.791 3.14856L13.3493 2.32356C12.691 1.9319 11.841 2.16523 11.4493 2.82356L11.3577 2.9819C10.6077 4.29023 9.37435 4.29023 8.61602 2.9819L8.52435 2.82356C8.14935 2.16523 7.29935 1.9319 6.64102 2.32356L5.19935 3.14856C4.44102 3.5819 4.18268 4.5569 4.61602 5.31523C5.37435 6.61523 4.75768 7.6819 3.24935 7.6819C2.38268 7.6819 1.66602 8.39023 1.66602 9.26523V10.7319C1.66602 11.5986 2.37435 12.3152 3.24935 12.3152C4.75768 12.3152 5.37435 13.3819 4.61602 14.6902C4.18268 15.4486 4.44102 16.4152 5.19935 16.8486L6.64102 17.6736C7.29935 18.0652 8.14935 17.8319 8.54102 17.1736L8.63268 17.0152C9.38268 15.7069 10.616 15.7069 11.3743 17.0152L11.466 17.1736C11.8577 17.8319 12.7077 18.0652 13.366 17.6736L14.8077 16.8486C15.566 16.4152 15.8243 15.4402 15.391 14.6902C14.6327 13.3819 15.2494 12.3152 16.7577 12.3152C17.6244 12.3152 18.341 11.6069 18.341 10.7319V9.26523C18.3327 8.39856 17.6243 7.6819 16.7493 7.6819ZM9.99935 12.7069C8.50768 12.7069 7.29102 11.4902 7.29102 9.99856C7.29102 8.5069 8.50768 7.29023 9.99935 7.29023C11.491 7.29023 12.7077 8.5069 12.7077 9.99856C12.7077 11.4902 11.491 12.7069 9.99935 12.7069Z" fill="#40857E"/>
</svg>
