<svg width="18" height="22" viewBox="0 0 18 22" fill="none" xmlns="http://www.w3.org/2000/svg">
<path d="M15.6171 1.00003C16.4091 1.00003 17.0557 1.64211 17.0557 2.4286V19.5714C17.0557 20.3579 16.4091 21 15.6171 21H11.0135C10.9754 21.0005 10.9375 20.9935 10.9021 20.9794C10.8668 20.9653 10.8346 20.9443 10.8074 20.9177C10.7803 20.8911 10.7587 20.8595 10.744 20.8245C10.7293 20.7896 10.7217 20.7521 10.7217 20.7143C10.7217 20.6764 10.7293 20.6389 10.744 20.604C10.7587 20.569 10.7803 20.5374 10.8074 20.5108C10.8346 20.4842 10.8668 20.4632 10.9021 20.4491C10.9375 20.435 10.9754 20.428 11.0135 20.4285H15.6171C16.1002 20.4285 16.4802 20.0512 16.4802 19.5714V2.4286C16.4802 1.9488 16.1002 1.57146 15.6171 1.57146H11.0135C10.9754 1.57199 10.9375 1.565 10.9021 1.55088C10.8668 1.53676 10.8346 1.5158 10.8074 1.48922C10.7803 1.46263 10.7587 1.43095 10.744 1.39602C10.7293 1.36109 10.7217 1.32361 10.7217 1.28574C10.7217 1.24788 10.7293 1.21039 10.744 1.17546C10.7587 1.14053 10.7803 1.10885 10.8074 1.08227C10.8346 1.05569 10.8668 1.03472 10.9021 1.02061C10.9375 1.00649 10.9754 0.999493 11.0135 1.00003H15.6171ZM5.26806 6.13394C5.3241 6.13437 5.37881 6.15104 5.42545 6.18191C5.47209 6.21277 5.50863 6.2565 5.5306 6.3077C5.55256 6.35891 5.55898 6.41537 5.54908 6.47016C5.53918 6.52494 5.51338 6.57566 5.47486 6.61608L1.86035 10.7143H12.7398C12.7578 10.7126 12.7758 10.7126 12.7938 10.7143C12.8701 10.7214 12.9404 10.7583 12.9893 10.8169C13.0382 10.8755 13.0617 10.951 13.0545 11.0268C13.0474 11.1026 13.0102 11.1724 12.9512 11.221C12.8922 11.2695 12.8161 11.2928 12.7398 11.2857H1.86035L5.47486 15.3839C5.5035 15.4114 5.52609 15.4445 5.5412 15.4811C5.5563 15.5176 5.5636 15.5569 5.56262 15.5965C5.56164 15.636 5.55241 15.6749 5.53551 15.7107C5.51861 15.7465 5.49441 15.7785 5.46444 15.8045C5.43447 15.8305 5.39939 15.8501 5.3614 15.862C5.32342 15.8739 5.28337 15.8778 5.24378 15.8735C5.2042 15.8692 5.16593 15.8568 5.13142 15.8371C5.09691 15.8174 5.06689 15.7908 5.04327 15.7589L1.01517 11.1875C0.969631 11.1355 0.944553 11.0689 0.944553 11C0.944553 10.9311 0.969631 10.8645 1.01517 10.8125L5.04327 6.24108C5.07025 6.20763 5.10446 6.18063 5.14337 6.16208C5.18228 6.14353 5.2249 6.13392 5.26806 6.13394Z" fill="#3D857E" stroke="#3D857E" stroke-width="1.3"/>
</svg>
