<svg width="20" height="20" viewBox="0 0 20 20" fill="none" xmlns="http://www.w3.org/2000/svg">
<g clip-path="url(#clip0_10232_3958)">
<path d="M15.8002 5.75C15.6155 3.92107 15.0237 2.62893 13.9912 1.83929C13.8345 1.71946 13.8046 1.49528 13.9244 1.33857C14.0443 1.18186 14.2684 1.15196 14.4252 1.27179C15.8416 2.35536 16.5462 4.18286 16.5802 6.85036C17.9881 4.86483 18.5174 2.38755 18.0437 0H9.84766C12.1487 1.25286 14.3619 3.56536 15.8002 5.75Z" fill="#40857E"/>
<path d="M10.0008 13.5703C9.61644 13.6828 9.24292 13.8296 8.88477 14.0089C9.58344 14.3764 10.4182 14.3764 11.1169 14.0089C10.7588 13.8296 10.3852 13.6828 10.0008 13.5703Z" fill="#40857E"/>
<path d="M5.53487 14.488C6.11034 14.9799 6.76161 15.3755 7.46344 15.6594C8.28543 15.9768 8.93979 16.6196 9.27165 17.4359C9.75474 17.5112 10.2465 17.512 10.7299 17.4384C11.0615 16.621 11.7163 15.9772 12.5392 15.6594C13.253 15.3695 13.9149 14.9653 14.4988 14.4627C15.7131 12.2484 15.8617 9.74516 15.8674 7.2173C15.1084 5.88158 13.1192 2.80087 10.0013 0.910156C6.89022 2.78694 4.90522 5.86301 4.14844 7.19587C4.14987 9.69194 4.30987 12.3177 5.53487 14.488ZM10.3584 16.4269H9.64415C9.44691 16.4269 9.28701 16.267 9.28701 16.0698C9.28701 15.8726 9.44691 15.7127 9.64415 15.7127H10.3584C10.5557 15.7127 10.7156 15.8726 10.7156 16.0698C10.7156 16.267 10.5557 16.4269 10.3584 16.4269ZM10.0013 14.9984C8.86737 14.9984 7.85844 14.3591 7.85844 13.8555C7.85962 13.7359 7.91013 13.6221 7.99802 13.541C8.08591 13.4598 8.2034 13.4186 8.32272 13.4269C8.56326 13.3737 8.79557 13.2884 9.01344 13.1734C9.94201 12.7509 10.0552 12.7505 10.9856 13.1734C11.2035 13.2884 11.4358 13.3737 11.6763 13.4269C11.7962 13.4174 11.9147 13.4582 12.0035 13.5394C12.0922 13.6207 12.1431 13.7352 12.1442 13.8555C12.1442 14.3591 11.1352 14.9984 10.0013 14.9984ZM15.3584 8.92694C15.3584 9.12419 15.1985 9.28408 15.0013 9.28408C14.7346 9.26978 14.4784 9.17558 14.2659 9.01373C14.2127 9.04587 14.1588 9.07373 14.1052 9.10123C14.1557 9.17723 14.2232 9.24044 14.3024 9.28587C14.3964 9.28585 14.4865 9.32371 14.5523 9.39092C14.6181 9.45812 14.654 9.54899 14.652 9.64301C14.652 10.0784 13.9867 10.2541 13.4038 9.3498C12.8284 9.46735 12.2327 9.4385 11.6713 9.26587C11.5505 9.22466 11.4609 9.12215 11.4362 8.99695C11.4115 8.87176 11.4555 8.7429 11.5516 8.65891C11.6477 8.57493 11.7812 8.54859 11.902 8.5898C11.927 8.59837 13.1367 8.98694 14.0727 8.28516C14.2149 8.17855 14.4138 8.1927 14.5395 8.31837C14.6645 8.44695 14.8255 8.53462 15.0013 8.5698C15.096 8.5698 15.1869 8.60743 15.2538 8.6744C15.3208 8.74138 15.3584 8.83222 15.3584 8.92694ZM11.317 6.74551L12.702 6.28408C13.2768 6.09106 13.9049 6.13568 14.4467 6.40801C14.5618 6.46445 14.6379 6.57831 14.6459 6.70632C14.654 6.83432 14.5928 6.95681 14.4856 7.02723C14.3784 7.09764 14.2416 7.10517 14.1274 7.04694C13.7555 6.86012 13.3243 6.82977 12.9299 6.96266L11.5427 7.42337C11.4215 7.46369 11.288 7.43628 11.1925 7.35146C11.0969 7.26665 11.0539 7.13731 11.0796 7.01218C11.1053 6.88704 11.1958 6.78512 11.317 6.7448V6.74551ZM9.12808 11.1298C9.65663 11.4831 10.346 11.4831 10.8745 11.1298C10.9807 11.059 11.1165 11.0502 11.2309 11.1067C11.3454 11.1632 11.4209 11.2765 11.4292 11.4039C11.4374 11.5312 11.3771 11.6533 11.2709 11.7241C10.5026 12.2382 9.50002 12.2382 8.73165 11.7241C8.56754 11.6146 8.52325 11.3928 8.63272 11.2287C8.74219 11.0646 8.96397 11.0203 9.12808 11.1298ZM5.55665 6.40766C6.09827 6.1353 6.72626 6.09068 7.30094 6.28373L8.6863 6.74551C8.85277 6.80082 8.95443 6.96883 8.92618 7.14195C8.89793 7.31508 8.74814 7.44206 8.57272 7.44158C8.48951 7.44158 8.57272 7.46123 7.07451 6.96158C6.67942 6.82879 6.24764 6.85939 5.87522 7.04659C5.76094 7.10481 5.62422 7.09729 5.51702 7.02687C5.40982 6.95646 5.3486 6.83397 5.35665 6.70596C5.3647 6.57795 5.44076 6.46409 5.55594 6.40766H5.55665ZM5.00129 8.5698C5.17823 8.53442 5.34018 8.44597 5.46558 8.31623C5.59116 8.19231 5.78841 8.17865 5.92987 8.28408C6.87058 8.9898 8.08844 8.59266 8.10094 8.58873C8.28684 8.52775 8.4872 8.62771 8.5503 8.8129C8.6134 8.99809 8.51575 9.19958 8.33129 9.2648C7.76998 9.4377 7.17419 9.46656 6.59879 9.34873C6.01844 10.2484 5.35844 10.0794 5.35844 9.64123C5.35844 9.44398 5.51834 9.28408 5.71558 9.28408C5.78853 9.23662 5.85091 9.17461 5.89879 9.10194C5.84451 9.07444 5.79165 9.04587 5.73665 9.01373C5.52421 9.17558 5.26799 9.26978 5.00129 9.28408C4.80405 9.28408 4.64415 9.12419 4.64415 8.92694C4.64415 8.7297 4.80405 8.5698 5.00129 8.5698Z" fill="#40857E"/>
<path d="M16.5729 7.92125C16.5748 9.21603 16.4543 10.5081 16.2129 11.7802C16.8611 11.5495 17.7329 10.9059 17.7329 9.10768C17.7329 7.93875 17.4472 7.70947 17.3582 7.66732C17.1961 7.58875 16.9032 7.68661 16.5729 7.92125Z" fill="#40857E"/>
<path d="M8.92936 19.2143C8.92936 17.7004 8.07221 16.6186 7.23686 16.3404C6.30223 15.9596 5.44286 15.4154 4.699 14.7333C4.29804 14.4025 3.71857 14.4034 3.31864 14.7354C3.61543 15.1904 3.7015 15.2383 5.66579 17.2026C5.75863 17.2922 5.79586 17.425 5.76318 17.5499C5.73049 17.6748 5.63298 17.7723 5.50811 17.805C5.38324 17.8376 5.25046 17.8004 5.16079 17.7076C2.35079 14.8979 2.88686 15.6947 1.43936 12.3165C1.37083 12.1384 1.20999 12.0124 1.02068 11.9885C0.831379 11.9646 0.644244 12.0466 0.533573 12.202C0.422902 12.3575 0.406602 12.5611 0.491144 12.7322C2.11829 16.3122 2.16972 16.6093 2.77364 17.2122L5.56114 20.0001H8.92936V19.2143Z" fill="#40857E"/>
<path d="M19.4734 12.2374C19.3696 12.0764 19.1854 11.9858 18.9944 12.0018C18.8035 12.0178 18.637 12.1378 18.5613 12.3138C17.1174 15.6835 17.6488 14.896 14.8399 17.7067C14.6997 17.842 14.477 17.8401 14.3392 17.7023C14.2015 17.5646 14.1995 17.3418 14.3349 17.2017C16.2913 15.2456 16.3838 15.1913 16.682 14.7345C16.2821 14.4025 15.7026 14.4016 15.3017 14.7324C12.887 16.7649 12.6345 16.002 11.782 17.0677C10.9824 18.0652 11.0713 19.1377 11.0713 20.0002H14.4395L17.2274 17.2124C17.8088 16.6302 17.8067 16.4785 19.5095 12.7324C19.584 12.5723 19.5704 12.385 19.4734 12.2374Z" fill="#40857E"/>
<path d="M9.28933 0.512857C8.94298 0.333256 8.58749 0.171846 8.22433 0.0292857C7.08287 0.582496 6.07726 1.38032 5.27897 2.36607C5.15569 2.52012 4.93087 2.54506 4.77683 2.42179C4.62278 2.29851 4.59783 2.07369 4.72111 1.91964C5.32101 1.1752 6.0321 0.527717 6.82933 0H1.95826C1.47485 2.42045 2.02601 4.93276 3.47826 6.92857C4.37683 5.32607 6.29147 2.44286 9.28933 0.512857ZM3.92861 3.57143C3.73137 3.57143 3.57147 3.41153 3.57147 3.21429C3.57147 3.01704 3.73137 2.85714 3.92861 2.85714C4.12586 2.85714 4.28576 3.01704 4.28576 3.21429C4.28576 3.41153 4.12586 3.57143 3.92861 3.57143Z" fill="#40857E"/>
<path d="M2.6582 7.67012C2.57035 7.71226 2.2832 7.94155 2.2832 9.11048C2.2832 10.9094 3.15606 11.5526 3.80427 11.7833C3.56278 10.5111 3.44212 9.21896 3.44392 7.92405C3.11642 7.69262 2.81749 7.59334 2.6582 7.67012Z" fill="#40857E"/>
</g>
<defs>
<clipPath id="clip0_10232_3958">
<rect width="20" height="20" fill="white"/>
</clipPath>
</defs>
</svg>
