<svg width="20" height="20" viewBox="0 0 20 20" fill="none" xmlns="http://www.w3.org/2000/svg">
<g clip-path="url(#clip0_10215_3958)">
<mask id="path-1-outside-1_10215_3958" maskUnits="userSpaceOnUse" x="-0.580078" y="-1" width="21" height="22" fill="black">
<rect fill="white" x="-0.580078" y="-1" width="21" height="22"/>
<path d="M3.44757 13.821L2.6229 11.8967C2.36627 11.3155 1.68709 11.0524 1.1059 11.309C0.524713 11.5656 0.261606 12.2448 0.518234 12.826C2.03723 16.1677 2.11123 16.5297 2.7849 17.2027L5.4849 19.9027C5.5474 19.9652 5.63217 20.0003 5.72057 20.0003H9.33423C9.51833 20.0003 9.66757 19.8511 9.66757 19.667C9.71241 18.9911 9.67536 18.3123 9.55723 17.6453C9.85235 17.6733 10.1495 17.6733 10.4446 17.6453C10.3009 18.2553 10.3342 18.63 10.3342 19.6667C10.3342 19.8508 10.4835 20 10.6676 20H14.2826C14.371 20 14.4557 19.9649 14.5182 19.9023L17.2182 17.2023C17.8909 16.5293 17.9446 16.212 19.4849 12.8257C19.6509 12.4497 19.6037 12.0137 19.3611 11.682C19.1186 11.3502 18.7174 11.1731 18.3088 11.2173C17.9002 11.2615 17.5462 11.5204 17.3802 11.8963L16.5542 13.821C16.1673 13.5533 15.6864 13.4587 15.2269 13.56C15.3811 13.1817 15.5121 12.7943 15.6189 12.4C16.2806 12.2667 17.8836 11.6857 17.8836 9.16667C17.8836 8.313 17.7349 7.261 16.8859 7.145C18.0859 5.28768 18.5655 3.05567 18.2342 0.869337L18.1009 0.261004C18.0669 0.107912 17.9307 -0.000752895 17.7739 3.92865e-06H2.2279C2.0717 3.07353e-05 1.93646 0.108523 1.90257 0.261004L1.76257 0.894337C1.43723 3.07438 1.91881 5.2982 3.1169 7.14834C2.27623 7.27367 2.13057 8.32267 2.13057 9.168C2.13057 11.688 3.7349 12.268 4.39723 12.4013C4.50469 12.7968 4.63616 13.1853 4.7909 13.5647C4.32701 13.4569 3.8392 13.55 3.44757 13.821ZM9.0009 19.3333H5.85723L3.25723 16.7313C2.7129 16.1883 2.71357 16.0443 1.12523 12.55C1.05545 12.3919 1.0753 12.2086 1.17732 12.0691C1.27934 11.9296 1.44802 11.8552 1.61982 11.8738C1.79162 11.8924 1.94045 12.0012 2.01023 12.1593C3.36057 15.3107 2.83557 14.543 5.48357 17.1927C5.56726 17.2793 5.69119 17.3141 5.80774 17.2836C5.92428 17.2531 6.01529 17.1621 6.0458 17.0455C6.0763 16.929 6.04155 16.805 5.9549 16.7213C4.1289 14.8957 4.04257 14.845 3.76423 14.4187C4.1375 14.1088 4.67834 14.1079 5.05257 14.4167C5.74684 15.0533 6.54891 15.5612 7.42123 15.9167C8.2009 16.1757 9.0009 17.186 9.0009 18.6V19.3333ZM9.3199 16.9417C9.01026 16.1798 8.39949 15.5798 7.63223 15.2837C6.9772 15.0187 6.36934 14.6495 5.83223 14.1903C4.6869 12.161 4.53957 9.71534 4.5379 7.385C5.24423 6.14034 7.0969 3.26934 10.0009 1.51767C12.9112 3.28234 14.7676 6.15767 15.4762 7.40567C15.4709 9.77234 15.3296 12.1057 14.1989 14.168C13.6538 14.6367 13.0361 15.0135 12.3699 15.2837C11.602 15.5804 10.9909 16.1812 10.6812 16.944C10.23 17.0128 9.77089 17.012 9.3199 16.9417ZM16.2376 14.417C15.9606 14.8417 15.8802 14.8863 14.0469 16.7197C13.9206 16.8505 13.9224 17.0584 14.051 17.1869C14.1795 17.3155 14.3874 17.3173 14.5182 17.191C17.1409 14.5687 16.6406 15.3123 17.9916 12.1593C18.0614 12.0012 18.2102 11.8924 18.382 11.8738C18.5538 11.8552 18.7225 11.9296 18.8245 12.0691C18.9265 12.2086 18.9464 12.3919 18.8766 12.55C17.3119 15.9923 17.3022 16.175 16.7466 16.7313L14.1446 19.3333H11.0009V18.6C10.9895 17.8764 11.2233 17.1702 11.6642 16.5963C12.4459 15.619 12.6952 16.314 14.9492 14.4167C15.3231 14.1075 15.8639 14.1076 16.2376 14.417ZM17.2169 9.16667C17.2169 10.845 16.4032 11.4457 15.7982 11.661C16.0234 10.4742 16.1359 9.26869 16.1342 8.06067C16.4426 7.84167 16.7159 7.75034 16.8676 7.82367C16.9492 7.863 17.2169 8.077 17.2169 9.16667ZM17.5072 0.666671C17.9487 2.89461 17.4545 5.20606 16.1406 7.05867C16.1089 4.569 15.4512 2.86334 14.1292 1.852C13.983 1.74017 13.7737 1.76807 13.6619 1.91434C13.5501 2.0606 13.578 2.26983 13.7242 2.38167C14.6879 3.11867 15.2402 4.32467 15.4126 6.03167C14.0759 4.00167 12.0116 1.83934 9.85757 0.666671H17.5072ZM2.49523 0.666671H7.04157C6.29784 1.15929 5.6345 1.76361 5.0749 2.45834C4.95984 2.60212 4.98312 2.81194 5.1269 2.927C5.27068 3.04206 5.48051 3.01878 5.59557 2.875C6.34064 1.95497 7.27921 1.21033 8.34457 0.694004C8.68318 0.827092 9.01463 0.977741 9.33757 1.14534C6.53957 2.94667 4.75257 5.63767 3.9139 7.13334C2.55881 5.27043 2.04443 2.92576 2.49523 0.666671ZM2.79723 9.16667C2.79723 8.07567 3.0639 7.86167 3.14723 7.82234C3.2959 7.75067 3.5749 7.84334 3.88057 8.05934C3.87889 9.26792 3.9915 10.474 4.2169 11.6613C3.6119 11.4473 2.79723 10.847 2.79723 9.16667Z"/>
</mask>
<path d="M3.44757 13.821L2.6229 11.8967C2.36627 11.3155 1.68709 11.0524 1.1059 11.309C0.524713 11.5656 0.261606 12.2448 0.518234 12.826C2.03723 16.1677 2.11123 16.5297 2.7849 17.2027L5.4849 19.9027C5.5474 19.9652 5.63217 20.0003 5.72057 20.0003H9.33423C9.51833 20.0003 9.66757 19.8511 9.66757 19.667C9.71241 18.9911 9.67536 18.3123 9.55723 17.6453C9.85235 17.6733 10.1495 17.6733 10.4446 17.6453C10.3009 18.2553 10.3342 18.63 10.3342 19.6667C10.3342 19.8508 10.4835 20 10.6676 20H14.2826C14.371 20 14.4557 19.9649 14.5182 19.9023L17.2182 17.2023C17.8909 16.5293 17.9446 16.212 19.4849 12.8257C19.6509 12.4497 19.6037 12.0137 19.3611 11.682C19.1186 11.3502 18.7174 11.1731 18.3088 11.2173C17.9002 11.2615 17.5462 11.5204 17.3802 11.8963L16.5542 13.821C16.1673 13.5533 15.6864 13.4587 15.2269 13.56C15.3811 13.1817 15.5121 12.7943 15.6189 12.4C16.2806 12.2667 17.8836 11.6857 17.8836 9.16667C17.8836 8.313 17.7349 7.261 16.8859 7.145C18.0859 5.28768 18.5655 3.05567 18.2342 0.869337L18.1009 0.261004C18.0669 0.107912 17.9307 -0.000752895 17.7739 3.92865e-06H2.2279C2.0717 3.07353e-05 1.93646 0.108523 1.90257 0.261004L1.76257 0.894337C1.43723 3.07438 1.91881 5.2982 3.1169 7.14834C2.27623 7.27367 2.13057 8.32267 2.13057 9.168C2.13057 11.688 3.7349 12.268 4.39723 12.4013C4.50469 12.7968 4.63616 13.1853 4.7909 13.5647C4.32701 13.4569 3.8392 13.55 3.44757 13.821ZM9.0009 19.3333H5.85723L3.25723 16.7313C2.7129 16.1883 2.71357 16.0443 1.12523 12.55C1.05545 12.3919 1.0753 12.2086 1.17732 12.0691C1.27934 11.9296 1.44802 11.8552 1.61982 11.8738C1.79162 11.8924 1.94045 12.0012 2.01023 12.1593C3.36057 15.3107 2.83557 14.543 5.48357 17.1927C5.56726 17.2793 5.69119 17.3141 5.80774 17.2836C5.92428 17.2531 6.01529 17.1621 6.0458 17.0455C6.0763 16.929 6.04155 16.805 5.9549 16.7213C4.1289 14.8957 4.04257 14.845 3.76423 14.4187C4.1375 14.1088 4.67834 14.1079 5.05257 14.4167C5.74684 15.0533 6.54891 15.5612 7.42123 15.9167C8.2009 16.1757 9.0009 17.186 9.0009 18.6V19.3333ZM9.3199 16.9417C9.01026 16.1798 8.39949 15.5798 7.63223 15.2837C6.9772 15.0187 6.36934 14.6495 5.83223 14.1903C4.6869 12.161 4.53957 9.71534 4.5379 7.385C5.24423 6.14034 7.0969 3.26934 10.0009 1.51767C12.9112 3.28234 14.7676 6.15767 15.4762 7.40567C15.4709 9.77234 15.3296 12.1057 14.1989 14.168C13.6538 14.6367 13.0361 15.0135 12.3699 15.2837C11.602 15.5804 10.9909 16.1812 10.6812 16.944C10.23 17.0128 9.77089 17.012 9.3199 16.9417ZM16.2376 14.417C15.9606 14.8417 15.8802 14.8863 14.0469 16.7197C13.9206 16.8505 13.9224 17.0584 14.051 17.1869C14.1795 17.3155 14.3874 17.3173 14.5182 17.191C17.1409 14.5687 16.6406 15.3123 17.9916 12.1593C18.0614 12.0012 18.2102 11.8924 18.382 11.8738C18.5538 11.8552 18.7225 11.9296 18.8245 12.0691C18.9265 12.2086 18.9464 12.3919 18.8766 12.55C17.3119 15.9923 17.3022 16.175 16.7466 16.7313L14.1446 19.3333H11.0009V18.6C10.9895 17.8764 11.2233 17.1702 11.6642 16.5963C12.4459 15.619 12.6952 16.314 14.9492 14.4167C15.3231 14.1075 15.8639 14.1076 16.2376 14.417ZM17.2169 9.16667C17.2169 10.845 16.4032 11.4457 15.7982 11.661C16.0234 10.4742 16.1359 9.26869 16.1342 8.06067C16.4426 7.84167 16.7159 7.75034 16.8676 7.82367C16.9492 7.863 17.2169 8.077 17.2169 9.16667ZM17.5072 0.666671C17.9487 2.89461 17.4545 5.20606 16.1406 7.05867C16.1089 4.569 15.4512 2.86334 14.1292 1.852C13.983 1.74017 13.7737 1.76807 13.6619 1.91434C13.5501 2.0606 13.578 2.26983 13.7242 2.38167C14.6879 3.11867 15.2402 4.32467 15.4126 6.03167C14.0759 4.00167 12.0116 1.83934 9.85757 0.666671H17.5072ZM2.49523 0.666671H7.04157C6.29784 1.15929 5.6345 1.76361 5.0749 2.45834C4.95984 2.60212 4.98312 2.81194 5.1269 2.927C5.27068 3.04206 5.48051 3.01878 5.59557 2.875C6.34064 1.95497 7.27921 1.21033 8.34457 0.694004C8.68318 0.827092 9.01463 0.977741 9.33757 1.14534C6.53957 2.94667 4.75257 5.63767 3.9139 7.13334C2.55881 5.27043 2.04443 2.92576 2.49523 0.666671ZM2.79723 9.16667C2.79723 8.07567 3.0639 7.86167 3.14723 7.82234C3.2959 7.75067 3.5749 7.84334 3.88057 8.05934C3.87889 9.26792 3.9915 10.474 4.2169 11.6613C3.6119 11.4473 2.79723 10.847 2.79723 9.16667Z" fill="black"/>
<path d="M3.44757 13.821L2.6229 11.8967C2.36627 11.3155 1.68709 11.0524 1.1059 11.309C0.524713 11.5656 0.261606 12.2448 0.518234 12.826C2.03723 16.1677 2.11123 16.5297 2.7849 17.2027L5.4849 19.9027C5.5474 19.9652 5.63217 20.0003 5.72057 20.0003H9.33423C9.51833 20.0003 9.66757 19.8511 9.66757 19.667C9.71241 18.9911 9.67536 18.3123 9.55723 17.6453C9.85235 17.6733 10.1495 17.6733 10.4446 17.6453C10.3009 18.2553 10.3342 18.63 10.3342 19.6667C10.3342 19.8508 10.4835 20 10.6676 20H14.2826C14.371 20 14.4557 19.9649 14.5182 19.9023L17.2182 17.2023C17.8909 16.5293 17.9446 16.212 19.4849 12.8257C19.6509 12.4497 19.6037 12.0137 19.3611 11.682C19.1186 11.3502 18.7174 11.1731 18.3088 11.2173C17.9002 11.2615 17.5462 11.5204 17.3802 11.8963L16.5542 13.821C16.1673 13.5533 15.6864 13.4587 15.2269 13.56C15.3811 13.1817 15.5121 12.7943 15.6189 12.4C16.2806 12.2667 17.8836 11.6857 17.8836 9.16667C17.8836 8.313 17.7349 7.261 16.8859 7.145C18.0859 5.28768 18.5655 3.05567 18.2342 0.869337L18.1009 0.261004C18.0669 0.107912 17.9307 -0.000752895 17.7739 3.92865e-06H2.2279C2.0717 3.07353e-05 1.93646 0.108523 1.90257 0.261004L1.76257 0.894337C1.43723 3.07438 1.91881 5.2982 3.1169 7.14834C2.27623 7.27367 2.13057 8.32267 2.13057 9.168C2.13057 11.688 3.7349 12.268 4.39723 12.4013C4.50469 12.7968 4.63616 13.1853 4.7909 13.5647C4.32701 13.4569 3.8392 13.55 3.44757 13.821ZM9.0009 19.3333H5.85723L3.25723 16.7313C2.7129 16.1883 2.71357 16.0443 1.12523 12.55C1.05545 12.3919 1.0753 12.2086 1.17732 12.0691C1.27934 11.9296 1.44802 11.8552 1.61982 11.8738C1.79162 11.8924 1.94045 12.0012 2.01023 12.1593C3.36057 15.3107 2.83557 14.543 5.48357 17.1927C5.56726 17.2793 5.69119 17.3141 5.80774 17.2836C5.92428 17.2531 6.01529 17.1621 6.0458 17.0455C6.0763 16.929 6.04155 16.805 5.9549 16.7213C4.1289 14.8957 4.04257 14.845 3.76423 14.4187C4.1375 14.1088 4.67834 14.1079 5.05257 14.4167C5.74684 15.0533 6.54891 15.5612 7.42123 15.9167C8.2009 16.1757 9.0009 17.186 9.0009 18.6V19.3333ZM9.3199 16.9417C9.01026 16.1798 8.39949 15.5798 7.63223 15.2837C6.9772 15.0187 6.36934 14.6495 5.83223 14.1903C4.6869 12.161 4.53957 9.71534 4.5379 7.385C5.24423 6.14034 7.0969 3.26934 10.0009 1.51767C12.9112 3.28234 14.7676 6.15767 15.4762 7.40567C15.4709 9.77234 15.3296 12.1057 14.1989 14.168C13.6538 14.6367 13.0361 15.0135 12.3699 15.2837C11.602 15.5804 10.9909 16.1812 10.6812 16.944C10.23 17.0128 9.77089 17.012 9.3199 16.9417ZM16.2376 14.417C15.9606 14.8417 15.8802 14.8863 14.0469 16.7197C13.9206 16.8505 13.9224 17.0584 14.051 17.1869C14.1795 17.3155 14.3874 17.3173 14.5182 17.191C17.1409 14.5687 16.6406 15.3123 17.9916 12.1593C18.0614 12.0012 18.2102 11.8924 18.382 11.8738C18.5538 11.8552 18.7225 11.9296 18.8245 12.0691C18.9265 12.2086 18.9464 12.3919 18.8766 12.55C17.3119 15.9923 17.3022 16.175 16.7466 16.7313L14.1446 19.3333H11.0009V18.6C10.9895 17.8764 11.2233 17.1702 11.6642 16.5963C12.4459 15.619 12.6952 16.314 14.9492 14.4167C15.3231 14.1075 15.8639 14.1076 16.2376 14.417ZM17.2169 9.16667C17.2169 10.845 16.4032 11.4457 15.7982 11.661C16.0234 10.4742 16.1359 9.26869 16.1342 8.06067C16.4426 7.84167 16.7159 7.75034 16.8676 7.82367C16.9492 7.863 17.2169 8.077 17.2169 9.16667ZM17.5072 0.666671C17.9487 2.89461 17.4545 5.20606 16.1406 7.05867C16.1089 4.569 15.4512 2.86334 14.1292 1.852C13.983 1.74017 13.7737 1.76807 13.6619 1.91434C13.5501 2.0606 13.578 2.26983 13.7242 2.38167C14.6879 3.11867 15.2402 4.32467 15.4126 6.03167C14.0759 4.00167 12.0116 1.83934 9.85757 0.666671H17.5072ZM2.49523 0.666671H7.04157C6.29784 1.15929 5.6345 1.76361 5.0749 2.45834C4.95984 2.60212 4.98312 2.81194 5.1269 2.927C5.27068 3.04206 5.48051 3.01878 5.59557 2.875C6.34064 1.95497 7.27921 1.21033 8.34457 0.694004C8.68318 0.827092 9.01463 0.977741 9.33757 1.14534C6.53957 2.94667 4.75257 5.63767 3.9139 7.13334C2.55881 5.27043 2.04443 2.92576 2.49523 0.666671ZM2.79723 9.16667C2.79723 8.07567 3.0639 7.86167 3.14723 7.82234C3.2959 7.75067 3.5749 7.84334 3.88057 8.05934C3.87889 9.26792 3.9915 10.474 4.2169 11.6613C3.6119 11.4473 2.79723 10.847 2.79723 9.16667Z" stroke="black" stroke-width="0.3" mask="url(#path-1-outside-1_10215_3958)"/>
<path d="M7.24611 7.23569L7.24629 7.23575L8.53929 7.66675L8.53934 7.66676C8.6779 7.71285 8.83052 7.68152 8.93971 7.58457C9.04891 7.48762 9.09808 7.33978 9.06872 7.19674C9.03935 7.0537 8.93591 6.93719 8.79735 6.8911L8.79734 6.8911L7.50456 6.46117C7.50452 6.46116 7.50448 6.46114 7.50444 6.46113C6.94925 6.27467 6.34258 6.31774 5.8193 6.58076C5.68783 6.64535 5.60101 6.77543 5.59182 6.92164C5.58262 7.068 5.65261 7.20804 5.77517 7.28855C5.89774 7.36906 6.05406 7.37766 6.18472 7.31109L6.20423 7.30115C6.52937 7.14419 6.90334 7.12047 7.24611 7.23569Z" fill="black" stroke="black" stroke-width="0.15"/>
<path d="M11.3339 7.68792H11.3336C11.1336 7.68707 10.9636 7.54145 10.9321 7.34393C10.9006 7.14642 11.0167 6.95516 11.2065 6.89209L11.2065 6.8921L11.2302 6.96324L11.2066 6.89208L11.3339 7.68792ZM11.3339 7.68792C11.3363 7.68792 11.3387 7.68794 11.3412 7.68797C11.3568 7.68815 11.3744 7.68835 11.4045 7.68177C11.4343 7.67527 11.4793 7.66174 11.5612 7.63512C11.6515 7.60578 11.7911 7.55907 12.0127 7.4849C12.1975 7.42302 12.4395 7.34203 12.7576 7.23607L12.7579 7.23599M11.3339 7.68792L12.7579 7.23599M12.7579 7.23599C13.1075 7.11813 13.4898 7.1452 13.8193 7.31115C13.95 7.37764 14.1062 7.36901 14.2287 7.28854C14.3513 7.20803 14.4213 7.06798 14.4121 6.92163C14.4029 6.77541 14.3161 6.64533 14.1846 6.58075C13.6612 6.31774 13.0544 6.27467 12.4991 6.46113M12.7579 7.23599L12.4991 6.46113M12.4991 6.46113C12.4991 6.46114 12.4991 6.46114 12.499 6.46115L12.4991 6.46113ZM11.3532 7.61298C11.4101 7.61204 11.4667 7.58703 12.7339 7.16492L11.2302 6.96325C11.0753 7.01473 10.9804 7.17087 11.0061 7.33211C11.0319 7.49336 11.1706 7.61222 11.3339 7.61292C11.3413 7.61292 11.3472 7.61308 11.3532 7.61298Z" fill="black" stroke="black" stroke-width="0.15"/>
<path d="M8.71935 8.86699L8.71935 8.86698C8.64699 8.65401 8.41606 8.53969 8.20287 8.6112C8.18432 8.61713 7.91003 8.70346 7.536 8.71367C7.15039 8.7242 6.66567 8.65369 6.24501 8.33811L6.24501 8.33811L6.24482 8.33797C6.08309 8.21742 5.85757 8.23304 5.71399 8.37472L5.71397 8.37471L5.71274 8.37598C5.60789 8.48446 5.47293 8.55894 5.32537 8.58985C5.10353 8.59409 4.925 8.77525 4.925 8.9981C4.925 9.22362 5.10782 9.40644 5.33333 9.40644V9.40655L5.33735 9.40633C5.58447 9.39307 5.82251 9.3105 6.02441 9.16856C6.03512 9.17462 6.04582 9.18055 6.05653 9.18637C6.03224 9.21266 6.00524 9.23638 5.97594 9.25713C5.76162 9.26959 5.59167 9.44733 5.59167 9.66477C5.59167 9.78668 5.63791 9.8943 5.72133 9.96892C5.80453 10.0433 5.91906 10.08 6.04715 10.0716C6.29353 10.0555 6.58914 9.8752 6.85922 9.47505C7.39306 9.57569 7.94365 9.54495 8.46338 9.38512L8.46339 9.38516L8.46577 9.38434C8.6783 9.31109 8.79164 9.07984 8.71935 8.86699Z" fill="black" stroke="black" stroke-width="0.15"/>
<path d="M14.4168 9.66674C14.419 9.55889 14.3778 9.45467 14.3023 9.37758C14.2319 9.30564 14.1372 9.26298 14.0372 9.25759C14.004 9.23682 13.9736 9.21209 13.9467 9.18398C13.9566 9.17861 13.9666 9.17312 13.9766 9.16751C14.1783 9.31002 14.4163 9.39316 14.6636 9.40689L14.6636 9.407H14.6678C14.8933 9.407 15.0761 9.22419 15.0761 8.99867C15.0761 8.77584 14.8976 8.59469 14.6758 8.59041C14.5291 8.55943 14.395 8.48532 14.2907 8.37751L14.2907 8.37751L14.2898 8.37664C14.1461 8.23296 13.9187 8.21678 13.7561 8.33866C13.3375 8.6525 12.8557 8.72403 12.4711 8.71449C12.2792 8.70972 12.113 8.68478 11.9936 8.66056C11.9339 8.64846 11.886 8.63657 11.8526 8.62754C11.8359 8.62303 11.8228 8.61924 11.8137 8.6165L11.8031 8.61325C11.8009 8.61254 11.7997 8.61215 11.7995 8.61207C11.7994 8.61206 11.7994 8.61205 11.7994 8.61206L11.7993 8.61202C11.5859 8.53918 11.3538 8.65317 11.281 8.86661C11.2081 9.08006 11.3221 9.31214 11.5356 9.38498L11.5355 9.38502L11.5377 9.38568C12.0574 9.54576 12.608 9.57652 13.1418 9.47565C13.2256 9.60018 13.3352 9.73893 13.4671 9.85122C13.6139 9.97634 13.7943 10.0736 14.0009 10.0737M14.4168 9.66674C14.4129 9.89334 14.2275 10.0747 14.0009 10.0737M14.4168 9.66674C14.4168 9.66681 14.4168 9.66688 14.4168 9.66695L14.3418 9.66534L14.4168 9.66659C14.4168 9.66664 14.4168 9.66669 14.4168 9.66674ZM14.0009 10.0737C14.0009 10.0737 14.0008 10.0737 14.0007 10.0737L14.0011 9.99867V10.0737C14.001 10.0737 14.001 10.0737 14.0009 10.0737ZM13.878 9.22009C13.8611 9.20111 13.8456 9.18092 13.8314 9.15967C13.8538 9.14822 13.8761 9.13669 13.8984 9.12478L13.878 9.22009Z" fill="black" stroke="black" stroke-width="0.15"/>
<path d="M10.7748 10.9937L10.7747 10.9937L8.81638 11.6107L8.77467 11.6731C8.77468 11.6731 8.77469 11.6731 8.7747 11.6731C9.51708 12.1698 10.4857 12.1698 11.2281 11.6731C11.3494 11.5921 11.4183 11.4526 11.4089 11.307C11.3995 11.1614 11.3131 11.0319 11.1823 10.9673C11.0515 10.9027 10.8961 10.9127 10.7748 10.9937Z" fill="black" stroke="black" stroke-width="0.15"/>
<path d="M12.075 13.6013L12.075 13.6006C12.0738 13.4683 12.018 13.3423 11.9207 13.2525C11.8242 13.1634 11.6954 13.1178 11.5644 13.1263C11.5118 13.1255 11.4229 13.0985 11.3 13.0485C11.2112 13.0124 11.1123 12.9677 11.0066 12.9198C10.9677 12.9023 10.928 12.8843 10.8875 12.8662C10.7381 12.7994 10.5803 12.7315 10.4293 12.6803C10.2793 12.6294 10.1304 12.593 10 12.593C9.86809 12.593 9.71875 12.6294 9.56875 12.6803C9.41785 12.7315 9.26066 12.7994 9.11211 12.8662C9.0717 12.8844 9.03206 12.9024 8.99333 12.9201C8.88833 12.9678 8.79011 13.0125 8.70185 13.0485C8.57967 13.0984 8.49075 13.1255 8.4374 13.1263C8.30616 13.1174 8.17697 13.1628 8.08008 13.2519C7.98241 13.3417 7.92628 13.4679 7.925 13.6006L7.925 13.6006V13.6013C7.925 13.7437 7.99568 13.8859 8.10678 14.0153C8.21864 14.1455 8.37691 14.2693 8.56622 14.3763C8.94487 14.5904 9.45755 14.743 10 14.743C10.5425 14.743 11.0551 14.5903 11.4338 14.3762C11.6231 14.2691 11.7814 14.1454 11.8932 14.0151C12.0043 13.8858 12.075 13.7436 12.075 13.6013ZM9.99996 13.4128C10.2977 13.5012 10.5884 13.6118 10.8694 13.7438C10.3155 13.987 9.68436 13.987 9.13046 13.7437C9.41142 13.6115 9.70209 13.5009 9.99996 13.4128Z" fill="black" stroke="black" stroke-width="0.15"/>
<path d="M10.334 15.257H9.66732C9.4418 15.257 9.25898 15.4398 9.25898 15.6654C9.25898 15.8909 9.4418 16.0737 9.66732 16.0737H10.334C10.5595 16.0737 10.7423 15.8909 10.7423 15.6654C10.7423 15.4398 10.5595 15.257 10.334 15.257Z" fill="black" stroke="black" stroke-width="0.15"/>
<path d="M4.33333 4.0737C4.55885 4.0737 4.74167 3.89088 4.74167 3.66536C4.74167 3.43985 4.55885 3.25703 4.33333 3.25703C4.10782 3.25703 3.925 3.43985 3.925 3.66536C3.925 3.89088 4.10782 4.0737 4.33333 4.0737Z" fill="black" stroke="black" stroke-width="0.15"/>
</g>
<defs>
<clipPath id="clip0_10215_3958">
<rect width="20" height="20" fill="white"/>
</clipPath>
</defs>
</svg>
