<svg width="18" height="22" viewBox="0 0 18 22" fill="none" xmlns="http://www.w3.org/2000/svg">
<path d="M16.6214 20.999H1.37847C1.29208 20.999 1.22217 20.9302 1.22217 20.8452V1.15384C1.22217 1.06881 1.29208 1 1.37847 1H12.2824C12.3688 1 12.4387 1.06881 12.4387 1.15384C12.4387 1.23887 12.3688 1.30768 12.2824 1.30768H1.53478V20.6914H16.4651V5.36893C16.4651 5.2839 16.535 5.21509 16.6214 5.21509C16.7078 5.21509 16.7777 5.2839 16.7777 5.36893V20.8452C16.7777 20.9302 16.7078 20.999 16.6214 20.999Z" fill="#3D857E" stroke="#3D857E" stroke-width="1.4" stroke-linecap="round" stroke-linejoin="round"/>
<path d="M16.6198 5.52289H12.2823C12.1959 5.52289 12.126 5.45408 12.126 5.36905V1.15396C12.126 1.09191 12.1638 1.03587 12.2221 1.01199C12.2789 0.987948 12.347 1.00072 12.3922 1.04444L16.7297 5.25953C16.7749 5.3034 16.7886 5.3698 16.7645 5.42749C16.7404 5.48518 16.6833 5.52289 16.6198 5.52289ZM12.4386 5.21521H16.2391L12.4386 1.52203V5.21521Z" fill="#3D857E" stroke="#3D857E" stroke-width="1.4" stroke-linecap="round" stroke-linejoin="round"/>
<path d="M13.2626 13.9092H4.73687C4.65048 13.9092 4.58057 13.8404 4.58057 13.7554C4.58057 13.6704 4.65048 13.6016 4.73687 13.6016H13.2626C13.349 13.6016 13.4189 13.6704 13.4189 13.7554C13.4189 13.8404 13.349 13.9092 13.2626 13.9092Z" fill="#3D857E" stroke="#3D857E" stroke-width="1.4" stroke-linecap="round" stroke-linejoin="round"/>
<path d="M13.2626 10.5421H4.73687C4.65048 10.5421 4.58057 10.4732 4.58057 10.3882C4.58057 10.3032 4.65048 10.2344 4.73687 10.2344H13.2626C13.349 10.2344 13.4189 10.3032 13.4189 10.3882C13.4189 10.4732 13.349 10.5421 13.2626 10.5421Z" fill="#3D857E" stroke="#3D857E" stroke-width="1.4" stroke-linecap="round" stroke-linejoin="round"/>
<path d="M13.2626 17.2139H4.73687C4.65048 17.2139 4.58057 17.1451 4.58057 17.0601C4.58057 16.9751 4.65048 16.9062 4.73687 16.9062H13.2626C13.349 16.9062 13.4189 16.9751 13.4189 17.0601C13.4189 17.1451 13.349 17.2139 13.2626 17.2139Z" fill="#3D857E" stroke="#3D857E" stroke-width="1.4" stroke-linecap="round" stroke-linejoin="round"/>
</svg>
