<svg width="20" height="24" viewBox="0 0 20 24" fill="none" xmlns="http://www.w3.org/2000/svg">
<path d="M12.5581 23C10.6907 23 8.97415 22.143 7.85113 20.6465L7.69764 20.4419H1.81392C1.69369 20.4419 1.55811 20.3063 1.55811 20.186V2.7907C1.55811 1.80326 2.36136 1 3.3488 1H15.6279C15.7481 1 15.8837 1.13558 15.8837 1.25581V12.2712L16.0883 12.4247C17.5849 13.5528 18.4418 15.2642 18.4418 17.1163C18.4418 20.36 15.8018 23 12.5581 23ZM7.89973 19.8586L8.25276 20.3319C9.27601 21.703 10.8442 22.4884 12.5581 22.4884C14.2695 22.4884 15.8402 21.703 16.8609 20.3319L17.2139 19.856L14.2849 18.2726L14.0162 18.5488C13.6274 18.9453 13.1081 19.1628 12.5581 19.1628C12.0081 19.1628 11.4888 18.9453 11.1 18.5488L10.8314 18.2751L7.89973 19.8586ZM2.06973 19.9302H7.34206L7.0709 19.2344C6.80741 18.554 6.67439 17.8402 6.67439 17.1163C6.67439 13.8726 9.31439 11.2326 12.5581 11.2326C13.2821 11.2326 13.9958 11.3656 14.6762 11.6291L15.3721 11.9002V4.5814H3.3488C3.14927 4.5814 2.94973 4.54558 2.75531 4.47651L2.06973 4.22837V19.9302ZM7.46741 15.4023C7.28066 15.9626 7.18601 16.5381 7.18601 17.1163C7.18601 17.7072 7.27811 18.2828 7.45973 18.8277L7.65159 19.4058L10.6037 17.8172L10.5423 17.4565C10.5218 17.3235 10.5116 17.2135 10.5116 17.1163C10.5116 17.0165 10.5218 16.9091 10.5449 16.7786L10.6062 16.4179L7.66183 14.8267L7.46741 15.4023ZM14.51 16.4179L14.5714 16.7786C14.5944 16.9091 14.6046 17.0165 14.6046 17.1163C14.6046 17.234 14.5867 17.3619 14.5714 17.4488L14.5125 17.8095L17.4646 19.3981L17.6565 18.82C17.8381 18.2726 17.9302 17.697 17.9302 17.1163C17.9302 16.5381 17.8356 15.9626 17.6488 15.4023L17.4569 14.8267L14.51 16.4179ZM12.5581 15.5814C11.6986 15.5814 11.0232 16.2567 11.0232 17.1163C11.0232 17.9758 11.6986 18.6512 12.5581 18.6512C13.4176 18.6512 14.093 17.9758 14.093 17.1163C14.093 16.2567 13.4176 15.5814 12.5581 15.5814ZM12.5581 15.0698C13.1004 15.0698 13.6146 15.2872 14.0086 15.6863L14.2772 15.9574L17.2062 14.374L16.8507 13.8981C15.8274 12.5295 14.2618 11.7442 12.5581 11.7442C10.8544 11.7442 9.29136 12.5295 8.26299 13.9007L7.90741 14.3765L10.8365 15.96L11.1051 15.6888C11.5016 15.2872 12.0158 15.0698 12.5581 15.0698ZM3.3488 1.51163C2.63252 1.51163 2.06973 2.07442 2.06973 2.7907C2.06973 3.50698 2.63252 4.06977 3.3488 4.06977H15.3721V1.51163H3.3488Z" fill="#3D857E" stroke="#3D857E" stroke-width="1.3"/>
</svg>
