<svg width="20" height="20" viewBox="0 0 20 20" fill="none" xmlns="http://www.w3.org/2000/svg">
<path d="M10.0009 14.4589C10.7511 14.4589 11.3592 13.8507 11.3592 13.1005C11.3592 12.3503 10.7511 11.7422 10.0009 11.7422C9.25072 11.7422 8.64258 12.3503 8.64258 13.1005C8.64258 13.8507 9.25072 14.4589 10.0009 14.4589Z" fill="#40857E"/>
<path d="M13.8743 7.86797H6.12435C6.05768 7.86797 5.99935 7.86797 5.93268 7.86797V6.9013C5.93268 4.45964 6.62435 2.83464 9.99935 2.83464C13.6077 2.83464 14.066 4.59297 14.066 6.1263C14.066 6.4513 14.3243 6.70964 14.6493 6.70964C14.9743 6.70964 15.2327 6.4513 15.2327 6.1263C15.2327 3.16797 13.4743 1.66797 9.99935 1.66797C5.30768 1.66797 4.76602 4.6513 4.76602 6.9013V7.94297C2.43268 8.23464 1.66602 9.41797 1.66602 12.3263V13.8763C1.66602 17.293 2.70768 18.3346 6.12435 18.3346H13.8743C17.291 18.3346 18.3327 17.293 18.3327 13.8763V12.3263C18.3327 8.90964 17.291 7.86797 13.8743 7.86797ZM9.99935 15.618C8.60768 15.618 7.48268 14.4846 7.48268 13.1013C7.48268 11.7096 8.61602 10.5846 9.99935 10.5846C11.3827 10.5846 12.516 11.718 12.516 13.1013C12.516 14.493 11.391 15.618 9.99935 15.618Z" fill="#40857E"/>
</svg>
