<svg width="18" height="22" viewBox="0 0 18 22" fill="none" xmlns="http://www.w3.org/2000/svg">
<path d="M8.99989 1C6.12041 1 3.78747 3.40161 3.78747 6.36585V9.29268H2.3659C1.58655 9.29268 0.944336 9.95381 0.944336 10.7561V19.5366C0.944336 20.3389 1.58655 21 2.3659 21H15.6339C16.4132 21 17.0554 20.3389 17.0554 19.5366V10.7561C17.0554 9.95381 16.4132 9.29268 15.6339 9.29268H14.2123V6.36585C14.2123 3.40161 11.8794 1 8.99989 1ZM8.99989 1.97561C11.3707 1.97561 13.2646 3.92522 13.2646 6.36585V9.29268H4.73519V6.36585C4.73519 3.92522 6.62905 1.97561 8.99989 1.97561ZM2.3659 10.2683H15.6339C15.9046 10.2683 16.1077 10.4774 16.1077 10.7561V19.5366C16.1077 19.8153 15.9046 20.0244 15.6339 20.0244H2.3659C2.09519 20.0244 1.89205 19.8153 1.89205 19.5366V10.7561C1.89205 10.4774 2.09519 10.2683 2.3659 10.2683ZM8.99989 13.1951C7.95869 13.1951 7.10447 14.0745 7.10447 15.1463C7.10447 16.2182 7.95869 17.0976 8.99989 17.0976C10.0411 17.0976 10.8953 16.2182 10.8953 15.1463C10.8953 14.0745 10.0411 13.1951 8.99989 13.1951Z" fill="#3D857E" stroke="#3D857E" stroke-width="0.8"/>
</svg>
