<svg width="20" height="20" viewBox="0 0 20 20" fill="none" xmlns="http://www.w3.org/2000/svg">
<path d="M15.3333 1H4.66667C3.19111 1 2 2.19775 2 3.67467V13.4998C2 14.9767 3.19111 16.1745 4.66667 16.1745H5.34222C6.05333 16.1745 6.72889 16.4537 7.22667 16.958L8.74667 18.4799C9.44 19.1734 10.5689 19.1734 11.2622 18.4799L12.7822 16.958C13.28 16.4537 13.9644 16.1745 14.6667 16.1745H15.3333C16.8089 16.1745 18 14.9767 18 13.4998V3.67467C18 2.19775 16.8089 1 15.3333 1ZM10 4.37711C11.1467 4.37711 12.0711 5.3137 12.0711 6.47542C12.0711 7.63715 11.1467 8.57373 10 8.57373C8.85333 8.57373 7.92889 7.62814 7.92889 6.47542C7.92889 5.3137 8.85333 4.37711 10 4.37711ZM12.3822 12.7614H7.61778C6.89778 12.7614 6.48 11.9508 6.88 11.3475C7.48444 10.4379 8.65778 9.82552 10 9.82552C11.3422 9.82552 12.5156 10.4379 13.12 11.3475C13.52 11.9508 13.0933 12.7614 12.3822 12.7614Z" fill="#40857E"/>
</svg>
