<svg width="20" height="20" viewBox="0 0 20 20" fill="none" xmlns="http://www.w3.org/2000/svg">
<path d="M13 2.80761V6.42283H11.5425V2.80761C11.5425 2.55074 11.3093 2.42706 11.1538 2.42706C11.1053 2.42706 11.0567 2.43658 11.0081 2.4556L3.30283 5.30021C2.78785 5.49049 2.45749 5.96617 2.45749 6.50846V7.14588C1.57328 7.79281 1 8.82981 1 10V6.50846C1 5.37632 1.70931 4.36786 2.78785 3.96829L10.5028 1.11417C10.7166 1.03806 10.9401 1 11.1538 1C12.1255 1 13 1.77061 13 2.80761Z" fill="#40857E"/>
<path d="M19 12.5V13.5C19 13.77 18.7903 13.99 18.5107 14H17.053C16.5238 14 16.0445 13.61 16.0046 13.09C15.9746 12.78 16.0944 12.49 16.2941 12.29C16.4739 12.1 16.7235 12 16.9931 12H18.5008C18.7903 12.01 19 12.23 19 12.5Z" fill="#40857E"/>
<path d="M17.0863 10.7439H18.0526C18.5737 10.7439 19 10.3333 19 9.83158V9.43018C19 7.54175 17.3989 6 15.4379 6H4.56211C3.75684 6 3.01789 6.25544 2.42105 6.69333C1.55895 7.31368 1 8.30807 1 9.43018V15.5698C1 17.4582 2.60105 19 4.56211 19H15.4379C17.3989 19 19 17.4582 19 15.5698V15.3965C19 14.8947 18.5737 14.4842 18.0526 14.4842H17.2284C16.3189 14.4842 15.4474 13.946 15.2105 13.0975C15.0116 12.4042 15.2484 11.7382 15.7221 11.2912C16.0726 10.9446 16.5558 10.7439 17.0863 10.7439ZM11.8947 10.5614H5.26316C4.87474 10.5614 4.55263 10.2512 4.55263 9.87719C4.55263 9.50316 4.87474 9.19298 5.26316 9.19298H11.8947C12.2832 9.19298 12.6053 9.50316 12.6053 9.87719C12.6053 10.2512 12.2832 10.5614 11.8947 10.5614Z" fill="#40857E"/>
</svg>
