<svg width="20" height="20" viewBox="0 0 20 20" fill="none" xmlns="http://www.w3.org/2000/svg">
<path d="M15.034 11.2904C14.684 11.632 14.484 12.1237 14.534 12.6487C14.609 13.5487 15.434 14.207 16.334 14.207H17.9173V15.1987C17.9173 16.9237 16.509 18.332 14.784 18.332H5.21732C3.49232 18.332 2.08398 16.9237 2.08398 15.1987V9.59037C2.08398 7.86537 3.49232 6.45703 5.21732 6.45703H14.784C16.509 6.45703 17.9173 7.86537 17.9173 9.59037V10.7904H16.234C15.7673 10.7904 15.3423 10.9737 15.034 11.2904Z" stroke="#292D32" stroke-width="1.5" stroke-linecap="round" stroke-linejoin="round"/>
<path d="M2.08398 10.3401V6.53183C2.08398 5.54017 2.69232 4.6568 3.61732 4.3068L10.234 1.8068C11.2673 1.41513 12.3757 2.18182 12.3757 3.29015V6.45681" stroke="#292D32" stroke-width="1.5" stroke-linecap="round" stroke-linejoin="round"/>
<path d="M18.7997 11.6429V13.3597C18.7997 13.818 18.433 14.1929 17.9663 14.2096H16.333C15.433 14.2096 14.608 13.5513 14.533 12.6513C14.483 12.1263 14.683 11.6346 15.033 11.2929C15.3413 10.9763 15.7663 10.793 16.233 10.793H17.9663C18.433 10.8096 18.7997 11.1846 18.7997 11.6429Z" stroke="#292D32" stroke-width="1.5" stroke-linecap="round" stroke-linejoin="round"/>
<path d="M5.83398 10H11.6673" stroke="#292D32" stroke-width="1.5" stroke-linecap="round" stroke-linejoin="round"/>
</svg>
